M48
INCH
T48C0.020
T47C0.129
T46C0.045
T45C0.047
T44C0.038
%
T48
X013450Y008700
X012450Y004850
X013200Y001550
X010400Y001000
X010950Y001500
X011250Y004850
X011800Y003450
X011800Y003900
X011800Y004350
X007350Y009450
X007350Y010250
X009050Y009550
X009050Y010250
X006300Y009700
X010900Y009150
X013950Y010650
X011050Y010950
X011900Y009800
X011400Y009800
X016100Y010600
X008200Y008900
X009150Y008600
T44
X006100Y011450
X007100Y011450
X008100Y011450
X004800Y006700
X002800Y006700
X000800Y006700
X009150Y003700
X000800Y003700
X002800Y003700
X004800Y003700
X007800Y003700
X011150Y003700
X013150Y003700
X016150Y003700
X013300Y007950
X016150Y006700
X013150Y006700
X012300Y007950
X011300Y007950
X011150Y006700
X010300Y007950
X009300Y007950
X008300Y007950
X009150Y006700
X007800Y006700
T46
X006300Y008400
X005300Y008400
X004300Y008400
T45
X001467Y011044
X001467Y009666
X001467Y008289
X005906Y001467
X007284Y001467
X008661Y001467
X000956Y001467
X002334Y001467
X003711Y001467
T47
X015300Y001600
X015300Y008900
M30
