G04 start of page 2 for group 0 idx 0 *
G04 Title: (unknown), component *
G04 Creator: pcb 20110918 *
G04 CreationDate: Sun 03 Feb 2013 01:34:53 AM GMT UTC *
G04 For: petersen *
G04 Format: Gerber/RS-274X *
G04 PCB-Dimensions: 170000 120000 *
G04 PCB-Coordinate-Origin: lower left *
%MOIN*%
%FSLAX25Y25*%
%LNTOP*%
%ADD29C,0.1285*%
%ADD28C,0.0450*%
%ADD27C,0.0472*%
%ADD26C,0.0380*%
%ADD25R,0.0360X0.0360*%
%ADD24R,0.0512X0.0512*%
%ADD23R,0.0240X0.0240*%
%ADD22R,0.0340X0.0340*%
%ADD21C,0.2937*%
%ADD20C,0.0680*%
%ADD19C,0.0800*%
%ADD18C,0.0787*%
%ADD17C,0.0250*%
%ADD16C,0.0700*%
%ADD15C,0.0600*%
%ADD14C,0.0400*%
%ADD13C,0.0100*%
%ADD12C,0.0200*%
%ADD11C,0.0001*%
G54D11*G36*
X122500Y18000D02*X115000D01*
Y25000D01*
X122500D01*
Y18000D01*
G37*
G36*
X101500Y7500D02*Y12000D01*
X119500D01*
Y7500D01*
X101500D01*
G37*
G36*
X120500Y20500D02*X122500D01*
Y10500D01*
X120500D01*
Y20500D01*
G37*
G36*
X7000Y117500D02*X37000D01*
Y109500D01*
X7000D01*
Y117500D01*
G37*
G36*
X21500D01*
Y104000D01*
X7000D01*
Y117500D01*
G37*
G36*
X39500D02*X51000D01*
Y97000D01*
X39500D01*
Y117500D01*
G37*
G36*
X48000Y77000D02*X43000D01*
Y78063D01*
X44937D01*
X45094Y78072D01*
X45247Y78109D01*
X45392Y78169D01*
X45527Y78251D01*
X45646Y78354D01*
X45749Y78473D01*
X45831Y78608D01*
X45891Y78753D01*
X45928Y78906D01*
X45940Y79063D01*
X45928Y79220D01*
X45891Y79373D01*
X45831Y79518D01*
X45749Y79653D01*
X45646Y79772D01*
X45527Y79875D01*
X45392Y79957D01*
X45247Y80017D01*
X45094Y80054D01*
X44937Y80063D01*
X43000D01*
Y87937D01*
X44937D01*
X45094Y87946D01*
X45247Y87983D01*
X45392Y88043D01*
X45527Y88125D01*
X45646Y88228D01*
X45749Y88347D01*
X45831Y88482D01*
X45891Y88627D01*
X45928Y88780D01*
X45940Y88937D01*
X45928Y89094D01*
X45891Y89247D01*
X45831Y89392D01*
X45749Y89527D01*
X45646Y89646D01*
X45527Y89749D01*
X45392Y89831D01*
X45247Y89891D01*
X45094Y89928D01*
X44937Y89937D01*
X43000D01*
Y98500D01*
X48000D01*
Y87203D01*
X47834Y86932D01*
X47780Y86928D01*
X47627Y86891D01*
X47482Y86831D01*
X47347Y86749D01*
X47228Y86646D01*
X47125Y86527D01*
X47043Y86392D01*
X46983Y86247D01*
X46946Y86094D01*
X46937Y85937D01*
Y82063D01*
X46946Y81906D01*
X46983Y81753D01*
X47043Y81608D01*
X47125Y81473D01*
X47228Y81354D01*
X47347Y81251D01*
X47482Y81169D01*
X47627Y81109D01*
X47780Y81072D01*
X47834Y81068D01*
X48000Y80797D01*
Y77000D01*
G37*
G36*
X43000D02*X38063D01*
Y81060D01*
X38220Y81072D01*
X38373Y81109D01*
X38518Y81169D01*
X38653Y81251D01*
X38772Y81354D01*
X38875Y81473D01*
X38957Y81608D01*
X39017Y81753D01*
X39054Y81906D01*
X39063Y82063D01*
Y85937D01*
X39054Y86094D01*
X39017Y86247D01*
X38957Y86392D01*
X38875Y86527D01*
X38772Y86646D01*
X38653Y86749D01*
X38518Y86831D01*
X38373Y86891D01*
X38220Y86928D01*
X38063Y86940D01*
Y98500D01*
X43000D01*
Y89937D01*
X41063D01*
X40906Y89928D01*
X40753Y89891D01*
X40608Y89831D01*
X40473Y89749D01*
X40354Y89646D01*
X40251Y89527D01*
X40169Y89392D01*
X40109Y89247D01*
X40072Y89094D01*
X40060Y88937D01*
X40072Y88780D01*
X40109Y88627D01*
X40169Y88482D01*
X40251Y88347D01*
X40354Y88228D01*
X40473Y88125D01*
X40608Y88043D01*
X40753Y87983D01*
X40906Y87946D01*
X41063Y87937D01*
X43000D01*
Y80063D01*
X41063D01*
X40906Y80054D01*
X40753Y80017D01*
X40608Y79957D01*
X40473Y79875D01*
X40354Y79772D01*
X40251Y79653D01*
X40169Y79518D01*
X40109Y79373D01*
X40072Y79220D01*
X40060Y79063D01*
X40072Y78906D01*
X40109Y78753D01*
X40169Y78608D01*
X40251Y78473D01*
X40354Y78354D01*
X40473Y78251D01*
X40608Y78169D01*
X40753Y78109D01*
X40906Y78072D01*
X41063Y78063D01*
X43000D01*
Y77000D01*
G37*
G36*
X38063D02*X33500D01*
Y98500D01*
X38063D01*
Y86940D01*
X37906Y86928D01*
X37753Y86891D01*
X37608Y86831D01*
X37473Y86749D01*
X37354Y86646D01*
X37251Y86527D01*
X37169Y86392D01*
X37109Y86247D01*
X37072Y86094D01*
X37063Y85937D01*
Y82063D01*
X37072Y81906D01*
X37109Y81753D01*
X37169Y81608D01*
X37251Y81473D01*
X37354Y81354D01*
X37473Y81251D01*
X37608Y81169D01*
X37753Y81109D01*
X37906Y81072D01*
X38063Y81060D01*
Y77000D01*
G37*
G36*
X51000Y97000D02*X47000Y93000D01*
Y98000D01*
X51000D01*
Y97000D01*
G37*
G36*
X101500Y12500D02*X106500D01*
Y7500D01*
X101500D01*
Y12500D01*
G37*
G36*
X123500Y18000D02*Y27000D01*
X128500D01*
Y18000D01*
X123500D01*
G37*
G54D12*X139500Y106500D02*X142000D01*
X149000Y113500D01*
X139862Y114000D02*X138500D01*
X160810D02*Y106190D01*
X161000Y106000D01*
X134000Y112500D02*X135500Y114000D01*
X139862D01*
X121500Y93000D02*X125500D01*
X119000Y98000D02*Y95500D01*
X121500Y93000D01*
G54D13*X114000Y98000D02*Y91500D01*
X119000Y86500D01*
X130000D02*X133000Y83500D01*
Y79500D01*
G54D14*X161500Y37000D02*X146000D01*
G54D13*X112500Y48500D02*X124500D01*
G54D15*X102000Y54500D02*X131000D01*
G54D13*X125600Y15500D02*X125500Y15400D01*
X132000Y15500D02*X125600D01*
G54D12*X125500Y11500D02*X121500D01*
G54D16*X131500Y67000D02*Y37000D01*
G54D14*X118000Y43500D02*Y21500D01*
X134000Y25000D02*X126000D01*
X146000Y37000D02*X134000Y25000D01*
X128000Y73500D02*X115500Y60500D01*
X142500Y73500D02*X128000D01*
X142500D02*X149000Y67000D01*
X161500D02*X149000D01*
G54D12*X133000Y102500D02*X132500Y103000D01*
X125414D02*Y105914D01*
X132500Y103000D02*Y93086D01*
X132586Y93000D01*
Y88914D01*
X134500Y87000D01*
G54D13*X119000Y86500D02*X130000D01*
G54D12*X117500Y114000D02*X128052D01*
X125414Y105914D02*X127500Y108000D01*
X131500D01*
X134000Y110500D01*
Y112500D01*
G54D13*X105043Y114500D02*Y110957D01*
X106500Y109500D01*
X90500Y87000D02*X91500Y86000D01*
G54D14*X113000Y79500D02*X103500Y89000D01*
G54D13*X99000Y94500D02*Y84000D01*
X98000Y83000D01*
Y76500D01*
X96500Y75000D01*
X107500D02*X103000Y79500D01*
X85800Y86700D02*X93000Y79500D01*
X109000Y91500D02*X118000Y82500D01*
Y76500D01*
X116500Y75000D01*
X107500D01*
G54D14*X115500Y60500D02*X84500D01*
X55914Y103000D02*Y96414D01*
X53000Y93500D01*
Y84000D01*
X66000Y92000D02*X53500D01*
X63000Y103000D02*Y97000D01*
G54D16*Y52000D02*X48000Y67000D01*
G54D14*X34957Y103000D02*X30500D01*
X24000Y96500D01*
X14838D01*
X14673Y96665D01*
G54D13*X96500Y75000D02*X22559D01*
X14673Y82886D01*
G54D16*X38000Y57000D02*X28000Y67000D01*
G54D12*X81900Y89100D02*X82000Y89000D01*
G54D13*X90500Y95500D02*Y87000D01*
G54D12*X81900Y97600D02*Y89100D01*
G54D14*X78500Y79500D02*X66000Y92000D01*
G54D12*X81900Y80600D02*X83000Y79500D01*
G54D14*X84500Y60500D02*X78000Y67000D01*
X83000Y79500D02*X78500D01*
G54D17*X81900Y102700D02*Y107900D01*
G54D12*X81000Y98500D02*X69500D01*
G54D13*X73500Y102500D02*X77800D01*
X78000Y102700D01*
G54D12*X81900Y97600D02*X81000Y98500D01*
G54D13*X73500Y94500D02*X78000D01*
G54D12*X69500Y98500D02*X68000Y100000D01*
Y107500D01*
X61000Y114500D01*
G54D14*X71000D02*X77500Y108000D01*
X103500Y105500D02*Y89000D01*
X101000Y108000D02*X103500Y105500D01*
G54D12*X102900Y102700D02*X110700D01*
X115000Y107000D01*
Y111500D01*
X117500Y114000D01*
G54D13*X106500Y109500D02*X110500D01*
G54D14*X77500Y108000D02*X101000D01*
G54D17*X81900Y107900D02*X82000Y108000D01*
G54D13*X81000Y114500D02*X97957D01*
X95100Y102700D02*Y100100D01*
X90500Y95500D01*
X85800Y102700D02*X90300D01*
X90500Y102500D01*
X94900D02*X95100Y102700D01*
X85800Y94500D02*Y86700D01*
G54D16*X63000Y31500D02*Y52000D01*
X57327Y14673D02*X38000Y34000D01*
X26500Y5500D02*X92000D01*
X59055Y14673D02*X57327D01*
X72835D02*Y21665D01*
X63000Y31500D01*
X23335Y14673D02*Y8665D01*
X26500Y5500D01*
X9555Y18555D02*X28000Y37000D01*
X9555Y14673D02*Y18555D01*
X38000Y34000D02*Y57000D01*
X96000Y26500D02*X102000Y32500D01*
Y54000D01*
X96000Y9500D02*Y26500D01*
G54D13*X109900Y15400D02*X109500Y15000D01*
X117300Y15400D02*X109900D01*
G54D16*X92000Y5500D02*X96000Y9500D01*
G54D11*G36*
X58000Y117500D02*Y111500D01*
X64000D01*
Y117500D01*
X58000D01*
G37*
G54D15*X71000Y114500D03*
X81000D03*
G54D11*G36*
X10673Y114445D02*Y106445D01*
X18673D01*
Y114445D01*
X10673D01*
G37*
G54D18*X63000Y84000D03*
X53000D03*
G54D11*G36*
X39063Y87937D02*Y80063D01*
X46937D01*
Y87937D01*
X39063D01*
G37*
G54D19*X14673Y96665D03*
Y82886D03*
G54D20*X48000Y67000D03*
X28000D03*
X8000D03*
G54D11*G36*
X55055Y18673D02*Y10673D01*
X63055D01*
Y18673D01*
X55055D01*
G37*
G54D19*X72835Y14673D03*
X86614D03*
G54D21*X153000Y16000D03*
G54D20*X91500Y37000D03*
X8000D03*
X28000D03*
X48000D03*
X78000D03*
X111500D03*
X131500D03*
X161500D03*
G54D11*G36*
X5555Y18673D02*Y10673D01*
X13555D01*
Y18673D01*
X5555D01*
G37*
G54D19*X23335Y14673D03*
X37114D03*
G54D21*X153000Y89000D03*
G54D11*G36*
X130000Y82500D02*Y76500D01*
X136000D01*
Y82500D01*
X130000D01*
G37*
G36*
X158100Y70400D02*Y63600D01*
X164900D01*
Y70400D01*
X158100D01*
G37*
G54D20*X131500Y67000D03*
G54D15*X123000Y79500D03*
X113000D03*
G54D20*X111500Y67000D03*
G54D15*X103000Y79500D03*
X93000D03*
X83000D03*
G54D20*X91500Y67000D03*
G54D11*G36*
X74600Y70400D02*Y63600D01*
X81400D01*
Y70400D01*
X74600D01*
G37*
G54D22*X102900Y103000D02*Y102400D01*
X95100Y103000D02*Y102400D01*
X99000Y94800D02*Y94200D01*
G54D23*X81900Y95300D02*Y93700D01*
X85800Y95300D02*Y93700D01*
Y103500D02*Y101900D01*
X81900Y103500D02*Y101900D01*
X78000Y103500D02*Y101900D01*
G54D24*X105043Y114893D02*Y114107D01*
X97957Y114893D02*Y114107D01*
X149000Y115181D02*Y112819D01*
X160810Y115181D02*Y112819D01*
X139862Y115181D02*Y112819D01*
X128052Y115181D02*Y112819D01*
X132586Y93393D02*Y92607D01*
X125500Y93393D02*Y92607D01*
X132500Y103393D02*Y102607D01*
X125414Y103393D02*Y102607D01*
X63000Y103393D02*Y102607D01*
X55914Y103393D02*Y102607D01*
G54D25*X47400Y114100D02*Y112900D01*
X34500Y114100D02*Y112900D01*
G54D24*X42043Y103393D02*Y102607D01*
X34957Y103393D02*Y102607D01*
G54D23*X78000Y95300D02*Y93700D01*
X124700Y11500D02*X126300D01*
X124700Y15400D02*X126300D01*
X124700Y19300D02*X126300D01*
X116500D02*X118100D01*
X116500Y15400D02*X118100D01*
X116500Y11500D02*X118100D01*
G54D14*X134500Y87000D03*
X124500Y48500D03*
X132000Y15500D03*
X104000Y10000D03*
X109500Y15000D03*
X112500Y48500D03*
X118000Y34500D03*
Y39000D03*
Y43500D03*
X73500Y94500D03*
Y102500D03*
X90500Y95500D03*
Y102500D03*
X63000Y97000D03*
X109000Y91500D03*
X139500Y106500D03*
X110500Y109500D03*
X119000Y98000D03*
X114000D03*
X161000Y106000D03*
X82000Y89000D03*
X91500Y86000D03*
G54D12*G54D26*G54D27*G54D28*G54D27*G54D26*G54D27*G54D29*G54D26*G54D27*G54D29*G54D26*M02*
