G04 start of page 5 for group -4063 idx -4063 *
G04 Title: (unknown), componentmask *
G04 Creator: pcb 20110918 *
G04 CreationDate: Sun 03 Feb 2013 01:34:53 AM GMT UTC *
G04 For: petersen *
G04 Format: Gerber/RS-274X *
G04 PCB-Dimensions: 170000 120000 *
G04 PCB-Coordinate-Origin: lower left *
%MOIN*%
%FSLAX25Y25*%
%LNTOPMASK*%
%ADD58R,0.0420X0.0420*%
%ADD57R,0.0572X0.0572*%
%ADD56R,0.0300X0.0300*%
%ADD55R,0.0400X0.0400*%
%ADD54C,0.2937*%
%ADD53C,0.0750*%
%ADD52C,0.0860*%
%ADD51C,0.0900*%
%ADD50C,0.0660*%
%ADD49C,0.0001*%
G54D49*G36*
X57700Y117800D02*Y111200D01*
X64300D01*
Y117800D01*
X57700D01*
G37*
G54D50*X71000Y114500D03*
X81000D03*
G54D49*G36*
X10373Y114745D02*Y106145D01*
X18973D01*
Y114745D01*
X10373D01*
G37*
G54D51*X63000Y84000D03*
X53000D03*
G54D49*G36*
X38500Y88500D02*Y79500D01*
X47500D01*
Y88500D01*
X38500D01*
G37*
G54D52*X14673Y96665D03*
Y82886D03*
G54D53*X48000Y67000D03*
X28000D03*
X8000D03*
G54D49*G36*
X54755Y18973D02*Y10373D01*
X63355D01*
Y18973D01*
X54755D01*
G37*
G54D52*X72835Y14673D03*
X86614D03*
G54D54*X153000Y16000D03*
G54D53*X91500Y37000D03*
X8000D03*
X28000D03*
X48000D03*
X78000D03*
X111500D03*
X131500D03*
X161500D03*
G54D49*G36*
X5255Y18973D02*Y10373D01*
X13855D01*
Y18973D01*
X5255D01*
G37*
G54D52*X23335Y14673D03*
X37114D03*
G54D54*X153000Y89000D03*
G54D49*G36*
X129700Y82800D02*Y76200D01*
X136300D01*
Y82800D01*
X129700D01*
G37*
G36*
X157750Y70750D02*Y63250D01*
X165250D01*
Y70750D01*
X157750D01*
G37*
G54D53*X131500Y67000D03*
G54D50*X123000Y79500D03*
X113000D03*
G54D53*X111500Y67000D03*
G54D50*X103000Y79500D03*
X93000D03*
X83000D03*
G54D53*X91500Y67000D03*
G54D49*G36*
X74250Y70750D02*Y63250D01*
X81750D01*
Y70750D01*
X74250D01*
G37*
G54D55*X102900Y103000D02*Y102400D01*
X95100Y103000D02*Y102400D01*
X99000Y94800D02*Y94200D01*
G54D56*X81900Y95300D02*Y93700D01*
X85800Y95300D02*Y93700D01*
Y103500D02*Y101900D01*
X81900Y103500D02*Y101900D01*
X78000Y103500D02*Y101900D01*
G54D57*X105043Y114893D02*Y114107D01*
X97957Y114893D02*Y114107D01*
X149000Y115181D02*Y112819D01*
X160810Y115181D02*Y112819D01*
X139862Y115181D02*Y112819D01*
X128052Y115181D02*Y112819D01*
X132586Y93393D02*Y92607D01*
X125500Y93393D02*Y92607D01*
X132500Y103393D02*Y102607D01*
X125414Y103393D02*Y102607D01*
X63000Y103393D02*Y102607D01*
X55914Y103393D02*Y102607D01*
G54D58*X47400Y114100D02*Y112900D01*
X34500Y114100D02*Y112900D01*
G54D57*X42043Y103393D02*Y102607D01*
X34957Y103393D02*Y102607D01*
G54D56*X78000Y95300D02*Y93700D01*
X124700Y11500D02*X126300D01*
X124700Y15400D02*X126300D01*
X124700Y19300D02*X126300D01*
X116500D02*X118100D01*
X116500Y15400D02*X118100D01*
X116500Y11500D02*X118100D01*
M02*
