G04 start of page 7 for group -4079 idx -4079 *
G04 Title: (unknown), topsilk *
G04 Creator: pcb 20110918 *
G04 CreationDate: Sun 03 Feb 2013 01:34:53 AM GMT UTC *
G04 For: petersen *
G04 Format: Gerber/RS-274X *
G04 PCB-Dimensions: 170000 120000 *
G04 PCB-Coordinate-Origin: lower left *
%MOIN*%
%FSLAX25Y25*%
%LNTOPSILK*%
%ADD67C,0.0100*%
%ADD66C,0.0001*%
G54D66*G36*
X74500Y90500D02*X76500D01*
Y88500D01*
X74500D01*
Y90500D01*
G37*
G36*
X129500Y10000D02*X131500D01*
Y8000D01*
X129500D01*
Y10000D01*
G37*
G54D67*X169500Y119500D02*Y500D01*
X123000Y118000D02*Y116000D01*
X122000Y117000D02*X124000D01*
X166000Y118000D02*Y116000D01*
X165000Y117000D02*X167000D01*
X500Y119500D02*X169500D01*
Y500D02*X500D01*
Y119500D01*
X72685Y74157D02*X33315D01*
X72685Y95811D02*X33315D01*
Y89905D02*X72685D01*
Y95811D02*Y74157D01*
X33315D02*Y95811D01*
X500Y119500D02*Y73831D01*
X28059D01*
Y119500D01*
X500D01*
Y500D02*X46169D01*
Y28059D02*Y500D01*
X500Y28059D02*X46169D01*
X500D02*Y500D01*
X50000D02*X95669D01*
Y28059D02*Y500D01*
X50000Y28059D02*X95669D01*
X50000D02*Y500D01*
X78000Y84500D02*X138000D01*
X78000D02*Y74500D01*
X138000D01*
Y84500D02*Y74500D01*
X128000Y84500D02*Y74500D01*
X138000D01*
X86500Y72000D02*X166500D01*
X86500D02*Y32000D01*
X166500D01*
Y72000D02*Y57000D01*
Y47000D02*Y32000D01*
Y57000D02*G75*G03X166500Y47000I0J-5000D01*G01*
X114500Y9500D02*X128400D01*
Y21300D02*Y9500D01*
X114500Y21300D02*X128400D01*
X114500D02*Y9500D01*
X131595Y110260D02*X136319D01*
X131595Y117740D02*X136319D01*
X3000Y72000D02*X83000D01*
X3000D02*Y32000D01*
X83000D01*
Y72000D02*Y57000D01*
Y47000D02*Y32000D01*
Y57000D02*G75*G03X83000Y47000I0J-5000D01*G01*
X152543Y117740D02*X157267D01*
X152543Y110260D02*X157267D01*
X101107Y111745D02*X101893D01*
X101107Y117255D02*X101893D01*
X128650Y90245D02*X129436D01*
X128650Y95755D02*X129436D01*
X128564Y100245D02*X129350D01*
X128564Y105755D02*X129350D01*
X59064Y100245D02*X59850D01*
X59064Y105755D02*X59850D01*
X56000Y109500D02*X86000D01*
Y119500D02*Y109500D01*
X56000Y119500D02*X86000D01*
X56000D02*Y109500D01*
X66000Y119500D02*Y109500D01*
X56000Y119500D02*X66000D01*
X105400Y105600D02*Y91700D01*
X92600Y105600D02*X105400D01*
X92600D02*Y91700D01*
X105400D01*
X44000Y117500D02*Y109500D01*
X31100Y117500D02*Y109500D01*
X50800Y117500D02*Y109500D01*
X31100D02*X50800D01*
X31100Y117500D02*X50800D01*
X76000Y105500D02*Y91600D01*
X87800D01*
Y105500D01*
X76000D01*
X38107Y100245D02*X38893D01*
X38107Y105755D02*X38893D01*
X22000Y79500D02*X23500D01*
Y76000D01*
X23000Y75500D02*X23500Y76000D01*
X22500Y75500D02*X23000D01*
X22000Y76000D02*X22500Y75500D01*
X25200D02*X26200D01*
X25700Y79500D02*Y75500D01*
X24700Y78500D02*X25700Y79500D01*
X70000Y6500D02*X71500D01*
Y3000D01*
X71000Y2500D02*X71500Y3000D01*
X70500Y2500D02*X71000D01*
X70000Y3000D02*X70500Y2500D01*
X72700Y4500D02*X74700Y6500D01*
X72700Y4500D02*X75200D01*
X74700Y6500D02*Y2500D01*
X153000Y54000D02*Y50000D01*
Y52000D02*X155000Y54000D01*
X153000Y52000D02*X155000Y50000D01*
X156200Y53500D02*X156700Y54000D01*
X158200D01*
X158700Y53500D01*
Y52500D01*
X156200Y50000D02*X158700Y52500D01*
X156200Y50000D02*X158700D01*
X70500Y54000D02*Y50000D01*
Y52000D02*X72500Y54000D01*
X70500Y52000D02*X72500Y50000D01*
X74200D02*X75200D01*
X74700Y54000D02*Y50000D01*
X73700Y53000D02*X74700Y54000D01*
X118500Y26800D02*Y23300D01*
X119000Y22800D01*
X120000D01*
X120500Y23300D01*
Y26800D02*Y23300D01*
X121700Y26300D02*X122200Y26800D01*
X123200D01*
X123700Y26300D01*
Y23300D01*
X123200Y22800D02*X123700Y23300D01*
X122200Y22800D02*X123200D01*
X121700Y23300D02*X122200Y22800D01*
Y24800D02*X123700D01*
X21000Y6500D02*X22500D01*
Y3000D01*
X22000Y2500D02*X22500Y3000D01*
X21500Y2500D02*X22000D01*
X21000Y3000D02*X21500Y2500D01*
X23700Y6500D02*X25700D01*
X23700D02*Y4500D01*
X24200Y5000D01*
X25200D01*
X25700Y4500D01*
Y3000D01*
X25200Y2500D02*X25700Y3000D01*
X24200Y2500D02*X25200D01*
X23700Y3000D02*X24200Y2500D01*
X106700Y99900D02*Y96900D01*
Y99900D02*X107200Y100400D01*
X108200D01*
X108700Y99900D01*
Y96900D01*
X108200Y96400D02*X108700Y96900D01*
X107200Y96400D02*X108200D01*
X106700Y96900D02*X107200Y96400D01*
X107700Y97400D02*X108700Y96400D01*
X110400D02*X111400D01*
X110900Y100400D02*Y96400D01*
X109900Y99400D02*X110900Y100400D01*
X152255Y108650D02*Y104650D01*
X153755Y108650D02*X154255Y108150D01*
Y105150D01*
X153755Y104650D02*X154255Y105150D01*
X151755Y104650D02*X153755D01*
X151755Y108650D02*X153755D01*
X155455Y108150D02*X155955Y108650D01*
X157455D01*
X157955Y108150D01*
Y107150D01*
X155455Y104650D02*X157955Y107150D01*
X155455Y104650D02*X157955D01*
X114979Y94960D02*X116979D01*
X117479Y94460D01*
Y93460D01*
X116979Y92960D02*X117479Y93460D01*
X115479Y92960D02*X116979D01*
X115479Y94960D02*Y90960D01*
Y92960D02*X117479Y90960D01*
X118679Y94460D02*X119179Y94960D01*
X120679D01*
X121179Y94460D01*
Y93460D01*
X118679Y90960D02*X121179Y93460D01*
X118679Y90960D02*X121179D01*
X116031Y105150D02*X118031D01*
X118531Y104650D01*
Y103650D01*
X118031Y103150D02*X118531Y103650D01*
X116531Y103150D02*X118031D01*
X116531Y105150D02*Y101150D01*
Y103150D02*X118531Y101150D01*
X120231D02*X121231D01*
X120731Y105150D02*Y101150D01*
X119731Y104150D02*X120731Y105150D01*
X46936Y103650D02*X48436D01*
X46436Y104150D02*X46936Y103650D01*
X46436Y107150D02*Y104150D01*
Y107150D02*X46936Y107650D01*
X48436D01*
X49636Y107150D02*X50136Y107650D01*
X51636D01*
X52136Y107150D01*
Y106150D01*
X49636Y103650D02*X52136Y106150D01*
X49636Y103650D02*X52136D01*
X87500Y116500D02*X89000D01*
Y113000D01*
X88500Y112500D02*X89000Y113000D01*
X88000Y112500D02*X88500D01*
X87500Y113000D02*X88000Y112500D01*
X90200Y116000D02*X90700Y116500D01*
X92200D01*
X92700Y116000D01*
Y115000D01*
X90200Y112500D02*X92700Y115000D01*
X90200Y112500D02*X92700D01*
X37945Y115110D02*Y111550D01*
X39280Y115110D02*X39725Y114665D01*
Y111995D01*
X39280Y111550D02*X39725Y111995D01*
X37500Y111550D02*X39280D01*
X37500Y115110D02*X39280D01*
X40793Y114665D02*X41238Y115110D01*
X42128D01*
X42573Y114665D01*
Y111995D01*
X42128Y111550D02*X42573Y111995D01*
X41238Y111550D02*X42128D01*
X40793Y111995D02*X41238Y111550D01*
Y113330D02*X42573D01*
X69500Y101800D02*Y98300D01*
X70000Y97800D01*
X71000D01*
X71500Y98300D01*
Y101800D02*Y98300D01*
X73200Y97800D02*X74200D01*
X73700Y101800D02*Y97800D01*
X72700Y100800D02*X73700Y101800D01*
X46307Y97150D02*X47807D01*
X45807Y97650D02*X46307Y97150D01*
X45807Y100650D02*Y97650D01*
Y100650D02*X46307Y101150D01*
X47807D01*
X49507Y97150D02*X50507D01*
X50007Y101150D02*Y97150D01*
X49007Y100150D02*X50007Y101150D01*
X66158Y79295D02*Y76180D01*
X66603Y75735D01*
X67493D01*
X67938Y76180D01*
Y79295D02*Y76180D01*
X69006Y78850D02*X69451Y79295D01*
X70786D01*
X71231Y78850D01*
Y77960D01*
X69006Y75735D02*X71231Y77960D01*
X69006Y75735D02*X71231D01*
X108807Y116650D02*X110807D01*
X111307Y116150D01*
Y115150D01*
X110807Y114650D02*X111307Y115150D01*
X109307Y114650D02*X110807D01*
X109307Y116650D02*Y112650D01*
Y114650D02*X111307Y112650D01*
X112507Y116150D02*X113007Y116650D01*
X114007D01*
X114507Y116150D01*
Y113150D01*
X114007Y112650D02*X114507Y113150D01*
X113007Y112650D02*X114007D01*
X112507Y113150D02*X113007Y112650D01*
Y114650D02*X114507D01*
X119000Y114000D02*Y110000D01*
X120500Y114000D02*X121000Y113500D01*
Y110500D01*
X120500Y110000D02*X121000Y110500D01*
X118500Y110000D02*X120500D01*
X118500Y114000D02*X120500D01*
X122700Y110000D02*X123700D01*
X123200Y114000D02*Y110000D01*
X122200Y113000D02*X123200Y114000D01*
M02*
