G04 start of page 3 for group 1 idx 1 *
G04 Title: (unknown), solder *
G04 Creator: pcb 20110918 *
G04 CreationDate: Sun 03 Feb 2013 01:34:53 AM GMT UTC *
G04 For: petersen *
G04 Format: Gerber/RS-274X *
G04 PCB-Dimensions: 170000 120000 *
G04 PCB-Coordinate-Origin: lower left *
%MOIN*%
%FSLAX25Y25*%
%LNBOTTOM*%
%ADD43C,0.1285*%
%ADD42C,0.0450*%
%ADD41C,0.0472*%
%ADD40C,0.0380*%
%ADD39C,0.2937*%
%ADD38C,0.0680*%
%ADD37C,0.0800*%
%ADD36C,0.0787*%
%ADD35C,0.0600*%
%ADD34C,0.0200*%
%ADD33C,0.0100*%
%ADD32C,0.0400*%
%ADD31C,0.0700*%
%ADD30C,0.0001*%
G54D30*G36*
X14673Y119000D02*X58000D01*
Y116000D01*
X57993Y116118D01*
X57965Y116232D01*
X57920Y116342D01*
X57859Y116442D01*
X57782Y116532D01*
X57692Y116609D01*
X57592Y116670D01*
X57482Y116715D01*
X57368Y116743D01*
X57250Y116752D01*
X57132Y116743D01*
X57018Y116715D01*
X56908Y116670D01*
X56808Y116609D01*
X56718Y116532D01*
X56641Y116442D01*
X56580Y116342D01*
X56535Y116232D01*
X56507Y116118D01*
X56500Y116000D01*
Y113000D01*
X56507Y112882D01*
X56535Y112768D01*
X56580Y112658D01*
X56641Y112558D01*
X56718Y112468D01*
X56808Y112391D01*
X56908Y112330D01*
X57018Y112285D01*
X57132Y112257D01*
X57250Y112248D01*
X57368Y112257D01*
X57482Y112285D01*
X57592Y112330D01*
X57692Y112391D01*
X57782Y112468D01*
X57859Y112558D01*
X57920Y112658D01*
X57965Y112768D01*
X57993Y112882D01*
X58000Y113000D01*
Y94000D01*
X56000D01*
Y99000D01*
X55972Y99471D01*
X55862Y99930D01*
X55681Y100366D01*
X55435Y100769D01*
X55128Y101128D01*
X54769Y101435D01*
X54366Y101681D01*
X53930Y101862D01*
X53471Y101972D01*
X53000Y102009D01*
X52529Y101972D01*
X52070Y101862D01*
X51634Y101681D01*
X51231Y101435D01*
X50872Y101128D01*
X50565Y100769D01*
X50319Y100366D01*
X50138Y99930D01*
X50028Y99471D01*
X50000Y99000D01*
Y94000D01*
X19455D01*
X19518Y94074D01*
X19578Y94176D01*
X19795Y94645D01*
X19962Y95134D01*
X20082Y95637D01*
X20155Y96149D01*
X20179Y96665D01*
X20155Y97181D01*
X20082Y97693D01*
X19962Y98196D01*
X19795Y98685D01*
X19583Y99157D01*
X19522Y99258D01*
X19445Y99349D01*
X19355Y99426D01*
X19253Y99488D01*
X19144Y99534D01*
X19028Y99562D01*
X18910Y99571D01*
X18792Y99562D01*
X18676Y99535D01*
X18566Y99489D01*
X18465Y99427D01*
X18375Y99351D01*
X18297Y99260D01*
X18235Y99159D01*
X18189Y99050D01*
X18162Y98934D01*
X18152Y98816D01*
X18161Y98697D01*
X18189Y98582D01*
X18236Y98473D01*
X18394Y98133D01*
X18515Y97777D01*
X18603Y97412D01*
X18655Y97040D01*
X18673Y96665D01*
X18655Y96290D01*
X18603Y95918D01*
X18515Y95553D01*
X18394Y95197D01*
X18240Y94855D01*
X18193Y94747D01*
X18166Y94632D01*
X18156Y94514D01*
X18166Y94397D01*
X18194Y94282D01*
X18239Y94173D01*
X18301Y94072D01*
X18363Y94000D01*
X14673D01*
Y100665D01*
X15048Y100647D01*
X15420Y100595D01*
X15785Y100507D01*
X16141Y100386D01*
X16483Y100232D01*
X16591Y100185D01*
X16706Y100158D01*
X16824Y100148D01*
X16941Y100158D01*
X17056Y100186D01*
X17165Y100231D01*
X17266Y100293D01*
X17355Y100370D01*
X17432Y100460D01*
X17493Y100560D01*
X17538Y100669D01*
X17566Y100784D01*
X17575Y100902D01*
X17565Y101020D01*
X17538Y101134D01*
X17492Y101243D01*
X17430Y101344D01*
X17354Y101434D01*
X17264Y101510D01*
X17162Y101570D01*
X16693Y101787D01*
X16204Y101954D01*
X15701Y102074D01*
X15189Y102147D01*
X14673Y102171D01*
Y104952D01*
X18908Y104959D01*
X19138Y105014D01*
X19356Y105104D01*
X19557Y105228D01*
X19737Y105381D01*
X19890Y105561D01*
X20014Y105762D01*
X20104Y105980D01*
X20159Y106210D01*
X20173Y106445D01*
X20159Y114680D01*
X20104Y114910D01*
X20014Y115128D01*
X19890Y115329D01*
X19737Y115509D01*
X19557Y115662D01*
X19356Y115786D01*
X19138Y115876D01*
X18908Y115931D01*
X18673Y115945D01*
X14673Y115938D01*
Y119000D01*
G37*
G36*
X7000Y94000D02*Y119000D01*
X14673D01*
Y115938D01*
X10438Y115931D01*
X10208Y115876D01*
X9990Y115786D01*
X9789Y115662D01*
X9609Y115509D01*
X9456Y115329D01*
X9332Y115128D01*
X9242Y114910D01*
X9187Y114680D01*
X9173Y114445D01*
X9187Y106210D01*
X9242Y105980D01*
X9332Y105762D01*
X9456Y105561D01*
X9609Y105381D01*
X9789Y105228D01*
X9990Y105104D01*
X10208Y105014D01*
X10438Y104959D01*
X10673Y104945D01*
X14673Y104952D01*
Y102171D01*
X14673D01*
X14157Y102147D01*
X13645Y102074D01*
X13142Y101954D01*
X12653Y101787D01*
X12181Y101575D01*
X12080Y101514D01*
X11989Y101437D01*
X11912Y101347D01*
X11850Y101245D01*
X11804Y101136D01*
X11776Y101020D01*
X11767Y100902D01*
X11776Y100784D01*
X11803Y100668D01*
X11849Y100558D01*
X11911Y100457D01*
X11987Y100367D01*
X12078Y100289D01*
X12179Y100227D01*
X12288Y100181D01*
X12404Y100154D01*
X12522Y100144D01*
X12641Y100153D01*
X12756Y100181D01*
X12865Y100228D01*
X13205Y100386D01*
X13561Y100507D01*
X13926Y100595D01*
X14298Y100647D01*
X14673Y100665D01*
Y94000D01*
X10989D01*
X11049Y94070D01*
X11111Y94171D01*
X11157Y94280D01*
X11184Y94396D01*
X11194Y94514D01*
X11185Y94633D01*
X11157Y94748D01*
X11110Y94857D01*
X10952Y95197D01*
X10831Y95553D01*
X10743Y95918D01*
X10691Y96290D01*
X10673Y96665D01*
X10691Y97040D01*
X10743Y97412D01*
X10831Y97777D01*
X10952Y98133D01*
X11106Y98475D01*
X11153Y98583D01*
X11180Y98698D01*
X11190Y98816D01*
X11180Y98933D01*
X11152Y99048D01*
X11107Y99157D01*
X11045Y99258D01*
X10968Y99347D01*
X10878Y99424D01*
X10778Y99485D01*
X10669Y99530D01*
X10554Y99558D01*
X10436Y99567D01*
X10318Y99557D01*
X10204Y99530D01*
X10095Y99484D01*
X9994Y99422D01*
X9904Y99346D01*
X9828Y99256D01*
X9768Y99154D01*
X9551Y98685D01*
X9384Y98196D01*
X9264Y97693D01*
X9191Y97181D01*
X9167Y96665D01*
X9191Y96149D01*
X9264Y95637D01*
X9384Y95134D01*
X9551Y94645D01*
X9763Y94173D01*
X9824Y94072D01*
X9885Y94000D01*
X7000D01*
G37*
G36*
X60000Y102500D02*X58000Y100500D01*
X56500D01*
Y110000D01*
X66500D01*
Y109743D01*
X62747Y105989D01*
X62529Y105972D01*
X62070Y105862D01*
X61634Y105681D01*
X61231Y105435D01*
X60872Y105128D01*
X60565Y104769D01*
X60319Y104366D01*
X60138Y103930D01*
X60028Y103471D01*
X60000Y103000D01*
Y102500D01*
G37*
G36*
X64750Y119000D02*X66500D01*
Y114676D01*
X66486Y114500D01*
X66500Y114324D01*
Y109743D01*
X65757Y109000D01*
X64750D01*
Y112248D01*
X64868Y112257D01*
X64982Y112285D01*
X65092Y112330D01*
X65192Y112391D01*
X65282Y112468D01*
X65359Y112558D01*
X65420Y112658D01*
X65465Y112768D01*
X65493Y112882D01*
X65500Y113000D01*
Y116000D01*
X65493Y116118D01*
X65465Y116232D01*
X65420Y116342D01*
X65359Y116442D01*
X65282Y116532D01*
X65192Y116609D01*
X65092Y116670D01*
X64982Y116715D01*
X64868Y116743D01*
X64750Y116752D01*
Y119000D01*
G37*
G36*
X61000Y117500D02*X62500D01*
X62618Y117507D01*
X62732Y117535D01*
X62842Y117580D01*
X62942Y117641D01*
X63032Y117718D01*
X63109Y117808D01*
X63170Y117908D01*
X63215Y118018D01*
X63243Y118132D01*
X63252Y118250D01*
X63243Y118368D01*
X63215Y118482D01*
X63170Y118592D01*
X63109Y118692D01*
X63032Y118782D01*
X62942Y118859D01*
X62842Y118920D01*
X62732Y118965D01*
X62618Y118993D01*
X62500Y119000D01*
X64750D01*
Y116752D01*
X64632Y116743D01*
X64518Y116715D01*
X64408Y116670D01*
X64308Y116609D01*
X64218Y116532D01*
X64141Y116442D01*
X64080Y116342D01*
X64035Y116232D01*
X64007Y116118D01*
X64000Y116000D01*
Y113000D01*
X64007Y112882D01*
X64035Y112768D01*
X64080Y112658D01*
X64141Y112558D01*
X64218Y112468D01*
X64308Y112391D01*
X64408Y112330D01*
X64518Y112285D01*
X64632Y112257D01*
X64750Y112248D01*
Y109000D01*
X61000D01*
Y110000D01*
X62500D01*
X62618Y110007D01*
X62732Y110035D01*
X62842Y110080D01*
X62942Y110141D01*
X63032Y110218D01*
X63109Y110308D01*
X63170Y110408D01*
X63215Y110518D01*
X63243Y110632D01*
X63252Y110750D01*
X63243Y110868D01*
X63215Y110982D01*
X63170Y111092D01*
X63109Y111192D01*
X63032Y111282D01*
X62942Y111359D01*
X62842Y111420D01*
X62732Y111465D01*
X62618Y111493D01*
X62500Y111500D01*
X61000D01*
Y117500D01*
G37*
G36*
X57250Y119000D02*X59500D01*
X59382Y118993D01*
X59268Y118965D01*
X59158Y118920D01*
X59058Y118859D01*
X58968Y118782D01*
X58891Y118692D01*
X58830Y118592D01*
X58785Y118482D01*
X58757Y118368D01*
X58748Y118250D01*
X58757Y118132D01*
X58785Y118018D01*
X58830Y117908D01*
X58891Y117808D01*
X58968Y117718D01*
X59058Y117641D01*
X59158Y117580D01*
X59268Y117535D01*
X59382Y117507D01*
X59500Y117500D01*
X61000D01*
Y111500D01*
X59500D01*
X59382Y111493D01*
X59268Y111465D01*
X59158Y111420D01*
X59058Y111359D01*
X58968Y111282D01*
X58891Y111192D01*
X58830Y111092D01*
X58785Y110982D01*
X58757Y110868D01*
X58748Y110750D01*
X58757Y110632D01*
X58785Y110518D01*
X58830Y110408D01*
X58891Y110308D01*
X58968Y110218D01*
X59058Y110141D01*
X59158Y110080D01*
X59268Y110035D01*
X59382Y110007D01*
X59500Y110000D01*
X61000D01*
Y109000D01*
X57250D01*
Y112248D01*
X57368Y112257D01*
X57482Y112285D01*
X57592Y112330D01*
X57692Y112391D01*
X57782Y112468D01*
X57859Y112558D01*
X57920Y112658D01*
X57965Y112768D01*
X57993Y112882D01*
X58000Y113000D01*
Y116000D01*
X57993Y116118D01*
X57965Y116232D01*
X57920Y116342D01*
X57859Y116442D01*
X57782Y116532D01*
X57692Y116609D01*
X57592Y116670D01*
X57482Y116715D01*
X57368Y116743D01*
X57250Y116752D01*
Y119000D01*
G37*
G36*
X55000Y109000D02*Y119000D01*
X57250D01*
Y116752D01*
X57132Y116743D01*
X57018Y116715D01*
X56908Y116670D01*
X56808Y116609D01*
X56718Y116532D01*
X56641Y116442D01*
X56580Y116342D01*
X56535Y116232D01*
X56507Y116118D01*
X56500Y116000D01*
Y113000D01*
X56507Y112882D01*
X56535Y112768D01*
X56580Y112658D01*
X56641Y112558D01*
X56718Y112468D01*
X56808Y112391D01*
X56908Y112330D01*
X57018Y112285D01*
X57132Y112257D01*
X57250Y112248D01*
Y109000D01*
X55000D01*
G37*
G36*
X19166Y103500D02*X22500D01*
Y89000D01*
X19166D01*
Y93810D01*
X19251Y93846D01*
X19352Y93908D01*
X19442Y93984D01*
X19518Y94074D01*
X19578Y94176D01*
X19795Y94645D01*
X19962Y95134D01*
X20082Y95637D01*
X20155Y96149D01*
X20179Y96665D01*
X20155Y97181D01*
X20082Y97693D01*
X19962Y98196D01*
X19795Y98685D01*
X19583Y99157D01*
X19522Y99258D01*
X19445Y99349D01*
X19355Y99426D01*
X19253Y99488D01*
X19166Y99525D01*
Y103500D01*
G37*
G36*
X14675D02*X19166D01*
Y99525D01*
X19144Y99534D01*
X19028Y99562D01*
X18910Y99571D01*
X18792Y99562D01*
X18676Y99535D01*
X18566Y99489D01*
X18465Y99427D01*
X18375Y99351D01*
X18297Y99260D01*
X18235Y99159D01*
X18189Y99050D01*
X18162Y98934D01*
X18152Y98816D01*
X18161Y98697D01*
X18189Y98582D01*
X18236Y98473D01*
X18394Y98133D01*
X18515Y97777D01*
X18603Y97412D01*
X18655Y97040D01*
X18673Y96665D01*
X18655Y96290D01*
X18603Y95918D01*
X18515Y95553D01*
X18394Y95197D01*
X18240Y94855D01*
X18193Y94747D01*
X18166Y94632D01*
X18156Y94514D01*
X18166Y94397D01*
X18194Y94282D01*
X18239Y94173D01*
X18301Y94072D01*
X18378Y93983D01*
X18468Y93906D01*
X18568Y93845D01*
X18677Y93800D01*
X18792Y93772D01*
X18910Y93763D01*
X19028Y93773D01*
X19142Y93800D01*
X19166Y93810D01*
Y89000D01*
X14675D01*
Y91159D01*
X15189Y91183D01*
X15701Y91256D01*
X16204Y91376D01*
X16693Y91543D01*
X17165Y91755D01*
X17266Y91816D01*
X17357Y91893D01*
X17434Y91983D01*
X17496Y92085D01*
X17542Y92194D01*
X17570Y92310D01*
X17579Y92428D01*
X17570Y92546D01*
X17543Y92662D01*
X17497Y92772D01*
X17435Y92873D01*
X17359Y92963D01*
X17268Y93041D01*
X17167Y93103D01*
X17058Y93149D01*
X16942Y93176D01*
X16824Y93186D01*
X16705Y93177D01*
X16590Y93149D01*
X16481Y93102D01*
X16141Y92944D01*
X15785Y92823D01*
X15420Y92735D01*
X15048Y92683D01*
X14675Y92665D01*
Y100665D01*
X15048Y100647D01*
X15420Y100595D01*
X15785Y100507D01*
X16141Y100386D01*
X16483Y100232D01*
X16591Y100185D01*
X16706Y100158D01*
X16824Y100148D01*
X16941Y100158D01*
X17056Y100186D01*
X17165Y100231D01*
X17266Y100293D01*
X17355Y100370D01*
X17432Y100460D01*
X17493Y100560D01*
X17538Y100669D01*
X17566Y100784D01*
X17575Y100902D01*
X17565Y101020D01*
X17538Y101134D01*
X17492Y101243D01*
X17430Y101344D01*
X17354Y101434D01*
X17264Y101510D01*
X17162Y101570D01*
X16693Y101787D01*
X16204Y101954D01*
X15701Y102074D01*
X15189Y102147D01*
X14675Y102171D01*
Y103500D01*
G37*
G36*
X10180D02*X14675D01*
Y102171D01*
X14673Y102171D01*
X14157Y102147D01*
X13645Y102074D01*
X13142Y101954D01*
X12653Y101787D01*
X12181Y101575D01*
X12080Y101514D01*
X11989Y101437D01*
X11912Y101347D01*
X11850Y101245D01*
X11804Y101136D01*
X11776Y101020D01*
X11767Y100902D01*
X11776Y100784D01*
X11803Y100668D01*
X11849Y100558D01*
X11911Y100457D01*
X11987Y100367D01*
X12078Y100289D01*
X12179Y100227D01*
X12288Y100181D01*
X12404Y100154D01*
X12522Y100144D01*
X12641Y100153D01*
X12756Y100181D01*
X12865Y100228D01*
X13205Y100386D01*
X13561Y100507D01*
X13926Y100595D01*
X14298Y100647D01*
X14673Y100665D01*
X14675Y100665D01*
Y92665D01*
X14673Y92665D01*
X14298Y92683D01*
X13926Y92735D01*
X13561Y92823D01*
X13205Y92944D01*
X12863Y93098D01*
X12755Y93145D01*
X12640Y93172D01*
X12522Y93182D01*
X12405Y93172D01*
X12290Y93144D01*
X12181Y93099D01*
X12080Y93037D01*
X11991Y92960D01*
X11914Y92870D01*
X11853Y92770D01*
X11808Y92661D01*
X11780Y92546D01*
X11771Y92428D01*
X11781Y92310D01*
X11808Y92196D01*
X11854Y92087D01*
X11916Y91986D01*
X11992Y91896D01*
X12082Y91820D01*
X12184Y91760D01*
X12653Y91543D01*
X13142Y91376D01*
X13645Y91256D01*
X14157Y91183D01*
X14673Y91159D01*
X14675Y91159D01*
Y89000D01*
X10180D01*
Y93805D01*
X10202Y93796D01*
X10318Y93768D01*
X10436Y93759D01*
X10554Y93768D01*
X10670Y93795D01*
X10780Y93841D01*
X10881Y93903D01*
X10971Y93979D01*
X11049Y94070D01*
X11111Y94171D01*
X11157Y94280D01*
X11184Y94396D01*
X11194Y94514D01*
X11185Y94633D01*
X11157Y94748D01*
X11110Y94857D01*
X10952Y95197D01*
X10831Y95553D01*
X10743Y95918D01*
X10691Y96290D01*
X10673Y96665D01*
X10691Y97040D01*
X10743Y97412D01*
X10831Y97777D01*
X10952Y98133D01*
X11106Y98475D01*
X11153Y98583D01*
X11180Y98698D01*
X11190Y98816D01*
X11180Y98933D01*
X11152Y99048D01*
X11107Y99157D01*
X11045Y99258D01*
X10968Y99347D01*
X10878Y99424D01*
X10778Y99485D01*
X10669Y99530D01*
X10554Y99558D01*
X10436Y99567D01*
X10318Y99557D01*
X10204Y99530D01*
X10180Y99520D01*
Y103500D01*
G37*
G36*
X7000D02*X10180D01*
Y99520D01*
X10095Y99484D01*
X9994Y99422D01*
X9904Y99346D01*
X9828Y99256D01*
X9768Y99154D01*
X9551Y98685D01*
X9384Y98196D01*
X9264Y97693D01*
X9191Y97181D01*
X9167Y96665D01*
X9191Y96149D01*
X9264Y95637D01*
X9384Y95134D01*
X9551Y94645D01*
X9763Y94173D01*
X9824Y94072D01*
X9901Y93981D01*
X9991Y93904D01*
X10093Y93842D01*
X10180Y93805D01*
Y89000D01*
X7000D01*
Y103500D01*
G37*
G36*
X47500Y94000D02*Y102000D01*
X58000D01*
Y94000D01*
X47500D01*
G37*
G54D31*X48000Y43000D02*X51500Y46500D01*
G54D32*X37000Y14787D02*X37114Y14673D01*
G54D31*X47000Y25000D02*X38000Y34000D01*
Y46500D01*
X48000Y37000D02*Y43000D01*
X38000Y46500D02*X31500Y53000D01*
X22000D02*X8000Y67000D01*
X31500Y53000D02*X22000D01*
X26287Y25500D02*X37114Y14673D01*
X13000Y25500D02*X26287D01*
X8000Y30500D02*X13000Y25500D01*
X8000Y37000D02*Y30500D01*
G54D32*X63000Y75000D02*X71000Y67000D01*
G54D31*X51500Y46500D02*X91000D01*
G54D32*X71000Y67000D02*X78000D01*
G54D33*X109500Y73000D02*X103000Y79500D01*
G54D32*X94500Y73500D02*X89000D01*
G54D33*X105500Y69000D02*Y55500D01*
G54D32*X89000Y73500D02*X83000Y79500D01*
G54D31*X91500Y67000D02*Y37000D01*
G54D32*X98500Y54000D02*X109000Y43500D01*
G54D33*X132000Y15500D02*Y25000D01*
X122000Y27500D02*X109500Y15000D01*
G54D32*X98500Y23500D02*X104000Y18000D01*
G54D31*X86614Y9114D02*X83000Y5500D01*
G54D32*X104000Y18000D02*Y10000D01*
X84000Y23500D02*X98500D01*
G54D31*X86614Y14673D02*Y9114D01*
G54D32*X118000Y43500D02*Y34500D01*
G54D33*X132000Y25000D02*X124500Y32500D01*
Y48500D01*
X122000Y45000D02*Y27500D01*
X121000Y46000D02*X122000Y45000D01*
G54D32*X109000Y43500D02*X118000D01*
G54D31*X83000Y5500D02*X53500D01*
G54D32*X78000Y37000D02*Y29500D01*
X84000Y23500D01*
G54D31*X53500Y5500D02*X47000Y12000D01*
Y25000D01*
G54D34*X119000Y103000D02*X122500Y106500D01*
X119000Y98000D02*Y103000D01*
G54D33*X118000Y84500D02*X123000Y79500D01*
G54D34*X122500Y106500D02*X139500D01*
X146500Y106000D02*X159500D01*
X132000Y91500D02*X146500Y106000D01*
X109000Y91500D02*X132000D01*
G54D33*X110500Y101500D02*X114000Y98000D01*
X98000Y102500D02*X109000Y91500D01*
X110500Y109500D02*Y101500D01*
G54D34*X94500Y90000D02*X82000D01*
X134500Y87000D02*X97000D01*
G54D33*X96000Y84500D02*X118000D01*
G54D34*X97000Y87000D02*X94500Y90000D01*
G54D33*Y86000D02*X96000Y84500D01*
X93000Y79500D02*X95000D01*
X73500Y102500D02*X83500D01*
X110500Y109500D02*X75500D01*
X90500Y102500D02*X98000D01*
X83500D02*X90500Y95500D01*
G54D32*X53000Y84000D02*Y99000D01*
G54D33*X70000Y104000D02*Y98000D01*
X73500Y94500D01*
G54D32*X63000Y102000D02*Y84000D01*
G54D33*X75500Y109500D02*X70000Y104000D01*
G54D32*X71000Y114500D02*Y110000D01*
X63000Y102000D01*
Y103000D02*Y75000D01*
G54D33*X91500Y86000D02*X94500D01*
G54D32*X98500Y69500D02*X94500Y73500D01*
X98500Y54000D02*Y69500D01*
G54D33*X95000Y79500D02*X105500Y69000D01*
X113500Y73000D02*X109500D01*
X105500Y55500D02*X112500Y48500D01*
X121000Y65500D02*X113500Y73000D01*
X121000Y65500D02*Y46000D01*
G54D30*G36*
X58000Y117500D02*Y111500D01*
X64000D01*
Y117500D01*
X58000D01*
G37*
G54D35*X71000Y114500D03*
X81000D03*
G54D30*G36*
X10673Y114445D02*Y106445D01*
X18673D01*
Y114445D01*
X10673D01*
G37*
G54D36*X63000Y84000D03*
X53000D03*
G54D30*G36*
X39063Y87937D02*Y80063D01*
X46937D01*
Y87937D01*
X39063D01*
G37*
G54D37*X14673Y96665D03*
Y82886D03*
G54D38*X48000Y67000D03*
X28000D03*
X8000D03*
G54D30*G36*
X55055Y18673D02*Y10673D01*
X63055D01*
Y18673D01*
X55055D01*
G37*
G54D37*X72835Y14673D03*
X86614D03*
G54D39*X153000Y16000D03*
G54D38*X91500Y37000D03*
X8000D03*
X28000D03*
X48000D03*
X78000D03*
X111500D03*
X131500D03*
X161500D03*
G54D30*G36*
X5555Y18673D02*Y10673D01*
X13555D01*
Y18673D01*
X5555D01*
G37*
G54D37*X23335Y14673D03*
X37114D03*
G54D39*X153000Y89000D03*
G54D30*G36*
X130000Y82500D02*Y76500D01*
X136000D01*
Y82500D01*
X130000D01*
G37*
G36*
X158100Y70400D02*Y63600D01*
X164900D01*
Y70400D01*
X158100D01*
G37*
G54D38*X131500Y67000D03*
G54D35*X123000Y79500D03*
X113000D03*
G54D38*X111500Y67000D03*
G54D35*X103000Y79500D03*
X93000D03*
X83000D03*
G54D38*X91500Y67000D03*
G54D30*G36*
X74600Y70400D02*Y63600D01*
X81400D01*
Y70400D01*
X74600D01*
G37*
G54D36*X53000Y87937D02*Y80063D01*
X43000Y87937D02*Y80063D01*
X63000Y87937D02*Y80063D01*
G54D32*X134500Y87000D03*
X124500Y48500D03*
X132000Y15500D03*
X104000Y10000D03*
X109500Y15000D03*
X112500Y48500D03*
X118000Y34500D03*
Y39000D03*
Y43500D03*
X73500Y94500D03*
Y102500D03*
X90500Y95500D03*
Y102500D03*
X63000Y97000D03*
X109000Y91500D03*
X139500Y106500D03*
X110500Y109500D03*
X119000Y98000D03*
X114000D03*
X161000Y106000D03*
X82000Y89000D03*
X91500Y86000D03*
G54D34*G54D40*G54D41*G54D42*G54D41*G54D40*G54D41*G54D43*G54D40*G54D41*G54D43*G54D40*M02*
