G04 start of page 9 for group -4015 idx -4015 *
G04 Title: (unknown), toppaste *
G04 Creator: pcb 20110918 *
G04 CreationDate: Tue 05 Feb 2013 02:58:17 AM GMT UTC *
G04 For: railfan *
G04 Format: Gerber/RS-274X *
G04 PCB-Dimensions: 170000 120000 *
G04 PCB-Coordinate-Origin: lower left *
%MOIN*%
%FSLAX25Y25*%
%LNTOPPASTE*%
%ADD72R,0.0240X0.0240*%
%ADD71R,0.0360X0.0360*%
%ADD70R,0.0340X0.0340*%
%ADD69R,0.0512X0.0512*%
G54D69*X63000Y103393D02*Y102607D01*
X55914Y103393D02*Y102607D01*
G54D70*X102900Y103000D02*Y102400D01*
X95100Y103000D02*Y102400D01*
X99000Y94800D02*Y94200D01*
G54D71*X47400Y114100D02*Y112900D01*
X34500Y114100D02*Y112900D01*
G54D72*X78000Y95300D02*Y93700D01*
X81900Y95300D02*Y93700D01*
X85800Y95300D02*Y93700D01*
Y103500D02*Y101900D01*
X81900Y103500D02*Y101900D01*
X78000Y103500D02*Y101900D01*
G54D69*X149000Y115181D02*Y112819D01*
X160810Y115181D02*Y112819D01*
X42043Y103393D02*Y102607D01*
X34957Y103393D02*Y102607D01*
X105043Y114893D02*Y114107D01*
X97957Y114893D02*Y114107D01*
X132586Y93393D02*Y92607D01*
X125500Y93393D02*Y92607D01*
X132500Y103393D02*Y102607D01*
X125414Y103393D02*Y102607D01*
X139862Y115181D02*Y112819D01*
X128052Y115181D02*Y112819D01*
G54D72*X124700Y11500D02*X126300D01*
X124700Y15400D02*X126300D01*
X124700Y19300D02*X126300D01*
X116500D02*X118100D01*
X116500Y15400D02*X118100D01*
X116500Y11500D02*X118100D01*
M02*
