G04 start of page 6 for group -4062 idx -4062 *
G04 Title: (unknown), soldermask *
G04 Creator: pcb 20110918 *
G04 CreationDate: Tue 05 Feb 2013 02:58:17 AM GMT UTC *
G04 For: railfan *
G04 Format: Gerber/RS-274X *
G04 PCB-Dimensions: 170000 120000 *
G04 PCB-Coordinate-Origin: lower left *
%MOIN*%
%FSLAX25Y25*%
%LNBOTTOMMASK*%
%ADD65C,0.0907*%
%ADD64C,0.2997*%
%ADD63C,0.0750*%
%ADD62C,0.0860*%
%ADD61C,0.0900*%
%ADD60C,0.0660*%
%ADD59C,0.0001*%
G54D59*G36*
X57700Y117800D02*Y111200D01*
X64300D01*
Y117800D01*
X57700D01*
G37*
G54D60*X71000Y114500D03*
X81000D03*
G54D59*G36*
X10373Y114745D02*Y106145D01*
X18973D01*
Y114745D01*
X10373D01*
G37*
G54D61*X63000Y84000D03*
X53000D03*
G54D59*G36*
X38500Y88500D02*Y79500D01*
X47500D01*
Y88500D01*
X38500D01*
G37*
G54D62*X14673Y96665D03*
Y82886D03*
G54D63*X48000Y67000D03*
X28000D03*
X8000D03*
G54D59*G36*
X54755Y18973D02*Y10373D01*
X63355D01*
Y18973D01*
X54755D01*
G37*
G54D62*X72835Y14673D03*
X86614D03*
G54D64*X153000Y16000D03*
G54D63*X91500Y37000D03*
X8000D03*
X28000D03*
X48000D03*
X78000D03*
X111500D03*
X131500D03*
X161500D03*
G54D59*G36*
X5255Y18973D02*Y10373D01*
X13855D01*
Y18973D01*
X5255D01*
G37*
G54D62*X23335Y14673D03*
X37114D03*
G54D64*X153000Y89000D03*
G54D59*G36*
X129700Y82800D02*Y76200D01*
X136300D01*
Y82800D01*
X129700D01*
G37*
G36*
X157750Y70750D02*Y63250D01*
X165250D01*
Y70750D01*
X157750D01*
G37*
G54D63*X131500Y67000D03*
G54D60*X123000Y79500D03*
X113000D03*
G54D63*X111500Y67000D03*
G54D60*X103000Y79500D03*
X93000D03*
X83000D03*
G54D63*X91500Y67000D03*
G54D59*G36*
X74250Y70750D02*Y63250D01*
X81750D01*
Y70750D01*
X74250D01*
G37*
G54D65*X53000Y87937D02*Y80063D01*
X43000Y87937D02*Y80063D01*
X63000Y87937D02*Y80063D01*
M02*
