M48
INCH
T54C0.031
%
T54
X002000Y064900
X002000Y064100
X002000Y051900
X002000Y051100
X002000Y038900
X002000Y038100
X002000Y025900
X002000Y025100
X002000Y012900
X002000Y012100
X002500Y064900
X002500Y064100
X002500Y051900
X002500Y051100
X002500Y038900
X002500Y038100
X002500Y025900
X002500Y025100
X002500Y012900
X002500Y012100
X003000Y064900
X003000Y064100
X003000Y051900
X003000Y051100
X003000Y038900
X003000Y038100
X003000Y025900
X003000Y025100
X003000Y012900
X003000Y012100
X014000Y064900
X014000Y064100
X014000Y051900
X014000Y051100
X014000Y038900
X014000Y038100
X014000Y025900
X014000Y025100
X014000Y012900
X014000Y012100
X014500Y064900
X014500Y064100
X014500Y051900
X014500Y051100
X014500Y038900
X014500Y038100
X014500Y025900
X014500Y025100
X014500Y012900
X014500Y012100
X015000Y064900
X015000Y064100
X015000Y051900
X015000Y051100
X015000Y038900
X015000Y038100
X015000Y025900
X015000Y025100
X015000Y012900
X015000Y012100
M30
