G04 start of page 3 for group 1 idx 1 *
G04 Title: (unknown), bottom *
G04 Creator: pcb 20140316 *
G04 CreationDate: Mon 23 Jul 2018 02:23:11 AM GMT UTC *
G04 For: railfan *
G04 Format: Gerber/RS-274X *
G04 PCB-Dimensions (mil): 1700.00 7700.00 *
G04 PCB-Coordinate-Origin: lower left *
%MOIN*%
%FSLAX25Y25*%
%LNBOTTOM*%
%ADD47C,0.0450*%
%ADD46C,0.0472*%
%ADD45C,0.1285*%
%ADD44C,0.0380*%
%ADD43C,0.0310*%
%ADD42R,0.0300X0.0300*%
%ADD41C,0.0787*%
%ADD40C,0.0800*%
%ADD39C,0.2937*%
%ADD38C,0.0680*%
%ADD37C,0.0200*%
%ADD36C,0.0600*%
%ADD35C,0.0700*%
%ADD34C,0.0100*%
%ADD33C,0.0400*%
%ADD32C,0.0001*%
G54D32*G36*
X14673Y509000D02*X58000D01*
Y506492D01*
X57913Y506554D01*
X57808Y506607D01*
X57695Y506643D01*
X57579Y506660D01*
X57461Y506659D01*
X57344Y506640D01*
X57232Y506603D01*
X57127Y506548D01*
X57032Y506478D01*
X56949Y506394D01*
X56881Y506298D01*
X56830Y506192D01*
X56682Y505784D01*
X56578Y505363D01*
X56516Y504933D01*
X56495Y504500D01*
X56516Y504067D01*
X56578Y503637D01*
X56682Y503216D01*
X56825Y502806D01*
X56878Y502700D01*
X56947Y502604D01*
X57030Y502519D01*
X57125Y502449D01*
X57231Y502394D01*
X57343Y502357D01*
X57460Y502337D01*
X57579Y502336D01*
X57696Y502354D01*
X57809Y502390D01*
X57915Y502443D01*
X58000Y502504D01*
Y484000D01*
X56000D01*
Y489000D01*
X55972Y489471D01*
X55862Y489930D01*
X55681Y490366D01*
X55435Y490769D01*
X55128Y491128D01*
X54769Y491435D01*
X54366Y491681D01*
X53930Y491862D01*
X53471Y491972D01*
X53000Y492009D01*
X52529Y491972D01*
X52070Y491862D01*
X51634Y491681D01*
X51231Y491435D01*
X50872Y491128D01*
X50565Y490769D01*
X50319Y490366D01*
X50138Y489930D01*
X50028Y489471D01*
X50000Y489000D01*
Y484000D01*
X19455D01*
X19518Y484074D01*
X19578Y484176D01*
X19795Y484645D01*
X19962Y485134D01*
X20082Y485637D01*
X20155Y486149D01*
X20179Y486665D01*
X20155Y487181D01*
X20082Y487693D01*
X19962Y488196D01*
X19795Y488685D01*
X19583Y489157D01*
X19522Y489258D01*
X19445Y489349D01*
X19355Y489426D01*
X19253Y489488D01*
X19144Y489534D01*
X19028Y489562D01*
X18910Y489571D01*
X18792Y489562D01*
X18676Y489535D01*
X18566Y489489D01*
X18465Y489427D01*
X18375Y489351D01*
X18297Y489260D01*
X18235Y489159D01*
X18189Y489050D01*
X18162Y488934D01*
X18152Y488816D01*
X18161Y488697D01*
X18189Y488582D01*
X18236Y488473D01*
X18394Y488133D01*
X18515Y487777D01*
X18603Y487412D01*
X18655Y487040D01*
X18673Y486665D01*
X18655Y486290D01*
X18603Y485918D01*
X18515Y485553D01*
X18394Y485197D01*
X18240Y484855D01*
X18193Y484747D01*
X18166Y484632D01*
X18156Y484514D01*
X18166Y484397D01*
X18194Y484282D01*
X18239Y484173D01*
X18301Y484072D01*
X18363Y484000D01*
X14673D01*
Y490665D01*
X15048Y490647D01*
X15420Y490595D01*
X15785Y490507D01*
X16141Y490386D01*
X16483Y490232D01*
X16591Y490185D01*
X16706Y490158D01*
X16824Y490148D01*
X16941Y490158D01*
X17056Y490186D01*
X17165Y490231D01*
X17266Y490293D01*
X17355Y490370D01*
X17432Y490460D01*
X17493Y490560D01*
X17538Y490669D01*
X17566Y490784D01*
X17575Y490902D01*
X17565Y491020D01*
X17538Y491134D01*
X17492Y491243D01*
X17430Y491344D01*
X17354Y491434D01*
X17264Y491510D01*
X17162Y491570D01*
X16693Y491787D01*
X16204Y491954D01*
X15701Y492074D01*
X15189Y492147D01*
X14673Y492171D01*
Y494952D01*
X18908Y494959D01*
X19138Y495014D01*
X19356Y495104D01*
X19557Y495228D01*
X19737Y495381D01*
X19890Y495561D01*
X20014Y495762D01*
X20104Y495980D01*
X20159Y496210D01*
X20173Y496445D01*
X20159Y504680D01*
X20104Y504910D01*
X20014Y505128D01*
X19890Y505329D01*
X19737Y505509D01*
X19557Y505662D01*
X19356Y505786D01*
X19138Y505876D01*
X18908Y505931D01*
X18673Y505945D01*
X14673Y505938D01*
Y509000D01*
G37*
G36*
X7000Y484000D02*Y509000D01*
X14673D01*
Y505938D01*
X10438Y505931D01*
X10208Y505876D01*
X9990Y505786D01*
X9789Y505662D01*
X9609Y505509D01*
X9456Y505329D01*
X9332Y505128D01*
X9242Y504910D01*
X9187Y504680D01*
X9173Y504445D01*
X9187Y496210D01*
X9242Y495980D01*
X9332Y495762D01*
X9456Y495561D01*
X9609Y495381D01*
X9789Y495228D01*
X9990Y495104D01*
X10208Y495014D01*
X10438Y494959D01*
X10673Y494945D01*
X14673Y494952D01*
Y492171D01*
X14673D01*
X14157Y492147D01*
X13645Y492074D01*
X13142Y491954D01*
X12653Y491787D01*
X12181Y491575D01*
X12080Y491514D01*
X11989Y491437D01*
X11912Y491347D01*
X11850Y491245D01*
X11804Y491136D01*
X11776Y491020D01*
X11767Y490902D01*
X11776Y490784D01*
X11803Y490668D01*
X11849Y490558D01*
X11911Y490457D01*
X11987Y490367D01*
X12078Y490289D01*
X12179Y490227D01*
X12288Y490181D01*
X12404Y490154D01*
X12522Y490144D01*
X12641Y490153D01*
X12756Y490181D01*
X12865Y490228D01*
X13205Y490386D01*
X13561Y490507D01*
X13926Y490595D01*
X14298Y490647D01*
X14673Y490665D01*
Y484000D01*
X10989D01*
X11049Y484070D01*
X11111Y484171D01*
X11157Y484280D01*
X11184Y484396D01*
X11194Y484514D01*
X11185Y484633D01*
X11157Y484748D01*
X11110Y484857D01*
X10952Y485197D01*
X10831Y485553D01*
X10743Y485918D01*
X10691Y486290D01*
X10673Y486665D01*
X10691Y487040D01*
X10743Y487412D01*
X10831Y487777D01*
X10952Y488133D01*
X11106Y488475D01*
X11153Y488583D01*
X11180Y488698D01*
X11190Y488816D01*
X11180Y488933D01*
X11152Y489048D01*
X11107Y489157D01*
X11045Y489258D01*
X10968Y489347D01*
X10878Y489424D01*
X10778Y489485D01*
X10669Y489530D01*
X10554Y489558D01*
X10436Y489567D01*
X10318Y489557D01*
X10204Y489530D01*
X10095Y489484D01*
X9994Y489422D01*
X9904Y489346D01*
X9828Y489256D01*
X9768Y489154D01*
X9551Y488685D01*
X9384Y488196D01*
X9264Y487693D01*
X9191Y487181D01*
X9167Y486665D01*
X9191Y486149D01*
X9264Y485637D01*
X9384Y485134D01*
X9551Y484645D01*
X9763Y484173D01*
X9824Y484072D01*
X9885Y484000D01*
X7000D01*
G37*
G36*
X19166Y493500D02*X22500D01*
Y479000D01*
X19166D01*
Y483810D01*
X19251Y483846D01*
X19352Y483908D01*
X19442Y483984D01*
X19518Y484074D01*
X19578Y484176D01*
X19795Y484645D01*
X19962Y485134D01*
X20082Y485637D01*
X20155Y486149D01*
X20179Y486665D01*
X20155Y487181D01*
X20082Y487693D01*
X19962Y488196D01*
X19795Y488685D01*
X19583Y489157D01*
X19522Y489258D01*
X19445Y489349D01*
X19355Y489426D01*
X19253Y489488D01*
X19166Y489525D01*
Y493500D01*
G37*
G36*
X14675D02*X19166D01*
Y489525D01*
X19144Y489534D01*
X19028Y489562D01*
X18910Y489571D01*
X18792Y489562D01*
X18676Y489535D01*
X18566Y489489D01*
X18465Y489427D01*
X18375Y489351D01*
X18297Y489260D01*
X18235Y489159D01*
X18189Y489050D01*
X18162Y488934D01*
X18152Y488816D01*
X18161Y488697D01*
X18189Y488582D01*
X18236Y488473D01*
X18394Y488133D01*
X18515Y487777D01*
X18603Y487412D01*
X18655Y487040D01*
X18673Y486665D01*
X18655Y486290D01*
X18603Y485918D01*
X18515Y485553D01*
X18394Y485197D01*
X18240Y484855D01*
X18193Y484747D01*
X18166Y484632D01*
X18156Y484514D01*
X18166Y484397D01*
X18194Y484282D01*
X18239Y484173D01*
X18301Y484072D01*
X18378Y483983D01*
X18468Y483906D01*
X18568Y483845D01*
X18677Y483800D01*
X18792Y483772D01*
X18910Y483763D01*
X19028Y483773D01*
X19142Y483800D01*
X19166Y483810D01*
Y479000D01*
X14675D01*
Y481159D01*
X15189Y481183D01*
X15701Y481256D01*
X16204Y481376D01*
X16693Y481543D01*
X17165Y481755D01*
X17266Y481816D01*
X17357Y481893D01*
X17434Y481983D01*
X17496Y482085D01*
X17542Y482194D01*
X17570Y482310D01*
X17579Y482428D01*
X17570Y482546D01*
X17543Y482662D01*
X17497Y482772D01*
X17435Y482873D01*
X17359Y482963D01*
X17268Y483041D01*
X17167Y483103D01*
X17058Y483149D01*
X16942Y483176D01*
X16824Y483186D01*
X16705Y483177D01*
X16590Y483149D01*
X16481Y483102D01*
X16141Y482944D01*
X15785Y482823D01*
X15420Y482735D01*
X15048Y482683D01*
X14675Y482665D01*
Y490665D01*
X15048Y490647D01*
X15420Y490595D01*
X15785Y490507D01*
X16141Y490386D01*
X16483Y490232D01*
X16591Y490185D01*
X16706Y490158D01*
X16824Y490148D01*
X16941Y490158D01*
X17056Y490186D01*
X17165Y490231D01*
X17266Y490293D01*
X17355Y490370D01*
X17432Y490460D01*
X17493Y490560D01*
X17538Y490669D01*
X17566Y490784D01*
X17575Y490902D01*
X17565Y491020D01*
X17538Y491134D01*
X17492Y491243D01*
X17430Y491344D01*
X17354Y491434D01*
X17264Y491510D01*
X17162Y491570D01*
X16693Y491787D01*
X16204Y491954D01*
X15701Y492074D01*
X15189Y492147D01*
X14675Y492171D01*
Y493500D01*
G37*
G36*
X10180D02*X14675D01*
Y492171D01*
X14673Y492171D01*
X14157Y492147D01*
X13645Y492074D01*
X13142Y491954D01*
X12653Y491787D01*
X12181Y491575D01*
X12080Y491514D01*
X11989Y491437D01*
X11912Y491347D01*
X11850Y491245D01*
X11804Y491136D01*
X11776Y491020D01*
X11767Y490902D01*
X11776Y490784D01*
X11803Y490668D01*
X11849Y490558D01*
X11911Y490457D01*
X11987Y490367D01*
X12078Y490289D01*
X12179Y490227D01*
X12288Y490181D01*
X12404Y490154D01*
X12522Y490144D01*
X12641Y490153D01*
X12756Y490181D01*
X12865Y490228D01*
X13205Y490386D01*
X13561Y490507D01*
X13926Y490595D01*
X14298Y490647D01*
X14673Y490665D01*
X14675Y490665D01*
Y482665D01*
X14673Y482665D01*
X14298Y482683D01*
X13926Y482735D01*
X13561Y482823D01*
X13205Y482944D01*
X12863Y483098D01*
X12755Y483145D01*
X12640Y483172D01*
X12522Y483182D01*
X12405Y483172D01*
X12290Y483144D01*
X12181Y483099D01*
X12080Y483037D01*
X11991Y482960D01*
X11914Y482870D01*
X11853Y482770D01*
X11808Y482661D01*
X11780Y482546D01*
X11771Y482428D01*
X11781Y482310D01*
X11808Y482196D01*
X11854Y482087D01*
X11916Y481986D01*
X11992Y481896D01*
X12082Y481820D01*
X12184Y481760D01*
X12653Y481543D01*
X13142Y481376D01*
X13645Y481256D01*
X14157Y481183D01*
X14673Y481159D01*
X14675Y481159D01*
Y479000D01*
X10180D01*
Y483805D01*
X10202Y483796D01*
X10318Y483768D01*
X10436Y483759D01*
X10554Y483768D01*
X10670Y483795D01*
X10780Y483841D01*
X10881Y483903D01*
X10971Y483979D01*
X11049Y484070D01*
X11111Y484171D01*
X11157Y484280D01*
X11184Y484396D01*
X11194Y484514D01*
X11185Y484633D01*
X11157Y484748D01*
X11110Y484857D01*
X10952Y485197D01*
X10831Y485553D01*
X10743Y485918D01*
X10691Y486290D01*
X10673Y486665D01*
X10691Y487040D01*
X10743Y487412D01*
X10831Y487777D01*
X10952Y488133D01*
X11106Y488475D01*
X11153Y488583D01*
X11180Y488698D01*
X11190Y488816D01*
X11180Y488933D01*
X11152Y489048D01*
X11107Y489157D01*
X11045Y489258D01*
X10968Y489347D01*
X10878Y489424D01*
X10778Y489485D01*
X10669Y489530D01*
X10554Y489558D01*
X10436Y489567D01*
X10318Y489557D01*
X10204Y489530D01*
X10180Y489520D01*
Y493500D01*
G37*
G36*
X7000D02*X10180D01*
Y489520D01*
X10095Y489484D01*
X9994Y489422D01*
X9904Y489346D01*
X9828Y489256D01*
X9768Y489154D01*
X9551Y488685D01*
X9384Y488196D01*
X9264Y487693D01*
X9191Y487181D01*
X9167Y486665D01*
X9191Y486149D01*
X9264Y485637D01*
X9384Y485134D01*
X9551Y484645D01*
X9763Y484173D01*
X9824Y484072D01*
X9901Y483981D01*
X9991Y483904D01*
X10093Y483842D01*
X10180Y483805D01*
Y479000D01*
X7000D01*
Y493500D01*
G37*
G36*
X47500Y484000D02*Y492000D01*
X58000D01*
Y484000D01*
X47500D01*
G37*
G36*
X60000Y492500D02*X58000Y490500D01*
X56500D01*
Y500000D01*
X60892D01*
X61000Y499995D01*
X61108Y500000D01*
X66500D01*
Y499743D01*
X62747Y495989D01*
X62529Y495972D01*
X62070Y495862D01*
X61634Y495681D01*
X61231Y495435D01*
X60872Y495128D01*
X60565Y494769D01*
X60319Y494366D01*
X60138Y493930D01*
X60028Y493471D01*
X60000Y493000D01*
Y492500D01*
G37*
G36*
Y362500D02*X58000Y360500D01*
X56500D01*
Y370000D01*
X60892D01*
X61000Y369995D01*
X61108Y370000D01*
X66500D01*
Y369743D01*
X62747Y365989D01*
X62529Y365972D01*
X62070Y365862D01*
X61634Y365681D01*
X61231Y365435D01*
X60872Y365128D01*
X60565Y364769D01*
X60319Y364366D01*
X60138Y363930D01*
X60028Y363471D01*
X60000Y363000D01*
Y362500D01*
G37*
G36*
X64613Y379000D02*X66500D01*
Y373676D01*
X66486Y373500D01*
X66500Y373324D01*
Y369743D01*
X65757Y369000D01*
X64613D01*
Y372353D01*
X64656Y372360D01*
X64768Y372397D01*
X64873Y372452D01*
X64968Y372522D01*
X65051Y372606D01*
X65119Y372702D01*
X65170Y372808D01*
X65318Y373216D01*
X65422Y373637D01*
X65484Y374067D01*
X65505Y374500D01*
X65484Y374933D01*
X65422Y375363D01*
X65318Y375784D01*
X65175Y376194D01*
X65122Y376300D01*
X65053Y376396D01*
X64970Y376481D01*
X64875Y376551D01*
X64769Y376606D01*
X64657Y376643D01*
X64613Y376651D01*
Y379000D01*
G37*
G36*
X61002Y377500D02*X61289Y377486D01*
X61575Y377444D01*
X61855Y377376D01*
X62128Y377280D01*
X62239Y377242D01*
X62356Y377225D01*
X62474Y377225D01*
X62591Y377245D01*
X62703Y377282D01*
X62807Y377336D01*
X62902Y377406D01*
X62985Y377491D01*
X63054Y377587D01*
X63107Y377692D01*
X63143Y377805D01*
X63160Y377921D01*
X63159Y378039D01*
X63140Y378156D01*
X63103Y378268D01*
X63048Y378373D01*
X62978Y378468D01*
X62894Y378551D01*
X62798Y378619D01*
X62692Y378670D01*
X62284Y378818D01*
X61863Y378922D01*
X61433Y378984D01*
X61108Y379000D01*
X64613D01*
Y376651D01*
X64540Y376663D01*
X64421Y376664D01*
X64304Y376646D01*
X64191Y376610D01*
X64085Y376557D01*
X63988Y376488D01*
X63904Y376405D01*
X63833Y376309D01*
X63779Y376204D01*
X63741Y376092D01*
X63722Y375975D01*
X63721Y375856D01*
X63739Y375739D01*
X63777Y375626D01*
X63876Y375355D01*
X63944Y375075D01*
X63986Y374789D01*
X64000Y374500D01*
X63986Y374211D01*
X63944Y373925D01*
X63876Y373645D01*
X63780Y373372D01*
X63742Y373261D01*
X63725Y373144D01*
X63725Y373026D01*
X63745Y372909D01*
X63782Y372797D01*
X63836Y372693D01*
X63906Y372598D01*
X63991Y372515D01*
X64087Y372446D01*
X64192Y372393D01*
X64305Y372357D01*
X64421Y372340D01*
X64539Y372341D01*
X64613Y372353D01*
Y369000D01*
X61002D01*
Y369995D01*
X61433Y370016D01*
X61863Y370078D01*
X62284Y370182D01*
X62694Y370325D01*
X62800Y370378D01*
X62896Y370447D01*
X62981Y370530D01*
X63051Y370625D01*
X63106Y370731D01*
X63143Y370843D01*
X63163Y370960D01*
X63164Y371079D01*
X63146Y371196D01*
X63110Y371309D01*
X63057Y371415D01*
X62988Y371512D01*
X62905Y371596D01*
X62809Y371667D01*
X62704Y371721D01*
X62592Y371759D01*
X62475Y371778D01*
X62356Y371779D01*
X62239Y371761D01*
X62126Y371723D01*
X61855Y371624D01*
X61575Y371556D01*
X61289Y371514D01*
X61002Y371500D01*
Y377500D01*
G37*
G36*
X57387Y379000D02*X60892D01*
X60567Y378984D01*
X60137Y378922D01*
X59716Y378818D01*
X59306Y378675D01*
X59200Y378622D01*
X59104Y378553D01*
X59019Y378470D01*
X58949Y378375D01*
X58894Y378269D01*
X58857Y378157D01*
X58837Y378040D01*
X58836Y377921D01*
X58854Y377804D01*
X58890Y377691D01*
X58943Y377585D01*
X59012Y377488D01*
X59095Y377404D01*
X59191Y377333D01*
X59296Y377279D01*
X59408Y377241D01*
X59525Y377222D01*
X59644Y377221D01*
X59761Y377239D01*
X59874Y377277D01*
X60145Y377376D01*
X60425Y377444D01*
X60711Y377486D01*
X61000Y377500D01*
X61002Y377500D01*
Y371500D01*
X61000Y371500D01*
X60711Y371514D01*
X60425Y371556D01*
X60145Y371624D01*
X59872Y371720D01*
X59761Y371758D01*
X59644Y371775D01*
X59526Y371775D01*
X59409Y371755D01*
X59297Y371718D01*
X59193Y371664D01*
X59098Y371594D01*
X59015Y371509D01*
X58946Y371413D01*
X58893Y371308D01*
X58857Y371195D01*
X58840Y371079D01*
X58841Y370961D01*
X58860Y370844D01*
X58897Y370732D01*
X58952Y370627D01*
X59022Y370532D01*
X59106Y370449D01*
X59202Y370381D01*
X59308Y370330D01*
X59716Y370182D01*
X60137Y370078D01*
X60567Y370016D01*
X61000Y369995D01*
X61002Y369995D01*
Y369000D01*
X57387D01*
Y372349D01*
X57460Y372337D01*
X57579Y372336D01*
X57696Y372354D01*
X57809Y372390D01*
X57915Y372443D01*
X58012Y372512D01*
X58096Y372595D01*
X58167Y372691D01*
X58221Y372796D01*
X58259Y372908D01*
X58278Y373025D01*
X58279Y373144D01*
X58261Y373261D01*
X58223Y373374D01*
X58124Y373645D01*
X58056Y373925D01*
X58014Y374211D01*
X58000Y374500D01*
X58014Y374789D01*
X58056Y375075D01*
X58124Y375355D01*
X58220Y375628D01*
X58258Y375739D01*
X58275Y375856D01*
X58275Y375974D01*
X58255Y376091D01*
X58218Y376203D01*
X58164Y376307D01*
X58094Y376402D01*
X58009Y376485D01*
X57913Y376554D01*
X57808Y376607D01*
X57695Y376643D01*
X57579Y376660D01*
X57461Y376659D01*
X57387Y376647D01*
Y379000D01*
G37*
G36*
X55000Y369000D02*Y379000D01*
X57387D01*
Y376647D01*
X57344Y376640D01*
X57232Y376603D01*
X57127Y376548D01*
X57032Y376478D01*
X56949Y376394D01*
X56881Y376298D01*
X56830Y376192D01*
X56682Y375784D01*
X56578Y375363D01*
X56516Y374933D01*
X56495Y374500D01*
X56516Y374067D01*
X56578Y373637D01*
X56682Y373216D01*
X56825Y372806D01*
X56878Y372700D01*
X56947Y372604D01*
X57030Y372519D01*
X57125Y372449D01*
X57231Y372394D01*
X57343Y372357D01*
X57387Y372349D01*
Y369000D01*
X55000D01*
G37*
G36*
X64613Y509000D02*X66500D01*
Y503676D01*
X66486Y503500D01*
X66500Y503324D01*
Y499743D01*
X65757Y499000D01*
X64613D01*
Y502353D01*
X64656Y502360D01*
X64768Y502397D01*
X64873Y502452D01*
X64968Y502522D01*
X65051Y502606D01*
X65119Y502702D01*
X65170Y502808D01*
X65318Y503216D01*
X65422Y503637D01*
X65484Y504067D01*
X65505Y504500D01*
X65484Y504933D01*
X65422Y505363D01*
X65318Y505784D01*
X65175Y506194D01*
X65122Y506300D01*
X65053Y506396D01*
X64970Y506481D01*
X64875Y506551D01*
X64769Y506606D01*
X64657Y506643D01*
X64613Y506651D01*
Y509000D01*
G37*
G36*
X61002Y507500D02*X61289Y507486D01*
X61575Y507444D01*
X61855Y507376D01*
X62128Y507280D01*
X62239Y507242D01*
X62356Y507225D01*
X62474Y507225D01*
X62591Y507245D01*
X62703Y507282D01*
X62807Y507336D01*
X62902Y507406D01*
X62985Y507491D01*
X63054Y507587D01*
X63107Y507692D01*
X63143Y507805D01*
X63160Y507921D01*
X63159Y508039D01*
X63140Y508156D01*
X63103Y508268D01*
X63048Y508373D01*
X62978Y508468D01*
X62894Y508551D01*
X62798Y508619D01*
X62692Y508670D01*
X62284Y508818D01*
X61863Y508922D01*
X61433Y508984D01*
X61108Y509000D01*
X64613D01*
Y506651D01*
X64540Y506663D01*
X64421Y506664D01*
X64304Y506646D01*
X64191Y506610D01*
X64085Y506557D01*
X63988Y506488D01*
X63904Y506405D01*
X63833Y506309D01*
X63779Y506204D01*
X63741Y506092D01*
X63722Y505975D01*
X63721Y505856D01*
X63739Y505739D01*
X63777Y505626D01*
X63876Y505355D01*
X63944Y505075D01*
X63986Y504789D01*
X64000Y504500D01*
X63986Y504211D01*
X63944Y503925D01*
X63876Y503645D01*
X63780Y503372D01*
X63742Y503261D01*
X63725Y503144D01*
X63725Y503026D01*
X63745Y502909D01*
X63782Y502797D01*
X63836Y502693D01*
X63906Y502598D01*
X63991Y502515D01*
X64087Y502446D01*
X64192Y502393D01*
X64305Y502357D01*
X64421Y502340D01*
X64539Y502341D01*
X64613Y502353D01*
Y499000D01*
X61002D01*
Y499995D01*
X61433Y500016D01*
X61863Y500078D01*
X62284Y500182D01*
X62694Y500325D01*
X62800Y500378D01*
X62896Y500447D01*
X62981Y500530D01*
X63051Y500625D01*
X63106Y500731D01*
X63143Y500843D01*
X63163Y500960D01*
X63164Y501079D01*
X63146Y501196D01*
X63110Y501309D01*
X63057Y501415D01*
X62988Y501512D01*
X62905Y501596D01*
X62809Y501667D01*
X62704Y501721D01*
X62592Y501759D01*
X62475Y501778D01*
X62356Y501779D01*
X62239Y501761D01*
X62126Y501723D01*
X61855Y501624D01*
X61575Y501556D01*
X61289Y501514D01*
X61002Y501500D01*
Y507500D01*
G37*
G36*
X57387Y509000D02*X60892D01*
X60567Y508984D01*
X60137Y508922D01*
X59716Y508818D01*
X59306Y508675D01*
X59200Y508622D01*
X59104Y508553D01*
X59019Y508470D01*
X58949Y508375D01*
X58894Y508269D01*
X58857Y508157D01*
X58837Y508040D01*
X58836Y507921D01*
X58854Y507804D01*
X58890Y507691D01*
X58943Y507585D01*
X59012Y507488D01*
X59095Y507404D01*
X59191Y507333D01*
X59296Y507279D01*
X59408Y507241D01*
X59525Y507222D01*
X59644Y507221D01*
X59761Y507239D01*
X59874Y507277D01*
X60145Y507376D01*
X60425Y507444D01*
X60711Y507486D01*
X61000Y507500D01*
X61002Y507500D01*
Y501500D01*
X61000Y501500D01*
X60711Y501514D01*
X60425Y501556D01*
X60145Y501624D01*
X59872Y501720D01*
X59761Y501758D01*
X59644Y501775D01*
X59526Y501775D01*
X59409Y501755D01*
X59297Y501718D01*
X59193Y501664D01*
X59098Y501594D01*
X59015Y501509D01*
X58946Y501413D01*
X58893Y501308D01*
X58857Y501195D01*
X58840Y501079D01*
X58841Y500961D01*
X58860Y500844D01*
X58897Y500732D01*
X58952Y500627D01*
X59022Y500532D01*
X59106Y500449D01*
X59202Y500381D01*
X59308Y500330D01*
X59716Y500182D01*
X60137Y500078D01*
X60567Y500016D01*
X61000Y499995D01*
X61002Y499995D01*
Y499000D01*
X57387D01*
Y502349D01*
X57460Y502337D01*
X57579Y502336D01*
X57696Y502354D01*
X57809Y502390D01*
X57915Y502443D01*
X58012Y502512D01*
X58096Y502595D01*
X58167Y502691D01*
X58221Y502796D01*
X58259Y502908D01*
X58278Y503025D01*
X58279Y503144D01*
X58261Y503261D01*
X58223Y503374D01*
X58124Y503645D01*
X58056Y503925D01*
X58014Y504211D01*
X58000Y504500D01*
X58014Y504789D01*
X58056Y505075D01*
X58124Y505355D01*
X58220Y505628D01*
X58258Y505739D01*
X58275Y505856D01*
X58275Y505974D01*
X58255Y506091D01*
X58218Y506203D01*
X58164Y506307D01*
X58094Y506402D01*
X58009Y506485D01*
X57913Y506554D01*
X57808Y506607D01*
X57695Y506643D01*
X57579Y506660D01*
X57461Y506659D01*
X57387Y506647D01*
Y509000D01*
G37*
G36*
X55000Y499000D02*Y509000D01*
X57387D01*
Y506647D01*
X57344Y506640D01*
X57232Y506603D01*
X57127Y506548D01*
X57032Y506478D01*
X56949Y506394D01*
X56881Y506298D01*
X56830Y506192D01*
X56682Y505784D01*
X56578Y505363D01*
X56516Y504933D01*
X56495Y504500D01*
X56516Y504067D01*
X56578Y503637D01*
X56682Y503216D01*
X56825Y502806D01*
X56878Y502700D01*
X56947Y502604D01*
X57030Y502519D01*
X57125Y502449D01*
X57231Y502394D01*
X57343Y502357D01*
X57387Y502349D01*
Y499000D01*
X55000D01*
G37*
G36*
X14673Y379000D02*X58000D01*
Y376492D01*
X57913Y376554D01*
X57808Y376607D01*
X57695Y376643D01*
X57579Y376660D01*
X57461Y376659D01*
X57344Y376640D01*
X57232Y376603D01*
X57127Y376548D01*
X57032Y376478D01*
X56949Y376394D01*
X56881Y376298D01*
X56830Y376192D01*
X56682Y375784D01*
X56578Y375363D01*
X56516Y374933D01*
X56495Y374500D01*
X56516Y374067D01*
X56578Y373637D01*
X56682Y373216D01*
X56825Y372806D01*
X56878Y372700D01*
X56947Y372604D01*
X57030Y372519D01*
X57125Y372449D01*
X57231Y372394D01*
X57343Y372357D01*
X57460Y372337D01*
X57579Y372336D01*
X57696Y372354D01*
X57809Y372390D01*
X57915Y372443D01*
X58000Y372504D01*
Y354000D01*
X56000D01*
Y359000D01*
X55972Y359471D01*
X55862Y359930D01*
X55681Y360366D01*
X55435Y360769D01*
X55128Y361128D01*
X54769Y361435D01*
X54366Y361681D01*
X53930Y361862D01*
X53471Y361972D01*
X53000Y362009D01*
X52529Y361972D01*
X52070Y361862D01*
X51634Y361681D01*
X51231Y361435D01*
X50872Y361128D01*
X50565Y360769D01*
X50319Y360366D01*
X50138Y359930D01*
X50028Y359471D01*
X50000Y359000D01*
Y354000D01*
X19455D01*
X19518Y354074D01*
X19578Y354176D01*
X19795Y354645D01*
X19962Y355134D01*
X20082Y355637D01*
X20155Y356149D01*
X20179Y356665D01*
X20155Y357181D01*
X20082Y357693D01*
X19962Y358196D01*
X19795Y358685D01*
X19583Y359157D01*
X19522Y359258D01*
X19445Y359349D01*
X19355Y359426D01*
X19253Y359488D01*
X19144Y359534D01*
X19028Y359562D01*
X18910Y359571D01*
X18792Y359562D01*
X18676Y359535D01*
X18566Y359489D01*
X18465Y359427D01*
X18375Y359351D01*
X18297Y359260D01*
X18235Y359159D01*
X18189Y359050D01*
X18162Y358934D01*
X18152Y358816D01*
X18161Y358697D01*
X18189Y358582D01*
X18236Y358473D01*
X18394Y358133D01*
X18515Y357777D01*
X18603Y357412D01*
X18655Y357040D01*
X18673Y356665D01*
X18655Y356290D01*
X18603Y355918D01*
X18515Y355553D01*
X18394Y355197D01*
X18240Y354855D01*
X18193Y354747D01*
X18166Y354632D01*
X18156Y354514D01*
X18166Y354397D01*
X18194Y354282D01*
X18239Y354173D01*
X18301Y354072D01*
X18363Y354000D01*
X14673D01*
Y360665D01*
X15048Y360647D01*
X15420Y360595D01*
X15785Y360507D01*
X16141Y360386D01*
X16483Y360232D01*
X16591Y360185D01*
X16706Y360158D01*
X16824Y360148D01*
X16941Y360158D01*
X17056Y360186D01*
X17165Y360231D01*
X17266Y360293D01*
X17355Y360370D01*
X17432Y360460D01*
X17493Y360560D01*
X17538Y360669D01*
X17566Y360784D01*
X17575Y360902D01*
X17565Y361020D01*
X17538Y361134D01*
X17492Y361243D01*
X17430Y361344D01*
X17354Y361434D01*
X17264Y361510D01*
X17162Y361570D01*
X16693Y361787D01*
X16204Y361954D01*
X15701Y362074D01*
X15189Y362147D01*
X14673Y362171D01*
Y364952D01*
X18908Y364959D01*
X19138Y365014D01*
X19356Y365104D01*
X19557Y365228D01*
X19737Y365381D01*
X19890Y365561D01*
X20014Y365762D01*
X20104Y365980D01*
X20159Y366210D01*
X20173Y366445D01*
X20159Y374680D01*
X20104Y374910D01*
X20014Y375128D01*
X19890Y375329D01*
X19737Y375509D01*
X19557Y375662D01*
X19356Y375786D01*
X19138Y375876D01*
X18908Y375931D01*
X18673Y375945D01*
X14673Y375938D01*
Y379000D01*
G37*
G36*
X7000Y354000D02*Y379000D01*
X14673D01*
Y375938D01*
X10438Y375931D01*
X10208Y375876D01*
X9990Y375786D01*
X9789Y375662D01*
X9609Y375509D01*
X9456Y375329D01*
X9332Y375128D01*
X9242Y374910D01*
X9187Y374680D01*
X9173Y374445D01*
X9187Y366210D01*
X9242Y365980D01*
X9332Y365762D01*
X9456Y365561D01*
X9609Y365381D01*
X9789Y365228D01*
X9990Y365104D01*
X10208Y365014D01*
X10438Y364959D01*
X10673Y364945D01*
X14673Y364952D01*
Y362171D01*
X14673D01*
X14157Y362147D01*
X13645Y362074D01*
X13142Y361954D01*
X12653Y361787D01*
X12181Y361575D01*
X12080Y361514D01*
X11989Y361437D01*
X11912Y361347D01*
X11850Y361245D01*
X11804Y361136D01*
X11776Y361020D01*
X11767Y360902D01*
X11776Y360784D01*
X11803Y360668D01*
X11849Y360558D01*
X11911Y360457D01*
X11987Y360367D01*
X12078Y360289D01*
X12179Y360227D01*
X12288Y360181D01*
X12404Y360154D01*
X12522Y360144D01*
X12641Y360153D01*
X12756Y360181D01*
X12865Y360228D01*
X13205Y360386D01*
X13561Y360507D01*
X13926Y360595D01*
X14298Y360647D01*
X14673Y360665D01*
Y354000D01*
X10989D01*
X11049Y354070D01*
X11111Y354171D01*
X11157Y354280D01*
X11184Y354396D01*
X11194Y354514D01*
X11185Y354633D01*
X11157Y354748D01*
X11110Y354857D01*
X10952Y355197D01*
X10831Y355553D01*
X10743Y355918D01*
X10691Y356290D01*
X10673Y356665D01*
X10691Y357040D01*
X10743Y357412D01*
X10831Y357777D01*
X10952Y358133D01*
X11106Y358475D01*
X11153Y358583D01*
X11180Y358698D01*
X11190Y358816D01*
X11180Y358933D01*
X11152Y359048D01*
X11107Y359157D01*
X11045Y359258D01*
X10968Y359347D01*
X10878Y359424D01*
X10778Y359485D01*
X10669Y359530D01*
X10554Y359558D01*
X10436Y359567D01*
X10318Y359557D01*
X10204Y359530D01*
X10095Y359484D01*
X9994Y359422D01*
X9904Y359346D01*
X9828Y359256D01*
X9768Y359154D01*
X9551Y358685D01*
X9384Y358196D01*
X9264Y357693D01*
X9191Y357181D01*
X9167Y356665D01*
X9191Y356149D01*
X9264Y355637D01*
X9384Y355134D01*
X9551Y354645D01*
X9763Y354173D01*
X9824Y354072D01*
X9885Y354000D01*
X7000D01*
G37*
G36*
X19166Y363500D02*X22500D01*
Y349000D01*
X19166D01*
Y353810D01*
X19251Y353846D01*
X19352Y353908D01*
X19442Y353984D01*
X19518Y354074D01*
X19578Y354176D01*
X19795Y354645D01*
X19962Y355134D01*
X20082Y355637D01*
X20155Y356149D01*
X20179Y356665D01*
X20155Y357181D01*
X20082Y357693D01*
X19962Y358196D01*
X19795Y358685D01*
X19583Y359157D01*
X19522Y359258D01*
X19445Y359349D01*
X19355Y359426D01*
X19253Y359488D01*
X19166Y359525D01*
Y363500D01*
G37*
G36*
X14675D02*X19166D01*
Y359525D01*
X19144Y359534D01*
X19028Y359562D01*
X18910Y359571D01*
X18792Y359562D01*
X18676Y359535D01*
X18566Y359489D01*
X18465Y359427D01*
X18375Y359351D01*
X18297Y359260D01*
X18235Y359159D01*
X18189Y359050D01*
X18162Y358934D01*
X18152Y358816D01*
X18161Y358697D01*
X18189Y358582D01*
X18236Y358473D01*
X18394Y358133D01*
X18515Y357777D01*
X18603Y357412D01*
X18655Y357040D01*
X18673Y356665D01*
X18655Y356290D01*
X18603Y355918D01*
X18515Y355553D01*
X18394Y355197D01*
X18240Y354855D01*
X18193Y354747D01*
X18166Y354632D01*
X18156Y354514D01*
X18166Y354397D01*
X18194Y354282D01*
X18239Y354173D01*
X18301Y354072D01*
X18378Y353983D01*
X18468Y353906D01*
X18568Y353845D01*
X18677Y353800D01*
X18792Y353772D01*
X18910Y353763D01*
X19028Y353773D01*
X19142Y353800D01*
X19166Y353810D01*
Y349000D01*
X14675D01*
Y351159D01*
X15189Y351183D01*
X15701Y351256D01*
X16204Y351376D01*
X16693Y351543D01*
X17165Y351755D01*
X17266Y351816D01*
X17357Y351893D01*
X17434Y351983D01*
X17496Y352085D01*
X17542Y352194D01*
X17570Y352310D01*
X17579Y352428D01*
X17570Y352546D01*
X17543Y352662D01*
X17497Y352772D01*
X17435Y352873D01*
X17359Y352963D01*
X17268Y353041D01*
X17167Y353103D01*
X17058Y353149D01*
X16942Y353176D01*
X16824Y353186D01*
X16705Y353177D01*
X16590Y353149D01*
X16481Y353102D01*
X16141Y352944D01*
X15785Y352823D01*
X15420Y352735D01*
X15048Y352683D01*
X14675Y352665D01*
Y360665D01*
X15048Y360647D01*
X15420Y360595D01*
X15785Y360507D01*
X16141Y360386D01*
X16483Y360232D01*
X16591Y360185D01*
X16706Y360158D01*
X16824Y360148D01*
X16941Y360158D01*
X17056Y360186D01*
X17165Y360231D01*
X17266Y360293D01*
X17355Y360370D01*
X17432Y360460D01*
X17493Y360560D01*
X17538Y360669D01*
X17566Y360784D01*
X17575Y360902D01*
X17565Y361020D01*
X17538Y361134D01*
X17492Y361243D01*
X17430Y361344D01*
X17354Y361434D01*
X17264Y361510D01*
X17162Y361570D01*
X16693Y361787D01*
X16204Y361954D01*
X15701Y362074D01*
X15189Y362147D01*
X14675Y362171D01*
Y363500D01*
G37*
G36*
X10180D02*X14675D01*
Y362171D01*
X14673Y362171D01*
X14157Y362147D01*
X13645Y362074D01*
X13142Y361954D01*
X12653Y361787D01*
X12181Y361575D01*
X12080Y361514D01*
X11989Y361437D01*
X11912Y361347D01*
X11850Y361245D01*
X11804Y361136D01*
X11776Y361020D01*
X11767Y360902D01*
X11776Y360784D01*
X11803Y360668D01*
X11849Y360558D01*
X11911Y360457D01*
X11987Y360367D01*
X12078Y360289D01*
X12179Y360227D01*
X12288Y360181D01*
X12404Y360154D01*
X12522Y360144D01*
X12641Y360153D01*
X12756Y360181D01*
X12865Y360228D01*
X13205Y360386D01*
X13561Y360507D01*
X13926Y360595D01*
X14298Y360647D01*
X14673Y360665D01*
X14675Y360665D01*
Y352665D01*
X14673Y352665D01*
X14298Y352683D01*
X13926Y352735D01*
X13561Y352823D01*
X13205Y352944D01*
X12863Y353098D01*
X12755Y353145D01*
X12640Y353172D01*
X12522Y353182D01*
X12405Y353172D01*
X12290Y353144D01*
X12181Y353099D01*
X12080Y353037D01*
X11991Y352960D01*
X11914Y352870D01*
X11853Y352770D01*
X11808Y352661D01*
X11780Y352546D01*
X11771Y352428D01*
X11781Y352310D01*
X11808Y352196D01*
X11854Y352087D01*
X11916Y351986D01*
X11992Y351896D01*
X12082Y351820D01*
X12184Y351760D01*
X12653Y351543D01*
X13142Y351376D01*
X13645Y351256D01*
X14157Y351183D01*
X14673Y351159D01*
X14675Y351159D01*
Y349000D01*
X10180D01*
Y353805D01*
X10202Y353796D01*
X10318Y353768D01*
X10436Y353759D01*
X10554Y353768D01*
X10670Y353795D01*
X10780Y353841D01*
X10881Y353903D01*
X10971Y353979D01*
X11049Y354070D01*
X11111Y354171D01*
X11157Y354280D01*
X11184Y354396D01*
X11194Y354514D01*
X11185Y354633D01*
X11157Y354748D01*
X11110Y354857D01*
X10952Y355197D01*
X10831Y355553D01*
X10743Y355918D01*
X10691Y356290D01*
X10673Y356665D01*
X10691Y357040D01*
X10743Y357412D01*
X10831Y357777D01*
X10952Y358133D01*
X11106Y358475D01*
X11153Y358583D01*
X11180Y358698D01*
X11190Y358816D01*
X11180Y358933D01*
X11152Y359048D01*
X11107Y359157D01*
X11045Y359258D01*
X10968Y359347D01*
X10878Y359424D01*
X10778Y359485D01*
X10669Y359530D01*
X10554Y359558D01*
X10436Y359567D01*
X10318Y359557D01*
X10204Y359530D01*
X10180Y359520D01*
Y363500D01*
G37*
G36*
X7000D02*X10180D01*
Y359520D01*
X10095Y359484D01*
X9994Y359422D01*
X9904Y359346D01*
X9828Y359256D01*
X9768Y359154D01*
X9551Y358685D01*
X9384Y358196D01*
X9264Y357693D01*
X9191Y357181D01*
X9167Y356665D01*
X9191Y356149D01*
X9264Y355637D01*
X9384Y355134D01*
X9551Y354645D01*
X9763Y354173D01*
X9824Y354072D01*
X9901Y353981D01*
X9991Y353904D01*
X10093Y353842D01*
X10180Y353805D01*
Y349000D01*
X7000D01*
Y363500D01*
G37*
G36*
X47500Y354000D02*Y362000D01*
X58000D01*
Y354000D01*
X47500D01*
G37*
G36*
X14673Y639000D02*X58000D01*
Y636492D01*
X57913Y636554D01*
X57808Y636607D01*
X57695Y636643D01*
X57579Y636660D01*
X57461Y636659D01*
X57344Y636640D01*
X57232Y636603D01*
X57127Y636548D01*
X57032Y636478D01*
X56949Y636394D01*
X56881Y636298D01*
X56830Y636192D01*
X56682Y635784D01*
X56578Y635363D01*
X56516Y634933D01*
X56495Y634500D01*
X56516Y634067D01*
X56578Y633637D01*
X56682Y633216D01*
X56825Y632806D01*
X56878Y632700D01*
X56947Y632604D01*
X57030Y632519D01*
X57125Y632449D01*
X57231Y632394D01*
X57343Y632357D01*
X57460Y632337D01*
X57579Y632336D01*
X57696Y632354D01*
X57809Y632390D01*
X57915Y632443D01*
X58000Y632504D01*
Y614000D01*
X56000D01*
Y619000D01*
X55972Y619471D01*
X55862Y619930D01*
X55681Y620366D01*
X55435Y620769D01*
X55128Y621128D01*
X54769Y621435D01*
X54366Y621681D01*
X53930Y621862D01*
X53471Y621972D01*
X53000Y622009D01*
X52529Y621972D01*
X52070Y621862D01*
X51634Y621681D01*
X51231Y621435D01*
X50872Y621128D01*
X50565Y620769D01*
X50319Y620366D01*
X50138Y619930D01*
X50028Y619471D01*
X50000Y619000D01*
Y614000D01*
X19455D01*
X19518Y614074D01*
X19578Y614176D01*
X19795Y614645D01*
X19962Y615134D01*
X20082Y615637D01*
X20155Y616149D01*
X20179Y616665D01*
X20155Y617181D01*
X20082Y617693D01*
X19962Y618196D01*
X19795Y618685D01*
X19583Y619157D01*
X19522Y619258D01*
X19445Y619349D01*
X19355Y619426D01*
X19253Y619488D01*
X19144Y619534D01*
X19028Y619562D01*
X18910Y619571D01*
X18792Y619562D01*
X18676Y619535D01*
X18566Y619489D01*
X18465Y619427D01*
X18375Y619351D01*
X18297Y619260D01*
X18235Y619159D01*
X18189Y619050D01*
X18162Y618934D01*
X18152Y618816D01*
X18161Y618697D01*
X18189Y618582D01*
X18236Y618473D01*
X18394Y618133D01*
X18515Y617777D01*
X18603Y617412D01*
X18655Y617040D01*
X18673Y616665D01*
X18655Y616290D01*
X18603Y615918D01*
X18515Y615553D01*
X18394Y615197D01*
X18240Y614855D01*
X18193Y614747D01*
X18166Y614632D01*
X18156Y614514D01*
X18166Y614397D01*
X18194Y614282D01*
X18239Y614173D01*
X18301Y614072D01*
X18363Y614000D01*
X14673D01*
Y620665D01*
X15048Y620647D01*
X15420Y620595D01*
X15785Y620507D01*
X16141Y620386D01*
X16483Y620232D01*
X16591Y620185D01*
X16706Y620158D01*
X16824Y620148D01*
X16941Y620158D01*
X17056Y620186D01*
X17165Y620231D01*
X17266Y620293D01*
X17355Y620370D01*
X17432Y620460D01*
X17493Y620560D01*
X17538Y620669D01*
X17566Y620784D01*
X17575Y620902D01*
X17565Y621020D01*
X17538Y621134D01*
X17492Y621243D01*
X17430Y621344D01*
X17354Y621434D01*
X17264Y621510D01*
X17162Y621570D01*
X16693Y621787D01*
X16204Y621954D01*
X15701Y622074D01*
X15189Y622147D01*
X14673Y622171D01*
Y624952D01*
X18908Y624959D01*
X19138Y625014D01*
X19356Y625104D01*
X19557Y625228D01*
X19737Y625381D01*
X19890Y625561D01*
X20014Y625762D01*
X20104Y625980D01*
X20159Y626210D01*
X20173Y626445D01*
X20159Y634680D01*
X20104Y634910D01*
X20014Y635128D01*
X19890Y635329D01*
X19737Y635509D01*
X19557Y635662D01*
X19356Y635786D01*
X19138Y635876D01*
X18908Y635931D01*
X18673Y635945D01*
X14673Y635938D01*
Y639000D01*
G37*
G36*
X7000Y614000D02*Y639000D01*
X14673D01*
Y635938D01*
X10438Y635931D01*
X10208Y635876D01*
X9990Y635786D01*
X9789Y635662D01*
X9609Y635509D01*
X9456Y635329D01*
X9332Y635128D01*
X9242Y634910D01*
X9187Y634680D01*
X9173Y634445D01*
X9187Y626210D01*
X9242Y625980D01*
X9332Y625762D01*
X9456Y625561D01*
X9609Y625381D01*
X9789Y625228D01*
X9990Y625104D01*
X10208Y625014D01*
X10438Y624959D01*
X10673Y624945D01*
X14673Y624952D01*
Y622171D01*
X14673D01*
X14157Y622147D01*
X13645Y622074D01*
X13142Y621954D01*
X12653Y621787D01*
X12181Y621575D01*
X12080Y621514D01*
X11989Y621437D01*
X11912Y621347D01*
X11850Y621245D01*
X11804Y621136D01*
X11776Y621020D01*
X11767Y620902D01*
X11776Y620784D01*
X11803Y620668D01*
X11849Y620558D01*
X11911Y620457D01*
X11987Y620367D01*
X12078Y620289D01*
X12179Y620227D01*
X12288Y620181D01*
X12404Y620154D01*
X12522Y620144D01*
X12641Y620153D01*
X12756Y620181D01*
X12865Y620228D01*
X13205Y620386D01*
X13561Y620507D01*
X13926Y620595D01*
X14298Y620647D01*
X14673Y620665D01*
Y614000D01*
X10989D01*
X11049Y614070D01*
X11111Y614171D01*
X11157Y614280D01*
X11184Y614396D01*
X11194Y614514D01*
X11185Y614633D01*
X11157Y614748D01*
X11110Y614857D01*
X10952Y615197D01*
X10831Y615553D01*
X10743Y615918D01*
X10691Y616290D01*
X10673Y616665D01*
X10691Y617040D01*
X10743Y617412D01*
X10831Y617777D01*
X10952Y618133D01*
X11106Y618475D01*
X11153Y618583D01*
X11180Y618698D01*
X11190Y618816D01*
X11180Y618933D01*
X11152Y619048D01*
X11107Y619157D01*
X11045Y619258D01*
X10968Y619347D01*
X10878Y619424D01*
X10778Y619485D01*
X10669Y619530D01*
X10554Y619558D01*
X10436Y619567D01*
X10318Y619557D01*
X10204Y619530D01*
X10095Y619484D01*
X9994Y619422D01*
X9904Y619346D01*
X9828Y619256D01*
X9768Y619154D01*
X9551Y618685D01*
X9384Y618196D01*
X9264Y617693D01*
X9191Y617181D01*
X9167Y616665D01*
X9191Y616149D01*
X9264Y615637D01*
X9384Y615134D01*
X9551Y614645D01*
X9763Y614173D01*
X9824Y614072D01*
X9885Y614000D01*
X7000D01*
G37*
G36*
X60000Y622500D02*X58000Y620500D01*
X56500D01*
Y630000D01*
X60892D01*
X61000Y629995D01*
X61108Y630000D01*
X66500D01*
Y629743D01*
X62747Y625989D01*
X62529Y625972D01*
X62070Y625862D01*
X61634Y625681D01*
X61231Y625435D01*
X60872Y625128D01*
X60565Y624769D01*
X60319Y624366D01*
X60138Y623930D01*
X60028Y623471D01*
X60000Y623000D01*
Y622500D01*
G37*
G36*
X64613Y639000D02*X66500D01*
Y633676D01*
X66486Y633500D01*
X66500Y633324D01*
Y629743D01*
X65757Y629000D01*
X64613D01*
Y632353D01*
X64656Y632360D01*
X64768Y632397D01*
X64873Y632452D01*
X64968Y632522D01*
X65051Y632606D01*
X65119Y632702D01*
X65170Y632808D01*
X65318Y633216D01*
X65422Y633637D01*
X65484Y634067D01*
X65505Y634500D01*
X65484Y634933D01*
X65422Y635363D01*
X65318Y635784D01*
X65175Y636194D01*
X65122Y636300D01*
X65053Y636396D01*
X64970Y636481D01*
X64875Y636551D01*
X64769Y636606D01*
X64657Y636643D01*
X64613Y636651D01*
Y639000D01*
G37*
G36*
X61002Y637500D02*X61289Y637486D01*
X61575Y637444D01*
X61855Y637376D01*
X62128Y637280D01*
X62239Y637242D01*
X62356Y637225D01*
X62474Y637225D01*
X62591Y637245D01*
X62703Y637282D01*
X62807Y637336D01*
X62902Y637406D01*
X62985Y637491D01*
X63054Y637587D01*
X63107Y637692D01*
X63143Y637805D01*
X63160Y637921D01*
X63159Y638039D01*
X63140Y638156D01*
X63103Y638268D01*
X63048Y638373D01*
X62978Y638468D01*
X62894Y638551D01*
X62798Y638619D01*
X62692Y638670D01*
X62284Y638818D01*
X61863Y638922D01*
X61433Y638984D01*
X61108Y639000D01*
X64613D01*
Y636651D01*
X64540Y636663D01*
X64421Y636664D01*
X64304Y636646D01*
X64191Y636610D01*
X64085Y636557D01*
X63988Y636488D01*
X63904Y636405D01*
X63833Y636309D01*
X63779Y636204D01*
X63741Y636092D01*
X63722Y635975D01*
X63721Y635856D01*
X63739Y635739D01*
X63777Y635626D01*
X63876Y635355D01*
X63944Y635075D01*
X63986Y634789D01*
X64000Y634500D01*
X63986Y634211D01*
X63944Y633925D01*
X63876Y633645D01*
X63780Y633372D01*
X63742Y633261D01*
X63725Y633144D01*
X63725Y633026D01*
X63745Y632909D01*
X63782Y632797D01*
X63836Y632693D01*
X63906Y632598D01*
X63991Y632515D01*
X64087Y632446D01*
X64192Y632393D01*
X64305Y632357D01*
X64421Y632340D01*
X64539Y632341D01*
X64613Y632353D01*
Y629000D01*
X61002D01*
Y629995D01*
X61433Y630016D01*
X61863Y630078D01*
X62284Y630182D01*
X62694Y630325D01*
X62800Y630378D01*
X62896Y630447D01*
X62981Y630530D01*
X63051Y630625D01*
X63106Y630731D01*
X63143Y630843D01*
X63163Y630960D01*
X63164Y631079D01*
X63146Y631196D01*
X63110Y631309D01*
X63057Y631415D01*
X62988Y631512D01*
X62905Y631596D01*
X62809Y631667D01*
X62704Y631721D01*
X62592Y631759D01*
X62475Y631778D01*
X62356Y631779D01*
X62239Y631761D01*
X62126Y631723D01*
X61855Y631624D01*
X61575Y631556D01*
X61289Y631514D01*
X61002Y631500D01*
Y637500D01*
G37*
G36*
X57387Y639000D02*X60892D01*
X60567Y638984D01*
X60137Y638922D01*
X59716Y638818D01*
X59306Y638675D01*
X59200Y638622D01*
X59104Y638553D01*
X59019Y638470D01*
X58949Y638375D01*
X58894Y638269D01*
X58857Y638157D01*
X58837Y638040D01*
X58836Y637921D01*
X58854Y637804D01*
X58890Y637691D01*
X58943Y637585D01*
X59012Y637488D01*
X59095Y637404D01*
X59191Y637333D01*
X59296Y637279D01*
X59408Y637241D01*
X59525Y637222D01*
X59644Y637221D01*
X59761Y637239D01*
X59874Y637277D01*
X60145Y637376D01*
X60425Y637444D01*
X60711Y637486D01*
X61000Y637500D01*
X61002Y637500D01*
Y631500D01*
X61000Y631500D01*
X60711Y631514D01*
X60425Y631556D01*
X60145Y631624D01*
X59872Y631720D01*
X59761Y631758D01*
X59644Y631775D01*
X59526Y631775D01*
X59409Y631755D01*
X59297Y631718D01*
X59193Y631664D01*
X59098Y631594D01*
X59015Y631509D01*
X58946Y631413D01*
X58893Y631308D01*
X58857Y631195D01*
X58840Y631079D01*
X58841Y630961D01*
X58860Y630844D01*
X58897Y630732D01*
X58952Y630627D01*
X59022Y630532D01*
X59106Y630449D01*
X59202Y630381D01*
X59308Y630330D01*
X59716Y630182D01*
X60137Y630078D01*
X60567Y630016D01*
X61000Y629995D01*
X61002Y629995D01*
Y629000D01*
X57387D01*
Y632349D01*
X57460Y632337D01*
X57579Y632336D01*
X57696Y632354D01*
X57809Y632390D01*
X57915Y632443D01*
X58012Y632512D01*
X58096Y632595D01*
X58167Y632691D01*
X58221Y632796D01*
X58259Y632908D01*
X58278Y633025D01*
X58279Y633144D01*
X58261Y633261D01*
X58223Y633374D01*
X58124Y633645D01*
X58056Y633925D01*
X58014Y634211D01*
X58000Y634500D01*
X58014Y634789D01*
X58056Y635075D01*
X58124Y635355D01*
X58220Y635628D01*
X58258Y635739D01*
X58275Y635856D01*
X58275Y635974D01*
X58255Y636091D01*
X58218Y636203D01*
X58164Y636307D01*
X58094Y636402D01*
X58009Y636485D01*
X57913Y636554D01*
X57808Y636607D01*
X57695Y636643D01*
X57579Y636660D01*
X57461Y636659D01*
X57387Y636647D01*
Y639000D01*
G37*
G36*
X55000Y629000D02*Y639000D01*
X57387D01*
Y636647D01*
X57344Y636640D01*
X57232Y636603D01*
X57127Y636548D01*
X57032Y636478D01*
X56949Y636394D01*
X56881Y636298D01*
X56830Y636192D01*
X56682Y635784D01*
X56578Y635363D01*
X56516Y634933D01*
X56495Y634500D01*
X56516Y634067D01*
X56578Y633637D01*
X56682Y633216D01*
X56825Y632806D01*
X56878Y632700D01*
X56947Y632604D01*
X57030Y632519D01*
X57125Y632449D01*
X57231Y632394D01*
X57343Y632357D01*
X57387Y632349D01*
Y629000D01*
X55000D01*
G37*
G36*
X47500Y614000D02*Y622000D01*
X58000D01*
Y614000D01*
X47500D01*
G37*
G36*
X14673Y769000D02*X58000D01*
Y766492D01*
X57913Y766554D01*
X57808Y766607D01*
X57695Y766643D01*
X57579Y766660D01*
X57461Y766659D01*
X57344Y766640D01*
X57232Y766603D01*
X57127Y766548D01*
X57032Y766478D01*
X56949Y766394D01*
X56881Y766298D01*
X56830Y766192D01*
X56682Y765784D01*
X56578Y765363D01*
X56516Y764933D01*
X56495Y764500D01*
X56516Y764067D01*
X56578Y763637D01*
X56682Y763216D01*
X56825Y762806D01*
X56878Y762700D01*
X56947Y762604D01*
X57030Y762519D01*
X57125Y762449D01*
X57231Y762394D01*
X57343Y762357D01*
X57460Y762337D01*
X57579Y762336D01*
X57696Y762354D01*
X57809Y762390D01*
X57915Y762443D01*
X58000Y762504D01*
Y744000D01*
X56000D01*
Y749000D01*
X55972Y749471D01*
X55862Y749930D01*
X55681Y750366D01*
X55435Y750769D01*
X55128Y751128D01*
X54769Y751435D01*
X54366Y751681D01*
X53930Y751862D01*
X53471Y751972D01*
X53000Y752009D01*
X52529Y751972D01*
X52070Y751862D01*
X51634Y751681D01*
X51231Y751435D01*
X50872Y751128D01*
X50565Y750769D01*
X50319Y750366D01*
X50138Y749930D01*
X50028Y749471D01*
X50000Y749000D01*
Y744000D01*
X19455D01*
X19518Y744074D01*
X19578Y744176D01*
X19795Y744645D01*
X19962Y745134D01*
X20082Y745637D01*
X20155Y746149D01*
X20179Y746665D01*
X20155Y747181D01*
X20082Y747693D01*
X19962Y748196D01*
X19795Y748685D01*
X19583Y749157D01*
X19522Y749258D01*
X19445Y749349D01*
X19355Y749426D01*
X19253Y749488D01*
X19144Y749534D01*
X19028Y749562D01*
X18910Y749571D01*
X18792Y749562D01*
X18676Y749535D01*
X18566Y749489D01*
X18465Y749427D01*
X18375Y749351D01*
X18297Y749260D01*
X18235Y749159D01*
X18189Y749050D01*
X18162Y748934D01*
X18152Y748816D01*
X18161Y748697D01*
X18189Y748582D01*
X18236Y748473D01*
X18394Y748133D01*
X18515Y747777D01*
X18603Y747412D01*
X18655Y747040D01*
X18673Y746665D01*
X18655Y746290D01*
X18603Y745918D01*
X18515Y745553D01*
X18394Y745197D01*
X18240Y744855D01*
X18193Y744747D01*
X18166Y744632D01*
X18156Y744514D01*
X18166Y744397D01*
X18194Y744282D01*
X18239Y744173D01*
X18301Y744072D01*
X18363Y744000D01*
X14673D01*
Y750665D01*
X15048Y750647D01*
X15420Y750595D01*
X15785Y750507D01*
X16141Y750386D01*
X16483Y750232D01*
X16591Y750185D01*
X16706Y750158D01*
X16824Y750148D01*
X16941Y750158D01*
X17056Y750186D01*
X17165Y750231D01*
X17266Y750293D01*
X17355Y750370D01*
X17432Y750460D01*
X17493Y750560D01*
X17538Y750669D01*
X17566Y750784D01*
X17575Y750902D01*
X17565Y751020D01*
X17538Y751134D01*
X17492Y751243D01*
X17430Y751344D01*
X17354Y751434D01*
X17264Y751510D01*
X17162Y751570D01*
X16693Y751787D01*
X16204Y751954D01*
X15701Y752074D01*
X15189Y752147D01*
X14673Y752171D01*
Y754952D01*
X18908Y754959D01*
X19138Y755014D01*
X19356Y755104D01*
X19557Y755228D01*
X19737Y755381D01*
X19890Y755561D01*
X20014Y755762D01*
X20104Y755980D01*
X20159Y756210D01*
X20173Y756445D01*
X20159Y764680D01*
X20104Y764910D01*
X20014Y765128D01*
X19890Y765329D01*
X19737Y765509D01*
X19557Y765662D01*
X19356Y765786D01*
X19138Y765876D01*
X18908Y765931D01*
X18673Y765945D01*
X14673Y765938D01*
Y769000D01*
G37*
G36*
X7000Y744000D02*Y769000D01*
X14673D01*
Y765938D01*
X10438Y765931D01*
X10208Y765876D01*
X9990Y765786D01*
X9789Y765662D01*
X9609Y765509D01*
X9456Y765329D01*
X9332Y765128D01*
X9242Y764910D01*
X9187Y764680D01*
X9173Y764445D01*
X9187Y756210D01*
X9242Y755980D01*
X9332Y755762D01*
X9456Y755561D01*
X9609Y755381D01*
X9789Y755228D01*
X9990Y755104D01*
X10208Y755014D01*
X10438Y754959D01*
X10673Y754945D01*
X14673Y754952D01*
Y752171D01*
X14673D01*
X14157Y752147D01*
X13645Y752074D01*
X13142Y751954D01*
X12653Y751787D01*
X12181Y751575D01*
X12080Y751514D01*
X11989Y751437D01*
X11912Y751347D01*
X11850Y751245D01*
X11804Y751136D01*
X11776Y751020D01*
X11767Y750902D01*
X11776Y750784D01*
X11803Y750668D01*
X11849Y750558D01*
X11911Y750457D01*
X11987Y750367D01*
X12078Y750289D01*
X12179Y750227D01*
X12288Y750181D01*
X12404Y750154D01*
X12522Y750144D01*
X12641Y750153D01*
X12756Y750181D01*
X12865Y750228D01*
X13205Y750386D01*
X13561Y750507D01*
X13926Y750595D01*
X14298Y750647D01*
X14673Y750665D01*
Y744000D01*
X10989D01*
X11049Y744070D01*
X11111Y744171D01*
X11157Y744280D01*
X11184Y744396D01*
X11194Y744514D01*
X11185Y744633D01*
X11157Y744748D01*
X11110Y744857D01*
X10952Y745197D01*
X10831Y745553D01*
X10743Y745918D01*
X10691Y746290D01*
X10673Y746665D01*
X10691Y747040D01*
X10743Y747412D01*
X10831Y747777D01*
X10952Y748133D01*
X11106Y748475D01*
X11153Y748583D01*
X11180Y748698D01*
X11190Y748816D01*
X11180Y748933D01*
X11152Y749048D01*
X11107Y749157D01*
X11045Y749258D01*
X10968Y749347D01*
X10878Y749424D01*
X10778Y749485D01*
X10669Y749530D01*
X10554Y749558D01*
X10436Y749567D01*
X10318Y749557D01*
X10204Y749530D01*
X10095Y749484D01*
X9994Y749422D01*
X9904Y749346D01*
X9828Y749256D01*
X9768Y749154D01*
X9551Y748685D01*
X9384Y748196D01*
X9264Y747693D01*
X9191Y747181D01*
X9167Y746665D01*
X9191Y746149D01*
X9264Y745637D01*
X9384Y745134D01*
X9551Y744645D01*
X9763Y744173D01*
X9824Y744072D01*
X9885Y744000D01*
X7000D01*
G37*
G36*
X60000Y752500D02*X58000Y750500D01*
X56500D01*
Y760000D01*
X60892D01*
X61000Y759995D01*
X61108Y760000D01*
X66500D01*
Y759743D01*
X62747Y755989D01*
X62529Y755972D01*
X62070Y755862D01*
X61634Y755681D01*
X61231Y755435D01*
X60872Y755128D01*
X60565Y754769D01*
X60319Y754366D01*
X60138Y753930D01*
X60028Y753471D01*
X60000Y753000D01*
Y752500D01*
G37*
G36*
X64613Y769000D02*X66500D01*
Y763676D01*
X66486Y763500D01*
X66500Y763324D01*
Y759743D01*
X65757Y759000D01*
X64613D01*
Y762353D01*
X64656Y762360D01*
X64768Y762397D01*
X64873Y762452D01*
X64968Y762522D01*
X65051Y762606D01*
X65119Y762702D01*
X65170Y762808D01*
X65318Y763216D01*
X65422Y763637D01*
X65484Y764067D01*
X65505Y764500D01*
X65484Y764933D01*
X65422Y765363D01*
X65318Y765784D01*
X65175Y766194D01*
X65122Y766300D01*
X65053Y766396D01*
X64970Y766481D01*
X64875Y766551D01*
X64769Y766606D01*
X64657Y766643D01*
X64613Y766651D01*
Y769000D01*
G37*
G36*
X61002Y767500D02*X61289Y767486D01*
X61575Y767444D01*
X61855Y767376D01*
X62128Y767280D01*
X62239Y767242D01*
X62356Y767225D01*
X62474Y767225D01*
X62591Y767245D01*
X62703Y767282D01*
X62807Y767336D01*
X62902Y767406D01*
X62985Y767491D01*
X63054Y767587D01*
X63107Y767692D01*
X63143Y767805D01*
X63160Y767921D01*
X63159Y768039D01*
X63140Y768156D01*
X63103Y768268D01*
X63048Y768373D01*
X62978Y768468D01*
X62894Y768551D01*
X62798Y768619D01*
X62692Y768670D01*
X62284Y768818D01*
X61863Y768922D01*
X61433Y768984D01*
X61108Y769000D01*
X64613D01*
Y766651D01*
X64540Y766663D01*
X64421Y766664D01*
X64304Y766646D01*
X64191Y766610D01*
X64085Y766557D01*
X63988Y766488D01*
X63904Y766405D01*
X63833Y766309D01*
X63779Y766204D01*
X63741Y766092D01*
X63722Y765975D01*
X63721Y765856D01*
X63739Y765739D01*
X63777Y765626D01*
X63876Y765355D01*
X63944Y765075D01*
X63986Y764789D01*
X64000Y764500D01*
X63986Y764211D01*
X63944Y763925D01*
X63876Y763645D01*
X63780Y763372D01*
X63742Y763261D01*
X63725Y763144D01*
X63725Y763026D01*
X63745Y762909D01*
X63782Y762797D01*
X63836Y762693D01*
X63906Y762598D01*
X63991Y762515D01*
X64087Y762446D01*
X64192Y762393D01*
X64305Y762357D01*
X64421Y762340D01*
X64539Y762341D01*
X64613Y762353D01*
Y759000D01*
X61002D01*
Y759995D01*
X61433Y760016D01*
X61863Y760078D01*
X62284Y760182D01*
X62694Y760325D01*
X62800Y760378D01*
X62896Y760447D01*
X62981Y760530D01*
X63051Y760625D01*
X63106Y760731D01*
X63143Y760843D01*
X63163Y760960D01*
X63164Y761079D01*
X63146Y761196D01*
X63110Y761309D01*
X63057Y761415D01*
X62988Y761512D01*
X62905Y761596D01*
X62809Y761667D01*
X62704Y761721D01*
X62592Y761759D01*
X62475Y761778D01*
X62356Y761779D01*
X62239Y761761D01*
X62126Y761723D01*
X61855Y761624D01*
X61575Y761556D01*
X61289Y761514D01*
X61002Y761500D01*
Y767500D01*
G37*
G36*
X57387Y769000D02*X60892D01*
X60567Y768984D01*
X60137Y768922D01*
X59716Y768818D01*
X59306Y768675D01*
X59200Y768622D01*
X59104Y768553D01*
X59019Y768470D01*
X58949Y768375D01*
X58894Y768269D01*
X58857Y768157D01*
X58837Y768040D01*
X58836Y767921D01*
X58854Y767804D01*
X58890Y767691D01*
X58943Y767585D01*
X59012Y767488D01*
X59095Y767404D01*
X59191Y767333D01*
X59296Y767279D01*
X59408Y767241D01*
X59525Y767222D01*
X59644Y767221D01*
X59761Y767239D01*
X59874Y767277D01*
X60145Y767376D01*
X60425Y767444D01*
X60711Y767486D01*
X61000Y767500D01*
X61002Y767500D01*
Y761500D01*
X61000Y761500D01*
X60711Y761514D01*
X60425Y761556D01*
X60145Y761624D01*
X59872Y761720D01*
X59761Y761758D01*
X59644Y761775D01*
X59526Y761775D01*
X59409Y761755D01*
X59297Y761718D01*
X59193Y761664D01*
X59098Y761594D01*
X59015Y761509D01*
X58946Y761413D01*
X58893Y761308D01*
X58857Y761195D01*
X58840Y761079D01*
X58841Y760961D01*
X58860Y760844D01*
X58897Y760732D01*
X58952Y760627D01*
X59022Y760532D01*
X59106Y760449D01*
X59202Y760381D01*
X59308Y760330D01*
X59716Y760182D01*
X60137Y760078D01*
X60567Y760016D01*
X61000Y759995D01*
X61002Y759995D01*
Y759000D01*
X57387D01*
Y762349D01*
X57460Y762337D01*
X57579Y762336D01*
X57696Y762354D01*
X57809Y762390D01*
X57915Y762443D01*
X58012Y762512D01*
X58096Y762595D01*
X58167Y762691D01*
X58221Y762796D01*
X58259Y762908D01*
X58278Y763025D01*
X58279Y763144D01*
X58261Y763261D01*
X58223Y763374D01*
X58124Y763645D01*
X58056Y763925D01*
X58014Y764211D01*
X58000Y764500D01*
X58014Y764789D01*
X58056Y765075D01*
X58124Y765355D01*
X58220Y765628D01*
X58258Y765739D01*
X58275Y765856D01*
X58275Y765974D01*
X58255Y766091D01*
X58218Y766203D01*
X58164Y766307D01*
X58094Y766402D01*
X58009Y766485D01*
X57913Y766554D01*
X57808Y766607D01*
X57695Y766643D01*
X57579Y766660D01*
X57461Y766659D01*
X57387Y766647D01*
Y769000D01*
G37*
G36*
X55000Y759000D02*Y769000D01*
X57387D01*
Y766647D01*
X57344Y766640D01*
X57232Y766603D01*
X57127Y766548D01*
X57032Y766478D01*
X56949Y766394D01*
X56881Y766298D01*
X56830Y766192D01*
X56682Y765784D01*
X56578Y765363D01*
X56516Y764933D01*
X56495Y764500D01*
X56516Y764067D01*
X56578Y763637D01*
X56682Y763216D01*
X56825Y762806D01*
X56878Y762700D01*
X56947Y762604D01*
X57030Y762519D01*
X57125Y762449D01*
X57231Y762394D01*
X57343Y762357D01*
X57387Y762349D01*
Y759000D01*
X55000D01*
G37*
G36*
X19166Y753500D02*X22500D01*
Y739000D01*
X19166D01*
Y743810D01*
X19251Y743846D01*
X19352Y743908D01*
X19442Y743984D01*
X19518Y744074D01*
X19578Y744176D01*
X19795Y744645D01*
X19962Y745134D01*
X20082Y745637D01*
X20155Y746149D01*
X20179Y746665D01*
X20155Y747181D01*
X20082Y747693D01*
X19962Y748196D01*
X19795Y748685D01*
X19583Y749157D01*
X19522Y749258D01*
X19445Y749349D01*
X19355Y749426D01*
X19253Y749488D01*
X19166Y749525D01*
Y753500D01*
G37*
G36*
X14675D02*X19166D01*
Y749525D01*
X19144Y749534D01*
X19028Y749562D01*
X18910Y749571D01*
X18792Y749562D01*
X18676Y749535D01*
X18566Y749489D01*
X18465Y749427D01*
X18375Y749351D01*
X18297Y749260D01*
X18235Y749159D01*
X18189Y749050D01*
X18162Y748934D01*
X18152Y748816D01*
X18161Y748697D01*
X18189Y748582D01*
X18236Y748473D01*
X18394Y748133D01*
X18515Y747777D01*
X18603Y747412D01*
X18655Y747040D01*
X18673Y746665D01*
X18655Y746290D01*
X18603Y745918D01*
X18515Y745553D01*
X18394Y745197D01*
X18240Y744855D01*
X18193Y744747D01*
X18166Y744632D01*
X18156Y744514D01*
X18166Y744397D01*
X18194Y744282D01*
X18239Y744173D01*
X18301Y744072D01*
X18378Y743983D01*
X18468Y743906D01*
X18568Y743845D01*
X18677Y743800D01*
X18792Y743772D01*
X18910Y743763D01*
X19028Y743773D01*
X19142Y743800D01*
X19166Y743810D01*
Y739000D01*
X14675D01*
Y741159D01*
X15189Y741183D01*
X15701Y741256D01*
X16204Y741376D01*
X16693Y741543D01*
X17165Y741755D01*
X17266Y741816D01*
X17357Y741893D01*
X17434Y741983D01*
X17496Y742085D01*
X17542Y742194D01*
X17570Y742310D01*
X17579Y742428D01*
X17570Y742546D01*
X17543Y742662D01*
X17497Y742772D01*
X17435Y742873D01*
X17359Y742963D01*
X17268Y743041D01*
X17167Y743103D01*
X17058Y743149D01*
X16942Y743176D01*
X16824Y743186D01*
X16705Y743177D01*
X16590Y743149D01*
X16481Y743102D01*
X16141Y742944D01*
X15785Y742823D01*
X15420Y742735D01*
X15048Y742683D01*
X14675Y742665D01*
Y750665D01*
X15048Y750647D01*
X15420Y750595D01*
X15785Y750507D01*
X16141Y750386D01*
X16483Y750232D01*
X16591Y750185D01*
X16706Y750158D01*
X16824Y750148D01*
X16941Y750158D01*
X17056Y750186D01*
X17165Y750231D01*
X17266Y750293D01*
X17355Y750370D01*
X17432Y750460D01*
X17493Y750560D01*
X17538Y750669D01*
X17566Y750784D01*
X17575Y750902D01*
X17565Y751020D01*
X17538Y751134D01*
X17492Y751243D01*
X17430Y751344D01*
X17354Y751434D01*
X17264Y751510D01*
X17162Y751570D01*
X16693Y751787D01*
X16204Y751954D01*
X15701Y752074D01*
X15189Y752147D01*
X14675Y752171D01*
Y753500D01*
G37*
G36*
X10180D02*X14675D01*
Y752171D01*
X14673Y752171D01*
X14157Y752147D01*
X13645Y752074D01*
X13142Y751954D01*
X12653Y751787D01*
X12181Y751575D01*
X12080Y751514D01*
X11989Y751437D01*
X11912Y751347D01*
X11850Y751245D01*
X11804Y751136D01*
X11776Y751020D01*
X11767Y750902D01*
X11776Y750784D01*
X11803Y750668D01*
X11849Y750558D01*
X11911Y750457D01*
X11987Y750367D01*
X12078Y750289D01*
X12179Y750227D01*
X12288Y750181D01*
X12404Y750154D01*
X12522Y750144D01*
X12641Y750153D01*
X12756Y750181D01*
X12865Y750228D01*
X13205Y750386D01*
X13561Y750507D01*
X13926Y750595D01*
X14298Y750647D01*
X14673Y750665D01*
X14675Y750665D01*
Y742665D01*
X14673Y742665D01*
X14298Y742683D01*
X13926Y742735D01*
X13561Y742823D01*
X13205Y742944D01*
X12863Y743098D01*
X12755Y743145D01*
X12640Y743172D01*
X12522Y743182D01*
X12405Y743172D01*
X12290Y743144D01*
X12181Y743099D01*
X12080Y743037D01*
X11991Y742960D01*
X11914Y742870D01*
X11853Y742770D01*
X11808Y742661D01*
X11780Y742546D01*
X11771Y742428D01*
X11781Y742310D01*
X11808Y742196D01*
X11854Y742087D01*
X11916Y741986D01*
X11992Y741896D01*
X12082Y741820D01*
X12184Y741760D01*
X12653Y741543D01*
X13142Y741376D01*
X13645Y741256D01*
X14157Y741183D01*
X14673Y741159D01*
X14675Y741159D01*
Y739000D01*
X10180D01*
Y743805D01*
X10202Y743796D01*
X10318Y743768D01*
X10436Y743759D01*
X10554Y743768D01*
X10670Y743795D01*
X10780Y743841D01*
X10881Y743903D01*
X10971Y743979D01*
X11049Y744070D01*
X11111Y744171D01*
X11157Y744280D01*
X11184Y744396D01*
X11194Y744514D01*
X11185Y744633D01*
X11157Y744748D01*
X11110Y744857D01*
X10952Y745197D01*
X10831Y745553D01*
X10743Y745918D01*
X10691Y746290D01*
X10673Y746665D01*
X10691Y747040D01*
X10743Y747412D01*
X10831Y747777D01*
X10952Y748133D01*
X11106Y748475D01*
X11153Y748583D01*
X11180Y748698D01*
X11190Y748816D01*
X11180Y748933D01*
X11152Y749048D01*
X11107Y749157D01*
X11045Y749258D01*
X10968Y749347D01*
X10878Y749424D01*
X10778Y749485D01*
X10669Y749530D01*
X10554Y749558D01*
X10436Y749567D01*
X10318Y749557D01*
X10204Y749530D01*
X10180Y749520D01*
Y753500D01*
G37*
G36*
X7000D02*X10180D01*
Y749520D01*
X10095Y749484D01*
X9994Y749422D01*
X9904Y749346D01*
X9828Y749256D01*
X9768Y749154D01*
X9551Y748685D01*
X9384Y748196D01*
X9264Y747693D01*
X9191Y747181D01*
X9167Y746665D01*
X9191Y746149D01*
X9264Y745637D01*
X9384Y745134D01*
X9551Y744645D01*
X9763Y744173D01*
X9824Y744072D01*
X9901Y743981D01*
X9991Y743904D01*
X10093Y743842D01*
X10180Y743805D01*
Y739000D01*
X7000D01*
Y753500D01*
G37*
G36*
X47500Y744000D02*Y752000D01*
X58000D01*
Y744000D01*
X47500D01*
G37*
G36*
X19166Y623500D02*X22500D01*
Y609000D01*
X19166D01*
Y613810D01*
X19251Y613846D01*
X19352Y613908D01*
X19442Y613984D01*
X19518Y614074D01*
X19578Y614176D01*
X19795Y614645D01*
X19962Y615134D01*
X20082Y615637D01*
X20155Y616149D01*
X20179Y616665D01*
X20155Y617181D01*
X20082Y617693D01*
X19962Y618196D01*
X19795Y618685D01*
X19583Y619157D01*
X19522Y619258D01*
X19445Y619349D01*
X19355Y619426D01*
X19253Y619488D01*
X19166Y619525D01*
Y623500D01*
G37*
G36*
X14675D02*X19166D01*
Y619525D01*
X19144Y619534D01*
X19028Y619562D01*
X18910Y619571D01*
X18792Y619562D01*
X18676Y619535D01*
X18566Y619489D01*
X18465Y619427D01*
X18375Y619351D01*
X18297Y619260D01*
X18235Y619159D01*
X18189Y619050D01*
X18162Y618934D01*
X18152Y618816D01*
X18161Y618697D01*
X18189Y618582D01*
X18236Y618473D01*
X18394Y618133D01*
X18515Y617777D01*
X18603Y617412D01*
X18655Y617040D01*
X18673Y616665D01*
X18655Y616290D01*
X18603Y615918D01*
X18515Y615553D01*
X18394Y615197D01*
X18240Y614855D01*
X18193Y614747D01*
X18166Y614632D01*
X18156Y614514D01*
X18166Y614397D01*
X18194Y614282D01*
X18239Y614173D01*
X18301Y614072D01*
X18378Y613983D01*
X18468Y613906D01*
X18568Y613845D01*
X18677Y613800D01*
X18792Y613772D01*
X18910Y613763D01*
X19028Y613773D01*
X19142Y613800D01*
X19166Y613810D01*
Y609000D01*
X14675D01*
Y611159D01*
X15189Y611183D01*
X15701Y611256D01*
X16204Y611376D01*
X16693Y611543D01*
X17165Y611755D01*
X17266Y611816D01*
X17357Y611893D01*
X17434Y611983D01*
X17496Y612085D01*
X17542Y612194D01*
X17570Y612310D01*
X17579Y612428D01*
X17570Y612546D01*
X17543Y612662D01*
X17497Y612772D01*
X17435Y612873D01*
X17359Y612963D01*
X17268Y613041D01*
X17167Y613103D01*
X17058Y613149D01*
X16942Y613176D01*
X16824Y613186D01*
X16705Y613177D01*
X16590Y613149D01*
X16481Y613102D01*
X16141Y612944D01*
X15785Y612823D01*
X15420Y612735D01*
X15048Y612683D01*
X14675Y612665D01*
Y620665D01*
X15048Y620647D01*
X15420Y620595D01*
X15785Y620507D01*
X16141Y620386D01*
X16483Y620232D01*
X16591Y620185D01*
X16706Y620158D01*
X16824Y620148D01*
X16941Y620158D01*
X17056Y620186D01*
X17165Y620231D01*
X17266Y620293D01*
X17355Y620370D01*
X17432Y620460D01*
X17493Y620560D01*
X17538Y620669D01*
X17566Y620784D01*
X17575Y620902D01*
X17565Y621020D01*
X17538Y621134D01*
X17492Y621243D01*
X17430Y621344D01*
X17354Y621434D01*
X17264Y621510D01*
X17162Y621570D01*
X16693Y621787D01*
X16204Y621954D01*
X15701Y622074D01*
X15189Y622147D01*
X14675Y622171D01*
Y623500D01*
G37*
G36*
X10180D02*X14675D01*
Y622171D01*
X14673Y622171D01*
X14157Y622147D01*
X13645Y622074D01*
X13142Y621954D01*
X12653Y621787D01*
X12181Y621575D01*
X12080Y621514D01*
X11989Y621437D01*
X11912Y621347D01*
X11850Y621245D01*
X11804Y621136D01*
X11776Y621020D01*
X11767Y620902D01*
X11776Y620784D01*
X11803Y620668D01*
X11849Y620558D01*
X11911Y620457D01*
X11987Y620367D01*
X12078Y620289D01*
X12179Y620227D01*
X12288Y620181D01*
X12404Y620154D01*
X12522Y620144D01*
X12641Y620153D01*
X12756Y620181D01*
X12865Y620228D01*
X13205Y620386D01*
X13561Y620507D01*
X13926Y620595D01*
X14298Y620647D01*
X14673Y620665D01*
X14675Y620665D01*
Y612665D01*
X14673Y612665D01*
X14298Y612683D01*
X13926Y612735D01*
X13561Y612823D01*
X13205Y612944D01*
X12863Y613098D01*
X12755Y613145D01*
X12640Y613172D01*
X12522Y613182D01*
X12405Y613172D01*
X12290Y613144D01*
X12181Y613099D01*
X12080Y613037D01*
X11991Y612960D01*
X11914Y612870D01*
X11853Y612770D01*
X11808Y612661D01*
X11780Y612546D01*
X11771Y612428D01*
X11781Y612310D01*
X11808Y612196D01*
X11854Y612087D01*
X11916Y611986D01*
X11992Y611896D01*
X12082Y611820D01*
X12184Y611760D01*
X12653Y611543D01*
X13142Y611376D01*
X13645Y611256D01*
X14157Y611183D01*
X14673Y611159D01*
X14675Y611159D01*
Y609000D01*
X10180D01*
Y613805D01*
X10202Y613796D01*
X10318Y613768D01*
X10436Y613759D01*
X10554Y613768D01*
X10670Y613795D01*
X10780Y613841D01*
X10881Y613903D01*
X10971Y613979D01*
X11049Y614070D01*
X11111Y614171D01*
X11157Y614280D01*
X11184Y614396D01*
X11194Y614514D01*
X11185Y614633D01*
X11157Y614748D01*
X11110Y614857D01*
X10952Y615197D01*
X10831Y615553D01*
X10743Y615918D01*
X10691Y616290D01*
X10673Y616665D01*
X10691Y617040D01*
X10743Y617412D01*
X10831Y617777D01*
X10952Y618133D01*
X11106Y618475D01*
X11153Y618583D01*
X11180Y618698D01*
X11190Y618816D01*
X11180Y618933D01*
X11152Y619048D01*
X11107Y619157D01*
X11045Y619258D01*
X10968Y619347D01*
X10878Y619424D01*
X10778Y619485D01*
X10669Y619530D01*
X10554Y619558D01*
X10436Y619567D01*
X10318Y619557D01*
X10204Y619530D01*
X10180Y619520D01*
Y623500D01*
G37*
G36*
X7000D02*X10180D01*
Y619520D01*
X10095Y619484D01*
X9994Y619422D01*
X9904Y619346D01*
X9828Y619256D01*
X9768Y619154D01*
X9551Y618685D01*
X9384Y618196D01*
X9264Y617693D01*
X9191Y617181D01*
X9167Y616665D01*
X9191Y616149D01*
X9264Y615637D01*
X9384Y615134D01*
X9551Y614645D01*
X9763Y614173D01*
X9824Y614072D01*
X9901Y613981D01*
X9991Y613904D01*
X10093Y613842D01*
X10180Y613805D01*
Y609000D01*
X7000D01*
Y623500D01*
G37*
G36*
X60000Y232500D02*X58000Y230500D01*
X56500D01*
Y240000D01*
X60892D01*
X61000Y239995D01*
X61108Y240000D01*
X66500D01*
Y239743D01*
X62747Y235989D01*
X62529Y235972D01*
X62070Y235862D01*
X61634Y235681D01*
X61231Y235435D01*
X60872Y235128D01*
X60565Y234769D01*
X60319Y234366D01*
X60138Y233930D01*
X60028Y233471D01*
X60000Y233000D01*
Y232500D01*
G37*
G36*
X64613Y249000D02*X66500D01*
Y243676D01*
X66486Y243500D01*
X66500Y243324D01*
Y239743D01*
X65757Y239000D01*
X64613D01*
Y242353D01*
X64656Y242360D01*
X64768Y242397D01*
X64873Y242452D01*
X64968Y242522D01*
X65051Y242606D01*
X65119Y242702D01*
X65170Y242808D01*
X65318Y243216D01*
X65422Y243637D01*
X65484Y244067D01*
X65505Y244500D01*
X65484Y244933D01*
X65422Y245363D01*
X65318Y245784D01*
X65175Y246194D01*
X65122Y246300D01*
X65053Y246396D01*
X64970Y246481D01*
X64875Y246551D01*
X64769Y246606D01*
X64657Y246643D01*
X64613Y246651D01*
Y249000D01*
G37*
G36*
X61002Y247500D02*X61289Y247486D01*
X61575Y247444D01*
X61855Y247376D01*
X62128Y247280D01*
X62239Y247242D01*
X62356Y247225D01*
X62474Y247225D01*
X62591Y247245D01*
X62703Y247282D01*
X62807Y247336D01*
X62902Y247406D01*
X62985Y247491D01*
X63054Y247587D01*
X63107Y247692D01*
X63143Y247805D01*
X63160Y247921D01*
X63159Y248039D01*
X63140Y248156D01*
X63103Y248268D01*
X63048Y248373D01*
X62978Y248468D01*
X62894Y248551D01*
X62798Y248619D01*
X62692Y248670D01*
X62284Y248818D01*
X61863Y248922D01*
X61433Y248984D01*
X61108Y249000D01*
X64613D01*
Y246651D01*
X64540Y246663D01*
X64421Y246664D01*
X64304Y246646D01*
X64191Y246610D01*
X64085Y246557D01*
X63988Y246488D01*
X63904Y246405D01*
X63833Y246309D01*
X63779Y246204D01*
X63741Y246092D01*
X63722Y245975D01*
X63721Y245856D01*
X63739Y245739D01*
X63777Y245626D01*
X63876Y245355D01*
X63944Y245075D01*
X63986Y244789D01*
X64000Y244500D01*
X63986Y244211D01*
X63944Y243925D01*
X63876Y243645D01*
X63780Y243372D01*
X63742Y243261D01*
X63725Y243144D01*
X63725Y243026D01*
X63745Y242909D01*
X63782Y242797D01*
X63836Y242693D01*
X63906Y242598D01*
X63991Y242515D01*
X64087Y242446D01*
X64192Y242393D01*
X64305Y242357D01*
X64421Y242340D01*
X64539Y242341D01*
X64613Y242353D01*
Y239000D01*
X61002D01*
Y239995D01*
X61433Y240016D01*
X61863Y240078D01*
X62284Y240182D01*
X62694Y240325D01*
X62800Y240378D01*
X62896Y240447D01*
X62981Y240530D01*
X63051Y240625D01*
X63106Y240731D01*
X63143Y240843D01*
X63163Y240960D01*
X63164Y241079D01*
X63146Y241196D01*
X63110Y241309D01*
X63057Y241415D01*
X62988Y241512D01*
X62905Y241596D01*
X62809Y241667D01*
X62704Y241721D01*
X62592Y241759D01*
X62475Y241778D01*
X62356Y241779D01*
X62239Y241761D01*
X62126Y241723D01*
X61855Y241624D01*
X61575Y241556D01*
X61289Y241514D01*
X61002Y241500D01*
Y247500D01*
G37*
G36*
X57387Y249000D02*X60892D01*
X60567Y248984D01*
X60137Y248922D01*
X59716Y248818D01*
X59306Y248675D01*
X59200Y248622D01*
X59104Y248553D01*
X59019Y248470D01*
X58949Y248375D01*
X58894Y248269D01*
X58857Y248157D01*
X58837Y248040D01*
X58836Y247921D01*
X58854Y247804D01*
X58890Y247691D01*
X58943Y247585D01*
X59012Y247488D01*
X59095Y247404D01*
X59191Y247333D01*
X59296Y247279D01*
X59408Y247241D01*
X59525Y247222D01*
X59644Y247221D01*
X59761Y247239D01*
X59874Y247277D01*
X60145Y247376D01*
X60425Y247444D01*
X60711Y247486D01*
X61000Y247500D01*
X61002Y247500D01*
Y241500D01*
X61000Y241500D01*
X60711Y241514D01*
X60425Y241556D01*
X60145Y241624D01*
X59872Y241720D01*
X59761Y241758D01*
X59644Y241775D01*
X59526Y241775D01*
X59409Y241755D01*
X59297Y241718D01*
X59193Y241664D01*
X59098Y241594D01*
X59015Y241509D01*
X58946Y241413D01*
X58893Y241308D01*
X58857Y241195D01*
X58840Y241079D01*
X58841Y240961D01*
X58860Y240844D01*
X58897Y240732D01*
X58952Y240627D01*
X59022Y240532D01*
X59106Y240449D01*
X59202Y240381D01*
X59308Y240330D01*
X59716Y240182D01*
X60137Y240078D01*
X60567Y240016D01*
X61000Y239995D01*
X61002Y239995D01*
Y239000D01*
X57387D01*
Y242349D01*
X57460Y242337D01*
X57579Y242336D01*
X57696Y242354D01*
X57809Y242390D01*
X57915Y242443D01*
X58012Y242512D01*
X58096Y242595D01*
X58167Y242691D01*
X58221Y242796D01*
X58259Y242908D01*
X58278Y243025D01*
X58279Y243144D01*
X58261Y243261D01*
X58223Y243374D01*
X58124Y243645D01*
X58056Y243925D01*
X58014Y244211D01*
X58000Y244500D01*
X58014Y244789D01*
X58056Y245075D01*
X58124Y245355D01*
X58220Y245628D01*
X58258Y245739D01*
X58275Y245856D01*
X58275Y245974D01*
X58255Y246091D01*
X58218Y246203D01*
X58164Y246307D01*
X58094Y246402D01*
X58009Y246485D01*
X57913Y246554D01*
X57808Y246607D01*
X57695Y246643D01*
X57579Y246660D01*
X57461Y246659D01*
X57387Y246647D01*
Y249000D01*
G37*
G36*
X55000Y239000D02*Y249000D01*
X57387D01*
Y246647D01*
X57344Y246640D01*
X57232Y246603D01*
X57127Y246548D01*
X57032Y246478D01*
X56949Y246394D01*
X56881Y246298D01*
X56830Y246192D01*
X56682Y245784D01*
X56578Y245363D01*
X56516Y244933D01*
X56495Y244500D01*
X56516Y244067D01*
X56578Y243637D01*
X56682Y243216D01*
X56825Y242806D01*
X56878Y242700D01*
X56947Y242604D01*
X57030Y242519D01*
X57125Y242449D01*
X57231Y242394D01*
X57343Y242357D01*
X57387Y242349D01*
Y239000D01*
X55000D01*
G37*
G36*
X14673Y249000D02*X58000D01*
Y246492D01*
X57913Y246554D01*
X57808Y246607D01*
X57695Y246643D01*
X57579Y246660D01*
X57461Y246659D01*
X57344Y246640D01*
X57232Y246603D01*
X57127Y246548D01*
X57032Y246478D01*
X56949Y246394D01*
X56881Y246298D01*
X56830Y246192D01*
X56682Y245784D01*
X56578Y245363D01*
X56516Y244933D01*
X56495Y244500D01*
X56516Y244067D01*
X56578Y243637D01*
X56682Y243216D01*
X56825Y242806D01*
X56878Y242700D01*
X56947Y242604D01*
X57030Y242519D01*
X57125Y242449D01*
X57231Y242394D01*
X57343Y242357D01*
X57460Y242337D01*
X57579Y242336D01*
X57696Y242354D01*
X57809Y242390D01*
X57915Y242443D01*
X58000Y242504D01*
Y224000D01*
X56000D01*
Y229000D01*
X55972Y229471D01*
X55862Y229930D01*
X55681Y230366D01*
X55435Y230769D01*
X55128Y231128D01*
X54769Y231435D01*
X54366Y231681D01*
X53930Y231862D01*
X53471Y231972D01*
X53000Y232009D01*
X52529Y231972D01*
X52070Y231862D01*
X51634Y231681D01*
X51231Y231435D01*
X50872Y231128D01*
X50565Y230769D01*
X50319Y230366D01*
X50138Y229930D01*
X50028Y229471D01*
X50000Y229000D01*
Y224000D01*
X19455D01*
X19518Y224074D01*
X19578Y224176D01*
X19795Y224645D01*
X19962Y225134D01*
X20082Y225637D01*
X20155Y226149D01*
X20179Y226665D01*
X20155Y227181D01*
X20082Y227693D01*
X19962Y228196D01*
X19795Y228685D01*
X19583Y229157D01*
X19522Y229258D01*
X19445Y229349D01*
X19355Y229426D01*
X19253Y229488D01*
X19144Y229534D01*
X19028Y229562D01*
X18910Y229571D01*
X18792Y229562D01*
X18676Y229535D01*
X18566Y229489D01*
X18465Y229427D01*
X18375Y229351D01*
X18297Y229260D01*
X18235Y229159D01*
X18189Y229050D01*
X18162Y228934D01*
X18152Y228816D01*
X18161Y228697D01*
X18189Y228582D01*
X18236Y228473D01*
X18394Y228133D01*
X18515Y227777D01*
X18603Y227412D01*
X18655Y227040D01*
X18673Y226665D01*
X18655Y226290D01*
X18603Y225918D01*
X18515Y225553D01*
X18394Y225197D01*
X18240Y224855D01*
X18193Y224747D01*
X18166Y224632D01*
X18156Y224514D01*
X18166Y224397D01*
X18194Y224282D01*
X18239Y224173D01*
X18301Y224072D01*
X18363Y224000D01*
X14673D01*
Y230665D01*
X15048Y230647D01*
X15420Y230595D01*
X15785Y230507D01*
X16141Y230386D01*
X16483Y230232D01*
X16591Y230185D01*
X16706Y230158D01*
X16824Y230148D01*
X16941Y230158D01*
X17056Y230186D01*
X17165Y230231D01*
X17266Y230293D01*
X17355Y230370D01*
X17432Y230460D01*
X17493Y230560D01*
X17538Y230669D01*
X17566Y230784D01*
X17575Y230902D01*
X17565Y231020D01*
X17538Y231134D01*
X17492Y231243D01*
X17430Y231344D01*
X17354Y231434D01*
X17264Y231510D01*
X17162Y231570D01*
X16693Y231787D01*
X16204Y231954D01*
X15701Y232074D01*
X15189Y232147D01*
X14673Y232171D01*
Y234952D01*
X18908Y234959D01*
X19138Y235014D01*
X19356Y235104D01*
X19557Y235228D01*
X19737Y235381D01*
X19890Y235561D01*
X20014Y235762D01*
X20104Y235980D01*
X20159Y236210D01*
X20173Y236445D01*
X20159Y244680D01*
X20104Y244910D01*
X20014Y245128D01*
X19890Y245329D01*
X19737Y245509D01*
X19557Y245662D01*
X19356Y245786D01*
X19138Y245876D01*
X18908Y245931D01*
X18673Y245945D01*
X14673Y245938D01*
Y249000D01*
G37*
G36*
X7000Y224000D02*Y249000D01*
X14673D01*
Y245938D01*
X10438Y245931D01*
X10208Y245876D01*
X9990Y245786D01*
X9789Y245662D01*
X9609Y245509D01*
X9456Y245329D01*
X9332Y245128D01*
X9242Y244910D01*
X9187Y244680D01*
X9173Y244445D01*
X9187Y236210D01*
X9242Y235980D01*
X9332Y235762D01*
X9456Y235561D01*
X9609Y235381D01*
X9789Y235228D01*
X9990Y235104D01*
X10208Y235014D01*
X10438Y234959D01*
X10673Y234945D01*
X14673Y234952D01*
Y232171D01*
X14673D01*
X14157Y232147D01*
X13645Y232074D01*
X13142Y231954D01*
X12653Y231787D01*
X12181Y231575D01*
X12080Y231514D01*
X11989Y231437D01*
X11912Y231347D01*
X11850Y231245D01*
X11804Y231136D01*
X11776Y231020D01*
X11767Y230902D01*
X11776Y230784D01*
X11803Y230668D01*
X11849Y230558D01*
X11911Y230457D01*
X11987Y230367D01*
X12078Y230289D01*
X12179Y230227D01*
X12288Y230181D01*
X12404Y230154D01*
X12522Y230144D01*
X12641Y230153D01*
X12756Y230181D01*
X12865Y230228D01*
X13205Y230386D01*
X13561Y230507D01*
X13926Y230595D01*
X14298Y230647D01*
X14673Y230665D01*
Y224000D01*
X10989D01*
X11049Y224070D01*
X11111Y224171D01*
X11157Y224280D01*
X11184Y224396D01*
X11194Y224514D01*
X11185Y224633D01*
X11157Y224748D01*
X11110Y224857D01*
X10952Y225197D01*
X10831Y225553D01*
X10743Y225918D01*
X10691Y226290D01*
X10673Y226665D01*
X10691Y227040D01*
X10743Y227412D01*
X10831Y227777D01*
X10952Y228133D01*
X11106Y228475D01*
X11153Y228583D01*
X11180Y228698D01*
X11190Y228816D01*
X11180Y228933D01*
X11152Y229048D01*
X11107Y229157D01*
X11045Y229258D01*
X10968Y229347D01*
X10878Y229424D01*
X10778Y229485D01*
X10669Y229530D01*
X10554Y229558D01*
X10436Y229567D01*
X10318Y229557D01*
X10204Y229530D01*
X10095Y229484D01*
X9994Y229422D01*
X9904Y229346D01*
X9828Y229256D01*
X9768Y229154D01*
X9551Y228685D01*
X9384Y228196D01*
X9264Y227693D01*
X9191Y227181D01*
X9167Y226665D01*
X9191Y226149D01*
X9264Y225637D01*
X9384Y225134D01*
X9551Y224645D01*
X9763Y224173D01*
X9824Y224072D01*
X9885Y224000D01*
X7000D01*
G37*
G36*
X19166Y233500D02*X22500D01*
Y219000D01*
X19166D01*
Y223810D01*
X19251Y223846D01*
X19352Y223908D01*
X19442Y223984D01*
X19518Y224074D01*
X19578Y224176D01*
X19795Y224645D01*
X19962Y225134D01*
X20082Y225637D01*
X20155Y226149D01*
X20179Y226665D01*
X20155Y227181D01*
X20082Y227693D01*
X19962Y228196D01*
X19795Y228685D01*
X19583Y229157D01*
X19522Y229258D01*
X19445Y229349D01*
X19355Y229426D01*
X19253Y229488D01*
X19166Y229525D01*
Y233500D01*
G37*
G36*
X14675D02*X19166D01*
Y229525D01*
X19144Y229534D01*
X19028Y229562D01*
X18910Y229571D01*
X18792Y229562D01*
X18676Y229535D01*
X18566Y229489D01*
X18465Y229427D01*
X18375Y229351D01*
X18297Y229260D01*
X18235Y229159D01*
X18189Y229050D01*
X18162Y228934D01*
X18152Y228816D01*
X18161Y228697D01*
X18189Y228582D01*
X18236Y228473D01*
X18394Y228133D01*
X18515Y227777D01*
X18603Y227412D01*
X18655Y227040D01*
X18673Y226665D01*
X18655Y226290D01*
X18603Y225918D01*
X18515Y225553D01*
X18394Y225197D01*
X18240Y224855D01*
X18193Y224747D01*
X18166Y224632D01*
X18156Y224514D01*
X18166Y224397D01*
X18194Y224282D01*
X18239Y224173D01*
X18301Y224072D01*
X18378Y223983D01*
X18468Y223906D01*
X18568Y223845D01*
X18677Y223800D01*
X18792Y223772D01*
X18910Y223763D01*
X19028Y223773D01*
X19142Y223800D01*
X19166Y223810D01*
Y219000D01*
X14675D01*
Y221159D01*
X15189Y221183D01*
X15701Y221256D01*
X16204Y221376D01*
X16693Y221543D01*
X17165Y221755D01*
X17266Y221816D01*
X17357Y221893D01*
X17434Y221983D01*
X17496Y222085D01*
X17542Y222194D01*
X17570Y222310D01*
X17579Y222428D01*
X17570Y222546D01*
X17543Y222662D01*
X17497Y222772D01*
X17435Y222873D01*
X17359Y222963D01*
X17268Y223041D01*
X17167Y223103D01*
X17058Y223149D01*
X16942Y223176D01*
X16824Y223186D01*
X16705Y223177D01*
X16590Y223149D01*
X16481Y223102D01*
X16141Y222944D01*
X15785Y222823D01*
X15420Y222735D01*
X15048Y222683D01*
X14675Y222665D01*
Y230665D01*
X15048Y230647D01*
X15420Y230595D01*
X15785Y230507D01*
X16141Y230386D01*
X16483Y230232D01*
X16591Y230185D01*
X16706Y230158D01*
X16824Y230148D01*
X16941Y230158D01*
X17056Y230186D01*
X17165Y230231D01*
X17266Y230293D01*
X17355Y230370D01*
X17432Y230460D01*
X17493Y230560D01*
X17538Y230669D01*
X17566Y230784D01*
X17575Y230902D01*
X17565Y231020D01*
X17538Y231134D01*
X17492Y231243D01*
X17430Y231344D01*
X17354Y231434D01*
X17264Y231510D01*
X17162Y231570D01*
X16693Y231787D01*
X16204Y231954D01*
X15701Y232074D01*
X15189Y232147D01*
X14675Y232171D01*
Y233500D01*
G37*
G36*
X10180D02*X14675D01*
Y232171D01*
X14673Y232171D01*
X14157Y232147D01*
X13645Y232074D01*
X13142Y231954D01*
X12653Y231787D01*
X12181Y231575D01*
X12080Y231514D01*
X11989Y231437D01*
X11912Y231347D01*
X11850Y231245D01*
X11804Y231136D01*
X11776Y231020D01*
X11767Y230902D01*
X11776Y230784D01*
X11803Y230668D01*
X11849Y230558D01*
X11911Y230457D01*
X11987Y230367D01*
X12078Y230289D01*
X12179Y230227D01*
X12288Y230181D01*
X12404Y230154D01*
X12522Y230144D01*
X12641Y230153D01*
X12756Y230181D01*
X12865Y230228D01*
X13205Y230386D01*
X13561Y230507D01*
X13926Y230595D01*
X14298Y230647D01*
X14673Y230665D01*
X14675Y230665D01*
Y222665D01*
X14673Y222665D01*
X14298Y222683D01*
X13926Y222735D01*
X13561Y222823D01*
X13205Y222944D01*
X12863Y223098D01*
X12755Y223145D01*
X12640Y223172D01*
X12522Y223182D01*
X12405Y223172D01*
X12290Y223144D01*
X12181Y223099D01*
X12080Y223037D01*
X11991Y222960D01*
X11914Y222870D01*
X11853Y222770D01*
X11808Y222661D01*
X11780Y222546D01*
X11771Y222428D01*
X11781Y222310D01*
X11808Y222196D01*
X11854Y222087D01*
X11916Y221986D01*
X11992Y221896D01*
X12082Y221820D01*
X12184Y221760D01*
X12653Y221543D01*
X13142Y221376D01*
X13645Y221256D01*
X14157Y221183D01*
X14673Y221159D01*
X14675Y221159D01*
Y219000D01*
X10180D01*
Y223805D01*
X10202Y223796D01*
X10318Y223768D01*
X10436Y223759D01*
X10554Y223768D01*
X10670Y223795D01*
X10780Y223841D01*
X10881Y223903D01*
X10971Y223979D01*
X11049Y224070D01*
X11111Y224171D01*
X11157Y224280D01*
X11184Y224396D01*
X11194Y224514D01*
X11185Y224633D01*
X11157Y224748D01*
X11110Y224857D01*
X10952Y225197D01*
X10831Y225553D01*
X10743Y225918D01*
X10691Y226290D01*
X10673Y226665D01*
X10691Y227040D01*
X10743Y227412D01*
X10831Y227777D01*
X10952Y228133D01*
X11106Y228475D01*
X11153Y228583D01*
X11180Y228698D01*
X11190Y228816D01*
X11180Y228933D01*
X11152Y229048D01*
X11107Y229157D01*
X11045Y229258D01*
X10968Y229347D01*
X10878Y229424D01*
X10778Y229485D01*
X10669Y229530D01*
X10554Y229558D01*
X10436Y229567D01*
X10318Y229557D01*
X10204Y229530D01*
X10180Y229520D01*
Y233500D01*
G37*
G36*
X7000D02*X10180D01*
Y229520D01*
X10095Y229484D01*
X9994Y229422D01*
X9904Y229346D01*
X9828Y229256D01*
X9768Y229154D01*
X9551Y228685D01*
X9384Y228196D01*
X9264Y227693D01*
X9191Y227181D01*
X9167Y226665D01*
X9191Y226149D01*
X9264Y225637D01*
X9384Y225134D01*
X9551Y224645D01*
X9763Y224173D01*
X9824Y224072D01*
X9901Y223981D01*
X9991Y223904D01*
X10093Y223842D01*
X10180Y223805D01*
Y219000D01*
X7000D01*
Y233500D01*
G37*
G36*
X47500Y224000D02*Y232000D01*
X58000D01*
Y224000D01*
X47500D01*
G37*
G36*
X14673Y119000D02*X58000D01*
Y116492D01*
X57913Y116554D01*
X57808Y116607D01*
X57695Y116643D01*
X57579Y116660D01*
X57461Y116659D01*
X57344Y116640D01*
X57232Y116603D01*
X57127Y116548D01*
X57032Y116478D01*
X56949Y116394D01*
X56881Y116298D01*
X56830Y116192D01*
X56682Y115784D01*
X56578Y115363D01*
X56516Y114933D01*
X56495Y114500D01*
X56516Y114067D01*
X56578Y113637D01*
X56682Y113216D01*
X56825Y112806D01*
X56878Y112700D01*
X56947Y112604D01*
X57030Y112519D01*
X57125Y112449D01*
X57231Y112394D01*
X57343Y112357D01*
X57460Y112337D01*
X57579Y112336D01*
X57696Y112354D01*
X57809Y112390D01*
X57915Y112443D01*
X58000Y112504D01*
Y94000D01*
X56000D01*
Y99000D01*
X55972Y99471D01*
X55862Y99930D01*
X55681Y100366D01*
X55435Y100769D01*
X55128Y101128D01*
X54769Y101435D01*
X54366Y101681D01*
X53930Y101862D01*
X53471Y101972D01*
X53000Y102009D01*
X52529Y101972D01*
X52070Y101862D01*
X51634Y101681D01*
X51231Y101435D01*
X50872Y101128D01*
X50565Y100769D01*
X50319Y100366D01*
X50138Y99930D01*
X50028Y99471D01*
X50000Y99000D01*
Y94000D01*
X19455D01*
X19518Y94074D01*
X19578Y94176D01*
X19795Y94645D01*
X19962Y95134D01*
X20082Y95637D01*
X20155Y96149D01*
X20179Y96665D01*
X20155Y97181D01*
X20082Y97693D01*
X19962Y98196D01*
X19795Y98685D01*
X19583Y99157D01*
X19522Y99258D01*
X19445Y99349D01*
X19355Y99426D01*
X19253Y99488D01*
X19144Y99534D01*
X19028Y99562D01*
X18910Y99571D01*
X18792Y99562D01*
X18676Y99535D01*
X18566Y99489D01*
X18465Y99427D01*
X18375Y99351D01*
X18297Y99260D01*
X18235Y99159D01*
X18189Y99050D01*
X18162Y98934D01*
X18152Y98816D01*
X18161Y98697D01*
X18189Y98582D01*
X18236Y98473D01*
X18394Y98133D01*
X18515Y97777D01*
X18603Y97412D01*
X18655Y97040D01*
X18673Y96665D01*
X18655Y96290D01*
X18603Y95918D01*
X18515Y95553D01*
X18394Y95197D01*
X18240Y94855D01*
X18193Y94747D01*
X18166Y94632D01*
X18156Y94514D01*
X18166Y94397D01*
X18194Y94282D01*
X18239Y94173D01*
X18301Y94072D01*
X18363Y94000D01*
X14673D01*
Y100665D01*
X15048Y100647D01*
X15420Y100595D01*
X15785Y100507D01*
X16141Y100386D01*
X16483Y100232D01*
X16591Y100185D01*
X16706Y100158D01*
X16824Y100148D01*
X16941Y100158D01*
X17056Y100186D01*
X17165Y100231D01*
X17266Y100293D01*
X17355Y100370D01*
X17432Y100460D01*
X17493Y100560D01*
X17538Y100669D01*
X17566Y100784D01*
X17575Y100902D01*
X17565Y101020D01*
X17538Y101134D01*
X17492Y101243D01*
X17430Y101344D01*
X17354Y101434D01*
X17264Y101510D01*
X17162Y101570D01*
X16693Y101787D01*
X16204Y101954D01*
X15701Y102074D01*
X15189Y102147D01*
X14673Y102171D01*
Y104952D01*
X18908Y104959D01*
X19138Y105014D01*
X19356Y105104D01*
X19557Y105228D01*
X19737Y105381D01*
X19890Y105561D01*
X20014Y105762D01*
X20104Y105980D01*
X20159Y106210D01*
X20173Y106445D01*
X20159Y114680D01*
X20104Y114910D01*
X20014Y115128D01*
X19890Y115329D01*
X19737Y115509D01*
X19557Y115662D01*
X19356Y115786D01*
X19138Y115876D01*
X18908Y115931D01*
X18673Y115945D01*
X14673Y115938D01*
Y119000D01*
G37*
G36*
X7000Y94000D02*Y119000D01*
X14673D01*
Y115938D01*
X10438Y115931D01*
X10208Y115876D01*
X9990Y115786D01*
X9789Y115662D01*
X9609Y115509D01*
X9456Y115329D01*
X9332Y115128D01*
X9242Y114910D01*
X9187Y114680D01*
X9173Y114445D01*
X9187Y106210D01*
X9242Y105980D01*
X9332Y105762D01*
X9456Y105561D01*
X9609Y105381D01*
X9789Y105228D01*
X9990Y105104D01*
X10208Y105014D01*
X10438Y104959D01*
X10673Y104945D01*
X14673Y104952D01*
Y102171D01*
X14673D01*
X14157Y102147D01*
X13645Y102074D01*
X13142Y101954D01*
X12653Y101787D01*
X12181Y101575D01*
X12080Y101514D01*
X11989Y101437D01*
X11912Y101347D01*
X11850Y101245D01*
X11804Y101136D01*
X11776Y101020D01*
X11767Y100902D01*
X11776Y100784D01*
X11803Y100668D01*
X11849Y100558D01*
X11911Y100457D01*
X11987Y100367D01*
X12078Y100289D01*
X12179Y100227D01*
X12288Y100181D01*
X12404Y100154D01*
X12522Y100144D01*
X12641Y100153D01*
X12756Y100181D01*
X12865Y100228D01*
X13205Y100386D01*
X13561Y100507D01*
X13926Y100595D01*
X14298Y100647D01*
X14673Y100665D01*
Y94000D01*
X10989D01*
X11049Y94070D01*
X11111Y94171D01*
X11157Y94280D01*
X11184Y94396D01*
X11194Y94514D01*
X11185Y94633D01*
X11157Y94748D01*
X11110Y94857D01*
X10952Y95197D01*
X10831Y95553D01*
X10743Y95918D01*
X10691Y96290D01*
X10673Y96665D01*
X10691Y97040D01*
X10743Y97412D01*
X10831Y97777D01*
X10952Y98133D01*
X11106Y98475D01*
X11153Y98583D01*
X11180Y98698D01*
X11190Y98816D01*
X11180Y98933D01*
X11152Y99048D01*
X11107Y99157D01*
X11045Y99258D01*
X10968Y99347D01*
X10878Y99424D01*
X10778Y99485D01*
X10669Y99530D01*
X10554Y99558D01*
X10436Y99567D01*
X10318Y99557D01*
X10204Y99530D01*
X10095Y99484D01*
X9994Y99422D01*
X9904Y99346D01*
X9828Y99256D01*
X9768Y99154D01*
X9551Y98685D01*
X9384Y98196D01*
X9264Y97693D01*
X9191Y97181D01*
X9167Y96665D01*
X9191Y96149D01*
X9264Y95637D01*
X9384Y95134D01*
X9551Y94645D01*
X9763Y94173D01*
X9824Y94072D01*
X9885Y94000D01*
X7000D01*
G37*
G36*
X47500D02*Y102000D01*
X58000D01*
Y94000D01*
X47500D01*
G37*
G36*
X60000Y102500D02*X58000Y100500D01*
X56500D01*
Y110000D01*
X60892D01*
X61000Y109995D01*
X61108Y110000D01*
X66500D01*
Y109743D01*
X62747Y105989D01*
X62529Y105972D01*
X62070Y105862D01*
X61634Y105681D01*
X61231Y105435D01*
X60872Y105128D01*
X60565Y104769D01*
X60319Y104366D01*
X60138Y103930D01*
X60028Y103471D01*
X60000Y103000D01*
Y102500D01*
G37*
G36*
X64613Y119000D02*X66500D01*
Y113676D01*
X66486Y113500D01*
X66500Y113324D01*
Y109743D01*
X65757Y109000D01*
X64613D01*
Y112353D01*
X64656Y112360D01*
X64768Y112397D01*
X64873Y112452D01*
X64968Y112522D01*
X65051Y112606D01*
X65119Y112702D01*
X65170Y112808D01*
X65318Y113216D01*
X65422Y113637D01*
X65484Y114067D01*
X65505Y114500D01*
X65484Y114933D01*
X65422Y115363D01*
X65318Y115784D01*
X65175Y116194D01*
X65122Y116300D01*
X65053Y116396D01*
X64970Y116481D01*
X64875Y116551D01*
X64769Y116606D01*
X64657Y116643D01*
X64613Y116651D01*
Y119000D01*
G37*
G36*
X61002Y117500D02*X61289Y117486D01*
X61575Y117444D01*
X61855Y117376D01*
X62128Y117280D01*
X62239Y117242D01*
X62356Y117225D01*
X62474Y117225D01*
X62591Y117245D01*
X62703Y117282D01*
X62807Y117336D01*
X62902Y117406D01*
X62985Y117491D01*
X63054Y117587D01*
X63107Y117692D01*
X63143Y117805D01*
X63160Y117921D01*
X63159Y118039D01*
X63140Y118156D01*
X63103Y118268D01*
X63048Y118373D01*
X62978Y118468D01*
X62894Y118551D01*
X62798Y118619D01*
X62692Y118670D01*
X62284Y118818D01*
X61863Y118922D01*
X61433Y118984D01*
X61108Y119000D01*
X64613D01*
Y116651D01*
X64540Y116663D01*
X64421Y116664D01*
X64304Y116646D01*
X64191Y116610D01*
X64085Y116557D01*
X63988Y116488D01*
X63904Y116405D01*
X63833Y116309D01*
X63779Y116204D01*
X63741Y116092D01*
X63722Y115975D01*
X63721Y115856D01*
X63739Y115739D01*
X63777Y115626D01*
X63876Y115355D01*
X63944Y115075D01*
X63986Y114789D01*
X64000Y114500D01*
X63986Y114211D01*
X63944Y113925D01*
X63876Y113645D01*
X63780Y113372D01*
X63742Y113261D01*
X63725Y113144D01*
X63725Y113026D01*
X63745Y112909D01*
X63782Y112797D01*
X63836Y112693D01*
X63906Y112598D01*
X63991Y112515D01*
X64087Y112446D01*
X64192Y112393D01*
X64305Y112357D01*
X64421Y112340D01*
X64539Y112341D01*
X64613Y112353D01*
Y109000D01*
X61002D01*
Y109995D01*
X61433Y110016D01*
X61863Y110078D01*
X62284Y110182D01*
X62694Y110325D01*
X62800Y110378D01*
X62896Y110447D01*
X62981Y110530D01*
X63051Y110625D01*
X63106Y110731D01*
X63143Y110843D01*
X63163Y110960D01*
X63164Y111079D01*
X63146Y111196D01*
X63110Y111309D01*
X63057Y111415D01*
X62988Y111512D01*
X62905Y111596D01*
X62809Y111667D01*
X62704Y111721D01*
X62592Y111759D01*
X62475Y111778D01*
X62356Y111779D01*
X62239Y111761D01*
X62126Y111723D01*
X61855Y111624D01*
X61575Y111556D01*
X61289Y111514D01*
X61002Y111500D01*
Y117500D01*
G37*
G36*
X57387Y119000D02*X60892D01*
X60567Y118984D01*
X60137Y118922D01*
X59716Y118818D01*
X59306Y118675D01*
X59200Y118622D01*
X59104Y118553D01*
X59019Y118470D01*
X58949Y118375D01*
X58894Y118269D01*
X58857Y118157D01*
X58837Y118040D01*
X58836Y117921D01*
X58854Y117804D01*
X58890Y117691D01*
X58943Y117585D01*
X59012Y117488D01*
X59095Y117404D01*
X59191Y117333D01*
X59296Y117279D01*
X59408Y117241D01*
X59525Y117222D01*
X59644Y117221D01*
X59761Y117239D01*
X59874Y117277D01*
X60145Y117376D01*
X60425Y117444D01*
X60711Y117486D01*
X61000Y117500D01*
X61002Y117500D01*
Y111500D01*
X61000Y111500D01*
X60711Y111514D01*
X60425Y111556D01*
X60145Y111624D01*
X59872Y111720D01*
X59761Y111758D01*
X59644Y111775D01*
X59526Y111775D01*
X59409Y111755D01*
X59297Y111718D01*
X59193Y111664D01*
X59098Y111594D01*
X59015Y111509D01*
X58946Y111413D01*
X58893Y111308D01*
X58857Y111195D01*
X58840Y111079D01*
X58841Y110961D01*
X58860Y110844D01*
X58897Y110732D01*
X58952Y110627D01*
X59022Y110532D01*
X59106Y110449D01*
X59202Y110381D01*
X59308Y110330D01*
X59716Y110182D01*
X60137Y110078D01*
X60567Y110016D01*
X61000Y109995D01*
X61002Y109995D01*
Y109000D01*
X57387D01*
Y112349D01*
X57460Y112337D01*
X57579Y112336D01*
X57696Y112354D01*
X57809Y112390D01*
X57915Y112443D01*
X58012Y112512D01*
X58096Y112595D01*
X58167Y112691D01*
X58221Y112796D01*
X58259Y112908D01*
X58278Y113025D01*
X58279Y113144D01*
X58261Y113261D01*
X58223Y113374D01*
X58124Y113645D01*
X58056Y113925D01*
X58014Y114211D01*
X58000Y114500D01*
X58014Y114789D01*
X58056Y115075D01*
X58124Y115355D01*
X58220Y115628D01*
X58258Y115739D01*
X58275Y115856D01*
X58275Y115974D01*
X58255Y116091D01*
X58218Y116203D01*
X58164Y116307D01*
X58094Y116402D01*
X58009Y116485D01*
X57913Y116554D01*
X57808Y116607D01*
X57695Y116643D01*
X57579Y116660D01*
X57461Y116659D01*
X57387Y116647D01*
Y119000D01*
G37*
G36*
X55000Y109000D02*Y119000D01*
X57387D01*
Y116647D01*
X57344Y116640D01*
X57232Y116603D01*
X57127Y116548D01*
X57032Y116478D01*
X56949Y116394D01*
X56881Y116298D01*
X56830Y116192D01*
X56682Y115784D01*
X56578Y115363D01*
X56516Y114933D01*
X56495Y114500D01*
X56516Y114067D01*
X56578Y113637D01*
X56682Y113216D01*
X56825Y112806D01*
X56878Y112700D01*
X56947Y112604D01*
X57030Y112519D01*
X57125Y112449D01*
X57231Y112394D01*
X57343Y112357D01*
X57387Y112349D01*
Y109000D01*
X55000D01*
G37*
G36*
X19166Y103500D02*X22500D01*
Y89000D01*
X19166D01*
Y93810D01*
X19251Y93846D01*
X19352Y93908D01*
X19442Y93984D01*
X19518Y94074D01*
X19578Y94176D01*
X19795Y94645D01*
X19962Y95134D01*
X20082Y95637D01*
X20155Y96149D01*
X20179Y96665D01*
X20155Y97181D01*
X20082Y97693D01*
X19962Y98196D01*
X19795Y98685D01*
X19583Y99157D01*
X19522Y99258D01*
X19445Y99349D01*
X19355Y99426D01*
X19253Y99488D01*
X19166Y99525D01*
Y103500D01*
G37*
G36*
X14675D02*X19166D01*
Y99525D01*
X19144Y99534D01*
X19028Y99562D01*
X18910Y99571D01*
X18792Y99562D01*
X18676Y99535D01*
X18566Y99489D01*
X18465Y99427D01*
X18375Y99351D01*
X18297Y99260D01*
X18235Y99159D01*
X18189Y99050D01*
X18162Y98934D01*
X18152Y98816D01*
X18161Y98697D01*
X18189Y98582D01*
X18236Y98473D01*
X18394Y98133D01*
X18515Y97777D01*
X18603Y97412D01*
X18655Y97040D01*
X18673Y96665D01*
X18655Y96290D01*
X18603Y95918D01*
X18515Y95553D01*
X18394Y95197D01*
X18240Y94855D01*
X18193Y94747D01*
X18166Y94632D01*
X18156Y94514D01*
X18166Y94397D01*
X18194Y94282D01*
X18239Y94173D01*
X18301Y94072D01*
X18378Y93983D01*
X18468Y93906D01*
X18568Y93845D01*
X18677Y93800D01*
X18792Y93772D01*
X18910Y93763D01*
X19028Y93773D01*
X19142Y93800D01*
X19166Y93810D01*
Y89000D01*
X14675D01*
Y91159D01*
X15189Y91183D01*
X15701Y91256D01*
X16204Y91376D01*
X16693Y91543D01*
X17165Y91755D01*
X17266Y91816D01*
X17357Y91893D01*
X17434Y91983D01*
X17496Y92085D01*
X17542Y92194D01*
X17570Y92310D01*
X17579Y92428D01*
X17570Y92546D01*
X17543Y92662D01*
X17497Y92772D01*
X17435Y92873D01*
X17359Y92963D01*
X17268Y93041D01*
X17167Y93103D01*
X17058Y93149D01*
X16942Y93176D01*
X16824Y93186D01*
X16705Y93177D01*
X16590Y93149D01*
X16481Y93102D01*
X16141Y92944D01*
X15785Y92823D01*
X15420Y92735D01*
X15048Y92683D01*
X14675Y92665D01*
Y100665D01*
X15048Y100647D01*
X15420Y100595D01*
X15785Y100507D01*
X16141Y100386D01*
X16483Y100232D01*
X16591Y100185D01*
X16706Y100158D01*
X16824Y100148D01*
X16941Y100158D01*
X17056Y100186D01*
X17165Y100231D01*
X17266Y100293D01*
X17355Y100370D01*
X17432Y100460D01*
X17493Y100560D01*
X17538Y100669D01*
X17566Y100784D01*
X17575Y100902D01*
X17565Y101020D01*
X17538Y101134D01*
X17492Y101243D01*
X17430Y101344D01*
X17354Y101434D01*
X17264Y101510D01*
X17162Y101570D01*
X16693Y101787D01*
X16204Y101954D01*
X15701Y102074D01*
X15189Y102147D01*
X14675Y102171D01*
Y103500D01*
G37*
G36*
X10180D02*X14675D01*
Y102171D01*
X14673Y102171D01*
X14157Y102147D01*
X13645Y102074D01*
X13142Y101954D01*
X12653Y101787D01*
X12181Y101575D01*
X12080Y101514D01*
X11989Y101437D01*
X11912Y101347D01*
X11850Y101245D01*
X11804Y101136D01*
X11776Y101020D01*
X11767Y100902D01*
X11776Y100784D01*
X11803Y100668D01*
X11849Y100558D01*
X11911Y100457D01*
X11987Y100367D01*
X12078Y100289D01*
X12179Y100227D01*
X12288Y100181D01*
X12404Y100154D01*
X12522Y100144D01*
X12641Y100153D01*
X12756Y100181D01*
X12865Y100228D01*
X13205Y100386D01*
X13561Y100507D01*
X13926Y100595D01*
X14298Y100647D01*
X14673Y100665D01*
X14675Y100665D01*
Y92665D01*
X14673Y92665D01*
X14298Y92683D01*
X13926Y92735D01*
X13561Y92823D01*
X13205Y92944D01*
X12863Y93098D01*
X12755Y93145D01*
X12640Y93172D01*
X12522Y93182D01*
X12405Y93172D01*
X12290Y93144D01*
X12181Y93099D01*
X12080Y93037D01*
X11991Y92960D01*
X11914Y92870D01*
X11853Y92770D01*
X11808Y92661D01*
X11780Y92546D01*
X11771Y92428D01*
X11781Y92310D01*
X11808Y92196D01*
X11854Y92087D01*
X11916Y91986D01*
X11992Y91896D01*
X12082Y91820D01*
X12184Y91760D01*
X12653Y91543D01*
X13142Y91376D01*
X13645Y91256D01*
X14157Y91183D01*
X14673Y91159D01*
X14675Y91159D01*
Y89000D01*
X10180D01*
Y93805D01*
X10202Y93796D01*
X10318Y93768D01*
X10436Y93759D01*
X10554Y93768D01*
X10670Y93795D01*
X10780Y93841D01*
X10881Y93903D01*
X10971Y93979D01*
X11049Y94070D01*
X11111Y94171D01*
X11157Y94280D01*
X11184Y94396D01*
X11194Y94514D01*
X11185Y94633D01*
X11157Y94748D01*
X11110Y94857D01*
X10952Y95197D01*
X10831Y95553D01*
X10743Y95918D01*
X10691Y96290D01*
X10673Y96665D01*
X10691Y97040D01*
X10743Y97412D01*
X10831Y97777D01*
X10952Y98133D01*
X11106Y98475D01*
X11153Y98583D01*
X11180Y98698D01*
X11190Y98816D01*
X11180Y98933D01*
X11152Y99048D01*
X11107Y99157D01*
X11045Y99258D01*
X10968Y99347D01*
X10878Y99424D01*
X10778Y99485D01*
X10669Y99530D01*
X10554Y99558D01*
X10436Y99567D01*
X10318Y99557D01*
X10204Y99530D01*
X10180Y99520D01*
Y103500D01*
G37*
G36*
X7000D02*X10180D01*
Y99520D01*
X10095Y99484D01*
X9994Y99422D01*
X9904Y99346D01*
X9828Y99256D01*
X9768Y99154D01*
X9551Y98685D01*
X9384Y98196D01*
X9264Y97693D01*
X9191Y97181D01*
X9167Y96665D01*
X9191Y96149D01*
X9264Y95637D01*
X9384Y95134D01*
X9551Y94645D01*
X9763Y94173D01*
X9824Y94072D01*
X9901Y93981D01*
X9991Y93904D01*
X10093Y93842D01*
X10180Y93805D01*
Y89000D01*
X7000D01*
Y103500D01*
G37*
G54D33*X53000Y474000D02*Y489000D01*
X63000Y492000D02*Y474000D01*
G54D34*X70000Y494000D02*Y488000D01*
X73500Y484500D01*
X75500Y499500D02*X70000Y494000D01*
G54D33*X71000Y502500D02*Y500000D01*
X63000Y492000D01*
G54D34*X73500Y492500D02*X78000Y497000D01*
G54D33*X63000Y465000D02*X71000Y457000D01*
X63000Y493000D02*Y465000D01*
X71000Y457000D02*X78000D01*
G54D34*X90000Y488000D02*X94000D01*
X97500Y493000D02*X90500D01*
G54D35*X48000Y433000D02*X51500Y436500D01*
G54D33*X37000Y404787D02*X37114Y404673D01*
G54D35*X47000Y415000D02*X38000Y424000D01*
Y436500D01*
X48000Y427000D02*Y433000D01*
X38000Y436500D02*X31500Y443000D01*
X22000D02*X8000Y457000D01*
X31500Y443000D02*X22000D01*
X26287Y415500D02*X37114Y404673D01*
X13000Y415500D02*X26287D01*
X8000Y420500D02*X13000Y415500D01*
X8000Y427000D02*Y420500D01*
X51500Y436500D02*X91000D01*
X83000Y395500D02*X53500D01*
X86614Y404673D02*Y399114D01*
X53500Y395500D02*X47000Y402000D01*
Y415000D01*
X91500Y457000D02*Y427000D01*
G54D36*X91700D01*
G54D33*X98700Y420000D01*
G54D34*X132000Y481500D02*X146000Y495500D01*
X159500D01*
X109500Y463000D02*X103000Y469500D01*
X113500Y463000D02*X109500D01*
X121000Y455500D02*X113500Y463000D01*
X95000Y469500D02*X105500Y459000D01*
G54D37*X130500Y477000D02*X97000D01*
G54D34*X113500Y495500D02*Y490500D01*
X100500Y481500D02*X132000D01*
X124000Y485000D02*X105500D01*
X97500Y493000D01*
G54D35*X86614Y399114D02*X83000Y395500D01*
G54D33*X78000Y427000D02*Y419500D01*
X84000Y413500D01*
X98500D02*X104000Y408000D01*
Y400000D01*
X84000Y413500D02*X98500D01*
X118000Y433500D02*Y424500D01*
G54D34*X132000Y415000D02*X124500Y422500D01*
X122000Y435000D02*Y417500D01*
G54D33*X109000Y433500D02*X118000D01*
G54D34*X124500Y422500D02*Y438500D01*
X121000Y455500D02*Y436000D01*
X122000Y435000D01*
X105500Y459000D02*Y445500D01*
X112500Y438500D01*
G54D33*X98500Y444000D02*X109000Y433500D01*
G54D34*X132000Y405500D02*Y415000D01*
X122000Y417500D02*X109500Y405000D01*
G54D33*X111500Y415000D02*Y420000D01*
X105500D01*
G54D37*X94500Y480000D02*X82000D01*
G54D34*X94000Y488000D02*X100500Y481500D01*
G54D37*X97000Y477000D02*X94500Y480000D01*
G54D34*X93000Y469500D02*X95000D01*
G54D33*X94500Y463500D02*X89000D01*
X83000Y469500D01*
G54D34*X114000Y501500D02*X111000Y504500D01*
X81000D02*X111000D01*
X75500Y499500D02*X109500D01*
X78000Y497000D02*X106000D01*
X109500Y499500D02*X113500Y495500D01*
X106000Y497000D02*X109000Y494000D01*
G54D33*X98500Y459500D02*X94500Y463500D01*
X98500Y444000D02*Y459500D01*
G54D34*X81000Y374500D02*X111000D01*
X114000Y371500D02*X111000Y374500D01*
X75500Y369500D02*X109500D01*
G54D33*X118000Y303500D02*Y294500D01*
G54D34*X132000Y275500D02*Y285000D01*
X124500Y292500D01*
Y308500D01*
X122000Y305000D02*Y287500D01*
X121000Y306000D02*X122000Y305000D01*
X132000Y351500D02*X146000Y365500D01*
X159500D01*
X109500Y369500D02*X113500Y365500D01*
Y360500D01*
G54D33*X78000Y297000D02*Y289500D01*
X84000Y283500D01*
X98500D02*X104000Y278000D01*
G54D35*X86614Y269114D02*X83000Y265500D01*
G54D33*X104000Y278000D02*Y270000D01*
G54D34*X105500Y315500D02*X112500Y308500D01*
X121000Y325500D02*Y306000D01*
G54D33*X98500Y314000D02*X109000Y303500D01*
X118000D01*
G54D34*X122000Y287500D02*X109500Y275000D01*
G54D33*X111500Y285000D02*Y290000D01*
X105500D01*
G54D34*X109500Y333000D02*X103000Y339500D01*
X113500Y333000D02*X109500D01*
X121000Y325500D02*X113500Y333000D01*
X105500Y329000D02*Y315500D01*
X78000Y367000D02*X106000D01*
X109000Y364000D01*
X94000Y358000D02*X100500Y351500D01*
X105500Y355000D02*X97500Y363000D01*
G54D37*X130500Y347000D02*X97000D01*
G54D34*X95000Y339500D02*X105500Y329000D01*
X100500Y351500D02*X132000D01*
X124000Y355000D02*X105500D01*
G54D33*X53000Y344000D02*Y359000D01*
G54D34*X70000Y364000D02*Y358000D01*
X75500Y369500D02*X70000Y364000D01*
G54D33*X71000Y372500D02*Y370000D01*
X63000Y362000D01*
G54D34*X70000Y358000D02*X73500Y354500D01*
X90000Y358000D02*X94000D01*
G54D33*X63000Y362000D02*Y344000D01*
Y335000D02*X71000Y327000D01*
X63000Y363000D02*Y335000D01*
G54D37*X94500Y350000D02*X82000D01*
X97000Y347000D02*X94500Y350000D01*
G54D33*X98500Y329500D02*X94500Y333500D01*
G54D34*X93000Y339500D02*X95000D01*
G54D33*X94500Y333500D02*X89000D01*
X83000Y339500D01*
G54D34*X73500Y362500D02*X78000Y367000D01*
X97500Y363000D02*X90500D01*
G54D35*X48000Y303000D02*X51500Y306500D01*
X47000Y285000D02*X38000Y294000D01*
Y306500D01*
X48000Y297000D02*Y303000D01*
X47000Y272000D02*Y285000D01*
X38000Y306500D02*X31500Y313000D01*
X22000D02*X8000Y327000D01*
X31500Y313000D02*X22000D01*
X51500Y306500D02*X91000D01*
G54D33*X71000Y327000D02*X78000D01*
X37000Y274787D02*X37114Y274673D01*
G54D35*X26287Y285500D02*X37114Y274673D01*
X13000Y285500D02*X26287D01*
X8000Y290500D02*X13000Y285500D01*
X8000Y297000D02*Y290500D01*
G54D33*X98500Y314000D02*Y329500D01*
G54D35*X91500Y327000D02*Y297000D01*
G54D36*X91700D01*
G54D33*X98700Y290000D01*
G54D35*X83000Y265500D02*X53500D01*
X47000Y272000D01*
G54D33*X84000Y283500D02*X98500D01*
G54D35*X86614Y274673D02*Y269114D01*
X51500Y696500D02*X91000D01*
X83000Y655500D02*X53500D01*
X86614Y664673D02*Y659114D01*
X53500Y655500D02*X47000Y662000D01*
Y675000D01*
G54D34*X70000Y624000D02*Y618000D01*
X75500Y629500D02*X70000Y624000D01*
G54D33*X71000Y632500D02*Y630000D01*
X63000Y622000D01*
G54D34*X73500Y622500D02*X78000Y627000D01*
X90000Y618000D02*X94000D01*
G54D35*X48000Y693000D02*X51500Y696500D01*
G54D33*X37000Y664787D02*X37114Y664673D01*
G54D35*X47000Y675000D02*X38000Y684000D01*
Y696500D01*
X48000Y687000D02*Y693000D01*
X38000Y696500D02*X31500Y703000D01*
X22000D02*X8000Y717000D01*
X31500Y703000D02*X22000D01*
X26287Y675500D02*X37114Y664673D01*
X13000Y675500D02*X26287D01*
X8000Y680500D02*X13000Y675500D01*
X8000Y687000D02*Y680500D01*
X86614Y659114D02*X83000Y655500D01*
G54D33*X78000Y687000D02*Y679500D01*
X84000Y673500D01*
X98500D02*X104000Y668000D01*
Y660000D01*
X84000Y673500D02*X98500D01*
G54D37*X97000Y607000D02*X94500Y610000D01*
G54D34*X94000Y618000D02*X100500Y611500D01*
X105500Y615000D02*X97500Y623000D01*
X90500D01*
X81000Y634500D02*X111000D01*
X114000Y631500D02*X111000Y634500D01*
X109500Y629500D02*X113500Y625500D01*
Y620500D01*
X106000Y627000D02*X109000Y624000D01*
X75500Y629500D02*X109500D01*
X78000Y627000D02*X106000D01*
X132000Y741500D02*X146000Y755500D01*
X159500D01*
G54D33*X98500Y719500D02*X94500Y723500D01*
G54D34*X121000Y715500D02*X113500Y723000D01*
X93000Y729500D02*X95000D01*
X109500Y723000D02*X103000Y729500D01*
X113500Y723000D02*X109500D01*
X95000Y729500D02*X105500Y719000D01*
X94000Y748000D02*X100500Y741500D01*
G54D37*X130500Y737000D02*X97000D01*
G54D34*X113500Y755500D02*Y750500D01*
X100500Y741500D02*X132000D01*
X124000Y745000D02*X105500D01*
X97500Y753000D01*
G54D33*X118000Y693500D02*Y684500D01*
G54D34*X132000Y675000D02*X124500Y682500D01*
X122000Y695000D02*Y677500D01*
G54D33*X109000Y693500D02*X118000D01*
G54D34*X124500Y682500D02*Y698500D01*
X121000Y715500D02*Y696000D01*
X122000Y695000D01*
X105500Y719000D02*Y705500D01*
X112500Y698500D01*
G54D33*X98500Y704000D02*Y719500D01*
Y704000D02*X109000Y693500D01*
G54D34*X132000Y665500D02*Y675000D01*
X122000Y677500D02*X109500Y665000D01*
G54D33*X111500Y675000D02*Y680000D01*
X105500D01*
G54D34*X70000Y754000D02*Y748000D01*
X73500Y744500D01*
X75500Y759500D02*X70000Y754000D01*
G54D33*X71000Y762500D02*Y760000D01*
X63000Y752000D01*
X53000Y734000D02*Y749000D01*
X63000Y752000D02*Y734000D01*
G54D37*X94500Y740000D02*X82000D01*
G54D34*X90000Y748000D02*X94000D01*
G54D33*X63000Y725000D02*X71000Y717000D01*
X63000Y753000D02*Y725000D01*
X71000Y717000D02*X78000D01*
G54D34*X73500Y752500D02*X78000Y757000D01*
X81000Y764500D02*X111000D01*
X75500Y759500D02*X109500D01*
X78000Y757000D02*X106000D01*
X97500Y753000D02*X90500D01*
G54D37*X97000Y737000D02*X94500Y740000D01*
G54D33*Y723500D02*X89000D01*
X83000Y729500D01*
G54D35*X91500Y717000D02*Y687000D01*
G54D36*X91700D01*
G54D33*X98700Y680000D01*
G54D34*X114000Y761500D02*X111000Y764500D01*
X109500Y759500D02*X113500Y755500D01*
X106000Y757000D02*X109000Y754000D01*
G54D33*X118000Y563500D02*Y554500D01*
G54D34*X132000Y535500D02*Y545000D01*
X124500Y552500D01*
X122000Y565000D02*Y547500D01*
G54D33*X78000Y557000D02*Y549500D01*
X84000Y543500D01*
G54D36*X91500Y557000D02*X91700D01*
G54D33*X98700Y550000D01*
G54D34*X124500Y552500D02*Y568500D01*
X122000Y547500D02*X109500Y535000D01*
G54D33*X111500Y545000D02*Y550000D01*
X105500D01*
X98500Y543500D02*X104000Y538000D01*
G54D35*X86614Y529114D02*X83000Y525500D01*
G54D33*X104000Y538000D02*Y530000D01*
X84000Y543500D02*X98500D01*
G54D35*X86614Y534673D02*Y529114D01*
G54D34*X121000Y566000D02*X122000Y565000D01*
G54D33*X109000Y563500D02*X118000D01*
X53000Y604000D02*Y619000D01*
G54D34*X70000Y618000D02*X73500Y614500D01*
G54D33*X63000Y622000D02*Y604000D01*
Y595000D02*X71000Y587000D01*
X63000Y623000D02*Y595000D01*
X71000Y587000D02*X78000D01*
G54D35*X38000Y566500D02*X31500Y573000D01*
X22000D02*X8000Y587000D01*
X31500Y573000D02*X22000D01*
X48000Y563000D02*X51500Y566500D01*
X47000Y545000D02*X38000Y554000D01*
Y566500D01*
X51500D02*X91000D01*
X48000Y557000D02*Y563000D01*
X26287Y545500D02*X37114Y534673D01*
X13000Y545500D02*X26287D01*
X8000Y550500D02*X13000Y545500D01*
G54D33*X37000Y534787D02*X37114Y534673D01*
G54D35*X83000Y525500D02*X53500D01*
X47000Y532000D01*
Y545000D01*
X8000Y557000D02*Y550500D01*
G54D37*X94500Y610000D02*X82000D01*
X130500Y607000D02*X97000D01*
G54D34*X132000Y611500D02*X146000Y625500D01*
X159500D01*
X100500Y611500D02*X132000D01*
X124000Y615000D02*X105500D01*
G54D33*X98500Y589500D02*X94500Y593500D01*
G54D34*X93000Y599500D02*X95000D01*
X109500Y593000D02*X103000Y599500D01*
G54D33*X94500Y593500D02*X89000D01*
G54D34*X95000Y599500D02*X105500Y589000D01*
X113500Y593000D02*X109500D01*
X121000Y585500D02*X113500Y593000D01*
X105500Y589000D02*Y575500D01*
G54D33*X98500Y574000D02*Y589500D01*
G54D34*X121000Y585500D02*Y566000D01*
G54D33*X98500Y574000D02*X109000Y563500D01*
G54D34*X105500Y575500D02*X112500Y568500D01*
G54D33*X89000Y593500D02*X83000Y599500D01*
G54D35*X91500Y587000D02*Y557000D01*
G54D33*X118000Y173500D02*Y164500D01*
X109000Y173500D02*X118000D01*
G54D34*X132000Y145500D02*Y155000D01*
X124500Y162500D01*
Y178500D01*
X122000Y157500D02*X109500Y145000D01*
G54D33*X111500Y155000D02*Y160000D01*
X105500D01*
X78000Y167000D02*Y159500D01*
X84000Y153500D01*
G54D36*X91500Y167000D02*X91700D01*
G54D33*X98700Y160000D01*
X98500Y153500D02*X104000Y148000D01*
G54D35*X86614Y139114D02*X83000Y135500D01*
G54D33*X104000Y148000D02*Y140000D01*
X84000Y153500D02*X98500D01*
G54D35*X86614Y144673D02*Y139114D01*
G54D34*X122000Y175000D02*Y157500D01*
X121000Y176000D02*X122000Y175000D01*
X109500Y203000D02*X103000Y209500D01*
X113500Y203000D02*X109500D01*
X121000Y195500D02*X113500Y203000D01*
X105500Y199000D02*Y185500D01*
X121000Y195500D02*Y176000D01*
X93000Y209500D02*X95000D01*
G54D33*X94500Y203500D02*X89000D01*
X83000Y209500D01*
X98500Y184000D02*Y199500D01*
G54D35*X91500Y197000D02*Y167000D01*
G54D34*X95000Y209500D02*X105500Y199000D01*
Y185500D02*X112500Y178500D01*
G54D33*X98500Y184000D02*X109000Y173500D01*
G54D34*X132000Y221500D02*X146000Y235500D01*
X159500D01*
X100500Y221500D02*X132000D01*
X105500Y225000D02*X97500Y233000D01*
G54D37*X130500Y217000D02*X97000D01*
G54D34*X90000Y228000D02*X94000D01*
X100500Y221500D01*
X81000Y244500D02*X111000D01*
X114000Y241500D02*X111000Y244500D01*
X75500Y239500D02*X109500D01*
X78000Y237000D02*X106000D01*
X109500Y239500D02*X113500Y235500D01*
Y230500D01*
X106000Y237000D02*X109000Y234000D01*
X124000Y225000D02*X105500D01*
G54D33*X53000Y214000D02*Y229000D01*
X63000Y232000D02*Y214000D01*
G54D35*X22000Y183000D02*X8000Y197000D01*
G54D33*X71000Y240000D02*X63000Y232000D01*
Y205000D02*X71000Y197000D01*
X63000Y233000D02*Y205000D01*
G54D35*X38000Y176500D02*X31500Y183000D01*
X22000D01*
X13000Y155500D02*X26287D01*
X8000Y160500D02*X13000Y155500D01*
X8000Y167000D02*Y160500D01*
X26287Y155500D02*X37114Y144673D01*
X48000Y173000D02*X51500Y176500D01*
X38000Y164000D02*Y176500D01*
X48000Y167000D02*Y173000D01*
G54D33*X37000Y144787D02*X37114Y144673D01*
G54D35*X47000Y155000D02*X38000Y164000D01*
X53500Y135500D02*X47000Y142000D01*
Y155000D01*
G54D33*X71000Y242500D02*Y240000D01*
G54D37*X94500Y220000D02*X82000D01*
X97000Y217000D02*X94500Y220000D01*
G54D33*X98500Y199500D02*X94500Y203500D01*
G54D35*X51500Y176500D02*X91000D01*
G54D33*X71000Y197000D02*X78000D01*
G54D34*X70000Y234000D02*Y228000D01*
X73500Y224500D01*
X75500Y239500D02*X70000Y234000D01*
X73500Y232500D02*X78000Y237000D01*
X97500Y233000D02*X90500D01*
G54D35*X83000Y135500D02*X53500D01*
G54D33*X53000Y84000D02*Y99000D01*
X63000Y102000D02*Y84000D01*
G54D34*X70000Y104000D02*Y98000D01*
X73500Y94500D01*
X75500Y109500D02*X70000Y104000D01*
G54D33*X71000Y112500D02*Y110000D01*
X63000Y102000D01*
Y75000D02*X71000Y67000D01*
X63000Y103000D02*Y75000D01*
G54D34*X73500Y102500D02*X78000Y107000D01*
X90000Y98000D02*X94000D01*
X97500Y103000D02*X90500D01*
G54D35*X48000Y43000D02*X51500Y46500D01*
X47000Y25000D02*X38000Y34000D01*
Y46500D01*
X48000Y37000D02*Y43000D01*
X38000Y46500D02*X31500Y53000D01*
X22000D02*X8000Y67000D01*
X31500Y53000D02*X22000D01*
X51500Y46500D02*X91000D01*
G54D33*X71000Y67000D02*X78000D01*
G54D36*X91500Y37000D02*X91700D01*
G54D33*X37000Y14787D02*X37114Y14673D01*
G54D35*X26287Y25500D02*X37114Y14673D01*
X13000Y25500D02*X26287D01*
X8000Y30500D02*X13000Y25500D01*
X8000Y37000D02*Y30500D01*
X83000Y5500D02*X53500D01*
X47000Y12000D01*
Y25000D01*
G54D33*X118000Y43500D02*Y34500D01*
G54D34*X132000Y15500D02*Y25000D01*
X124500Y32500D01*
X122000Y27500D02*X109500Y15000D01*
X122000Y45000D02*Y27500D01*
G54D33*X111500Y25000D02*Y30000D01*
G54D34*X124500Y32500D02*Y48500D01*
X121000Y46000D02*X122000Y45000D01*
G54D33*X111500Y30000D02*X105500D01*
X78000Y37000D02*Y29500D01*
X84000Y23500D01*
X98500D02*X104000Y18000D01*
G54D35*X86614Y9114D02*X83000Y5500D01*
G54D33*X104000Y18000D02*Y10000D01*
X84000Y23500D02*X98500D01*
G54D35*X86614Y14673D02*Y9114D01*
G54D33*X91700Y37000D02*X98700Y30000D01*
G54D37*X94500Y90000D02*X82000D01*
X97000Y87000D02*X94500Y90000D01*
G54D34*X94000Y98000D02*X100500Y91500D01*
G54D33*X98500Y69500D02*X94500Y73500D01*
X89000D01*
X98500Y54000D02*Y69500D01*
G54D34*X93000Y79500D02*X95000D01*
X109500Y73000D02*X103000Y79500D01*
X113500Y73000D02*X109500D01*
G54D33*X89000Y73500D02*X83000Y79500D01*
G54D34*X95000D02*X105500Y69000D01*
X75500Y109500D02*X109500D01*
X78000Y107000D02*X106000D01*
X81000Y114500D02*X111000D01*
X114000Y111500D02*X111000Y114500D01*
X109500Y109500D02*X113500Y105500D01*
Y100500D01*
X106000Y107000D02*X109000Y104000D01*
X105500Y95000D02*X97500Y103000D01*
G54D35*X91500Y67000D02*Y37000D01*
G54D34*X121000Y65500D02*X113500Y73000D01*
X105500Y69000D02*Y55500D01*
X112500Y48500D01*
X121000Y65500D02*Y46000D01*
G54D33*X109000Y43500D02*X118000D01*
X98500Y54000D02*X109000Y43500D01*
G54D37*X130500Y87000D02*X97000D01*
G54D34*X132000Y91500D02*X146000Y105500D01*
X159500D01*
X100500Y91500D02*X132000D01*
X124000Y95000D02*X105500D01*
G54D38*X91500Y557000D03*
X111500D03*
X78000D03*
G54D32*G36*
Y507500D02*Y501500D01*
X84000D01*
Y507500D01*
X78000D01*
G37*
G54D36*X71000Y503500D03*
X61000Y504500D03*
G54D39*X153000Y536000D03*
G54D38*X131500Y557000D03*
X161500D03*
G54D39*X153000Y479000D03*
G54D32*G36*
X130000Y472500D02*Y466500D01*
X136000D01*
Y472500D01*
X130000D01*
G37*
G54D36*X123000Y469500D03*
G54D32*G36*
X158100Y460400D02*Y453600D01*
X164900D01*
Y460400D01*
X158100D01*
G37*
G54D38*X131500Y457000D03*
G54D32*G36*
X55055Y668673D02*Y660673D01*
X63055D01*
Y668673D01*
X55055D01*
G37*
G54D40*X72835Y664673D03*
X86614D03*
G54D38*X91500Y687000D03*
X78000D03*
X111500D03*
G54D36*X113000Y599500D03*
X103000D03*
X93000D03*
G54D40*X86614Y534673D03*
G54D36*X83000Y599500D03*
G54D32*G36*
X78000Y637500D02*Y631500D01*
X84000D01*
Y637500D01*
X78000D01*
G37*
G54D36*X71000Y633500D03*
X61000Y634500D03*
G54D38*X111500Y587000D03*
X91500D03*
G54D32*G36*
X74600Y590400D02*Y583600D01*
X81400D01*
Y590400D01*
X74600D01*
G37*
G54D39*X153000Y666000D03*
Y739000D03*
G54D32*G36*
X158100Y720400D02*Y713600D01*
X164900D01*
Y720400D01*
X158100D01*
G37*
G54D38*X161500Y687000D03*
G54D32*G36*
X130000Y732500D02*Y726500D01*
X136000D01*
Y732500D01*
X130000D01*
G37*
G54D38*X131500Y717000D03*
G54D36*X123000Y729500D03*
G54D38*X131500Y687000D03*
G54D39*X153000Y609000D03*
G54D32*G36*
X130000Y602500D02*Y596500D01*
X136000D01*
Y602500D01*
X130000D01*
G37*
G54D36*X123000Y599500D03*
G54D32*G36*
X158100Y590400D02*Y583600D01*
X164900D01*
Y590400D01*
X158100D01*
G37*
G54D38*X131500Y587000D03*
G54D32*G36*
X39063Y737937D02*Y730063D01*
X46937D01*
Y737937D01*
X39063D01*
G37*
G36*
X10673Y764445D02*Y756445D01*
X18673D01*
Y764445D01*
X10673D01*
G37*
G54D40*X14673Y746665D03*
Y732886D03*
G54D36*X113000Y729500D03*
X103000D03*
X93000D03*
G54D38*X111500Y717000D03*
X91500D03*
G54D41*X63000Y734000D03*
X53000D03*
G54D36*X83000Y729500D03*
G54D38*X48000Y717000D03*
X28000D03*
X8000D03*
G54D32*G36*
X74600Y720400D02*Y713600D01*
X81400D01*
Y720400D01*
X74600D01*
G37*
G36*
X78000Y767500D02*Y761500D01*
X84000D01*
Y767500D01*
X78000D01*
G37*
G54D36*X71000Y763500D03*
X61000Y764500D03*
G54D32*G36*
X5555Y668673D02*Y660673D01*
X13555D01*
Y668673D01*
X5555D01*
G37*
G54D38*X8000Y687000D03*
X28000D03*
G54D32*G36*
X55055Y538673D02*Y530673D01*
X63055D01*
Y538673D01*
X55055D01*
G37*
G54D41*X63000Y604000D03*
X53000D03*
G54D32*G36*
X39063Y607937D02*Y600063D01*
X46937D01*
Y607937D01*
X39063D01*
G37*
G54D38*X48000Y587000D03*
Y557000D03*
G54D40*X72835Y534673D03*
G54D32*G36*
X5555Y538673D02*Y530673D01*
X13555D01*
Y538673D01*
X5555D01*
G37*
G54D40*X23335Y534673D03*
X37114D03*
X23335Y664673D03*
X37114D03*
G54D38*X48000Y687000D03*
G54D32*G36*
X10673Y634445D02*Y626445D01*
X18673D01*
Y634445D01*
X10673D01*
G37*
G54D40*X14673Y616665D03*
G54D32*G36*
X10673Y504445D02*Y496445D01*
X18673D01*
Y504445D01*
X10673D01*
G37*
G54D40*X14673Y486665D03*
Y472886D03*
Y602886D03*
G54D38*X28000Y587000D03*
X8000D03*
Y557000D03*
X28000D03*
G54D32*G36*
X55055Y408673D02*Y400673D01*
X63055D01*
Y408673D01*
X55055D01*
G37*
G54D40*X72835Y404673D03*
X37114D03*
X86614D03*
G54D38*X91500Y427000D03*
X111500D03*
G54D36*X113000Y469500D03*
X103000D03*
X93000D03*
G54D38*X111500Y457000D03*
X91500D03*
G54D32*G36*
X74600Y460400D02*Y453600D01*
X81400D01*
Y460400D01*
X74600D01*
G37*
G54D38*X48000Y427000D03*
X78000D03*
G54D41*X63000Y474000D03*
G54D36*X83000Y469500D03*
G54D41*X53000Y474000D03*
G54D38*X48000Y457000D03*
X28000D03*
X8000D03*
G54D32*G36*
X39063Y477937D02*Y470063D01*
X46937D01*
Y477937D01*
X39063D01*
G37*
G36*
X5555Y408673D02*Y400673D01*
X13555D01*
Y408673D01*
X5555D01*
G37*
G54D40*X23335Y404673D03*
G54D38*X8000Y427000D03*
X28000D03*
G54D32*G36*
X10673Y374445D02*Y366445D01*
X18673D01*
Y374445D01*
X10673D01*
G37*
G54D40*X14673Y356665D03*
Y342886D03*
G54D36*X93000Y339500D03*
X83000D03*
G54D38*X91500Y327000D03*
G54D32*G36*
X74600Y330400D02*Y323600D01*
X81400D01*
Y330400D01*
X74600D01*
G37*
G36*
X78000Y377500D02*Y371500D01*
X84000D01*
Y377500D01*
X78000D01*
G37*
G54D36*X71000Y373500D03*
X61000Y374500D03*
G54D32*G36*
X55055Y278673D02*Y270673D01*
X63055D01*
Y278673D01*
X55055D01*
G37*
G54D41*X63000Y344000D03*
X53000D03*
G54D32*G36*
X39063Y347937D02*Y340063D01*
X46937D01*
Y347937D01*
X39063D01*
G37*
G54D38*X48000Y327000D03*
Y297000D03*
G54D40*X72835Y274673D03*
X86614D03*
G54D38*X91500Y297000D03*
X78000D03*
G54D32*G36*
X5555Y278673D02*Y270673D01*
X13555D01*
Y278673D01*
X5555D01*
G37*
G54D38*X8000Y297000D03*
G54D40*X23335Y274673D03*
G54D38*X28000Y297000D03*
G54D40*X37114Y274673D03*
G54D38*X28000Y327000D03*
X8000D03*
G54D39*X153000Y406000D03*
G54D38*X131500Y427000D03*
X161500D03*
G54D39*X153000Y349000D03*
G54D32*G36*
X158100Y330400D02*Y323600D01*
X164900D01*
Y330400D01*
X158100D01*
G37*
G54D38*X131500Y327000D03*
G54D32*G36*
X130000Y342500D02*Y336500D01*
X136000D01*
Y342500D01*
X130000D01*
G37*
G54D36*X123000Y339500D03*
X113000D03*
X103000D03*
G54D39*X153000Y276000D03*
G54D38*X111500Y327000D03*
Y297000D03*
X131500D03*
X161500D03*
G54D39*X153000Y219000D03*
G54D32*G36*
X158100Y200400D02*Y193600D01*
X164900D01*
Y200400D01*
X158100D01*
G37*
G36*
X130000Y212500D02*Y206500D01*
X136000D01*
Y212500D01*
X130000D01*
G37*
G54D36*X123000Y209500D03*
X113000D03*
X103000D03*
G54D38*X131500Y197000D03*
X111500D03*
G54D41*X53000Y214000D03*
G54D38*X48000Y197000D03*
X28000D03*
G54D36*X83000Y209500D03*
G54D32*G36*
X74600Y200400D02*Y193600D01*
X81400D01*
Y200400D01*
X74600D01*
G37*
G36*
X78000Y247500D02*Y241500D01*
X84000D01*
Y247500D01*
X78000D01*
G37*
G54D36*X71000Y243500D03*
G54D32*G36*
X10673Y244445D02*Y236445D01*
X18673D01*
Y244445D01*
X10673D01*
G37*
G54D40*X14673Y226665D03*
Y212886D03*
G54D38*X8000Y197000D03*
G54D32*G36*
X55055Y148673D02*Y140673D01*
X63055D01*
Y148673D01*
X55055D01*
G37*
G36*
X5555D02*Y140673D01*
X13555D01*
Y148673D01*
X5555D01*
G37*
G54D40*X23335Y144673D03*
X37114D03*
X72835D03*
X86614D03*
G54D39*X153000Y146000D03*
G54D38*X91500Y167000D03*
X8000D03*
X28000D03*
X48000D03*
X78000D03*
X111500D03*
X131500D03*
X161500D03*
G54D41*X63000Y214000D03*
G54D36*X61000Y244500D03*
G54D32*G36*
X39063Y217937D02*Y210063D01*
X46937D01*
Y217937D01*
X39063D01*
G37*
G36*
Y87937D02*Y80063D01*
X46937D01*
Y87937D01*
X39063D01*
G37*
G54D38*X48000Y67000D03*
G54D36*X93000Y209500D03*
G54D38*X91500Y197000D03*
G54D32*G36*
X78000Y117500D02*Y111500D01*
X84000D01*
Y117500D01*
X78000D01*
G37*
G36*
X55055Y18673D02*Y10673D01*
X63055D01*
Y18673D01*
X55055D01*
G37*
G54D40*X72835Y14673D03*
G54D41*X63000Y84000D03*
X53000D03*
G54D36*X71000Y113500D03*
X61000Y114500D03*
G54D39*X153000Y16000D03*
Y89000D03*
G54D32*G36*
X158100Y70400D02*Y63600D01*
X164900D01*
Y70400D01*
X158100D01*
G37*
G36*
X130000Y82500D02*Y76500D01*
X136000D01*
Y82500D01*
X130000D01*
G37*
G54D36*X123000Y79500D03*
X113000D03*
X103000D03*
G54D38*X131500Y67000D03*
X111500D03*
Y37000D03*
X131500D03*
X161500D03*
G54D32*G36*
X10673Y114445D02*Y106445D01*
X18673D01*
Y114445D01*
X10673D01*
G37*
G54D40*X14673Y96665D03*
Y82886D03*
G54D38*X28000Y67000D03*
X8000D03*
G54D40*X86614Y14673D03*
G54D38*X91500Y37000D03*
X78000D03*
G54D32*G36*
X5555Y18673D02*Y10673D01*
X13555D01*
Y18673D01*
X5555D01*
G37*
G54D40*X23335Y14673D03*
X37114D03*
G54D38*X8000Y37000D03*
X28000D03*
X48000D03*
G54D36*X93000Y79500D03*
X83000D03*
G54D38*X91500Y67000D03*
G54D32*G36*
X74600Y70400D02*Y63600D01*
X81400D01*
Y70400D01*
X74600D01*
G37*
G54D41*X53000Y607937D02*Y600063D01*
X43000Y607937D02*Y600063D01*
X63000Y607937D02*Y600063D01*
G54D36*X98700Y680000D03*
G54D42*X100200Y681500D02*Y678500D01*
G54D36*X105500Y680000D03*
G54D42*X104000Y681500D02*Y678500D01*
G54D41*X53000Y737937D02*Y730063D01*
X43000Y737937D02*Y730063D01*
X63000Y737937D02*Y730063D01*
G54D36*X98700Y550000D03*
G54D42*X100200Y551500D02*Y548500D01*
G54D36*X105500Y550000D03*
G54D42*X104000Y551500D02*Y548500D01*
G54D41*X53000Y477937D02*Y470063D01*
X43000Y477937D02*Y470063D01*
X63000Y477937D02*Y470063D01*
G54D36*X98700Y420000D03*
G54D42*X100200Y421500D02*Y418500D01*
G54D36*X105500Y420000D03*
G54D42*X104000Y421500D02*Y418500D01*
G54D41*X53000Y347937D02*Y340063D01*
X43000Y347937D02*Y340063D01*
X63000Y347937D02*Y340063D01*
G54D36*X98700Y290000D03*
G54D42*X100200Y291500D02*Y288500D01*
G54D36*X105500Y290000D03*
G54D42*X104000Y291500D02*Y288500D01*
G54D41*X53000Y217937D02*Y210063D01*
X43000Y217937D02*Y210063D01*
X63000Y217937D02*Y210063D01*
G54D36*X98700Y160000D03*
G54D42*X100200Y161500D02*Y158500D01*
G54D36*X105500Y160000D03*
G54D42*X104000Y161500D02*Y158500D01*
G54D41*X53000Y87937D02*Y80063D01*
X43000Y87937D02*Y80063D01*
X63000Y87937D02*Y80063D01*
G54D36*X98700Y30000D03*
G54D42*X100200Y31500D02*Y28500D01*
G54D36*X105500Y30000D03*
G54D42*X104000Y31500D02*Y28500D01*
G54D33*X132000Y665500D03*
Y535500D03*
X104000Y530000D03*
X109500Y535000D03*
X159500Y625500D03*
Y495500D03*
X112500Y568500D03*
X118000Y554500D03*
Y559000D03*
Y563500D03*
X111500Y550000D03*
Y545000D03*
X73500Y614500D03*
Y622500D03*
X63000Y617000D03*
X82000Y609000D03*
X91500Y606000D03*
X90500Y623000D03*
X90000Y618000D03*
X104000Y660000D03*
Y400000D03*
X124500Y568500D03*
Y438500D03*
X132000Y405500D03*
X130500Y477000D03*
X124000Y485000D03*
X109000Y611500D03*
X130500Y607000D03*
X73500Y744500D03*
Y752500D03*
X82000Y739000D03*
X63000Y747000D03*
X109000Y741500D03*
X91500Y736000D03*
X130500Y737000D03*
X159500Y755500D03*
X113500Y750500D03*
X124000Y745000D03*
X114000Y761500D03*
X109000Y754000D03*
X90500Y753000D03*
X90000Y748000D03*
X124500Y698500D03*
X124000Y615000D03*
X109500Y665000D03*
X112500Y698500D03*
X118000Y684500D03*
Y689000D03*
Y693500D03*
X111500Y680000D03*
Y675000D03*
X113500Y620500D03*
X114000Y631500D03*
X109000Y624000D03*
Y481500D03*
X109500Y405000D03*
X112500Y438500D03*
X118000Y424500D03*
Y429000D03*
Y433500D03*
X159500Y365500D03*
X114000Y371500D03*
X111500Y420000D03*
Y415000D03*
X113500Y490500D03*
X114000Y501500D03*
X109000Y494000D03*
Y351500D03*
X130500Y347000D03*
X113500Y360500D03*
X109000Y364000D03*
X124000Y355000D03*
X73500Y484500D03*
X63000Y487000D03*
X73500Y492500D03*
X90500Y493000D03*
X82000Y479000D03*
X73500Y354500D03*
Y362500D03*
X82000Y349000D03*
X63000Y357000D03*
X91500Y476000D03*
X90000Y488000D03*
X91500Y346000D03*
X90500Y363000D03*
X90000Y358000D03*
X124500Y308500D03*
X112500D03*
X118000Y294500D03*
Y299000D03*
Y303500D03*
X111500Y290000D03*
X109500Y275000D03*
X111500Y285000D03*
X132000Y275500D03*
X124500Y178500D03*
X130500Y217000D03*
X124000Y225000D03*
X109000Y221500D03*
X113500Y230500D03*
X114000Y241500D03*
X109000Y234000D03*
X104000Y270000D03*
Y140000D03*
Y10000D03*
X112500Y178500D03*
X118000Y164500D03*
Y169000D03*
Y173500D03*
X113500Y100500D03*
X114000Y111500D03*
X109000Y104000D03*
X124000Y95000D03*
X73500Y224500D03*
Y232500D03*
X63000Y227000D03*
X82000Y219000D03*
X91500Y216000D03*
X90500Y233000D03*
X90000Y228000D03*
X73500Y94500D03*
Y102500D03*
X82000Y89000D03*
X91500Y86000D03*
X90000Y98000D03*
X63000Y97000D03*
X90500Y103000D03*
X109500Y145000D03*
X111500Y160000D03*
Y155000D03*
X109000Y91500D03*
X109500Y15000D03*
X132000Y145500D03*
X124500Y48500D03*
X132000Y15500D03*
X130500Y87000D03*
X112500Y48500D03*
X118000Y34500D03*
Y39000D03*
Y43500D03*
X111500Y30000D03*
Y25000D03*
X159500Y235500D03*
Y105500D03*
G54D37*G54D43*G54D37*G54D43*G54D37*G54D43*G54D37*G54D43*G54D37*G54D43*G54D37*G54D43*G54D37*G54D43*G54D37*G54D43*G54D37*G54D43*G54D37*G54D43*G54D37*G54D43*G54D44*G54D45*G54D44*G54D45*G54D44*G54D46*G54D44*G54D46*G54D44*G54D45*G54D44*G54D45*G54D44*G54D47*G54D46*G54D44*G54D47*G54D44*G54D46*G54D44*G54D46*G54D47*G54D44*G54D46*G54D44*G54D46*G54D44*G54D46*G54D44*G54D47*G54D44*G54D47*G54D44*G54D47*G54D46*G54D44*G54D46*G54D44*G54D46*G54D47*G54D44*G54D46*G54D44*G54D46*G54D44*G54D46*G54D44*G54D46*G54D44*G54D45*G54D44*G54D45*G54D44*G54D45*G54D44*G54D45*G54D44*G54D47*G54D44*G54D46*G54D44*G54D46*G54D45*G54D44*G54D47*G54D44*G54D47*G54D44*G54D46*G54D47*G54D44*G54D45*G54D44*G54D46*G54D44*G54D46*G54D44*G54D46*G54D44*M02*
