G04 start of page 2 for group 0 idx 0 *
G04 Title: (unknown), top *
G04 Creator: pcb 20140316 *
G04 CreationDate: Mon 23 Jul 2018 02:23:11 AM GMT UTC *
G04 For: railfan *
G04 Format: Gerber/RS-274X *
G04 PCB-Dimensions (mil): 1700.00 7700.00 *
G04 PCB-Coordinate-Origin: lower left *
%MOIN*%
%FSLAX25Y25*%
%LNTOP*%
%ADD31C,0.0450*%
%ADD30C,0.0472*%
%ADD29C,0.1285*%
%ADD28C,0.0380*%
%ADD27C,0.0310*%
%ADD26R,0.0550X0.0550*%
%ADD25R,0.0512X0.0512*%
%ADD24R,0.0240X0.0240*%
%ADD23R,0.0167X0.0167*%
%ADD22R,0.0340X0.0340*%
%ADD21C,0.0787*%
%ADD20C,0.0800*%
%ADD19C,0.2937*%
%ADD18C,0.0680*%
%ADD17C,0.0250*%
%ADD16C,0.0600*%
%ADD15C,0.0400*%
%ADD14C,0.0200*%
%ADD13C,0.0100*%
%ADD12C,0.0700*%
%ADD11C,0.0001*%
G54D11*G36*
X7000Y637500D02*X37000D01*
Y629500D01*
X7000D01*
Y637500D01*
G37*
G36*
X39500D02*X51000D01*
Y617000D01*
X39500D01*
Y637500D01*
G37*
G36*
X48000Y597000D02*X43000D01*
Y598063D01*
X44937D01*
X45094Y598072D01*
X45247Y598109D01*
X45392Y598169D01*
X45527Y598251D01*
X45646Y598354D01*
X45749Y598473D01*
X45831Y598608D01*
X45891Y598753D01*
X45928Y598906D01*
X45940Y599063D01*
X45928Y599220D01*
X45891Y599373D01*
X45831Y599518D01*
X45749Y599653D01*
X45646Y599772D01*
X45527Y599875D01*
X45392Y599957D01*
X45247Y600017D01*
X45094Y600054D01*
X44937Y600063D01*
X43000D01*
Y607937D01*
X44937D01*
X45094Y607946D01*
X45247Y607983D01*
X45392Y608043D01*
X45527Y608125D01*
X45646Y608228D01*
X45749Y608347D01*
X45831Y608482D01*
X45891Y608627D01*
X45928Y608780D01*
X45940Y608937D01*
X45928Y609094D01*
X45891Y609247D01*
X45831Y609392D01*
X45749Y609527D01*
X45646Y609646D01*
X45527Y609749D01*
X45392Y609831D01*
X45247Y609891D01*
X45094Y609928D01*
X44937Y609937D01*
X43000D01*
Y618500D01*
X48000D01*
Y607203D01*
X47834Y606932D01*
X47780Y606928D01*
X47627Y606891D01*
X47482Y606831D01*
X47347Y606749D01*
X47228Y606646D01*
X47125Y606527D01*
X47043Y606392D01*
X46983Y606247D01*
X46946Y606094D01*
X46937Y605937D01*
Y602063D01*
X46946Y601906D01*
X46983Y601753D01*
X47043Y601608D01*
X47125Y601473D01*
X47228Y601354D01*
X47347Y601251D01*
X47482Y601169D01*
X47627Y601109D01*
X47780Y601072D01*
X47834Y601068D01*
X48000Y600797D01*
Y597000D01*
G37*
G36*
X43000D02*X38063D01*
Y601060D01*
X38220Y601072D01*
X38373Y601109D01*
X38518Y601169D01*
X38653Y601251D01*
X38772Y601354D01*
X38875Y601473D01*
X38957Y601608D01*
X39017Y601753D01*
X39054Y601906D01*
X39063Y602063D01*
Y605937D01*
X39054Y606094D01*
X39017Y606247D01*
X38957Y606392D01*
X38875Y606527D01*
X38772Y606646D01*
X38653Y606749D01*
X38518Y606831D01*
X38373Y606891D01*
X38220Y606928D01*
X38063Y606940D01*
Y618500D01*
X43000D01*
Y609937D01*
X41063D01*
X40906Y609928D01*
X40753Y609891D01*
X40608Y609831D01*
X40473Y609749D01*
X40354Y609646D01*
X40251Y609527D01*
X40169Y609392D01*
X40109Y609247D01*
X40072Y609094D01*
X40060Y608937D01*
X40072Y608780D01*
X40109Y608627D01*
X40169Y608482D01*
X40251Y608347D01*
X40354Y608228D01*
X40473Y608125D01*
X40608Y608043D01*
X40753Y607983D01*
X40906Y607946D01*
X41063Y607937D01*
X43000D01*
Y600063D01*
X41063D01*
X40906Y600054D01*
X40753Y600017D01*
X40608Y599957D01*
X40473Y599875D01*
X40354Y599772D01*
X40251Y599653D01*
X40169Y599518D01*
X40109Y599373D01*
X40072Y599220D01*
X40060Y599063D01*
X40072Y598906D01*
X40109Y598753D01*
X40169Y598608D01*
X40251Y598473D01*
X40354Y598354D01*
X40473Y598251D01*
X40608Y598169D01*
X40753Y598109D01*
X40906Y598072D01*
X41063Y598063D01*
X43000D01*
Y597000D01*
G37*
G36*
X38063D02*X33500D01*
Y618500D01*
X38063D01*
Y606940D01*
X37906Y606928D01*
X37753Y606891D01*
X37608Y606831D01*
X37473Y606749D01*
X37354Y606646D01*
X37251Y606527D01*
X37169Y606392D01*
X37109Y606247D01*
X37072Y606094D01*
X37063Y605937D01*
Y602063D01*
X37072Y601906D01*
X37109Y601753D01*
X37169Y601608D01*
X37251Y601473D01*
X37354Y601354D01*
X37473Y601251D01*
X37608Y601169D01*
X37753Y601109D01*
X37906Y601072D01*
X38063Y601060D01*
Y597000D01*
G37*
G36*
X51000Y617000D02*X47000Y613000D01*
Y618000D01*
X51000D01*
Y617000D01*
G37*
G36*
X7000Y637500D02*X21500D01*
Y624000D01*
X7000D01*
Y637500D01*
G37*
G36*
Y507500D02*X37000D01*
Y499500D01*
X7000D01*
Y507500D01*
G37*
G36*
X21500D01*
Y494000D01*
X7000D01*
Y507500D01*
G37*
G36*
X39500D02*X51000D01*
Y487000D01*
X39500D01*
Y507500D01*
G37*
G36*
X48000Y467000D02*X43000D01*
Y468063D01*
X44937D01*
X45094Y468072D01*
X45247Y468109D01*
X45392Y468169D01*
X45527Y468251D01*
X45646Y468354D01*
X45749Y468473D01*
X45831Y468608D01*
X45891Y468753D01*
X45928Y468906D01*
X45940Y469063D01*
X45928Y469220D01*
X45891Y469373D01*
X45831Y469518D01*
X45749Y469653D01*
X45646Y469772D01*
X45527Y469875D01*
X45392Y469957D01*
X45247Y470017D01*
X45094Y470054D01*
X44937Y470063D01*
X43000D01*
Y477937D01*
X44937D01*
X45094Y477946D01*
X45247Y477983D01*
X45392Y478043D01*
X45527Y478125D01*
X45646Y478228D01*
X45749Y478347D01*
X45831Y478482D01*
X45891Y478627D01*
X45928Y478780D01*
X45940Y478937D01*
X45928Y479094D01*
X45891Y479247D01*
X45831Y479392D01*
X45749Y479527D01*
X45646Y479646D01*
X45527Y479749D01*
X45392Y479831D01*
X45247Y479891D01*
X45094Y479928D01*
X44937Y479937D01*
X43000D01*
Y488500D01*
X48000D01*
Y477203D01*
X47834Y476932D01*
X47780Y476928D01*
X47627Y476891D01*
X47482Y476831D01*
X47347Y476749D01*
X47228Y476646D01*
X47125Y476527D01*
X47043Y476392D01*
X46983Y476247D01*
X46946Y476094D01*
X46937Y475937D01*
Y472063D01*
X46946Y471906D01*
X46983Y471753D01*
X47043Y471608D01*
X47125Y471473D01*
X47228Y471354D01*
X47347Y471251D01*
X47482Y471169D01*
X47627Y471109D01*
X47780Y471072D01*
X47834Y471068D01*
X48000Y470797D01*
Y467000D01*
G37*
G36*
X43000D02*X38063D01*
Y471060D01*
X38220Y471072D01*
X38373Y471109D01*
X38518Y471169D01*
X38653Y471251D01*
X38772Y471354D01*
X38875Y471473D01*
X38957Y471608D01*
X39017Y471753D01*
X39054Y471906D01*
X39063Y472063D01*
Y475937D01*
X39054Y476094D01*
X39017Y476247D01*
X38957Y476392D01*
X38875Y476527D01*
X38772Y476646D01*
X38653Y476749D01*
X38518Y476831D01*
X38373Y476891D01*
X38220Y476928D01*
X38063Y476940D01*
Y488500D01*
X43000D01*
Y479937D01*
X41063D01*
X40906Y479928D01*
X40753Y479891D01*
X40608Y479831D01*
X40473Y479749D01*
X40354Y479646D01*
X40251Y479527D01*
X40169Y479392D01*
X40109Y479247D01*
X40072Y479094D01*
X40060Y478937D01*
X40072Y478780D01*
X40109Y478627D01*
X40169Y478482D01*
X40251Y478347D01*
X40354Y478228D01*
X40473Y478125D01*
X40608Y478043D01*
X40753Y477983D01*
X40906Y477946D01*
X41063Y477937D01*
X43000D01*
Y470063D01*
X41063D01*
X40906Y470054D01*
X40753Y470017D01*
X40608Y469957D01*
X40473Y469875D01*
X40354Y469772D01*
X40251Y469653D01*
X40169Y469518D01*
X40109Y469373D01*
X40072Y469220D01*
X40060Y469063D01*
X40072Y468906D01*
X40109Y468753D01*
X40169Y468608D01*
X40251Y468473D01*
X40354Y468354D01*
X40473Y468251D01*
X40608Y468169D01*
X40753Y468109D01*
X40906Y468072D01*
X41063Y468063D01*
X43000D01*
Y467000D01*
G37*
G36*
X38063D02*X33500D01*
Y488500D01*
X38063D01*
Y476940D01*
X37906Y476928D01*
X37753Y476891D01*
X37608Y476831D01*
X37473Y476749D01*
X37354Y476646D01*
X37251Y476527D01*
X37169Y476392D01*
X37109Y476247D01*
X37072Y476094D01*
X37063Y475937D01*
Y472063D01*
X37072Y471906D01*
X37109Y471753D01*
X37169Y471608D01*
X37251Y471473D01*
X37354Y471354D01*
X37473Y471251D01*
X37608Y471169D01*
X37753Y471109D01*
X37906Y471072D01*
X38063Y471060D01*
Y467000D01*
G37*
G36*
X51000Y487000D02*X47000Y483000D01*
Y488000D01*
X51000D01*
Y487000D01*
G37*
G36*
X122500Y668000D02*X115000D01*
Y675000D01*
X122500D01*
Y668000D01*
G37*
G36*
X101500Y657500D02*Y662000D01*
X119500D01*
Y657500D01*
X101500D01*
G37*
G36*
X120500Y670500D02*X122500D01*
Y660500D01*
X120500D01*
Y670500D01*
G37*
G36*
X7000Y767500D02*X37000D01*
Y759500D01*
X7000D01*
Y767500D01*
G37*
G36*
X21500D01*
Y754000D01*
X7000D01*
Y767500D01*
G37*
G36*
X39500D02*X51000D01*
Y747000D01*
X39500D01*
Y767500D01*
G37*
G36*
X48000Y727000D02*X43000D01*
Y728063D01*
X44937D01*
X45094Y728072D01*
X45247Y728109D01*
X45392Y728169D01*
X45527Y728251D01*
X45646Y728354D01*
X45749Y728473D01*
X45831Y728608D01*
X45891Y728753D01*
X45928Y728906D01*
X45940Y729063D01*
X45928Y729220D01*
X45891Y729373D01*
X45831Y729518D01*
X45749Y729653D01*
X45646Y729772D01*
X45527Y729875D01*
X45392Y729957D01*
X45247Y730017D01*
X45094Y730054D01*
X44937Y730063D01*
X43000D01*
Y737937D01*
X44937D01*
X45094Y737946D01*
X45247Y737983D01*
X45392Y738043D01*
X45527Y738125D01*
X45646Y738228D01*
X45749Y738347D01*
X45831Y738482D01*
X45891Y738627D01*
X45928Y738780D01*
X45940Y738937D01*
X45928Y739094D01*
X45891Y739247D01*
X45831Y739392D01*
X45749Y739527D01*
X45646Y739646D01*
X45527Y739749D01*
X45392Y739831D01*
X45247Y739891D01*
X45094Y739928D01*
X44937Y739937D01*
X43000D01*
Y748500D01*
X48000D01*
Y737203D01*
X47834Y736932D01*
X47780Y736928D01*
X47627Y736891D01*
X47482Y736831D01*
X47347Y736749D01*
X47228Y736646D01*
X47125Y736527D01*
X47043Y736392D01*
X46983Y736247D01*
X46946Y736094D01*
X46937Y735937D01*
Y732063D01*
X46946Y731906D01*
X46983Y731753D01*
X47043Y731608D01*
X47125Y731473D01*
X47228Y731354D01*
X47347Y731251D01*
X47482Y731169D01*
X47627Y731109D01*
X47780Y731072D01*
X47834Y731068D01*
X48000Y730797D01*
Y727000D01*
G37*
G36*
X43000D02*X38063D01*
Y731060D01*
X38220Y731072D01*
X38373Y731109D01*
X38518Y731169D01*
X38653Y731251D01*
X38772Y731354D01*
X38875Y731473D01*
X38957Y731608D01*
X39017Y731753D01*
X39054Y731906D01*
X39063Y732063D01*
Y735937D01*
X39054Y736094D01*
X39017Y736247D01*
X38957Y736392D01*
X38875Y736527D01*
X38772Y736646D01*
X38653Y736749D01*
X38518Y736831D01*
X38373Y736891D01*
X38220Y736928D01*
X38063Y736940D01*
Y748500D01*
X43000D01*
Y739937D01*
X41063D01*
X40906Y739928D01*
X40753Y739891D01*
X40608Y739831D01*
X40473Y739749D01*
X40354Y739646D01*
X40251Y739527D01*
X40169Y739392D01*
X40109Y739247D01*
X40072Y739094D01*
X40060Y738937D01*
X40072Y738780D01*
X40109Y738627D01*
X40169Y738482D01*
X40251Y738347D01*
X40354Y738228D01*
X40473Y738125D01*
X40608Y738043D01*
X40753Y737983D01*
X40906Y737946D01*
X41063Y737937D01*
X43000D01*
Y730063D01*
X41063D01*
X40906Y730054D01*
X40753Y730017D01*
X40608Y729957D01*
X40473Y729875D01*
X40354Y729772D01*
X40251Y729653D01*
X40169Y729518D01*
X40109Y729373D01*
X40072Y729220D01*
X40060Y729063D01*
X40072Y728906D01*
X40109Y728753D01*
X40169Y728608D01*
X40251Y728473D01*
X40354Y728354D01*
X40473Y728251D01*
X40608Y728169D01*
X40753Y728109D01*
X40906Y728072D01*
X41063Y728063D01*
X43000D01*
Y727000D01*
G37*
G36*
X38063D02*X33500D01*
Y748500D01*
X38063D01*
Y736940D01*
X37906Y736928D01*
X37753Y736891D01*
X37608Y736831D01*
X37473Y736749D01*
X37354Y736646D01*
X37251Y736527D01*
X37169Y736392D01*
X37109Y736247D01*
X37072Y736094D01*
X37063Y735937D01*
Y732063D01*
X37072Y731906D01*
X37109Y731753D01*
X37169Y731608D01*
X37251Y731473D01*
X37354Y731354D01*
X37473Y731251D01*
X37608Y731169D01*
X37753Y731109D01*
X37906Y731072D01*
X38063Y731060D01*
Y727000D01*
G37*
G36*
X51000Y747000D02*X47000Y743000D01*
Y748000D01*
X51000D01*
Y747000D01*
G37*
G36*
X101500Y662500D02*X106500D01*
Y657500D01*
X101500D01*
Y662500D01*
G37*
G36*
X123500Y668000D02*Y677000D01*
X128500D01*
Y668000D01*
X123500D01*
G37*
G36*
X122500Y538000D02*X115000D01*
Y545000D01*
X122500D01*
Y538000D01*
G37*
G36*
X101500Y527500D02*Y532000D01*
X119500D01*
Y527500D01*
X101500D01*
G37*
G36*
Y532500D02*X106500D01*
Y527500D01*
X101500D01*
Y532500D01*
G37*
G36*
X120500Y540500D02*X122500D01*
Y530500D01*
X120500D01*
Y540500D01*
G37*
G36*
X123500Y538000D02*Y547000D01*
X128500D01*
Y538000D01*
X123500D01*
G37*
G36*
X101500Y397500D02*Y402000D01*
X119500D01*
Y397500D01*
X101500D01*
G37*
G36*
X122500Y408000D02*X115000D01*
Y415000D01*
X122500D01*
Y408000D01*
G37*
G36*
X123500D02*Y417000D01*
X128500D01*
Y408000D01*
X123500D01*
G37*
G36*
X101500Y402500D02*X106500D01*
Y397500D01*
X101500D01*
Y402500D01*
G37*
G36*
X120500Y410500D02*X122500D01*
Y400500D01*
X120500D01*
Y410500D01*
G37*
G36*
X122500Y148000D02*X115000D01*
Y155000D01*
X122500D01*
Y148000D01*
G37*
G36*
Y278000D02*X115000D01*
Y285000D01*
X122500D01*
Y278000D01*
G37*
G36*
X101500Y267500D02*Y272000D01*
X119500D01*
Y267500D01*
X101500D01*
G37*
G36*
Y272500D02*X106500D01*
Y267500D01*
X101500D01*
Y272500D01*
G37*
G36*
X120500Y280500D02*X122500D01*
Y270500D01*
X120500D01*
Y280500D01*
G37*
G36*
X123500Y278000D02*Y287000D01*
X128500D01*
Y278000D01*
X123500D01*
G37*
G36*
X101500Y137500D02*Y142000D01*
X119500D01*
Y137500D01*
X101500D01*
G37*
G36*
Y142500D02*X106500D01*
Y137500D01*
X101500D01*
Y142500D01*
G37*
G36*
X120500Y150500D02*X122500D01*
Y140500D01*
X120500D01*
Y150500D01*
G37*
G36*
X122500Y18000D02*X115000D01*
Y25000D01*
X122500D01*
Y18000D01*
G37*
G36*
X101500Y7500D02*Y12000D01*
X119500D01*
Y7500D01*
X101500D01*
G37*
G36*
Y12500D02*X106500D01*
Y7500D01*
X101500D01*
Y12500D01*
G37*
G36*
X120500Y20500D02*X122500D01*
Y10500D01*
X120500D01*
Y20500D01*
G37*
G36*
X123500Y148000D02*Y157000D01*
X128500D01*
Y148000D01*
X123500D01*
G37*
G36*
Y18000D02*Y27000D01*
X128500D01*
Y18000D01*
X123500D01*
G37*
G36*
X7000Y377500D02*X37000D01*
Y369500D01*
X7000D01*
Y377500D01*
G37*
G36*
Y247500D02*X37000D01*
Y239500D01*
X7000D01*
Y247500D01*
G37*
G36*
X21500D01*
Y234000D01*
X7000D01*
Y247500D01*
G37*
G36*
Y117500D02*X37000D01*
Y109500D01*
X7000D01*
Y117500D01*
G37*
G36*
X21500D01*
Y104000D01*
X7000D01*
Y117500D01*
G37*
G36*
Y377500D02*X21500D01*
Y364000D01*
X7000D01*
Y377500D01*
G37*
G36*
X39500D02*X51000D01*
Y357000D01*
X39500D01*
Y377500D01*
G37*
G36*
X51000Y357000D02*X47000Y353000D01*
Y358000D01*
X51000D01*
Y357000D01*
G37*
G36*
X48000Y337000D02*X43000D01*
Y338063D01*
X44937D01*
X45094Y338072D01*
X45247Y338109D01*
X45392Y338169D01*
X45527Y338251D01*
X45646Y338354D01*
X45749Y338473D01*
X45831Y338608D01*
X45891Y338753D01*
X45928Y338906D01*
X45940Y339063D01*
X45928Y339220D01*
X45891Y339373D01*
X45831Y339518D01*
X45749Y339653D01*
X45646Y339772D01*
X45527Y339875D01*
X45392Y339957D01*
X45247Y340017D01*
X45094Y340054D01*
X44937Y340063D01*
X43000D01*
Y347937D01*
X44937D01*
X45094Y347946D01*
X45247Y347983D01*
X45392Y348043D01*
X45527Y348125D01*
X45646Y348228D01*
X45749Y348347D01*
X45831Y348482D01*
X45891Y348627D01*
X45928Y348780D01*
X45940Y348937D01*
X45928Y349094D01*
X45891Y349247D01*
X45831Y349392D01*
X45749Y349527D01*
X45646Y349646D01*
X45527Y349749D01*
X45392Y349831D01*
X45247Y349891D01*
X45094Y349928D01*
X44937Y349937D01*
X43000D01*
Y358500D01*
X48000D01*
Y347203D01*
X47834Y346932D01*
X47780Y346928D01*
X47627Y346891D01*
X47482Y346831D01*
X47347Y346749D01*
X47228Y346646D01*
X47125Y346527D01*
X47043Y346392D01*
X46983Y346247D01*
X46946Y346094D01*
X46937Y345937D01*
Y342063D01*
X46946Y341906D01*
X46983Y341753D01*
X47043Y341608D01*
X47125Y341473D01*
X47228Y341354D01*
X47347Y341251D01*
X47482Y341169D01*
X47627Y341109D01*
X47780Y341072D01*
X47834Y341068D01*
X48000Y340797D01*
Y337000D01*
G37*
G36*
X43000D02*X38063D01*
Y341060D01*
X38220Y341072D01*
X38373Y341109D01*
X38518Y341169D01*
X38653Y341251D01*
X38772Y341354D01*
X38875Y341473D01*
X38957Y341608D01*
X39017Y341753D01*
X39054Y341906D01*
X39063Y342063D01*
Y345937D01*
X39054Y346094D01*
X39017Y346247D01*
X38957Y346392D01*
X38875Y346527D01*
X38772Y346646D01*
X38653Y346749D01*
X38518Y346831D01*
X38373Y346891D01*
X38220Y346928D01*
X38063Y346940D01*
Y358500D01*
X43000D01*
Y349937D01*
X41063D01*
X40906Y349928D01*
X40753Y349891D01*
X40608Y349831D01*
X40473Y349749D01*
X40354Y349646D01*
X40251Y349527D01*
X40169Y349392D01*
X40109Y349247D01*
X40072Y349094D01*
X40060Y348937D01*
X40072Y348780D01*
X40109Y348627D01*
X40169Y348482D01*
X40251Y348347D01*
X40354Y348228D01*
X40473Y348125D01*
X40608Y348043D01*
X40753Y347983D01*
X40906Y347946D01*
X41063Y347937D01*
X43000D01*
Y340063D01*
X41063D01*
X40906Y340054D01*
X40753Y340017D01*
X40608Y339957D01*
X40473Y339875D01*
X40354Y339772D01*
X40251Y339653D01*
X40169Y339518D01*
X40109Y339373D01*
X40072Y339220D01*
X40060Y339063D01*
X40072Y338906D01*
X40109Y338753D01*
X40169Y338608D01*
X40251Y338473D01*
X40354Y338354D01*
X40473Y338251D01*
X40608Y338169D01*
X40753Y338109D01*
X40906Y338072D01*
X41063Y338063D01*
X43000D01*
Y337000D01*
G37*
G36*
X38063D02*X33500D01*
Y358500D01*
X38063D01*
Y346940D01*
X37906Y346928D01*
X37753Y346891D01*
X37608Y346831D01*
X37473Y346749D01*
X37354Y346646D01*
X37251Y346527D01*
X37169Y346392D01*
X37109Y346247D01*
X37072Y346094D01*
X37063Y345937D01*
Y342063D01*
X37072Y341906D01*
X37109Y341753D01*
X37169Y341608D01*
X37251Y341473D01*
X37354Y341354D01*
X37473Y341251D01*
X37608Y341169D01*
X37753Y341109D01*
X37906Y341072D01*
X38063Y341060D01*
Y337000D01*
G37*
G36*
X39500Y247500D02*X51000D01*
Y227000D01*
X39500D01*
Y247500D01*
G37*
G36*
X48000Y207000D02*X43000D01*
Y208063D01*
X44937D01*
X45094Y208072D01*
X45247Y208109D01*
X45392Y208169D01*
X45527Y208251D01*
X45646Y208354D01*
X45749Y208473D01*
X45831Y208608D01*
X45891Y208753D01*
X45928Y208906D01*
X45940Y209063D01*
X45928Y209220D01*
X45891Y209373D01*
X45831Y209518D01*
X45749Y209653D01*
X45646Y209772D01*
X45527Y209875D01*
X45392Y209957D01*
X45247Y210017D01*
X45094Y210054D01*
X44937Y210063D01*
X43000D01*
Y217937D01*
X44937D01*
X45094Y217946D01*
X45247Y217983D01*
X45392Y218043D01*
X45527Y218125D01*
X45646Y218228D01*
X45749Y218347D01*
X45831Y218482D01*
X45891Y218627D01*
X45928Y218780D01*
X45940Y218937D01*
X45928Y219094D01*
X45891Y219247D01*
X45831Y219392D01*
X45749Y219527D01*
X45646Y219646D01*
X45527Y219749D01*
X45392Y219831D01*
X45247Y219891D01*
X45094Y219928D01*
X44937Y219937D01*
X43000D01*
Y228500D01*
X48000D01*
Y217203D01*
X47834Y216932D01*
X47780Y216928D01*
X47627Y216891D01*
X47482Y216831D01*
X47347Y216749D01*
X47228Y216646D01*
X47125Y216527D01*
X47043Y216392D01*
X46983Y216247D01*
X46946Y216094D01*
X46937Y215937D01*
Y212063D01*
X46946Y211906D01*
X46983Y211753D01*
X47043Y211608D01*
X47125Y211473D01*
X47228Y211354D01*
X47347Y211251D01*
X47482Y211169D01*
X47627Y211109D01*
X47780Y211072D01*
X47834Y211068D01*
X48000Y210797D01*
Y207000D01*
G37*
G36*
X43000D02*X38063D01*
Y211060D01*
X38220Y211072D01*
X38373Y211109D01*
X38518Y211169D01*
X38653Y211251D01*
X38772Y211354D01*
X38875Y211473D01*
X38957Y211608D01*
X39017Y211753D01*
X39054Y211906D01*
X39063Y212063D01*
Y215937D01*
X39054Y216094D01*
X39017Y216247D01*
X38957Y216392D01*
X38875Y216527D01*
X38772Y216646D01*
X38653Y216749D01*
X38518Y216831D01*
X38373Y216891D01*
X38220Y216928D01*
X38063Y216940D01*
Y228500D01*
X43000D01*
Y219937D01*
X41063D01*
X40906Y219928D01*
X40753Y219891D01*
X40608Y219831D01*
X40473Y219749D01*
X40354Y219646D01*
X40251Y219527D01*
X40169Y219392D01*
X40109Y219247D01*
X40072Y219094D01*
X40060Y218937D01*
X40072Y218780D01*
X40109Y218627D01*
X40169Y218482D01*
X40251Y218347D01*
X40354Y218228D01*
X40473Y218125D01*
X40608Y218043D01*
X40753Y217983D01*
X40906Y217946D01*
X41063Y217937D01*
X43000D01*
Y210063D01*
X41063D01*
X40906Y210054D01*
X40753Y210017D01*
X40608Y209957D01*
X40473Y209875D01*
X40354Y209772D01*
X40251Y209653D01*
X40169Y209518D01*
X40109Y209373D01*
X40072Y209220D01*
X40060Y209063D01*
X40072Y208906D01*
X40109Y208753D01*
X40169Y208608D01*
X40251Y208473D01*
X40354Y208354D01*
X40473Y208251D01*
X40608Y208169D01*
X40753Y208109D01*
X40906Y208072D01*
X41063Y208063D01*
X43000D01*
Y207000D01*
G37*
G36*
X38063D02*X33500D01*
Y228500D01*
X38063D01*
Y216940D01*
X37906Y216928D01*
X37753Y216891D01*
X37608Y216831D01*
X37473Y216749D01*
X37354Y216646D01*
X37251Y216527D01*
X37169Y216392D01*
X37109Y216247D01*
X37072Y216094D01*
X37063Y215937D01*
Y212063D01*
X37072Y211906D01*
X37109Y211753D01*
X37169Y211608D01*
X37251Y211473D01*
X37354Y211354D01*
X37473Y211251D01*
X37608Y211169D01*
X37753Y211109D01*
X37906Y211072D01*
X38063Y211060D01*
Y207000D01*
G37*
G36*
X51000Y227000D02*X47000Y223000D01*
Y228000D01*
X51000D01*
Y227000D01*
G37*
G36*
X39500Y117500D02*X51000D01*
Y97000D01*
X39500D01*
Y117500D01*
G37*
G36*
X48000Y77000D02*X43000D01*
Y78063D01*
X44937D01*
X45094Y78072D01*
X45247Y78109D01*
X45392Y78169D01*
X45527Y78251D01*
X45646Y78354D01*
X45749Y78473D01*
X45831Y78608D01*
X45891Y78753D01*
X45928Y78906D01*
X45940Y79063D01*
X45928Y79220D01*
X45891Y79373D01*
X45831Y79518D01*
X45749Y79653D01*
X45646Y79772D01*
X45527Y79875D01*
X45392Y79957D01*
X45247Y80017D01*
X45094Y80054D01*
X44937Y80063D01*
X43000D01*
Y87937D01*
X44937D01*
X45094Y87946D01*
X45247Y87983D01*
X45392Y88043D01*
X45527Y88125D01*
X45646Y88228D01*
X45749Y88347D01*
X45831Y88482D01*
X45891Y88627D01*
X45928Y88780D01*
X45940Y88937D01*
X45928Y89094D01*
X45891Y89247D01*
X45831Y89392D01*
X45749Y89527D01*
X45646Y89646D01*
X45527Y89749D01*
X45392Y89831D01*
X45247Y89891D01*
X45094Y89928D01*
X44937Y89937D01*
X43000D01*
Y98500D01*
X48000D01*
Y87203D01*
X47834Y86932D01*
X47780Y86928D01*
X47627Y86891D01*
X47482Y86831D01*
X47347Y86749D01*
X47228Y86646D01*
X47125Y86527D01*
X47043Y86392D01*
X46983Y86247D01*
X46946Y86094D01*
X46937Y85937D01*
Y82063D01*
X46946Y81906D01*
X46983Y81753D01*
X47043Y81608D01*
X47125Y81473D01*
X47228Y81354D01*
X47347Y81251D01*
X47482Y81169D01*
X47627Y81109D01*
X47780Y81072D01*
X47834Y81068D01*
X48000Y80797D01*
Y77000D01*
G37*
G36*
X43000D02*X38063D01*
Y81060D01*
X38220Y81072D01*
X38373Y81109D01*
X38518Y81169D01*
X38653Y81251D01*
X38772Y81354D01*
X38875Y81473D01*
X38957Y81608D01*
X39017Y81753D01*
X39054Y81906D01*
X39063Y82063D01*
Y85937D01*
X39054Y86094D01*
X39017Y86247D01*
X38957Y86392D01*
X38875Y86527D01*
X38772Y86646D01*
X38653Y86749D01*
X38518Y86831D01*
X38373Y86891D01*
X38220Y86928D01*
X38063Y86940D01*
Y98500D01*
X43000D01*
Y89937D01*
X41063D01*
X40906Y89928D01*
X40753Y89891D01*
X40608Y89831D01*
X40473Y89749D01*
X40354Y89646D01*
X40251Y89527D01*
X40169Y89392D01*
X40109Y89247D01*
X40072Y89094D01*
X40060Y88937D01*
X40072Y88780D01*
X40109Y88627D01*
X40169Y88482D01*
X40251Y88347D01*
X40354Y88228D01*
X40473Y88125D01*
X40608Y88043D01*
X40753Y87983D01*
X40906Y87946D01*
X41063Y87937D01*
X43000D01*
Y80063D01*
X41063D01*
X40906Y80054D01*
X40753Y80017D01*
X40608Y79957D01*
X40473Y79875D01*
X40354Y79772D01*
X40251Y79653D01*
X40169Y79518D01*
X40109Y79373D01*
X40072Y79220D01*
X40060Y79063D01*
X40072Y78906D01*
X40109Y78753D01*
X40169Y78608D01*
X40251Y78473D01*
X40354Y78354D01*
X40473Y78251D01*
X40608Y78169D01*
X40753Y78109D01*
X40906Y78072D01*
X41063Y78063D01*
X43000D01*
Y77000D01*
G37*
G36*
X38063D02*X33500D01*
Y98500D01*
X38063D01*
Y86940D01*
X37906Y86928D01*
X37753Y86891D01*
X37608Y86831D01*
X37473Y86749D01*
X37354Y86646D01*
X37251Y86527D01*
X37169Y86392D01*
X37109Y86247D01*
X37072Y86094D01*
X37063Y85937D01*
Y82063D01*
X37072Y81906D01*
X37109Y81753D01*
X37169Y81608D01*
X37251Y81473D01*
X37354Y81354D01*
X37473Y81251D01*
X37608Y81169D01*
X37753Y81109D01*
X37906Y81072D01*
X38063Y81060D01*
Y77000D01*
G37*
G36*
X51000Y97000D02*X47000Y93000D01*
Y98000D01*
X51000D01*
Y97000D01*
G37*
G54D12*X63000Y551500D02*Y572000D01*
G54D13*X107500Y595000D02*X103000Y599500D01*
G54D12*X96000Y546500D02*X102000Y552500D01*
Y574000D01*
X96000Y529500D02*Y546500D01*
G54D13*X109900Y535400D02*X109500Y535000D01*
X117300Y535400D02*X109900D01*
X125600Y535500D02*X125500Y535400D01*
X132000Y535500D02*X125600D01*
G54D14*X125500Y531500D02*X121500D01*
G54D12*X131500Y587000D02*Y557000D01*
G54D15*X134000Y545000D02*X126000D01*
X146000Y557000D02*X134000Y545000D01*
X101000Y628000D02*X103500Y625500D01*
G54D13*X112500Y568500D02*X124500D01*
X109000Y611500D02*X118000Y602500D01*
Y596500D01*
X116500Y595000D01*
G54D15*X128000Y593500D02*X115500Y580500D01*
G54D16*X102000Y574500D02*X131000D01*
G54D13*X116500Y595000D02*X107500D01*
G54D15*X84500Y580500D02*X78000Y587000D01*
X115500Y580500D02*X84500D01*
G54D14*X81900Y609100D02*X82000Y609000D01*
G54D13*X85800Y614500D02*Y606700D01*
G54D14*X81900Y600600D02*X83000Y599500D01*
X81900Y617600D02*Y609100D01*
G54D15*X83000Y599500D02*X78500D01*
X66000Y612000D01*
X113000Y599500D02*X103500Y609000D01*
Y625500D02*Y609000D01*
G54D13*X99000Y614500D02*Y604000D01*
G54D15*X118000Y563500D02*Y541500D01*
X111500Y545000D02*Y550000D01*
X106500D01*
X102000Y554500D01*
G54D12*X38000Y577000D02*X28000Y587000D01*
X38000Y554000D02*Y577000D01*
X63000Y572000D02*X48000Y587000D01*
X57327Y534673D02*X38000Y554000D01*
X59055Y534673D02*X57327D01*
X72835D02*Y541665D01*
X63000Y551500D01*
X9555Y538555D02*X28000Y557000D01*
X9555Y534673D02*Y538555D01*
G54D13*X128724Y750652D02*Y746776D01*
G54D15*X142500Y593500D02*X128000D01*
G54D13*X138957Y633000D02*X126500D01*
X128724Y620652D02*Y616776D01*
X130500Y615000D02*Y607000D01*
X128724Y616776D02*X130500Y615000D01*
G54D15*X161500Y557000D02*X146000D01*
X161500Y587000D02*X149000D01*
G54D13*X127000Y624000D02*X145957D01*
X128724Y627348D02*X144848D01*
G54D15*X142500Y593500D02*X149000Y587000D01*
G54D13*X159500Y625500D02*X162043Y628043D01*
Y633000D01*
X145957Y624000D02*X154957Y633000D01*
X144848Y627348D02*X146043Y628543D01*
Y633000D01*
X111500Y636500D02*X102000Y627000D01*
X123000Y636500D02*X111500D01*
X119276Y627348D02*X115152D01*
X114000Y628500D01*
Y631500D01*
X113500Y620500D02*X119276D01*
X90000Y618000D02*X85800Y622200D01*
X90500Y623000D02*X95100D01*
X119276Y620652D02*Y613224D01*
X133000Y599500D01*
X123000Y605000D02*Y599500D01*
X109000Y624000D02*X121500D01*
X109000D02*Y619000D01*
X123000Y605000D01*
X124000Y615000D02*X122425Y616575D01*
Y620652D01*
X125575D02*X128724D01*
X125575Y627348D02*Y625425D01*
X127000Y624000D01*
X126500Y633000D02*X123000Y636500D01*
X121500Y624000D02*X122425Y624925D01*
Y627348D01*
G54D17*X81900Y752700D02*Y757900D01*
G54D14*Y739100D02*X82000Y739000D01*
X81900Y747600D02*Y739100D01*
G54D17*Y757900D02*X82000Y758000D01*
G54D13*X85800Y744500D02*Y736700D01*
G54D15*X101000Y758000D02*X75500D01*
X71000Y762500D01*
X34957Y753000D02*X30500D01*
X24000Y746500D01*
X14838D01*
X14673Y746665D01*
G54D13*X22559Y725000D02*X14673Y732886D01*
G54D12*X38000Y707000D02*X28000Y717000D01*
G54D15*X55914Y753000D02*Y746414D01*
X53000Y743500D01*
Y734000D01*
G54D14*X68000Y750000D02*Y757500D01*
X61000Y764500D01*
G54D15*X66000Y742000D02*X53500D01*
X63000Y753000D02*Y747000D01*
G54D14*X69500Y748500D02*X68000Y750000D01*
X81900Y747600D02*X81000Y748500D01*
X69500D01*
G54D13*X73500Y744500D02*X78000D01*
X73500Y752500D02*X77800D01*
X78000Y752700D01*
X96500Y725000D02*X22559D01*
G54D15*X84500Y710500D02*X78000Y717000D01*
X83000Y729500D02*X78500D01*
X66000Y742000D01*
G54D12*X63000Y702000D02*X48000Y717000D01*
G54D13*X90000Y748000D02*X85800Y752200D01*
X90500Y753000D02*X95100D01*
X111500Y766500D02*X102000Y757000D01*
X113500Y750500D02*X119276D01*
Y750652D02*Y743224D01*
X109000Y749000D02*X123000Y735000D01*
Y729500D01*
X124000Y745000D02*X122425Y746575D01*
Y750652D01*
X125575Y757348D02*Y755425D01*
X126500Y763000D02*X123000Y766500D01*
X111500D01*
X114000Y758500D02*Y761500D01*
X119276Y757348D02*X115152D01*
X114000Y758500D01*
X109000Y754000D02*X121500D01*
X122425Y754925D01*
Y757348D01*
X109000Y754000D02*Y749000D01*
G54D15*X161500Y687000D02*X146000D01*
X134000Y675000D01*
G54D13*X125600Y665500D02*X125500Y665400D01*
G54D12*X96000Y676500D02*X102000Y682500D01*
Y704000D01*
X96000Y659500D02*Y676500D01*
G54D13*X109900Y665400D02*X109500Y665000D01*
X117300Y665400D02*X109900D01*
X132000Y665500D02*X125600D01*
G54D12*X131500Y717000D02*Y687000D01*
G54D15*X134000Y675000D02*X126000D01*
X142500Y723500D02*X128000D01*
X142500D02*X149000Y717000D01*
X161500D02*X149000D01*
G54D13*X112500Y698500D02*X124500D01*
G54D15*X115500Y710500D02*X84500D01*
X128000Y723500D02*X115500Y710500D01*
G54D16*X102000Y704500D02*X131000D01*
G54D15*X113000Y729500D02*X103500Y739000D01*
G54D13*X109000Y741500D02*X118000Y732500D01*
Y726500D01*
X107500Y725000D02*X103000Y729500D01*
X85800Y736700D02*X93000Y729500D01*
G54D14*X81900Y730600D02*X83000Y729500D01*
G54D15*X103500Y755500D02*Y739000D01*
X101000Y758000D02*X103500Y755500D01*
G54D13*X99000Y744500D02*Y734000D01*
X98000Y733000D01*
Y726500D01*
X96500Y725000D01*
X159500Y755500D02*X162043Y758043D01*
Y763000D01*
X127000Y754000D02*X145957D01*
X154957Y763000D01*
X128724Y757348D02*X144848D01*
X146043Y758543D01*
Y763000D01*
X138957D02*X126500D01*
X125575Y750652D02*X128724D01*
X125575Y755425D02*X127000Y754000D01*
X118000Y726500D02*X116500Y725000D01*
X107500D01*
X119276Y743224D02*X133000Y729500D01*
X130500Y745000D02*Y737000D01*
X128724Y746776D02*X130500Y745000D01*
G54D12*X63000Y681500D02*Y702000D01*
X23335Y664673D02*Y658665D01*
X9555Y668555D02*X28000Y687000D01*
X9555Y664673D02*Y668555D01*
X38000Y684000D02*Y707000D01*
G54D14*X125500Y661500D02*X121500D01*
G54D12*X26500Y655500D02*X92000D01*
X96000Y659500D01*
G54D15*X118000Y693500D02*Y671500D01*
G54D12*X57327Y664673D02*X38000Y684000D01*
X23335Y658665D02*X26500Y655500D01*
X59055Y664673D02*X57327D01*
X72835D02*Y671665D01*
X63000Y681500D01*
G54D15*X111500Y675000D02*Y680000D01*
X106500D01*
X102000Y684500D01*
X34957Y623000D02*X30500D01*
X24000Y616500D01*
X14838D01*
X14673Y616665D01*
X55914Y623000D02*Y616414D01*
X53000Y613500D01*
Y604000D01*
X66000Y612000D02*X53500D01*
X63000Y623000D02*Y617000D01*
G54D13*X99000Y604000D02*X98000Y603000D01*
Y596500D01*
X96500Y595000D01*
X22559D01*
X14673Y602886D01*
X85800Y606700D02*X93000Y599500D01*
G54D17*X81900Y622700D02*Y627900D01*
G54D14*Y617600D02*X81000Y618500D01*
X69500D01*
G54D13*X73500Y622500D02*X77800D01*
X78000Y622700D01*
G54D15*X75500Y628000D02*X71000Y632500D01*
G54D13*X73500Y614500D02*X78000D01*
G54D14*X69500Y618500D02*X68000Y620000D01*
Y627500D01*
X61000Y634500D01*
G54D17*X81900Y627900D02*X82000Y628000D01*
G54D15*X101000D02*X75500D01*
G54D12*X23335Y534673D02*Y528665D01*
X26500Y525500D01*
X92000D01*
X96000Y529500D01*
G54D17*X81900Y492700D02*Y497900D01*
G54D14*Y487600D02*Y479100D01*
G54D13*X85800Y476700D02*X93000Y469500D01*
G54D14*X81900Y470600D02*X83000Y469500D01*
G54D15*X113000D02*X103500Y479000D01*
G54D13*X99000Y484500D02*Y474000D01*
X98000Y473000D01*
Y466500D01*
X96500Y465000D01*
X107500D02*X103000Y469500D01*
G54D15*X103500Y495500D02*Y479000D01*
G54D13*X119276Y497348D02*X115152D01*
X114000Y498500D01*
Y501500D01*
X109000Y494000D02*Y489000D01*
X118000Y472500D02*Y466500D01*
X116500Y465000D01*
X107500D01*
G54D15*X115500Y450500D02*X84500D01*
G54D13*X109000Y481500D02*X118000Y472500D01*
X119276Y490652D02*Y483224D01*
G54D15*X34957Y493000D02*X30500D01*
X24000Y486500D01*
X14838D01*
X14673Y486665D01*
X55914Y493000D02*Y486414D01*
X53000Y483500D01*
G54D14*X69500Y488500D02*X68000Y490000D01*
Y497500D01*
X61000Y504500D01*
G54D15*X63000Y493000D02*Y487000D01*
G54D14*X81900Y487600D02*X81000Y488500D01*
G54D17*X81900Y497900D02*X82000Y498000D01*
G54D14*X81000Y488500D02*X69500D01*
G54D13*X73500Y484500D02*X78000D01*
X73500Y492500D02*X77800D01*
X78000Y492700D01*
X90000Y488000D02*X85800Y492200D01*
X90500Y493000D02*X95100D01*
G54D15*X101000Y498000D02*X75500D01*
X71000Y502500D01*
G54D14*X81900Y479100D02*X82000Y479000D01*
G54D13*X85800Y484500D02*Y476700D01*
X111500Y506500D02*X102000Y497000D01*
G54D15*X142500Y463500D02*X128000D01*
G54D13*X159500Y495500D02*X162043Y498043D01*
X145957Y494000D02*X154957Y503000D01*
X144848Y497348D02*X146043Y498543D01*
Y503000D01*
X162043Y498043D02*Y503000D01*
X127000Y494000D02*X145957D01*
X128724Y497348D02*X144848D01*
X138957Y503000D02*X126500D01*
X121500Y494000D02*X122425Y494925D01*
Y497348D01*
X126500Y503000D02*X123000Y506500D01*
X119276Y483224D02*X133000Y469500D01*
X130500Y485000D02*Y477000D01*
X128724Y486776D02*X130500Y485000D01*
X123000Y475000D02*Y469500D01*
X124000Y485000D02*X122425Y486575D01*
Y490652D01*
G54D12*X96000Y416500D02*X102000Y422500D01*
G54D15*X111500Y415000D02*Y420000D01*
X106500D01*
X102000Y424500D01*
G54D12*X96000Y399500D02*Y416500D01*
G54D16*X102000Y444500D02*X131000D01*
G54D13*X112500Y438500D02*X124500D01*
G54D15*X128000Y463500D02*X115500Y450500D01*
X101000Y498000D02*X103500Y495500D01*
G54D13*X113500Y490500D02*X119276D01*
X125575Y490652D02*X128724D01*
Y486776D01*
X125575Y497348D02*Y495425D01*
X127000Y494000D01*
X123000Y506500D02*X111500D01*
X109000Y494000D02*X121500D01*
X109000Y489000D02*X123000Y475000D01*
G54D12*X63000Y421500D02*Y442000D01*
X57327Y404673D02*X38000Y424000D01*
Y447000D01*
X63000Y442000D02*X48000Y457000D01*
G54D13*X22559Y465000D02*X14673Y472886D01*
G54D12*X23335Y404673D02*Y398665D01*
X26500Y395500D01*
X9555Y408555D02*X28000Y427000D01*
X9555Y404673D02*Y408555D01*
G54D13*X96500Y465000D02*X22559D01*
G54D12*X38000Y447000D02*X28000Y457000D01*
G54D15*X84500Y450500D02*X78000Y457000D01*
X53000Y483500D02*Y474000D01*
X83000Y469500D02*X78500D01*
X66000Y482000D01*
X53500D01*
G54D12*X102000Y422500D02*Y444000D01*
G54D13*X109900Y405400D02*X109500Y405000D01*
X117300Y405400D02*X109900D01*
G54D15*X118000Y433500D02*Y411500D01*
G54D12*X26500Y395500D02*X92000D01*
X59055Y404673D02*X57327D01*
X92000Y395500D02*X96000Y399500D01*
X72835Y404673D02*Y411665D01*
X63000Y421500D01*
G54D15*X161500Y427000D02*X146000D01*
G54D12*X131500Y457000D02*Y427000D01*
G54D15*X161500Y457000D02*X149000D01*
G54D13*X125600Y405500D02*X125500Y405400D01*
X132000Y405500D02*X125600D01*
G54D14*X125500Y401500D02*X121500D01*
G54D15*X134000Y415000D02*X126000D01*
X146000Y427000D02*X134000Y415000D01*
X142500Y463500D02*X149000Y457000D01*
X161500Y167000D02*X146000D01*
X134000Y155000D01*
G54D13*X125600Y145500D02*X125500Y145400D01*
G54D14*Y141500D02*X121500D01*
G54D13*X132000Y145500D02*X125600D01*
G54D12*X131500Y197000D02*Y167000D01*
G54D15*X134000Y155000D02*X126000D01*
X142500Y203500D02*X128000D01*
X142500D02*X149000Y197000D01*
X161500D02*X149000D01*
G54D13*X162043Y238043D02*Y243000D01*
X145957Y234000D02*X154957Y243000D01*
X144848Y237348D02*X146043Y238543D01*
Y243000D01*
X159500Y235500D02*X162043Y238043D01*
X127000Y234000D02*X145957D01*
X128724Y237348D02*X144848D01*
X138957Y243000D02*X126500D01*
X125575Y237348D02*Y235425D01*
X127000Y234000D01*
X125575Y230652D02*X128724D01*
X126500Y243000D02*X123000Y246500D01*
X121500Y234000D02*X122425Y234925D01*
Y237348D01*
X128724Y230652D02*Y226776D01*
X130500Y225000D02*Y217000D01*
X128724Y226776D02*X130500Y225000D01*
X123000Y215000D02*Y209500D01*
X124000Y225000D02*X122425Y226575D01*
Y230652D01*
G54D15*X161500Y37000D02*X146000D01*
X134000Y25000D01*
G54D13*X125600Y15500D02*X125500Y15400D01*
G54D14*Y11500D02*X121500D01*
G54D13*X132000Y15500D02*X125600D01*
G54D12*X131500Y67000D02*Y37000D01*
G54D15*X134000Y25000D02*X126000D01*
X142500Y73500D02*X128000D01*
X142500D02*X149000Y67000D01*
X161500D02*X149000D01*
G54D13*X128724Y100652D02*Y96776D01*
X130500Y95000D02*Y87000D01*
X128724Y96776D02*X130500Y95000D01*
X124000D02*X122425Y96575D01*
Y100652D01*
X119276Y93224D02*X133000Y79500D01*
X123000Y85000D02*Y79500D01*
X162043Y108043D02*Y113000D01*
X145957Y104000D02*X154957Y113000D01*
X144848Y107348D02*X146043Y108543D01*
Y113000D01*
X159500Y105500D02*X162043Y108043D01*
X127000Y104000D02*X145957D01*
X128724Y107348D02*X144848D01*
X138957Y113000D02*X126500D01*
X125575Y107348D02*Y105425D01*
X127000Y104000D01*
X125575Y100652D02*X128724D01*
X126500Y113000D02*X123000Y116500D01*
X121500Y104000D02*X122425Y104925D01*
Y107348D01*
G54D15*X34957Y363000D02*X30500D01*
X24000Y356500D01*
X14838D01*
X14673Y356665D01*
G54D12*X38000Y317000D02*X28000Y327000D01*
G54D15*X55914Y363000D02*Y356414D01*
X53000Y353500D01*
Y344000D01*
G54D14*X81900Y357600D02*Y349100D01*
G54D15*X66000Y352000D02*X53500D01*
G54D12*X38000Y294000D02*Y317000D01*
X63000Y312000D02*X48000Y327000D01*
G54D15*X113000Y339500D02*X103500Y349000D01*
Y365500D02*Y349000D01*
G54D13*X109000Y364000D02*Y359000D01*
X99000Y354500D02*Y344000D01*
X115152Y367348D02*X114000Y368500D01*
Y371500D01*
X99000Y344000D02*X98000Y343000D01*
Y336500D01*
X96500Y335000D01*
X22559D01*
X14673Y342886D01*
X85800Y346700D02*X93000Y339500D01*
G54D17*X81900Y362700D02*Y367900D01*
G54D14*Y357600D02*X81000Y358500D01*
X69500D01*
G54D13*X73500Y362500D02*X77800D01*
X78000Y362700D01*
G54D15*X75500Y368000D02*X71000Y372500D01*
G54D13*X73500Y354500D02*X78000D01*
G54D14*X69500Y358500D02*X68000Y360000D01*
Y367500D01*
X61000Y374500D01*
G54D17*X81900Y367900D02*X82000Y368000D01*
G54D15*X101000D02*X75500D01*
G54D13*X90000Y358000D02*X85800Y362200D01*
X90500Y363000D02*X95100D01*
G54D12*X57327Y274673D02*X38000Y294000D01*
X59055Y274673D02*X57327D01*
X23335D02*Y268665D01*
X26500Y265500D01*
X92000D01*
X9555Y278555D02*X28000Y297000D01*
X92000Y265500D02*X96000Y269500D01*
G54D14*X81900Y349100D02*X82000Y349000D01*
G54D13*X85800Y354500D02*Y346700D01*
G54D14*X81900Y340600D02*X83000Y339500D01*
G54D15*X78500D01*
X66000Y352000D01*
X84500Y320500D02*X78000Y327000D01*
X115500Y320500D02*X84500D01*
X63000Y363000D02*Y357000D01*
G54D13*X119276Y360652D02*Y353224D01*
X109000Y359000D02*X123000Y345000D01*
X124000Y355000D02*X122425Y356575D01*
Y360652D01*
X123000Y345000D02*Y339500D01*
G54D15*X101000Y368000D02*X103500Y365500D01*
G54D13*X111500Y376500D02*X102000Y367000D01*
X113500Y360500D02*X119276D01*
Y367348D02*X115152D01*
X121500Y364000D02*X122425Y364925D01*
Y367348D01*
X126500Y373000D02*X123000Y376500D01*
X111500D01*
X109000Y364000D02*X121500D01*
X125575Y360652D02*X128724D01*
Y356776D01*
X125575Y367348D02*Y365425D01*
X127000Y364000D01*
G54D12*X96000Y286500D02*X102000Y292500D01*
X96000Y269500D02*Y286500D01*
X102000Y292500D02*Y314000D01*
G54D15*X118000Y303500D02*Y281500D01*
G54D12*X63000Y291500D02*Y312000D01*
X72835Y274673D02*Y281665D01*
X63000Y291500D01*
G54D15*X111500Y285000D02*Y290000D01*
X106500D01*
X102000Y294500D01*
X161500Y297000D02*X146000D01*
X134000Y285000D01*
G54D13*X125600Y275500D02*X125500Y275400D01*
G54D14*Y271500D02*X121500D01*
G54D13*X132000Y275500D02*X125600D01*
G54D12*X131500Y327000D02*Y297000D01*
G54D15*X134000Y285000D02*X126000D01*
X142500Y333500D02*X128000D01*
X142500D02*X149000Y327000D01*
X161500D02*X149000D01*
G54D13*X162043Y368043D02*Y373000D01*
X145957Y364000D02*X154957Y373000D01*
X144848Y367348D02*X146043Y368543D01*
Y373000D01*
X159500Y365500D02*X162043Y368043D01*
X127000Y364000D02*X145957D01*
X128724Y367348D02*X144848D01*
X138957Y373000D02*X126500D01*
X130500Y355000D02*Y347000D01*
X128724Y356776D02*X130500Y355000D01*
X112500Y308500D02*X124500D01*
X109000Y351500D02*X118000Y342500D01*
Y336500D01*
X116500Y335000D01*
X107500D01*
X103000Y339500D01*
G54D15*X128000Y333500D02*X115500Y320500D01*
G54D16*X102000Y314500D02*X131000D01*
G54D13*X119276Y353224D02*X133000Y339500D01*
G54D12*X9555Y274673D02*Y278555D01*
Y18555D02*X28000Y37000D01*
X9555Y14673D02*Y18555D01*
X38000Y34000D02*Y57000D01*
G54D13*X109900Y275400D02*X109500Y275000D01*
X117300Y275400D02*X109900D01*
X123000Y246500D02*X111500D01*
X119276Y237348D02*X115152D01*
X119276Y230652D02*Y223224D01*
X115152Y237348D02*X114000Y238500D01*
Y241500D01*
X109000Y234000D02*X121500D01*
X109000D02*Y229000D01*
G54D15*X34957Y233000D02*X30500D01*
X24000Y226500D01*
X14838D01*
X14673Y226665D01*
X55914Y233000D02*Y226414D01*
X53000Y223500D01*
G54D14*X68000Y230000D02*Y237500D01*
X61000Y244500D01*
G54D15*X75500Y238000D02*X71000Y242500D01*
X63000Y233000D02*Y227000D01*
G54D13*X90500Y233000D02*X95100D01*
G54D15*X101000Y238000D02*X75500D01*
G54D13*X111500Y246500D02*X102000Y237000D01*
X111500Y116500D02*X102000Y107000D01*
X114000Y108500D02*Y111500D01*
G54D15*X118000Y43500D02*Y21500D01*
X111500Y25000D02*Y30000D01*
X106500D01*
X102000Y34500D01*
G54D13*X123000Y116500D02*X111500D01*
X119276Y107348D02*X115152D01*
X109000Y104000D02*X121500D01*
X115152Y107348D02*X114000Y108500D01*
X113500Y100500D02*X119276D01*
Y100652D02*Y93224D01*
X109000Y104000D02*Y99000D01*
X123000Y85000D01*
X90000Y228000D02*X85800Y232200D01*
X90000Y98000D02*X85800Y102200D01*
X90500Y103000D02*X95100D01*
G54D15*X101000Y108000D02*X75500D01*
X66000Y92000D02*X53500D01*
X63000Y103000D02*Y97000D01*
G54D12*Y52000D02*X48000Y67000D01*
X72835Y14673D02*Y21665D01*
X63000Y31500D01*
G54D15*X75500Y108000D02*X71000Y112500D01*
X113000Y209500D02*X103500Y219000D01*
Y235500D02*Y219000D01*
X101000Y238000D02*X103500Y235500D01*
G54D13*X109000Y221500D02*X118000Y212500D01*
Y206500D01*
X116500Y205000D01*
X107500D01*
G54D15*X128000Y203500D02*X115500Y190500D01*
G54D13*X109000Y229000D02*X123000Y215000D01*
X99000Y224500D02*Y214000D01*
X98000Y213000D01*
Y206500D01*
X96500Y205000D01*
X107500D02*X103000Y209500D01*
X113500Y230500D02*X119276D01*
Y223224D02*X133000Y209500D01*
G54D15*X53000Y223500D02*Y214000D01*
G54D13*X96500Y205000D02*X22559D01*
X14673Y212886D01*
G54D12*X38000Y187000D02*X28000Y197000D01*
G54D15*X78500Y209500D02*X66000Y222000D01*
X53500D01*
G54D17*X81900Y232700D02*Y237900D01*
G54D14*Y227600D02*X81000Y228500D01*
G54D17*X81900Y237900D02*X82000Y238000D01*
G54D14*X81900Y227600D02*Y219100D01*
X69500Y228500D02*X68000Y230000D01*
X81000Y228500D02*X69500D01*
G54D13*X73500Y232500D02*X77800D01*
X78000Y232700D01*
X85800Y216700D02*X93000Y209500D01*
X73500Y224500D02*X78000D01*
G54D14*X81900Y219100D02*X82000Y219000D01*
G54D13*X85800Y224500D02*Y216700D01*
G54D14*X81900Y210600D02*X83000Y209500D01*
G54D15*X84500Y190500D02*X78000Y197000D01*
X83000Y209500D02*X78500D01*
G54D12*X63000Y182000D02*X48000Y197000D01*
G54D13*X112500Y178500D02*X124500D01*
G54D15*X115500Y190500D02*X84500D01*
G54D16*X102000Y184500D02*X131000D01*
G54D12*X96000Y156500D02*X102000Y162500D01*
Y184000D01*
G54D15*X118000Y173500D02*Y151500D01*
X111500Y155000D02*Y160000D01*
X106500D01*
X102000Y164500D01*
G54D12*X96000Y139500D02*Y156500D01*
G54D13*X109900Y145400D02*X109500Y145000D01*
X117300Y145400D02*X109900D01*
G54D12*X92000Y135500D02*X96000Y139500D01*
X63000Y161500D02*Y182000D01*
X57327Y144673D02*X38000Y164000D01*
X72835Y144673D02*Y151665D01*
X63000Y161500D01*
X9555Y148555D02*X28000Y167000D01*
X9555Y144673D02*Y148555D01*
X38000Y164000D02*Y187000D01*
X23335Y144673D02*Y138665D01*
X26500Y135500D01*
X92000D01*
X59055Y144673D02*X57327D01*
G54D15*X34957Y103000D02*X30500D01*
X24000Y96500D01*
X14838D01*
X14673Y96665D01*
G54D13*X22559Y75000D02*X14673Y82886D01*
G54D12*X38000Y57000D02*X28000Y67000D01*
G54D17*X81900Y102700D02*Y107900D01*
G54D14*Y89100D02*X82000Y89000D01*
G54D13*X85800Y94500D02*Y86700D01*
G54D17*X81900Y107900D02*X82000Y108000D01*
G54D14*X81900Y80600D02*X83000Y79500D01*
G54D15*X78500D01*
X84500Y60500D02*X78000Y67000D01*
G54D14*X81900Y97600D02*Y89100D01*
G54D15*X55914Y103000D02*Y96414D01*
X53000Y93500D01*
Y84000D01*
G54D14*X68000Y100000D02*Y107500D01*
X61000Y114500D01*
G54D12*X63000Y31500D02*Y52000D01*
G54D13*X112500Y48500D02*X124500D01*
G54D15*X115500Y60500D02*X84500D01*
G54D12*X96000Y26500D02*X102000Y32500D01*
G54D13*X109900Y15400D02*X109500Y15000D01*
X117300Y15400D02*X109900D01*
G54D12*X102000Y32500D02*Y54000D01*
X96000Y9500D02*Y26500D01*
X57327Y14673D02*X38000Y34000D01*
X23335Y14673D02*Y8665D01*
X26500Y5500D01*
X92000D01*
X59055Y14673D02*X57327D01*
X92000Y5500D02*X96000Y9500D01*
G54D15*X113000Y79500D02*X103500Y89000D01*
G54D13*X99000Y94500D02*Y84000D01*
X98000Y83000D01*
Y76500D01*
X96500Y75000D01*
X107500D02*X103000Y79500D01*
G54D15*X101000Y108000D02*X103500Y105500D01*
Y89000D01*
G54D13*X109000Y91500D02*X118000Y82500D01*
Y76500D01*
X116500Y75000D01*
G54D15*X128000Y73500D02*X115500Y60500D01*
G54D16*X102000Y54500D02*X131000D01*
G54D13*X116500Y75000D02*X107500D01*
G54D14*X69500Y98500D02*X68000Y100000D01*
X81900Y97600D02*X81000Y98500D01*
X69500D01*
G54D13*X73500Y94500D02*X78000D01*
X73500Y102500D02*X77800D01*
X78000Y102700D01*
X96500Y75000D02*X22559D01*
X85800Y86700D02*X93000Y79500D01*
G54D15*X78500D02*X66000Y92000D01*
G54D18*X91500Y557000D03*
X111500D03*
X78000D03*
G54D11*G36*
Y507500D02*Y501500D01*
X84000D01*
Y507500D01*
X78000D01*
G37*
G54D16*X71000Y503500D03*
X61000Y504500D03*
G54D19*X153000Y536000D03*
G54D18*X131500Y557000D03*
X161500D03*
G54D19*X153000Y479000D03*
G54D11*G36*
X130000Y472500D02*Y466500D01*
X136000D01*
Y472500D01*
X130000D01*
G37*
G54D16*X123000Y469500D03*
G54D11*G36*
X158100Y460400D02*Y453600D01*
X164900D01*
Y460400D01*
X158100D01*
G37*
G54D18*X131500Y457000D03*
G54D11*G36*
X55055Y668673D02*Y660673D01*
X63055D01*
Y668673D01*
X55055D01*
G37*
G54D20*X72835Y664673D03*
X86614D03*
G54D18*X91500Y687000D03*
X78000D03*
X111500D03*
G54D16*X113000Y599500D03*
X103000D03*
X93000D03*
G54D20*X86614Y534673D03*
G54D16*X83000Y599500D03*
G54D11*G36*
X78000Y637500D02*Y631500D01*
X84000D01*
Y637500D01*
X78000D01*
G37*
G54D16*X71000Y633500D03*
X61000Y634500D03*
G54D18*X111500Y587000D03*
X91500D03*
G54D11*G36*
X74600Y590400D02*Y583600D01*
X81400D01*
Y590400D01*
X74600D01*
G37*
G54D19*X153000Y666000D03*
Y739000D03*
G54D11*G36*
X158100Y720400D02*Y713600D01*
X164900D01*
Y720400D01*
X158100D01*
G37*
G54D18*X161500Y687000D03*
G54D11*G36*
X130000Y732500D02*Y726500D01*
X136000D01*
Y732500D01*
X130000D01*
G37*
G54D18*X131500Y717000D03*
G54D16*X123000Y729500D03*
G54D18*X131500Y687000D03*
G54D19*X153000Y609000D03*
G54D11*G36*
X130000Y602500D02*Y596500D01*
X136000D01*
Y602500D01*
X130000D01*
G37*
G54D16*X123000Y599500D03*
G54D11*G36*
X158100Y590400D02*Y583600D01*
X164900D01*
Y590400D01*
X158100D01*
G37*
G54D18*X131500Y587000D03*
G54D11*G36*
X39063Y737937D02*Y730063D01*
X46937D01*
Y737937D01*
X39063D01*
G37*
G36*
X10673Y764445D02*Y756445D01*
X18673D01*
Y764445D01*
X10673D01*
G37*
G54D20*X14673Y746665D03*
Y732886D03*
G54D16*X113000Y729500D03*
X103000D03*
X93000D03*
G54D18*X111500Y717000D03*
X91500D03*
G54D21*X63000Y734000D03*
X53000D03*
G54D16*X83000Y729500D03*
G54D18*X48000Y717000D03*
X28000D03*
X8000D03*
G54D11*G36*
X74600Y720400D02*Y713600D01*
X81400D01*
Y720400D01*
X74600D01*
G37*
G36*
X78000Y767500D02*Y761500D01*
X84000D01*
Y767500D01*
X78000D01*
G37*
G54D16*X71000Y763500D03*
X61000Y764500D03*
G54D11*G36*
X5555Y668673D02*Y660673D01*
X13555D01*
Y668673D01*
X5555D01*
G37*
G54D18*X8000Y687000D03*
X28000D03*
G54D11*G36*
X55055Y538673D02*Y530673D01*
X63055D01*
Y538673D01*
X55055D01*
G37*
G54D21*X63000Y604000D03*
X53000D03*
G54D11*G36*
X39063Y607937D02*Y600063D01*
X46937D01*
Y607937D01*
X39063D01*
G37*
G54D18*X48000Y587000D03*
Y557000D03*
G54D20*X72835Y534673D03*
G54D11*G36*
X5555Y538673D02*Y530673D01*
X13555D01*
Y538673D01*
X5555D01*
G37*
G54D20*X23335Y534673D03*
X37114D03*
X23335Y664673D03*
X37114D03*
G54D18*X48000Y687000D03*
G54D11*G36*
X10673Y634445D02*Y626445D01*
X18673D01*
Y634445D01*
X10673D01*
G37*
G54D20*X14673Y616665D03*
G54D11*G36*
X10673Y504445D02*Y496445D01*
X18673D01*
Y504445D01*
X10673D01*
G37*
G54D20*X14673Y486665D03*
Y472886D03*
Y602886D03*
G54D18*X28000Y587000D03*
X8000D03*
Y557000D03*
X28000D03*
G54D11*G36*
X55055Y408673D02*Y400673D01*
X63055D01*
Y408673D01*
X55055D01*
G37*
G54D20*X72835Y404673D03*
X37114D03*
X86614D03*
G54D18*X91500Y427000D03*
X111500D03*
G54D16*X113000Y469500D03*
X103000D03*
X93000D03*
G54D18*X111500Y457000D03*
X91500D03*
G54D11*G36*
X74600Y460400D02*Y453600D01*
X81400D01*
Y460400D01*
X74600D01*
G37*
G54D18*X48000Y427000D03*
X78000D03*
G54D21*X63000Y474000D03*
G54D16*X83000Y469500D03*
G54D21*X53000Y474000D03*
G54D18*X48000Y457000D03*
X28000D03*
X8000D03*
G54D11*G36*
X39063Y477937D02*Y470063D01*
X46937D01*
Y477937D01*
X39063D01*
G37*
G36*
X5555Y408673D02*Y400673D01*
X13555D01*
Y408673D01*
X5555D01*
G37*
G54D20*X23335Y404673D03*
G54D18*X8000Y427000D03*
X28000D03*
G54D11*G36*
X10673Y374445D02*Y366445D01*
X18673D01*
Y374445D01*
X10673D01*
G37*
G54D20*X14673Y356665D03*
Y342886D03*
G54D16*X93000Y339500D03*
X83000D03*
G54D18*X91500Y327000D03*
G54D11*G36*
X74600Y330400D02*Y323600D01*
X81400D01*
Y330400D01*
X74600D01*
G37*
G36*
X78000Y377500D02*Y371500D01*
X84000D01*
Y377500D01*
X78000D01*
G37*
G54D16*X71000Y373500D03*
X61000Y374500D03*
G54D11*G36*
X55055Y278673D02*Y270673D01*
X63055D01*
Y278673D01*
X55055D01*
G37*
G54D21*X63000Y344000D03*
X53000D03*
G54D11*G36*
X39063Y347937D02*Y340063D01*
X46937D01*
Y347937D01*
X39063D01*
G37*
G54D18*X48000Y327000D03*
Y297000D03*
G54D20*X72835Y274673D03*
X86614D03*
G54D18*X91500Y297000D03*
X78000D03*
G54D11*G36*
X5555Y278673D02*Y270673D01*
X13555D01*
Y278673D01*
X5555D01*
G37*
G54D18*X8000Y297000D03*
G54D20*X23335Y274673D03*
G54D18*X28000Y297000D03*
G54D20*X37114Y274673D03*
G54D18*X28000Y327000D03*
X8000D03*
G54D19*X153000Y406000D03*
G54D18*X131500Y427000D03*
X161500D03*
G54D19*X153000Y349000D03*
G54D11*G36*
X158100Y330400D02*Y323600D01*
X164900D01*
Y330400D01*
X158100D01*
G37*
G54D18*X131500Y327000D03*
G54D11*G36*
X130000Y342500D02*Y336500D01*
X136000D01*
Y342500D01*
X130000D01*
G37*
G54D16*X123000Y339500D03*
X113000D03*
X103000D03*
G54D19*X153000Y276000D03*
G54D18*X111500Y327000D03*
Y297000D03*
X131500D03*
X161500D03*
G54D19*X153000Y219000D03*
G54D11*G36*
X158100Y200400D02*Y193600D01*
X164900D01*
Y200400D01*
X158100D01*
G37*
G36*
X130000Y212500D02*Y206500D01*
X136000D01*
Y212500D01*
X130000D01*
G37*
G54D16*X123000Y209500D03*
X113000D03*
X103000D03*
G54D18*X131500Y197000D03*
X111500D03*
G54D21*X53000Y214000D03*
G54D18*X48000Y197000D03*
X28000D03*
G54D16*X83000Y209500D03*
G54D11*G36*
X74600Y200400D02*Y193600D01*
X81400D01*
Y200400D01*
X74600D01*
G37*
G36*
X78000Y247500D02*Y241500D01*
X84000D01*
Y247500D01*
X78000D01*
G37*
G54D16*X71000Y243500D03*
G54D11*G36*
X10673Y244445D02*Y236445D01*
X18673D01*
Y244445D01*
X10673D01*
G37*
G54D20*X14673Y226665D03*
Y212886D03*
G54D18*X8000Y197000D03*
G54D11*G36*
X55055Y148673D02*Y140673D01*
X63055D01*
Y148673D01*
X55055D01*
G37*
G36*
X5555D02*Y140673D01*
X13555D01*
Y148673D01*
X5555D01*
G37*
G54D20*X23335Y144673D03*
X37114D03*
X72835D03*
X86614D03*
G54D19*X153000Y146000D03*
G54D18*X91500Y167000D03*
X8000D03*
X28000D03*
X48000D03*
X78000D03*
X111500D03*
X131500D03*
X161500D03*
G54D21*X63000Y214000D03*
G54D16*X61000Y244500D03*
G54D11*G36*
X39063Y217937D02*Y210063D01*
X46937D01*
Y217937D01*
X39063D01*
G37*
G36*
Y87937D02*Y80063D01*
X46937D01*
Y87937D01*
X39063D01*
G37*
G54D18*X48000Y67000D03*
G54D16*X93000Y209500D03*
G54D18*X91500Y197000D03*
G54D11*G36*
X78000Y117500D02*Y111500D01*
X84000D01*
Y117500D01*
X78000D01*
G37*
G36*
X55055Y18673D02*Y10673D01*
X63055D01*
Y18673D01*
X55055D01*
G37*
G54D20*X72835Y14673D03*
G54D21*X63000Y84000D03*
X53000D03*
G54D16*X71000Y113500D03*
X61000Y114500D03*
G54D19*X153000Y16000D03*
Y89000D03*
G54D11*G36*
X158100Y70400D02*Y63600D01*
X164900D01*
Y70400D01*
X158100D01*
G37*
G36*
X130000Y82500D02*Y76500D01*
X136000D01*
Y82500D01*
X130000D01*
G37*
G54D16*X123000Y79500D03*
X113000D03*
X103000D03*
G54D18*X131500Y67000D03*
X111500D03*
Y37000D03*
X131500D03*
X161500D03*
G54D11*G36*
X10673Y114445D02*Y106445D01*
X18673D01*
Y114445D01*
X10673D01*
G37*
G54D20*X14673Y96665D03*
Y82886D03*
G54D18*X28000Y67000D03*
X8000D03*
G54D20*X86614Y14673D03*
G54D18*X91500Y37000D03*
X78000D03*
G54D11*G36*
X5555Y18673D02*Y10673D01*
X13555D01*
Y18673D01*
X5555D01*
G37*
G54D20*X23335Y14673D03*
X37114D03*
G54D18*X8000Y37000D03*
X28000D03*
X48000D03*
G54D16*X93000Y79500D03*
X83000D03*
G54D18*X91500Y67000D03*
G54D11*G36*
X74600Y70400D02*Y63600D01*
X81400D01*
Y70400D01*
X74600D01*
G37*
G54D22*X102900Y623000D02*Y622400D01*
G54D23*X119276Y621587D02*Y619717D01*
X122425Y621587D02*Y619717D01*
X125575Y621587D02*Y619717D01*
X128724Y621587D02*Y619717D01*
G54D22*X95100Y623000D02*Y622400D01*
X99000Y614800D02*Y614200D01*
G54D24*X124700Y661500D02*X126300D01*
X124700Y665400D02*X126300D01*
X124700Y669300D02*X126300D01*
X116500D02*X118100D01*
X116500Y665400D02*X118100D01*
X116500Y661500D02*X118100D01*
G54D25*X154957Y633393D02*Y632607D01*
X162043Y633393D02*Y632607D01*
X146043Y633393D02*Y632607D01*
X138957Y633393D02*Y632607D01*
G54D23*X128724Y628283D02*Y626413D01*
X125575Y628283D02*Y626413D01*
X122425Y628283D02*Y626413D01*
X119276Y628283D02*Y626413D01*
G54D25*X63000Y623393D02*Y622607D01*
X55914Y623393D02*Y622607D01*
X42043Y623393D02*Y622607D01*
G54D26*X47000Y634500D02*Y632500D01*
G54D25*X34957Y623393D02*Y622607D01*
G54D26*X34000Y634500D02*Y632500D01*
G54D24*X78000Y615300D02*Y613700D01*
X81900Y615300D02*Y613700D01*
X85800Y615300D02*Y613700D01*
Y623500D02*Y621900D01*
X81900Y623500D02*Y621900D01*
X78000Y623500D02*Y621900D01*
G54D22*X102900Y753000D02*Y752400D01*
X95100Y753000D02*Y752400D01*
X99000Y744800D02*Y744200D01*
G54D25*X63000Y753393D02*Y752607D01*
X55914Y753393D02*Y752607D01*
X42043Y753393D02*Y752607D01*
X34957Y753393D02*Y752607D01*
G54D26*X34000Y764500D02*Y762500D01*
X47000Y764500D02*Y762500D01*
G54D25*X154957Y763393D02*Y762607D01*
X162043Y763393D02*Y762607D01*
X146043Y763393D02*Y762607D01*
X138957Y763393D02*Y762607D01*
G54D23*X128724Y758283D02*Y756413D01*
X125575Y758283D02*Y756413D01*
X122425Y758283D02*Y756413D01*
X119276Y758283D02*Y756413D01*
Y751587D02*Y749717D01*
X122425Y751587D02*Y749717D01*
X125575Y751587D02*Y749717D01*
X128724Y751587D02*Y749717D01*
G54D24*X78000Y745300D02*Y743700D01*
X81900Y745300D02*Y743700D01*
X85800Y745300D02*Y743700D01*
Y753500D02*Y751900D01*
X81900Y753500D02*Y751900D01*
X78000Y753500D02*Y751900D01*
X124700Y531500D02*X126300D01*
X124700Y535400D02*X126300D01*
X124700Y539300D02*X126300D01*
X116500D02*X118100D01*
X116500Y535400D02*X118100D01*
X116500Y531500D02*X118100D01*
G54D25*X42043Y493393D02*Y492607D01*
X34957Y493393D02*Y492607D01*
G54D26*X34000Y504500D02*Y502500D01*
X47000Y504500D02*Y502500D01*
G54D24*X78000Y485300D02*Y483700D01*
X81900Y485300D02*Y483700D01*
X85800Y485300D02*Y483700D01*
Y493500D02*Y491900D01*
X81900Y493500D02*Y491900D01*
X78000Y493500D02*Y491900D01*
G54D25*X63000Y493393D02*Y492607D01*
X55914Y493393D02*Y492607D01*
G54D22*X102900Y493000D02*Y492400D01*
X95100Y493000D02*Y492400D01*
X99000Y484800D02*Y484200D01*
G54D25*X154957Y503393D02*Y502607D01*
X146043Y503393D02*Y502607D01*
X162043Y503393D02*Y502607D01*
X138957Y503393D02*Y502607D01*
G54D23*X128724Y498283D02*Y496413D01*
X125575Y498283D02*Y496413D01*
X122425Y498283D02*Y496413D01*
X119276Y498283D02*Y496413D01*
X128724Y491587D02*Y489717D01*
G54D24*X124700Y401500D02*X126300D01*
X124700Y405400D02*X126300D01*
X124700Y409300D02*X126300D01*
X116500D02*X118100D01*
X116500Y405400D02*X118100D01*
X116500Y401500D02*X118100D01*
G54D23*X119276Y491587D02*Y489717D01*
X122425Y491587D02*Y489717D01*
X125575Y491587D02*Y489717D01*
G54D25*X55914Y363393D02*Y362607D01*
X42043Y363393D02*Y362607D01*
X34957Y363393D02*Y362607D01*
G54D26*X34000Y374500D02*Y372500D01*
X47000Y374500D02*Y372500D01*
G54D25*X63000Y233393D02*Y232607D01*
X55914Y233393D02*Y232607D01*
X42043Y233393D02*Y232607D01*
X34957Y233393D02*Y232607D01*
G54D26*X34000Y244500D02*Y242500D01*
X47000Y244500D02*Y242500D01*
G54D22*X102900Y233000D02*Y232400D01*
X95100Y233000D02*Y232400D01*
X99000Y224800D02*Y224200D01*
G54D24*X78000Y225300D02*Y223700D01*
X81900Y225300D02*Y223700D01*
X85800Y225300D02*Y223700D01*
Y233500D02*Y231900D01*
X81900Y233500D02*Y231900D01*
X78000Y233500D02*Y231900D01*
G54D25*X63000Y363393D02*Y362607D01*
G54D22*X102900Y363000D02*Y362400D01*
X95100Y363000D02*Y362400D01*
X99000Y354800D02*Y354200D01*
G54D24*X78000Y355300D02*Y353700D01*
X81900Y355300D02*Y353700D01*
X85800Y355300D02*Y353700D01*
Y363500D02*Y361900D01*
X81900Y363500D02*Y361900D01*
X78000Y363500D02*Y361900D01*
X124700Y271500D02*X126300D01*
X124700Y275400D02*X126300D01*
X124700Y279300D02*X126300D01*
X116500D02*X118100D01*
X116500Y275400D02*X118100D01*
X116500Y271500D02*X118100D01*
G54D25*X154957Y373393D02*Y372607D01*
Y243393D02*Y242607D01*
X146043Y243393D02*Y242607D01*
X138957Y243393D02*Y242607D01*
X162043Y373393D02*Y372607D01*
Y243393D02*Y242607D01*
G54D23*X128724Y238283D02*Y236413D01*
G54D25*X146043Y373393D02*Y372607D01*
X138957Y373393D02*Y372607D01*
G54D23*X128724Y368283D02*Y366413D01*
X125575Y368283D02*Y366413D01*
X122425Y368283D02*Y366413D01*
X119276Y368283D02*Y366413D01*
Y361587D02*Y359717D01*
X122425Y361587D02*Y359717D01*
X125575Y361587D02*Y359717D01*
X128724Y361587D02*Y359717D01*
G54D24*X116500Y149300D02*X118100D01*
G54D25*X154957Y113393D02*Y112607D01*
X162043Y113393D02*Y112607D01*
X146043Y113393D02*Y112607D01*
X138957Y113393D02*Y112607D01*
G54D24*X124700Y141500D02*X126300D01*
X124700Y145400D02*X126300D01*
X124700Y149300D02*X126300D01*
X116500Y145400D02*X118100D01*
X116500Y141500D02*X118100D01*
G54D23*X125575Y238283D02*Y236413D01*
X122425Y238283D02*Y236413D01*
Y101587D02*Y99717D01*
X125575Y101587D02*Y99717D01*
X128724Y101587D02*Y99717D01*
X119276Y238283D02*Y236413D01*
Y231587D02*Y229717D01*
G54D24*X116500Y19300D02*X118100D01*
X116500Y15400D02*X118100D01*
X116500Y11500D02*X118100D01*
G54D23*X119276Y108283D02*Y106413D01*
Y101587D02*Y99717D01*
X122425Y231587D02*Y229717D01*
X125575Y231587D02*Y229717D01*
X128724Y231587D02*Y229717D01*
G54D25*X63000Y103393D02*Y102607D01*
X55914Y103393D02*Y102607D01*
X42043Y103393D02*Y102607D01*
X34957Y103393D02*Y102607D01*
G54D26*X34000Y114500D02*Y112500D01*
X47000Y114500D02*Y112500D01*
G54D24*X124700Y11500D02*X126300D01*
X124700Y15400D02*X126300D01*
X124700Y19300D02*X126300D01*
G54D23*X128724Y108283D02*Y106413D01*
X125575Y108283D02*Y106413D01*
X122425Y108283D02*Y106413D01*
G54D22*X102900Y103000D02*Y102400D01*
X95100Y103000D02*Y102400D01*
X99000Y94800D02*Y94200D01*
G54D24*X78000Y95300D02*Y93700D01*
X81900Y95300D02*Y93700D01*
X85800Y95300D02*Y93700D01*
Y103500D02*Y101900D01*
X81900Y103500D02*Y101900D01*
X78000Y103500D02*Y101900D01*
G54D15*X132000Y665500D03*
Y535500D03*
X104000Y530000D03*
X109500Y535000D03*
X159500Y625500D03*
Y495500D03*
X112500Y568500D03*
X118000Y554500D03*
Y559000D03*
Y563500D03*
X111500Y550000D03*
Y545000D03*
X73500Y614500D03*
Y622500D03*
X63000Y617000D03*
X82000Y609000D03*
X91500Y606000D03*
X90500Y623000D03*
X90000Y618000D03*
X104000Y660000D03*
Y400000D03*
X124500Y568500D03*
Y438500D03*
X132000Y405500D03*
X130500Y477000D03*
X124000Y485000D03*
X109000Y611500D03*
X130500Y607000D03*
X73500Y744500D03*
Y752500D03*
X82000Y739000D03*
X63000Y747000D03*
X109000Y741500D03*
X91500Y736000D03*
X130500Y737000D03*
X159500Y755500D03*
X113500Y750500D03*
X124000Y745000D03*
X114000Y761500D03*
X109000Y754000D03*
X90500Y753000D03*
X90000Y748000D03*
X124500Y698500D03*
X124000Y615000D03*
X109500Y665000D03*
X112500Y698500D03*
X118000Y684500D03*
Y689000D03*
Y693500D03*
X111500Y680000D03*
Y675000D03*
X113500Y620500D03*
X114000Y631500D03*
X109000Y624000D03*
Y481500D03*
X109500Y405000D03*
X112500Y438500D03*
X118000Y424500D03*
Y429000D03*
Y433500D03*
X159500Y365500D03*
X114000Y371500D03*
X111500Y420000D03*
Y415000D03*
X113500Y490500D03*
X114000Y501500D03*
X109000Y494000D03*
Y351500D03*
X130500Y347000D03*
X113500Y360500D03*
X109000Y364000D03*
X124000Y355000D03*
X73500Y484500D03*
X63000Y487000D03*
X73500Y492500D03*
X90500Y493000D03*
X82000Y479000D03*
X73500Y354500D03*
Y362500D03*
X82000Y349000D03*
X63000Y357000D03*
X91500Y476000D03*
X90000Y488000D03*
X91500Y346000D03*
X90500Y363000D03*
X90000Y358000D03*
X124500Y308500D03*
X112500D03*
X118000Y294500D03*
Y299000D03*
Y303500D03*
X111500Y290000D03*
X109500Y275000D03*
X111500Y285000D03*
X132000Y275500D03*
X124500Y178500D03*
X130500Y217000D03*
X124000Y225000D03*
X109000Y221500D03*
X113500Y230500D03*
X114000Y241500D03*
X109000Y234000D03*
X104000Y270000D03*
Y140000D03*
Y10000D03*
X112500Y178500D03*
X118000Y164500D03*
Y169000D03*
Y173500D03*
X113500Y100500D03*
X114000Y111500D03*
X109000Y104000D03*
X124000Y95000D03*
X73500Y224500D03*
Y232500D03*
X63000Y227000D03*
X82000Y219000D03*
X91500Y216000D03*
X90500Y233000D03*
X90000Y228000D03*
X73500Y94500D03*
Y102500D03*
X82000Y89000D03*
X91500Y86000D03*
X90000Y98000D03*
X63000Y97000D03*
X90500Y103000D03*
X109500Y145000D03*
X111500Y160000D03*
Y155000D03*
X109000Y91500D03*
X109500Y15000D03*
X132000Y145500D03*
X124500Y48500D03*
X132000Y15500D03*
X130500Y87000D03*
X112500Y48500D03*
X118000Y34500D03*
Y39000D03*
Y43500D03*
X111500Y30000D03*
Y25000D03*
X159500Y235500D03*
Y105500D03*
G54D14*G54D27*G54D14*G54D27*G54D14*G54D27*G54D14*G54D27*G54D14*G54D27*G54D14*G54D27*G54D14*G54D27*G54D14*G54D27*G54D14*G54D27*G54D14*G54D27*G54D14*G54D27*G54D28*G54D29*G54D28*G54D29*G54D28*G54D30*G54D28*G54D30*G54D28*G54D29*G54D28*G54D29*G54D28*G54D31*G54D30*G54D28*G54D31*G54D28*G54D30*G54D28*G54D30*G54D31*G54D28*G54D30*G54D28*G54D30*G54D28*G54D30*G54D28*G54D31*G54D28*G54D31*G54D28*G54D31*G54D30*G54D28*G54D30*G54D28*G54D30*G54D31*G54D28*G54D30*G54D28*G54D30*G54D28*G54D30*G54D28*G54D30*G54D28*G54D29*G54D28*G54D29*G54D28*G54D29*G54D28*G54D29*G54D28*G54D31*G54D28*G54D30*G54D28*G54D30*G54D29*G54D28*G54D31*G54D28*G54D31*G54D28*G54D30*G54D31*G54D28*G54D29*G54D28*G54D30*G54D28*G54D30*G54D28*G54D30*G54D28*M02*
