M48
INCH
T50C0.020
T49C0.035
T48C0.038
T47C0.125
T46C0.042
T45C0.110
T44C0.129
%
T50
X009200Y003750
X010500Y010300
X011800Y017650
X012800Y017100
X013500Y004400
X014800Y017650
X016050Y017100
T49
X001540Y013850
X001540Y011980
X003900Y013850
X003900Y011980
T48
X004950Y018600
X005950Y018600
X006950Y018600
X010800Y018600
X011800Y018600
X012800Y018600
X013800Y018600
X014800Y018600
X015800Y018600
T46
X006456Y001567
X006967Y011144
X006967Y009766
X006967Y008389
X007834Y001567
X009211Y001567
X011406Y001567
X011600Y011550
X012600Y011450
X012784Y001567
X013600Y011550
X013800Y008050
X014161Y001567
X014800Y008050
X015800Y008050
X016800Y008050
X017800Y008050
X018800Y008050
T45
X018300Y016750
X019500Y014850
T47
X017100Y014850
T44
X001700Y018300
X001700Y001700
X020800Y018300
X020800Y009000
X020800Y001700
M30
