G04 start of page 3 for group 1 idx 1 *
G04 Title: (unknown), bottom *
G04 Creator: pcb 20140316 *
G04 CreationDate: Mon 19 Dec 2016 04:58:44 AM GMT UTC *
G04 For: railfan *
G04 Format: Gerber/RS-274X *
G04 PCB-Dimensions (mil): 2250.00 2000.00 *
G04 PCB-Coordinate-Origin: lower left *
%MOIN*%
%FSLAX25Y25*%
%LNBOTTOM*%
%ADD42C,0.0350*%
%ADD41C,0.0380*%
%ADD40C,0.1250*%
%ADD39C,0.0420*%
%ADD38C,0.1100*%
%ADD37C,0.1285*%
%ADD36C,0.0200*%
%ADD35C,0.0650*%
%ADD34C,0.0600*%
%ADD33C,0.1750*%
%ADD32C,0.1500*%
%ADD31C,0.2937*%
%ADD30C,0.0100*%
%ADD29C,0.0400*%
%ADD28C,0.0300*%
%ADD27C,0.0001*%
G54D27*G36*
X190155Y169745D02*X190319Y169138D01*
X190435Y168488D01*
X190493Y167830D01*
Y167170D01*
X190435Y166512D01*
X190319Y165862D01*
X190155Y165255D01*
Y169745D01*
G37*
G36*
X202155Y150745D02*X202319Y150138D01*
X202435Y149488D01*
X202493Y148830D01*
Y148170D01*
X202435Y147512D01*
X202319Y146862D01*
X202155Y146255D01*
Y150745D01*
G37*
G36*
Y75445D02*X203138Y75038D01*
X205539Y74461D01*
X208000Y74268D01*
X210461Y74461D01*
X212862Y75038D01*
X215142Y75982D01*
X217247Y77272D01*
X219124Y78876D01*
X220728Y80753D01*
X222018Y82858D01*
X222500Y84022D01*
Y22978D01*
X222018Y24142D01*
X220728Y26247D01*
X219124Y28124D01*
X217247Y29728D01*
X215142Y31018D01*
X212862Y31962D01*
X210461Y32539D01*
X208000Y32732D01*
X205539Y32539D01*
X203138Y31962D01*
X202155Y31555D01*
Y75445D01*
G37*
G36*
Y168445D02*X203138Y168038D01*
X205539Y167461D01*
X208000Y167268D01*
X210461Y167461D01*
X212862Y168038D01*
X215142Y168982D01*
X217247Y170272D01*
X219124Y171876D01*
X220728Y173753D01*
X222018Y175858D01*
X222500Y177022D01*
Y95978D01*
X222018Y97142D01*
X220728Y99247D01*
X219124Y101124D01*
X217247Y102728D01*
X215142Y104018D01*
X212862Y104962D01*
X210461Y105539D01*
X208000Y105732D01*
X205539Y105539D01*
X203138Y104962D01*
X202155Y104555D01*
Y143896D01*
X202530Y144539D01*
X202849Y145216D01*
X203107Y145919D01*
X203303Y146642D01*
X203434Y147380D01*
X203500Y148126D01*
Y148874D01*
X203434Y149621D01*
X203303Y150358D01*
X203107Y151081D01*
X202849Y151784D01*
X202530Y152461D01*
X202155Y153104D01*
Y168445D01*
G37*
G36*
X190155Y197500D02*X202022D01*
X200858Y197018D01*
X198753Y195728D01*
X196876Y194124D01*
X195272Y192247D01*
X193982Y190142D01*
X193038Y187862D01*
X192461Y185461D01*
X192268Y183000D01*
X192461Y180539D01*
X193038Y178138D01*
X193982Y175858D01*
X195272Y173753D01*
X196876Y171876D01*
X198753Y170272D01*
X200858Y168982D01*
X202155Y168445D01*
Y153104D01*
X202152Y153108D01*
X201719Y153719D01*
X201666Y153779D01*
X201604Y153828D01*
X201534Y153868D01*
X201460Y153896D01*
X201381Y153912D01*
X201302Y153916D01*
X201222Y153907D01*
X201145Y153886D01*
X201073Y153853D01*
X201006Y153809D01*
X200947Y153756D01*
X200897Y153693D01*
X200857Y153624D01*
X200829Y153549D01*
X200813Y153471D01*
X200809Y153391D01*
X200818Y153312D01*
X200839Y153235D01*
X200872Y153162D01*
X200917Y153096D01*
X201305Y152562D01*
X201638Y151992D01*
X201919Y151395D01*
X202147Y150775D01*
X202155Y150745D01*
Y146255D01*
X202147Y146225D01*
X201919Y145605D01*
X201638Y145008D01*
X201305Y144438D01*
X200923Y143899D01*
X200879Y143834D01*
X200846Y143763D01*
X200825Y143687D01*
X200817Y143609D01*
X200820Y143530D01*
X200836Y143453D01*
X200864Y143379D01*
X200903Y143311D01*
X200952Y143249D01*
X201010Y143196D01*
X201076Y143153D01*
X201148Y143121D01*
X201224Y143100D01*
X201302Y143091D01*
X201381Y143095D01*
X201458Y143111D01*
X201531Y143139D01*
X201600Y143178D01*
X201661Y143227D01*
X201713Y143286D01*
X202152Y143892D01*
X202155Y143896D01*
Y104555D01*
X200858Y104018D01*
X198753Y102728D01*
X196876Y101124D01*
X195272Y99247D01*
X193982Y97142D01*
X193038Y94862D01*
X192461Y92461D01*
X192268Y90000D01*
X192461Y87539D01*
X193038Y85138D01*
X193982Y82858D01*
X195272Y80753D01*
X196876Y78876D01*
X198753Y77272D01*
X200858Y75982D01*
X202155Y75445D01*
Y31555D01*
X200858Y31018D01*
X198753Y29728D01*
X196876Y28124D01*
X195272Y26247D01*
X193982Y24142D01*
X193038Y21862D01*
X192461Y19461D01*
X192268Y17000D01*
X192461Y14539D01*
X193038Y12138D01*
X193982Y9858D01*
X195272Y7753D01*
X196876Y5876D01*
X198753Y4272D01*
X200858Y2982D01*
X202022Y2500D01*
X190155D01*
Y76011D01*
X191235Y76014D01*
X191465Y76069D01*
X191683Y76159D01*
X191884Y76283D01*
X192064Y76436D01*
X192217Y76616D01*
X192341Y76817D01*
X192431Y77035D01*
X192486Y77265D01*
X192500Y77500D01*
X192486Y83735D01*
X192431Y83965D01*
X192341Y84183D01*
X192217Y84384D01*
X192064Y84564D01*
X191884Y84717D01*
X191683Y84841D01*
X191465Y84931D01*
X191235Y84986D01*
X191000Y85000D01*
X190155Y84998D01*
Y141520D01*
X190392Y141348D01*
X191039Y140970D01*
X191716Y140651D01*
X192419Y140393D01*
X193142Y140197D01*
X193879Y140066D01*
X194626Y140000D01*
X195374D01*
X196120Y140066D01*
X196858Y140197D01*
X197581Y140393D01*
X198284Y140651D01*
X198961Y140970D01*
X199608Y141348D01*
X200219Y141781D01*
X200279Y141834D01*
X200328Y141896D01*
X200368Y141966D01*
X200396Y142040D01*
X200412Y142119D01*
X200416Y142198D01*
X200407Y142278D01*
X200386Y142355D01*
X200353Y142427D01*
X200309Y142494D01*
X200256Y142553D01*
X200193Y142603D01*
X200124Y142643D01*
X200049Y142671D01*
X199971Y142687D01*
X199891Y142691D01*
X199812Y142682D01*
X199735Y142661D01*
X199662Y142628D01*
X199596Y142583D01*
X199062Y142195D01*
X198492Y141862D01*
X197895Y141581D01*
X197275Y141353D01*
X196638Y141181D01*
X195988Y141065D01*
X195330Y141007D01*
X194670D01*
X194012Y141065D01*
X193362Y141181D01*
X192725Y141353D01*
X192105Y141581D01*
X191508Y141862D01*
X190938Y142195D01*
X190399Y142577D01*
X190334Y142621D01*
X190263Y142654D01*
X190187Y142675D01*
X190155Y142678D01*
Y154315D01*
X190188Y154318D01*
X190265Y154339D01*
X190338Y154372D01*
X190404Y154417D01*
X190938Y154805D01*
X191508Y155138D01*
X192105Y155419D01*
X192725Y155647D01*
X193362Y155819D01*
X194012Y155935D01*
X194670Y155993D01*
X195330D01*
X195988Y155935D01*
X196638Y155819D01*
X197275Y155647D01*
X197895Y155419D01*
X198492Y155138D01*
X199062Y154805D01*
X199601Y154423D01*
X199666Y154379D01*
X199737Y154346D01*
X199813Y154325D01*
X199891Y154317D01*
X199970Y154320D01*
X200047Y154336D01*
X200121Y154364D01*
X200189Y154403D01*
X200251Y154452D01*
X200304Y154510D01*
X200347Y154576D01*
X200379Y154648D01*
X200400Y154724D01*
X200409Y154802D01*
X200405Y154881D01*
X200389Y154958D01*
X200361Y155031D01*
X200322Y155100D01*
X200273Y155161D01*
X200214Y155213D01*
X199608Y155652D01*
X198961Y156030D01*
X198284Y156349D01*
X197581Y156607D01*
X196858Y156803D01*
X196120Y156934D01*
X195374Y157000D01*
X194626D01*
X193879Y156934D01*
X193142Y156803D01*
X192419Y156607D01*
X191716Y156349D01*
X191039Y156030D01*
X190392Y155652D01*
X190155Y155484D01*
Y162896D01*
X190530Y163539D01*
X190849Y164216D01*
X191107Y164919D01*
X191303Y165642D01*
X191434Y166380D01*
X191500Y167126D01*
Y167874D01*
X191434Y168621D01*
X191303Y169358D01*
X191107Y170081D01*
X190849Y170784D01*
X190530Y171461D01*
X190155Y172104D01*
Y197500D01*
G37*
G36*
X187845Y76006D02*X190155Y76011D01*
Y2500D01*
X187845D01*
Y76006D01*
G37*
G36*
Y197500D02*X190155D01*
Y172104D01*
X190152Y172108D01*
X189719Y172719D01*
X189666Y172779D01*
X189604Y172828D01*
X189534Y172868D01*
X189460Y172896D01*
X189381Y172912D01*
X189302Y172916D01*
X189222Y172907D01*
X189145Y172886D01*
X189073Y172853D01*
X189006Y172809D01*
X188947Y172756D01*
X188897Y172693D01*
X188857Y172624D01*
X188829Y172549D01*
X188813Y172471D01*
X188809Y172391D01*
X188818Y172312D01*
X188839Y172235D01*
X188872Y172162D01*
X188917Y172096D01*
X189305Y171562D01*
X189638Y170992D01*
X189919Y170395D01*
X190147Y169775D01*
X190155Y169745D01*
Y165255D01*
X190147Y165225D01*
X189919Y164605D01*
X189638Y164008D01*
X189305Y163438D01*
X188923Y162899D01*
X188879Y162834D01*
X188846Y162763D01*
X188825Y162687D01*
X188817Y162609D01*
X188820Y162530D01*
X188836Y162453D01*
X188864Y162379D01*
X188903Y162311D01*
X188952Y162249D01*
X189010Y162196D01*
X189076Y162153D01*
X189148Y162121D01*
X189224Y162100D01*
X189302Y162091D01*
X189381Y162095D01*
X189458Y162111D01*
X189531Y162139D01*
X189600Y162178D01*
X189661Y162227D01*
X189713Y162286D01*
X190152Y162892D01*
X190155Y162896D01*
Y155484D01*
X189781Y155219D01*
X189721Y155166D01*
X189672Y155104D01*
X189632Y155034D01*
X189604Y154960D01*
X189588Y154881D01*
X189584Y154802D01*
X189593Y154722D01*
X189614Y154645D01*
X189647Y154573D01*
X189691Y154506D01*
X189744Y154447D01*
X189807Y154397D01*
X189876Y154357D01*
X189951Y154329D01*
X190029Y154313D01*
X190109Y154309D01*
X190155Y154315D01*
Y142678D01*
X190109Y142683D01*
X190030Y142680D01*
X189953Y142664D01*
X189879Y142636D01*
X189811Y142597D01*
X189749Y142548D01*
X189696Y142490D01*
X189653Y142424D01*
X189621Y142352D01*
X189600Y142276D01*
X189591Y142198D01*
X189595Y142119D01*
X189611Y142042D01*
X189639Y141969D01*
X189678Y141900D01*
X189727Y141839D01*
X189786Y141787D01*
X190155Y141520D01*
Y84998D01*
X187845Y84993D01*
Y143896D01*
X187848Y143892D01*
X188281Y143281D01*
X188334Y143221D01*
X188396Y143172D01*
X188466Y143132D01*
X188540Y143104D01*
X188619Y143088D01*
X188698Y143084D01*
X188778Y143093D01*
X188855Y143114D01*
X188927Y143147D01*
X188994Y143191D01*
X189053Y143244D01*
X189103Y143307D01*
X189143Y143376D01*
X189171Y143451D01*
X189187Y143529D01*
X189191Y143609D01*
X189182Y143688D01*
X189161Y143765D01*
X189128Y143838D01*
X189083Y143904D01*
X188695Y144438D01*
X188362Y145008D01*
X188081Y145605D01*
X187853Y146225D01*
X187845Y146255D01*
Y150745D01*
X187853Y150775D01*
X188081Y151395D01*
X188362Y151992D01*
X188695Y152562D01*
X189077Y153101D01*
X189121Y153166D01*
X189154Y153237D01*
X189175Y153313D01*
X189183Y153391D01*
X189180Y153470D01*
X189164Y153547D01*
X189136Y153621D01*
X189097Y153689D01*
X189048Y153751D01*
X188990Y153804D01*
X188924Y153847D01*
X188852Y153879D01*
X188776Y153900D01*
X188698Y153909D01*
X188619Y153905D01*
X188542Y153889D01*
X188469Y153861D01*
X188400Y153822D01*
X188339Y153773D01*
X188287Y153714D01*
X187848Y153108D01*
X187845Y153104D01*
Y160516D01*
X188219Y160781D01*
X188279Y160834D01*
X188328Y160896D01*
X188368Y160966D01*
X188396Y161040D01*
X188412Y161119D01*
X188416Y161198D01*
X188407Y161278D01*
X188386Y161355D01*
X188353Y161427D01*
X188309Y161494D01*
X188256Y161553D01*
X188193Y161603D01*
X188124Y161643D01*
X188049Y161671D01*
X187971Y161687D01*
X187891Y161691D01*
X187845Y161686D01*
Y173322D01*
X187891Y173317D01*
X187970Y173320D01*
X188047Y173336D01*
X188121Y173364D01*
X188189Y173403D01*
X188251Y173452D01*
X188304Y173510D01*
X188347Y173576D01*
X188379Y173648D01*
X188400Y173724D01*
X188409Y173802D01*
X188405Y173881D01*
X188389Y173958D01*
X188361Y174031D01*
X188322Y174100D01*
X188273Y174161D01*
X188214Y174213D01*
X187845Y174480D01*
Y197500D01*
G37*
G36*
Y146255D02*X187681Y146862D01*
X187565Y147512D01*
X187507Y148170D01*
Y148830D01*
X187565Y149488D01*
X187681Y150138D01*
X187845Y150745D01*
Y146255D01*
G37*
G36*
Y161686D02*X187812Y161682D01*
X187735Y161661D01*
X187662Y161628D01*
X187596Y161583D01*
X187062Y161195D01*
X186492Y160862D01*
X185895Y160581D01*
X185275Y160353D01*
X184638Y160181D01*
X183988Y160065D01*
X183330Y160007D01*
X183004D01*
Y174993D01*
X183330D01*
X183988Y174935D01*
X184638Y174819D01*
X185275Y174647D01*
X185895Y174419D01*
X186492Y174138D01*
X187062Y173805D01*
X187601Y173423D01*
X187666Y173379D01*
X187737Y173346D01*
X187813Y173325D01*
X187845Y173322D01*
Y161686D01*
G37*
G36*
Y84993D02*X184765Y84986D01*
X184535Y84931D01*
X184317Y84841D01*
X184116Y84717D01*
X183936Y84564D01*
X183783Y84384D01*
X183659Y84183D01*
X183569Y83965D01*
X183514Y83735D01*
X183500Y83500D01*
X183514Y77265D01*
X183569Y77035D01*
X183659Y76817D01*
X183783Y76616D01*
X183936Y76436D01*
X184116Y76283D01*
X184317Y76159D01*
X184535Y76069D01*
X184765Y76014D01*
X185000Y76000D01*
X187845Y76006D01*
Y2500D01*
X183004D01*
Y159000D01*
X183374D01*
X184120Y159066D01*
X184858Y159197D01*
X185581Y159393D01*
X186284Y159651D01*
X186961Y159970D01*
X187608Y160348D01*
X187845Y160516D01*
Y153104D01*
X187470Y152461D01*
X187151Y151784D01*
X186893Y151081D01*
X186697Y150358D01*
X186566Y149621D01*
X186500Y148874D01*
Y148126D01*
X186566Y147380D01*
X186697Y146642D01*
X186893Y145919D01*
X187151Y145216D01*
X187470Y144539D01*
X187845Y143896D01*
Y84993D01*
G37*
G36*
X183004Y197500D02*X187845D01*
Y174480D01*
X187608Y174652D01*
X186961Y175030D01*
X186284Y175349D01*
X185581Y175607D01*
X184858Y175803D01*
X184120Y175934D01*
X183374Y176000D01*
X183004D01*
Y197500D01*
G37*
G36*
X175845D02*X183004D01*
Y176000D01*
X182626D01*
X181879Y175934D01*
X181142Y175803D01*
X180419Y175607D01*
X179716Y175349D01*
X179039Y175030D01*
X178392Y174652D01*
X177781Y174219D01*
X177721Y174166D01*
X177672Y174104D01*
X177632Y174034D01*
X177604Y173960D01*
X177588Y173881D01*
X177584Y173802D01*
X177593Y173722D01*
X177614Y173645D01*
X177647Y173573D01*
X177691Y173506D01*
X177744Y173447D01*
X177807Y173397D01*
X177876Y173357D01*
X177951Y173329D01*
X178029Y173313D01*
X178109Y173309D01*
X178188Y173318D01*
X178265Y173339D01*
X178338Y173372D01*
X178404Y173417D01*
X178938Y173805D01*
X179508Y174138D01*
X180105Y174419D01*
X180725Y174647D01*
X181362Y174819D01*
X182012Y174935D01*
X182670Y174993D01*
X183004D01*
Y160007D01*
X182670D01*
X182012Y160065D01*
X181362Y160181D01*
X180725Y160353D01*
X180105Y160581D01*
X179508Y160862D01*
X178938Y161195D01*
X178399Y161577D01*
X178334Y161621D01*
X178263Y161654D01*
X178187Y161675D01*
X178109Y161683D01*
X178030Y161680D01*
X177953Y161664D01*
X177879Y161636D01*
X177811Y161597D01*
X177749Y161548D01*
X177696Y161490D01*
X177653Y161424D01*
X177621Y161352D01*
X177600Y161276D01*
X177591Y161198D01*
X177595Y161119D01*
X177611Y161042D01*
X177639Y160969D01*
X177678Y160900D01*
X177727Y160839D01*
X177786Y160787D01*
X178392Y160348D01*
X179039Y159970D01*
X179716Y159651D01*
X180419Y159393D01*
X181142Y159197D01*
X181879Y159066D01*
X182626Y159000D01*
X183004D01*
Y2500D01*
X175845D01*
Y76002D01*
X181235Y76014D01*
X181465Y76069D01*
X181683Y76159D01*
X181884Y76283D01*
X182064Y76436D01*
X182217Y76616D01*
X182341Y76817D01*
X182431Y77035D01*
X182486Y77265D01*
X182500Y77500D01*
X182486Y83735D01*
X182431Y83965D01*
X182341Y84183D01*
X182217Y84384D01*
X182064Y84564D01*
X181884Y84717D01*
X181683Y84841D01*
X181465Y84931D01*
X181235Y84986D01*
X181000Y85000D01*
X175845Y84989D01*
Y140034D01*
X176749Y140588D01*
X177916Y141584D01*
X178912Y142751D01*
X179714Y144060D01*
X180301Y145478D01*
X180660Y146970D01*
X180750Y148500D01*
X180660Y150030D01*
X180301Y151522D01*
X179714Y152940D01*
X178912Y154249D01*
X177916Y155416D01*
X176749Y156412D01*
X175845Y156966D01*
Y162896D01*
X175848Y162892D01*
X176281Y162281D01*
X176334Y162221D01*
X176396Y162172D01*
X176466Y162132D01*
X176540Y162104D01*
X176619Y162088D01*
X176698Y162084D01*
X176778Y162093D01*
X176855Y162114D01*
X176927Y162147D01*
X176994Y162191D01*
X177053Y162244D01*
X177103Y162307D01*
X177143Y162376D01*
X177171Y162451D01*
X177187Y162529D01*
X177191Y162609D01*
X177182Y162688D01*
X177161Y162765D01*
X177128Y162838D01*
X177083Y162904D01*
X176695Y163438D01*
X176362Y164008D01*
X176081Y164605D01*
X175853Y165225D01*
X175845Y165255D01*
Y169745D01*
X175853Y169775D01*
X176081Y170395D01*
X176362Y170992D01*
X176695Y171562D01*
X177077Y172101D01*
X177121Y172166D01*
X177154Y172237D01*
X177175Y172313D01*
X177183Y172391D01*
X177180Y172470D01*
X177164Y172547D01*
X177136Y172621D01*
X177097Y172689D01*
X177048Y172751D01*
X176990Y172804D01*
X176924Y172847D01*
X176852Y172879D01*
X176776Y172900D01*
X176698Y172909D01*
X176619Y172905D01*
X176542Y172889D01*
X176469Y172861D01*
X176400Y172822D01*
X176339Y172773D01*
X176287Y172714D01*
X175848Y172108D01*
X175845Y172104D01*
Y197500D01*
G37*
G36*
Y165255D02*X175681Y165862D01*
X175565Y166512D01*
X175507Y167170D01*
Y167830D01*
X175565Y168488D01*
X175681Y169138D01*
X175845Y169745D01*
Y165255D01*
G37*
G36*
Y2500D02*X168000D01*
Y76007D01*
X171235Y76014D01*
X171465Y76069D01*
X171683Y76159D01*
X171884Y76283D01*
X172064Y76436D01*
X172217Y76616D01*
X172341Y76817D01*
X172431Y77035D01*
X172486Y77265D01*
X172500Y77500D01*
X172486Y83735D01*
X172431Y83965D01*
X172341Y84183D01*
X172217Y84384D01*
X172064Y84564D01*
X171884Y84717D01*
X171683Y84841D01*
X171465Y84931D01*
X171235Y84986D01*
X171000Y85000D01*
X168000Y84993D01*
Y106464D01*
X172698Y111163D01*
X172773Y111227D01*
X173029Y111526D01*
X173029Y111526D01*
X173234Y111862D01*
X173385Y112225D01*
X173477Y112608D01*
X173508Y113000D01*
X173500Y113098D01*
Y139073D01*
X174022Y139199D01*
X175440Y139786D01*
X175845Y140034D01*
Y84989D01*
X174765Y84986D01*
X174535Y84931D01*
X174317Y84841D01*
X174116Y84717D01*
X173936Y84564D01*
X173783Y84384D01*
X173659Y84183D01*
X173569Y83965D01*
X173514Y83735D01*
X173500Y83500D01*
X173514Y77265D01*
X173569Y77035D01*
X173659Y76817D01*
X173783Y76616D01*
X173936Y76436D01*
X174116Y76283D01*
X174317Y76159D01*
X174535Y76069D01*
X174765Y76014D01*
X175000Y76000D01*
X175845Y76002D01*
Y2500D01*
G37*
G36*
X168000D02*X158000D01*
Y76007D01*
X161235Y76014D01*
X161465Y76069D01*
X161683Y76159D01*
X161884Y76283D01*
X162064Y76436D01*
X162217Y76616D01*
X162341Y76817D01*
X162431Y77035D01*
X162486Y77265D01*
X162500Y77500D01*
X162486Y83735D01*
X162431Y83965D01*
X162341Y84183D01*
X162217Y84384D01*
X162064Y84564D01*
X161884Y84717D01*
X161683Y84841D01*
X161465Y84931D01*
X161235Y84986D01*
X161000Y85000D01*
X158000Y84993D01*
Y100500D01*
X160902D01*
X161000Y100492D01*
X161392Y100523D01*
X161392Y100523D01*
X161775Y100615D01*
X162138Y100766D01*
X162474Y100971D01*
X162773Y101227D01*
X162837Y101302D01*
X168000Y106464D01*
Y84993D01*
X164765Y84986D01*
X164535Y84931D01*
X164317Y84841D01*
X164116Y84717D01*
X163936Y84564D01*
X163783Y84384D01*
X163659Y84183D01*
X163569Y83965D01*
X163514Y83735D01*
X163500Y83500D01*
X163514Y77265D01*
X163569Y77035D01*
X163659Y76817D01*
X163783Y76616D01*
X163936Y76436D01*
X164116Y76283D01*
X164317Y76159D01*
X164535Y76069D01*
X164765Y76014D01*
X165000Y76000D01*
X168000Y76007D01*
Y2500D01*
G37*
G36*
X158000D02*X144245D01*
Y11185D01*
X144850Y11187D01*
X145079Y11242D01*
X145297Y11332D01*
X145499Y11456D01*
X145678Y11609D01*
X145831Y11788D01*
X145955Y11990D01*
X146045Y12208D01*
X146100Y12437D01*
X146114Y12673D01*
X146100Y18908D01*
X146045Y19138D01*
X145955Y19356D01*
X145831Y19557D01*
X145678Y19737D01*
X145499Y19890D01*
X145297Y20013D01*
X145079Y20104D01*
X144850Y20159D01*
X144614Y20173D01*
X144245Y20172D01*
Y76203D01*
X144317Y76159D01*
X144535Y76069D01*
X144765Y76014D01*
X145000Y76000D01*
X151235Y76014D01*
X151465Y76069D01*
X151683Y76159D01*
X151884Y76283D01*
X152064Y76436D01*
X152217Y76616D01*
X152341Y76817D01*
X152431Y77035D01*
X152486Y77265D01*
X152500Y77500D01*
X152486Y83735D01*
X152431Y83965D01*
X152341Y84183D01*
X152217Y84384D01*
X152064Y84564D01*
X151884Y84717D01*
X151683Y84841D01*
X151465Y84931D01*
X151235Y84986D01*
X151000Y85000D01*
X144765Y84986D01*
X144535Y84931D01*
X144317Y84841D01*
X144245Y84797D01*
Y100500D01*
X158000D01*
Y84993D01*
X154765Y84986D01*
X154535Y84931D01*
X154317Y84841D01*
X154116Y84717D01*
X153936Y84564D01*
X153783Y84384D01*
X153659Y84183D01*
X153569Y83965D01*
X153514Y83735D01*
X153500Y83500D01*
X153514Y77265D01*
X153569Y77035D01*
X153659Y76817D01*
X153783Y76616D01*
X153936Y76436D01*
X154116Y76283D01*
X154317Y76159D01*
X154535Y76069D01*
X154765Y76014D01*
X155000Y76000D01*
X158000Y76007D01*
Y2500D01*
G37*
G36*
Y197500D02*X175845D01*
Y172104D01*
X175470Y171461D01*
X175151Y170784D01*
X174893Y170081D01*
X174697Y169358D01*
X174566Y168621D01*
X174500Y167874D01*
Y167126D01*
X174566Y166380D01*
X174697Y165642D01*
X174893Y164919D01*
X175151Y164216D01*
X175470Y163539D01*
X175845Y162896D01*
Y156966D01*
X175440Y157214D01*
X174022Y157801D01*
X172530Y158160D01*
X171000Y158280D01*
X169470Y158160D01*
X167978Y157801D01*
X166560Y157214D01*
X165251Y156412D01*
X164084Y155416D01*
X163088Y154249D01*
X162286Y152940D01*
X161699Y151522D01*
X161340Y150030D01*
X161220Y148500D01*
X161340Y146970D01*
X161699Y145478D01*
X162286Y144060D01*
X163088Y142751D01*
X164084Y141584D01*
X165251Y140588D01*
X166560Y139786D01*
X167978Y139199D01*
X168500Y139073D01*
Y114036D01*
X159964Y105500D01*
X158000D01*
Y169338D01*
X158065Y169231D01*
X158372Y168872D01*
X158731Y168565D01*
X159134Y168319D01*
X159570Y168138D01*
X160029Y168028D01*
X160500Y167991D01*
X160971Y168028D01*
X161430Y168138D01*
X161866Y168319D01*
X162269Y168565D01*
X162628Y168872D01*
X162935Y169231D01*
X163181Y169634D01*
X163362Y170070D01*
X163472Y170529D01*
X163500Y171000D01*
X163472Y171471D01*
X163362Y171930D01*
X163181Y172366D01*
X162935Y172769D01*
X162628Y173128D01*
X162269Y173435D01*
X161866Y173681D01*
X161430Y173862D01*
X160971Y173972D01*
X160500Y174009D01*
X160029Y173972D01*
X159570Y173862D01*
X159134Y173681D01*
X158731Y173435D01*
X158372Y173128D01*
X158065Y172769D01*
X158000Y172662D01*
Y181507D01*
X161235Y181514D01*
X161465Y181569D01*
X161683Y181659D01*
X161884Y181783D01*
X162064Y181936D01*
X162217Y182116D01*
X162341Y182317D01*
X162431Y182535D01*
X162486Y182765D01*
X162500Y183000D01*
X162486Y189235D01*
X162431Y189465D01*
X162341Y189683D01*
X162217Y189884D01*
X162064Y190064D01*
X161884Y190217D01*
X161683Y190341D01*
X161465Y190431D01*
X161235Y190486D01*
X161000Y190500D01*
X158000Y190493D01*
Y197500D01*
G37*
G36*
Y105500D02*X144245D01*
Y169500D01*
X157901D01*
X158000Y169338D01*
Y105500D01*
G37*
G36*
X144245Y197500D02*X158000D01*
Y190493D01*
X154765Y190486D01*
X154535Y190431D01*
X154317Y190341D01*
X154116Y190217D01*
X153936Y190064D01*
X153783Y189884D01*
X153659Y189683D01*
X153569Y189465D01*
X153514Y189235D01*
X153500Y189000D01*
X153514Y182765D01*
X153569Y182535D01*
X153659Y182317D01*
X153783Y182116D01*
X153936Y181936D01*
X154116Y181783D01*
X154317Y181659D01*
X154535Y181569D01*
X154765Y181514D01*
X155000Y181500D01*
X158000Y181507D01*
Y172662D01*
X157901Y172500D01*
X144245D01*
Y175000D01*
X145401D01*
X145565Y174731D01*
X145872Y174372D01*
X146231Y174065D01*
X146634Y173819D01*
X147070Y173638D01*
X147529Y173528D01*
X148000Y173491D01*
X148471Y173528D01*
X148930Y173638D01*
X149366Y173819D01*
X149769Y174065D01*
X150128Y174372D01*
X150435Y174731D01*
X150681Y175134D01*
X150862Y175570D01*
X150972Y176029D01*
X151000Y176500D01*
X150972Y176971D01*
X150862Y177430D01*
X150681Y177866D01*
X150435Y178269D01*
X150128Y178628D01*
X149769Y178935D01*
X149366Y179181D01*
X148930Y179362D01*
X148471Y179472D01*
X148000Y179509D01*
X147529Y179472D01*
X147070Y179362D01*
X146634Y179181D01*
X146231Y178935D01*
X145872Y178628D01*
X145565Y178269D01*
X145401Y178000D01*
X144245D01*
Y183515D01*
X144348Y183347D01*
X144808Y182808D01*
X145347Y182348D01*
X145951Y181978D01*
X146605Y181707D01*
X147294Y181542D01*
X148000Y181486D01*
X148706Y181542D01*
X149395Y181707D01*
X150049Y181978D01*
X150653Y182348D01*
X151192Y182808D01*
X151652Y183347D01*
X152022Y183951D01*
X152293Y184605D01*
X152458Y185294D01*
X152500Y186000D01*
X152458Y186706D01*
X152293Y187395D01*
X152022Y188049D01*
X151652Y188653D01*
X151192Y189192D01*
X150653Y189652D01*
X150049Y190022D01*
X149395Y190293D01*
X148706Y190458D01*
X148000Y190514D01*
X147294Y190458D01*
X146605Y190293D01*
X145951Y190022D01*
X145347Y189652D01*
X144808Y189192D01*
X144348Y188653D01*
X144245Y188485D01*
Y197500D01*
G37*
G36*
X136000Y100500D02*X144245D01*
Y84797D01*
X144116Y84717D01*
X143936Y84564D01*
X143783Y84384D01*
X143659Y84183D01*
X143569Y83965D01*
X143514Y83735D01*
X143500Y83500D01*
X143514Y77265D01*
X143569Y77035D01*
X143659Y76817D01*
X143783Y76616D01*
X143936Y76436D01*
X144116Y76283D01*
X144245Y76203D01*
Y20172D01*
X138379Y20159D01*
X138149Y20104D01*
X137931Y20013D01*
X137730Y19890D01*
X137550Y19737D01*
X137397Y19557D01*
X137274Y19356D01*
X137183Y19138D01*
X137128Y18908D01*
X137114Y18673D01*
X137128Y12437D01*
X137183Y12208D01*
X137274Y11990D01*
X137397Y11788D01*
X137550Y11609D01*
X137730Y11456D01*
X137931Y11332D01*
X138149Y11242D01*
X138379Y11187D01*
X138614Y11173D01*
X144245Y11185D01*
Y2500D01*
X136000D01*
Y76002D01*
X141235Y76014D01*
X141465Y76069D01*
X141683Y76159D01*
X141884Y76283D01*
X142064Y76436D01*
X142217Y76616D01*
X142341Y76817D01*
X142431Y77035D01*
X142486Y77265D01*
X142500Y77500D01*
X142486Y83735D01*
X142431Y83965D01*
X142341Y84183D01*
X142217Y84384D01*
X142064Y84564D01*
X141884Y84717D01*
X141683Y84841D01*
X141465Y84931D01*
X141235Y84986D01*
X141000Y85000D01*
X136000Y84989D01*
Y100500D01*
G37*
G36*
Y169500D02*X144245D01*
Y105500D01*
X136000D01*
Y111007D01*
X139235Y111014D01*
X139465Y111069D01*
X139683Y111159D01*
X139884Y111283D01*
X140064Y111436D01*
X140217Y111616D01*
X140341Y111817D01*
X140431Y112035D01*
X140486Y112265D01*
X140500Y112500D01*
X140486Y118735D01*
X140431Y118965D01*
X140341Y119183D01*
X140217Y119384D01*
X140064Y119564D01*
X139884Y119717D01*
X139683Y119841D01*
X139465Y119931D01*
X139235Y119986D01*
X139000Y120000D01*
X136000Y119993D01*
Y169500D01*
G37*
G36*
Y175000D02*X144245D01*
Y172500D01*
X136000D01*
Y175000D01*
G37*
G36*
Y197500D02*X144245D01*
Y188485D01*
X143978Y188049D01*
X143707Y187395D01*
X143542Y186706D01*
X143486Y186000D01*
X143542Y185294D01*
X143707Y184605D01*
X143978Y183951D01*
X144245Y183515D01*
Y178000D01*
X136000D01*
Y181958D01*
X136605Y181707D01*
X137294Y181542D01*
X138000Y181486D01*
X138706Y181542D01*
X139395Y181707D01*
X140049Y181978D01*
X140653Y182348D01*
X141192Y182808D01*
X141652Y183347D01*
X142022Y183951D01*
X142293Y184605D01*
X142458Y185294D01*
X142500Y186000D01*
X142458Y186706D01*
X142293Y187395D01*
X142022Y188049D01*
X141652Y188653D01*
X141192Y189192D01*
X140653Y189652D01*
X140049Y190022D01*
X139395Y190293D01*
X138706Y190458D01*
X138000Y190514D01*
X137294Y190458D01*
X136605Y190293D01*
X136000Y190042D01*
Y197500D01*
G37*
G36*
X127993Y100500D02*X136000D01*
Y84989D01*
X134765Y84986D01*
X134535Y84931D01*
X134317Y84841D01*
X134116Y84717D01*
X133936Y84564D01*
X133783Y84384D01*
X133659Y84183D01*
X133569Y83965D01*
X133514Y83735D01*
X133500Y83500D01*
X133514Y77265D01*
X133569Y77035D01*
X133659Y76817D01*
X133783Y76616D01*
X133936Y76436D01*
X134116Y76283D01*
X134317Y76159D01*
X134535Y76069D01*
X134765Y76014D01*
X135000Y76000D01*
X136000Y76002D01*
Y2500D01*
X127993D01*
Y11180D01*
X131070Y11187D01*
X131300Y11242D01*
X131518Y11332D01*
X131719Y11456D01*
X131899Y11609D01*
X132052Y11788D01*
X132176Y11990D01*
X132266Y12208D01*
X132321Y12437D01*
X132335Y12673D01*
X132321Y18908D01*
X132266Y19138D01*
X132176Y19356D01*
X132052Y19557D01*
X131899Y19737D01*
X131719Y19890D01*
X131518Y20013D01*
X131300Y20104D01*
X131070Y20159D01*
X130835Y20173D01*
X127993Y20166D01*
Y100500D01*
G37*
G36*
Y167991D02*X128000Y167991D01*
X128471Y168028D01*
X128930Y168138D01*
X129366Y168319D01*
X129769Y168565D01*
X130128Y168872D01*
X130435Y169231D01*
X130599Y169500D01*
X136000D01*
Y119993D01*
X132765Y119986D01*
X132535Y119931D01*
X132317Y119841D01*
X132116Y119717D01*
X131936Y119564D01*
X131783Y119384D01*
X131659Y119183D01*
X131569Y118965D01*
X131514Y118735D01*
X131500Y118500D01*
X131514Y112265D01*
X131569Y112035D01*
X131659Y111817D01*
X131783Y111616D01*
X131936Y111436D01*
X132116Y111283D01*
X132317Y111159D01*
X132535Y111069D01*
X132765Y111014D01*
X133000Y111000D01*
X136000Y111007D01*
Y105500D01*
X127993D01*
Y110011D01*
X129235Y110014D01*
X129465Y110069D01*
X129683Y110159D01*
X129884Y110283D01*
X130064Y110436D01*
X130217Y110616D01*
X130341Y110817D01*
X130431Y111035D01*
X130486Y111265D01*
X130500Y111500D01*
X130486Y117735D01*
X130431Y117965D01*
X130341Y118183D01*
X130217Y118384D01*
X130064Y118564D01*
X129884Y118717D01*
X129683Y118841D01*
X129465Y118931D01*
X129235Y118986D01*
X129000Y119000D01*
X127993Y118998D01*
Y167991D01*
G37*
G36*
Y175000D02*X136000D01*
Y172500D01*
X130599D01*
X130435Y172769D01*
X130128Y173128D01*
X129769Y173435D01*
X129366Y173681D01*
X128930Y173862D01*
X128471Y173972D01*
X128000Y174009D01*
X127993Y174009D01*
Y175000D01*
G37*
G36*
Y197500D02*X136000D01*
Y190042D01*
X135951Y190022D01*
X135347Y189652D01*
X134808Y189192D01*
X134348Y188653D01*
X133978Y188049D01*
X133707Y187395D01*
X133542Y186706D01*
X133486Y186000D01*
X133542Y185294D01*
X133707Y184605D01*
X133978Y183951D01*
X134348Y183347D01*
X134808Y182808D01*
X135347Y182348D01*
X135951Y181978D01*
X136000Y181958D01*
Y178000D01*
X127993D01*
Y181487D01*
X128000Y181486D01*
X128706Y181542D01*
X129395Y181707D01*
X130049Y181978D01*
X130653Y182348D01*
X131192Y182808D01*
X131652Y183347D01*
X132022Y183951D01*
X132293Y184605D01*
X132458Y185294D01*
X132500Y186000D01*
X132458Y186706D01*
X132293Y187395D01*
X132022Y188049D01*
X131652Y188653D01*
X131192Y189192D01*
X130653Y189652D01*
X130049Y190022D01*
X129395Y190293D01*
X128706Y190458D01*
X128000Y190514D01*
X127993Y190513D01*
Y197500D01*
G37*
G36*
X117993Y100500D02*X127993D01*
Y20166D01*
X124600Y20159D01*
X124370Y20104D01*
X124152Y20013D01*
X123951Y19890D01*
X123771Y19737D01*
X123618Y19557D01*
X123494Y19356D01*
X123404Y19138D01*
X123349Y18908D01*
X123335Y18673D01*
X123349Y12437D01*
X123404Y12208D01*
X123494Y11990D01*
X123618Y11788D01*
X123771Y11609D01*
X123951Y11456D01*
X124152Y11332D01*
X124370Y11242D01*
X124600Y11187D01*
X124835Y11173D01*
X127993Y11180D01*
Y2500D01*
X117993D01*
Y11501D01*
X118119Y11609D01*
X118272Y11788D01*
X118396Y11990D01*
X118486Y12208D01*
X118541Y12437D01*
X118555Y12673D01*
X118541Y18908D01*
X118486Y19138D01*
X118396Y19356D01*
X118272Y19557D01*
X118119Y19737D01*
X117993Y19844D01*
Y100500D01*
G37*
G36*
Y173491D02*X118000Y173491D01*
X118471Y173528D01*
X118930Y173638D01*
X119366Y173819D01*
X119769Y174065D01*
X120128Y174372D01*
X120435Y174731D01*
X120599Y175000D01*
X127993D01*
Y174009D01*
X127529Y173972D01*
X127070Y173862D01*
X126634Y173681D01*
X126231Y173435D01*
X125872Y173128D01*
X125565Y172769D01*
X125319Y172366D01*
X125138Y171930D01*
X125028Y171471D01*
X124991Y171000D01*
X125028Y170529D01*
X125138Y170070D01*
X125319Y169634D01*
X125565Y169231D01*
X125872Y168872D01*
X126231Y168565D01*
X126634Y168319D01*
X127070Y168138D01*
X127529Y168028D01*
X127993Y167991D01*
Y118998D01*
X122765Y118986D01*
X122535Y118931D01*
X122317Y118841D01*
X122116Y118717D01*
X121936Y118564D01*
X121783Y118384D01*
X121659Y118183D01*
X121569Y117965D01*
X121514Y117735D01*
X121500Y117500D01*
X121514Y111265D01*
X121569Y111035D01*
X121659Y110817D01*
X121783Y110616D01*
X121936Y110436D01*
X122116Y110283D01*
X122317Y110159D01*
X122535Y110069D01*
X122765Y110014D01*
X123000Y110000D01*
X127993Y110011D01*
Y105500D01*
X117993D01*
Y111011D01*
X119235Y111014D01*
X119465Y111069D01*
X119683Y111159D01*
X119884Y111283D01*
X120064Y111436D01*
X120217Y111616D01*
X120341Y111817D01*
X120431Y112035D01*
X120486Y112265D01*
X120500Y112500D01*
X120486Y118735D01*
X120431Y118965D01*
X120341Y119183D01*
X120217Y119384D01*
X120064Y119564D01*
X119884Y119717D01*
X119683Y119841D01*
X119465Y119931D01*
X119235Y119986D01*
X119000Y120000D01*
X117993Y119998D01*
Y173491D01*
G37*
G36*
Y197500D02*X127993D01*
Y190513D01*
X127294Y190458D01*
X126605Y190293D01*
X125951Y190022D01*
X125347Y189652D01*
X124808Y189192D01*
X124348Y188653D01*
X123978Y188049D01*
X123707Y187395D01*
X123542Y186706D01*
X123486Y186000D01*
X123542Y185294D01*
X123707Y184605D01*
X123978Y183951D01*
X124348Y183347D01*
X124808Y182808D01*
X125347Y182348D01*
X125951Y181978D01*
X126605Y181707D01*
X127294Y181542D01*
X127993Y181487D01*
Y178000D01*
X120599D01*
X120435Y178269D01*
X120128Y178628D01*
X119769Y178935D01*
X119366Y179181D01*
X118930Y179362D01*
X118471Y179472D01*
X118000Y179509D01*
X117993Y179509D01*
Y181487D01*
X118000Y181486D01*
X118706Y181542D01*
X119395Y181707D01*
X120049Y181978D01*
X120653Y182348D01*
X121192Y182808D01*
X121652Y183347D01*
X122022Y183951D01*
X122293Y184605D01*
X122458Y185294D01*
X122500Y186000D01*
X122458Y186706D01*
X122293Y187395D01*
X122022Y188049D01*
X121652Y188653D01*
X121192Y189192D01*
X120653Y189652D01*
X120049Y190022D01*
X119395Y190293D01*
X118706Y190458D01*
X118000Y190514D01*
X117993Y190513D01*
Y197500D01*
G37*
G36*
X107993Y100500D02*X117993D01*
Y19844D01*
X117940Y19890D01*
X117738Y20013D01*
X117520Y20104D01*
X117290Y20159D01*
X117055Y20173D01*
X110820Y20159D01*
X110590Y20104D01*
X110372Y20013D01*
X110171Y19890D01*
X109991Y19737D01*
X109838Y19557D01*
X109714Y19356D01*
X109624Y19138D01*
X109569Y18908D01*
X109555Y18673D01*
X109569Y12437D01*
X109624Y12208D01*
X109714Y11990D01*
X109838Y11788D01*
X109991Y11609D01*
X110171Y11456D01*
X110372Y11332D01*
X110590Y11242D01*
X110820Y11187D01*
X111055Y11173D01*
X117290Y11187D01*
X117520Y11242D01*
X117738Y11332D01*
X117940Y11456D01*
X117993Y11501D01*
Y2500D01*
X107993D01*
Y100500D01*
G37*
G36*
Y197500D02*X117993D01*
Y190513D01*
X117294Y190458D01*
X116605Y190293D01*
X115951Y190022D01*
X115347Y189652D01*
X114808Y189192D01*
X114348Y188653D01*
X113978Y188049D01*
X113707Y187395D01*
X113542Y186706D01*
X113486Y186000D01*
X113542Y185294D01*
X113707Y184605D01*
X113978Y183951D01*
X114348Y183347D01*
X114808Y182808D01*
X115347Y182348D01*
X115951Y181978D01*
X116605Y181707D01*
X117294Y181542D01*
X117993Y181487D01*
Y179509D01*
X117529Y179472D01*
X117070Y179362D01*
X116634Y179181D01*
X116231Y178935D01*
X115872Y178628D01*
X115565Y178269D01*
X115319Y177866D01*
X115138Y177430D01*
X115028Y176971D01*
X114991Y176500D01*
X115028Y176029D01*
X115138Y175570D01*
X115319Y175134D01*
X115565Y174731D01*
X115872Y174372D01*
X116231Y174065D01*
X116634Y173819D01*
X117070Y173638D01*
X117529Y173528D01*
X117993Y173491D01*
Y119998D01*
X112765Y119986D01*
X112535Y119931D01*
X112317Y119841D01*
X112116Y119717D01*
X111936Y119564D01*
X111783Y119384D01*
X111659Y119183D01*
X111569Y118965D01*
X111514Y118735D01*
X111500Y118500D01*
X111514Y112265D01*
X111569Y112035D01*
X111659Y111817D01*
X111783Y111616D01*
X111936Y111436D01*
X112116Y111283D01*
X112317Y111159D01*
X112535Y111069D01*
X112765Y111014D01*
X113000Y111000D01*
X117993Y111011D01*
Y105500D01*
X107993D01*
Y181487D01*
X108000Y181486D01*
X108706Y181542D01*
X109395Y181707D01*
X110049Y181978D01*
X110653Y182348D01*
X111192Y182808D01*
X111652Y183347D01*
X112022Y183951D01*
X112293Y184605D01*
X112458Y185294D01*
X112500Y186000D01*
X112458Y186706D01*
X112293Y187395D01*
X112022Y188049D01*
X111652Y188653D01*
X111192Y189192D01*
X110653Y189652D01*
X110049Y190022D01*
X109395Y190293D01*
X108706Y190458D01*
X108000Y190514D01*
X107993Y190513D01*
Y197500D01*
G37*
G36*
X92114Y106350D02*X97163Y101302D01*
X97227Y101227D01*
X97526Y100971D01*
X97862Y100766D01*
X98225Y100615D01*
X98608Y100523D01*
X98608D01*
X99000Y100492D01*
X99098Y100500D01*
X103338D01*
X103634Y100319D01*
X104070Y100138D01*
X104529Y100028D01*
X105000Y99991D01*
X105471Y100028D01*
X105930Y100138D01*
X106366Y100319D01*
X106662Y100500D01*
X107993D01*
Y2500D01*
X92114D01*
Y11180D01*
X95350Y11187D01*
X95579Y11242D01*
X95797Y11332D01*
X95999Y11456D01*
X96178Y11609D01*
X96331Y11788D01*
X96455Y11990D01*
X96545Y12208D01*
X96600Y12437D01*
X96614Y12673D01*
X96600Y18908D01*
X96545Y19138D01*
X96455Y19356D01*
X96331Y19557D01*
X96178Y19737D01*
X95999Y19890D01*
X95797Y20013D01*
X95579Y20104D01*
X95350Y20159D01*
X95114Y20173D01*
X92114Y20166D01*
Y106350D01*
G37*
G36*
X78335Y108945D02*X89520D01*
X92114Y106350D01*
Y20166D01*
X88879Y20159D01*
X88649Y20104D01*
X88431Y20013D01*
X88230Y19890D01*
X88050Y19737D01*
X87897Y19557D01*
X87774Y19356D01*
X87683Y19138D01*
X87628Y18908D01*
X87614Y18673D01*
X87628Y12437D01*
X87683Y12208D01*
X87774Y11990D01*
X87897Y11788D01*
X88050Y11609D01*
X88230Y11456D01*
X88431Y11332D01*
X88649Y11242D01*
X88879Y11187D01*
X89114Y11173D01*
X92114Y11180D01*
Y2500D01*
X78335D01*
Y11180D01*
X81570Y11187D01*
X81800Y11242D01*
X82018Y11332D01*
X82219Y11456D01*
X82399Y11609D01*
X82552Y11788D01*
X82676Y11990D01*
X82766Y12208D01*
X82821Y12437D01*
X82835Y12673D01*
X82821Y18908D01*
X82766Y19138D01*
X82676Y19356D01*
X82552Y19557D01*
X82399Y19737D01*
X82219Y19890D01*
X82018Y20013D01*
X81800Y20104D01*
X81570Y20159D01*
X81335Y20173D01*
X78335Y20166D01*
Y108945D01*
G37*
G36*
X73423Y107145D02*X73557Y107228D01*
X73737Y107381D01*
X73890Y107560D01*
X74014Y107762D01*
X74104Y107980D01*
X74159Y108210D01*
X74173Y108445D01*
X74172Y108945D01*
X78335D01*
Y20166D01*
X75100Y20159D01*
X74870Y20104D01*
X74652Y20013D01*
X74451Y19890D01*
X74271Y19737D01*
X74118Y19557D01*
X73994Y19356D01*
X73904Y19138D01*
X73849Y18908D01*
X73835Y18673D01*
X73849Y12437D01*
X73904Y12208D01*
X73994Y11990D01*
X74118Y11788D01*
X74271Y11609D01*
X74451Y11456D01*
X74652Y11332D01*
X74870Y11242D01*
X75100Y11187D01*
X75335Y11173D01*
X78335Y11180D01*
Y2500D01*
X73423D01*
Y79586D01*
X73557Y79669D01*
X73737Y79822D01*
X73890Y80001D01*
X74014Y80203D01*
X74104Y80421D01*
X74159Y80650D01*
X74173Y80886D01*
X74159Y87121D01*
X74104Y87351D01*
X74014Y87569D01*
X73890Y87770D01*
X73737Y87950D01*
X73557Y88103D01*
X73423Y88185D01*
Y95413D01*
X73541Y95422D01*
X73655Y95449D01*
X73765Y95495D01*
X73865Y95556D01*
X73955Y95633D01*
X74032Y95723D01*
X74093Y95823D01*
X74138Y95932D01*
X74166Y96047D01*
X74173Y96165D01*
Y99165D01*
X74166Y99283D01*
X74138Y99397D01*
X74093Y99507D01*
X74032Y99607D01*
X73955Y99697D01*
X73865Y99774D01*
X73765Y99835D01*
X73655Y99880D01*
X73541Y99908D01*
X73423Y99917D01*
Y107145D01*
G37*
G36*
Y2500D02*X69493D01*
Y79392D01*
X72908Y79400D01*
X73138Y79455D01*
X73356Y79545D01*
X73423Y79586D01*
Y2500D01*
G37*
G36*
X69493Y106951D02*X72908Y106959D01*
X73138Y107014D01*
X73356Y107104D01*
X73423Y107145D01*
Y99917D01*
X73305Y99908D01*
X73191Y99880D01*
X73081Y99835D01*
X72981Y99774D01*
X72891Y99697D01*
X72814Y99607D01*
X72753Y99507D01*
X72708Y99397D01*
X72680Y99283D01*
X72673Y99165D01*
Y96165D01*
X72680Y96047D01*
X72708Y95932D01*
X72753Y95823D01*
X72814Y95723D01*
X72891Y95633D01*
X72981Y95556D01*
X73081Y95495D01*
X73191Y95449D01*
X73305Y95422D01*
X73423Y95413D01*
Y88185D01*
X73356Y88226D01*
X73138Y88317D01*
X72908Y88372D01*
X72673Y88386D01*
X69493Y88379D01*
Y93165D01*
X71173D01*
X71291Y93172D01*
X71405Y93199D01*
X71515Y93245D01*
X71615Y93306D01*
X71705Y93383D01*
X71782Y93473D01*
X71843Y93573D01*
X71888Y93682D01*
X71916Y93797D01*
X71925Y93915D01*
X71916Y94033D01*
X71888Y94147D01*
X71843Y94257D01*
X71782Y94357D01*
X71705Y94447D01*
X71615Y94524D01*
X71515Y94585D01*
X71405Y94630D01*
X71291Y94658D01*
X71173Y94665D01*
X69493D01*
Y100665D01*
X71173D01*
X71291Y100672D01*
X71405Y100699D01*
X71515Y100745D01*
X71615Y100806D01*
X71705Y100883D01*
X71782Y100973D01*
X71843Y101073D01*
X71888Y101182D01*
X71916Y101297D01*
X71925Y101415D01*
X71916Y101533D01*
X71888Y101647D01*
X71843Y101757D01*
X71782Y101857D01*
X71705Y101947D01*
X71615Y102024D01*
X71515Y102085D01*
X71405Y102130D01*
X71291Y102158D01*
X71173Y102165D01*
X69493D01*
Y106951D01*
G37*
G36*
Y197500D02*X107993D01*
Y190513D01*
X107294Y190458D01*
X106605Y190293D01*
X105951Y190022D01*
X105347Y189652D01*
X104808Y189192D01*
X104348Y188653D01*
X103978Y188049D01*
X103707Y187395D01*
X103542Y186706D01*
X103486Y186000D01*
X103542Y185294D01*
X103707Y184605D01*
X103978Y183951D01*
X104348Y183347D01*
X104808Y182808D01*
X105347Y182348D01*
X105951Y181978D01*
X106605Y181707D01*
X107294Y181542D01*
X107993Y181487D01*
Y105500D01*
X106662D01*
X106366Y105681D01*
X105930Y105862D01*
X105471Y105972D01*
X105000Y106009D01*
X104529Y105972D01*
X104070Y105862D01*
X103634Y105681D01*
X103338Y105500D01*
X100036D01*
X92392Y113143D01*
X92328Y113218D01*
X92029Y113474D01*
X91694Y113679D01*
X91330Y113830D01*
X91039Y113900D01*
X90947Y113922D01*
X90555Y113953D01*
X90457Y113945D01*
X74161D01*
X74159Y114680D01*
X74104Y114910D01*
X74014Y115128D01*
X73890Y115329D01*
X73737Y115509D01*
X73557Y115662D01*
X73356Y115786D01*
X73138Y115876D01*
X72908Y115931D01*
X72673Y115945D01*
X69493Y115938D01*
Y181487D01*
X69500Y181486D01*
X70206Y181542D01*
X70895Y181707D01*
X71549Y181978D01*
X72153Y182348D01*
X72692Y182808D01*
X73152Y183347D01*
X73522Y183951D01*
X73793Y184605D01*
X73958Y185294D01*
X74000Y186000D01*
X73958Y186706D01*
X73793Y187395D01*
X73522Y188049D01*
X73152Y188653D01*
X72692Y189192D01*
X72153Y189652D01*
X71549Y190022D01*
X70895Y190293D01*
X70206Y190458D01*
X69500Y190514D01*
X69493Y190513D01*
Y197500D01*
G37*
G36*
X65923Y79586D02*X65990Y79545D01*
X66208Y79455D01*
X66438Y79400D01*
X66673Y79386D01*
X69493Y79392D01*
Y2500D01*
X65923D01*
Y11183D01*
X67790Y11187D01*
X68020Y11242D01*
X68238Y11332D01*
X68440Y11456D01*
X68619Y11609D01*
X68772Y11788D01*
X68896Y11990D01*
X68986Y12208D01*
X69041Y12437D01*
X69055Y12673D01*
X69041Y18908D01*
X68986Y19138D01*
X68896Y19356D01*
X68772Y19557D01*
X68619Y19737D01*
X68440Y19890D01*
X68238Y20013D01*
X68020Y20104D01*
X67790Y20159D01*
X67555Y20173D01*
X65923Y20169D01*
Y79586D01*
G37*
G36*
Y107145D02*X65990Y107104D01*
X66208Y107014D01*
X66438Y106959D01*
X66673Y106945D01*
X69493Y106951D01*
Y102165D01*
X68173D01*
X68055Y102158D01*
X67941Y102130D01*
X67831Y102085D01*
X67731Y102024D01*
X67641Y101947D01*
X67564Y101857D01*
X67503Y101757D01*
X67458Y101647D01*
X67430Y101533D01*
X67421Y101415D01*
X67430Y101297D01*
X67458Y101182D01*
X67503Y101073D01*
X67564Y100973D01*
X67641Y100883D01*
X67731Y100806D01*
X67831Y100745D01*
X67941Y100699D01*
X68055Y100672D01*
X68173Y100665D01*
X69493D01*
Y94665D01*
X68173D01*
X68055Y94658D01*
X67941Y94630D01*
X67831Y94585D01*
X67731Y94524D01*
X67641Y94447D01*
X67564Y94357D01*
X67503Y94257D01*
X67458Y94147D01*
X67430Y94033D01*
X67421Y93915D01*
X67430Y93797D01*
X67458Y93682D01*
X67503Y93573D01*
X67564Y93473D01*
X67641Y93383D01*
X67731Y93306D01*
X67831Y93245D01*
X67941Y93199D01*
X68055Y93172D01*
X68173Y93165D01*
X69493D01*
Y88379D01*
X66438Y88372D01*
X66208Y88317D01*
X65990Y88226D01*
X65923Y88185D01*
Y95413D01*
X66041Y95422D01*
X66155Y95449D01*
X66265Y95495D01*
X66365Y95556D01*
X66455Y95633D01*
X66532Y95723D01*
X66593Y95823D01*
X66638Y95932D01*
X66666Y96047D01*
X66673Y96165D01*
Y99165D01*
X66666Y99283D01*
X66638Y99397D01*
X66593Y99507D01*
X66532Y99607D01*
X66455Y99697D01*
X66365Y99774D01*
X66265Y99835D01*
X66155Y99880D01*
X66041Y99908D01*
X65923Y99917D01*
Y107145D01*
G37*
G36*
Y183259D02*X66308Y182808D01*
X66847Y182348D01*
X67451Y181978D01*
X68105Y181707D01*
X68794Y181542D01*
X69493Y181487D01*
Y115938D01*
X66438Y115931D01*
X66208Y115876D01*
X65990Y115786D01*
X65923Y115745D01*
Y183259D01*
G37*
G36*
Y197500D02*X69493D01*
Y190513D01*
X68794Y190458D01*
X68105Y190293D01*
X67451Y190022D01*
X66847Y189652D01*
X66308Y189192D01*
X65923Y188741D01*
Y197500D01*
G37*
G36*
X59493D02*X65923D01*
Y188741D01*
X65848Y188653D01*
X65478Y188049D01*
X65207Y187395D01*
X65042Y186706D01*
X64986Y186000D01*
X65042Y185294D01*
X65207Y184605D01*
X65478Y183951D01*
X65848Y183347D01*
X65923Y183259D01*
Y115745D01*
X65789Y115662D01*
X65609Y115509D01*
X65456Y115329D01*
X65332Y115128D01*
X65242Y114910D01*
X65187Y114680D01*
X65173Y114445D01*
X65187Y108210D01*
X65242Y107980D01*
X65332Y107762D01*
X65456Y107560D01*
X65609Y107381D01*
X65789Y107228D01*
X65923Y107145D01*
Y99917D01*
X65805Y99908D01*
X65691Y99880D01*
X65581Y99835D01*
X65481Y99774D01*
X65391Y99697D01*
X65314Y99607D01*
X65253Y99507D01*
X65208Y99397D01*
X65180Y99283D01*
X65173Y99165D01*
Y96165D01*
X65180Y96047D01*
X65208Y95932D01*
X65253Y95823D01*
X65314Y95723D01*
X65391Y95633D01*
X65481Y95556D01*
X65581Y95495D01*
X65691Y95449D01*
X65805Y95422D01*
X65923Y95413D01*
Y88185D01*
X65789Y88103D01*
X65609Y87950D01*
X65456Y87770D01*
X65332Y87569D01*
X65242Y87351D01*
X65187Y87121D01*
X65173Y86886D01*
X65187Y80650D01*
X65242Y80421D01*
X65332Y80203D01*
X65456Y80001D01*
X65609Y79822D01*
X65789Y79669D01*
X65923Y79586D01*
Y20169D01*
X61320Y20159D01*
X61090Y20104D01*
X60872Y20013D01*
X60671Y19890D01*
X60491Y19737D01*
X60338Y19557D01*
X60214Y19356D01*
X60124Y19138D01*
X60069Y18908D01*
X60055Y18673D01*
X60069Y12437D01*
X60124Y12208D01*
X60214Y11990D01*
X60338Y11788D01*
X60491Y11609D01*
X60671Y11456D01*
X60872Y11332D01*
X61090Y11242D01*
X61320Y11187D01*
X61555Y11173D01*
X65923Y11183D01*
Y2500D01*
X59493D01*
Y181487D01*
X59500Y181486D01*
X60206Y181542D01*
X60895Y181707D01*
X61549Y181978D01*
X62153Y182348D01*
X62692Y182808D01*
X63152Y183347D01*
X63522Y183951D01*
X63793Y184605D01*
X63958Y185294D01*
X64000Y186000D01*
X63958Y186706D01*
X63793Y187395D01*
X63522Y188049D01*
X63152Y188653D01*
X62692Y189192D01*
X62153Y189652D01*
X61549Y190022D01*
X60895Y190293D01*
X60206Y190458D01*
X59500Y190514D01*
X59493Y190513D01*
Y197500D01*
G37*
G36*
X49500D02*X59493D01*
Y190513D01*
X58794Y190458D01*
X58105Y190293D01*
X57451Y190022D01*
X56847Y189652D01*
X56308Y189192D01*
X55848Y188653D01*
X55478Y188049D01*
X55207Y187395D01*
X55042Y186706D01*
X54986Y186000D01*
X55042Y185294D01*
X55207Y184605D01*
X55478Y183951D01*
X55848Y183347D01*
X56308Y182808D01*
X56847Y182348D01*
X57451Y181978D01*
X58105Y181707D01*
X58794Y181542D01*
X59493Y181487D01*
Y2500D01*
X49500D01*
Y181507D01*
X52735Y181514D01*
X52965Y181569D01*
X53183Y181659D01*
X53384Y181783D01*
X53564Y181936D01*
X53717Y182116D01*
X53841Y182317D01*
X53931Y182535D01*
X53986Y182765D01*
X54000Y183000D01*
X53986Y189235D01*
X53931Y189465D01*
X53841Y189683D01*
X53717Y189884D01*
X53564Y190064D01*
X53384Y190217D01*
X53183Y190341D01*
X52965Y190431D01*
X52735Y190486D01*
X52500Y190500D01*
X49500Y190493D01*
Y197500D01*
G37*
G36*
X42501D02*X49500D01*
Y190493D01*
X46265Y190486D01*
X46035Y190431D01*
X45817Y190341D01*
X45616Y190217D01*
X45436Y190064D01*
X45283Y189884D01*
X45159Y189683D01*
X45069Y189465D01*
X45014Y189235D01*
X45000Y189000D01*
X45014Y182765D01*
X45069Y182535D01*
X45159Y182317D01*
X45283Y182116D01*
X45436Y181936D01*
X45616Y181783D01*
X45817Y181659D01*
X46035Y181569D01*
X46265Y181514D01*
X46500Y181500D01*
X49500Y181507D01*
Y2500D01*
X42501D01*
Y117379D01*
X42798Y117865D01*
X43054Y118483D01*
X43211Y119133D01*
X43250Y119800D01*
X43211Y120467D01*
X43054Y121117D01*
X42798Y121735D01*
X42501Y122221D01*
Y136205D01*
X42532Y136222D01*
X42594Y136270D01*
X42648Y136327D01*
X42691Y136393D01*
X42877Y136748D01*
X43025Y137121D01*
X43137Y137506D01*
X43212Y137900D01*
X43250Y138299D01*
Y138701D01*
X43212Y139100D01*
X43137Y139494D01*
X43025Y139879D01*
X42877Y140252D01*
X42695Y140609D01*
X42651Y140675D01*
X42597Y140733D01*
X42534Y140781D01*
X42501Y140800D01*
Y197500D01*
G37*
G36*
Y2500D02*X38993D01*
Y115537D01*
X39000Y115537D01*
X39667Y115589D01*
X40317Y115746D01*
X40935Y116002D01*
X41506Y116351D01*
X42014Y116786D01*
X42449Y117294D01*
X42501Y117379D01*
Y2500D01*
G37*
G36*
X38993Y197500D02*X42501D01*
Y140800D01*
X42464Y140820D01*
X42390Y140846D01*
X42312Y140861D01*
X42233Y140864D01*
X42154Y140854D01*
X42078Y140832D01*
X42006Y140798D01*
X41941Y140753D01*
X41883Y140699D01*
X41834Y140636D01*
X41796Y140567D01*
X41769Y140492D01*
X41755Y140414D01*
X41752Y140335D01*
X41762Y140257D01*
X41784Y140180D01*
X41819Y140109D01*
X41962Y139838D01*
X42075Y139553D01*
X42160Y139259D01*
X42218Y138958D01*
X42246Y138653D01*
Y138347D01*
X42218Y138042D01*
X42160Y137741D01*
X42075Y137447D01*
X41962Y137162D01*
X41822Y136889D01*
X41788Y136818D01*
X41766Y136743D01*
X41756Y136665D01*
X41758Y136586D01*
X41773Y136509D01*
X41800Y136435D01*
X41837Y136366D01*
X41886Y136303D01*
X41943Y136250D01*
X42008Y136205D01*
X42079Y136172D01*
X42155Y136150D01*
X42233Y136140D01*
X42312Y136142D01*
X42389Y136157D01*
X42463Y136184D01*
X42501Y136205D01*
Y122221D01*
X42449Y122306D01*
X42014Y122814D01*
X41506Y123249D01*
X40935Y123598D01*
X40317Y123854D01*
X39667Y124011D01*
X39000Y124063D01*
X38993Y124063D01*
Y134250D01*
X39201D01*
X39600Y134288D01*
X39994Y134363D01*
X40379Y134475D01*
X40752Y134623D01*
X41109Y134805D01*
X41175Y134849D01*
X41233Y134903D01*
X41281Y134966D01*
X41320Y135036D01*
X41346Y135110D01*
X41361Y135188D01*
X41364Y135267D01*
X41354Y135346D01*
X41332Y135422D01*
X41298Y135494D01*
X41253Y135559D01*
X41199Y135617D01*
X41136Y135666D01*
X41067Y135704D01*
X40992Y135731D01*
X40914Y135745D01*
X40835Y135748D01*
X40757Y135738D01*
X40680Y135716D01*
X40609Y135681D01*
X40338Y135538D01*
X40053Y135425D01*
X39759Y135340D01*
X39458Y135282D01*
X39153Y135254D01*
X38993D01*
Y141746D01*
X39153D01*
X39458Y141718D01*
X39759Y141660D01*
X40053Y141575D01*
X40338Y141462D01*
X40611Y141322D01*
X40682Y141288D01*
X40757Y141266D01*
X40835Y141256D01*
X40914Y141258D01*
X40991Y141273D01*
X41065Y141300D01*
X41134Y141337D01*
X41197Y141386D01*
X41250Y141443D01*
X41295Y141508D01*
X41328Y141579D01*
X41350Y141655D01*
X41360Y141733D01*
X41358Y141812D01*
X41343Y141889D01*
X41316Y141963D01*
X41278Y142032D01*
X41230Y142094D01*
X41173Y142148D01*
X41107Y142191D01*
X40752Y142377D01*
X40379Y142525D01*
X39994Y142637D01*
X39600Y142712D01*
X39201Y142750D01*
X38993D01*
Y197500D01*
G37*
G36*
X35499Y117379D02*X35551Y117294D01*
X35986Y116786D01*
X36494Y116351D01*
X37065Y116002D01*
X37683Y115746D01*
X38333Y115589D01*
X38993Y115537D01*
Y2500D01*
X35499D01*
Y117379D01*
G37*
G36*
Y197500D02*X38993D01*
Y142750D01*
X38799D01*
X38400Y142712D01*
X38006Y142637D01*
X37621Y142525D01*
X37248Y142377D01*
X36891Y142195D01*
X36825Y142151D01*
X36767Y142097D01*
X36719Y142034D01*
X36680Y141964D01*
X36654Y141890D01*
X36639Y141812D01*
X36636Y141733D01*
X36646Y141654D01*
X36668Y141578D01*
X36702Y141506D01*
X36747Y141441D01*
X36801Y141383D01*
X36864Y141334D01*
X36933Y141296D01*
X37008Y141269D01*
X37086Y141255D01*
X37165Y141252D01*
X37243Y141262D01*
X37320Y141284D01*
X37391Y141319D01*
X37662Y141462D01*
X37947Y141575D01*
X38241Y141660D01*
X38542Y141718D01*
X38847Y141746D01*
X38993D01*
Y135254D01*
X38847D01*
X38542Y135282D01*
X38241Y135340D01*
X37947Y135425D01*
X37662Y135538D01*
X37389Y135678D01*
X37318Y135712D01*
X37243Y135734D01*
X37165Y135744D01*
X37086Y135742D01*
X37009Y135727D01*
X36935Y135700D01*
X36866Y135663D01*
X36803Y135614D01*
X36750Y135557D01*
X36705Y135492D01*
X36672Y135421D01*
X36650Y135345D01*
X36640Y135267D01*
X36642Y135188D01*
X36657Y135111D01*
X36684Y135037D01*
X36722Y134968D01*
X36770Y134906D01*
X36827Y134852D01*
X36893Y134809D01*
X37248Y134623D01*
X37621Y134475D01*
X38006Y134363D01*
X38400Y134288D01*
X38799Y134250D01*
X38993D01*
Y124063D01*
X38333Y124011D01*
X37683Y123854D01*
X37065Y123598D01*
X36494Y123249D01*
X35986Y122814D01*
X35551Y122306D01*
X35499Y122221D01*
Y136200D01*
X35536Y136180D01*
X35610Y136154D01*
X35688Y136139D01*
X35767Y136136D01*
X35846Y136146D01*
X35922Y136168D01*
X35994Y136202D01*
X36059Y136247D01*
X36117Y136301D01*
X36166Y136364D01*
X36204Y136433D01*
X36231Y136508D01*
X36245Y136586D01*
X36248Y136665D01*
X36238Y136743D01*
X36216Y136820D01*
X36181Y136891D01*
X36038Y137162D01*
X35925Y137447D01*
X35840Y137741D01*
X35782Y138042D01*
X35754Y138347D01*
Y138653D01*
X35782Y138958D01*
X35840Y139259D01*
X35925Y139553D01*
X36038Y139838D01*
X36178Y140111D01*
X36212Y140182D01*
X36234Y140257D01*
X36244Y140335D01*
X36242Y140414D01*
X36227Y140491D01*
X36200Y140565D01*
X36163Y140634D01*
X36114Y140697D01*
X36057Y140750D01*
X35992Y140795D01*
X35921Y140828D01*
X35845Y140850D01*
X35767Y140860D01*
X35688Y140858D01*
X35611Y140843D01*
X35537Y140816D01*
X35499Y140795D01*
Y197500D01*
G37*
G36*
X22978D02*X35499D01*
Y140795D01*
X35468Y140778D01*
X35406Y140730D01*
X35352Y140673D01*
X35309Y140607D01*
X35123Y140252D01*
X34975Y139879D01*
X34863Y139494D01*
X34788Y139100D01*
X34750Y138701D01*
Y138299D01*
X34788Y137900D01*
X34863Y137506D01*
X34975Y137121D01*
X35123Y136748D01*
X35305Y136391D01*
X35349Y136325D01*
X35403Y136267D01*
X35466Y136219D01*
X35499Y136200D01*
Y122221D01*
X35202Y121735D01*
X34946Y121117D01*
X34789Y120467D01*
X34737Y119800D01*
X34789Y119133D01*
X34946Y118483D01*
X35202Y117865D01*
X35499Y117379D01*
Y2500D01*
X22978D01*
X24142Y2982D01*
X26247Y4272D01*
X28124Y5876D01*
X29728Y7753D01*
X31018Y9858D01*
X31962Y12138D01*
X32539Y14539D01*
X32684Y17000D01*
X32539Y19461D01*
X31962Y21862D01*
X31018Y24142D01*
X29728Y26247D01*
X28124Y28124D01*
X26247Y29728D01*
X24142Y31018D01*
X21862Y31962D01*
X19461Y32539D01*
X18901Y32583D01*
Y117379D01*
X19198Y117865D01*
X19454Y118483D01*
X19611Y119133D01*
X19650Y119800D01*
X19611Y120467D01*
X19454Y121117D01*
X19198Y121735D01*
X18901Y122221D01*
Y136205D01*
X18932Y136222D01*
X18994Y136270D01*
X19048Y136327D01*
X19091Y136393D01*
X19277Y136748D01*
X19425Y137121D01*
X19537Y137506D01*
X19612Y137900D01*
X19650Y138299D01*
Y138701D01*
X19612Y139100D01*
X19537Y139494D01*
X19425Y139879D01*
X19277Y140252D01*
X19095Y140609D01*
X19051Y140675D01*
X18997Y140733D01*
X18934Y140781D01*
X18901Y140800D01*
Y167417D01*
X19461Y167461D01*
X21862Y168038D01*
X24142Y168982D01*
X26247Y170272D01*
X28124Y171876D01*
X29728Y173753D01*
X31018Y175858D01*
X31962Y178138D01*
X32539Y180539D01*
X32684Y183000D01*
X32539Y185461D01*
X31962Y187862D01*
X31018Y190142D01*
X29728Y192247D01*
X28124Y194124D01*
X26247Y195728D01*
X24142Y197018D01*
X22978Y197500D01*
G37*
G36*
X18901Y122221D02*X18849Y122306D01*
X18414Y122814D01*
X17906Y123249D01*
X17335Y123598D01*
X16717Y123854D01*
X16067Y124011D01*
X15400Y124063D01*
X15393Y124063D01*
Y134250D01*
X15601D01*
X16000Y134288D01*
X16394Y134363D01*
X16779Y134475D01*
X17152Y134623D01*
X17509Y134805D01*
X17575Y134849D01*
X17633Y134903D01*
X17681Y134966D01*
X17720Y135036D01*
X17746Y135110D01*
X17761Y135188D01*
X17764Y135267D01*
X17754Y135346D01*
X17732Y135422D01*
X17698Y135494D01*
X17653Y135559D01*
X17599Y135617D01*
X17536Y135666D01*
X17467Y135704D01*
X17392Y135731D01*
X17314Y135745D01*
X17235Y135748D01*
X17157Y135738D01*
X17080Y135716D01*
X17009Y135681D01*
X16738Y135538D01*
X16453Y135425D01*
X16159Y135340D01*
X15858Y135282D01*
X15553Y135254D01*
X15393D01*
Y141746D01*
X15553D01*
X15858Y141718D01*
X16159Y141660D01*
X16453Y141575D01*
X16738Y141462D01*
X17011Y141322D01*
X17082Y141288D01*
X17157Y141266D01*
X17235Y141256D01*
X17314Y141258D01*
X17391Y141273D01*
X17465Y141300D01*
X17534Y141337D01*
X17597Y141386D01*
X17650Y141443D01*
X17695Y141508D01*
X17728Y141579D01*
X17750Y141655D01*
X17760Y141733D01*
X17758Y141812D01*
X17743Y141889D01*
X17716Y141963D01*
X17678Y142032D01*
X17630Y142094D01*
X17573Y142148D01*
X17507Y142191D01*
X17152Y142377D01*
X16779Y142525D01*
X16394Y142637D01*
X16000Y142712D01*
X15601Y142750D01*
X15393D01*
Y167394D01*
X17000Y167268D01*
X18901Y167417D01*
Y140800D01*
X18864Y140820D01*
X18790Y140846D01*
X18712Y140861D01*
X18633Y140864D01*
X18554Y140854D01*
X18478Y140832D01*
X18406Y140798D01*
X18341Y140753D01*
X18283Y140699D01*
X18234Y140636D01*
X18196Y140567D01*
X18169Y140492D01*
X18155Y140414D01*
X18152Y140335D01*
X18162Y140257D01*
X18184Y140180D01*
X18219Y140109D01*
X18362Y139838D01*
X18475Y139553D01*
X18560Y139259D01*
X18618Y138958D01*
X18646Y138653D01*
Y138347D01*
X18618Y138042D01*
X18560Y137741D01*
X18475Y137447D01*
X18362Y137162D01*
X18222Y136889D01*
X18188Y136818D01*
X18166Y136743D01*
X18156Y136665D01*
X18158Y136586D01*
X18173Y136509D01*
X18200Y136435D01*
X18237Y136366D01*
X18286Y136303D01*
X18343Y136250D01*
X18408Y136205D01*
X18479Y136172D01*
X18555Y136150D01*
X18633Y136140D01*
X18712Y136142D01*
X18789Y136157D01*
X18863Y136184D01*
X18901Y136205D01*
Y122221D01*
G37*
G36*
Y32583D02*X17000Y32732D01*
X15393Y32606D01*
Y115537D01*
X15400Y115537D01*
X16067Y115589D01*
X16717Y115746D01*
X17335Y116002D01*
X17906Y116351D01*
X18414Y116786D01*
X18849Y117294D01*
X18901Y117379D01*
Y32583D01*
G37*
G36*
X11899Y168137D02*X12138Y168038D01*
X14539Y167461D01*
X15393Y167394D01*
Y142750D01*
X15199D01*
X14800Y142712D01*
X14406Y142637D01*
X14021Y142525D01*
X13648Y142377D01*
X13291Y142195D01*
X13225Y142151D01*
X13167Y142097D01*
X13119Y142034D01*
X13080Y141964D01*
X13054Y141890D01*
X13039Y141812D01*
X13036Y141733D01*
X13046Y141654D01*
X13068Y141578D01*
X13102Y141506D01*
X13147Y141441D01*
X13201Y141383D01*
X13264Y141334D01*
X13333Y141296D01*
X13408Y141269D01*
X13486Y141255D01*
X13565Y141252D01*
X13643Y141262D01*
X13720Y141284D01*
X13791Y141319D01*
X14062Y141462D01*
X14347Y141575D01*
X14641Y141660D01*
X14942Y141718D01*
X15247Y141746D01*
X15393D01*
Y135254D01*
X15247D01*
X14942Y135282D01*
X14641Y135340D01*
X14347Y135425D01*
X14062Y135538D01*
X13789Y135678D01*
X13718Y135712D01*
X13643Y135734D01*
X13565Y135744D01*
X13486Y135742D01*
X13409Y135727D01*
X13335Y135700D01*
X13266Y135663D01*
X13203Y135614D01*
X13150Y135557D01*
X13105Y135492D01*
X13072Y135421D01*
X13050Y135345D01*
X13040Y135267D01*
X13042Y135188D01*
X13057Y135111D01*
X13084Y135037D01*
X13122Y134968D01*
X13170Y134906D01*
X13227Y134852D01*
X13293Y134809D01*
X13648Y134623D01*
X14021Y134475D01*
X14406Y134363D01*
X14800Y134288D01*
X15199Y134250D01*
X15393D01*
Y124063D01*
X14733Y124011D01*
X14083Y123854D01*
X13465Y123598D01*
X12894Y123249D01*
X12386Y122814D01*
X11951Y122306D01*
X11899Y122221D01*
Y136200D01*
X11936Y136180D01*
X12010Y136154D01*
X12088Y136139D01*
X12167Y136136D01*
X12246Y136146D01*
X12322Y136168D01*
X12394Y136202D01*
X12459Y136247D01*
X12517Y136301D01*
X12566Y136364D01*
X12604Y136433D01*
X12631Y136508D01*
X12645Y136586D01*
X12648Y136665D01*
X12638Y136743D01*
X12616Y136820D01*
X12581Y136891D01*
X12438Y137162D01*
X12325Y137447D01*
X12240Y137741D01*
X12182Y138042D01*
X12154Y138347D01*
Y138653D01*
X12182Y138958D01*
X12240Y139259D01*
X12325Y139553D01*
X12438Y139838D01*
X12578Y140111D01*
X12612Y140182D01*
X12634Y140257D01*
X12644Y140335D01*
X12642Y140414D01*
X12627Y140491D01*
X12600Y140565D01*
X12563Y140634D01*
X12514Y140697D01*
X12457Y140750D01*
X12392Y140795D01*
X12321Y140828D01*
X12245Y140850D01*
X12167Y140860D01*
X12088Y140858D01*
X12011Y140843D01*
X11937Y140816D01*
X11899Y140795D01*
Y168137D01*
G37*
G36*
X15393Y32606D02*X14539Y32539D01*
X12138Y31962D01*
X11899Y31863D01*
Y117379D01*
X11951Y117294D01*
X12386Y116786D01*
X12894Y116351D01*
X13465Y116002D01*
X14083Y115746D01*
X14733Y115589D01*
X15393Y115537D01*
Y32606D01*
G37*
G36*
X11899Y31863D02*X9858Y31018D01*
X7753Y29728D01*
X5876Y28124D01*
X4272Y26247D01*
X2982Y24142D01*
X2500Y22978D01*
Y177022D01*
X2982Y175858D01*
X4272Y173753D01*
X5876Y171876D01*
X7753Y170272D01*
X9858Y168982D01*
X11899Y168137D01*
Y140795D01*
X11868Y140778D01*
X11806Y140730D01*
X11752Y140673D01*
X11709Y140607D01*
X11523Y140252D01*
X11375Y139879D01*
X11263Y139494D01*
X11188Y139100D01*
X11150Y138701D01*
Y138299D01*
X11188Y137900D01*
X11263Y137506D01*
X11375Y137121D01*
X11523Y136748D01*
X11705Y136391D01*
X11749Y136325D01*
X11803Y136267D01*
X11866Y136219D01*
X11899Y136200D01*
Y122221D01*
X11602Y121735D01*
X11346Y121117D01*
X11189Y120467D01*
X11137Y119800D01*
X11189Y119133D01*
X11346Y118483D01*
X11602Y117865D01*
X11899Y117379D01*
Y31863D01*
G37*
G54D28*X69673Y111445D02*X90555D01*
X99000Y103000D01*
X161000D01*
G54D29*X92000Y15787D02*X92114Y15673D01*
G54D28*X161000Y103000D02*X171000Y113000D01*
Y148500D01*
G54D30*X148000Y176500D02*X118000D01*
X128000Y171000D02*X160500D01*
G54D31*X208000Y183000D03*
G54D32*X183000Y167500D03*
G54D31*X208000Y90000D03*
G54D27*G36*
X175000Y83500D02*Y77500D01*
X181000D01*
Y83500D01*
X175000D01*
G37*
G36*
X185000D02*Y77500D01*
X191000D01*
Y83500D01*
X185000D01*
G37*
G36*
X133000Y118500D02*Y112500D01*
X139000D01*
Y118500D01*
X133000D01*
G37*
G54D33*X171000Y148500D03*
G54D32*X195000D03*
G54D27*G36*
X155000Y189000D02*Y183000D01*
X161000D01*
Y189000D01*
X155000D01*
G37*
G54D34*X148000Y186000D03*
X138000D03*
X128000D03*
X118000D03*
X108000D03*
G54D27*G36*
X46500Y189000D02*Y183000D01*
X52500D01*
Y189000D01*
X46500D01*
G37*
G54D34*X59500Y186000D03*
X69500D03*
G54D35*X15400Y119800D03*
X39000D03*
X15400Y138500D03*
X39000D03*
G54D31*X17000Y17000D03*
Y183000D03*
G54D27*G36*
X66673Y114445D02*Y108445D01*
X72673D01*
Y114445D01*
X66673D01*
G37*
G36*
Y100665D02*Y94665D01*
X72673D01*
Y100665D01*
X66673D01*
G37*
G36*
Y86886D02*Y80886D01*
X72673D01*
Y86886D01*
X66673D01*
G37*
G36*
X61555Y18673D02*Y12673D01*
X67555D01*
Y18673D01*
X61555D01*
G37*
G36*
X75335D02*Y12673D01*
X81335D01*
Y18673D01*
X75335D01*
G37*
G36*
X89114D02*Y12673D01*
X95114D01*
Y18673D01*
X89114D01*
G37*
G54D31*X208000Y17000D03*
G54D27*G36*
X135000Y83500D02*Y77500D01*
X141000D01*
Y83500D01*
X135000D01*
G37*
G36*
X155000D02*Y77500D01*
X161000D01*
Y83500D01*
X155000D01*
G37*
G36*
X165000D02*Y77500D01*
X171000D01*
Y83500D01*
X165000D01*
G37*
G36*
X145000D02*Y77500D01*
X151000D01*
Y83500D01*
X145000D01*
G37*
G36*
X113000Y118500D02*Y112500D01*
X119000D01*
Y118500D01*
X113000D01*
G37*
G36*
X123000Y117500D02*Y111500D01*
X129000D01*
Y117500D01*
X123000D01*
G37*
G36*
X111055Y18673D02*Y12673D01*
X117055D01*
Y18673D01*
X111055D01*
G37*
G36*
X124835D02*Y12673D01*
X130835D01*
Y18673D01*
X124835D01*
G37*
G36*
X138614D02*Y12673D01*
X144614D01*
Y18673D01*
X138614D01*
G37*
G54D29*X105000Y103000D03*
X92000Y37500D03*
X135000Y44000D03*
X148000Y176500D03*
X118000D03*
X128000Y171000D03*
X160500D03*
G54D36*G54D37*G54D38*G54D37*G54D39*G54D40*G54D38*G54D41*G54D42*G54D37*G54D39*G54D37*G54D39*M02*
