G04 start of page 7 for group -4062 idx -4062 *
G04 Title: (unknown), soldermask *
G04 Creator: pcb 20140316 *
G04 CreationDate: Mon 19 Dec 2016 04:58:44 AM GMT UTC *
G04 For: railfan *
G04 Format: Gerber/RS-274X *
G04 PCB-Dimensions (mil): 2250.00 2000.00 *
G04 PCB-Coordinate-Origin: lower left *
%MOIN*%
%FSLAX25Y25*%
%LNBOTTOMMASK*%
%ADD63C,0.0710*%
%ADD62C,0.0660*%
%ADD61C,0.1950*%
%ADD60C,0.0001*%
%ADD59C,0.1700*%
%ADD58C,0.2997*%
G54D58*X208000Y183000D03*
G54D59*X183000Y167500D03*
G54D58*X208000Y90000D03*
G54D60*G36*
X174700Y83800D02*Y77200D01*
X181300D01*
Y83800D01*
X174700D01*
G37*
G36*
X184700D02*Y77200D01*
X191300D01*
Y83800D01*
X184700D01*
G37*
G36*
X132700Y118800D02*Y112200D01*
X139300D01*
Y118800D01*
X132700D01*
G37*
G54D61*X171000Y148500D03*
G54D59*X195000D03*
G54D60*G36*
X154700Y189300D02*Y182700D01*
X161300D01*
Y189300D01*
X154700D01*
G37*
G54D62*X148000Y186000D03*
X138000D03*
X128000D03*
X118000D03*
X108000D03*
G54D60*G36*
X46200Y189300D02*Y182700D01*
X52800D01*
Y189300D01*
X46200D01*
G37*
G54D62*X59500Y186000D03*
X69500D03*
G54D63*X15400Y119800D03*
X39000D03*
X15400Y138500D03*
X39000D03*
G54D58*X17000Y17000D03*
Y183000D03*
G54D60*G36*
X66373Y114745D02*Y108145D01*
X72973D01*
Y114745D01*
X66373D01*
G37*
G36*
Y100965D02*Y94365D01*
X72973D01*
Y100965D01*
X66373D01*
G37*
G36*
Y87186D02*Y80586D01*
X72973D01*
Y87186D01*
X66373D01*
G37*
G36*
X61255Y18973D02*Y12373D01*
X67855D01*
Y18973D01*
X61255D01*
G37*
G36*
X75035D02*Y12373D01*
X81635D01*
Y18973D01*
X75035D01*
G37*
G36*
X88814D02*Y12373D01*
X95414D01*
Y18973D01*
X88814D01*
G37*
G54D58*X208000Y17000D03*
G54D60*G36*
X134700Y83800D02*Y77200D01*
X141300D01*
Y83800D01*
X134700D01*
G37*
G36*
X154700D02*Y77200D01*
X161300D01*
Y83800D01*
X154700D01*
G37*
G36*
X164700D02*Y77200D01*
X171300D01*
Y83800D01*
X164700D01*
G37*
G36*
X144700D02*Y77200D01*
X151300D01*
Y83800D01*
X144700D01*
G37*
G36*
X112700Y118800D02*Y112200D01*
X119300D01*
Y118800D01*
X112700D01*
G37*
G36*
X122700Y117800D02*Y111200D01*
X129300D01*
Y117800D01*
X122700D01*
G37*
G36*
X110755Y18973D02*Y12373D01*
X117355D01*
Y18973D01*
X110755D01*
G37*
G36*
X124535D02*Y12373D01*
X131135D01*
Y18973D01*
X124535D01*
G37*
G36*
X138314D02*Y12373D01*
X144914D01*
Y18973D01*
X138314D01*
G37*
M02*
