G04 start of page 8 for group -4079 idx -4079 *
G04 Title: (unknown), topsilk *
G04 Creator: pcb 20140316 *
G04 CreationDate: Mon 19 Dec 2016 04:58:44 AM GMT UTC *
G04 For: railfan *
G04 Format: Gerber/RS-274X *
G04 PCB-Dimensions (mil): 2250.00 2000.00 *
G04 PCB-Coordinate-Origin: lower left *
%MOIN*%
%FSLAX25Y25*%
%LNTOPSILK*%
%ADD65C,0.0080*%
%ADD64C,0.0100*%
G54D64*X55500Y120500D02*X224500D01*
Y1500D01*
X55500D01*
Y120500D01*
X27500Y53000D02*Y50000D01*
X26000Y51500D02*X29000D01*
G54D65*X78000Y112720D02*Y110380D01*
X78780Y109600D01*
X79560Y110380D01*
Y112720D02*Y110380D01*
X80886Y112720D02*Y109600D01*
X82056Y112720D02*X82446Y112330D01*
Y109990D01*
X82056Y109600D02*X82446Y109990D01*
X80496Y109600D02*X82056D01*
X80496Y112720D02*X82056D01*
X83772D02*Y109600D01*
X84942Y112720D02*X85332Y112330D01*
Y109990D01*
X84942Y109600D02*X85332Y109990D01*
X83382Y109600D02*X84942D01*
X83382Y112720D02*X84942D01*
X79560Y98940D02*X79950Y98550D01*
X78390Y98940D02*X79560D01*
X78000Y98550D02*X78390Y98940D01*
X78000Y98550D02*Y96210D01*
X78390Y95820D01*
X79560D01*
X79950Y96210D01*
Y96990D02*Y96210D01*
X79560Y97380D02*X79950Y96990D01*
X78780Y97380D02*X79560D01*
X80886Y98940D02*Y95820D01*
Y98940D02*Y98550D01*
X82836Y96600D01*
Y98940D02*Y95820D01*
X84162Y98940D02*Y95820D01*
X85332Y98940D02*X85722Y98550D01*
Y96210D01*
X85332Y95820D02*X85722Y96210D01*
X83772Y95820D02*X85332D01*
X83772Y98940D02*X85332D01*
X78390Y82041D02*X79560D01*
X78000Y82431D02*X78390Y82041D01*
X78000Y84771D02*Y82431D01*
Y84771D02*X78390Y85161D01*
X79560D01*
X80496D02*Y82041D01*
Y85161D02*Y84771D01*
X82446Y82821D01*
Y85161D02*Y82041D01*
X83382Y85161D02*X84942D01*
X84162D02*Y82041D01*
X85878Y85161D02*Y82041D01*
X87438D01*
X55000Y139220D02*X56560D01*
X55780D02*Y136100D01*
X57496Y137660D02*X58666D01*
X57496Y136100D02*X59056D01*
X57496Y139220D02*Y136100D01*
Y139220D02*X59056D01*
X61552D02*X61942Y138830D01*
X60382Y139220D02*X61552D01*
X59992Y138830D02*X60382Y139220D01*
X59992Y138830D02*Y138050D01*
X60382Y137660D01*
X61552D01*
X61942Y137270D01*
Y136490D01*
X61552Y136100D02*X61942Y136490D01*
X60382Y136100D02*X61552D01*
X59992Y136490D02*X60382Y136100D01*
X62878Y139220D02*X64438D01*
X63658D02*Y136100D01*
X65374Y137660D02*X66934D01*
X67870Y139220D02*Y136100D01*
Y139220D02*X69040Y138050D01*
X70210Y139220D01*
Y136100D01*
X71146Y139220D02*X72706D01*
X73096Y138830D01*
Y138050D01*
X72706Y137660D02*X73096Y138050D01*
X71536Y137660D02*X72706D01*
X71536Y139220D02*Y136100D01*
Y137660D02*X73096Y136100D01*
X75592Y139220D02*X75982Y138830D01*
X74422Y139220D02*X75592D01*
X74032Y138830D02*X74422Y139220D01*
X74032Y138830D02*Y138050D01*
X74422Y137660D01*
X75592D01*
X75982Y137270D01*
Y136490D01*
X75592Y136100D02*X75982Y136490D01*
X74422Y136100D02*X75592D01*
X74032Y136490D02*X74422Y136100D01*
X76918Y137660D02*X78088D01*
X76918Y136100D02*X78478D01*
X76918Y139220D02*Y136100D01*
Y139220D02*X78478D01*
X79414D02*X80974D01*
X81364Y138830D01*
Y138050D01*
X80974Y137660D02*X81364Y138050D01*
X79804Y137660D02*X80974D01*
X79804Y139220D02*Y136100D01*
Y137660D02*X81364Y136100D01*
X82300Y139220D02*Y136880D01*
X83080Y136100D01*
X83860Y136880D01*
Y139220D02*Y136880D01*
X84796Y138830D02*Y136490D01*
Y138830D02*X85186Y139220D01*
X85966D01*
X86356Y138830D01*
Y136490D01*
X85966Y136100D02*X86356Y136490D01*
X85186Y136100D02*X85966D01*
X84796Y136490D02*X85186Y136100D01*
X88696Y137660D02*Y136880D01*
X89476Y136100D01*
X90256Y136880D01*
Y137660D02*Y136880D01*
X91582Y136100D02*X92362D01*
X91972Y139220D02*Y136100D01*
X91192Y138440D02*X91972Y139220D01*
X93298Y136100D02*X93688D01*
X94624Y136490D02*X95014Y136100D01*
X94624Y138830D02*Y136490D01*
Y138830D02*X95014Y139220D01*
X95794D01*
X96184Y138830D01*
Y136490D01*
X95794Y136100D02*X96184Y136490D01*
X95014Y136100D02*X95794D01*
X94624Y136880D02*X96184Y138440D01*
X55500Y133720D02*X56280D01*
X55890D02*Y130600D01*
X55500D02*X56280D01*
X57216Y131770D02*Y130990D01*
Y131770D02*X57606Y132160D01*
X58386D01*
X58776Y131770D01*
Y130990D01*
X58386Y130600D02*X58776Y130990D01*
X57606Y130600D02*X58386D01*
X57216Y130990D02*X57606Y130600D01*
X59712Y132160D02*Y130990D01*
X60102Y130600D01*
X60492D01*
X60882Y130990D01*
Y132160D02*Y130990D01*
X61272Y130600D01*
X61662D01*
X62052Y130990D01*
Y132160D02*Y130990D01*
X64158Y132160D02*X64548Y131770D01*
X63378Y132160D02*X64158D01*
X62988Y131770D02*X63378Y132160D01*
X62988Y131770D02*Y130990D01*
X63378Y130600D01*
X64548Y132160D02*Y130990D01*
X64938Y130600D01*
X63378D02*X64158D01*
X64548Y130990D01*
X68838Y133720D02*X69228Y133330D01*
X67668Y133720D02*X68838D01*
X67278Y133330D02*X67668Y133720D01*
X67278Y133330D02*Y132550D01*
X67668Y132160D01*
X68838D01*
X69228Y131770D01*
Y130990D01*
X68838Y130600D02*X69228Y130990D01*
X67668Y130600D02*X68838D01*
X67278Y130990D02*X67668Y130600D01*
X70554Y132160D02*X71724D01*
X70164Y131770D02*X70554Y132160D01*
X70164Y131770D02*Y130990D01*
X70554Y130600D01*
X71724D01*
X73830Y132160D02*X74220Y131770D01*
X73050Y132160D02*X73830D01*
X72660Y131770D02*X73050Y132160D01*
X72660Y131770D02*Y130990D01*
X73050Y130600D01*
X74220Y132160D02*Y130990D01*
X74610Y130600D01*
X73050D02*X73830D01*
X74220Y130990D01*
X75546Y133720D02*Y130990D01*
X75936Y130600D01*
X77106D02*X78276D01*
X76716Y130990D02*X77106Y130600D01*
X76716Y131770D02*Y130990D01*
Y131770D02*X77106Y132160D01*
X77886D01*
X78276Y131770D01*
X76716Y131380D02*X78276D01*
Y131770D02*Y131380D01*
X80772Y133720D02*Y130600D01*
X80382D02*X80772Y130990D01*
X79602Y130600D02*X80382D01*
X79212Y130990D02*X79602Y130600D01*
X79212Y131770D02*Y130990D01*
Y131770D02*X79602Y132160D01*
X80382D01*
X80772Y131770D01*
X83112Y132160D02*X84282D01*
X83112Y130600D02*X84672D01*
X83112Y133720D02*Y130600D01*
Y133720D02*X84672D01*
X85998Y131770D02*Y130600D01*
Y131770D02*X86388Y132160D01*
X86778D01*
X87168Y131770D01*
Y130600D01*
X85608Y132160D02*X85998Y131770D01*
X89274Y132160D02*X89664Y131770D01*
X88494Y132160D02*X89274D01*
X88104Y131770D02*X88494Y132160D01*
X88104Y131770D02*Y130990D01*
X88494Y130600D01*
X89274D01*
X89664Y130990D01*
X88104Y129820D02*X88494Y129430D01*
X89274D01*
X89664Y129820D01*
Y132160D02*Y129820D01*
X90600Y132940D02*Y132550D01*
Y131770D02*Y130600D01*
X91770Y131770D02*Y130600D01*
Y131770D02*X92160Y132160D01*
X92550D01*
X92940Y131770D01*
Y130600D01*
X91380Y132160D02*X91770Y131770D01*
X94266Y130600D02*X95436D01*
X93876Y130990D02*X94266Y130600D01*
X93876Y131770D02*Y130990D01*
Y131770D02*X94266Y132160D01*
X95046D01*
X95436Y131770D01*
X93876Y131380D02*X95436D01*
Y131770D02*Y131380D01*
X96762Y130600D02*X97932D01*
X96372Y130990D02*X96762Y130600D01*
X96372Y131770D02*Y130990D01*
Y131770D02*X96762Y132160D01*
X97542D01*
X97932Y131770D01*
X96372Y131380D02*X97932D01*
Y131770D02*Y131380D01*
X99258Y131770D02*Y130600D01*
Y131770D02*X99648Y132160D01*
X100428D01*
X98868D02*X99258Y131770D01*
X101364Y132940D02*Y132550D01*
Y131770D02*Y130600D01*
X102534Y131770D02*Y130600D01*
Y131770D02*X102924Y132160D01*
X103314D01*
X103704Y131770D01*
Y130600D01*
X102144Y132160D02*X102534Y131770D01*
X105810Y132160D02*X106200Y131770D01*
X105030Y132160D02*X105810D01*
X104640Y131770D02*X105030Y132160D01*
X104640Y131770D02*Y130990D01*
X105030Y130600D01*
X105810D01*
X106200Y130990D01*
X104640Y129820D02*X105030Y129430D01*
X105810D01*
X106200Y129820D01*
Y132160D02*Y129820D01*
X14500Y40220D02*Y37100D01*
Y40220D02*Y39830D01*
X16450Y37880D01*
Y40220D02*Y37100D01*
X17386Y39830D02*Y37490D01*
Y39830D02*X17776Y40220D01*
X18556D01*
X18946Y39830D01*
Y37490D01*
X18556Y37100D02*X18946Y37490D01*
X17776Y37100D02*X18556D01*
X17386Y37490D02*X17776Y37100D01*
X19882Y40220D02*X21442D01*
X21832Y39830D01*
Y39050D01*
X21442Y38660D02*X21832Y39050D01*
X20272Y38660D02*X21442D01*
X20272Y40220D02*Y37100D01*
Y38660D02*X21832Y37100D01*
X14500Y64720D02*X16060D01*
X16450Y64330D01*
Y63550D01*
X16060Y63160D02*X16450Y63550D01*
X14890Y63160D02*X16060D01*
X14890Y64720D02*Y61600D01*
Y63160D02*X16450Y61600D01*
X17386Y63160D02*X18556D01*
X17386Y61600D02*X18946D01*
X17386Y64720D02*Y61600D01*
Y64720D02*X18946D01*
X19882D02*Y62380D01*
X20662Y61600D01*
X21442Y62380D01*
Y64720D02*Y62380D01*
X33500Y40220D02*Y37100D01*
Y40220D02*Y39830D01*
X35450Y37880D01*
Y40220D02*Y37100D01*
X36386Y39830D02*Y37490D01*
Y39830D02*X36776Y40220D01*
X37556D01*
X37946Y39830D01*
Y37490D01*
X37556Y37100D02*X37946Y37490D01*
X36776Y37100D02*X37556D01*
X36386Y37490D02*X36776Y37100D01*
X38882Y40220D02*X40442D01*
X40832Y39830D01*
Y39050D01*
X40442Y38660D02*X40832Y39050D01*
X39272Y38660D02*X40442D01*
X39272Y40220D02*Y37100D01*
Y38660D02*X40832Y37100D01*
X33500Y64720D02*X35060D01*
X35450Y64330D01*
Y63550D01*
X35060Y63160D02*X35450Y63550D01*
X33890Y63160D02*X35060D01*
X33890Y64720D02*Y61600D01*
Y63160D02*X35450Y61600D01*
X36386Y63160D02*X37556D01*
X36386Y61600D02*X37946D01*
X36386Y64720D02*Y61600D01*
Y64720D02*X37946D01*
X38882D02*Y62380D01*
X39662Y61600D01*
X40442Y62380D01*
Y64720D02*Y62380D01*
X62780Y23000D02*X65900D01*
X62780D02*X63170D01*
X65120Y24950D01*
X62780D02*X65900D01*
X63170Y25886D02*X65510D01*
X63170D02*X62780Y26276D01*
Y27056D02*Y26276D01*
Y27056D02*X63170Y27446D01*
X65510D01*
X65900Y27056D02*X65510Y27446D01*
X65900Y27056D02*Y26276D01*
X65510Y25886D02*X65900Y26276D01*
X62780Y29942D02*Y28382D01*
Y29942D02*X63170Y30332D01*
X63950D01*
X64340Y29942D02*X63950Y30332D01*
X64340Y29942D02*Y28772D01*
X62780D02*X65900D01*
X64340D02*X65900Y30332D01*
X79680Y24560D02*Y23390D01*
X79290Y23000D02*X79680Y23390D01*
X76950Y23000D02*X79290D01*
X76950D02*X76560Y23390D01*
Y24560D02*Y23390D01*
X76950Y25496D02*X79290D01*
X76950D02*X76560Y25886D01*
Y26666D02*Y25886D01*
Y26666D02*X76950Y27056D01*
X79290D01*
X79680Y26666D02*X79290Y27056D01*
X79680Y26666D02*Y25886D01*
X79290Y25496D02*X79680Y25886D01*
X76560Y27992D02*X79680D01*
X76560D02*X77730Y29162D01*
X76560Y30332D01*
X79680D01*
X90339Y24560D02*Y23000D01*
Y24560D02*X90729Y24950D01*
X91509D01*
X91899Y24560D02*X91509Y24950D01*
X91899Y24560D02*Y23390D01*
X90339D02*X93459D01*
X91899D02*X93459Y24950D01*
X91899Y27056D02*Y25886D01*
X93459Y27446D02*Y25886D01*
X90339D02*X93459D01*
X90339Y27446D02*Y25886D01*
Y28382D02*X92679D01*
X93459Y29162D01*
X92679Y29942D01*
X90339D02*X92679D01*
X112280Y23000D02*X115400D01*
X112280D02*X112670D01*
X114620Y24950D01*
X112280D02*X115400D01*
X112670Y25886D02*X115010D01*
X112670D02*X112280Y26276D01*
Y27056D02*Y26276D01*
Y27056D02*X112670Y27446D01*
X115010D01*
X115400Y27056D02*X115010Y27446D01*
X115400Y27056D02*Y26276D01*
X115010Y25886D02*X115400Y26276D01*
X112280Y29942D02*Y28382D01*
Y29942D02*X112670Y30332D01*
X113450D01*
X113840Y29942D02*X113450Y30332D01*
X113840Y29942D02*Y28772D01*
X112280D02*X115400D01*
X113840D02*X115400Y30332D01*
X129180Y24560D02*Y23390D01*
X128790Y23000D02*X129180Y23390D01*
X126450Y23000D02*X128790D01*
X126450D02*X126060Y23390D01*
Y24560D02*Y23390D01*
X126450Y25496D02*X128790D01*
X126450D02*X126060Y25886D01*
Y26666D02*Y25886D01*
Y26666D02*X126450Y27056D01*
X128790D01*
X129180Y26666D02*X128790Y27056D01*
X129180Y26666D02*Y25886D01*
X128790Y25496D02*X129180Y25886D01*
X126060Y27992D02*X129180D01*
X126060D02*X127230Y29162D01*
X126060Y30332D01*
X129180D01*
X139839Y24560D02*Y23000D01*
Y24560D02*X140229Y24950D01*
X141009D01*
X141399Y24560D02*X141009Y24950D01*
X141399Y24560D02*Y23390D01*
X139839D02*X142959D01*
X141399D02*X142959Y24950D01*
X141399Y27056D02*Y25886D01*
X142959Y27446D02*Y25886D01*
X139839D02*X142959D01*
X139839Y27446D02*Y25886D01*
Y28382D02*X142179D01*
X142959Y29162D01*
X142179Y29942D01*
X139839D02*X142179D01*
G54D64*X9100Y145250D02*X45300D01*
Y113050D01*
X9100D01*
Y145250D01*
X16600Y148850D02*X37800D01*
X16600Y109450D02*X37800D01*
X16600Y148850D02*Y145250D01*
X37800Y148850D02*Y145250D01*
X16600Y109450D02*Y113050D01*
X37800Y109450D02*Y113050D01*
X44500Y181000D02*X74500D01*
Y191000D02*Y181000D01*
X44500Y191000D02*X74500D01*
X44500D02*Y181000D01*
X54500Y191000D02*Y181000D01*
X44500Y191000D02*X54500D01*
X64673Y116445D02*Y106445D01*
X74673D01*
Y116445D01*
X64673D01*
Y102665D02*Y92665D01*
X74673D01*
Y102665D01*
X64673D01*
Y88886D02*Y78886D01*
X74673D01*
Y88886D01*
X64673D01*
X111000Y120500D02*Y110500D01*
X121000D01*
Y120500D01*
X111000D01*
X131000D02*Y110500D01*
X141000D01*
Y120500D01*
X131000D01*
X121000Y119500D02*Y109500D01*
X131000D01*
Y119500D01*
X121000D01*
X103000Y191000D02*X163000D01*
X103000D02*Y181000D01*
X163000D01*
Y191000D02*Y181000D01*
X153000Y191000D02*Y181000D01*
X163000D01*
X59555Y20673D02*Y10673D01*
X69555D01*
Y20673D01*
X59555D01*
X73335D02*Y10673D01*
X83335D01*
Y20673D01*
X73335D01*
X87114D02*Y10673D01*
X97114D01*
Y20673D01*
X87114D01*
X109055D02*Y10673D01*
X119055D01*
Y20673D01*
X109055D01*
X122835D02*Y10673D01*
X132835D01*
Y20673D01*
X122835D01*
X136614D02*Y10673D01*
X146614D01*
Y20673D01*
X136614D01*
X17564Y59255D02*X18350D01*
X17564Y53745D02*X18350D01*
X36607Y59255D02*X37393D01*
X36607Y53745D02*X37393D01*
X17607Y48255D02*X18393D01*
X17607Y42745D02*X18393D01*
X36607Y48255D02*X37393D01*
X36607Y42745D02*X37393D01*
X81607Y34745D02*X82393D01*
X81607Y40255D02*X82393D01*
X131107Y34745D02*X131893D01*
X131107Y40255D02*X131893D01*
X173000Y85500D02*Y75500D01*
X183000D01*
Y85500D01*
X173000D01*
X183000D02*Y75500D01*
X193000D01*
Y85500D01*
X183000D01*
X133000D02*Y75500D01*
X143000D01*
Y85500D01*
X133000D01*
X153000D02*Y75500D01*
X163000D01*
Y85500D01*
X153000D01*
X163000D02*Y75500D01*
X173000D01*
Y85500D01*
X163000D01*
X143000D02*Y75500D01*
X153000D01*
Y85500D01*
X143000D01*
X195000Y165500D02*X224500D01*
Y131500D01*
X168500D02*X224500D01*
X168500Y136500D02*Y131500D01*
Y165500D02*X172500D01*
X168500D02*Y160500D01*
X224500Y165500D02*Y131500D01*
X224000Y165500D02*Y131500D01*
X223500Y165500D02*Y131500D01*
X223000Y165500D02*Y131500D01*
X222500Y165500D02*Y131500D01*
X222000Y165500D02*Y131500D01*
X221500Y165500D02*Y131500D01*
X221000Y165500D02*Y131500D01*
X211500Y165500D02*Y131500D01*
X212000Y165500D02*Y131500D01*
X212500Y165500D02*Y131500D01*
X213000Y165500D02*Y131500D01*
X213500Y165500D02*Y131500D01*
X214000Y165500D02*Y131500D01*
X214500Y165500D02*Y131500D01*
X215000Y165500D02*Y131500D01*
M02*
