M48
INCH
T51C0.020
T50C0.045
T49C0.047
T48C0.129
T47C0.038
%
T51
X013200Y066550
X013200Y053550
X010900Y061150
X010400Y053000
X010950Y053500
X013050Y060700
X015950Y062550
X015950Y049550
X011250Y056850
X011800Y055450
X011800Y055900
X011800Y056350
X011150Y055000
X011150Y054500
X007350Y061450
X007350Y062250
X006300Y061700
X008200Y060900
X009150Y060600
X009050Y062300
X009000Y061800
X010400Y066000
X010400Y040000
X012450Y056850
X012450Y043850
X013200Y040550
X013050Y047700
X012400Y048500
X007350Y074450
X007350Y075250
X008200Y073900
X006300Y074700
X010900Y074150
X009150Y073600
X013050Y073700
X015950Y075550
X011350Y075050
X012400Y074500
X011400Y076150
X010900Y075400
X009050Y075300
X009000Y074800
X012450Y069850
X012400Y061500
X010950Y066500
X011250Y069850
X011800Y068450
X011800Y068900
X011800Y069350
X011150Y068000
X011150Y067500
X011350Y062050
X011400Y063150
X010900Y062400
X010900Y048150
X010950Y040500
X011250Y043850
X011800Y042450
X011800Y042900
X011800Y043350
X015950Y036550
X011400Y037150
X011150Y042000
X011150Y041500
X011350Y049050
X011400Y050150
X010900Y049400
X010900Y035150
X013050Y034700
X011350Y036050
X010900Y036400
X012400Y035500
X007350Y048450
X006300Y048700
X007350Y049250
X009050Y049300
X008200Y047900
X007350Y035450
X007350Y036250
X008200Y034900
X006300Y035700
X009150Y047600
X009000Y048800
X009150Y034600
X009050Y036300
X009000Y035800
X012450Y030850
X011250Y030850
X011800Y029450
X011800Y029900
X011800Y030350
X011150Y029000
X010950Y027500
X011150Y028500
X010400Y027000
X010400Y014000
X010400Y001000
X013200Y027550
X012450Y017850
X013050Y021700
X012400Y022500
X010900Y022150
X011350Y023050
X011400Y024150
X010900Y023400
X015950Y023550
X015950Y010550
X011250Y017850
X011800Y016450
X011800Y016900
X011800Y017350
X011350Y010050
X011400Y011150
X010900Y010400
X012400Y009500
X007350Y022450
X007350Y023250
X006300Y022700
X008200Y021900
X009150Y021600
X009050Y023300
X009000Y022800
X007350Y009450
X007350Y010250
X008200Y008900
X009150Y008600
X009000Y009800
X006300Y009700
X009050Y010300
X010950Y014500
X011150Y016000
X011150Y015500
X010900Y009150
X010950Y001500
X013200Y014550
X012450Y004850
X013200Y001550
X013050Y008700
X011250Y004850
X011800Y003450
X011800Y003900
X011800Y004350
X011150Y003000
X011150Y002500
T47
X009150Y055700
X011150Y055700
X007800Y055700
X008100Y050450
X007100Y050350
X006100Y050450
X013150Y055700
X016150Y055700
X013300Y046950
X012300Y046950
X016150Y045700
X013150Y045700
X009150Y068700
X007800Y068700
X011150Y068700
X011300Y059950
X010300Y059950
X009300Y059950
X008300Y059950
X008100Y063450
X007100Y063350
X006100Y063450
X011150Y058700
X009150Y058700
X007800Y058700
X016150Y071700
X016150Y068700
X013300Y072950
X013150Y071700
X012300Y072950
X013150Y068700
X013300Y059950
X012300Y059950
X016150Y058700
X013150Y058700
X011300Y072950
X010300Y072950
X009300Y072950
X011150Y071700
X009150Y071700
X008300Y072950
X004800Y071700
X002800Y071700
X000800Y071700
X007800Y071700
X008100Y076450
X007100Y076350
X006100Y076450
X000800Y068700
X002800Y068700
X004800Y058700
X004800Y055700
X004800Y068700
X002800Y058700
X000800Y058700
X000800Y055700
X002800Y055700
X009150Y042700
X011150Y042700
X011300Y046950
X010300Y046950
X009300Y046950
X011150Y045700
X009150Y045700
X007800Y045700
X004800Y042700
X007800Y042700
X008300Y046950
X004800Y045700
X002800Y045700
X000800Y045700
X000800Y042700
X002800Y042700
X009300Y033950
X008300Y033950
X009150Y032700
X007800Y032700
X008100Y037450
X007100Y037350
X006100Y037450
X004800Y032700
X004800Y029700
X009150Y029700
X007800Y029700
X000800Y029700
X002800Y029700
X002800Y032700
X000800Y032700
X013150Y042700
X016150Y042700
X016150Y032700
X013150Y032700
X013300Y033950
X012300Y033950
X011300Y033950
X010300Y033950
X011150Y032700
X011150Y029700
X013150Y029700
X016150Y029700
X016150Y019700
X013300Y020950
X012300Y020950
X011300Y020950
X010300Y020950
X013150Y019700
X011150Y019700
X004800Y019700
X002800Y019700
X008300Y020950
X007800Y019700
X008100Y024450
X007100Y024350
X000800Y019700
X009150Y016700
X000800Y016700
X002800Y016700
X004800Y016700
X007800Y016700
X011150Y016700
X013150Y016700
X016150Y016700
X006100Y024450
X004800Y006700
X009300Y020950
X009150Y019700
X008100Y011450
X007100Y011350
X006100Y011450
X016150Y006700
X013300Y007950
X012300Y007950
X011300Y007950
X010300Y007950
X013150Y006700
X011150Y006700
X011150Y003700
X013150Y003700
X016150Y003700
X002800Y006700
X000800Y006700
X009150Y003700
X007800Y003700
X000800Y003700
X002800Y003700
X004800Y003700
X009300Y007950
X008300Y007950
X009150Y006700
X007800Y006700
T50
X004300Y073400
X006300Y073400
X005300Y073400
X006300Y060400
X005300Y060400
X004300Y060400
X006300Y047400
X005300Y047400
X004300Y047400
X006300Y034400
X005300Y034400
X004300Y034400
X005300Y021400
X006300Y021400
X004300Y021400
X004300Y008400
X006300Y008400
X005300Y008400
T49
X005906Y066467
X007284Y066467
X008661Y066467
X008661Y053467
X001467Y076044
X001467Y074666
X001467Y073289
X000956Y066467
X005906Y053467
X007284Y053467
X000956Y053467
X002334Y053467
X003711Y053467
X002334Y066467
X003711Y066467
X001467Y063044
X001467Y061666
X001467Y050044
X001467Y048666
X001467Y047289
X001467Y060289
X005906Y040467
X007284Y040467
X003711Y040467
X008661Y040467
X000956Y040467
X002334Y040467
X001467Y037044
X001467Y035666
X001467Y034289
X005906Y027467
X007284Y027467
X008661Y027467
X000956Y027467
X002334Y027467
X003711Y027467
X001467Y024044
X001467Y022666
X001467Y021289
X005906Y014467
X000956Y014467
X002334Y014467
X003711Y014467
X007284Y014467
X008661Y014467
X005906Y001467
X007284Y001467
X001467Y011044
X001467Y009666
X001467Y008289
X008661Y001467
X000956Y001467
X002334Y001467
X003711Y001467
T48
X015300Y053600
X015300Y047900
X015300Y066600
X015300Y073900
X015300Y060900
X015300Y040600
X015300Y034900
X015300Y027600
X015300Y021900
X015300Y014600
X015300Y001600
X015300Y008900
M30
