G04 start of page 7 for group -4062 idx -4062 *
G04 Title: (unknown), soldermask *
G04 Creator: pcb 20110918 *
G04 CreationDate: Sun 20 Dec 2015 04:06:38 AM GMT UTC *
G04 For: petersen *
G04 Format: Gerber/RS-274X *
G04 PCB-Dimensions: 170000 770000 *
G04 PCB-Coordinate-Origin: lower left *
%MOIN*%
%FSLAX25Y25*%
%LNBOTTOMMASK*%
%ADD71R,0.0300X0.0300*%
%ADD70C,0.0600*%
%ADD69C,0.0907*%
%ADD68C,0.0900*%
%ADD67C,0.0860*%
%ADD66C,0.2997*%
%ADD65C,0.0660*%
%ADD64C,0.0001*%
%ADD63C,0.0750*%
G54D63*X91500Y557000D03*
X111500D03*
X78000D03*
G54D64*G36*
X77700Y507800D02*Y501200D01*
X84300D01*
Y507800D01*
X77700D01*
G37*
G54D65*X71000Y503500D03*
X61000Y504500D03*
G54D66*X153000Y536000D03*
G54D63*X131500Y557000D03*
X161500D03*
G54D66*X153000Y479000D03*
G54D64*G36*
X129700Y472800D02*Y466200D01*
X136300D01*
Y472800D01*
X129700D01*
G37*
G54D65*X123000Y469500D03*
G54D64*G36*
X157750Y460750D02*Y453250D01*
X165250D01*
Y460750D01*
X157750D01*
G37*
G54D63*X131500Y457000D03*
G54D64*G36*
X54755Y668973D02*Y660373D01*
X63355D01*
Y668973D01*
X54755D01*
G37*
G54D67*X72835Y664673D03*
X86614D03*
G54D63*X91500Y687000D03*
X78000D03*
X111500D03*
G54D65*X113000Y599500D03*
X103000D03*
X93000D03*
G54D67*X86614Y534673D03*
G54D65*X83000Y599500D03*
G54D64*G36*
X77700Y637800D02*Y631200D01*
X84300D01*
Y637800D01*
X77700D01*
G37*
G54D65*X71000Y633500D03*
X61000Y634500D03*
G54D63*X111500Y587000D03*
X91500D03*
G54D64*G36*
X74250Y590750D02*Y583250D01*
X81750D01*
Y590750D01*
X74250D01*
G37*
G54D66*X153000Y666000D03*
Y739000D03*
G54D64*G36*
X157750Y720750D02*Y713250D01*
X165250D01*
Y720750D01*
X157750D01*
G37*
G54D63*X161500Y687000D03*
G54D64*G36*
X129700Y732800D02*Y726200D01*
X136300D01*
Y732800D01*
X129700D01*
G37*
G54D63*X131500Y717000D03*
G54D65*X123000Y729500D03*
G54D63*X131500Y687000D03*
G54D66*X153000Y609000D03*
G54D64*G36*
X129700Y602800D02*Y596200D01*
X136300D01*
Y602800D01*
X129700D01*
G37*
G54D65*X123000Y599500D03*
G54D64*G36*
X157750Y590750D02*Y583250D01*
X165250D01*
Y590750D01*
X157750D01*
G37*
G54D63*X131500Y587000D03*
G54D64*G36*
X38500Y738500D02*Y729500D01*
X47500D01*
Y738500D01*
X38500D01*
G37*
G36*
X10373Y764745D02*Y756145D01*
X18973D01*
Y764745D01*
X10373D01*
G37*
G54D67*X14673Y746665D03*
Y732886D03*
G54D65*X113000Y729500D03*
X103000D03*
X93000D03*
G54D63*X111500Y717000D03*
X91500D03*
G54D68*X63000Y734000D03*
X53000D03*
G54D65*X83000Y729500D03*
G54D63*X48000Y717000D03*
X28000D03*
X8000D03*
G54D64*G36*
X74250Y720750D02*Y713250D01*
X81750D01*
Y720750D01*
X74250D01*
G37*
G36*
X77700Y767800D02*Y761200D01*
X84300D01*
Y767800D01*
X77700D01*
G37*
G54D65*X71000Y763500D03*
X61000Y764500D03*
G54D64*G36*
X5255Y668973D02*Y660373D01*
X13855D01*
Y668973D01*
X5255D01*
G37*
G54D63*X8000Y687000D03*
X28000D03*
G54D64*G36*
X54755Y538973D02*Y530373D01*
X63355D01*
Y538973D01*
X54755D01*
G37*
G54D68*X63000Y604000D03*
X53000D03*
G54D64*G36*
X38500Y608500D02*Y599500D01*
X47500D01*
Y608500D01*
X38500D01*
G37*
G54D63*X48000Y587000D03*
Y557000D03*
G54D67*X72835Y534673D03*
G54D64*G36*
X5255Y538973D02*Y530373D01*
X13855D01*
Y538973D01*
X5255D01*
G37*
G54D67*X23335Y534673D03*
X37114D03*
X23335Y664673D03*
X37114D03*
G54D63*X48000Y687000D03*
G54D64*G36*
X10373Y634745D02*Y626145D01*
X18973D01*
Y634745D01*
X10373D01*
G37*
G54D67*X14673Y616665D03*
G54D64*G36*
X10373Y504745D02*Y496145D01*
X18973D01*
Y504745D01*
X10373D01*
G37*
G54D67*X14673Y486665D03*
Y472886D03*
Y602886D03*
G54D63*X28000Y587000D03*
X8000D03*
Y557000D03*
X28000D03*
G54D64*G36*
X54755Y408973D02*Y400373D01*
X63355D01*
Y408973D01*
X54755D01*
G37*
G54D67*X72835Y404673D03*
X37114D03*
X86614D03*
G54D63*X91500Y427000D03*
X111500D03*
G54D65*X113000Y469500D03*
X103000D03*
X93000D03*
G54D63*X111500Y457000D03*
X91500D03*
G54D64*G36*
X74250Y460750D02*Y453250D01*
X81750D01*
Y460750D01*
X74250D01*
G37*
G54D63*X48000Y427000D03*
X78000D03*
G54D68*X63000Y474000D03*
G54D65*X83000Y469500D03*
G54D68*X53000Y474000D03*
G54D63*X48000Y457000D03*
X28000D03*
X8000D03*
G54D64*G36*
X38500Y478500D02*Y469500D01*
X47500D01*
Y478500D01*
X38500D01*
G37*
G36*
X5255Y408973D02*Y400373D01*
X13855D01*
Y408973D01*
X5255D01*
G37*
G54D67*X23335Y404673D03*
G54D63*X8000Y427000D03*
X28000D03*
G54D64*G36*
X10373Y374745D02*Y366145D01*
X18973D01*
Y374745D01*
X10373D01*
G37*
G54D67*X14673Y356665D03*
Y342886D03*
G54D65*X93000Y339500D03*
X83000D03*
G54D63*X91500Y327000D03*
G54D64*G36*
X74250Y330750D02*Y323250D01*
X81750D01*
Y330750D01*
X74250D01*
G37*
G36*
X77700Y377800D02*Y371200D01*
X84300D01*
Y377800D01*
X77700D01*
G37*
G54D65*X71000Y373500D03*
X61000Y374500D03*
G54D64*G36*
X54755Y278973D02*Y270373D01*
X63355D01*
Y278973D01*
X54755D01*
G37*
G54D68*X63000Y344000D03*
X53000D03*
G54D64*G36*
X38500Y348500D02*Y339500D01*
X47500D01*
Y348500D01*
X38500D01*
G37*
G54D63*X48000Y327000D03*
Y297000D03*
G54D67*X72835Y274673D03*
X86614D03*
G54D63*X91500Y297000D03*
X78000D03*
G54D64*G36*
X5255Y278973D02*Y270373D01*
X13855D01*
Y278973D01*
X5255D01*
G37*
G54D63*X8000Y297000D03*
G54D67*X23335Y274673D03*
G54D63*X28000Y297000D03*
G54D67*X37114Y274673D03*
G54D63*X28000Y327000D03*
X8000D03*
G54D66*X153000Y406000D03*
G54D63*X131500Y427000D03*
X161500D03*
G54D66*X153000Y349000D03*
G54D64*G36*
X157750Y330750D02*Y323250D01*
X165250D01*
Y330750D01*
X157750D01*
G37*
G54D63*X131500Y327000D03*
G54D64*G36*
X129700Y342800D02*Y336200D01*
X136300D01*
Y342800D01*
X129700D01*
G37*
G54D65*X123000Y339500D03*
X113000D03*
X103000D03*
G54D66*X153000Y276000D03*
G54D63*X111500Y327000D03*
Y297000D03*
X131500D03*
X161500D03*
G54D66*X153000Y219000D03*
G54D64*G36*
X157750Y200750D02*Y193250D01*
X165250D01*
Y200750D01*
X157750D01*
G37*
G36*
X129700Y212800D02*Y206200D01*
X136300D01*
Y212800D01*
X129700D01*
G37*
G54D65*X123000Y209500D03*
X113000D03*
X103000D03*
G54D63*X131500Y197000D03*
X111500D03*
G54D68*X53000Y214000D03*
G54D63*X48000Y197000D03*
X28000D03*
G54D65*X83000Y209500D03*
G54D64*G36*
X74250Y200750D02*Y193250D01*
X81750D01*
Y200750D01*
X74250D01*
G37*
G36*
X77700Y247800D02*Y241200D01*
X84300D01*
Y247800D01*
X77700D01*
G37*
G54D65*X71000Y243500D03*
G54D64*G36*
X10373Y244745D02*Y236145D01*
X18973D01*
Y244745D01*
X10373D01*
G37*
G54D67*X14673Y226665D03*
Y212886D03*
G54D63*X8000Y197000D03*
G54D64*G36*
X54755Y148973D02*Y140373D01*
X63355D01*
Y148973D01*
X54755D01*
G37*
G36*
X5255D02*Y140373D01*
X13855D01*
Y148973D01*
X5255D01*
G37*
G54D67*X23335Y144673D03*
X37114D03*
X72835D03*
X86614D03*
G54D66*X153000Y146000D03*
G54D63*X91500Y167000D03*
X8000D03*
X28000D03*
X48000D03*
X78000D03*
X111500D03*
X131500D03*
X161500D03*
G54D68*X63000Y214000D03*
G54D65*X61000Y244500D03*
G54D64*G36*
X38500Y218500D02*Y209500D01*
X47500D01*
Y218500D01*
X38500D01*
G37*
G36*
Y88500D02*Y79500D01*
X47500D01*
Y88500D01*
X38500D01*
G37*
G54D63*X48000Y67000D03*
G54D65*X93000Y209500D03*
G54D63*X91500Y197000D03*
G54D64*G36*
X77700Y117800D02*Y111200D01*
X84300D01*
Y117800D01*
X77700D01*
G37*
G36*
X54755Y18973D02*Y10373D01*
X63355D01*
Y18973D01*
X54755D01*
G37*
G54D67*X72835Y14673D03*
G54D68*X63000Y84000D03*
X53000D03*
G54D65*X71000Y113500D03*
X61000Y114500D03*
G54D66*X153000Y16000D03*
Y89000D03*
G54D64*G36*
X157750Y70750D02*Y63250D01*
X165250D01*
Y70750D01*
X157750D01*
G37*
G36*
X129700Y82800D02*Y76200D01*
X136300D01*
Y82800D01*
X129700D01*
G37*
G54D65*X123000Y79500D03*
X113000D03*
X103000D03*
G54D63*X131500Y67000D03*
X111500D03*
Y37000D03*
X131500D03*
X161500D03*
G54D64*G36*
X10373Y114745D02*Y106145D01*
X18973D01*
Y114745D01*
X10373D01*
G37*
G54D67*X14673Y96665D03*
Y82886D03*
G54D63*X28000Y67000D03*
X8000D03*
G54D67*X86614Y14673D03*
G54D63*X91500Y37000D03*
X78000D03*
G54D64*G36*
X5255Y18973D02*Y10373D01*
X13855D01*
Y18973D01*
X5255D01*
G37*
G54D67*X23335Y14673D03*
X37114D03*
G54D63*X8000Y37000D03*
X28000D03*
X48000D03*
G54D65*X93000Y79500D03*
X83000D03*
G54D63*X91500Y67000D03*
G54D64*G36*
X74250Y70750D02*Y63250D01*
X81750D01*
Y70750D01*
X74250D01*
G37*
G54D69*X53000Y607937D02*Y600063D01*
X43000Y607937D02*Y600063D01*
X63000Y607937D02*Y600063D01*
G54D70*X98700Y680000D03*
G54D71*X100200Y681500D02*Y678500D01*
G54D70*X105500Y680000D03*
G54D71*X104000Y681500D02*Y678500D01*
G54D69*X53000Y737937D02*Y730063D01*
X43000Y737937D02*Y730063D01*
X63000Y737937D02*Y730063D01*
G54D70*X98700Y550000D03*
G54D71*X100200Y551500D02*Y548500D01*
G54D70*X105500Y550000D03*
G54D71*X104000Y551500D02*Y548500D01*
G54D69*X53000Y477937D02*Y470063D01*
X43000Y477937D02*Y470063D01*
X63000Y477937D02*Y470063D01*
G54D70*X98700Y420000D03*
G54D71*X100200Y421500D02*Y418500D01*
G54D70*X105500Y420000D03*
G54D71*X104000Y421500D02*Y418500D01*
G54D69*X53000Y347937D02*Y340063D01*
X43000Y347937D02*Y340063D01*
X63000Y347937D02*Y340063D01*
G54D70*X98700Y290000D03*
G54D71*X100200Y291500D02*Y288500D01*
G54D70*X105500Y290000D03*
G54D71*X104000Y291500D02*Y288500D01*
G54D69*X53000Y217937D02*Y210063D01*
X43000Y217937D02*Y210063D01*
X63000Y217937D02*Y210063D01*
G54D70*X98700Y160000D03*
G54D71*X100200Y161500D02*Y158500D01*
G54D70*X105500Y160000D03*
G54D71*X104000Y161500D02*Y158500D01*
G54D69*X53000Y87937D02*Y80063D01*
X43000Y87937D02*Y80063D01*
X63000Y87937D02*Y80063D01*
G54D70*X98700Y30000D03*
G54D71*X100200Y31500D02*Y28500D01*
G54D70*X105500Y30000D03*
G54D71*X104000Y31500D02*Y28500D01*
M02*
