G04 start of page 12 for group -3984 idx -3984 *
G04 Title: (unknown), fab *
G04 Creator: pcb 20110918 *
G04 CreationDate: Sun 20 Dec 2015 04:06:38 AM GMT UTC *
G04 For: petersen *
G04 Format: Gerber/RS-274X *
G04 PCB-Dimensions: 170000 770000 *
G04 PCB-Coordinate-Origin: lower left *
%MOIN*%
%FSLAX25Y25*%
%LNFAB*%
%ADD85C,0.0100*%
%ADD84C,0.0060*%
%ADD83R,0.0080X0.0080*%
G54D83*X151400Y667600D02*X154600D01*
X151400D02*Y664400D01*
X154600D01*
Y667600D02*Y664400D01*
X151400Y740600D02*X154600D01*
X151400D02*Y737400D01*
X154600D01*
Y740600D02*Y737400D01*
X151400Y537600D02*X154600D01*
X151400D02*Y534400D01*
X154600D01*
Y537600D02*Y534400D01*
X151400Y610600D02*X154600D01*
X151400D02*Y607400D01*
X154600D01*
Y610600D02*Y607400D01*
X151400Y407600D02*X154600D01*
X151400D02*Y404400D01*
X154600D01*
Y407600D02*Y404400D01*
X151400Y480600D02*X154600D01*
X151400D02*Y477400D01*
X154600D01*
Y480600D02*Y477400D01*
X151400Y277600D02*X154600D01*
X151400D02*Y274400D01*
X154600D01*
Y277600D02*Y274400D01*
X151400Y350600D02*X154600D01*
X151400D02*Y347400D01*
X154600D01*
Y350600D02*Y347400D01*
X151400Y147600D02*X154600D01*
X151400D02*Y144400D01*
X154600D01*
Y147600D02*Y144400D01*
X151400Y220600D02*X154600D01*
X151400D02*Y217400D01*
X154600D01*
Y220600D02*Y217400D01*
X151400Y17600D02*X154600D01*
X151400D02*Y14400D01*
X154600D01*
Y17600D02*Y14400D01*
X151400Y90600D02*X154600D01*
X151400D02*Y87400D01*
X154600D01*
Y90600D02*Y87400D01*
X13400Y782850D02*X16600D01*
X13400D02*Y779650D01*
X16600D01*
Y782850D02*Y779650D01*
G54D84*X135000Y783500D02*Y782750D01*
X136500Y781250D01*
X138000Y782750D01*
Y783500D02*Y782750D01*
X136500Y781250D02*Y777500D01*
X139800Y780500D02*X142050D01*
X139800Y777500D02*X142800D01*
X139800Y783500D02*Y777500D01*
Y783500D02*X142800D01*
X147600D02*X148350Y782750D01*
X145350Y783500D02*X147600D01*
X144600Y782750D02*X145350Y783500D01*
X144600Y782750D02*Y781250D01*
X145350Y780500D01*
X147600D01*
X148350Y779750D01*
Y778250D01*
X147600Y777500D02*X148350Y778250D01*
X145350Y777500D02*X147600D01*
X144600Y778250D02*X145350Y777500D01*
X98750D02*X100250D01*
X99500Y783500D02*Y777500D01*
X98000Y782000D02*X99500Y783500D01*
X102050Y782750D02*X102800Y783500D01*
X105050D01*
X105800Y782750D01*
Y781250D01*
X102050Y777500D02*X105800Y781250D01*
X102050Y777500D02*X105800D01*
X45000Y778250D02*X45750Y777500D01*
X45000Y782750D02*Y778250D01*
Y782750D02*X45750Y783500D01*
X47250D01*
X48000Y782750D01*
Y778250D01*
X47250Y777500D02*X48000Y778250D01*
X45750Y777500D02*X47250D01*
X45000Y779000D02*X48000Y782000D01*
X49800Y777500D02*X50550D01*
X53100D02*X54600D01*
X53850Y783500D02*Y777500D01*
X52350Y782000D02*X53850Y783500D01*
X56400Y782750D02*X57150Y783500D01*
X59400D01*
X60150Y782750D01*
Y781250D01*
X56400Y777500D02*X60150Y781250D01*
X56400Y777500D02*X60150D01*
X61950D02*X64950Y780500D01*
Y782750D02*Y780500D01*
X64200Y783500D02*X64950Y782750D01*
X62700Y783500D02*X64200D01*
X61950Y782750D02*X62700Y783500D01*
X61950Y782750D02*Y781250D01*
X62700Y780500D01*
X64950D01*
X58255Y664673D02*G75*G03X59855Y664673I800J0D01*G01*
G75*G03X58255Y664673I-800J0D01*G01*
X72035D02*G75*G03X73635Y664673I800J0D01*G01*
G75*G03X72035Y664673I-800J0D01*G01*
X85814D02*G75*G03X87414Y664673I800J0D01*G01*
G75*G03X85814Y664673I-800J0D01*G01*
X13873Y760445D02*G75*G03X15473Y760445I800J0D01*G01*
G75*G03X13873Y760445I-800J0D01*G01*
Y746665D02*G75*G03X15473Y746665I800J0D01*G01*
G75*G03X13873Y746665I-800J0D01*G01*
Y732886D02*G75*G03X15473Y732886I800J0D01*G01*
G75*G03X13873Y732886I-800J0D01*G01*
X8755Y664673D02*G75*G03X10355Y664673I800J0D01*G01*
G75*G03X8755Y664673I-800J0D01*G01*
X22535D02*G75*G03X24135Y664673I800J0D01*G01*
G75*G03X22535Y664673I-800J0D01*G01*
X36314D02*G75*G03X37914Y664673I800J0D01*G01*
G75*G03X36314Y664673I-800J0D01*G01*
X58255Y534673D02*G75*G03X59855Y534673I800J0D01*G01*
G75*G03X58255Y534673I-800J0D01*G01*
X72035D02*G75*G03X73635Y534673I800J0D01*G01*
G75*G03X72035Y534673I-800J0D01*G01*
X85814D02*G75*G03X87414Y534673I800J0D01*G01*
G75*G03X85814Y534673I-800J0D01*G01*
X13873Y630445D02*G75*G03X15473Y630445I800J0D01*G01*
G75*G03X13873Y630445I-800J0D01*G01*
Y616665D02*G75*G03X15473Y616665I800J0D01*G01*
G75*G03X13873Y616665I-800J0D01*G01*
Y602886D02*G75*G03X15473Y602886I800J0D01*G01*
G75*G03X13873Y602886I-800J0D01*G01*
X8755Y534673D02*G75*G03X10355Y534673I800J0D01*G01*
G75*G03X8755Y534673I-800J0D01*G01*
X22535D02*G75*G03X24135Y534673I800J0D01*G01*
G75*G03X22535Y534673I-800J0D01*G01*
X36314D02*G75*G03X37914Y534673I800J0D01*G01*
G75*G03X36314Y534673I-800J0D01*G01*
X58255Y404673D02*G75*G03X59855Y404673I800J0D01*G01*
G75*G03X58255Y404673I-800J0D01*G01*
X72035D02*G75*G03X73635Y404673I800J0D01*G01*
G75*G03X72035Y404673I-800J0D01*G01*
X85814D02*G75*G03X87414Y404673I800J0D01*G01*
G75*G03X85814Y404673I-800J0D01*G01*
X13873Y500445D02*G75*G03X15473Y500445I800J0D01*G01*
G75*G03X13873Y500445I-800J0D01*G01*
Y486665D02*G75*G03X15473Y486665I800J0D01*G01*
G75*G03X13873Y486665I-800J0D01*G01*
Y472886D02*G75*G03X15473Y472886I800J0D01*G01*
G75*G03X13873Y472886I-800J0D01*G01*
X8755Y404673D02*G75*G03X10355Y404673I800J0D01*G01*
G75*G03X8755Y404673I-800J0D01*G01*
X22535D02*G75*G03X24135Y404673I800J0D01*G01*
G75*G03X22535Y404673I-800J0D01*G01*
X36314D02*G75*G03X37914Y404673I800J0D01*G01*
G75*G03X36314Y404673I-800J0D01*G01*
X58255Y274673D02*G75*G03X59855Y274673I800J0D01*G01*
G75*G03X58255Y274673I-800J0D01*G01*
X72035D02*G75*G03X73635Y274673I800J0D01*G01*
G75*G03X72035Y274673I-800J0D01*G01*
X85814D02*G75*G03X87414Y274673I800J0D01*G01*
G75*G03X85814Y274673I-800J0D01*G01*
X13873Y370445D02*G75*G03X15473Y370445I800J0D01*G01*
G75*G03X13873Y370445I-800J0D01*G01*
Y356665D02*G75*G03X15473Y356665I800J0D01*G01*
G75*G03X13873Y356665I-800J0D01*G01*
Y342886D02*G75*G03X15473Y342886I800J0D01*G01*
G75*G03X13873Y342886I-800J0D01*G01*
X8755Y274673D02*G75*G03X10355Y274673I800J0D01*G01*
G75*G03X8755Y274673I-800J0D01*G01*
X22535D02*G75*G03X24135Y274673I800J0D01*G01*
G75*G03X22535Y274673I-800J0D01*G01*
X36314D02*G75*G03X37914Y274673I800J0D01*G01*
G75*G03X36314Y274673I-800J0D01*G01*
X58255Y144673D02*G75*G03X59855Y144673I800J0D01*G01*
G75*G03X58255Y144673I-800J0D01*G01*
X72035D02*G75*G03X73635Y144673I800J0D01*G01*
G75*G03X72035Y144673I-800J0D01*G01*
X85814D02*G75*G03X87414Y144673I800J0D01*G01*
G75*G03X85814Y144673I-800J0D01*G01*
X13873Y240445D02*G75*G03X15473Y240445I800J0D01*G01*
G75*G03X13873Y240445I-800J0D01*G01*
Y226665D02*G75*G03X15473Y226665I800J0D01*G01*
G75*G03X13873Y226665I-800J0D01*G01*
Y212886D02*G75*G03X15473Y212886I800J0D01*G01*
G75*G03X13873Y212886I-800J0D01*G01*
X8755Y144673D02*G75*G03X10355Y144673I800J0D01*G01*
G75*G03X8755Y144673I-800J0D01*G01*
X22535D02*G75*G03X24135Y144673I800J0D01*G01*
G75*G03X22535Y144673I-800J0D01*G01*
X36314D02*G75*G03X37914Y144673I800J0D01*G01*
G75*G03X36314Y144673I-800J0D01*G01*
X58255Y14673D02*G75*G03X59855Y14673I800J0D01*G01*
G75*G03X58255Y14673I-800J0D01*G01*
X72035D02*G75*G03X73635Y14673I800J0D01*G01*
G75*G03X72035Y14673I-800J0D01*G01*
X85814D02*G75*G03X87414Y14673I800J0D01*G01*
G75*G03X85814Y14673I-800J0D01*G01*
X13873Y110445D02*G75*G03X15473Y110445I800J0D01*G01*
G75*G03X13873Y110445I-800J0D01*G01*
Y96665D02*G75*G03X15473Y96665I800J0D01*G01*
G75*G03X13873Y96665I-800J0D01*G01*
Y82886D02*G75*G03X15473Y82886I800J0D01*G01*
G75*G03X13873Y82886I-800J0D01*G01*
X8755Y14673D02*G75*G03X10355Y14673I800J0D01*G01*
G75*G03X8755Y14673I-800J0D01*G01*
X22535D02*G75*G03X24135Y14673I800J0D01*G01*
G75*G03X22535Y14673I-800J0D01*G01*
X36314D02*G75*G03X37914Y14673I800J0D01*G01*
G75*G03X36314Y14673I-800J0D01*G01*
X14200Y796250D02*G75*G03X15800Y796250I800J0D01*G01*
G75*G03X14200Y796250I-800J0D01*G01*
X135000Y798500D02*Y797750D01*
X136500Y796250D01*
X138000Y797750D01*
Y798500D02*Y797750D01*
X136500Y796250D02*Y792500D01*
X139800Y795500D02*X142050D01*
X139800Y792500D02*X142800D01*
X139800Y798500D02*Y792500D01*
Y798500D02*X142800D01*
X147600D02*X148350Y797750D01*
X145350Y798500D02*X147600D01*
X144600Y797750D02*X145350Y798500D01*
X144600Y797750D02*Y796250D01*
X145350Y795500D01*
X147600D01*
X148350Y794750D01*
Y793250D01*
X147600Y792500D02*X148350Y793250D01*
X145350Y792500D02*X147600D01*
X144600Y793250D02*X145350Y792500D01*
X98000Y798500D02*X101000D01*
X98000D02*Y795500D01*
X98750Y796250D01*
X100250D01*
X101000Y795500D01*
Y793250D01*
X100250Y792500D02*X101000Y793250D01*
X98750Y792500D02*X100250D01*
X98000Y793250D02*X98750Y792500D01*
X102800Y795500D02*X105800Y798500D01*
X102800Y795500D02*X106550D01*
X105800Y798500D02*Y792500D01*
X45000Y793250D02*X45750Y792500D01*
X45000Y797750D02*Y793250D01*
Y797750D02*X45750Y798500D01*
X47250D01*
X48000Y797750D01*
Y793250D01*
X47250Y792500D02*X48000Y793250D01*
X45750Y792500D02*X47250D01*
X45000Y794000D02*X48000Y797000D01*
X49800Y792500D02*X50550D01*
X52350Y793250D02*X53100Y792500D01*
X52350Y797750D02*Y793250D01*
Y797750D02*X53100Y798500D01*
X54600D01*
X55350Y797750D01*
Y793250D01*
X54600Y792500D02*X55350Y793250D01*
X53100Y792500D02*X54600D01*
X52350Y794000D02*X55350Y797000D01*
X57150Y795500D02*X60150Y798500D01*
X57150Y795500D02*X60900D01*
X60150Y798500D02*Y792500D01*
X62700D02*X66450Y796250D01*
Y798500D02*Y796250D01*
X62700Y798500D02*X66450D01*
X61800Y735200D02*X64200Y732800D01*
X61800D02*X64200Y735200D01*
X51800D02*X54200Y732800D01*
X51800D02*X54200Y735200D01*
X41800D02*X44200Y732800D01*
X41800D02*X44200Y735200D01*
X61800Y605200D02*X64200Y602800D01*
X61800D02*X64200Y605200D01*
X51800D02*X54200Y602800D01*
X51800D02*X54200Y605200D01*
X41800D02*X44200Y602800D01*
X41800D02*X44200Y605200D01*
X61800Y475200D02*X64200Y472800D01*
X61800D02*X64200Y475200D01*
X51800D02*X54200Y472800D01*
X51800D02*X54200Y475200D01*
X41800D02*X44200Y472800D01*
X41800D02*X44200Y475200D01*
X61800Y345200D02*X64200Y342800D01*
X61800D02*X64200Y345200D01*
X51800D02*X54200Y342800D01*
X51800D02*X54200Y345200D01*
X41800D02*X44200Y342800D01*
X41800D02*X44200Y345200D01*
X61800Y215200D02*X64200Y212800D01*
X61800D02*X64200Y215200D01*
X51800D02*X54200Y212800D01*
X51800D02*X54200Y215200D01*
X41800D02*X44200Y212800D01*
X41800D02*X44200Y215200D01*
X61800Y85200D02*X64200Y82800D01*
X61800D02*X64200Y85200D01*
X51800D02*X54200Y82800D01*
X51800D02*X54200Y85200D01*
X41800D02*X44200Y82800D01*
X41800D02*X44200Y85200D01*
X13800Y812450D02*X16200Y810050D01*
X13800D02*X16200Y812450D01*
X135000Y813500D02*Y812750D01*
X136500Y811250D01*
X138000Y812750D01*
Y813500D02*Y812750D01*
X136500Y811250D02*Y807500D01*
X139800Y810500D02*X142050D01*
X139800Y807500D02*X142800D01*
X139800Y813500D02*Y807500D01*
Y813500D02*X142800D01*
X147600D02*X148350Y812750D01*
X145350Y813500D02*X147600D01*
X144600Y812750D02*X145350Y813500D01*
X144600Y812750D02*Y811250D01*
X145350Y810500D01*
X147600D01*
X148350Y809750D01*
Y808250D01*
X147600Y807500D02*X148350Y808250D01*
X145350Y807500D02*X147600D01*
X144600Y808250D02*X145350Y807500D01*
X98750D02*X100250D01*
X99500Y813500D02*Y807500D01*
X98000Y812000D02*X99500Y813500D01*
X102050Y808250D02*X102800Y807500D01*
X102050Y809750D02*Y808250D01*
Y809750D02*X102800Y810500D01*
X104300D01*
X105050Y809750D01*
Y808250D01*
X104300Y807500D02*X105050Y808250D01*
X102800Y807500D02*X104300D01*
X102050Y811250D02*X102800Y810500D01*
X102050Y812750D02*Y811250D01*
Y812750D02*X102800Y813500D01*
X104300D01*
X105050Y812750D01*
Y811250D01*
X104300Y810500D02*X105050Y811250D01*
X45000Y808250D02*X45750Y807500D01*
X45000Y812750D02*Y808250D01*
Y812750D02*X45750Y813500D01*
X47250D01*
X48000Y812750D01*
Y808250D01*
X47250Y807500D02*X48000Y808250D01*
X45750Y807500D02*X47250D01*
X45000Y809000D02*X48000Y812000D01*
X49800Y807500D02*X50550D01*
X52350Y808250D02*X53100Y807500D01*
X52350Y812750D02*Y808250D01*
Y812750D02*X53100Y813500D01*
X54600D01*
X55350Y812750D01*
Y808250D01*
X54600Y807500D02*X55350Y808250D01*
X53100Y807500D02*X54600D01*
X52350Y809000D02*X55350Y812000D01*
X57150Y810500D02*X60150Y813500D01*
X57150Y810500D02*X60900D01*
X60150Y813500D02*Y807500D01*
X62700Y813500D02*X65700D01*
X62700D02*Y810500D01*
X63450Y811250D01*
X64950D01*
X65700Y810500D01*
Y808250D01*
X64950Y807500D02*X65700Y808250D01*
X63450Y807500D02*X64950D01*
X62700Y808250D02*X63450Y807500D01*
X133000Y731100D02*Y727900D01*
X131400Y729500D02*X134600D01*
X123000Y731100D02*Y727900D01*
X121400Y729500D02*X124600D01*
X113000Y731100D02*Y727900D01*
X111400Y729500D02*X114600D01*
X103000Y731100D02*Y727900D01*
X101400Y729500D02*X104600D01*
X93000Y731100D02*Y727900D01*
X91400Y729500D02*X94600D01*
X83000Y731100D02*Y727900D01*
X81400Y729500D02*X84600D01*
X161500Y718600D02*Y715400D01*
X159900Y717000D02*X163100D01*
X131500Y718600D02*Y715400D01*
X129900Y717000D02*X133100D01*
X111500Y718600D02*Y715400D01*
X109900Y717000D02*X113100D01*
X91500Y718600D02*Y715400D01*
X89900Y717000D02*X93100D01*
X91500Y688600D02*Y685400D01*
X89900Y687000D02*X93100D01*
X111500Y688600D02*Y685400D01*
X109900Y687000D02*X113100D01*
X131500Y688600D02*Y685400D01*
X129900Y687000D02*X133100D01*
X161500Y688600D02*Y685400D01*
X159900Y687000D02*X163100D01*
X78000Y718600D02*Y715400D01*
X76400Y717000D02*X79600D01*
X48000Y718600D02*Y715400D01*
X46400Y717000D02*X49600D01*
X28000Y718600D02*Y715400D01*
X26400Y717000D02*X29600D01*
X8000Y718600D02*Y715400D01*
X6400Y717000D02*X9600D01*
X8000Y688600D02*Y685400D01*
X6400Y687000D02*X9600D01*
X28000Y688600D02*Y685400D01*
X26400Y687000D02*X29600D01*
X48000Y688600D02*Y685400D01*
X46400Y687000D02*X49600D01*
X78000Y688600D02*Y685400D01*
X76400Y687000D02*X79600D01*
X81000Y766100D02*Y762900D01*
X79400Y764500D02*X82600D01*
X71000Y765100D02*Y761900D01*
X69400Y763500D02*X72600D01*
X61000Y766100D02*Y762900D01*
X59400Y764500D02*X62600D01*
X133000Y601100D02*Y597900D01*
X131400Y599500D02*X134600D01*
X123000Y601100D02*Y597900D01*
X121400Y599500D02*X124600D01*
X113000Y601100D02*Y597900D01*
X111400Y599500D02*X114600D01*
X103000Y601100D02*Y597900D01*
X101400Y599500D02*X104600D01*
X93000Y601100D02*Y597900D01*
X91400Y599500D02*X94600D01*
X83000Y601100D02*Y597900D01*
X81400Y599500D02*X84600D01*
X161500Y588600D02*Y585400D01*
X159900Y587000D02*X163100D01*
X131500Y588600D02*Y585400D01*
X129900Y587000D02*X133100D01*
X111500Y588600D02*Y585400D01*
X109900Y587000D02*X113100D01*
X91500Y588600D02*Y585400D01*
X89900Y587000D02*X93100D01*
X91500Y558600D02*Y555400D01*
X89900Y557000D02*X93100D01*
X111500Y558600D02*Y555400D01*
X109900Y557000D02*X113100D01*
X131500Y558600D02*Y555400D01*
X129900Y557000D02*X133100D01*
X161500Y558600D02*Y555400D01*
X159900Y557000D02*X163100D01*
X78000Y588600D02*Y585400D01*
X76400Y587000D02*X79600D01*
X48000Y588600D02*Y585400D01*
X46400Y587000D02*X49600D01*
X28000Y588600D02*Y585400D01*
X26400Y587000D02*X29600D01*
X8000Y588600D02*Y585400D01*
X6400Y587000D02*X9600D01*
X8000Y558600D02*Y555400D01*
X6400Y557000D02*X9600D01*
X28000Y558600D02*Y555400D01*
X26400Y557000D02*X29600D01*
X48000Y558600D02*Y555400D01*
X46400Y557000D02*X49600D01*
X78000Y558600D02*Y555400D01*
X76400Y557000D02*X79600D01*
X81000Y636100D02*Y632900D01*
X79400Y634500D02*X82600D01*
X71000Y635100D02*Y631900D01*
X69400Y633500D02*X72600D01*
X61000Y636100D02*Y632900D01*
X59400Y634500D02*X62600D01*
X133000Y471100D02*Y467900D01*
X131400Y469500D02*X134600D01*
X123000Y471100D02*Y467900D01*
X121400Y469500D02*X124600D01*
X113000Y471100D02*Y467900D01*
X111400Y469500D02*X114600D01*
X103000Y471100D02*Y467900D01*
X101400Y469500D02*X104600D01*
X93000Y471100D02*Y467900D01*
X91400Y469500D02*X94600D01*
X83000Y471100D02*Y467900D01*
X81400Y469500D02*X84600D01*
X161500Y458600D02*Y455400D01*
X159900Y457000D02*X163100D01*
X131500Y458600D02*Y455400D01*
X129900Y457000D02*X133100D01*
X111500Y458600D02*Y455400D01*
X109900Y457000D02*X113100D01*
X91500Y458600D02*Y455400D01*
X89900Y457000D02*X93100D01*
X91500Y428600D02*Y425400D01*
X89900Y427000D02*X93100D01*
X111500Y428600D02*Y425400D01*
X109900Y427000D02*X113100D01*
X131500Y428600D02*Y425400D01*
X129900Y427000D02*X133100D01*
X161500Y428600D02*Y425400D01*
X159900Y427000D02*X163100D01*
X78000Y458600D02*Y455400D01*
X76400Y457000D02*X79600D01*
X48000Y458600D02*Y455400D01*
X46400Y457000D02*X49600D01*
X28000Y458600D02*Y455400D01*
X26400Y457000D02*X29600D01*
X8000Y458600D02*Y455400D01*
X6400Y457000D02*X9600D01*
X8000Y428600D02*Y425400D01*
X6400Y427000D02*X9600D01*
X28000Y428600D02*Y425400D01*
X26400Y427000D02*X29600D01*
X48000Y428600D02*Y425400D01*
X46400Y427000D02*X49600D01*
X78000Y428600D02*Y425400D01*
X76400Y427000D02*X79600D01*
X81000Y506100D02*Y502900D01*
X79400Y504500D02*X82600D01*
X71000Y505100D02*Y501900D01*
X69400Y503500D02*X72600D01*
X61000Y506100D02*Y502900D01*
X59400Y504500D02*X62600D01*
X133000Y341100D02*Y337900D01*
X131400Y339500D02*X134600D01*
X123000Y341100D02*Y337900D01*
X121400Y339500D02*X124600D01*
X113000Y341100D02*Y337900D01*
X111400Y339500D02*X114600D01*
X103000Y341100D02*Y337900D01*
X101400Y339500D02*X104600D01*
X93000Y341100D02*Y337900D01*
X91400Y339500D02*X94600D01*
X83000Y341100D02*Y337900D01*
X81400Y339500D02*X84600D01*
X161500Y328600D02*Y325400D01*
X159900Y327000D02*X163100D01*
X131500Y328600D02*Y325400D01*
X129900Y327000D02*X133100D01*
X111500Y328600D02*Y325400D01*
X109900Y327000D02*X113100D01*
X91500Y328600D02*Y325400D01*
X89900Y327000D02*X93100D01*
X91500Y298600D02*Y295400D01*
X89900Y297000D02*X93100D01*
X111500Y298600D02*Y295400D01*
X109900Y297000D02*X113100D01*
X131500Y298600D02*Y295400D01*
X129900Y297000D02*X133100D01*
X161500Y298600D02*Y295400D01*
X159900Y297000D02*X163100D01*
X78000Y328600D02*Y325400D01*
X76400Y327000D02*X79600D01*
X48000Y328600D02*Y325400D01*
X46400Y327000D02*X49600D01*
X28000Y328600D02*Y325400D01*
X26400Y327000D02*X29600D01*
X8000Y328600D02*Y325400D01*
X6400Y327000D02*X9600D01*
X8000Y298600D02*Y295400D01*
X6400Y297000D02*X9600D01*
X28000Y298600D02*Y295400D01*
X26400Y297000D02*X29600D01*
X48000Y298600D02*Y295400D01*
X46400Y297000D02*X49600D01*
X78000Y298600D02*Y295400D01*
X76400Y297000D02*X79600D01*
X81000Y376100D02*Y372900D01*
X79400Y374500D02*X82600D01*
X71000Y375100D02*Y371900D01*
X69400Y373500D02*X72600D01*
X61000Y376100D02*Y372900D01*
X59400Y374500D02*X62600D01*
X133000Y211100D02*Y207900D01*
X131400Y209500D02*X134600D01*
X123000Y211100D02*Y207900D01*
X121400Y209500D02*X124600D01*
X113000Y211100D02*Y207900D01*
X111400Y209500D02*X114600D01*
X103000Y211100D02*Y207900D01*
X101400Y209500D02*X104600D01*
X93000Y211100D02*Y207900D01*
X91400Y209500D02*X94600D01*
X83000Y211100D02*Y207900D01*
X81400Y209500D02*X84600D01*
X161500Y198600D02*Y195400D01*
X159900Y197000D02*X163100D01*
X131500Y198600D02*Y195400D01*
X129900Y197000D02*X133100D01*
X111500Y198600D02*Y195400D01*
X109900Y197000D02*X113100D01*
X91500Y198600D02*Y195400D01*
X89900Y197000D02*X93100D01*
X91500Y168600D02*Y165400D01*
X89900Y167000D02*X93100D01*
X111500Y168600D02*Y165400D01*
X109900Y167000D02*X113100D01*
X131500Y168600D02*Y165400D01*
X129900Y167000D02*X133100D01*
X161500Y168600D02*Y165400D01*
X159900Y167000D02*X163100D01*
X78000Y198600D02*Y195400D01*
X76400Y197000D02*X79600D01*
X48000Y198600D02*Y195400D01*
X46400Y197000D02*X49600D01*
X28000Y198600D02*Y195400D01*
X26400Y197000D02*X29600D01*
X8000Y198600D02*Y195400D01*
X6400Y197000D02*X9600D01*
X8000Y168600D02*Y165400D01*
X6400Y167000D02*X9600D01*
X28000Y168600D02*Y165400D01*
X26400Y167000D02*X29600D01*
X48000Y168600D02*Y165400D01*
X46400Y167000D02*X49600D01*
X78000Y168600D02*Y165400D01*
X76400Y167000D02*X79600D01*
X81000Y246100D02*Y242900D01*
X79400Y244500D02*X82600D01*
X71000Y245100D02*Y241900D01*
X69400Y243500D02*X72600D01*
X61000Y246100D02*Y242900D01*
X59400Y244500D02*X62600D01*
X133000Y81100D02*Y77900D01*
X131400Y79500D02*X134600D01*
X123000Y81100D02*Y77900D01*
X121400Y79500D02*X124600D01*
X113000Y81100D02*Y77900D01*
X111400Y79500D02*X114600D01*
X103000Y81100D02*Y77900D01*
X101400Y79500D02*X104600D01*
X93000Y81100D02*Y77900D01*
X91400Y79500D02*X94600D01*
X83000Y81100D02*Y77900D01*
X81400Y79500D02*X84600D01*
X161500Y68600D02*Y65400D01*
X159900Y67000D02*X163100D01*
X131500Y68600D02*Y65400D01*
X129900Y67000D02*X133100D01*
X111500Y68600D02*Y65400D01*
X109900Y67000D02*X113100D01*
X91500Y68600D02*Y65400D01*
X89900Y67000D02*X93100D01*
X91500Y38600D02*Y35400D01*
X89900Y37000D02*X93100D01*
X111500Y38600D02*Y35400D01*
X109900Y37000D02*X113100D01*
X131500Y38600D02*Y35400D01*
X129900Y37000D02*X133100D01*
X161500Y38600D02*Y35400D01*
X159900Y37000D02*X163100D01*
X78000Y68600D02*Y65400D01*
X76400Y67000D02*X79600D01*
X48000Y68600D02*Y65400D01*
X46400Y67000D02*X49600D01*
X28000Y68600D02*Y65400D01*
X26400Y67000D02*X29600D01*
X8000Y68600D02*Y65400D01*
X6400Y67000D02*X9600D01*
X8000Y38600D02*Y35400D01*
X6400Y37000D02*X9600D01*
X28000Y38600D02*Y35400D01*
X26400Y37000D02*X29600D01*
X48000Y38600D02*Y35400D01*
X46400Y37000D02*X49600D01*
X78000Y38600D02*Y35400D01*
X76400Y37000D02*X79600D01*
X81000Y116100D02*Y112900D01*
X79400Y114500D02*X82600D01*
X71000Y115100D02*Y111900D01*
X69400Y113500D02*X72600D01*
X61000Y116100D02*Y112900D01*
X59400Y114500D02*X62600D01*
X15000Y827850D02*Y824650D01*
X13400Y826250D02*X16600D01*
X135000Y828500D02*Y827750D01*
X136500Y826250D01*
X138000Y827750D01*
Y828500D02*Y827750D01*
X136500Y826250D02*Y822500D01*
X139800Y825500D02*X142050D01*
X139800Y822500D02*X142800D01*
X139800Y828500D02*Y822500D01*
Y828500D02*X142800D01*
X147600D02*X148350Y827750D01*
X145350Y828500D02*X147600D01*
X144600Y827750D02*X145350Y828500D01*
X144600Y827750D02*Y826250D01*
X145350Y825500D01*
X147600D01*
X148350Y824750D01*
Y823250D01*
X147600Y822500D02*X148350Y823250D01*
X145350Y822500D02*X147600D01*
X144600Y823250D02*X145350Y822500D01*
X98750D02*X100250D01*
X99500Y828500D02*Y822500D01*
X98000Y827000D02*X99500Y828500D01*
X102050D02*X105050D01*
X102050D02*Y825500D01*
X102800Y826250D01*
X104300D01*
X105050Y825500D01*
Y823250D01*
X104300Y822500D02*X105050Y823250D01*
X102800Y822500D02*X104300D01*
X102050Y823250D02*X102800Y822500D01*
X106850Y823250D02*X107600Y822500D01*
X106850Y827750D02*Y823250D01*
Y827750D02*X107600Y828500D01*
X109100D01*
X109850Y827750D01*
Y823250D01*
X109100Y822500D02*X109850Y823250D01*
X107600Y822500D02*X109100D01*
X106850Y824000D02*X109850Y827000D01*
X45000Y823250D02*X45750Y822500D01*
X45000Y827750D02*Y823250D01*
Y827750D02*X45750Y828500D01*
X47250D01*
X48000Y827750D01*
Y823250D01*
X47250Y822500D02*X48000Y823250D01*
X45750Y822500D02*X47250D01*
X45000Y824000D02*X48000Y827000D01*
X49800Y822500D02*X50550D01*
X52350Y823250D02*X53100Y822500D01*
X52350Y827750D02*Y823250D01*
Y827750D02*X53100Y828500D01*
X54600D01*
X55350Y827750D01*
Y823250D01*
X54600Y822500D02*X55350Y823250D01*
X53100Y822500D02*X54600D01*
X52350Y824000D02*X55350Y827000D01*
X57150Y827750D02*X57900Y828500D01*
X59400D01*
X60150Y827750D01*
Y823250D01*
X59400Y822500D02*X60150Y823250D01*
X57900Y822500D02*X59400D01*
X57150Y823250D02*X57900Y822500D01*
Y825500D02*X60150D01*
X61950Y823250D02*X62700Y822500D01*
X61950Y824750D02*Y823250D01*
Y824750D02*X62700Y825500D01*
X64200D01*
X64950Y824750D01*
Y823250D01*
X64200Y822500D02*X64950Y823250D01*
X62700Y822500D02*X64200D01*
X61950Y826250D02*X62700Y825500D01*
X61950Y827750D02*Y826250D01*
Y827750D02*X62700Y828500D01*
X64200D01*
X64950Y827750D01*
Y826250D01*
X64200Y825500D02*X64950Y826250D01*
X109000Y741500D02*Y739900D01*
Y741500D02*X110387Y742300D01*
X109000Y741500D02*X107613Y742300D01*
X73500Y744500D02*Y742900D01*
Y744500D02*X74887Y745300D01*
X73500Y744500D02*X72113Y745300D01*
X73500Y752500D02*Y750900D01*
Y752500D02*X74887Y753300D01*
X73500Y752500D02*X72113Y753300D01*
X82000Y739000D02*Y737400D01*
Y739000D02*X83387Y739800D01*
X82000Y739000D02*X80613Y739800D01*
X91500Y736000D02*Y734400D01*
Y736000D02*X92887Y736800D01*
X91500Y736000D02*X90113Y736800D01*
X63000Y747000D02*Y745400D01*
Y747000D02*X64387Y747800D01*
X63000Y747000D02*X61613Y747800D01*
X124500Y698500D02*Y696900D01*
Y698500D02*X125887Y699300D01*
X124500Y698500D02*X123113Y699300D01*
X104000Y660000D02*Y658400D01*
Y660000D02*X105387Y660800D01*
X104000Y660000D02*X102613Y660800D01*
X109500Y665000D02*Y663400D01*
Y665000D02*X110887Y665800D01*
X109500Y665000D02*X108113Y665800D01*
X132000Y665500D02*Y663900D01*
Y665500D02*X133387Y666300D01*
X132000Y665500D02*X130613Y666300D01*
X112500Y698500D02*Y696900D01*
Y698500D02*X113887Y699300D01*
X112500Y698500D02*X111113Y699300D01*
X118000Y684500D02*Y682900D01*
Y684500D02*X119387Y685300D01*
X118000Y684500D02*X116613Y685300D01*
X118000Y689000D02*Y687400D01*
Y689000D02*X119387Y689800D01*
X118000Y689000D02*X116613Y689800D01*
X118000Y693500D02*Y691900D01*
Y693500D02*X119387Y694300D01*
X118000Y693500D02*X116613Y694300D01*
X130500Y737000D02*Y735400D01*
Y737000D02*X131887Y737800D01*
X130500Y737000D02*X129113Y737800D01*
X159500Y755500D02*Y753900D01*
Y755500D02*X160887Y756300D01*
X159500Y755500D02*X158113Y756300D01*
X111500Y680000D02*Y678400D01*
Y680000D02*X112887Y680800D01*
X111500Y680000D02*X110113Y680800D01*
X111500Y675000D02*Y673400D01*
Y675000D02*X112887Y675800D01*
X111500Y675000D02*X110113Y675800D01*
X113500Y750500D02*Y748900D01*
Y750500D02*X114887Y751300D01*
X113500Y750500D02*X112113Y751300D01*
X114000Y761500D02*Y759900D01*
Y761500D02*X115387Y762300D01*
X114000Y761500D02*X112613Y762300D01*
X109000Y754000D02*Y752400D01*
Y754000D02*X110387Y754800D01*
X109000Y754000D02*X107613Y754800D01*
X90500Y753000D02*Y751400D01*
Y753000D02*X91887Y753800D01*
X90500Y753000D02*X89113Y753800D01*
X90000Y748000D02*Y746400D01*
Y748000D02*X91387Y748800D01*
X90000Y748000D02*X88613Y748800D01*
X124000Y745000D02*Y743400D01*
Y745000D02*X125387Y745800D01*
X124000Y745000D02*X122613Y745800D01*
X109000Y611500D02*Y609900D01*
Y611500D02*X110387Y612300D01*
X109000Y611500D02*X107613Y612300D01*
X73500Y614500D02*Y612900D01*
Y614500D02*X74887Y615300D01*
X73500Y614500D02*X72113Y615300D01*
X73500Y622500D02*Y620900D01*
Y622500D02*X74887Y623300D01*
X73500Y622500D02*X72113Y623300D01*
X82000Y609000D02*Y607400D01*
Y609000D02*X83387Y609800D01*
X82000Y609000D02*X80613Y609800D01*
X91500Y606000D02*Y604400D01*
Y606000D02*X92887Y606800D01*
X91500Y606000D02*X90113Y606800D01*
X63000Y617000D02*Y615400D01*
Y617000D02*X64387Y617800D01*
X63000Y617000D02*X61613Y617800D01*
X124500Y568500D02*Y566900D01*
Y568500D02*X125887Y569300D01*
X124500Y568500D02*X123113Y569300D01*
X104000Y530000D02*Y528400D01*
Y530000D02*X105387Y530800D01*
X104000Y530000D02*X102613Y530800D01*
X109500Y535000D02*Y533400D01*
Y535000D02*X110887Y535800D01*
X109500Y535000D02*X108113Y535800D01*
X132000Y535500D02*Y533900D01*
Y535500D02*X133387Y536300D01*
X132000Y535500D02*X130613Y536300D01*
X112500Y568500D02*Y566900D01*
Y568500D02*X113887Y569300D01*
X112500Y568500D02*X111113Y569300D01*
X118000Y554500D02*Y552900D01*
Y554500D02*X119387Y555300D01*
X118000Y554500D02*X116613Y555300D01*
X118000Y559000D02*Y557400D01*
Y559000D02*X119387Y559800D01*
X118000Y559000D02*X116613Y559800D01*
X118000Y563500D02*Y561900D01*
Y563500D02*X119387Y564300D01*
X118000Y563500D02*X116613Y564300D01*
X130500Y607000D02*Y605400D01*
Y607000D02*X131887Y607800D01*
X130500Y607000D02*X129113Y607800D01*
X159500Y625500D02*Y623900D01*
Y625500D02*X160887Y626300D01*
X159500Y625500D02*X158113Y626300D01*
X111500Y550000D02*Y548400D01*
Y550000D02*X112887Y550800D01*
X111500Y550000D02*X110113Y550800D01*
X111500Y545000D02*Y543400D01*
Y545000D02*X112887Y545800D01*
X111500Y545000D02*X110113Y545800D01*
X113500Y620500D02*Y618900D01*
Y620500D02*X114887Y621300D01*
X113500Y620500D02*X112113Y621300D01*
X114000Y631500D02*Y629900D01*
Y631500D02*X115387Y632300D01*
X114000Y631500D02*X112613Y632300D01*
X109000Y624000D02*Y622400D01*
Y624000D02*X110387Y624800D01*
X109000Y624000D02*X107613Y624800D01*
X90500Y623000D02*Y621400D01*
Y623000D02*X91887Y623800D01*
X90500Y623000D02*X89113Y623800D01*
X90000Y618000D02*Y616400D01*
Y618000D02*X91387Y618800D01*
X90000Y618000D02*X88613Y618800D01*
X124000Y615000D02*Y613400D01*
Y615000D02*X125387Y615800D01*
X124000Y615000D02*X122613Y615800D01*
X109000Y481500D02*Y479900D01*
Y481500D02*X110387Y482300D01*
X109000Y481500D02*X107613Y482300D01*
X73500Y484500D02*Y482900D01*
Y484500D02*X74887Y485300D01*
X73500Y484500D02*X72113Y485300D01*
X73500Y492500D02*Y490900D01*
Y492500D02*X74887Y493300D01*
X73500Y492500D02*X72113Y493300D01*
X82000Y479000D02*Y477400D01*
Y479000D02*X83387Y479800D01*
X82000Y479000D02*X80613Y479800D01*
X91500Y476000D02*Y474400D01*
Y476000D02*X92887Y476800D01*
X91500Y476000D02*X90113Y476800D01*
X63000Y487000D02*Y485400D01*
Y487000D02*X64387Y487800D01*
X63000Y487000D02*X61613Y487800D01*
X124500Y438500D02*Y436900D01*
Y438500D02*X125887Y439300D01*
X124500Y438500D02*X123113Y439300D01*
X104000Y400000D02*Y398400D01*
Y400000D02*X105387Y400800D01*
X104000Y400000D02*X102613Y400800D01*
X109500Y405000D02*Y403400D01*
Y405000D02*X110887Y405800D01*
X109500Y405000D02*X108113Y405800D01*
X132000Y405500D02*Y403900D01*
Y405500D02*X133387Y406300D01*
X132000Y405500D02*X130613Y406300D01*
X112500Y438500D02*Y436900D01*
Y438500D02*X113887Y439300D01*
X112500Y438500D02*X111113Y439300D01*
X118000Y424500D02*Y422900D01*
Y424500D02*X119387Y425300D01*
X118000Y424500D02*X116613Y425300D01*
X118000Y429000D02*Y427400D01*
Y429000D02*X119387Y429800D01*
X118000Y429000D02*X116613Y429800D01*
X118000Y433500D02*Y431900D01*
Y433500D02*X119387Y434300D01*
X118000Y433500D02*X116613Y434300D01*
X130500Y477000D02*Y475400D01*
Y477000D02*X131887Y477800D01*
X130500Y477000D02*X129113Y477800D01*
X159500Y495500D02*Y493900D01*
Y495500D02*X160887Y496300D01*
X159500Y495500D02*X158113Y496300D01*
X111500Y420000D02*Y418400D01*
Y420000D02*X112887Y420800D01*
X111500Y420000D02*X110113Y420800D01*
X111500Y415000D02*Y413400D01*
Y415000D02*X112887Y415800D01*
X111500Y415000D02*X110113Y415800D01*
X113500Y490500D02*Y488900D01*
Y490500D02*X114887Y491300D01*
X113500Y490500D02*X112113Y491300D01*
X114000Y501500D02*Y499900D01*
Y501500D02*X115387Y502300D01*
X114000Y501500D02*X112613Y502300D01*
X109000Y494000D02*Y492400D01*
Y494000D02*X110387Y494800D01*
X109000Y494000D02*X107613Y494800D01*
X90500Y493000D02*Y491400D01*
Y493000D02*X91887Y493800D01*
X90500Y493000D02*X89113Y493800D01*
X90000Y488000D02*Y486400D01*
Y488000D02*X91387Y488800D01*
X90000Y488000D02*X88613Y488800D01*
X124000Y485000D02*Y483400D01*
Y485000D02*X125387Y485800D01*
X124000Y485000D02*X122613Y485800D01*
X109000Y351500D02*Y349900D01*
Y351500D02*X110387Y352300D01*
X109000Y351500D02*X107613Y352300D01*
X73500Y354500D02*Y352900D01*
Y354500D02*X74887Y355300D01*
X73500Y354500D02*X72113Y355300D01*
X73500Y362500D02*Y360900D01*
Y362500D02*X74887Y363300D01*
X73500Y362500D02*X72113Y363300D01*
X82000Y349000D02*Y347400D01*
Y349000D02*X83387Y349800D01*
X82000Y349000D02*X80613Y349800D01*
X91500Y346000D02*Y344400D01*
Y346000D02*X92887Y346800D01*
X91500Y346000D02*X90113Y346800D01*
X63000Y357000D02*Y355400D01*
Y357000D02*X64387Y357800D01*
X63000Y357000D02*X61613Y357800D01*
X124500Y308500D02*Y306900D01*
Y308500D02*X125887Y309300D01*
X124500Y308500D02*X123113Y309300D01*
X104000Y270000D02*Y268400D01*
Y270000D02*X105387Y270800D01*
X104000Y270000D02*X102613Y270800D01*
X109500Y275000D02*Y273400D01*
Y275000D02*X110887Y275800D01*
X109500Y275000D02*X108113Y275800D01*
X132000Y275500D02*Y273900D01*
Y275500D02*X133387Y276300D01*
X132000Y275500D02*X130613Y276300D01*
X112500Y308500D02*Y306900D01*
Y308500D02*X113887Y309300D01*
X112500Y308500D02*X111113Y309300D01*
X118000Y294500D02*Y292900D01*
Y294500D02*X119387Y295300D01*
X118000Y294500D02*X116613Y295300D01*
X118000Y299000D02*Y297400D01*
Y299000D02*X119387Y299800D01*
X118000Y299000D02*X116613Y299800D01*
X118000Y303500D02*Y301900D01*
Y303500D02*X119387Y304300D01*
X118000Y303500D02*X116613Y304300D01*
X130500Y347000D02*Y345400D01*
Y347000D02*X131887Y347800D01*
X130500Y347000D02*X129113Y347800D01*
X159500Y365500D02*Y363900D01*
Y365500D02*X160887Y366300D01*
X159500Y365500D02*X158113Y366300D01*
X111500Y290000D02*Y288400D01*
Y290000D02*X112887Y290800D01*
X111500Y290000D02*X110113Y290800D01*
X111500Y285000D02*Y283400D01*
Y285000D02*X112887Y285800D01*
X111500Y285000D02*X110113Y285800D01*
X113500Y360500D02*Y358900D01*
Y360500D02*X114887Y361300D01*
X113500Y360500D02*X112113Y361300D01*
X114000Y371500D02*Y369900D01*
Y371500D02*X115387Y372300D01*
X114000Y371500D02*X112613Y372300D01*
X109000Y364000D02*Y362400D01*
Y364000D02*X110387Y364800D01*
X109000Y364000D02*X107613Y364800D01*
X90500Y363000D02*Y361400D01*
Y363000D02*X91887Y363800D01*
X90500Y363000D02*X89113Y363800D01*
X90000Y358000D02*Y356400D01*
Y358000D02*X91387Y358800D01*
X90000Y358000D02*X88613Y358800D01*
X124000Y355000D02*Y353400D01*
Y355000D02*X125387Y355800D01*
X124000Y355000D02*X122613Y355800D01*
X109000Y221500D02*Y219900D01*
Y221500D02*X110387Y222300D01*
X109000Y221500D02*X107613Y222300D01*
X73500Y224500D02*Y222900D01*
Y224500D02*X74887Y225300D01*
X73500Y224500D02*X72113Y225300D01*
X73500Y232500D02*Y230900D01*
Y232500D02*X74887Y233300D01*
X73500Y232500D02*X72113Y233300D01*
X82000Y219000D02*Y217400D01*
Y219000D02*X83387Y219800D01*
X82000Y219000D02*X80613Y219800D01*
X91500Y216000D02*Y214400D01*
Y216000D02*X92887Y216800D01*
X91500Y216000D02*X90113Y216800D01*
X63000Y227000D02*Y225400D01*
Y227000D02*X64387Y227800D01*
X63000Y227000D02*X61613Y227800D01*
X124500Y178500D02*Y176900D01*
Y178500D02*X125887Y179300D01*
X124500Y178500D02*X123113Y179300D01*
X104000Y140000D02*Y138400D01*
Y140000D02*X105387Y140800D01*
X104000Y140000D02*X102613Y140800D01*
X109500Y145000D02*Y143400D01*
Y145000D02*X110887Y145800D01*
X109500Y145000D02*X108113Y145800D01*
X132000Y145500D02*Y143900D01*
Y145500D02*X133387Y146300D01*
X132000Y145500D02*X130613Y146300D01*
X112500Y178500D02*Y176900D01*
Y178500D02*X113887Y179300D01*
X112500Y178500D02*X111113Y179300D01*
X118000Y164500D02*Y162900D01*
Y164500D02*X119387Y165300D01*
X118000Y164500D02*X116613Y165300D01*
X118000Y169000D02*Y167400D01*
Y169000D02*X119387Y169800D01*
X118000Y169000D02*X116613Y169800D01*
X118000Y173500D02*Y171900D01*
Y173500D02*X119387Y174300D01*
X118000Y173500D02*X116613Y174300D01*
X130500Y217000D02*Y215400D01*
Y217000D02*X131887Y217800D01*
X130500Y217000D02*X129113Y217800D01*
X159500Y235500D02*Y233900D01*
Y235500D02*X160887Y236300D01*
X159500Y235500D02*X158113Y236300D01*
X111500Y160000D02*Y158400D01*
Y160000D02*X112887Y160800D01*
X111500Y160000D02*X110113Y160800D01*
X111500Y155000D02*Y153400D01*
Y155000D02*X112887Y155800D01*
X111500Y155000D02*X110113Y155800D01*
X113500Y230500D02*Y228900D01*
Y230500D02*X114887Y231300D01*
X113500Y230500D02*X112113Y231300D01*
X114000Y241500D02*Y239900D01*
Y241500D02*X115387Y242300D01*
X114000Y241500D02*X112613Y242300D01*
X109000Y234000D02*Y232400D01*
Y234000D02*X110387Y234800D01*
X109000Y234000D02*X107613Y234800D01*
X90500Y233000D02*Y231400D01*
Y233000D02*X91887Y233800D01*
X90500Y233000D02*X89113Y233800D01*
X90000Y228000D02*Y226400D01*
Y228000D02*X91387Y228800D01*
X90000Y228000D02*X88613Y228800D01*
X124000Y225000D02*Y223400D01*
Y225000D02*X125387Y225800D01*
X124000Y225000D02*X122613Y225800D01*
X109000Y91500D02*Y89900D01*
Y91500D02*X110387Y92300D01*
X109000Y91500D02*X107613Y92300D01*
X73500Y94500D02*Y92900D01*
Y94500D02*X74887Y95300D01*
X73500Y94500D02*X72113Y95300D01*
X73500Y102500D02*Y100900D01*
Y102500D02*X74887Y103300D01*
X73500Y102500D02*X72113Y103300D01*
X82000Y89000D02*Y87400D01*
Y89000D02*X83387Y89800D01*
X82000Y89000D02*X80613Y89800D01*
X91500Y86000D02*Y84400D01*
Y86000D02*X92887Y86800D01*
X91500Y86000D02*X90113Y86800D01*
X63000Y97000D02*Y95400D01*
Y97000D02*X64387Y97800D01*
X63000Y97000D02*X61613Y97800D01*
X124500Y48500D02*Y46900D01*
Y48500D02*X125887Y49300D01*
X124500Y48500D02*X123113Y49300D01*
X104000Y10000D02*Y8400D01*
Y10000D02*X105387Y10800D01*
X104000Y10000D02*X102613Y10800D01*
X109500Y15000D02*Y13400D01*
Y15000D02*X110887Y15800D01*
X109500Y15000D02*X108113Y15800D01*
X132000Y15500D02*Y13900D01*
Y15500D02*X133387Y16300D01*
X132000Y15500D02*X130613Y16300D01*
X112500Y48500D02*Y46900D01*
Y48500D02*X113887Y49300D01*
X112500Y48500D02*X111113Y49300D01*
X118000Y34500D02*Y32900D01*
Y34500D02*X119387Y35300D01*
X118000Y34500D02*X116613Y35300D01*
X118000Y39000D02*Y37400D01*
Y39000D02*X119387Y39800D01*
X118000Y39000D02*X116613Y39800D01*
X118000Y43500D02*Y41900D01*
Y43500D02*X119387Y44300D01*
X118000Y43500D02*X116613Y44300D01*
X130500Y87000D02*Y85400D01*
Y87000D02*X131887Y87800D01*
X130500Y87000D02*X129113Y87800D01*
X159500Y105500D02*Y103900D01*
Y105500D02*X160887Y106300D01*
X159500Y105500D02*X158113Y106300D01*
X111500Y30000D02*Y28400D01*
Y30000D02*X112887Y30800D01*
X111500Y30000D02*X110113Y30800D01*
X111500Y25000D02*Y23400D01*
Y25000D02*X112887Y25800D01*
X111500Y25000D02*X110113Y25800D01*
X113500Y100500D02*Y98900D01*
Y100500D02*X114887Y101300D01*
X113500Y100500D02*X112113Y101300D01*
X114000Y111500D02*Y109900D01*
Y111500D02*X115387Y112300D01*
X114000Y111500D02*X112613Y112300D01*
X109000Y104000D02*Y102400D01*
Y104000D02*X110387Y104800D01*
X109000Y104000D02*X107613Y104800D01*
X90500Y103000D02*Y101400D01*
Y103000D02*X91887Y103800D01*
X90500Y103000D02*X89113Y103800D01*
X90000Y98000D02*Y96400D01*
Y98000D02*X91387Y98800D01*
X90000Y98000D02*X88613Y98800D01*
X124000Y95000D02*Y93400D01*
Y95000D02*X125387Y95800D01*
X124000Y95000D02*X122613Y95800D01*
X15000Y841250D02*Y839650D01*
Y841250D02*X16387Y842050D01*
X15000Y841250D02*X13613Y842050D01*
X135000Y843500D02*Y842750D01*
X136500Y841250D01*
X138000Y842750D01*
Y843500D02*Y842750D01*
X136500Y841250D02*Y837500D01*
X139800Y840500D02*X142050D01*
X139800Y837500D02*X142800D01*
X139800Y843500D02*Y837500D01*
Y843500D02*X142800D01*
X147600D02*X148350Y842750D01*
X145350Y843500D02*X147600D01*
X144600Y842750D02*X145350Y843500D01*
X144600Y842750D02*Y841250D01*
X145350Y840500D01*
X147600D01*
X148350Y839750D01*
Y838250D01*
X147600Y837500D02*X148350Y838250D01*
X145350Y837500D02*X147600D01*
X144600Y838250D02*X145350Y837500D01*
X98750D02*X100250D01*
X99500Y843500D02*Y837500D01*
X98000Y842000D02*X99500Y843500D01*
X102050Y840500D02*X105050Y843500D01*
X102050Y840500D02*X105800D01*
X105050Y843500D02*Y837500D01*
X107600Y840500D02*X110600Y843500D01*
X107600Y840500D02*X111350D01*
X110600Y843500D02*Y837500D01*
X45000Y838250D02*X45750Y837500D01*
X45000Y842750D02*Y838250D01*
Y842750D02*X45750Y843500D01*
X47250D01*
X48000Y842750D01*
Y838250D01*
X47250Y837500D02*X48000Y838250D01*
X45750Y837500D02*X47250D01*
X45000Y839000D02*X48000Y842000D01*
X49800Y837500D02*X50550D01*
X52350Y838250D02*X53100Y837500D01*
X52350Y842750D02*Y838250D01*
Y842750D02*X53100Y843500D01*
X54600D01*
X55350Y842750D01*
Y838250D01*
X54600Y837500D02*X55350Y838250D01*
X53100Y837500D02*X54600D01*
X52350Y839000D02*X55350Y842000D01*
X57150Y842750D02*X57900Y843500D01*
X60150D01*
X60900Y842750D01*
Y841250D01*
X57150Y837500D02*X60900Y841250D01*
X57150Y837500D02*X60900D01*
X62700Y838250D02*X63450Y837500D01*
X62700Y842750D02*Y838250D01*
Y842750D02*X63450Y843500D01*
X64950D01*
X65700Y842750D01*
Y838250D01*
X64950Y837500D02*X65700Y838250D01*
X63450Y837500D02*X64950D01*
X62700Y839000D02*X65700Y842000D01*
X3000Y858500D02*X3750Y857750D01*
X750Y858500D02*X3000D01*
X0Y857750D02*X750Y858500D01*
X0Y857750D02*Y856250D01*
X750Y855500D01*
X3000D01*
X3750Y854750D01*
Y853250D01*
X3000Y852500D02*X3750Y853250D01*
X750Y852500D02*X3000D01*
X0Y853250D02*X750Y852500D01*
X5550Y855500D02*Y853250D01*
X6300Y852500D01*
X8550Y855500D02*Y851000D01*
X7800Y850250D02*X8550Y851000D01*
X6300Y850250D02*X7800D01*
X5550Y851000D02*X6300Y850250D01*
Y852500D02*X7800D01*
X8550Y853250D01*
X11100Y854750D02*Y852500D01*
Y854750D02*X11850Y855500D01*
X12600D01*
X13350Y854750D01*
Y852500D01*
Y854750D02*X14100Y855500D01*
X14850D01*
X15600Y854750D01*
Y852500D01*
X10350Y855500D02*X11100Y854750D01*
X17400Y858500D02*Y852500D01*
Y853250D02*X18150Y852500D01*
X19650D01*
X20400Y853250D01*
Y854750D02*Y853250D01*
X19650Y855500D02*X20400Y854750D01*
X18150Y855500D02*X19650D01*
X17400Y854750D02*X18150Y855500D01*
X22200Y854750D02*Y853250D01*
Y854750D02*X22950Y855500D01*
X24450D01*
X25200Y854750D01*
Y853250D01*
X24450Y852500D02*X25200Y853250D01*
X22950Y852500D02*X24450D01*
X22200Y853250D02*X22950Y852500D01*
X27000Y858500D02*Y853250D01*
X27750Y852500D01*
X0Y849250D02*X29250D01*
X41750Y858500D02*Y852500D01*
X44000Y858500D02*X44750Y857750D01*
Y853250D01*
X44000Y852500D02*X44750Y853250D01*
X41000Y852500D02*X44000D01*
X41000Y858500D02*X44000D01*
X46550Y857000D02*Y856250D01*
Y854750D02*Y852500D01*
X50300Y855500D02*X51050Y854750D01*
X48800Y855500D02*X50300D01*
X48050Y854750D02*X48800Y855500D01*
X48050Y854750D02*Y853250D01*
X48800Y852500D01*
X51050Y855500D02*Y853250D01*
X51800Y852500D01*
X48800D02*X50300D01*
X51050Y853250D01*
X54350Y854750D02*Y852500D01*
Y854750D02*X55100Y855500D01*
X55850D01*
X56600Y854750D01*
Y852500D01*
Y854750D02*X57350Y855500D01*
X58100D01*
X58850Y854750D01*
Y852500D01*
X53600Y855500D02*X54350Y854750D01*
X60650Y852500D02*X61400D01*
X65900Y853250D02*X66650Y852500D01*
X65900Y857750D02*X66650Y858500D01*
X65900Y857750D02*Y853250D01*
X68450Y858500D02*X69950D01*
X69200D02*Y852500D01*
X68450D02*X69950D01*
X72500Y854750D02*Y852500D01*
Y854750D02*X73250Y855500D01*
X74000D01*
X74750Y854750D01*
Y852500D01*
X71750Y855500D02*X72500Y854750D01*
X77300Y855500D02*X79550D01*
X76550Y854750D02*X77300Y855500D01*
X76550Y854750D02*Y853250D01*
X77300Y852500D01*
X79550D01*
X81350Y858500D02*Y852500D01*
Y854750D02*X82100Y855500D01*
X83600D01*
X84350Y854750D01*
Y852500D01*
X86150Y858500D02*X86900Y857750D01*
Y853250D01*
X86150Y852500D02*X86900Y853250D01*
X41000Y849250D02*X88700D01*
X95750Y852500D02*X98000D01*
X95000Y853250D02*X95750Y852500D01*
X95000Y857750D02*Y853250D01*
Y857750D02*X95750Y858500D01*
X98000D01*
X99800Y854750D02*Y853250D01*
Y854750D02*X100550Y855500D01*
X102050D01*
X102800Y854750D01*
Y853250D01*
X102050Y852500D02*X102800Y853250D01*
X100550Y852500D02*X102050D01*
X99800Y853250D02*X100550Y852500D01*
X104600Y855500D02*Y853250D01*
X105350Y852500D01*
X106850D01*
X107600Y853250D01*
Y855500D02*Y853250D01*
X110150Y854750D02*Y852500D01*
Y854750D02*X110900Y855500D01*
X111650D01*
X112400Y854750D01*
Y852500D01*
X109400Y855500D02*X110150Y854750D01*
X114950Y858500D02*Y853250D01*
X115700Y852500D01*
X114200Y856250D02*X115700D01*
X95000Y849250D02*X117200D01*
X130750Y858500D02*Y852500D01*
X130000Y858500D02*X133000D01*
X133750Y857750D01*
Y856250D01*
X133000Y855500D02*X133750Y856250D01*
X130750Y855500D02*X133000D01*
X135550Y858500D02*Y853250D01*
X136300Y852500D01*
X140050Y855500D02*X140800Y854750D01*
X138550Y855500D02*X140050D01*
X137800Y854750D02*X138550Y855500D01*
X137800Y854750D02*Y853250D01*
X138550Y852500D01*
X140800Y855500D02*Y853250D01*
X141550Y852500D01*
X138550D02*X140050D01*
X140800Y853250D01*
X144100Y858500D02*Y853250D01*
X144850Y852500D01*
X143350Y856250D02*X144850D01*
X147100Y852500D02*X149350D01*
X146350Y853250D02*X147100Y852500D01*
X146350Y854750D02*Y853250D01*
Y854750D02*X147100Y855500D01*
X148600D01*
X149350Y854750D01*
X146350Y854000D02*X149350D01*
Y854750D02*Y854000D01*
X154150Y858500D02*Y852500D01*
X153400D02*X154150Y853250D01*
X151900Y852500D02*X153400D01*
X151150Y853250D02*X151900Y852500D01*
X151150Y854750D02*Y853250D01*
Y854750D02*X151900Y855500D01*
X153400D01*
X154150Y854750D01*
X157450Y855500D02*Y854750D01*
Y853250D02*Y852500D01*
X155950Y857750D02*Y857000D01*
Y857750D02*X156700Y858500D01*
X158200D01*
X158950Y857750D01*
Y857000D01*
X157450Y855500D02*X158950Y857000D01*
X130000Y849250D02*X160750D01*
X0Y873500D02*X3000D01*
X1500D02*Y867500D01*
X4800Y873500D02*Y867500D01*
Y869750D02*X5550Y870500D01*
X7050D01*
X7800Y869750D01*
Y867500D01*
X10350D02*X12600D01*
X9600Y868250D02*X10350Y867500D01*
X9600Y869750D02*Y868250D01*
Y869750D02*X10350Y870500D01*
X11850D01*
X12600Y869750D01*
X9600Y869000D02*X12600D01*
Y869750D02*Y869000D01*
X15150Y869750D02*Y867500D01*
Y869750D02*X15900Y870500D01*
X17400D01*
X14400D02*X15150Y869750D01*
X19950Y867500D02*X22200D01*
X19200Y868250D02*X19950Y867500D01*
X19200Y869750D02*Y868250D01*
Y869750D02*X19950Y870500D01*
X21450D01*
X22200Y869750D01*
X19200Y869000D02*X22200D01*
Y869750D02*Y869000D01*
X28950Y870500D02*X29700Y869750D01*
X27450Y870500D02*X28950D01*
X26700Y869750D02*X27450Y870500D01*
X26700Y869750D02*Y868250D01*
X27450Y867500D01*
X29700Y870500D02*Y868250D01*
X30450Y867500D01*
X27450D02*X28950D01*
X29700Y868250D01*
X33000Y869750D02*Y867500D01*
Y869750D02*X33750Y870500D01*
X35250D01*
X32250D02*X33000Y869750D01*
X37800Y867500D02*X40050D01*
X37050Y868250D02*X37800Y867500D01*
X37050Y869750D02*Y868250D01*
Y869750D02*X37800Y870500D01*
X39300D01*
X40050Y869750D01*
X37050Y869000D02*X40050D01*
Y869750D02*Y869000D01*
X44550Y873500D02*X47550D01*
X44550D02*Y870500D01*
X45300Y871250D01*
X46800D01*
X47550Y870500D01*
Y868250D01*
X46800Y867500D02*X47550Y868250D01*
X45300Y867500D02*X46800D01*
X44550Y868250D02*X45300Y867500D01*
X55050Y873500D02*Y867500D01*
X54300D02*X55050Y868250D01*
X52800Y867500D02*X54300D01*
X52050Y868250D02*X52800Y867500D01*
X52050Y869750D02*Y868250D01*
Y869750D02*X52800Y870500D01*
X54300D01*
X55050Y869750D01*
X56850Y872000D02*Y871250D01*
Y869750D02*Y867500D01*
X59100Y872750D02*Y867500D01*
Y872750D02*X59850Y873500D01*
X60600D01*
X58350Y870500D02*X59850D01*
X62850Y872750D02*Y867500D01*
Y872750D02*X63600Y873500D01*
X64350D01*
X62100Y870500D02*X63600D01*
X66600Y867500D02*X68850D01*
X65850Y868250D02*X66600Y867500D01*
X65850Y869750D02*Y868250D01*
Y869750D02*X66600Y870500D01*
X68100D01*
X68850Y869750D01*
X65850Y869000D02*X68850D01*
Y869750D02*Y869000D01*
X71400Y869750D02*Y867500D01*
Y869750D02*X72150Y870500D01*
X73650D01*
X70650D02*X71400Y869750D01*
X76200Y867500D02*X78450D01*
X75450Y868250D02*X76200Y867500D01*
X75450Y869750D02*Y868250D01*
Y869750D02*X76200Y870500D01*
X77700D01*
X78450Y869750D01*
X75450Y869000D02*X78450D01*
Y869750D02*Y869000D01*
X81000Y869750D02*Y867500D01*
Y869750D02*X81750Y870500D01*
X82500D01*
X83250Y869750D01*
Y867500D01*
X80250Y870500D02*X81000Y869750D01*
X85800Y873500D02*Y868250D01*
X86550Y867500D01*
X85050Y871250D02*X86550D01*
X93750Y873500D02*Y867500D01*
X93000D02*X93750Y868250D01*
X91500Y867500D02*X93000D01*
X90750Y868250D02*X91500Y867500D01*
X90750Y869750D02*Y868250D01*
Y869750D02*X91500Y870500D01*
X93000D01*
X93750Y869750D01*
X96300D02*Y867500D01*
Y869750D02*X97050Y870500D01*
X98550D01*
X95550D02*X96300Y869750D01*
X100350Y872000D02*Y871250D01*
Y869750D02*Y867500D01*
X101850Y873500D02*Y868250D01*
X102600Y867500D01*
X104100Y873500D02*Y868250D01*
X104850Y867500D01*
X109800D02*X112050D01*
X112800Y868250D01*
X112050Y869000D02*X112800Y868250D01*
X109800Y869000D02*X112050D01*
X109050Y869750D02*X109800Y869000D01*
X109050Y869750D02*X109800Y870500D01*
X112050D01*
X112800Y869750D01*
X109050Y868250D02*X109800Y867500D01*
X114600Y872000D02*Y871250D01*
Y869750D02*Y867500D01*
X116100Y870500D02*X119100D01*
X116100Y867500D02*X119100Y870500D01*
X116100Y867500D02*X119100D01*
X121650D02*X123900D01*
X120900Y868250D02*X121650Y867500D01*
X120900Y869750D02*Y868250D01*
Y869750D02*X121650Y870500D01*
X123150D01*
X123900Y869750D01*
X120900Y869000D02*X123900D01*
Y869750D02*Y869000D01*
X126450Y867500D02*X128700D01*
X129450Y868250D01*
X128700Y869000D02*X129450Y868250D01*
X126450Y869000D02*X128700D01*
X125700Y869750D02*X126450Y869000D01*
X125700Y869750D02*X126450Y870500D01*
X128700D01*
X129450Y869750D01*
X125700Y868250D02*X126450Y867500D01*
X133950Y870500D02*Y868250D01*
X134700Y867500D01*
X136200D01*
X136950Y868250D01*
Y870500D02*Y868250D01*
X139500Y867500D02*X141750D01*
X142500Y868250D01*
X141750Y869000D02*X142500Y868250D01*
X139500Y869000D02*X141750D01*
X138750Y869750D02*X139500Y869000D01*
X138750Y869750D02*X139500Y870500D01*
X141750D01*
X142500Y869750D01*
X138750Y868250D02*X139500Y867500D01*
X145050D02*X147300D01*
X144300Y868250D02*X145050Y867500D01*
X144300Y869750D02*Y868250D01*
Y869750D02*X145050Y870500D01*
X146550D01*
X147300Y869750D01*
X144300Y869000D02*X147300D01*
Y869750D02*Y869000D01*
X152100Y873500D02*Y867500D01*
X151350D02*X152100Y868250D01*
X149850Y867500D02*X151350D01*
X149100Y868250D02*X149850Y867500D01*
X149100Y869750D02*Y868250D01*
Y869750D02*X149850Y870500D01*
X151350D01*
X152100Y869750D01*
X156600Y872000D02*Y871250D01*
Y869750D02*Y867500D01*
X158850Y869750D02*Y867500D01*
Y869750D02*X159600Y870500D01*
X160350D01*
X161100Y869750D01*
Y867500D01*
X158100Y870500D02*X158850Y869750D01*
X166350Y873500D02*Y868250D01*
X167100Y867500D01*
X165600Y871250D02*X167100D01*
X168600Y873500D02*Y867500D01*
Y869750D02*X169350Y870500D01*
X170850D01*
X171600Y869750D01*
Y867500D01*
X173400Y872000D02*Y871250D01*
Y869750D02*Y867500D01*
X175650D02*X177900D01*
X178650Y868250D01*
X177900Y869000D02*X178650Y868250D01*
X175650Y869000D02*X177900D01*
X174900Y869750D02*X175650Y869000D01*
X174900Y869750D02*X175650Y870500D01*
X177900D01*
X178650Y869750D01*
X174900Y868250D02*X175650Y867500D01*
X183150Y873500D02*Y868250D01*
X183900Y867500D01*
X187650Y870500D02*X188400Y869750D01*
X186150Y870500D02*X187650D01*
X185400Y869750D02*X186150Y870500D01*
X185400Y869750D02*Y868250D01*
X186150Y867500D01*
X188400Y870500D02*Y868250D01*
X189150Y867500D01*
X186150D02*X187650D01*
X188400Y868250D01*
X190950Y870500D02*Y868250D01*
X191700Y867500D01*
X193950Y870500D02*Y866000D01*
X193200Y865250D02*X193950Y866000D01*
X191700Y865250D02*X193200D01*
X190950Y866000D02*X191700Y865250D01*
Y867500D02*X193200D01*
X193950Y868250D01*
X195750Y869750D02*Y868250D01*
Y869750D02*X196500Y870500D01*
X198000D01*
X198750Y869750D01*
Y868250D01*
X198000Y867500D02*X198750Y868250D01*
X196500Y867500D02*X198000D01*
X195750Y868250D02*X196500Y867500D01*
X200550Y870500D02*Y868250D01*
X201300Y867500D01*
X202800D01*
X203550Y868250D01*
Y870500D02*Y868250D01*
X206100Y873500D02*Y868250D01*
X206850Y867500D01*
X205350Y871250D02*X206850D01*
X208350Y866000D02*X209850Y867500D01*
X214350Y872750D02*X215100Y873500D01*
X216600D01*
X217350Y872750D01*
Y868250D01*
X216600Y867500D02*X217350Y868250D01*
X215100Y867500D02*X216600D01*
X214350Y868250D02*X215100Y867500D01*
Y870500D02*X217350D01*
X219150Y867500D02*X222900Y871250D01*
Y873500D02*Y871250D01*
X219150Y873500D02*X222900D01*
X224700Y868250D02*X225450Y867500D01*
X224700Y869750D02*Y868250D01*
Y869750D02*X225450Y870500D01*
X226950D01*
X227700Y869750D01*
Y868250D01*
X226950Y867500D02*X227700Y868250D01*
X225450Y867500D02*X226950D01*
X224700Y871250D02*X225450Y870500D01*
X224700Y872750D02*Y871250D01*
Y872750D02*X225450Y873500D01*
X226950D01*
X227700Y872750D01*
Y871250D01*
X226950Y870500D02*X227700Y871250D01*
X232200Y873500D02*Y867500D01*
Y869750D02*X232950Y870500D01*
X234450D01*
X235200Y869750D01*
Y867500D01*
X237000Y869750D02*Y868250D01*
Y869750D02*X237750Y870500D01*
X239250D01*
X240000Y869750D01*
Y868250D01*
X239250Y867500D02*X240000Y868250D01*
X237750Y867500D02*X239250D01*
X237000Y868250D02*X237750Y867500D01*
X241800Y873500D02*Y868250D01*
X242550Y867500D01*
X244800D02*X247050D01*
X244050Y868250D02*X244800Y867500D01*
X244050Y869750D02*Y868250D01*
Y869750D02*X244800Y870500D01*
X246300D01*
X247050Y869750D01*
X244050Y869000D02*X247050D01*
Y869750D02*Y869000D01*
X249600Y867500D02*X251850D01*
X252600Y868250D01*
X251850Y869000D02*X252600Y868250D01*
X249600Y869000D02*X251850D01*
X248850Y869750D02*X249600Y869000D01*
X248850Y869750D02*X249600Y870500D01*
X251850D01*
X252600Y869750D01*
X248850Y868250D02*X249600Y867500D01*
X257850Y873500D02*Y868250D01*
X258600Y867500D01*
X257100Y871250D02*X258600D01*
X260100Y869750D02*Y868250D01*
Y869750D02*X260850Y870500D01*
X262350D01*
X263100Y869750D01*
Y868250D01*
X262350Y867500D02*X263100Y868250D01*
X260850Y867500D02*X262350D01*
X260100Y868250D02*X260850Y867500D01*
X265650Y873500D02*Y868250D01*
X266400Y867500D01*
X264900Y871250D02*X266400D01*
X270150Y870500D02*X270900Y869750D01*
X268650Y870500D02*X270150D01*
X267900Y869750D02*X268650Y870500D01*
X267900Y869750D02*Y868250D01*
X268650Y867500D01*
X270900Y870500D02*Y868250D01*
X271650Y867500D01*
X268650D02*X270150D01*
X270900Y868250D01*
X273450Y873500D02*Y868250D01*
X274200Y867500D01*
G54D85*X0Y770000D02*X170000D01*
Y650000D01*
X0D01*
Y770000D01*
Y640000D02*X170000D01*
Y520000D01*
X0D01*
Y640000D01*
Y510000D02*X170000D01*
Y390000D01*
X0D01*
Y510000D01*
Y380000D02*X170000D01*
Y260000D01*
X0D01*
Y380000D01*
Y250000D02*X170000D01*
Y130000D01*
X0D01*
Y250000D01*
Y120000D02*X170000D01*
Y0D01*
X0D01*
Y120000D01*
G54D84*Y-9500D02*X3000D01*
X3750Y-8750D01*
Y-7250D02*Y-8750D01*
X3000Y-6500D02*X3750Y-7250D01*
X750Y-6500D02*X3000D01*
X750Y-3500D02*Y-9500D01*
X0Y-3500D02*X3000D01*
X3750Y-4250D01*
Y-5750D01*
X3000Y-6500D02*X3750Y-5750D01*
X5550Y-7250D02*Y-8750D01*
Y-7250D02*X6300Y-6500D01*
X7800D01*
X8550Y-7250D01*
Y-8750D01*
X7800Y-9500D02*X8550Y-8750D01*
X6300Y-9500D02*X7800D01*
X5550Y-8750D02*X6300Y-9500D01*
X12600Y-6500D02*X13350Y-7250D01*
X11100Y-6500D02*X12600D01*
X10350Y-7250D02*X11100Y-6500D01*
X10350Y-7250D02*Y-8750D01*
X11100Y-9500D01*
X13350Y-6500D02*Y-8750D01*
X14100Y-9500D01*
X11100D02*X12600D01*
X13350Y-8750D01*
X16650Y-7250D02*Y-9500D01*
Y-7250D02*X17400Y-6500D01*
X18900D01*
X15900D02*X16650Y-7250D01*
X23700Y-3500D02*Y-9500D01*
X22950D02*X23700Y-8750D01*
X21450Y-9500D02*X22950D01*
X20700Y-8750D02*X21450Y-9500D01*
X20700Y-7250D02*Y-8750D01*
Y-7250D02*X21450Y-6500D01*
X22950D01*
X23700Y-7250D01*
X28200D02*Y-8750D01*
Y-7250D02*X28950Y-6500D01*
X30450D01*
X31200Y-7250D01*
Y-8750D01*
X30450Y-9500D02*X31200Y-8750D01*
X28950Y-9500D02*X30450D01*
X28200Y-8750D02*X28950Y-9500D01*
X33000Y-6500D02*Y-8750D01*
X33750Y-9500D01*
X35250D01*
X36000Y-8750D01*
Y-6500D02*Y-8750D01*
X38550Y-3500D02*Y-8750D01*
X39300Y-9500D01*
X37800Y-5750D02*X39300D01*
X40800Y-3500D02*Y-8750D01*
X41550Y-9500D01*
X43050Y-5000D02*Y-5750D01*
Y-7250D02*Y-9500D01*
X45300Y-7250D02*Y-9500D01*
Y-7250D02*X46050Y-6500D01*
X46800D01*
X47550Y-7250D01*
Y-9500D01*
X44550Y-6500D02*X45300Y-7250D01*
X50100Y-9500D02*X52350D01*
X49350Y-8750D02*X50100Y-9500D01*
X49350Y-7250D02*Y-8750D01*
Y-7250D02*X50100Y-6500D01*
X51600D01*
X52350Y-7250D01*
X49350Y-8000D02*X52350D01*
Y-7250D02*Y-8000D01*
X56850Y-5000D02*Y-5750D01*
Y-7250D02*Y-9500D01*
X59100D02*X61350D01*
X62100Y-8750D01*
X61350Y-8000D02*X62100Y-8750D01*
X59100Y-8000D02*X61350D01*
X58350Y-7250D02*X59100Y-8000D01*
X58350Y-7250D02*X59100Y-6500D01*
X61350D01*
X62100Y-7250D01*
X58350Y-8750D02*X59100Y-9500D01*
X67350Y-3500D02*Y-8750D01*
X68100Y-9500D01*
X66600Y-5750D02*X68100D01*
X69600Y-3500D02*Y-9500D01*
Y-7250D02*X70350Y-6500D01*
X71850D01*
X72600Y-7250D01*
Y-9500D01*
X75150D02*X77400D01*
X74400Y-8750D02*X75150Y-9500D01*
X74400Y-7250D02*Y-8750D01*
Y-7250D02*X75150Y-6500D01*
X76650D01*
X77400Y-7250D01*
X74400Y-8000D02*X77400D01*
Y-7250D02*Y-8000D01*
X82650Y-6500D02*X84900D01*
X81900Y-7250D02*X82650Y-6500D01*
X81900Y-7250D02*Y-8750D01*
X82650Y-9500D01*
X84900D01*
X87450D02*X89700D01*
X86700Y-8750D02*X87450Y-9500D01*
X86700Y-7250D02*Y-8750D01*
Y-7250D02*X87450Y-6500D01*
X88950D01*
X89700Y-7250D01*
X86700Y-8000D02*X89700D01*
Y-7250D02*Y-8000D01*
X92250Y-7250D02*Y-9500D01*
Y-7250D02*X93000Y-6500D01*
X93750D01*
X94500Y-7250D01*
Y-9500D01*
X91500Y-6500D02*X92250Y-7250D01*
X97050Y-3500D02*Y-8750D01*
X97800Y-9500D01*
X96300Y-5750D02*X97800D01*
X100050Y-9500D02*X102300D01*
X99300Y-8750D02*X100050Y-9500D01*
X99300Y-7250D02*Y-8750D01*
Y-7250D02*X100050Y-6500D01*
X101550D01*
X102300Y-7250D01*
X99300Y-8000D02*X102300D01*
Y-7250D02*Y-8000D01*
X104850Y-7250D02*Y-9500D01*
Y-7250D02*X105600Y-6500D01*
X107100D01*
X104100D02*X104850Y-7250D01*
X108900Y-3500D02*Y-8750D01*
X109650Y-9500D01*
X111150Y-5000D02*Y-5750D01*
Y-7250D02*Y-9500D01*
X113400Y-7250D02*Y-9500D01*
Y-7250D02*X114150Y-6500D01*
X114900D01*
X115650Y-7250D01*
Y-9500D01*
X112650Y-6500D02*X113400Y-7250D01*
X118200Y-9500D02*X120450D01*
X117450Y-8750D02*X118200Y-9500D01*
X117450Y-7250D02*Y-8750D01*
Y-7250D02*X118200Y-6500D01*
X119700D01*
X120450Y-7250D01*
X117450Y-8000D02*X120450D01*
Y-7250D02*Y-8000D01*
X124950Y-7250D02*Y-8750D01*
Y-7250D02*X125700Y-6500D01*
X127200D01*
X127950Y-7250D01*
Y-8750D01*
X127200Y-9500D02*X127950Y-8750D01*
X125700Y-9500D02*X127200D01*
X124950Y-8750D02*X125700Y-9500D01*
X130500Y-4250D02*Y-9500D01*
Y-4250D02*X131250Y-3500D01*
X132000D01*
X129750Y-6500D02*X131250D01*
X136950Y-3500D02*Y-8750D01*
X137700Y-9500D01*
X136200Y-5750D02*X137700D01*
X139200Y-3500D02*Y-9500D01*
Y-7250D02*X139950Y-6500D01*
X141450D01*
X142200Y-7250D01*
Y-9500D01*
X144000Y-5000D02*Y-5750D01*
Y-7250D02*Y-9500D01*
X146250D02*X148500D01*
X149250Y-8750D01*
X148500Y-8000D02*X149250Y-8750D01*
X146250Y-8000D02*X148500D01*
X145500Y-7250D02*X146250Y-8000D01*
X145500Y-7250D02*X146250Y-6500D01*
X148500D01*
X149250Y-7250D01*
X145500Y-8750D02*X146250Y-9500D01*
X154500Y-7250D02*Y-11750D01*
X153750Y-6500D02*X154500Y-7250D01*
X155250Y-6500D01*
X156750D01*
X157500Y-7250D01*
Y-8750D01*
X156750Y-9500D02*X157500Y-8750D01*
X155250Y-9500D02*X156750D01*
X154500Y-8750D02*X155250Y-9500D01*
X161550Y-6500D02*X162300Y-7250D01*
X160050Y-6500D02*X161550D01*
X159300Y-7250D02*X160050Y-6500D01*
X159300Y-7250D02*Y-8750D01*
X160050Y-9500D01*
X162300Y-6500D02*Y-8750D01*
X163050Y-9500D01*
X160050D02*X161550D01*
X162300Y-8750D01*
X165600Y-3500D02*Y-8750D01*
X166350Y-9500D01*
X164850Y-5750D02*X166350D01*
X167850Y-3500D02*Y-9500D01*
Y-7250D02*X168600Y-6500D01*
X170100D01*
X170850Y-7250D01*
Y-9500D01*
X200750Y798500D02*Y792500D01*
X203000Y798500D02*X203750Y797750D01*
Y793250D01*
X203000Y792500D02*X203750Y793250D01*
X200000Y792500D02*X203000D01*
X200000Y798500D02*X203000D01*
X207800Y795500D02*X208550Y794750D01*
X206300Y795500D02*X207800D01*
X205550Y794750D02*X206300Y795500D01*
X205550Y794750D02*Y793250D01*
X206300Y792500D01*
X208550Y795500D02*Y793250D01*
X209300Y792500D01*
X206300D02*X207800D01*
X208550Y793250D01*
X211850Y798500D02*Y793250D01*
X212600Y792500D01*
X211100Y796250D02*X212600D01*
X214850Y792500D02*X217100D01*
X214100Y793250D02*X214850Y792500D01*
X214100Y794750D02*Y793250D01*
Y794750D02*X214850Y795500D01*
X216350D01*
X217100Y794750D01*
X214100Y794000D02*X217100D01*
Y794750D02*Y794000D01*
X218900Y796250D02*X219650D01*
X218900Y794750D02*X219650D01*
X227150Y798500D02*X227900Y797750D01*
X224900Y798500D02*X227150D01*
X224150Y797750D02*X224900Y798500D01*
X224150Y797750D02*Y796250D01*
X224900Y795500D01*
X227150D01*
X227900Y794750D01*
Y793250D01*
X227150Y792500D02*X227900Y793250D01*
X224900Y792500D02*X227150D01*
X224150Y793250D02*X224900Y792500D01*
X229700Y795500D02*Y793250D01*
X230450Y792500D01*
X231950D01*
X232700Y793250D01*
Y795500D02*Y793250D01*
X235250Y794750D02*Y792500D01*
Y794750D02*X236000Y795500D01*
X236750D01*
X237500Y794750D01*
Y792500D01*
X234500Y795500D02*X235250Y794750D01*
X242000Y797750D02*X242750Y798500D01*
X245000D01*
X245750Y797750D01*
Y796250D01*
X242000Y792500D02*X245750Y796250D01*
X242000Y792500D02*X245750D01*
X247550Y793250D02*X248300Y792500D01*
X247550Y797750D02*Y793250D01*
Y797750D02*X248300Y798500D01*
X249800D01*
X250550Y797750D01*
Y793250D01*
X249800Y792500D02*X250550Y793250D01*
X248300Y792500D02*X249800D01*
X247550Y794000D02*X250550Y797000D01*
X255800Y798500D02*Y792500D01*
X258050Y798500D02*X258800Y797750D01*
Y793250D01*
X258050Y792500D02*X258800Y793250D01*
X255050Y792500D02*X258050D01*
X255050Y798500D02*X258050D01*
X261350Y792500D02*X263600D01*
X260600Y793250D02*X261350Y792500D01*
X260600Y794750D02*Y793250D01*
Y794750D02*X261350Y795500D01*
X262850D01*
X263600Y794750D01*
X260600Y794000D02*X263600D01*
Y794750D02*Y794000D01*
X266150Y795500D02*X268400D01*
X265400Y794750D02*X266150Y795500D01*
X265400Y794750D02*Y793250D01*
X266150Y792500D01*
X268400D01*
X272900Y797750D02*X273650Y798500D01*
X275900D01*
X276650Y797750D01*
Y796250D01*
X272900Y792500D02*X276650Y796250D01*
X272900Y792500D02*X276650D01*
X278450Y793250D02*X279200Y792500D01*
X278450Y797750D02*Y793250D01*
Y797750D02*X279200Y798500D01*
X280700D01*
X281450Y797750D01*
Y793250D01*
X280700Y792500D02*X281450Y793250D01*
X279200Y792500D02*X280700D01*
X278450Y794000D02*X281450Y797000D01*
X284000Y792500D02*X285500D01*
X284750Y798500D02*Y792500D01*
X283250Y797000D02*X284750Y798500D01*
X287300D02*X290300D01*
X287300D02*Y795500D01*
X288050Y796250D01*
X289550D01*
X290300Y795500D01*
Y793250D01*
X289550Y792500D02*X290300Y793250D01*
X288050Y792500D02*X289550D01*
X287300Y793250D02*X288050Y792500D01*
X294800Y793250D02*X295550Y792500D01*
X294800Y797750D02*Y793250D01*
Y797750D02*X295550Y798500D01*
X297050D01*
X297800Y797750D01*
Y793250D01*
X297050Y792500D02*X297800Y793250D01*
X295550Y792500D02*X297050D01*
X294800Y794000D02*X297800Y797000D01*
X299600Y795500D02*X302600Y798500D01*
X299600Y795500D02*X303350D01*
X302600Y798500D02*Y792500D01*
X305150Y796250D02*X305900D01*
X305150Y794750D02*X305900D01*
X307700Y793250D02*X308450Y792500D01*
X307700Y797750D02*Y793250D01*
Y797750D02*X308450Y798500D01*
X309950D01*
X310700Y797750D01*
Y793250D01*
X309950Y792500D02*X310700Y793250D01*
X308450Y792500D02*X309950D01*
X307700Y794000D02*X310700Y797000D01*
X314750Y798500D02*X315500Y797750D01*
X313250Y798500D02*X314750D01*
X312500Y797750D02*X313250Y798500D01*
X312500Y797750D02*Y793250D01*
X313250Y792500D01*
X314750Y795500D02*X315500Y794750D01*
X312500Y795500D02*X314750D01*
X313250Y792500D02*X314750D01*
X315500Y793250D01*
Y794750D02*Y793250D01*
X317300Y796250D02*X318050D01*
X317300Y794750D02*X318050D01*
X319850Y797750D02*X320600Y798500D01*
X322100D01*
X322850Y797750D01*
Y793250D01*
X322100Y792500D02*X322850Y793250D01*
X320600Y792500D02*X322100D01*
X319850Y793250D02*X320600Y792500D01*
Y795500D02*X322850D01*
X324650Y793250D02*X325400Y792500D01*
X324650Y794750D02*Y793250D01*
Y794750D02*X325400Y795500D01*
X326900D01*
X327650Y794750D01*
Y793250D01*
X326900Y792500D02*X327650Y793250D01*
X325400Y792500D02*X326900D01*
X324650Y796250D02*X325400Y795500D01*
X324650Y797750D02*Y796250D01*
Y797750D02*X325400Y798500D01*
X326900D01*
X327650Y797750D01*
Y796250D01*
X326900Y795500D02*X327650Y796250D01*
X332150Y797750D02*Y792500D01*
Y797750D02*X332900Y798500D01*
X335150D01*
X335900Y797750D01*
Y792500D01*
X332150Y795500D02*X335900D01*
X337700Y798500D02*Y792500D01*
Y798500D02*X339950Y796250D01*
X342200Y798500D01*
Y792500D01*
X349700Y798500D02*X350450Y797750D01*
X347450Y798500D02*X349700D01*
X346700Y797750D02*X347450Y798500D01*
X346700Y797750D02*Y793250D01*
X347450Y792500D01*
X349700D01*
X350450Y793250D01*
Y794750D02*Y793250D01*
X349700Y795500D02*X350450Y794750D01*
X348200Y795500D02*X349700D01*
X352250Y798500D02*Y792500D01*
Y798500D02*X354500Y796250D01*
X356750Y798500D01*
Y792500D01*
X358550Y798500D02*X361550D01*
X360050D02*Y792500D01*
X366050Y798500D02*Y793250D01*
X366800Y792500D01*
X368300D01*
X369050Y793250D01*
Y798500D02*Y793250D01*
X370850Y798500D02*X373850D01*
X372350D02*Y792500D01*
X376400D02*X378650D01*
X375650Y793250D02*X376400Y792500D01*
X375650Y797750D02*Y793250D01*
Y797750D02*X376400Y798500D01*
X378650D01*
X200000Y812750D02*Y807500D01*
Y812750D02*X200750Y813500D01*
X203000D01*
X203750Y812750D01*
Y807500D01*
X200000Y810500D02*X203750D01*
X205550D02*Y808250D01*
X206300Y807500D01*
X207800D01*
X208550Y808250D01*
Y810500D02*Y808250D01*
X211100Y813500D02*Y808250D01*
X211850Y807500D01*
X210350Y811250D02*X211850D01*
X213350Y813500D02*Y807500D01*
Y809750D02*X214100Y810500D01*
X215600D01*
X216350Y809750D01*
Y807500D01*
X218150Y809750D02*Y808250D01*
Y809750D02*X218900Y810500D01*
X220400D01*
X221150Y809750D01*
Y808250D01*
X220400Y807500D02*X221150Y808250D01*
X218900Y807500D02*X220400D01*
X218150Y808250D02*X218900Y807500D01*
X223700Y809750D02*Y807500D01*
Y809750D02*X224450Y810500D01*
X225950D01*
X222950D02*X223700Y809750D01*
X227750Y811250D02*X228500D01*
X227750Y809750D02*X228500D01*
X233000Y813500D02*Y807500D01*
Y813500D02*X235250Y811250D01*
X237500Y813500D01*
Y807500D01*
X239300Y812000D02*Y811250D01*
Y809750D02*Y807500D01*
X241550Y810500D02*X243800D01*
X240800Y809750D02*X241550Y810500D01*
X240800Y809750D02*Y808250D01*
X241550Y807500D01*
X243800D01*
X245600Y813500D02*Y807500D01*
Y809750D02*X246350Y810500D01*
X247850D01*
X248600Y809750D01*
Y807500D01*
X252650Y810500D02*X253400Y809750D01*
X251150Y810500D02*X252650D01*
X250400Y809750D02*X251150Y810500D01*
X250400Y809750D02*Y808250D01*
X251150Y807500D01*
X253400Y810500D02*Y808250D01*
X254150Y807500D01*
X251150D02*X252650D01*
X253400Y808250D01*
X256700Y807500D02*X258950D01*
X255950Y808250D02*X256700Y807500D01*
X255950Y809750D02*Y808250D01*
Y809750D02*X256700Y810500D01*
X258200D01*
X258950Y809750D01*
X255950Y809000D02*X258950D01*
Y809750D02*Y809000D01*
X260750Y813500D02*Y808250D01*
X261500Y807500D01*
X266450Y813500D02*Y807500D01*
X265700Y813500D02*X268700D01*
X269450Y812750D01*
Y811250D01*
X268700Y810500D02*X269450Y811250D01*
X266450Y810500D02*X268700D01*
X272000Y807500D02*X274250D01*
X271250Y808250D02*X272000Y807500D01*
X271250Y809750D02*Y808250D01*
Y809750D02*X272000Y810500D01*
X273500D01*
X274250Y809750D01*
X271250Y809000D02*X274250D01*
Y809750D02*Y809000D01*
X276800Y813500D02*Y808250D01*
X277550Y807500D01*
X276050Y811250D02*X277550D01*
X279800Y807500D02*X282050D01*
X279050Y808250D02*X279800Y807500D01*
X279050Y809750D02*Y808250D01*
Y809750D02*X279800Y810500D01*
X281300D01*
X282050Y809750D01*
X279050Y809000D02*X282050D01*
Y809750D02*Y809000D01*
X284600Y809750D02*Y807500D01*
Y809750D02*X285350Y810500D01*
X286850D01*
X283850D02*X284600Y809750D01*
X289400Y807500D02*X291650D01*
X292400Y808250D01*
X291650Y809000D02*X292400Y808250D01*
X289400Y809000D02*X291650D01*
X288650Y809750D02*X289400Y809000D01*
X288650Y809750D02*X289400Y810500D01*
X291650D01*
X292400Y809750D01*
X288650Y808250D02*X289400Y807500D01*
X294950D02*X297200D01*
X294200Y808250D02*X294950Y807500D01*
X294200Y809750D02*Y808250D01*
Y809750D02*X294950Y810500D01*
X296450D01*
X297200Y809750D01*
X294200Y809000D02*X297200D01*
Y809750D02*Y809000D01*
X299750Y809750D02*Y807500D01*
Y809750D02*X300500Y810500D01*
X301250D01*
X302000Y809750D01*
Y807500D01*
X299000Y810500D02*X299750Y809750D01*
X200000Y828500D02*X203000D01*
X201500D02*Y822500D01*
X204800Y827000D02*Y826250D01*
Y824750D02*Y822500D01*
X207050Y828500D02*Y823250D01*
X207800Y822500D01*
X206300Y826250D02*X207800D01*
X209300Y828500D02*Y823250D01*
X210050Y822500D01*
X212300D02*X214550D01*
X211550Y823250D02*X212300Y822500D01*
X211550Y824750D02*Y823250D01*
Y824750D02*X212300Y825500D01*
X213800D01*
X214550Y824750D01*
X211550Y824000D02*X214550D01*
Y824750D02*Y824000D01*
X216350Y826250D02*X217100D01*
X216350Y824750D02*X217100D01*
X221600Y823250D02*X222350Y822500D01*
X221600Y827750D02*X222350Y828500D01*
X221600Y827750D02*Y823250D01*
X224150Y825500D02*Y823250D01*
X224900Y822500D01*
X226400D01*
X227150Y823250D01*
Y825500D02*Y823250D01*
X229700Y824750D02*Y822500D01*
Y824750D02*X230450Y825500D01*
X231200D01*
X231950Y824750D01*
Y822500D01*
X228950Y825500D02*X229700Y824750D01*
X233750Y828500D02*Y822500D01*
Y824750D02*X236000Y822500D01*
X233750Y824750D02*X235250Y826250D01*
X238550Y824750D02*Y822500D01*
Y824750D02*X239300Y825500D01*
X240050D01*
X240800Y824750D01*
Y822500D01*
X237800Y825500D02*X238550Y824750D01*
X242600D02*Y823250D01*
Y824750D02*X243350Y825500D01*
X244850D01*
X245600Y824750D01*
Y823250D01*
X244850Y822500D02*X245600Y823250D01*
X243350Y822500D02*X244850D01*
X242600Y823250D02*X243350Y822500D01*
X247400Y825500D02*Y823250D01*
X248150Y822500D01*
X248900D01*
X249650Y823250D01*
Y825500D02*Y823250D01*
X250400Y822500D01*
X251150D01*
X251900Y823250D01*
Y825500D02*Y823250D01*
X254450Y824750D02*Y822500D01*
Y824750D02*X255200Y825500D01*
X255950D01*
X256700Y824750D01*
Y822500D01*
X253700Y825500D02*X254450Y824750D01*
X258500Y828500D02*X259250Y827750D01*
Y823250D01*
X258500Y822500D02*X259250Y823250D01*
X263750Y825500D02*X266750D01*
X271250Y828500D02*Y822500D01*
Y828500D02*X274250D01*
X271250Y825500D02*X273500D01*
X278300D02*X279050Y824750D01*
X276800Y825500D02*X278300D01*
X276050Y824750D02*X276800Y825500D01*
X276050Y824750D02*Y823250D01*
X276800Y822500D01*
X279050Y825500D02*Y823250D01*
X279800Y822500D01*
X276800D02*X278300D01*
X279050Y823250D01*
X281600Y828500D02*Y822500D01*
Y823250D02*X282350Y822500D01*
X283850D01*
X284600Y823250D01*
Y824750D02*Y823250D01*
X283850Y825500D02*X284600Y824750D01*
X282350Y825500D02*X283850D01*
X281600Y824750D02*X282350Y825500D01*
X287150Y824750D02*Y822500D01*
Y824750D02*X287900Y825500D01*
X289400D01*
X286400D02*X287150Y824750D01*
X291200Y827000D02*Y826250D01*
Y824750D02*Y822500D01*
X293450Y825500D02*X295700D01*
X292700Y824750D02*X293450Y825500D01*
X292700Y824750D02*Y823250D01*
X293450Y822500D01*
X295700D01*
X299750Y825500D02*X300500Y824750D01*
X298250Y825500D02*X299750D01*
X297500Y824750D02*X298250Y825500D01*
X297500Y824750D02*Y823250D01*
X298250Y822500D01*
X300500Y825500D02*Y823250D01*
X301250Y822500D01*
X298250D02*X299750D01*
X300500Y823250D01*
X303800Y828500D02*Y823250D01*
X304550Y822500D01*
X303050Y826250D02*X304550D01*
X306050Y827000D02*Y826250D01*
Y824750D02*Y822500D01*
X307550Y824750D02*Y823250D01*
Y824750D02*X308300Y825500D01*
X309800D01*
X310550Y824750D01*
Y823250D01*
X309800Y822500D02*X310550Y823250D01*
X308300Y822500D02*X309800D01*
X307550Y823250D02*X308300Y822500D01*
X313100Y824750D02*Y822500D01*
Y824750D02*X313850Y825500D01*
X314600D01*
X315350Y824750D01*
Y822500D01*
X312350Y825500D02*X313100Y824750D01*
X320600Y828500D02*Y822500D01*
X322850Y828500D02*X323600Y827750D01*
Y823250D01*
X322850Y822500D02*X323600Y823250D01*
X319850Y822500D02*X322850D01*
X319850Y828500D02*X322850D01*
X326150Y824750D02*Y822500D01*
Y824750D02*X326900Y825500D01*
X328400D01*
X325400D02*X326150Y824750D01*
X332450Y825500D02*X333200Y824750D01*
X330950Y825500D02*X332450D01*
X330200Y824750D02*X330950Y825500D01*
X330200Y824750D02*Y823250D01*
X330950Y822500D01*
X333200Y825500D02*Y823250D01*
X333950Y822500D01*
X330950D02*X332450D01*
X333200Y823250D01*
X335750Y825500D02*Y823250D01*
X336500Y822500D01*
X337250D01*
X338000Y823250D01*
Y825500D02*Y823250D01*
X338750Y822500D01*
X339500D01*
X340250Y823250D01*
Y825500D02*Y823250D01*
X342050Y827000D02*Y826250D01*
Y824750D02*Y822500D01*
X344300Y824750D02*Y822500D01*
Y824750D02*X345050Y825500D01*
X345800D01*
X346550Y824750D01*
Y822500D01*
X343550Y825500D02*X344300Y824750D01*
X350600Y825500D02*X351350Y824750D01*
X349100Y825500D02*X350600D01*
X348350Y824750D02*X349100Y825500D01*
X348350Y824750D02*Y823250D01*
X349100Y822500D01*
X350600D01*
X351350Y823250D01*
X348350Y821000D02*X349100Y820250D01*
X350600D01*
X351350Y821000D01*
Y825500D02*Y821000D01*
M02*
