G04 start of page 6 for group -4063 idx -4063 *
G04 Title: (unknown), componentmask *
G04 Creator: pcb 20110918 *
G04 CreationDate: Sun 20 Dec 2015 04:06:38 AM GMT UTC *
G04 For: petersen *
G04 Format: Gerber/RS-274X *
G04 PCB-Dimensions: 170000 770000 *
G04 PCB-Coordinate-Origin: lower left *
%MOIN*%
%FSLAX25Y25*%
%LNTOPMASK*%
%ADD62R,0.0610X0.0610*%
%ADD61R,0.0572X0.0572*%
%ADD60R,0.0300X0.0300*%
%ADD59R,0.0227X0.0227*%
%ADD58R,0.0400X0.0400*%
%ADD57C,0.0900*%
%ADD56C,0.0860*%
%ADD55C,0.2997*%
%ADD54C,0.0660*%
%ADD53C,0.0001*%
%ADD52C,0.0750*%
G54D52*X91500Y557000D03*
X111500D03*
X78000D03*
G54D53*G36*
X77700Y507800D02*Y501200D01*
X84300D01*
Y507800D01*
X77700D01*
G37*
G54D54*X71000Y503500D03*
X61000Y504500D03*
G54D55*X153000Y536000D03*
G54D52*X131500Y557000D03*
X161500D03*
G54D55*X153000Y479000D03*
G54D53*G36*
X129700Y472800D02*Y466200D01*
X136300D01*
Y472800D01*
X129700D01*
G37*
G54D54*X123000Y469500D03*
G54D53*G36*
X157750Y460750D02*Y453250D01*
X165250D01*
Y460750D01*
X157750D01*
G37*
G54D52*X131500Y457000D03*
G54D53*G36*
X54755Y668973D02*Y660373D01*
X63355D01*
Y668973D01*
X54755D01*
G37*
G54D56*X72835Y664673D03*
X86614D03*
G54D52*X91500Y687000D03*
X78000D03*
X111500D03*
G54D54*X113000Y599500D03*
X103000D03*
X93000D03*
G54D56*X86614Y534673D03*
G54D54*X83000Y599500D03*
G54D53*G36*
X77700Y637800D02*Y631200D01*
X84300D01*
Y637800D01*
X77700D01*
G37*
G54D54*X71000Y633500D03*
X61000Y634500D03*
G54D52*X111500Y587000D03*
X91500D03*
G54D53*G36*
X74250Y590750D02*Y583250D01*
X81750D01*
Y590750D01*
X74250D01*
G37*
G54D55*X153000Y666000D03*
Y739000D03*
G54D53*G36*
X157750Y720750D02*Y713250D01*
X165250D01*
Y720750D01*
X157750D01*
G37*
G54D52*X161500Y687000D03*
G54D53*G36*
X129700Y732800D02*Y726200D01*
X136300D01*
Y732800D01*
X129700D01*
G37*
G54D52*X131500Y717000D03*
G54D54*X123000Y729500D03*
G54D52*X131500Y687000D03*
G54D55*X153000Y609000D03*
G54D53*G36*
X129700Y602800D02*Y596200D01*
X136300D01*
Y602800D01*
X129700D01*
G37*
G54D54*X123000Y599500D03*
G54D53*G36*
X157750Y590750D02*Y583250D01*
X165250D01*
Y590750D01*
X157750D01*
G37*
G54D52*X131500Y587000D03*
G54D53*G36*
X38500Y738500D02*Y729500D01*
X47500D01*
Y738500D01*
X38500D01*
G37*
G36*
X10373Y764745D02*Y756145D01*
X18973D01*
Y764745D01*
X10373D01*
G37*
G54D56*X14673Y746665D03*
Y732886D03*
G54D54*X113000Y729500D03*
X103000D03*
X93000D03*
G54D52*X111500Y717000D03*
X91500D03*
G54D57*X63000Y734000D03*
X53000D03*
G54D54*X83000Y729500D03*
G54D52*X48000Y717000D03*
X28000D03*
X8000D03*
G54D53*G36*
X74250Y720750D02*Y713250D01*
X81750D01*
Y720750D01*
X74250D01*
G37*
G36*
X77700Y767800D02*Y761200D01*
X84300D01*
Y767800D01*
X77700D01*
G37*
G54D54*X71000Y763500D03*
X61000Y764500D03*
G54D53*G36*
X5255Y668973D02*Y660373D01*
X13855D01*
Y668973D01*
X5255D01*
G37*
G54D52*X8000Y687000D03*
X28000D03*
G54D53*G36*
X54755Y538973D02*Y530373D01*
X63355D01*
Y538973D01*
X54755D01*
G37*
G54D57*X63000Y604000D03*
X53000D03*
G54D53*G36*
X38500Y608500D02*Y599500D01*
X47500D01*
Y608500D01*
X38500D01*
G37*
G54D52*X48000Y587000D03*
Y557000D03*
G54D56*X72835Y534673D03*
G54D53*G36*
X5255Y538973D02*Y530373D01*
X13855D01*
Y538973D01*
X5255D01*
G37*
G54D56*X23335Y534673D03*
X37114D03*
X23335Y664673D03*
X37114D03*
G54D52*X48000Y687000D03*
G54D53*G36*
X10373Y634745D02*Y626145D01*
X18973D01*
Y634745D01*
X10373D01*
G37*
G54D56*X14673Y616665D03*
G54D53*G36*
X10373Y504745D02*Y496145D01*
X18973D01*
Y504745D01*
X10373D01*
G37*
G54D56*X14673Y486665D03*
Y472886D03*
Y602886D03*
G54D52*X28000Y587000D03*
X8000D03*
Y557000D03*
X28000D03*
G54D53*G36*
X54755Y408973D02*Y400373D01*
X63355D01*
Y408973D01*
X54755D01*
G37*
G54D56*X72835Y404673D03*
X37114D03*
X86614D03*
G54D52*X91500Y427000D03*
X111500D03*
G54D54*X113000Y469500D03*
X103000D03*
X93000D03*
G54D52*X111500Y457000D03*
X91500D03*
G54D53*G36*
X74250Y460750D02*Y453250D01*
X81750D01*
Y460750D01*
X74250D01*
G37*
G54D52*X48000Y427000D03*
X78000D03*
G54D57*X63000Y474000D03*
G54D54*X83000Y469500D03*
G54D57*X53000Y474000D03*
G54D52*X48000Y457000D03*
X28000D03*
X8000D03*
G54D53*G36*
X38500Y478500D02*Y469500D01*
X47500D01*
Y478500D01*
X38500D01*
G37*
G36*
X5255Y408973D02*Y400373D01*
X13855D01*
Y408973D01*
X5255D01*
G37*
G54D56*X23335Y404673D03*
G54D52*X8000Y427000D03*
X28000D03*
G54D53*G36*
X10373Y374745D02*Y366145D01*
X18973D01*
Y374745D01*
X10373D01*
G37*
G54D56*X14673Y356665D03*
Y342886D03*
G54D54*X93000Y339500D03*
X83000D03*
G54D52*X91500Y327000D03*
G54D53*G36*
X74250Y330750D02*Y323250D01*
X81750D01*
Y330750D01*
X74250D01*
G37*
G36*
X77700Y377800D02*Y371200D01*
X84300D01*
Y377800D01*
X77700D01*
G37*
G54D54*X71000Y373500D03*
X61000Y374500D03*
G54D53*G36*
X54755Y278973D02*Y270373D01*
X63355D01*
Y278973D01*
X54755D01*
G37*
G54D57*X63000Y344000D03*
X53000D03*
G54D53*G36*
X38500Y348500D02*Y339500D01*
X47500D01*
Y348500D01*
X38500D01*
G37*
G54D52*X48000Y327000D03*
Y297000D03*
G54D56*X72835Y274673D03*
X86614D03*
G54D52*X91500Y297000D03*
X78000D03*
G54D53*G36*
X5255Y278973D02*Y270373D01*
X13855D01*
Y278973D01*
X5255D01*
G37*
G54D52*X8000Y297000D03*
G54D56*X23335Y274673D03*
G54D52*X28000Y297000D03*
G54D56*X37114Y274673D03*
G54D52*X28000Y327000D03*
X8000D03*
G54D55*X153000Y406000D03*
G54D52*X131500Y427000D03*
X161500D03*
G54D55*X153000Y349000D03*
G54D53*G36*
X157750Y330750D02*Y323250D01*
X165250D01*
Y330750D01*
X157750D01*
G37*
G54D52*X131500Y327000D03*
G54D53*G36*
X129700Y342800D02*Y336200D01*
X136300D01*
Y342800D01*
X129700D01*
G37*
G54D54*X123000Y339500D03*
X113000D03*
X103000D03*
G54D55*X153000Y276000D03*
G54D52*X111500Y327000D03*
Y297000D03*
X131500D03*
X161500D03*
G54D55*X153000Y219000D03*
G54D53*G36*
X157750Y200750D02*Y193250D01*
X165250D01*
Y200750D01*
X157750D01*
G37*
G36*
X129700Y212800D02*Y206200D01*
X136300D01*
Y212800D01*
X129700D01*
G37*
G54D54*X123000Y209500D03*
X113000D03*
X103000D03*
G54D52*X131500Y197000D03*
X111500D03*
G54D57*X53000Y214000D03*
G54D52*X48000Y197000D03*
X28000D03*
G54D54*X83000Y209500D03*
G54D53*G36*
X74250Y200750D02*Y193250D01*
X81750D01*
Y200750D01*
X74250D01*
G37*
G36*
X77700Y247800D02*Y241200D01*
X84300D01*
Y247800D01*
X77700D01*
G37*
G54D54*X71000Y243500D03*
G54D53*G36*
X10373Y244745D02*Y236145D01*
X18973D01*
Y244745D01*
X10373D01*
G37*
G54D56*X14673Y226665D03*
Y212886D03*
G54D52*X8000Y197000D03*
G54D53*G36*
X54755Y148973D02*Y140373D01*
X63355D01*
Y148973D01*
X54755D01*
G37*
G36*
X5255D02*Y140373D01*
X13855D01*
Y148973D01*
X5255D01*
G37*
G54D56*X23335Y144673D03*
X37114D03*
X72835D03*
X86614D03*
G54D55*X153000Y146000D03*
G54D52*X91500Y167000D03*
X8000D03*
X28000D03*
X48000D03*
X78000D03*
X111500D03*
X131500D03*
X161500D03*
G54D57*X63000Y214000D03*
G54D54*X61000Y244500D03*
G54D53*G36*
X38500Y218500D02*Y209500D01*
X47500D01*
Y218500D01*
X38500D01*
G37*
G36*
Y88500D02*Y79500D01*
X47500D01*
Y88500D01*
X38500D01*
G37*
G54D52*X48000Y67000D03*
G54D54*X93000Y209500D03*
G54D52*X91500Y197000D03*
G54D53*G36*
X77700Y117800D02*Y111200D01*
X84300D01*
Y117800D01*
X77700D01*
G37*
G36*
X54755Y18973D02*Y10373D01*
X63355D01*
Y18973D01*
X54755D01*
G37*
G54D56*X72835Y14673D03*
G54D57*X63000Y84000D03*
X53000D03*
G54D54*X71000Y113500D03*
X61000Y114500D03*
G54D55*X153000Y16000D03*
Y89000D03*
G54D53*G36*
X157750Y70750D02*Y63250D01*
X165250D01*
Y70750D01*
X157750D01*
G37*
G36*
X129700Y82800D02*Y76200D01*
X136300D01*
Y82800D01*
X129700D01*
G37*
G54D54*X123000Y79500D03*
X113000D03*
X103000D03*
G54D52*X131500Y67000D03*
X111500D03*
Y37000D03*
X131500D03*
X161500D03*
G54D53*G36*
X10373Y114745D02*Y106145D01*
X18973D01*
Y114745D01*
X10373D01*
G37*
G54D56*X14673Y96665D03*
Y82886D03*
G54D52*X28000Y67000D03*
X8000D03*
G54D56*X86614Y14673D03*
G54D52*X91500Y37000D03*
X78000D03*
G54D53*G36*
X5255Y18973D02*Y10373D01*
X13855D01*
Y18973D01*
X5255D01*
G37*
G54D56*X23335Y14673D03*
X37114D03*
G54D52*X8000Y37000D03*
X28000D03*
X48000D03*
G54D54*X93000Y79500D03*
X83000D03*
G54D52*X91500Y67000D03*
G54D53*G36*
X74250Y70750D02*Y63250D01*
X81750D01*
Y70750D01*
X74250D01*
G37*
G54D58*X102900Y623000D02*Y622400D01*
G54D59*X119276Y621587D02*Y619717D01*
X122425Y621587D02*Y619717D01*
X125575Y621587D02*Y619717D01*
X128724Y621587D02*Y619717D01*
G54D58*X95100Y623000D02*Y622400D01*
X99000Y614800D02*Y614200D01*
G54D60*X124700Y661500D02*X126300D01*
X124700Y665400D02*X126300D01*
X124700Y669300D02*X126300D01*
X116500D02*X118100D01*
X116500Y665400D02*X118100D01*
X116500Y661500D02*X118100D01*
G54D61*X154957Y633393D02*Y632607D01*
X162043Y633393D02*Y632607D01*
X146043Y633393D02*Y632607D01*
X138957Y633393D02*Y632607D01*
G54D59*X128724Y628283D02*Y626413D01*
X125575Y628283D02*Y626413D01*
X122425Y628283D02*Y626413D01*
X119276Y628283D02*Y626413D01*
G54D61*X63000Y623393D02*Y622607D01*
X55914Y623393D02*Y622607D01*
X42043Y623393D02*Y622607D01*
G54D62*X47000Y634500D02*Y632500D01*
G54D61*X34957Y623393D02*Y622607D01*
G54D62*X34000Y634500D02*Y632500D01*
G54D60*X78000Y615300D02*Y613700D01*
X81900Y615300D02*Y613700D01*
X85800Y615300D02*Y613700D01*
Y623500D02*Y621900D01*
X81900Y623500D02*Y621900D01*
X78000Y623500D02*Y621900D01*
G54D58*X102900Y753000D02*Y752400D01*
X95100Y753000D02*Y752400D01*
X99000Y744800D02*Y744200D01*
G54D61*X63000Y753393D02*Y752607D01*
X55914Y753393D02*Y752607D01*
X42043Y753393D02*Y752607D01*
X34957Y753393D02*Y752607D01*
G54D62*X34000Y764500D02*Y762500D01*
X47000Y764500D02*Y762500D01*
G54D61*X154957Y763393D02*Y762607D01*
X162043Y763393D02*Y762607D01*
X146043Y763393D02*Y762607D01*
X138957Y763393D02*Y762607D01*
G54D59*X128724Y758283D02*Y756413D01*
X125575Y758283D02*Y756413D01*
X122425Y758283D02*Y756413D01*
X119276Y758283D02*Y756413D01*
Y751587D02*Y749717D01*
X122425Y751587D02*Y749717D01*
X125575Y751587D02*Y749717D01*
X128724Y751587D02*Y749717D01*
G54D60*X78000Y745300D02*Y743700D01*
X81900Y745300D02*Y743700D01*
X85800Y745300D02*Y743700D01*
Y753500D02*Y751900D01*
X81900Y753500D02*Y751900D01*
X78000Y753500D02*Y751900D01*
X124700Y531500D02*X126300D01*
X124700Y535400D02*X126300D01*
X124700Y539300D02*X126300D01*
X116500D02*X118100D01*
X116500Y535400D02*X118100D01*
X116500Y531500D02*X118100D01*
G54D61*X42043Y493393D02*Y492607D01*
X34957Y493393D02*Y492607D01*
G54D62*X34000Y504500D02*Y502500D01*
X47000Y504500D02*Y502500D01*
G54D60*X78000Y485300D02*Y483700D01*
X81900Y485300D02*Y483700D01*
X85800Y485300D02*Y483700D01*
Y493500D02*Y491900D01*
X81900Y493500D02*Y491900D01*
X78000Y493500D02*Y491900D01*
G54D61*X63000Y493393D02*Y492607D01*
X55914Y493393D02*Y492607D01*
G54D58*X102900Y493000D02*Y492400D01*
X95100Y493000D02*Y492400D01*
X99000Y484800D02*Y484200D01*
G54D61*X154957Y503393D02*Y502607D01*
X146043Y503393D02*Y502607D01*
X162043Y503393D02*Y502607D01*
X138957Y503393D02*Y502607D01*
G54D59*X128724Y498283D02*Y496413D01*
X125575Y498283D02*Y496413D01*
X122425Y498283D02*Y496413D01*
X119276Y498283D02*Y496413D01*
X128724Y491587D02*Y489717D01*
G54D60*X124700Y401500D02*X126300D01*
X124700Y405400D02*X126300D01*
X124700Y409300D02*X126300D01*
X116500D02*X118100D01*
X116500Y405400D02*X118100D01*
X116500Y401500D02*X118100D01*
G54D59*X119276Y491587D02*Y489717D01*
X122425Y491587D02*Y489717D01*
X125575Y491587D02*Y489717D01*
G54D61*X55914Y363393D02*Y362607D01*
X42043Y363393D02*Y362607D01*
X34957Y363393D02*Y362607D01*
G54D62*X34000Y374500D02*Y372500D01*
X47000Y374500D02*Y372500D01*
G54D61*X63000Y233393D02*Y232607D01*
X55914Y233393D02*Y232607D01*
X42043Y233393D02*Y232607D01*
X34957Y233393D02*Y232607D01*
G54D62*X34000Y244500D02*Y242500D01*
X47000Y244500D02*Y242500D01*
G54D58*X102900Y233000D02*Y232400D01*
X95100Y233000D02*Y232400D01*
X99000Y224800D02*Y224200D01*
G54D60*X78000Y225300D02*Y223700D01*
X81900Y225300D02*Y223700D01*
X85800Y225300D02*Y223700D01*
Y233500D02*Y231900D01*
X81900Y233500D02*Y231900D01*
X78000Y233500D02*Y231900D01*
G54D61*X63000Y363393D02*Y362607D01*
G54D58*X102900Y363000D02*Y362400D01*
X95100Y363000D02*Y362400D01*
X99000Y354800D02*Y354200D01*
G54D60*X78000Y355300D02*Y353700D01*
X81900Y355300D02*Y353700D01*
X85800Y355300D02*Y353700D01*
Y363500D02*Y361900D01*
X81900Y363500D02*Y361900D01*
X78000Y363500D02*Y361900D01*
X124700Y271500D02*X126300D01*
X124700Y275400D02*X126300D01*
X124700Y279300D02*X126300D01*
X116500D02*X118100D01*
X116500Y275400D02*X118100D01*
X116500Y271500D02*X118100D01*
G54D61*X154957Y373393D02*Y372607D01*
Y243393D02*Y242607D01*
X146043Y243393D02*Y242607D01*
X138957Y243393D02*Y242607D01*
X162043Y373393D02*Y372607D01*
Y243393D02*Y242607D01*
G54D59*X128724Y238283D02*Y236413D01*
G54D61*X146043Y373393D02*Y372607D01*
X138957Y373393D02*Y372607D01*
G54D59*X128724Y368283D02*Y366413D01*
X125575Y368283D02*Y366413D01*
X122425Y368283D02*Y366413D01*
X119276Y368283D02*Y366413D01*
Y361587D02*Y359717D01*
X122425Y361587D02*Y359717D01*
X125575Y361587D02*Y359717D01*
X128724Y361587D02*Y359717D01*
G54D60*X116500Y149300D02*X118100D01*
G54D61*X154957Y113393D02*Y112607D01*
X162043Y113393D02*Y112607D01*
X146043Y113393D02*Y112607D01*
X138957Y113393D02*Y112607D01*
G54D60*X124700Y141500D02*X126300D01*
X124700Y145400D02*X126300D01*
X124700Y149300D02*X126300D01*
X116500Y145400D02*X118100D01*
X116500Y141500D02*X118100D01*
G54D59*X125575Y238283D02*Y236413D01*
X122425Y238283D02*Y236413D01*
Y101587D02*Y99717D01*
X125575Y101587D02*Y99717D01*
X128724Y101587D02*Y99717D01*
X119276Y238283D02*Y236413D01*
Y231587D02*Y229717D01*
G54D60*X116500Y19300D02*X118100D01*
X116500Y15400D02*X118100D01*
X116500Y11500D02*X118100D01*
G54D59*X119276Y108283D02*Y106413D01*
Y101587D02*Y99717D01*
X122425Y231587D02*Y229717D01*
X125575Y231587D02*Y229717D01*
X128724Y231587D02*Y229717D01*
G54D61*X63000Y103393D02*Y102607D01*
X55914Y103393D02*Y102607D01*
X42043Y103393D02*Y102607D01*
X34957Y103393D02*Y102607D01*
G54D62*X34000Y114500D02*Y112500D01*
X47000Y114500D02*Y112500D01*
G54D60*X124700Y11500D02*X126300D01*
X124700Y15400D02*X126300D01*
X124700Y19300D02*X126300D01*
G54D59*X128724Y108283D02*Y106413D01*
X125575Y108283D02*Y106413D01*
X122425Y108283D02*Y106413D01*
G54D58*X102900Y103000D02*Y102400D01*
X95100Y103000D02*Y102400D01*
X99000Y94800D02*Y94200D01*
G54D60*X78000Y95300D02*Y93700D01*
X81900Y95300D02*Y93700D01*
X85800Y95300D02*Y93700D01*
Y103500D02*Y101900D01*
X81900Y103500D02*Y101900D01*
X78000Y103500D02*Y101900D01*
M02*
