G04 start of page 7 for group -4079 idx -4079 *
G04 Title: (unknown), topsilk *
G04 Creator: pcb 20110918 *
G04 CreationDate: Tue 05 Feb 2013 02:58:24 AM GMT UTC *
G04 For: railfan *
G04 Format: Gerber/RS-274X *
G04 PCB-Dimensions: 170000 48000 *
G04 PCB-Coordinate-Origin: lower left *
%MOIN*%
%FSLAX25Y25*%
%LNTOPSILK*%
%ADD62C,0.0100*%
%ADD61C,0.0001*%
G54D61*G36*
X74500Y18500D02*X76500D01*
Y16500D01*
X74500D01*
Y18500D01*
G37*
G54D62*X169500Y47500D02*Y500D01*
X123000Y46000D02*Y44000D01*
X122000Y45000D02*X124000D01*
X166000Y46000D02*Y44000D01*
X165000Y45000D02*X167000D01*
X500Y47500D02*X169500D01*
Y500D02*X500D01*
Y47500D01*
X105400Y33600D02*Y19700D01*
X92600Y33600D02*X105400D01*
X92600D02*Y19700D01*
X105400D01*
X152543Y45740D02*X157267D01*
X152543Y38260D02*X157267D01*
X128564Y28245D02*X129350D01*
X128564Y33755D02*X129350D01*
X101107Y39745D02*X101893D01*
X101107Y45255D02*X101893D01*
X131595Y38260D02*X136319D01*
X131595Y45740D02*X136319D01*
X59064Y28245D02*X59850D01*
X59064Y33755D02*X59850D01*
X56000Y37500D02*X86000D01*
Y47500D02*Y37500D01*
X56000Y47500D02*X86000D01*
X56000D02*Y37500D01*
X66000Y47500D02*Y37500D01*
X56000Y47500D02*X66000D01*
X44000Y45500D02*Y37500D01*
X31100Y45500D02*Y37500D01*
X50800Y45500D02*Y37500D01*
X31100D02*X50800D01*
X31100Y45500D02*X50800D01*
X76000Y33500D02*Y19600D01*
X87800D01*
Y33500D01*
X76000D01*
X38107Y28245D02*X38893D01*
X38107Y33755D02*X38893D01*
X500Y47500D02*Y1831D01*
X28059D01*
Y47500D01*
X500D01*
X128650Y18245D02*X129436D01*
X128650Y23755D02*X129436D01*
X72685Y2157D02*X33315D01*
X72685Y23811D02*X33315D01*
Y17905D02*X72685D01*
Y23811D02*Y2157D01*
X33315D02*Y23811D01*
X78000Y12500D02*X138000D01*
X78000D02*Y2500D01*
X138000D01*
Y12500D02*Y2500D01*
X128000Y12500D02*Y2500D01*
X138000D01*
X87500Y44500D02*X89000D01*
Y41000D01*
X88500Y40500D02*X89000Y41000D01*
X88000Y40500D02*X88500D01*
X87500Y41000D02*X88000Y40500D01*
X90200Y44000D02*X90700Y44500D01*
X92200D01*
X92700Y44000D01*
Y43000D01*
X90200Y40500D02*X92700Y43000D01*
X90200Y40500D02*X92700D01*
X106700Y27900D02*Y24900D01*
Y27900D02*X107200Y28400D01*
X108200D01*
X108700Y27900D01*
Y24900D01*
X108200Y24400D02*X108700Y24900D01*
X107200Y24400D02*X108200D01*
X106700Y24900D02*X107200Y24400D01*
X107700Y25400D02*X108700Y24400D01*
X110400D02*X111400D01*
X110900Y28400D02*Y24400D01*
X109900Y27400D02*X110900Y28400D01*
X152255Y36650D02*Y32650D01*
X153755Y36650D02*X154255Y36150D01*
Y33150D01*
X153755Y32650D02*X154255Y33150D01*
X151755Y32650D02*X153755D01*
X151755Y36650D02*X153755D01*
X155455Y36150D02*X155955Y36650D01*
X157455D01*
X157955Y36150D01*
Y35150D01*
X155455Y32650D02*X157955Y35150D01*
X155455Y32650D02*X157955D01*
X116031Y33150D02*X118031D01*
X118531Y32650D01*
Y31650D01*
X118031Y31150D02*X118531Y31650D01*
X116531Y31150D02*X118031D01*
X116531Y33150D02*Y29150D01*
Y31150D02*X118531Y29150D01*
X120231D02*X121231D01*
X120731Y33150D02*Y29150D01*
X119731Y32150D02*X120731Y33150D01*
X108807Y44650D02*X110807D01*
X111307Y44150D01*
Y43150D01*
X110807Y42650D02*X111307Y43150D01*
X109307Y42650D02*X110807D01*
X109307Y44650D02*Y40650D01*
Y42650D02*X111307Y40650D01*
X112507Y44150D02*X113007Y44650D01*
X114007D01*
X114507Y44150D01*
Y41150D01*
X114007Y40650D02*X114507Y41150D01*
X113007Y40650D02*X114007D01*
X112507Y41150D02*X113007Y40650D01*
Y42650D02*X114507D01*
X119000Y42000D02*Y38000D01*
X120500Y42000D02*X121000Y41500D01*
Y38500D01*
X120500Y38000D02*X121000Y38500D01*
X118500Y38000D02*X120500D01*
X118500Y42000D02*X120500D01*
X122700Y38000D02*X123700D01*
X123200Y42000D02*Y38000D01*
X122200Y41000D02*X123200Y42000D01*
X46936Y31650D02*X48436D01*
X46436Y32150D02*X46936Y31650D01*
X46436Y35150D02*Y32150D01*
Y35150D02*X46936Y35650D01*
X48436D01*
X49636Y35150D02*X50136Y35650D01*
X51636D01*
X52136Y35150D01*
Y34150D01*
X49636Y31650D02*X52136Y34150D01*
X49636Y31650D02*X52136D01*
X37945Y43110D02*Y39550D01*
X39280Y43110D02*X39725Y42665D01*
Y39995D01*
X39280Y39550D02*X39725Y39995D01*
X37500Y39550D02*X39280D01*
X37500Y43110D02*X39280D01*
X40793Y42665D02*X41238Y43110D01*
X42128D01*
X42573Y42665D01*
Y39995D01*
X42128Y39550D02*X42573Y39995D01*
X41238Y39550D02*X42128D01*
X40793Y39995D02*X41238Y39550D01*
Y41330D02*X42573D01*
X69500Y29800D02*Y26300D01*
X70000Y25800D01*
X71000D01*
X71500Y26300D01*
Y29800D02*Y26300D01*
X73200Y25800D02*X74200D01*
X73700Y29800D02*Y25800D01*
X72700Y28800D02*X73700Y29800D01*
X114979Y22960D02*X116979D01*
X117479Y22460D01*
Y21460D01*
X116979Y20960D02*X117479Y21460D01*
X115479Y20960D02*X116979D01*
X115479Y22960D02*Y18960D01*
Y20960D02*X117479Y18960D01*
X118679Y22460D02*X119179Y22960D01*
X120679D01*
X121179Y22460D01*
Y21460D01*
X118679Y18960D02*X121179Y21460D01*
X118679Y18960D02*X121179D01*
X46307Y25150D02*X47807D01*
X45807Y25650D02*X46307Y25150D01*
X45807Y28650D02*Y25650D01*
Y28650D02*X46307Y29150D01*
X47807D01*
X49507Y25150D02*X50507D01*
X50007Y29150D02*Y25150D01*
X49007Y28150D02*X50007Y29150D01*
X66158Y7295D02*Y4180D01*
X66603Y3735D01*
X67493D01*
X67938Y4180D01*
Y7295D02*Y4180D01*
X69006Y6850D02*X69451Y7295D01*
X70786D01*
X71231Y6850D01*
Y5960D01*
X69006Y3735D02*X71231Y5960D01*
X69006Y3735D02*X71231D01*
X22000Y7500D02*X23500D01*
Y4000D01*
X23000Y3500D02*X23500Y4000D01*
X22500Y3500D02*X23000D01*
X22000Y4000D02*X22500Y3500D01*
X25200D02*X26200D01*
X25700Y7500D02*Y3500D01*
X24700Y6500D02*X25700Y7500D01*
M02*
