M48
INCH
T45C0.020
T44C0.129
T43C0.047
T42C0.045
T41C0.038
%
T45
X007350Y002250
X007350Y003050
X009050Y002350
X009050Y003050
X006300Y002500
X010900Y001950
X013950Y003450
X011050Y003750
X011900Y002600
X011400Y002600
X016100Y003400
X008200Y001700
X013450Y001500
X009150Y001400
T41
X006100Y004250
X007100Y004250
X008100Y004250
X010300Y000750
X009300Y000750
X008300Y000750
X013300Y000750
X012300Y000750
X011300Y000750
T42
X006300Y001200
X005300Y001200
X004300Y001200
T43
X001467Y003844
X001467Y002466
X001467Y001089
T44
X015300Y001700
M30
