G04 start of page 5 for group -4063 idx -4063 *
G04 Title: (unknown), componentmask *
G04 Creator: pcb 20110918 *
G04 CreationDate: Tue 05 Feb 2013 02:58:24 AM GMT UTC *
G04 For: railfan *
G04 Format: Gerber/RS-274X *
G04 PCB-Dimensions: 170000 48000 *
G04 PCB-Coordinate-Origin: lower left *
%MOIN*%
%FSLAX25Y25*%
%LNTOPMASK*%
%ADD54R,0.0300X0.0300*%
%ADD53R,0.0420X0.0420*%
%ADD52R,0.0572X0.0572*%
%ADD51R,0.0400X0.0400*%
%ADD50C,0.2997*%
%ADD49C,0.0860*%
%ADD48C,0.0900*%
%ADD47C,0.0660*%
%ADD46C,0.0001*%
G54D46*G36*
X57700Y45800D02*Y39200D01*
X64300D01*
Y45800D01*
X57700D01*
G37*
G54D47*X71000Y42500D03*
X81000D03*
X103000Y7500D03*
X93000D03*
X83000D03*
G54D48*X63000Y12000D03*
X53000D03*
G54D46*G36*
X38500Y16500D02*Y7500D01*
X47500D01*
Y16500D01*
X38500D01*
G37*
G36*
X10373Y42745D02*Y34145D01*
X18973D01*
Y42745D01*
X10373D01*
G37*
G54D49*X14673Y24665D03*
Y10886D03*
G54D50*X153000Y17000D03*
G54D46*G36*
X129700Y10800D02*Y4200D01*
X136300D01*
Y10800D01*
X129700D01*
G37*
G54D47*X123000Y7500D03*
X113000D03*
G54D51*X102900Y31000D02*Y30400D01*
X95100Y31000D02*Y30400D01*
X99000Y22800D02*Y22200D01*
G54D52*X149000Y43181D02*Y40819D01*
X160810Y43181D02*Y40819D01*
X132500Y31393D02*Y30607D01*
X125414Y31393D02*Y30607D01*
X139862Y43181D02*Y40819D01*
X128052Y43181D02*Y40819D01*
X132586Y21393D02*Y20607D01*
X125500Y21393D02*Y20607D01*
X105043Y42893D02*Y42107D01*
X97957Y42893D02*Y42107D01*
X63000Y31393D02*Y30607D01*
X55914Y31393D02*Y30607D01*
G54D53*X47400Y42100D02*Y40900D01*
X34500Y42100D02*Y40900D01*
G54D52*X42043Y31393D02*Y30607D01*
G54D54*X78000Y23300D02*Y21700D01*
X81900Y23300D02*Y21700D01*
X85800Y23300D02*Y21700D01*
Y31500D02*Y29900D01*
X81900Y31500D02*Y29900D01*
X78000Y31500D02*Y29900D01*
G54D52*X34957Y31393D02*Y30607D01*
M02*
