G04 start of page 9 for group -4079 idx -4079 *
G04 Title: (unknown), topsilk *
G04 Creator: pcb 4.0.2 *
G04 CreationDate: Wed Oct 14 23:21:47 2020 UTC *
G04 For: ndholmes *
G04 Format: Gerber/RS-274X *
G04 PCB-Dimensions (mil): 1700.00 1200.00 *
G04 PCB-Coordinate-Origin: lower left *
%MOIN*%
%FSLAX25Y25*%
%LNTOPSILK*%
%ADD54C,0.0080*%
%ADD53C,0.0100*%
%ADD52C,0.0001*%
G54D52*G36*
X78000Y38500D02*X80000D01*
Y36500D01*
X78000D01*
Y38500D01*
G37*
G54D53*X169500Y119500D02*Y500D01*
X146500Y108500D02*Y106500D01*
X145500Y107500D02*X147500D01*
X163000Y108500D02*Y106500D01*
X162000Y107500D02*X164000D01*
X500Y119500D02*X169500D01*
Y500D02*X500D01*
Y119500D01*
G54D54*X14000Y38000D02*X14500D01*
X10500D02*X13000D01*
X14000Y39200D02*X14500D01*
X10500D02*X13000D01*
X14500Y44200D02*Y42700D01*
X14000Y42200D02*X14500Y42700D01*
X11000Y42200D02*X14000D01*
X11000D02*X10500Y42700D01*
Y44200D02*Y42700D01*
X11000Y45400D02*X14500D01*
X11000D02*X10500Y45900D01*
Y47400D02*Y45900D01*
Y47400D02*X11000Y47900D01*
X14500D01*
X12500D02*Y45400D01*
X10500Y49100D02*X14000D01*
X14500Y49600D01*
Y50600D02*Y49600D01*
Y50600D02*X14000Y51100D01*
X10500D02*X14000D01*
X10500Y54300D02*Y52300D01*
Y53300D02*X14500D01*
X10500Y56500D02*Y55500D01*
Y56000D02*X14500D01*
Y56500D02*Y55500D01*
X11000Y57700D02*X14000D01*
X11000D02*X10500Y58200D01*
Y59200D02*Y58200D01*
Y59200D02*X11000Y59700D01*
X14000D01*
X14500Y59200D02*X14000Y59700D01*
X14500Y59200D02*Y58200D01*
X14000Y57700D02*X14500Y58200D01*
X10500Y60900D02*X14500D01*
X10500D02*X11000D01*
X13500Y63400D01*
X10500D02*X14500D01*
X14000Y66400D02*X14500D01*
X10500D02*X13000D01*
X14000Y67600D02*X14500D01*
X10500D02*X13000D01*
X17000Y38000D02*X21000D01*
X17000D02*X18500Y39500D01*
X17000Y41000D01*
X21000D01*
X17500Y42200D02*X21000D01*
X17500D02*X17000Y42700D01*
Y44200D02*Y42700D01*
Y44200D02*X17500Y44700D01*
X21000D01*
X19000D02*Y42200D01*
X17000Y45900D02*X17500D01*
X18500Y46900D01*
X17500Y47900D01*
X17000D02*X17500D01*
X18500Y46900D02*X21000D01*
Y52900D02*Y50900D01*
Y52900D02*X20500Y53400D01*
X19500D02*X20500D01*
X19000Y52900D02*X19500Y53400D01*
X19000Y52900D02*Y51400D01*
X17000D02*X21000D01*
X17000Y52900D02*Y50900D01*
Y52900D02*X17500Y53400D01*
X18500D01*
X19000Y52900D02*X18500Y53400D01*
X19000Y56100D02*Y54600D01*
X21000Y56600D02*Y54600D01*
X17000D02*X21000D01*
X17000Y56600D02*Y54600D01*
Y59600D02*X21000D01*
X17000Y62100D02*X21000D01*
X19000D02*Y59600D01*
X17500Y63300D02*X20500D01*
X17500D02*X17000Y63800D01*
Y64800D02*Y63800D01*
Y64800D02*X17500Y65300D01*
X20500D01*
X21000Y64800D02*X20500Y65300D01*
X21000Y64800D02*Y63800D01*
X20500Y63300D02*X21000Y63800D01*
X17000Y68500D02*Y66500D01*
Y67500D02*X21000D01*
G54D53*X52107Y84745D02*X52893D01*
X52107Y90255D02*X52893D01*
X500Y119500D02*Y73831D01*
X28059D01*
Y119500D01*
X500D01*
X56000D02*X86000D01*
X56000D02*Y109500D01*
X86000Y119500D02*Y109500D01*
X76000Y119500D02*Y109500D01*
X74000D02*X86000D01*
X56000D02*X68000D01*
X40486Y117312D02*Y96312D01*
X30886Y117312D02*Y96312D01*
X40486D01*
X30886Y117312D02*X40486D01*
X30886Y104312D02*X40486D01*
X66607Y75245D02*X67393D01*
X66607Y80755D02*X67393D01*
X50000Y500D02*X95669D01*
Y28059D02*Y500D01*
X50000Y28059D02*X95669D01*
X50000D02*Y500D01*
X500D02*X46169D01*
Y28059D02*Y500D01*
X500Y28059D02*X46169D01*
X500D02*Y500D01*
X158107Y115755D02*X158893D01*
X158107Y110245D02*X158893D01*
X108890Y113299D02*Y100701D01*
X95110D02*X108890D01*
X95110Y113299D02*Y100701D01*
Y113299D02*X108890D01*
X142900Y99400D02*X156800D01*
X142900D02*Y86600D01*
X156800D01*
Y99400D02*Y86600D01*
X142107Y115755D02*X142893D01*
X142107Y110245D02*X142893D01*
X115000Y92500D02*X128900D01*
Y105300D02*Y92500D01*
X115000Y105300D02*X128900D01*
X115000D02*Y92500D01*
X127500Y83000D02*Y3000D01*
X167500D01*
Y83000D02*Y3000D01*
X127500Y83000D02*X142500D01*
X152500D02*X167500D01*
X142500D02*G75*G03X152500Y83000I5000J0D01*G01*
X81500Y39000D02*X100500D01*
Y70000D02*Y39000D01*
X81500Y70000D02*X100500D01*
X81500Y52000D02*Y39000D01*
Y70000D02*Y57000D01*
Y52000D02*G75*G03X81500Y57000I0J2500D01*G01*
X58000Y38500D02*X62000D01*
Y68500D02*Y38500D01*
X58000Y68500D02*X62000D01*
X123100Y45500D02*X106900D01*
X123100Y67500D02*X106900D01*
X123100Y45500D02*Y67500D01*
X106900Y45500D02*Y67500D01*
G54D54*X49807Y77650D02*X51307D01*
X49307Y78150D02*X49807Y77650D01*
X49307Y81150D02*Y78150D01*
Y81150D02*X49807Y81650D01*
X51307D01*
X53007Y77650D02*X54007D01*
X53507Y81650D02*Y77650D01*
X52507Y80650D02*X53507Y81650D01*
X22000Y79500D02*X23500D01*
Y76000D01*
X23000Y75500D02*X23500Y76000D01*
X22500Y75500D02*X23000D01*
X22000Y76000D02*X22500Y75500D01*
X25200D02*X26200D01*
X25700Y79500D02*Y75500D01*
X24700Y78500D02*X25700Y79500D01*
X57000Y107000D02*X58500D01*
Y103500D01*
X58000Y103000D02*X58500Y103500D01*
X57500Y103000D02*X58000D01*
X57000Y103500D02*X57500Y103000D01*
X59700Y106500D02*X60200Y107000D01*
X61700D01*
X62200Y106500D01*
Y105500D01*
X59700Y103000D02*X62200Y105500D01*
X59700Y103000D02*X62200D01*
X44196Y115292D02*Y111212D01*
X45726Y115292D02*X46236Y114782D01*
Y111722D01*
X45726Y111212D02*X46236Y111722D01*
X43686Y111212D02*X45726D01*
X43686Y115292D02*X45726D01*
X47460Y114782D02*X47970Y115292D01*
X48990D01*
X49500Y114782D01*
Y111722D01*
X48990Y111212D02*X49500Y111722D01*
X47970Y111212D02*X48990D01*
X47460Y111722D02*X47970Y111212D01*
Y113252D02*X49500D01*
X70000Y6500D02*X71500D01*
Y3000D01*
X71000Y2500D02*X71500Y3000D01*
X70500Y2500D02*X71000D01*
X70000Y3000D02*X70500Y2500D01*
X72700Y4500D02*X74700Y6500D01*
X72700Y4500D02*X75200D01*
X74700Y6500D02*Y2500D01*
X21000Y6500D02*X22500D01*
Y3000D01*
X22000Y2500D02*X22500Y3000D01*
X21500Y2500D02*X22000D01*
X21000Y3000D02*X21500Y2500D01*
X23700Y6500D02*X25700D01*
X23700D02*Y4500D01*
X24200Y5000D01*
X25200D01*
X25700Y4500D01*
Y3000D01*
X25200Y2500D02*X25700Y3000D01*
X24200Y2500D02*X25200D01*
X23700Y3000D02*X24200Y2500D01*
X159200Y98100D02*Y94600D01*
X159700Y94100D01*
X160700D01*
X161200Y94600D01*
Y98100D02*Y94600D01*
X162400Y96100D02*X164400Y98100D01*
X162400Y96100D02*X164900D01*
X164400Y98100D02*Y94100D01*
X161000Y89500D02*Y85500D01*
Y87500D02*X163000Y89500D01*
X161000Y87500D02*X163000Y85500D01*
X164700D02*X165700D01*
X165200Y89500D02*Y85500D01*
X164200Y88500D02*X165200Y89500D01*
X78500Y77000D02*Y73500D01*
X79000Y73000D01*
X80000D01*
X80500Y73500D01*
Y77000D02*Y73500D01*
X82200Y73000D02*X83200D01*
X82700Y77000D02*Y73000D01*
X81700Y76000D02*X82700Y77000D01*
X58200Y35700D02*Y32200D01*
X58700Y31700D01*
X59700D01*
X60200Y32200D01*
Y35700D02*Y32200D01*
X61400Y35200D02*X61900Y35700D01*
X63400D01*
X63900Y35200D01*
Y34200D01*
X61400Y31700D02*X63900Y34200D01*
X61400Y31700D02*X63900D01*
X69479Y83150D02*X70979D01*
X68979Y83650D02*X69479Y83150D01*
X68979Y86650D02*Y83650D01*
Y86650D02*X69479Y87150D01*
X70979D01*
X72179Y86650D02*X72679Y87150D01*
X74179D01*
X74679Y86650D01*
Y85650D01*
X72179Y83150D02*X74679Y85650D01*
X72179Y83150D02*X74679D01*
X112500Y42000D02*X114500D01*
X115000Y41500D01*
Y40500D01*
X114500Y40000D02*X115000Y40500D01*
X113000Y40000D02*X114500D01*
X113000Y42000D02*Y38000D01*
Y40000D02*X115000Y38000D01*
X116200Y41500D02*X116700Y42000D01*
X118200D01*
X118700Y41500D01*
Y40500D01*
X116200Y38000D02*X118700Y40500D01*
X116200Y38000D02*X118700D01*
X153250Y108150D02*Y104150D01*
X154750Y108150D02*X155250Y107650D01*
Y104650D01*
X154750Y104150D02*X155250Y104650D01*
X152750Y104150D02*X154750D01*
X152750Y108150D02*X154750D01*
X156450Y107650D02*X156950Y108150D01*
X158450D01*
X158950Y107650D01*
Y106650D01*
X156450Y104150D02*X158950Y106650D01*
X156450Y104150D02*X158950D01*
X111100Y112500D02*X113100D01*
X113600Y112000D01*
Y111000D01*
X113100Y110500D02*X113600Y111000D01*
X111600Y110500D02*X113100D01*
X111600Y112500D02*Y108500D01*
Y110500D02*X113600Y108500D01*
X115300D02*X116300D01*
X115800Y112500D02*Y108500D01*
X114800Y111500D02*X115800Y112500D01*
X81500Y98000D02*X83000D01*
Y94500D01*
X82500Y94000D02*X83000Y94500D01*
X82000Y94000D02*X82500D01*
X81500Y94500D02*X82000Y94000D01*
X84200Y97500D02*X84700Y98000D01*
X85700D01*
X86200Y97500D01*
Y94500D01*
X85700Y94000D02*X86200Y94500D01*
X84700Y94000D02*X85700D01*
X84200Y94500D02*X84700Y94000D01*
Y96000D02*X86200D01*
X137250Y108150D02*Y104150D01*
X138750Y108150D02*X139250Y107650D01*
Y104650D01*
X138750Y104150D02*X139250Y104650D01*
X136750Y104150D02*X138750D01*
X136750Y108150D02*X138750D01*
X140950Y104150D02*X141950D01*
X141450Y108150D02*Y104150D01*
X140450Y107150D02*X141450Y108150D01*
X122500Y112000D02*X125000D01*
Y111500D01*
X122500Y109000D02*X125000Y111500D01*
X122500Y109000D02*Y108000D01*
X125000D01*
X126700D02*X127700D01*
X127200Y112000D02*Y108000D01*
X126200Y111000D02*X127200Y112000D01*
M02*
