G04 start of page 7 for group -4063 idx -4063 *
G04 Title: (unknown), componentmask *
G04 Creator: pcb 4.0.2 *
G04 CreationDate: Wed Oct 14 23:21:47 2020 UTC *
G04 For: ndholmes *
G04 Format: Gerber/RS-274X *
G04 PCB-Dimensions (mil): 1700.00 1200.00 *
G04 PCB-Coordinate-Origin: lower left *
%MOIN*%
%FSLAX25Y25*%
%LNTOPMASK*%
%ADD46C,0.0370*%
%ADD45C,0.0750*%
%ADD44C,0.0660*%
%ADD43C,0.0490*%
%ADD42C,0.0860*%
%ADD41C,0.0001*%
G54D41*G36*
X54755Y18973D02*Y10373D01*
X63355D01*
Y18973D01*
X54755D01*
G37*
G54D42*X72835Y14673D03*
X86614D03*
G54D41*G36*
X77700Y117800D02*Y111200D01*
X84300D01*
Y117800D01*
X77700D01*
G37*
G54D43*X84000Y86500D03*
X104000Y90500D03*
Y82500D03*
G54D44*X71000Y113500D03*
X61000Y114500D03*
G54D45*X132500Y8000D03*
X162500D03*
Y28000D03*
Y48000D03*
Y78000D03*
G54D41*G36*
X128750Y81750D02*Y74250D01*
X136250D01*
Y81750D01*
X128750D01*
G37*
G54D45*X132500Y48000D03*
Y28000D03*
G54D41*G36*
X10373Y114745D02*Y106145D01*
X18973D01*
Y114745D01*
X10373D01*
G37*
G54D42*X14673Y96665D03*
Y82886D03*
G54D41*G36*
X5255Y18973D02*Y10373D01*
X13855D01*
Y18973D01*
X5255D01*
G37*
G54D42*X23335Y14673D03*
X37114D03*
G54D41*G36*
X157816Y116252D02*X152098D01*
Y109748D01*
X157816D01*
Y116252D01*
G37*
G36*
X164902D02*X159184D01*
Y109748D01*
X164902D01*
Y116252D01*
G37*
G36*
X107860Y112420D02*X105588D01*
Y108277D01*
X107860D01*
Y112420D01*
G37*
G36*
X141816Y116252D02*X136098D01*
Y109748D01*
X141816D01*
Y116252D01*
G37*
G36*
X148902D02*X143184D01*
Y109748D01*
X148902D01*
Y116252D01*
G37*
G36*
X104712Y112420D02*X102438D01*
Y108277D01*
X104712D01*
Y112420D01*
G37*
G36*
X101562D02*X99288D01*
Y108277D01*
X101562D01*
Y112420D01*
G37*
G54D46*X99000Y89000D03*
G54D41*G36*
X98412Y112420D02*X96140D01*
Y108277D01*
X98412D01*
Y112420D01*
G37*
G36*
Y105723D02*X96140D01*
Y101580D01*
X98412D01*
Y105723D01*
G37*
G36*
X101562D02*X99288D01*
Y101580D01*
X101562D01*
Y105723D01*
G37*
G36*
X104712D02*X102438D01*
Y101580D01*
X104712D01*
Y105723D01*
G37*
G36*
X107860D02*X105588D01*
Y101580D01*
X107860D01*
Y105723D01*
G37*
G36*
X123700Y104800D02*Y100800D01*
X128300D01*
Y104800D01*
X123700D01*
G37*
G36*
X115500Y100900D02*Y96900D01*
X120100D01*
Y100900D01*
X115500D01*
G37*
G36*
X143500Y98900D02*Y94900D01*
X148100D01*
Y98900D01*
X143500D01*
G37*
G36*
Y91100D02*Y87100D01*
X148100D01*
Y91100D01*
X143500D01*
G37*
G36*
X151700Y95000D02*Y91000D01*
X156300D01*
Y95000D01*
X151700D01*
G37*
G36*
X123700Y97000D02*Y93000D01*
X128300D01*
Y97000D01*
X123700D01*
G37*
G36*
X58902Y90752D02*X53184D01*
Y84248D01*
X58902D01*
Y90752D01*
G37*
G36*
X51816D02*X46098D01*
Y84248D01*
X51816D01*
Y90752D01*
G37*
G36*
X31636Y116362D02*Y110262D01*
X39736D01*
Y116362D01*
X31636D01*
G37*
G36*
Y103362D02*Y97262D01*
X39736D01*
Y103362D01*
X31636D01*
G37*
G36*
X30000Y65400D02*Y41600D01*
X55400D01*
Y65400D01*
X30000D01*
G37*
G36*
X85000Y49000D02*X82000D01*
Y39500D01*
X85000D01*
Y49000D01*
G37*
G36*
X64700Y48050D02*Y40950D01*
X77300D01*
Y48050D01*
X64700D01*
G37*
G36*
X108449Y52100D02*Y46800D01*
X113750D01*
Y52100D01*
X108449D01*
G37*
G36*
X116250D02*Y46800D01*
X121551D01*
Y52100D01*
X116250D01*
G37*
G36*
X90000Y49000D02*X87000D01*
Y39500D01*
X90000D01*
Y49000D01*
G37*
G54D46*X89000Y84000D03*
Y89000D03*
G54D41*G36*
X95000Y49000D02*X92000D01*
Y39500D01*
X95000D01*
Y49000D01*
G37*
G54D46*X94000Y84000D03*
Y89000D03*
G54D41*G36*
X100000Y49000D02*X97000D01*
Y39500D01*
X100000D01*
Y49000D01*
G37*
G54D46*X99000Y84000D03*
G54D41*G36*
X100000Y69500D02*X97000D01*
Y60000D01*
X100000D01*
Y69500D01*
G37*
G36*
X95000D02*X92000D01*
Y60000D01*
X95000D01*
Y69500D01*
G37*
G36*
X90000D02*X87000D01*
Y60000D01*
X90000D01*
Y69500D01*
G37*
G36*
X85000D02*X82000D01*
Y60000D01*
X85000D01*
Y69500D01*
G37*
G36*
X111550Y65700D02*Y58800D01*
X118451D01*
Y65700D01*
X111550D01*
G37*
G36*
X64700Y66050D02*Y58950D01*
X77300D01*
Y66050D01*
X64700D01*
G37*
G36*
X73402Y81252D02*X67684D01*
Y74748D01*
X73402D01*
Y81252D01*
G37*
G36*
X66316D02*X60598D01*
Y74748D01*
X66316D01*
Y81252D01*
G37*
M02*
