M48
INCH
T39C0.013
T38C0.038
T37C0.047
%
T39
X002400Y006100
X002400Y005600
X002400Y005100
X002400Y004600
X002770Y006350
X002770Y005850
X002770Y005350
X002770Y004850
X002770Y004350
X003170Y006750
X003170Y003950
X003400Y007100
X003450Y003600
X003670Y006750
X003670Y003950
X003900Y007100
X003950Y003600
X004170Y006750
X004170Y003950
X004400Y007100
X004450Y003600
X004670Y006750
X004670Y003950
X004900Y007100
X004950Y003600
X005170Y003950
X006350Y009000
X006350Y008500
X006350Y007200
X006500Y010150
X007700Y010150
X008750Y007250
X008900Y009400
X008900Y007950
X009900Y009350
X009900Y007250
X010350Y004700
X010350Y004150
X011100Y010200
X012150Y009500
X012600Y009050
X013000Y011600
X013550Y005650
X013950Y005650
X014350Y005650
X014550Y008350
X014550Y007950
X014550Y007550
X014750Y005650
T38
X006100Y011450
X007100Y011350
X008100Y011450
X013250Y007800
X013250Y004800
X013250Y002800
X013250Y000800
X016250Y007800
X016250Y004800
X016250Y002800
X016250Y000800
T37
X000956Y001467
X001467Y011044
X001467Y009666
X001467Y008289
X002334Y001467
X003711Y001467
X005906Y001467
X007284Y001467
X008661Y001467
M30
