G04 start of page 10 for group -4078 idx -4078 *
G04 Title: (unknown), bottomsilk *
G04 Creator: pcb 4.0.2 *
G04 CreationDate: Wed Oct 14 23:21:47 2020 UTC *
G04 For: ndholmes *
G04 Format: Gerber/RS-274X *
G04 PCB-Dimensions (mil): 1700.00 1200.00 *
G04 PCB-Coordinate-Origin: lower left *
%MOIN*%
%FSLAX25Y25*%
%LNBOTTOMSILK*%
%ADD55C,0.0080*%
G54D55*X10000Y22500D02*Y25500D01*
Y22500D02*X10500Y22000D01*
X11500D01*
X12000Y22500D01*
Y25500D01*
X11500Y26000D02*X12000Y25500D01*
X10500Y26000D02*X11500D01*
X10000Y25500D02*X10500Y26000D01*
X13200Y22000D02*Y25500D01*
X13700Y26000D01*
X14700D01*
X15200Y25500D01*
Y22000D02*Y25500D01*
X16400Y22000D02*X18400D01*
X17400D02*Y26000D01*
X20100Y22000D02*Y26000D01*
X19600Y22000D02*X21600D01*
X22100Y22500D01*
Y23500D01*
X21600Y24000D02*X22100Y23500D01*
X20100Y24000D02*X21600D01*
X23300Y22000D02*Y25500D01*
X23800Y26000D01*
X24800D01*
X25300Y25500D01*
Y22000D02*Y25500D01*
X26500Y22000D02*X28500D01*
X27500D02*Y26000D01*
X31500Y24500D02*X33500D01*
X31500Y23500D02*X33500D01*
X33000Y23000D02*Y25000D01*
X32000Y23000D02*Y25000D01*
X34700Y22500D02*X35200Y22000D01*
X36700D01*
X37200Y22500D01*
Y23500D01*
X34700Y26000D02*X37200Y23500D01*
X34700Y26000D02*X37200D01*
X5000Y4000D02*Y8000D01*
Y4000D02*Y4500D01*
X7500Y7000D01*
Y4000D02*Y8000D01*
X8700Y4500D02*Y7500D01*
Y4500D02*X9200Y4000D01*
X10200D01*
X10700Y4500D01*
Y7500D01*
X10200Y8000D02*X10700Y7500D01*
X9200Y8000D02*X10200D01*
X8700Y7500D02*X9200Y8000D01*
X11900Y4000D02*X13900D01*
X14400Y4500D01*
Y5500D01*
X13900Y6000D02*X14400Y5500D01*
X12400Y6000D02*X13900D01*
X12400Y4000D02*Y8000D01*
Y6000D02*X14400Y8000D01*
X19500D02*X21000D01*
X19000Y7500D02*X19500Y8000D01*
X19000Y4500D02*Y7500D01*
Y4500D02*X19500Y4000D01*
X21000D01*
X22200Y4500D02*Y7500D01*
Y4500D02*X22700Y4000D01*
X23700D01*
X24200Y4500D01*
Y7500D01*
X23700Y8000D02*X24200Y7500D01*
X22700Y8000D02*X23700D01*
X22200Y7500D02*X22700Y8000D01*
X25400Y4000D02*Y8000D01*
Y4000D02*X26900Y5500D01*
X28400Y4000D01*
Y8000D01*
X32500Y4000D02*X34500D01*
X35000Y4500D01*
Y5500D01*
X34500Y6000D02*X35000Y5500D01*
X33000Y6000D02*X34500D01*
X33000Y4000D02*Y8000D01*
Y6000D02*X35000Y8000D01*
X36200Y6000D02*X37700D01*
X36200Y8000D02*X38200D01*
X36200Y4000D02*Y8000D01*
Y4000D02*X38200D01*
X39400D02*Y7000D01*
X40400Y8000D01*
X41400Y7000D01*
Y4000D02*Y7000D01*
X3500Y115000D02*X6500D01*
X7500Y114000D01*
X6500Y113000D01*
X3500D02*X6500D01*
X3500Y111300D02*X7500D01*
X3500Y109800D02*X4000Y109300D01*
X7000D01*
X7500Y109800D02*X7000Y109300D01*
X7500Y109800D02*Y111800D01*
X3500Y109800D02*Y111800D01*
Y107600D02*X7500D01*
X3500Y106100D02*X4000Y105600D01*
X7000D01*
X7500Y106100D02*X7000Y105600D01*
X7500Y106100D02*Y108100D01*
X3500Y106100D02*Y108100D01*
Y99500D02*X4000Y99000D01*
X3500Y99500D02*Y101000D01*
X4000Y101500D02*X3500Y101000D01*
X4000Y101500D02*X7000D01*
X7500Y101000D01*
Y99500D02*Y101000D01*
Y99500D02*X7000Y99000D01*
X6000D02*X7000D01*
X5500Y99500D02*X6000Y99000D01*
X5500Y99500D02*Y100500D01*
X3500Y97800D02*X7500D01*
X3500D02*X4000D01*
X6500Y95300D01*
X3500D02*X7500D01*
X3500Y93600D02*X7500D01*
X3500Y92100D02*X4000Y91600D01*
X7000D01*
X7500Y92100D02*X7000Y91600D01*
X7500Y92100D02*Y94100D01*
X3500Y92100D02*Y94100D01*
X7500Y86000D02*Y87500D01*
X7000Y88000D02*X7500Y87500D01*
X4000Y88000D02*X7000D01*
X4000D02*X3500Y87500D01*
Y86000D02*Y87500D01*
Y84800D02*X7500D01*
X3500D02*X4000D01*
X6500Y82300D01*
X3500D02*X7500D01*
X3500Y79100D02*Y81100D01*
Y80100D02*X7500D01*
X3500Y77900D02*X7500D01*
Y75900D02*Y77900D01*
X59500Y22500D02*Y25500D01*
Y22500D02*X60000Y22000D01*
X61000D01*
X61500Y22500D01*
Y25500D01*
X61000Y26000D02*X61500Y25500D01*
X60000Y26000D02*X61000D01*
X59500Y25500D02*X60000Y26000D01*
X62700Y22000D02*Y25500D01*
X63200Y26000D01*
X64200D01*
X64700Y25500D01*
Y22000D02*Y25500D01*
X65900Y22000D02*X67900D01*
X66900D02*Y26000D01*
X69600Y22000D02*Y26000D01*
X69100Y22000D02*X71100D01*
X71600Y22500D01*
Y23500D01*
X71100Y24000D02*X71600Y23500D01*
X69600Y24000D02*X71100D01*
X72800Y22000D02*Y25500D01*
X73300Y26000D01*
X74300D01*
X74800Y25500D01*
Y22000D02*Y25500D01*
X76000Y22000D02*X78000D01*
X77000D02*Y26000D01*
X81000Y24500D02*X83000D01*
X81000Y23500D02*X83000D01*
X82500Y23000D02*Y25000D01*
X81500Y23000D02*Y25000D01*
X84700Y26000D02*X85700D01*
X85200Y22000D02*Y26000D01*
X84200Y23000D02*X85200Y22000D01*
X54500Y4000D02*Y8000D01*
Y4000D02*Y4500D01*
X57000Y7000D01*
Y4000D02*Y8000D01*
X58200Y4500D02*Y7500D01*
Y4500D02*X58700Y4000D01*
X59700D01*
X60200Y4500D01*
Y7500D01*
X59700Y8000D02*X60200Y7500D01*
X58700Y8000D02*X59700D01*
X58200Y7500D02*X58700Y8000D01*
X61400Y4000D02*X63400D01*
X63900Y4500D01*
Y5500D01*
X63400Y6000D02*X63900Y5500D01*
X61900Y6000D02*X63400D01*
X61900Y4000D02*Y8000D01*
Y6000D02*X63900Y8000D01*
X69000D02*X70500D01*
X68500Y7500D02*X69000Y8000D01*
X68500Y4500D02*Y7500D01*
Y4500D02*X69000Y4000D01*
X70500D01*
X71700Y4500D02*Y7500D01*
Y4500D02*X72200Y4000D01*
X73200D01*
X73700Y4500D01*
Y7500D01*
X73200Y8000D02*X73700Y7500D01*
X72200Y8000D02*X73200D01*
X71700Y7500D02*X72200Y8000D01*
X74900Y4000D02*Y8000D01*
Y4000D02*X76400Y5500D01*
X77900Y4000D01*
Y8000D01*
X82000Y4000D02*X84000D01*
X84500Y4500D01*
Y5500D01*
X84000Y6000D02*X84500Y5500D01*
X82500Y6000D02*X84000D01*
X82500Y4000D02*Y8000D01*
Y6000D02*X84500Y8000D01*
X85700Y6000D02*X87200D01*
X85700Y8000D02*X87700D01*
X85700Y4000D02*Y8000D01*
Y4000D02*X87700D01*
X88900D02*Y7000D01*
X89900Y8000D01*
X90900Y7000D01*
Y4000D02*Y7000D01*
X34500Y45000D02*X35500D01*
X35000D02*Y49000D01*
X34500D02*X35500D01*
X36700Y47500D02*Y48500D01*
Y47500D02*X37200Y47000D01*
X38200D01*
X38700Y47500D01*
Y48500D01*
X38200Y49000D02*X38700Y48500D01*
X37200Y49000D02*X38200D01*
X36700Y48500D02*X37200Y49000D01*
X39900Y47000D02*Y48500D01*
X40400Y49000D01*
X40900D01*
X41400Y48500D01*
Y47000D02*Y48500D01*
X41900Y49000D01*
X42400D01*
X42900Y48500D01*
Y47000D02*Y48500D01*
X45600Y47000D02*X46100Y47500D01*
X44600Y47000D02*X45600D01*
X44100Y47500D02*X44600Y47000D01*
X44100Y47500D02*Y48500D01*
X44600Y49000D01*
X46100Y47000D02*Y48500D01*
X46600Y49000D01*
X44600D02*X45600D01*
X46100Y48500D01*
X51600Y45000D02*X52100Y45500D01*
X50100Y45000D02*X51600D01*
X49600Y45500D02*X50100Y45000D01*
X49600Y45500D02*Y46500D01*
X50100Y47000D01*
X51600D01*
X52100Y47500D01*
Y48500D01*
X51600Y49000D02*X52100Y48500D01*
X50100Y49000D02*X51600D01*
X49600Y48500D02*X50100Y49000D01*
X53800Y47000D02*X55300D01*
X53300Y47500D02*X53800Y47000D01*
X53300Y47500D02*Y48500D01*
X53800Y49000D01*
X55300D01*
X58000Y47000D02*X58500Y47500D01*
X57000Y47000D02*X58000D01*
X56500Y47500D02*X57000Y47000D01*
X56500Y47500D02*Y48500D01*
X57000Y49000D01*
X58500Y47000D02*Y48500D01*
X59000Y49000D01*
X57000D02*X58000D01*
X58500Y48500D01*
X60200Y45000D02*Y48500D01*
X60700Y49000D01*
X62200D02*X63700D01*
X61700Y48500D02*X62200Y49000D01*
X61700Y47500D02*Y48500D01*
Y47500D02*X62200Y47000D01*
X63200D01*
X63700Y47500D01*
X61700Y48000D02*X63700D01*
Y47500D02*Y48000D01*
X66900Y45000D02*Y49000D01*
X66400D02*X66900Y48500D01*
X65400Y49000D02*X66400D01*
X64900Y48500D02*X65400Y49000D01*
X64900Y47500D02*Y48500D01*
Y47500D02*X65400Y47000D01*
X66400D01*
X66900Y47500D01*
X69900Y47000D02*X71400D01*
X69900Y49000D02*X71900D01*
X69900Y45000D02*Y49000D01*
Y45000D02*X71900D01*
X73600Y47500D02*Y49000D01*
Y47500D02*X74100Y47000D01*
X74600D01*
X75100Y47500D01*
Y49000D01*
X73100Y47000D02*X73600Y47500D01*
X77800Y47000D02*X78300Y47500D01*
X76800Y47000D02*X77800D01*
X76300Y47500D02*X76800Y47000D01*
X76300Y47500D02*Y48500D01*
X76800Y49000D01*
X77800D01*
X78300Y48500D01*
X76300Y50000D02*X76800Y50500D01*
X77800D01*
X78300Y50000D01*
Y47000D02*Y50000D01*
X79500Y46000D02*Y46500D01*
Y47500D02*Y49000D01*
X81000Y47500D02*Y49000D01*
Y47500D02*X81500Y47000D01*
X82000D01*
X82500Y47500D01*
Y49000D01*
X80500Y47000D02*X81000Y47500D01*
X84200Y49000D02*X85700D01*
X83700Y48500D02*X84200Y49000D01*
X83700Y47500D02*Y48500D01*
Y47500D02*X84200Y47000D01*
X85200D01*
X85700Y47500D01*
X83700Y48000D02*X85700D01*
Y47500D02*Y48000D01*
X87400Y49000D02*X88900D01*
X86900Y48500D02*X87400Y49000D01*
X86900Y47500D02*Y48500D01*
Y47500D02*X87400Y47000D01*
X88400D01*
X88900Y47500D01*
X86900Y48000D02*X88900D01*
Y47500D02*Y48000D01*
X90600Y47500D02*Y49000D01*
Y47500D02*X91100Y47000D01*
X92100D01*
X90100D02*X90600Y47500D01*
X93300Y46000D02*Y46500D01*
Y47500D02*Y49000D01*
X94800Y47500D02*Y49000D01*
Y47500D02*X95300Y47000D01*
X95800D01*
X96300Y47500D01*
Y49000D01*
X94300Y47000D02*X94800Y47500D01*
X99000Y47000D02*X99500Y47500D01*
X98000Y47000D02*X99000D01*
X97500Y47500D02*X98000Y47000D01*
X97500Y47500D02*Y48500D01*
X98000Y49000D01*
X99000D01*
X99500Y48500D01*
X97500Y50000D02*X98000Y50500D01*
X99000D01*
X99500Y50000D01*
Y47000D02*Y50000D01*
X34700Y51500D02*Y55500D01*
Y54000D02*X35200Y53500D01*
X36200D01*
X36700Y54000D01*
Y55500D01*
X38400Y51500D02*Y55000D01*
X38900Y55500D01*
X37900Y53000D02*X38900D01*
X40400Y51500D02*Y55000D01*
X40900Y55500D01*
X39900Y53000D02*X40900D01*
X42400Y54000D02*Y57000D01*
X41900Y53500D02*X42400Y54000D01*
X42900Y53500D01*
X43900D01*
X44400Y54000D01*
Y55000D01*
X43900Y55500D02*X44400Y55000D01*
X42900Y55500D02*X43900D01*
X42400Y55000D02*X42900Y55500D01*
X46100D02*X47600D01*
X48100Y55000D01*
X47600Y54500D02*X48100Y55000D01*
X46100Y54500D02*X47600D01*
X45600Y54000D02*X46100Y54500D01*
X45600Y54000D02*X46100Y53500D01*
X47600D01*
X48100Y54000D01*
X45600Y55000D02*X46100Y55500D01*
X49300Y53000D02*X49800D01*
X49300Y54000D02*X49800D01*
X51000Y55000D02*X54000Y52000D01*
X55200Y55000D02*X58200Y52000D01*
X59400Y53500D02*Y55000D01*
X59900Y55500D01*
X60400D01*
X60900Y55000D01*
Y53500D02*Y55000D01*
X61400Y55500D01*
X61900D01*
X62400Y55000D01*
Y53500D02*Y55000D01*
X63600Y53500D02*Y55000D01*
X64100Y55500D01*
X64600D01*
X65100Y55000D01*
Y53500D02*Y55000D01*
X65600Y55500D01*
X66100D01*
X66600Y55000D01*
Y53500D02*Y55000D01*
X67800Y53500D02*Y55000D01*
X68300Y55500D01*
X68800D01*
X69300Y55000D01*
Y53500D02*Y55000D01*
X69800Y55500D01*
X70300D01*
X70800Y55000D01*
Y53500D02*Y55000D01*
X72000Y55500D02*X72500D01*
X73700Y52500D02*Y53000D01*
Y54000D02*Y55500D01*
X76200Y53500D02*X76700Y54000D01*
X75200Y53500D02*X76200D01*
X74700Y54000D02*X75200Y53500D01*
X74700Y54000D02*Y55000D01*
X75200Y55500D01*
X76700Y53500D02*Y55000D01*
X77200Y55500D01*
X75200D02*X76200D01*
X76700Y55000D01*
X78900Y55500D02*X80400D01*
X80900Y55000D01*
X80400Y54500D02*X80900Y55000D01*
X78900Y54500D02*X80400D01*
X78400Y54000D02*X78900Y54500D01*
X78400Y54000D02*X78900Y53500D01*
X80400D01*
X80900Y54000D01*
X78400Y55000D02*X78900Y55500D01*
X82600Y53500D02*X84100D01*
X82100Y54000D02*X82600Y53500D01*
X82100Y54000D02*Y55000D01*
X82600Y55500D01*
X84100D01*
X86800Y53500D02*X87300Y54000D01*
X85800Y53500D02*X86800D01*
X85300Y54000D02*X85800Y53500D01*
X85300Y54000D02*Y55000D01*
X85800Y55500D01*
X87300Y53500D02*Y55000D01*
X87800Y55500D01*
X85800D02*X86800D01*
X87300Y55000D01*
X89000Y51500D02*Y55000D01*
X89500Y55500D01*
X91000D02*X92500D01*
X90500Y55000D02*X91000Y55500D01*
X90500Y54000D02*Y55000D01*
Y54000D02*X91000Y53500D01*
X92000D01*
X92500Y54000D01*
X90500Y54500D02*X92500D01*
Y54000D02*Y54500D01*
X95700Y51500D02*Y55500D01*
X95200D02*X95700Y55000D01*
X94200Y55500D02*X95200D01*
X93700Y55000D02*X94200Y55500D01*
X93700Y54000D02*Y55000D01*
Y54000D02*X94200Y53500D01*
X95200D01*
X95700Y54000D01*
X96900Y55500D02*X97400D01*
X99100Y53500D02*X100600D01*
X98600Y54000D02*X99100Y53500D01*
X98600Y54000D02*Y55000D01*
X99100Y55500D01*
X100600D01*
X101800Y54000D02*Y55000D01*
Y54000D02*X102300Y53500D01*
X103300D01*
X103800Y54000D01*
Y55000D01*
X103300Y55500D02*X103800Y55000D01*
X102300Y55500D02*X103300D01*
X101800Y55000D02*X102300Y55500D01*
X105500Y54000D02*Y55500D01*
Y54000D02*X106000Y53500D01*
X106500D01*
X107000Y54000D01*
Y55500D01*
Y54000D02*X107500Y53500D01*
X108000D01*
X108500Y54000D01*
Y55500D01*
X105000Y53500D02*X105500Y54000D01*
X35200Y62500D02*X36700D01*
X34700Y62000D02*X35200Y62500D01*
X34700Y59000D02*Y62000D01*
Y59000D02*X35200Y58500D01*
X36700D01*
X38400Y62500D02*X39900D01*
X37900Y62000D02*X38400Y62500D01*
X37900Y59000D02*Y62000D01*
Y59000D02*X38400Y58500D01*
X39900D01*
X42900Y62500D02*X44900D01*
X45400Y62000D01*
Y61000D02*Y62000D01*
X44900Y60500D02*X45400Y61000D01*
X43400Y60500D02*X44900D01*
X43400Y58500D02*Y62500D01*
X42900Y58500D02*X44900D01*
X45400Y59000D01*
Y60000D01*
X44900Y60500D02*X45400Y60000D01*
X46600Y58500D02*Y59000D01*
X47600Y60000D01*
X48600Y59000D01*
Y58500D02*Y59000D01*
X47600Y60000D02*Y62500D01*
X49800Y60500D02*X51800D01*
X55000Y58500D02*X55500Y59000D01*
X53500Y58500D02*X55000D01*
X53000Y59000D02*X53500Y58500D01*
X53000Y59000D02*Y60000D01*
X53500Y60500D01*
X55000D01*
X55500Y61000D01*
Y62000D01*
X55000Y62500D02*X55500Y62000D01*
X53500Y62500D02*X55000D01*
X53000Y62000D02*X53500Y62500D01*
X56700Y59000D02*Y62500D01*
Y59000D02*X57200Y58500D01*
X58700D01*
X59200Y59000D01*
Y62500D01*
X56700Y60500D02*X59200D01*
X64000Y62000D02*X64500Y62500D01*
X64000Y59000D02*X64500Y58500D01*
X64000Y59000D02*Y62000D01*
X66200Y62500D02*X67700D01*
X65700Y62000D02*X66200Y62500D01*
X65700Y59000D02*Y62000D01*
Y59000D02*X66200Y58500D01*
X67700D01*
X68900D02*X69400Y59000D01*
Y62000D01*
X68900Y62500D02*X69400Y62000D01*
X70600Y59000D02*X71100Y58500D01*
X72600D01*
X73100Y59000D01*
Y60000D01*
X70600Y62500D02*X73100Y60000D01*
X70600Y62500D02*X73100D01*
X74300Y62000D02*X74800Y62500D01*
X74300Y59000D02*Y62000D01*
Y59000D02*X74800Y58500D01*
X75800D01*
X76300Y59000D01*
Y62000D01*
X75800Y62500D02*X76300Y62000D01*
X74800Y62500D02*X75800D01*
X74300Y61500D02*X76300Y59500D01*
X77500Y59000D02*X78000Y58500D01*
X79500D01*
X80000Y59000D01*
Y60000D01*
X77500Y62500D02*X80000Y60000D01*
X77500Y62500D02*X80000D01*
X81200Y62000D02*X81700Y62500D01*
X81200Y59000D02*Y62000D01*
Y59000D02*X81700Y58500D01*
X82700D01*
X83200Y59000D01*
Y62000D01*
X82700Y62500D02*X83200Y62000D01*
X81700Y62500D02*X82700D01*
X81200Y61500D02*X83200Y59500D01*
X34500Y76000D02*Y80000D01*
Y76000D02*X36000Y77500D01*
X37500Y76000D01*
Y80000D01*
X38700Y76000D02*X40700D01*
X41200Y76500D01*
Y77500D01*
X40700Y78000D02*X41200Y77500D01*
X39200Y78000D02*X40700D01*
X39200Y76000D02*Y80000D01*
Y78000D02*X41200Y80000D01*
X44400Y76000D02*X44900Y76500D01*
X42900Y76000D02*X44400D01*
X42400Y76500D02*X42900Y76000D01*
X42400Y76500D02*Y77500D01*
X42900Y78000D01*
X44400D01*
X44900Y78500D01*
Y79500D01*
X44400Y80000D02*X44900Y79500D01*
X42900Y80000D02*X44400D01*
X42400Y79500D02*X42900Y80000D01*
X46600D02*X48100D01*
X46100Y79500D02*X46600Y80000D01*
X46100Y78500D02*Y79500D01*
Y78500D02*X46600Y78000D01*
X47600D01*
X48100Y78500D01*
X46100Y79000D02*X48100D01*
Y78500D02*Y79000D01*
X49800Y78500D02*Y80000D01*
Y78500D02*X50300Y78000D01*
X51300D01*
X49300D02*X49800Y78500D01*
X52500Y78000D02*Y79000D01*
X53500Y80000D01*
X54500Y79000D01*
Y78000D02*Y79000D01*
X55700Y78500D02*Y79500D01*
Y78500D02*X56200Y78000D01*
X57200D01*
X57700Y78500D01*
Y79500D01*
X57200Y80000D02*X57700Y79500D01*
X56200Y80000D02*X57200D01*
X55700Y79500D02*X56200Y80000D01*
X58900Y78000D02*X60900D01*
X62100Y76500D02*X62600Y76000D01*
X64100D01*
X64600Y76500D01*
Y77500D01*
X62100Y80000D02*X64600Y77500D01*
X62100Y80000D02*X64600D01*
X67600Y78000D02*Y79000D01*
X68600Y80000D01*
X69600Y79000D01*
Y78000D02*Y79000D01*
X70800Y78000D02*X72800Y76000D01*
X70800Y78000D02*X73300D01*
X72800Y76000D02*Y80000D01*
X74500D02*X75000D01*
X76200Y79500D02*X76700Y80000D01*
X76200Y76500D02*Y79500D01*
Y76500D02*X76700Y76000D01*
X77700D01*
X78200Y76500D01*
Y79500D01*
X77700Y80000D02*X78200Y79500D01*
X76700Y80000D02*X77700D01*
X76200Y79000D02*X78200Y77000D01*
M02*
