G04 start of page 10 for group -4015 idx -4015 *
G04 Title: (unknown), toppaste *
G04 Creator: pcb 20140316 *
G04 CreationDate: Fri 17 Nov 2017 10:24:59 PM GMT UTC *
G04 For: ndholmes *
G04 Format: Gerber/RS-274X *
G04 PCB-Dimensions (mil): 1700.00 1200.00 *
G04 PCB-Coordinate-Origin: lower left *
%MOIN*%
%FSLAX25Y25*%
%LNTOPPASTE*%
%ADD80R,0.0167X0.0167*%
%ADD79R,0.0550X0.0550*%
%ADD78R,0.0240X0.0240*%
%ADD77R,0.0340X0.0340*%
%ADD76R,0.0512X0.0512*%
G54D76*X63000Y103393D02*Y102607D01*
X55914Y103393D02*Y102607D01*
G54D77*X102900Y103000D02*Y102400D01*
X95100Y103000D02*Y102400D01*
X99000Y94800D02*Y94200D01*
G54D76*X42043Y103393D02*Y102607D01*
X34957Y103393D02*Y102607D01*
G54D78*X124700Y11500D02*X126300D01*
X124700Y15400D02*X126300D01*
X124700Y19300D02*X126300D01*
X116500D02*X118100D01*
X116500Y15400D02*X118100D01*
X116500Y11500D02*X118100D01*
G54D76*X154957Y113393D02*Y112607D01*
X162043Y113393D02*Y112607D01*
X146043Y113393D02*Y112607D01*
X138957Y113393D02*Y112607D01*
G54D79*X34000Y114500D02*Y112500D01*
X47000Y114500D02*Y112500D01*
G54D80*X128724Y108283D02*Y106413D01*
X125575Y108283D02*Y106413D01*
X122425Y108283D02*Y106413D01*
X119276Y108283D02*Y106413D01*
Y101587D02*Y99717D01*
X122425Y101587D02*Y99717D01*
X125575Y101587D02*Y99717D01*
X128724Y101587D02*Y99717D01*
G54D78*X78000Y95300D02*Y93700D01*
X81900Y95300D02*Y93700D01*
X85800Y95300D02*Y93700D01*
Y103500D02*Y101900D01*
X81900Y103500D02*Y101900D01*
X78000Y103500D02*Y101900D01*
M02*
