G04 start of page 7 for group -4062 idx -4062 *
G04 Title: (unknown), soldermask *
G04 Creator: pcb 20140316 *
G04 CreationDate: Fri 17 Nov 2017 10:24:59 PM GMT UTC *
G04 For: ndholmes *
G04 Format: Gerber/RS-274X *
G04 PCB-Dimensions (mil): 1700.00 1200.00 *
G04 PCB-Coordinate-Origin: lower left *
%MOIN*%
%FSLAX25Y25*%
%LNBOTTOMMASK*%
%ADD71C,0.0907*%
%ADD70R,0.0300X0.0300*%
%ADD69C,0.0600*%
%ADD68C,0.0900*%
%ADD67C,0.0660*%
%ADD66C,0.2997*%
%ADD65C,0.0750*%
%ADD64C,0.0860*%
%ADD63C,0.0001*%
G54D63*G36*
X54755Y18973D02*Y10373D01*
X63355D01*
Y18973D01*
X54755D01*
G37*
G54D64*X72835Y14673D03*
X86614D03*
G54D65*X91500Y37000D03*
X78000D03*
X111500D03*
G54D63*G36*
X5255Y18973D02*Y10373D01*
X13855D01*
Y18973D01*
X5255D01*
G37*
G54D64*X23335Y14673D03*
X37114D03*
G54D65*X8000Y37000D03*
X28000D03*
X48000D03*
G54D66*X153000Y16000D03*
Y89000D03*
G54D63*G36*
X157750Y70750D02*Y63250D01*
X165250D01*
Y70750D01*
X157750D01*
G37*
G54D65*X161500Y37000D03*
G54D63*G36*
X129700Y82800D02*Y76200D01*
X136300D01*
Y82800D01*
X129700D01*
G37*
G54D65*X131500Y67000D03*
G54D67*X123000Y79500D03*
G54D65*X131500Y37000D03*
G54D63*G36*
X38500Y88500D02*Y79500D01*
X47500D01*
Y88500D01*
X38500D01*
G37*
G36*
X10373Y114745D02*Y106145D01*
X18973D01*
Y114745D01*
X10373D01*
G37*
G54D64*X14673Y96665D03*
Y82886D03*
G54D67*X113000Y79500D03*
X103000D03*
X93000D03*
G54D65*X111500Y67000D03*
X91500D03*
G54D68*X63000Y84000D03*
X53000D03*
G54D67*X83000Y79500D03*
G54D65*X48000Y67000D03*
X28000D03*
X8000D03*
G54D63*G36*
X74250Y70750D02*Y63250D01*
X81750D01*
Y70750D01*
X74250D01*
G37*
G36*
X77700Y117800D02*Y111200D01*
X84300D01*
Y117800D01*
X77700D01*
G37*
G54D67*X71000Y113500D03*
X61000Y114500D03*
G54D69*X98700Y30000D03*
G54D70*X100200Y31500D02*Y28500D01*
G54D69*X105500Y30000D03*
G54D70*X104000Y31500D02*Y28500D01*
G54D71*X53000Y87937D02*Y80063D01*
X43000Y87937D02*Y80063D01*
X63000Y87937D02*Y80063D01*
M02*
