M48
INCH
T51C0.020
T50C0.045
T49C0.129
T48C0.038
T47C0.047
%
T51
X006300Y009700
X007350Y010250
X007350Y009450
X008200Y008900
X009000Y009800
X009050Y010300
X009150Y008600
X010400Y001000
X010900Y010400
X010900Y009150
X010950Y001500
X011150Y003000
X011150Y002500
X011250Y004850
X011350Y010050
X011400Y011150
X011800Y004350
X011800Y003900
X011800Y003450
X012400Y009500
X012450Y004850
X013050Y008700
X013200Y001550
X015950Y010550
T48
X000800Y006700
X000800Y003700
X002800Y006700
X002800Y003700
X004800Y006700
X004800Y003700
X006100Y011450
X007100Y011350
X007800Y006700
X007800Y003700
X008100Y011450
X008300Y007950
X009150Y006700
X009150Y003700
X009300Y007950
X010300Y007950
X011150Y006700
X011150Y003700
X011300Y007950
X012300Y007950
X013150Y006700
X013150Y003700
X013300Y007950
X016150Y006700
X016150Y003700
T50
X004300Y008400
X005300Y008400
X006300Y008400
T47
X000956Y001467
X001467Y011044
X001467Y009666
X001467Y008289
X002334Y001467
X003711Y001467
X005906Y001467
X007284Y001467
X008661Y001467
T49
X015300Y008900
X015300Y001600
M30
