G04 start of page 8 for group -4079 idx -4079 *
G04 Title: (unknown), topsilk *
G04 Creator: pcb 20140316 *
G04 CreationDate: Fri 17 Nov 2017 10:24:59 PM GMT UTC *
G04 For: ndholmes *
G04 Format: Gerber/RS-274X *
G04 PCB-Dimensions (mil): 1700.00 1200.00 *
G04 PCB-Coordinate-Origin: lower left *
%MOIN*%
%FSLAX25Y25*%
%LNTOPSILK*%
%ADD74C,0.0080*%
%ADD73C,0.0100*%
%ADD72C,0.0001*%
G54D72*G36*
X74500Y90500D02*X76500D01*
Y88500D01*
X74500D01*
Y90500D01*
G37*
G36*
X129500Y10000D02*X131500D01*
Y8000D01*
X129500D01*
Y10000D01*
G37*
G54D73*X169500Y119500D02*Y500D01*
X166000Y118000D02*Y116000D01*
X165000Y117000D02*X167000D01*
X135000Y118000D02*Y116000D01*
X500Y119500D02*X169500D01*
Y500D02*X500D01*
Y119500D01*
X134000Y117000D02*X136000D01*
X500Y119500D02*Y73831D01*
X28059D01*
Y119500D01*
X500D01*
Y500D02*X46169D01*
Y28059D02*Y500D01*
X500Y28059D02*X46169D01*
X500D02*Y500D01*
X59064Y100245D02*X59850D01*
X59064Y105755D02*X59850D01*
X38107Y100245D02*X38893D01*
X38107Y105755D02*X38893D01*
X72685Y74157D02*X33315D01*
X72685Y95811D02*X33315D01*
Y89905D02*X72685D01*
Y95811D02*Y74157D01*
X33315D02*Y95811D01*
X3000Y72000D02*X83000D01*
X3000D02*Y32000D01*
X83000D01*
Y72000D02*Y57000D01*
Y47000D02*Y32000D01*
Y57000D02*G75*G03X83000Y47000I0J-5000D01*G01*
X56000Y119500D02*X86000D01*
X56000D02*Y109500D01*
X86000Y119500D02*Y109500D01*
X76000Y119500D02*Y109500D01*
X74000D02*X86000D01*
X56000D02*X68000D01*
X30000Y118300D02*X51000D01*
X30000Y108700D02*X51000D01*
Y118300D02*Y108700D01*
X30000Y118300D02*Y108700D01*
X43000Y118300D02*Y108700D01*
X50000Y500D02*X95669D01*
Y28059D02*Y500D01*
X50000Y28059D02*X95669D01*
X50000D02*Y500D01*
X105400Y105600D02*Y91700D01*
X92600Y105600D02*X105400D01*
X92600D02*Y91700D01*
X105400D01*
X158107Y115755D02*X158893D01*
X158107Y110245D02*X158893D01*
X142107D02*X142893D01*
X142107Y115755D02*X142893D01*
X130890Y110299D02*Y97701D01*
X117110D02*X130890D01*
X117110Y110299D02*Y97701D01*
Y110299D02*X130890D01*
X78000Y84500D02*X138000D01*
X78000D02*Y74500D01*
X138000D01*
Y84500D02*Y74500D01*
X128000Y84500D02*Y74500D01*
X138000D01*
X86500Y72000D02*X166500D01*
X86500D02*Y32000D01*
X166500D01*
Y72000D02*Y57000D01*
Y47000D02*Y32000D01*
Y57000D02*G75*G03X166500Y47000I0J-5000D01*G01*
X114500Y9500D02*X128400D01*
Y21300D02*Y9500D01*
X114500Y21300D02*X128400D01*
X114500D02*Y9500D01*
X76000Y105500D02*Y91600D01*
X87800D01*
Y105500D01*
X76000D01*
G54D74*X153000Y54000D02*Y50000D01*
Y52000D02*X155000Y54000D01*
X153000Y52000D02*X155000Y50000D01*
X156200Y53500D02*X156700Y54000D01*
X158200D01*
X158700Y53500D01*
Y52500D01*
X156200Y50000D02*X158700Y52500D01*
X156200Y50000D02*X158700D01*
X162250Y108150D02*Y104150D01*
X163750Y108150D02*X164250Y107650D01*
Y104650D01*
X163750Y104150D02*X164250Y104650D01*
X161750Y104150D02*X163750D01*
X161750Y108150D02*X163750D01*
X165450Y107650D02*X165950Y108150D01*
X167450D01*
X167950Y107650D01*
Y106650D01*
X165450Y104150D02*X167950Y106650D01*
X165450Y104150D02*X167950D01*
X21000Y6500D02*X22500D01*
Y3000D01*
X22000Y2500D02*X22500Y3000D01*
X21500Y2500D02*X22000D01*
X21000Y3000D02*X21500Y2500D01*
X23700Y6500D02*X25700D01*
X23700D02*Y4500D01*
X24200Y5000D01*
X25200D01*
X25700Y4500D01*
Y3000D01*
X25200Y2500D02*X25700Y3000D01*
X24200Y2500D02*X25200D01*
X23700Y3000D02*X24200Y2500D01*
X70000Y6500D02*X71500D01*
Y3000D01*
X71000Y2500D02*X71500Y3000D01*
X70500Y2500D02*X71000D01*
X70000Y3000D02*X70500Y2500D01*
X72700Y4500D02*X74700Y6500D01*
X72700Y4500D02*X75200D01*
X74700Y6500D02*Y2500D01*
X70500Y54000D02*Y50000D01*
Y52000D02*X72500Y54000D01*
X70500Y52000D02*X72500Y50000D01*
X74200D02*X75200D01*
X74700Y54000D02*Y50000D01*
X73700Y53000D02*X74700Y54000D01*
X118500Y26800D02*Y23300D01*
X119000Y22800D01*
X120000D01*
X120500Y23300D01*
Y26800D02*Y23300D01*
X121700Y26300D02*X122200Y26800D01*
X123200D01*
X123700Y26300D01*
Y23300D01*
X123200Y22800D02*X123700Y23300D01*
X122200Y22800D02*X123200D01*
X121700Y23300D02*X122200Y22800D01*
Y24800D02*X123700D01*
X138250Y108150D02*Y104150D01*
X139750Y108150D02*X140250Y107650D01*
Y104650D01*
X139750Y104150D02*X140250Y104650D01*
X137750Y104150D02*X139750D01*
X137750Y108150D02*X139750D01*
X141950Y104150D02*X142950D01*
X142450Y108150D02*Y104150D01*
X141450Y107150D02*X142450Y108150D01*
X121100Y116000D02*X123100D01*
X123600Y115500D01*
Y114500D01*
X123100Y114000D02*X123600Y114500D01*
X121600Y114000D02*X123100D01*
X121600Y116000D02*Y112000D01*
Y114000D02*X123600Y112000D01*
X125300D02*X126300D01*
X125800Y116000D02*Y112000D01*
X124800Y115000D02*X125800Y116000D01*
X69500Y101800D02*Y98300D01*
X70000Y97800D01*
X71000D01*
X71500Y98300D01*
Y101800D02*Y98300D01*
X73200Y97800D02*X74200D01*
X73700Y101800D02*Y97800D01*
X72700Y100800D02*X73700Y101800D01*
X106700Y99900D02*Y96900D01*
Y99900D02*X107200Y100400D01*
X108200D01*
X108700Y99900D01*
Y96900D01*
X108200Y96400D02*X108700Y96900D01*
X107200Y96400D02*X108200D01*
X106700Y96900D02*X107200Y96400D01*
X107700Y97400D02*X108700Y96400D01*
X110400D02*X111400D01*
X110900Y100400D02*Y96400D01*
X109900Y99400D02*X110900Y100400D01*
X66158Y79295D02*Y76180D01*
X66603Y75735D01*
X67493D01*
X67938Y76180D01*
Y79295D02*Y76180D01*
X69006Y78850D02*X69451Y79295D01*
X70786D01*
X71231Y78850D01*
Y77960D01*
X69006Y75735D02*X71231Y77960D01*
X69006Y75735D02*X71231D01*
X89000Y116500D02*X90500D01*
Y113000D01*
X90000Y112500D02*X90500Y113000D01*
X89500Y112500D02*X90000D01*
X89000Y113000D02*X89500Y112500D01*
X91700Y116000D02*X92200Y116500D01*
X93700D01*
X94200Y116000D01*
Y115000D01*
X91700Y112500D02*X94200Y115000D01*
X91700Y112500D02*X94200D01*
X46936Y103150D02*X48436D01*
X46436Y103650D02*X46936Y103150D01*
X46436Y106650D02*Y103650D01*
Y106650D02*X46936Y107150D01*
X48436D01*
X49636Y106650D02*X50136Y107150D01*
X51636D01*
X52136Y106650D01*
Y105650D01*
X49636Y103150D02*X52136Y105650D01*
X49636Y103150D02*X52136D01*
X46307Y97150D02*X47807D01*
X45807Y97650D02*X46307Y97150D01*
X45807Y100650D02*Y97650D01*
Y100650D02*X46307Y101150D01*
X47807D01*
X49507Y97150D02*X50507D01*
X50007Y101150D02*Y97150D01*
X49007Y100150D02*X50007Y101150D01*
X38300Y111400D02*X41500D01*
X38300Y112600D02*X38700Y113000D01*
X41100D01*
X41500Y112600D02*X41100Y113000D01*
X41500Y112600D02*Y111000D01*
X38300Y112600D02*Y111000D01*
X38700Y113960D02*X38300Y114360D01*
Y115160D02*Y114360D01*
Y115160D02*X38700Y115560D01*
X41100D01*
X41500Y115160D02*X41100Y115560D01*
X41500Y115160D02*Y114360D01*
X41100Y113960D02*X41500Y114360D01*
X39900Y115560D02*Y114360D01*
X22000Y79500D02*X23500D01*
Y76000D01*
X23000Y75500D02*X23500Y76000D01*
X22500Y75500D02*X23000D01*
X22000Y76000D02*X22500Y75500D01*
X25200D02*X26200D01*
X25700Y79500D02*Y75500D01*
X24700Y78500D02*X25700Y79500D01*
M02*
