G04 start of page 12 for group -3984 idx -3984 *
G04 Title: (unknown), fab *
G04 Creator: pcb 20140316 *
G04 CreationDate: Fri 17 Nov 2017 10:24:59 PM GMT UTC *
G04 For: ndholmes *
G04 Format: Gerber/RS-274X *
G04 PCB-Dimensions (mil): 1700.00 1200.00 *
G04 PCB-Coordinate-Origin: lower left *
%MOIN*%
%FSLAX25Y25*%
%LNFAB*%
%ADD85C,0.0100*%
%ADD84C,0.0060*%
%ADD83R,0.0080X0.0080*%
G54D83*X151400Y17600D02*X154600D01*
X151400D02*Y14400D01*
X154600D01*
Y17600D02*Y14400D01*
X151400Y90600D02*X154600D01*
X151400D02*Y87400D01*
X154600D01*
Y90600D02*Y87400D01*
X13400Y132850D02*X16600D01*
X13400D02*Y129650D01*
X16600D01*
Y132850D02*Y129650D01*
G54D84*X135000Y133500D02*Y132750D01*
X136500Y131250D01*
X138000Y132750D01*
Y133500D02*Y132750D01*
X136500Y131250D02*Y127500D01*
X139800Y130500D02*X142050D01*
X139800Y127500D02*X142800D01*
X139800Y133500D02*Y127500D01*
Y133500D02*X142800D01*
X147600D02*X148350Y132750D01*
X145350Y133500D02*X147600D01*
X144600Y132750D02*X145350Y133500D01*
X144600Y132750D02*Y131250D01*
X145350Y130500D01*
X147600D01*
X148350Y129750D01*
Y128250D01*
X147600Y127500D02*X148350Y128250D01*
X145350Y127500D02*X147600D01*
X144600Y128250D02*X145350Y127500D01*
X98000Y132750D02*X98750Y133500D01*
X101000D01*
X101750Y132750D01*
Y131250D01*
X98000Y127500D02*X101750Y131250D01*
X98000Y127500D02*X101750D01*
X45000Y128250D02*X45750Y127500D01*
X45000Y132750D02*Y128250D01*
Y132750D02*X45750Y133500D01*
X47250D01*
X48000Y132750D01*
Y128250D01*
X47250Y127500D02*X48000Y128250D01*
X45750Y127500D02*X47250D01*
X45000Y129000D02*X48000Y132000D01*
X49800Y127500D02*X50550D01*
X53100D02*X54600D01*
X53850Y133500D02*Y127500D01*
X52350Y132000D02*X53850Y133500D01*
X56400Y132750D02*X57150Y133500D01*
X59400D01*
X60150Y132750D01*
Y131250D01*
X56400Y127500D02*X60150Y131250D01*
X56400Y127500D02*X60150D01*
X61950D02*X64950Y130500D01*
Y132750D02*Y130500D01*
X64200Y133500D02*X64950Y132750D01*
X62700Y133500D02*X64200D01*
X61950Y132750D02*X62700Y133500D01*
X61950Y132750D02*Y131250D01*
X62700Y130500D01*
X64950D01*
X58255Y14673D02*G75*G03X59855Y14673I800J0D01*G01*
G75*G03X58255Y14673I-800J0D01*G01*
X72035D02*G75*G03X73635Y14673I800J0D01*G01*
G75*G03X72035Y14673I-800J0D01*G01*
X85814D02*G75*G03X87414Y14673I800J0D01*G01*
G75*G03X85814Y14673I-800J0D01*G01*
X13873Y110445D02*G75*G03X15473Y110445I800J0D01*G01*
G75*G03X13873Y110445I-800J0D01*G01*
Y96665D02*G75*G03X15473Y96665I800J0D01*G01*
G75*G03X13873Y96665I-800J0D01*G01*
Y82886D02*G75*G03X15473Y82886I800J0D01*G01*
G75*G03X13873Y82886I-800J0D01*G01*
X8755Y14673D02*G75*G03X10355Y14673I800J0D01*G01*
G75*G03X8755Y14673I-800J0D01*G01*
X22535D02*G75*G03X24135Y14673I800J0D01*G01*
G75*G03X22535Y14673I-800J0D01*G01*
X36314D02*G75*G03X37914Y14673I800J0D01*G01*
G75*G03X36314Y14673I-800J0D01*G01*
X14200Y146250D02*G75*G03X15800Y146250I800J0D01*G01*
G75*G03X14200Y146250I-800J0D01*G01*
X135000Y148500D02*Y147750D01*
X136500Y146250D01*
X138000Y147750D01*
Y148500D02*Y147750D01*
X136500Y146250D02*Y142500D01*
X139800Y145500D02*X142050D01*
X139800Y142500D02*X142800D01*
X139800Y148500D02*Y142500D01*
Y148500D02*X142800D01*
X147600D02*X148350Y147750D01*
X145350Y148500D02*X147600D01*
X144600Y147750D02*X145350Y148500D01*
X144600Y147750D02*Y146250D01*
X145350Y145500D01*
X147600D01*
X148350Y144750D01*
Y143250D01*
X147600Y142500D02*X148350Y143250D01*
X145350Y142500D02*X147600D01*
X144600Y143250D02*X145350Y142500D01*
X98000D02*X101000Y145500D01*
Y147750D02*Y145500D01*
X100250Y148500D02*X101000Y147750D01*
X98750Y148500D02*X100250D01*
X98000Y147750D02*X98750Y148500D01*
X98000Y147750D02*Y146250D01*
X98750Y145500D01*
X101000D01*
X45000Y143250D02*X45750Y142500D01*
X45000Y147750D02*Y143250D01*
Y147750D02*X45750Y148500D01*
X47250D01*
X48000Y147750D01*
Y143250D01*
X47250Y142500D02*X48000Y143250D01*
X45750Y142500D02*X47250D01*
X45000Y144000D02*X48000Y147000D01*
X49800Y142500D02*X50550D01*
X52350Y143250D02*X53100Y142500D01*
X52350Y147750D02*Y143250D01*
Y147750D02*X53100Y148500D01*
X54600D01*
X55350Y147750D01*
Y143250D01*
X54600Y142500D02*X55350Y143250D01*
X53100Y142500D02*X54600D01*
X52350Y144000D02*X55350Y147000D01*
X57150Y145500D02*X60150Y148500D01*
X57150Y145500D02*X60900D01*
X60150Y148500D02*Y142500D01*
X62700D02*X66450Y146250D01*
Y148500D02*Y146250D01*
X62700Y148500D02*X66450D01*
X61800Y85200D02*X64200Y82800D01*
X61800D02*X64200Y85200D01*
X51800D02*X54200Y82800D01*
X51800D02*X54200Y85200D01*
X41800D02*X44200Y82800D01*
X41800D02*X44200Y85200D01*
X13800Y162450D02*X16200Y160050D01*
X13800D02*X16200Y162450D01*
X135000Y163500D02*Y162750D01*
X136500Y161250D01*
X138000Y162750D01*
Y163500D02*Y162750D01*
X136500Y161250D02*Y157500D01*
X139800Y160500D02*X142050D01*
X139800Y157500D02*X142800D01*
X139800Y163500D02*Y157500D01*
Y163500D02*X142800D01*
X147600D02*X148350Y162750D01*
X145350Y163500D02*X147600D01*
X144600Y162750D02*X145350Y163500D01*
X144600Y162750D02*Y161250D01*
X145350Y160500D01*
X147600D01*
X148350Y159750D01*
Y158250D01*
X147600Y157500D02*X148350Y158250D01*
X145350Y157500D02*X147600D01*
X144600Y158250D02*X145350Y157500D01*
X98000Y162750D02*X98750Y163500D01*
X100250D01*
X101000Y162750D01*
Y158250D01*
X100250Y157500D02*X101000Y158250D01*
X98750Y157500D02*X100250D01*
X98000Y158250D02*X98750Y157500D01*
Y160500D02*X101000D01*
X45000Y158250D02*X45750Y157500D01*
X45000Y162750D02*Y158250D01*
Y162750D02*X45750Y163500D01*
X47250D01*
X48000Y162750D01*
Y158250D01*
X47250Y157500D02*X48000Y158250D01*
X45750Y157500D02*X47250D01*
X45000Y159000D02*X48000Y162000D01*
X49800Y157500D02*X50550D01*
X52350Y158250D02*X53100Y157500D01*
X52350Y162750D02*Y158250D01*
Y162750D02*X53100Y163500D01*
X54600D01*
X55350Y162750D01*
Y158250D01*
X54600Y157500D02*X55350Y158250D01*
X53100Y157500D02*X54600D01*
X52350Y159000D02*X55350Y162000D01*
X57150Y160500D02*X60150Y163500D01*
X57150Y160500D02*X60900D01*
X60150Y163500D02*Y157500D01*
X62700Y163500D02*X65700D01*
X62700D02*Y160500D01*
X63450Y161250D01*
X64950D01*
X65700Y160500D01*
Y158250D01*
X64950Y157500D02*X65700Y158250D01*
X63450Y157500D02*X64950D01*
X62700Y158250D02*X63450Y157500D01*
X133000Y81100D02*Y77900D01*
X131400Y79500D02*X134600D01*
X123000Y81100D02*Y77900D01*
X121400Y79500D02*X124600D01*
X113000Y81100D02*Y77900D01*
X111400Y79500D02*X114600D01*
X103000Y81100D02*Y77900D01*
X101400Y79500D02*X104600D01*
X93000Y81100D02*Y77900D01*
X91400Y79500D02*X94600D01*
X83000Y81100D02*Y77900D01*
X81400Y79500D02*X84600D01*
X161500Y68600D02*Y65400D01*
X159900Y67000D02*X163100D01*
X131500Y68600D02*Y65400D01*
X129900Y67000D02*X133100D01*
X111500Y68600D02*Y65400D01*
X109900Y67000D02*X113100D01*
X91500Y68600D02*Y65400D01*
X89900Y67000D02*X93100D01*
X91500Y38600D02*Y35400D01*
X89900Y37000D02*X93100D01*
X111500Y38600D02*Y35400D01*
X109900Y37000D02*X113100D01*
X131500Y38600D02*Y35400D01*
X129900Y37000D02*X133100D01*
X161500Y38600D02*Y35400D01*
X159900Y37000D02*X163100D01*
X78000Y68600D02*Y65400D01*
X76400Y67000D02*X79600D01*
X48000Y68600D02*Y65400D01*
X46400Y67000D02*X49600D01*
X28000Y68600D02*Y65400D01*
X26400Y67000D02*X29600D01*
X8000Y68600D02*Y65400D01*
X6400Y67000D02*X9600D01*
X8000Y38600D02*Y35400D01*
X6400Y37000D02*X9600D01*
X28000Y38600D02*Y35400D01*
X26400Y37000D02*X29600D01*
X48000Y38600D02*Y35400D01*
X46400Y37000D02*X49600D01*
X78000Y38600D02*Y35400D01*
X76400Y37000D02*X79600D01*
X81000Y116100D02*Y112900D01*
X79400Y114500D02*X82600D01*
X71000Y115100D02*Y111900D01*
X69400Y113500D02*X72600D01*
X61000Y116100D02*Y112900D01*
X59400Y114500D02*X62600D01*
X15000Y177850D02*Y174650D01*
X13400Y176250D02*X16600D01*
X135000Y178500D02*Y177750D01*
X136500Y176250D01*
X138000Y177750D01*
Y178500D02*Y177750D01*
X136500Y176250D02*Y172500D01*
X139800Y175500D02*X142050D01*
X139800Y172500D02*X142800D01*
X139800Y178500D02*Y172500D01*
Y178500D02*X142800D01*
X147600D02*X148350Y177750D01*
X145350Y178500D02*X147600D01*
X144600Y177750D02*X145350Y178500D01*
X144600Y177750D02*Y176250D01*
X145350Y175500D01*
X147600D01*
X148350Y174750D01*
Y173250D01*
X147600Y172500D02*X148350Y173250D01*
X145350Y172500D02*X147600D01*
X144600Y173250D02*X145350Y172500D01*
X98000Y177750D02*X98750Y178500D01*
X101000D01*
X101750Y177750D01*
Y176250D01*
X98000Y172500D02*X101750Y176250D01*
X98000Y172500D02*X101750D01*
X103550Y178500D02*X106550D01*
X103550D02*Y175500D01*
X104300Y176250D01*
X105800D01*
X106550Y175500D01*
Y173250D01*
X105800Y172500D02*X106550Y173250D01*
X104300Y172500D02*X105800D01*
X103550Y173250D02*X104300Y172500D01*
X45000Y173250D02*X45750Y172500D01*
X45000Y177750D02*Y173250D01*
Y177750D02*X45750Y178500D01*
X47250D01*
X48000Y177750D01*
Y173250D01*
X47250Y172500D02*X48000Y173250D01*
X45750Y172500D02*X47250D01*
X45000Y174000D02*X48000Y177000D01*
X49800Y172500D02*X50550D01*
X52350Y173250D02*X53100Y172500D01*
X52350Y177750D02*Y173250D01*
Y177750D02*X53100Y178500D01*
X54600D01*
X55350Y177750D01*
Y173250D01*
X54600Y172500D02*X55350Y173250D01*
X53100Y172500D02*X54600D01*
X52350Y174000D02*X55350Y177000D01*
X57150Y177750D02*X57900Y178500D01*
X59400D01*
X60150Y177750D01*
Y173250D01*
X59400Y172500D02*X60150Y173250D01*
X57900Y172500D02*X59400D01*
X57150Y173250D02*X57900Y172500D01*
Y175500D02*X60150D01*
X61950Y173250D02*X62700Y172500D01*
X61950Y174750D02*Y173250D01*
Y174750D02*X62700Y175500D01*
X64200D01*
X64950Y174750D01*
Y173250D01*
X64200Y172500D02*X64950Y173250D01*
X62700Y172500D02*X64200D01*
X61950Y176250D02*X62700Y175500D01*
X61950Y177750D02*Y176250D01*
Y177750D02*X62700Y178500D01*
X64200D01*
X64950Y177750D01*
Y176250D01*
X64200Y175500D02*X64950Y176250D01*
X109000Y91500D02*Y89900D01*
Y91500D02*X110387Y92300D01*
X109000Y91500D02*X107613Y92300D01*
X73500Y94500D02*Y92900D01*
Y94500D02*X74887Y95300D01*
X73500Y94500D02*X72113Y95300D01*
X73500Y102500D02*Y100900D01*
Y102500D02*X74887Y103300D01*
X73500Y102500D02*X72113Y103300D01*
X82000Y89000D02*Y87400D01*
Y89000D02*X83387Y89800D01*
X82000Y89000D02*X80613Y89800D01*
X91500Y86000D02*Y84400D01*
Y86000D02*X92887Y86800D01*
X91500Y86000D02*X90113Y86800D01*
X63000Y97000D02*Y95400D01*
Y97000D02*X64387Y97800D01*
X63000Y97000D02*X61613Y97800D01*
X124500Y48500D02*Y46900D01*
Y48500D02*X125887Y49300D01*
X124500Y48500D02*X123113Y49300D01*
X104000Y10000D02*Y8400D01*
Y10000D02*X105387Y10800D01*
X104000Y10000D02*X102613Y10800D01*
X109500Y15000D02*Y13400D01*
Y15000D02*X110887Y15800D01*
X109500Y15000D02*X108113Y15800D01*
X132000Y15500D02*Y13900D01*
Y15500D02*X133387Y16300D01*
X132000Y15500D02*X130613Y16300D01*
X112500Y48500D02*Y46900D01*
Y48500D02*X113887Y49300D01*
X112500Y48500D02*X111113Y49300D01*
X118000Y34500D02*Y32900D01*
Y34500D02*X119387Y35300D01*
X118000Y34500D02*X116613Y35300D01*
X118000Y39000D02*Y37400D01*
Y39000D02*X119387Y39800D01*
X118000Y39000D02*X116613Y39800D01*
X118000Y43500D02*Y41900D01*
Y43500D02*X119387Y44300D01*
X118000Y43500D02*X116613Y44300D01*
X130500Y87000D02*Y85400D01*
Y87000D02*X131887Y87800D01*
X130500Y87000D02*X129113Y87800D01*
X159500Y105500D02*Y103900D01*
Y105500D02*X160887Y106300D01*
X159500Y105500D02*X158113Y106300D01*
X111500Y30000D02*Y28400D01*
Y30000D02*X112887Y30800D01*
X111500Y30000D02*X110113Y30800D01*
X111500Y25000D02*Y23400D01*
Y25000D02*X112887Y25800D01*
X111500Y25000D02*X110113Y25800D01*
X113500Y100500D02*Y98900D01*
Y100500D02*X114887Y101300D01*
X113500Y100500D02*X112113Y101300D01*
X114000Y111500D02*Y109900D01*
Y111500D02*X115387Y112300D01*
X114000Y111500D02*X112613Y112300D01*
X109000Y104000D02*Y102400D01*
Y104000D02*X110387Y104800D01*
X109000Y104000D02*X107613Y104800D01*
X90500Y103000D02*Y101400D01*
Y103000D02*X91887Y103800D01*
X90500Y103000D02*X89113Y103800D01*
X90000Y98000D02*Y96400D01*
Y98000D02*X91387Y98800D01*
X90000Y98000D02*X88613Y98800D01*
X124000Y95000D02*Y93400D01*
Y95000D02*X125387Y95800D01*
X124000Y95000D02*X122613Y95800D01*
X15000Y191250D02*Y189650D01*
Y191250D02*X16387Y192050D01*
X15000Y191250D02*X13613Y192050D01*
X135000Y193500D02*Y192750D01*
X136500Y191250D01*
X138000Y192750D01*
Y193500D02*Y192750D01*
X136500Y191250D02*Y187500D01*
X139800Y190500D02*X142050D01*
X139800Y187500D02*X142800D01*
X139800Y193500D02*Y187500D01*
Y193500D02*X142800D01*
X147600D02*X148350Y192750D01*
X145350Y193500D02*X147600D01*
X144600Y192750D02*X145350Y193500D01*
X144600Y192750D02*Y191250D01*
X145350Y190500D01*
X147600D01*
X148350Y189750D01*
Y188250D01*
X147600Y187500D02*X148350Y188250D01*
X145350Y187500D02*X147600D01*
X144600Y188250D02*X145350Y187500D01*
X98000Y192750D02*X98750Y193500D01*
X101000D01*
X101750Y192750D01*
Y191250D01*
X98000Y187500D02*X101750Y191250D01*
X98000Y187500D02*X101750D01*
X103550Y190500D02*X106550Y193500D01*
X103550Y190500D02*X107300D01*
X106550Y193500D02*Y187500D01*
X45000Y188250D02*X45750Y187500D01*
X45000Y192750D02*Y188250D01*
Y192750D02*X45750Y193500D01*
X47250D01*
X48000Y192750D01*
Y188250D01*
X47250Y187500D02*X48000Y188250D01*
X45750Y187500D02*X47250D01*
X45000Y189000D02*X48000Y192000D01*
X49800Y187500D02*X50550D01*
X52350Y188250D02*X53100Y187500D01*
X52350Y192750D02*Y188250D01*
Y192750D02*X53100Y193500D01*
X54600D01*
X55350Y192750D01*
Y188250D01*
X54600Y187500D02*X55350Y188250D01*
X53100Y187500D02*X54600D01*
X52350Y189000D02*X55350Y192000D01*
X57150Y192750D02*X57900Y193500D01*
X60150D01*
X60900Y192750D01*
Y191250D01*
X57150Y187500D02*X60900Y191250D01*
X57150Y187500D02*X60900D01*
X62700Y188250D02*X63450Y187500D01*
X62700Y192750D02*Y188250D01*
Y192750D02*X63450Y193500D01*
X64950D01*
X65700Y192750D01*
Y188250D01*
X64950Y187500D02*X65700Y188250D01*
X63450Y187500D02*X64950D01*
X62700Y189000D02*X65700Y192000D01*
X3000Y208500D02*X3750Y207750D01*
X750Y208500D02*X3000D01*
X0Y207750D02*X750Y208500D01*
X0Y207750D02*Y206250D01*
X750Y205500D01*
X3000D01*
X3750Y204750D01*
Y203250D01*
X3000Y202500D02*X3750Y203250D01*
X750Y202500D02*X3000D01*
X0Y203250D02*X750Y202500D01*
X5550Y205500D02*Y203250D01*
X6300Y202500D01*
X8550Y205500D02*Y201000D01*
X7800Y200250D02*X8550Y201000D01*
X6300Y200250D02*X7800D01*
X5550Y201000D02*X6300Y200250D01*
Y202500D02*X7800D01*
X8550Y203250D01*
X11100Y204750D02*Y202500D01*
Y204750D02*X11850Y205500D01*
X12600D01*
X13350Y204750D01*
Y202500D01*
Y204750D02*X14100Y205500D01*
X14850D01*
X15600Y204750D01*
Y202500D01*
X10350Y205500D02*X11100Y204750D01*
X17400Y208500D02*Y202500D01*
Y203250D02*X18150Y202500D01*
X19650D01*
X20400Y203250D01*
Y204750D02*Y203250D01*
X19650Y205500D02*X20400Y204750D01*
X18150Y205500D02*X19650D01*
X17400Y204750D02*X18150Y205500D01*
X22200Y204750D02*Y203250D01*
Y204750D02*X22950Y205500D01*
X24450D01*
X25200Y204750D01*
Y203250D01*
X24450Y202500D02*X25200Y203250D01*
X22950Y202500D02*X24450D01*
X22200Y203250D02*X22950Y202500D01*
X27000Y208500D02*Y203250D01*
X27750Y202500D01*
X0Y199250D02*X29250D01*
X41750Y208500D02*Y202500D01*
X44000Y208500D02*X44750Y207750D01*
Y203250D01*
X44000Y202500D02*X44750Y203250D01*
X41000Y202500D02*X44000D01*
X41000Y208500D02*X44000D01*
X46550Y207000D02*Y206250D01*
Y204750D02*Y202500D01*
X50300Y205500D02*X51050Y204750D01*
X48800Y205500D02*X50300D01*
X48050Y204750D02*X48800Y205500D01*
X48050Y204750D02*Y203250D01*
X48800Y202500D01*
X51050Y205500D02*Y203250D01*
X51800Y202500D01*
X48800D02*X50300D01*
X51050Y203250D01*
X54350Y204750D02*Y202500D01*
Y204750D02*X55100Y205500D01*
X55850D01*
X56600Y204750D01*
Y202500D01*
Y204750D02*X57350Y205500D01*
X58100D01*
X58850Y204750D01*
Y202500D01*
X53600Y205500D02*X54350Y204750D01*
X60650Y202500D02*X61400D01*
X65900Y203250D02*X66650Y202500D01*
X65900Y207750D02*X66650Y208500D01*
X65900Y207750D02*Y203250D01*
X68450Y208500D02*X69950D01*
X69200D02*Y202500D01*
X68450D02*X69950D01*
X72500Y204750D02*Y202500D01*
Y204750D02*X73250Y205500D01*
X74000D01*
X74750Y204750D01*
Y202500D01*
X71750Y205500D02*X72500Y204750D01*
X77300Y205500D02*X79550D01*
X76550Y204750D02*X77300Y205500D01*
X76550Y204750D02*Y203250D01*
X77300Y202500D01*
X79550D01*
X81350Y208500D02*Y202500D01*
Y204750D02*X82100Y205500D01*
X83600D01*
X84350Y204750D01*
Y202500D01*
X86150Y208500D02*X86900Y207750D01*
Y203250D01*
X86150Y202500D02*X86900Y203250D01*
X41000Y199250D02*X88700D01*
X95750Y202500D02*X98000D01*
X95000Y203250D02*X95750Y202500D01*
X95000Y207750D02*Y203250D01*
Y207750D02*X95750Y208500D01*
X98000D01*
X99800Y204750D02*Y203250D01*
Y204750D02*X100550Y205500D01*
X102050D01*
X102800Y204750D01*
Y203250D01*
X102050Y202500D02*X102800Y203250D01*
X100550Y202500D02*X102050D01*
X99800Y203250D02*X100550Y202500D01*
X104600Y205500D02*Y203250D01*
X105350Y202500D01*
X106850D01*
X107600Y203250D01*
Y205500D02*Y203250D01*
X110150Y204750D02*Y202500D01*
Y204750D02*X110900Y205500D01*
X111650D01*
X112400Y204750D01*
Y202500D01*
X109400Y205500D02*X110150Y204750D01*
X114950Y208500D02*Y203250D01*
X115700Y202500D01*
X114200Y206250D02*X115700D01*
X95000Y199250D02*X117200D01*
X130750Y208500D02*Y202500D01*
X130000Y208500D02*X133000D01*
X133750Y207750D01*
Y206250D01*
X133000Y205500D02*X133750Y206250D01*
X130750Y205500D02*X133000D01*
X135550Y208500D02*Y203250D01*
X136300Y202500D01*
X140050Y205500D02*X140800Y204750D01*
X138550Y205500D02*X140050D01*
X137800Y204750D02*X138550Y205500D01*
X137800Y204750D02*Y203250D01*
X138550Y202500D01*
X140800Y205500D02*Y203250D01*
X141550Y202500D01*
X138550D02*X140050D01*
X140800Y203250D01*
X144100Y208500D02*Y203250D01*
X144850Y202500D01*
X143350Y206250D02*X144850D01*
X147100Y202500D02*X149350D01*
X146350Y203250D02*X147100Y202500D01*
X146350Y204750D02*Y203250D01*
Y204750D02*X147100Y205500D01*
X148600D01*
X149350Y204750D01*
X146350Y204000D02*X149350D01*
Y204750D02*Y204000D01*
X154150Y208500D02*Y202500D01*
X153400D02*X154150Y203250D01*
X151900Y202500D02*X153400D01*
X151150Y203250D02*X151900Y202500D01*
X151150Y204750D02*Y203250D01*
Y204750D02*X151900Y205500D01*
X153400D01*
X154150Y204750D01*
X157450Y205500D02*Y204750D01*
Y203250D02*Y202500D01*
X155950Y207750D02*Y207000D01*
Y207750D02*X156700Y208500D01*
X158200D01*
X158950Y207750D01*
Y207000D01*
X157450Y205500D02*X158950Y207000D01*
X130000Y199250D02*X160750D01*
X0Y223500D02*X3000D01*
X1500D02*Y217500D01*
X4800Y223500D02*Y217500D01*
Y219750D02*X5550Y220500D01*
X7050D01*
X7800Y219750D01*
Y217500D01*
X10350D02*X12600D01*
X9600Y218250D02*X10350Y217500D01*
X9600Y219750D02*Y218250D01*
Y219750D02*X10350Y220500D01*
X11850D01*
X12600Y219750D01*
X9600Y219000D02*X12600D01*
Y219750D02*Y219000D01*
X15150Y219750D02*Y217500D01*
Y219750D02*X15900Y220500D01*
X17400D01*
X14400D02*X15150Y219750D01*
X19950Y217500D02*X22200D01*
X19200Y218250D02*X19950Y217500D01*
X19200Y219750D02*Y218250D01*
Y219750D02*X19950Y220500D01*
X21450D01*
X22200Y219750D01*
X19200Y219000D02*X22200D01*
Y219750D02*Y219000D01*
X28950Y220500D02*X29700Y219750D01*
X27450Y220500D02*X28950D01*
X26700Y219750D02*X27450Y220500D01*
X26700Y219750D02*Y218250D01*
X27450Y217500D01*
X29700Y220500D02*Y218250D01*
X30450Y217500D01*
X27450D02*X28950D01*
X29700Y218250D01*
X33000Y219750D02*Y217500D01*
Y219750D02*X33750Y220500D01*
X35250D01*
X32250D02*X33000Y219750D01*
X37800Y217500D02*X40050D01*
X37050Y218250D02*X37800Y217500D01*
X37050Y219750D02*Y218250D01*
Y219750D02*X37800Y220500D01*
X39300D01*
X40050Y219750D01*
X37050Y219000D02*X40050D01*
Y219750D02*Y219000D01*
X44550Y223500D02*X47550D01*
X44550D02*Y220500D01*
X45300Y221250D01*
X46800D01*
X47550Y220500D01*
Y218250D01*
X46800Y217500D02*X47550Y218250D01*
X45300Y217500D02*X46800D01*
X44550Y218250D02*X45300Y217500D01*
X55050Y223500D02*Y217500D01*
X54300D02*X55050Y218250D01*
X52800Y217500D02*X54300D01*
X52050Y218250D02*X52800Y217500D01*
X52050Y219750D02*Y218250D01*
Y219750D02*X52800Y220500D01*
X54300D01*
X55050Y219750D01*
X56850Y222000D02*Y221250D01*
Y219750D02*Y217500D01*
X59100Y222750D02*Y217500D01*
Y222750D02*X59850Y223500D01*
X60600D01*
X58350Y220500D02*X59850D01*
X62850Y222750D02*Y217500D01*
Y222750D02*X63600Y223500D01*
X64350D01*
X62100Y220500D02*X63600D01*
X66600Y217500D02*X68850D01*
X65850Y218250D02*X66600Y217500D01*
X65850Y219750D02*Y218250D01*
Y219750D02*X66600Y220500D01*
X68100D01*
X68850Y219750D01*
X65850Y219000D02*X68850D01*
Y219750D02*Y219000D01*
X71400Y219750D02*Y217500D01*
Y219750D02*X72150Y220500D01*
X73650D01*
X70650D02*X71400Y219750D01*
X76200Y217500D02*X78450D01*
X75450Y218250D02*X76200Y217500D01*
X75450Y219750D02*Y218250D01*
Y219750D02*X76200Y220500D01*
X77700D01*
X78450Y219750D01*
X75450Y219000D02*X78450D01*
Y219750D02*Y219000D01*
X81000Y219750D02*Y217500D01*
Y219750D02*X81750Y220500D01*
X82500D01*
X83250Y219750D01*
Y217500D01*
X80250Y220500D02*X81000Y219750D01*
X85800Y223500D02*Y218250D01*
X86550Y217500D01*
X85050Y221250D02*X86550D01*
X93750Y223500D02*Y217500D01*
X93000D02*X93750Y218250D01*
X91500Y217500D02*X93000D01*
X90750Y218250D02*X91500Y217500D01*
X90750Y219750D02*Y218250D01*
Y219750D02*X91500Y220500D01*
X93000D01*
X93750Y219750D01*
X96300D02*Y217500D01*
Y219750D02*X97050Y220500D01*
X98550D01*
X95550D02*X96300Y219750D01*
X100350Y222000D02*Y221250D01*
Y219750D02*Y217500D01*
X101850Y223500D02*Y218250D01*
X102600Y217500D01*
X104100Y223500D02*Y218250D01*
X104850Y217500D01*
X109800D02*X112050D01*
X112800Y218250D01*
X112050Y219000D02*X112800Y218250D01*
X109800Y219000D02*X112050D01*
X109050Y219750D02*X109800Y219000D01*
X109050Y219750D02*X109800Y220500D01*
X112050D01*
X112800Y219750D01*
X109050Y218250D02*X109800Y217500D01*
X114600Y222000D02*Y221250D01*
Y219750D02*Y217500D01*
X116100Y220500D02*X119100D01*
X116100Y217500D02*X119100Y220500D01*
X116100Y217500D02*X119100D01*
X121650D02*X123900D01*
X120900Y218250D02*X121650Y217500D01*
X120900Y219750D02*Y218250D01*
Y219750D02*X121650Y220500D01*
X123150D01*
X123900Y219750D01*
X120900Y219000D02*X123900D01*
Y219750D02*Y219000D01*
X126450Y217500D02*X128700D01*
X129450Y218250D01*
X128700Y219000D02*X129450Y218250D01*
X126450Y219000D02*X128700D01*
X125700Y219750D02*X126450Y219000D01*
X125700Y219750D02*X126450Y220500D01*
X128700D01*
X129450Y219750D01*
X125700Y218250D02*X126450Y217500D01*
X133950Y220500D02*Y218250D01*
X134700Y217500D01*
X136200D01*
X136950Y218250D01*
Y220500D02*Y218250D01*
X139500Y217500D02*X141750D01*
X142500Y218250D01*
X141750Y219000D02*X142500Y218250D01*
X139500Y219000D02*X141750D01*
X138750Y219750D02*X139500Y219000D01*
X138750Y219750D02*X139500Y220500D01*
X141750D01*
X142500Y219750D01*
X138750Y218250D02*X139500Y217500D01*
X145050D02*X147300D01*
X144300Y218250D02*X145050Y217500D01*
X144300Y219750D02*Y218250D01*
Y219750D02*X145050Y220500D01*
X146550D01*
X147300Y219750D01*
X144300Y219000D02*X147300D01*
Y219750D02*Y219000D01*
X152100Y223500D02*Y217500D01*
X151350D02*X152100Y218250D01*
X149850Y217500D02*X151350D01*
X149100Y218250D02*X149850Y217500D01*
X149100Y219750D02*Y218250D01*
Y219750D02*X149850Y220500D01*
X151350D01*
X152100Y219750D01*
X156600Y222000D02*Y221250D01*
Y219750D02*Y217500D01*
X158850Y219750D02*Y217500D01*
Y219750D02*X159600Y220500D01*
X160350D01*
X161100Y219750D01*
Y217500D01*
X158100Y220500D02*X158850Y219750D01*
X166350Y223500D02*Y218250D01*
X167100Y217500D01*
X165600Y221250D02*X167100D01*
X168600Y223500D02*Y217500D01*
Y219750D02*X169350Y220500D01*
X170850D01*
X171600Y219750D01*
Y217500D01*
X173400Y222000D02*Y221250D01*
Y219750D02*Y217500D01*
X175650D02*X177900D01*
X178650Y218250D01*
X177900Y219000D02*X178650Y218250D01*
X175650Y219000D02*X177900D01*
X174900Y219750D02*X175650Y219000D01*
X174900Y219750D02*X175650Y220500D01*
X177900D01*
X178650Y219750D01*
X174900Y218250D02*X175650Y217500D01*
X183150Y223500D02*Y218250D01*
X183900Y217500D01*
X187650Y220500D02*X188400Y219750D01*
X186150Y220500D02*X187650D01*
X185400Y219750D02*X186150Y220500D01*
X185400Y219750D02*Y218250D01*
X186150Y217500D01*
X188400Y220500D02*Y218250D01*
X189150Y217500D01*
X186150D02*X187650D01*
X188400Y218250D01*
X190950Y220500D02*Y218250D01*
X191700Y217500D01*
X193950Y220500D02*Y216000D01*
X193200Y215250D02*X193950Y216000D01*
X191700Y215250D02*X193200D01*
X190950Y216000D02*X191700Y215250D01*
Y217500D02*X193200D01*
X193950Y218250D01*
X195750Y219750D02*Y218250D01*
Y219750D02*X196500Y220500D01*
X198000D01*
X198750Y219750D01*
Y218250D01*
X198000Y217500D02*X198750Y218250D01*
X196500Y217500D02*X198000D01*
X195750Y218250D02*X196500Y217500D01*
X200550Y220500D02*Y218250D01*
X201300Y217500D01*
X202800D01*
X203550Y218250D01*
Y220500D02*Y218250D01*
X206100Y223500D02*Y218250D01*
X206850Y217500D01*
X205350Y221250D02*X206850D01*
X208350Y216000D02*X209850Y217500D01*
X216600Y223500D02*X217350Y222750D01*
X215100Y223500D02*X216600D01*
X214350Y222750D02*X215100Y223500D01*
X214350Y222750D02*Y218250D01*
X215100Y217500D01*
X216600Y220500D02*X217350Y219750D01*
X214350Y220500D02*X216600D01*
X215100Y217500D02*X216600D01*
X217350Y218250D01*
Y219750D02*Y218250D01*
X219150Y222750D02*X219900Y223500D01*
X221400D01*
X222150Y222750D01*
Y218250D01*
X221400Y217500D02*X222150Y218250D01*
X219900Y217500D02*X221400D01*
X219150Y218250D02*X219900Y217500D01*
Y220500D02*X222150D01*
X226650Y223500D02*Y217500D01*
Y219750D02*X227400Y220500D01*
X228900D01*
X229650Y219750D01*
Y217500D01*
X231450Y219750D02*Y218250D01*
Y219750D02*X232200Y220500D01*
X233700D01*
X234450Y219750D01*
Y218250D01*
X233700Y217500D02*X234450Y218250D01*
X232200Y217500D02*X233700D01*
X231450Y218250D02*X232200Y217500D01*
X236250Y223500D02*Y218250D01*
X237000Y217500D01*
X239250D02*X241500D01*
X238500Y218250D02*X239250Y217500D01*
X238500Y219750D02*Y218250D01*
Y219750D02*X239250Y220500D01*
X240750D01*
X241500Y219750D01*
X238500Y219000D02*X241500D01*
Y219750D02*Y219000D01*
X244050Y217500D02*X246300D01*
X247050Y218250D01*
X246300Y219000D02*X247050Y218250D01*
X244050Y219000D02*X246300D01*
X243300Y219750D02*X244050Y219000D01*
X243300Y219750D02*X244050Y220500D01*
X246300D01*
X247050Y219750D01*
X243300Y218250D02*X244050Y217500D01*
X252300Y223500D02*Y218250D01*
X253050Y217500D01*
X251550Y221250D02*X253050D01*
X254550Y219750D02*Y218250D01*
Y219750D02*X255300Y220500D01*
X256800D01*
X257550Y219750D01*
Y218250D01*
X256800Y217500D02*X257550Y218250D01*
X255300Y217500D02*X256800D01*
X254550Y218250D02*X255300Y217500D01*
X260100Y223500D02*Y218250D01*
X260850Y217500D01*
X259350Y221250D02*X260850D01*
X264600Y220500D02*X265350Y219750D01*
X263100Y220500D02*X264600D01*
X262350Y219750D02*X263100Y220500D01*
X262350Y219750D02*Y218250D01*
X263100Y217500D01*
X265350Y220500D02*Y218250D01*
X266100Y217500D01*
X263100D02*X264600D01*
X265350Y218250D01*
X267900Y223500D02*Y218250D01*
X268650Y217500D01*
G54D85*X0Y120000D02*X170000D01*
Y0D01*
X0D01*
Y120000D01*
G54D84*Y-9500D02*X3000D01*
X3750Y-8750D01*
Y-7250D02*Y-8750D01*
X3000Y-6500D02*X3750Y-7250D01*
X750Y-6500D02*X3000D01*
X750Y-3500D02*Y-9500D01*
X0Y-3500D02*X3000D01*
X3750Y-4250D01*
Y-5750D01*
X3000Y-6500D02*X3750Y-5750D01*
X5550Y-7250D02*Y-8750D01*
Y-7250D02*X6300Y-6500D01*
X7800D01*
X8550Y-7250D01*
Y-8750D01*
X7800Y-9500D02*X8550Y-8750D01*
X6300Y-9500D02*X7800D01*
X5550Y-8750D02*X6300Y-9500D01*
X12600Y-6500D02*X13350Y-7250D01*
X11100Y-6500D02*X12600D01*
X10350Y-7250D02*X11100Y-6500D01*
X10350Y-7250D02*Y-8750D01*
X11100Y-9500D01*
X13350Y-6500D02*Y-8750D01*
X14100Y-9500D01*
X11100D02*X12600D01*
X13350Y-8750D01*
X16650Y-7250D02*Y-9500D01*
Y-7250D02*X17400Y-6500D01*
X18900D01*
X15900D02*X16650Y-7250D01*
X23700Y-3500D02*Y-9500D01*
X22950D02*X23700Y-8750D01*
X21450Y-9500D02*X22950D01*
X20700Y-8750D02*X21450Y-9500D01*
X20700Y-7250D02*Y-8750D01*
Y-7250D02*X21450Y-6500D01*
X22950D01*
X23700Y-7250D01*
X28200D02*Y-8750D01*
Y-7250D02*X28950Y-6500D01*
X30450D01*
X31200Y-7250D01*
Y-8750D01*
X30450Y-9500D02*X31200Y-8750D01*
X28950Y-9500D02*X30450D01*
X28200Y-8750D02*X28950Y-9500D01*
X33000Y-6500D02*Y-8750D01*
X33750Y-9500D01*
X35250D01*
X36000Y-8750D01*
Y-6500D02*Y-8750D01*
X38550Y-3500D02*Y-8750D01*
X39300Y-9500D01*
X37800Y-5750D02*X39300D01*
X40800Y-3500D02*Y-8750D01*
X41550Y-9500D01*
X43050Y-5000D02*Y-5750D01*
Y-7250D02*Y-9500D01*
X45300Y-7250D02*Y-9500D01*
Y-7250D02*X46050Y-6500D01*
X46800D01*
X47550Y-7250D01*
Y-9500D01*
X44550Y-6500D02*X45300Y-7250D01*
X50100Y-9500D02*X52350D01*
X49350Y-8750D02*X50100Y-9500D01*
X49350Y-7250D02*Y-8750D01*
Y-7250D02*X50100Y-6500D01*
X51600D01*
X52350Y-7250D01*
X49350Y-8000D02*X52350D01*
Y-7250D02*Y-8000D01*
X56850Y-5000D02*Y-5750D01*
Y-7250D02*Y-9500D01*
X59100D02*X61350D01*
X62100Y-8750D01*
X61350Y-8000D02*X62100Y-8750D01*
X59100Y-8000D02*X61350D01*
X58350Y-7250D02*X59100Y-8000D01*
X58350Y-7250D02*X59100Y-6500D01*
X61350D01*
X62100Y-7250D01*
X58350Y-8750D02*X59100Y-9500D01*
X67350Y-3500D02*Y-8750D01*
X68100Y-9500D01*
X66600Y-5750D02*X68100D01*
X69600Y-3500D02*Y-9500D01*
Y-7250D02*X70350Y-6500D01*
X71850D01*
X72600Y-7250D01*
Y-9500D01*
X75150D02*X77400D01*
X74400Y-8750D02*X75150Y-9500D01*
X74400Y-7250D02*Y-8750D01*
Y-7250D02*X75150Y-6500D01*
X76650D01*
X77400Y-7250D01*
X74400Y-8000D02*X77400D01*
Y-7250D02*Y-8000D01*
X82650Y-6500D02*X84900D01*
X81900Y-7250D02*X82650Y-6500D01*
X81900Y-7250D02*Y-8750D01*
X82650Y-9500D01*
X84900D01*
X87450D02*X89700D01*
X86700Y-8750D02*X87450Y-9500D01*
X86700Y-7250D02*Y-8750D01*
Y-7250D02*X87450Y-6500D01*
X88950D01*
X89700Y-7250D01*
X86700Y-8000D02*X89700D01*
Y-7250D02*Y-8000D01*
X92250Y-7250D02*Y-9500D01*
Y-7250D02*X93000Y-6500D01*
X93750D01*
X94500Y-7250D01*
Y-9500D01*
X91500Y-6500D02*X92250Y-7250D01*
X97050Y-3500D02*Y-8750D01*
X97800Y-9500D01*
X96300Y-5750D02*X97800D01*
X100050Y-9500D02*X102300D01*
X99300Y-8750D02*X100050Y-9500D01*
X99300Y-7250D02*Y-8750D01*
Y-7250D02*X100050Y-6500D01*
X101550D01*
X102300Y-7250D01*
X99300Y-8000D02*X102300D01*
Y-7250D02*Y-8000D01*
X104850Y-7250D02*Y-9500D01*
Y-7250D02*X105600Y-6500D01*
X107100D01*
X104100D02*X104850Y-7250D01*
X108900Y-3500D02*Y-8750D01*
X109650Y-9500D01*
X111150Y-5000D02*Y-5750D01*
Y-7250D02*Y-9500D01*
X113400Y-7250D02*Y-9500D01*
Y-7250D02*X114150Y-6500D01*
X114900D01*
X115650Y-7250D01*
Y-9500D01*
X112650Y-6500D02*X113400Y-7250D01*
X118200Y-9500D02*X120450D01*
X117450Y-8750D02*X118200Y-9500D01*
X117450Y-7250D02*Y-8750D01*
Y-7250D02*X118200Y-6500D01*
X119700D01*
X120450Y-7250D01*
X117450Y-8000D02*X120450D01*
Y-7250D02*Y-8000D01*
X124950Y-7250D02*Y-8750D01*
Y-7250D02*X125700Y-6500D01*
X127200D01*
X127950Y-7250D01*
Y-8750D01*
X127200Y-9500D02*X127950Y-8750D01*
X125700Y-9500D02*X127200D01*
X124950Y-8750D02*X125700Y-9500D01*
X130500Y-4250D02*Y-9500D01*
Y-4250D02*X131250Y-3500D01*
X132000D01*
X129750Y-6500D02*X131250D01*
X136950Y-3500D02*Y-8750D01*
X137700Y-9500D01*
X136200Y-5750D02*X137700D01*
X139200Y-3500D02*Y-9500D01*
Y-7250D02*X139950Y-6500D01*
X141450D01*
X142200Y-7250D01*
Y-9500D01*
X144000Y-5000D02*Y-5750D01*
Y-7250D02*Y-9500D01*
X146250D02*X148500D01*
X149250Y-8750D01*
X148500Y-8000D02*X149250Y-8750D01*
X146250Y-8000D02*X148500D01*
X145500Y-7250D02*X146250Y-8000D01*
X145500Y-7250D02*X146250Y-6500D01*
X148500D01*
X149250Y-7250D01*
X145500Y-8750D02*X146250Y-9500D01*
X154500Y-7250D02*Y-11750D01*
X153750Y-6500D02*X154500Y-7250D01*
X155250Y-6500D01*
X156750D01*
X157500Y-7250D01*
Y-8750D01*
X156750Y-9500D02*X157500Y-8750D01*
X155250Y-9500D02*X156750D01*
X154500Y-8750D02*X155250Y-9500D01*
X161550Y-6500D02*X162300Y-7250D01*
X160050Y-6500D02*X161550D01*
X159300Y-7250D02*X160050Y-6500D01*
X159300Y-7250D02*Y-8750D01*
X160050Y-9500D01*
X162300Y-6500D02*Y-8750D01*
X163050Y-9500D01*
X160050D02*X161550D01*
X162300Y-8750D01*
X165600Y-3500D02*Y-8750D01*
X166350Y-9500D01*
X164850Y-5750D02*X166350D01*
X167850Y-3500D02*Y-9500D01*
Y-7250D02*X168600Y-6500D01*
X170100D01*
X170850Y-7250D01*
Y-9500D01*
X200750Y148500D02*Y142500D01*
X203000Y148500D02*X203750Y147750D01*
Y143250D01*
X203000Y142500D02*X203750Y143250D01*
X200000Y142500D02*X203000D01*
X200000Y148500D02*X203000D01*
X207800Y145500D02*X208550Y144750D01*
X206300Y145500D02*X207800D01*
X205550Y144750D02*X206300Y145500D01*
X205550Y144750D02*Y143250D01*
X206300Y142500D01*
X208550Y145500D02*Y143250D01*
X209300Y142500D01*
X206300D02*X207800D01*
X208550Y143250D01*
X211850Y148500D02*Y143250D01*
X212600Y142500D01*
X211100Y146250D02*X212600D01*
X214850Y142500D02*X217100D01*
X214100Y143250D02*X214850Y142500D01*
X214100Y144750D02*Y143250D01*
Y144750D02*X214850Y145500D01*
X216350D01*
X217100Y144750D01*
X214100Y144000D02*X217100D01*
Y144750D02*Y144000D01*
X218900Y146250D02*X219650D01*
X218900Y144750D02*X219650D01*
X224150Y148500D02*Y142500D01*
Y148500D02*X227150D01*
X224150Y145500D02*X226400D01*
X229700Y144750D02*Y142500D01*
Y144750D02*X230450Y145500D01*
X231950D01*
X228950D02*X229700Y144750D01*
X233750Y147000D02*Y146250D01*
Y144750D02*Y142500D01*
X238700D02*X240200D01*
X239450Y148500D02*Y142500D01*
X237950Y147000D02*X239450Y148500D01*
X242000Y142500D02*X245750Y146250D01*
Y148500D02*Y146250D01*
X242000Y148500D02*X245750D01*
X250250D02*Y142500D01*
Y148500D02*Y147750D01*
X254000Y144000D01*
Y148500D02*Y142500D01*
X255800Y144750D02*Y143250D01*
Y144750D02*X256550Y145500D01*
X258050D01*
X258800Y144750D01*
Y143250D01*
X258050Y142500D02*X258800Y143250D01*
X256550Y142500D02*X258050D01*
X255800Y143250D02*X256550Y142500D01*
X260600Y145500D02*Y144000D01*
X262100Y142500D01*
X263600Y144000D01*
Y145500D02*Y144000D01*
X268100Y147750D02*X268850Y148500D01*
X271100D01*
X271850Y147750D01*
Y146250D01*
X268100Y142500D02*X271850Y146250D01*
X268100Y142500D02*X271850D01*
X273650Y143250D02*X274400Y142500D01*
X273650Y147750D02*Y143250D01*
Y147750D02*X274400Y148500D01*
X275900D01*
X276650Y147750D01*
Y143250D01*
X275900Y142500D02*X276650Y143250D01*
X274400Y142500D02*X275900D01*
X273650Y144000D02*X276650Y147000D01*
X279200Y142500D02*X280700D01*
X279950Y148500D02*Y142500D01*
X278450Y147000D02*X279950Y148500D01*
X282500Y142500D02*X286250Y146250D01*
Y148500D02*Y146250D01*
X282500Y148500D02*X286250D01*
X291500Y142500D02*X293000D01*
X292250Y148500D02*Y142500D01*
X290750Y147000D02*X292250Y148500D01*
X294800Y143250D02*X295550Y142500D01*
X294800Y147750D02*Y143250D01*
Y147750D02*X295550Y148500D01*
X297050D01*
X297800Y147750D01*
Y143250D01*
X297050Y142500D02*X297800Y143250D01*
X295550Y142500D02*X297050D01*
X294800Y144000D02*X297800Y147000D01*
X299600Y146250D02*X300350D01*
X299600Y144750D02*X300350D01*
X302150Y147750D02*X302900Y148500D01*
X305150D01*
X305900Y147750D01*
Y146250D01*
X302150Y142500D02*X305900Y146250D01*
X302150Y142500D02*X305900D01*
X307700Y145500D02*X310700Y148500D01*
X307700Y145500D02*X311450D01*
X310700Y148500D02*Y142500D01*
X313250Y146250D02*X314000D01*
X313250Y144750D02*X314000D01*
X315800Y148500D02*X318800D01*
X315800D02*Y145500D01*
X316550Y146250D01*
X318050D01*
X318800Y145500D01*
Y143250D01*
X318050Y142500D02*X318800Y143250D01*
X316550Y142500D02*X318050D01*
X315800Y143250D02*X316550Y142500D01*
X320600D02*X323600Y145500D01*
Y147750D02*Y145500D01*
X322850Y148500D02*X323600Y147750D01*
X321350Y148500D02*X322850D01*
X320600Y147750D02*X321350Y148500D01*
X320600Y147750D02*Y146250D01*
X321350Y145500D01*
X323600D01*
X328850Y148500D02*Y142500D01*
X328100Y148500D02*X331100D01*
X331850Y147750D01*
Y146250D01*
X331100Y145500D02*X331850Y146250D01*
X328850Y145500D02*X331100D01*
X333650Y148500D02*Y142500D01*
Y148500D02*X335900Y146250D01*
X338150Y148500D01*
Y142500D01*
X345650Y148500D02*X346400Y147750D01*
X343400Y148500D02*X345650D01*
X342650Y147750D02*X343400Y148500D01*
X342650Y147750D02*Y143250D01*
X343400Y142500D01*
X345650D01*
X346400Y143250D01*
Y144750D02*Y143250D01*
X345650Y145500D02*X346400Y144750D01*
X344150Y145500D02*X345650D01*
X348200Y148500D02*Y142500D01*
Y148500D02*X350450Y146250D01*
X352700Y148500D01*
Y142500D01*
X354500Y148500D02*X357500D01*
X356000D02*Y142500D01*
X362000Y148500D02*Y143250D01*
X362750Y142500D01*
X364250D01*
X365000Y143250D01*
Y148500D02*Y143250D01*
X366800Y148500D02*X369800D01*
X368300D02*Y142500D01*
X372350D02*X374600D01*
X371600Y143250D02*X372350Y142500D01*
X371600Y147750D02*Y143250D01*
Y147750D02*X372350Y148500D01*
X374600D01*
X200000Y162750D02*Y157500D01*
Y162750D02*X200750Y163500D01*
X203000D01*
X203750Y162750D01*
Y157500D01*
X200000Y160500D02*X203750D01*
X205550D02*Y158250D01*
X206300Y157500D01*
X207800D01*
X208550Y158250D01*
Y160500D02*Y158250D01*
X211100Y163500D02*Y158250D01*
X211850Y157500D01*
X210350Y161250D02*X211850D01*
X213350Y163500D02*Y157500D01*
Y159750D02*X214100Y160500D01*
X215600D01*
X216350Y159750D01*
Y157500D01*
X218150Y159750D02*Y158250D01*
Y159750D02*X218900Y160500D01*
X220400D01*
X221150Y159750D01*
Y158250D01*
X220400Y157500D02*X221150Y158250D01*
X218900Y157500D02*X220400D01*
X218150Y158250D02*X218900Y157500D01*
X223700Y159750D02*Y157500D01*
Y159750D02*X224450Y160500D01*
X225950D01*
X222950D02*X223700Y159750D01*
X227750Y161250D02*X228500D01*
X227750Y159750D02*X228500D01*
X233000Y163500D02*Y157500D01*
Y163500D02*Y162750D01*
X236750Y159000D01*
Y163500D02*Y157500D01*
X240800Y160500D02*X241550Y159750D01*
X239300Y160500D02*X240800D01*
X238550Y159750D02*X239300Y160500D01*
X238550Y159750D02*Y158250D01*
X239300Y157500D01*
X241550Y160500D02*Y158250D01*
X242300Y157500D01*
X239300D02*X240800D01*
X241550Y158250D01*
X244850Y163500D02*Y158250D01*
X245600Y157500D01*
X244100Y161250D02*X245600D01*
X247100Y163500D02*Y157500D01*
Y159750D02*X247850Y160500D01*
X249350D01*
X250100Y159750D01*
Y157500D01*
X254150Y160500D02*X254900Y159750D01*
X252650Y160500D02*X254150D01*
X251900Y159750D02*X252650Y160500D01*
X251900Y159750D02*Y158250D01*
X252650Y157500D01*
X254900Y160500D02*Y158250D01*
X255650Y157500D01*
X252650D02*X254150D01*
X254900Y158250D01*
X258200Y159750D02*Y157500D01*
Y159750D02*X258950Y160500D01*
X259700D01*
X260450Y159750D01*
Y157500D01*
X257450Y160500D02*X258200Y159750D01*
X265700Y163500D02*Y157500D01*
X267950Y163500D02*X268700Y162750D01*
Y158250D01*
X267950Y157500D02*X268700Y158250D01*
X264950Y157500D02*X267950D01*
X264950Y163500D02*X267950D01*
X270500Y157500D02*X271250D01*
X275750Y163500D02*Y157500D01*
X279500Y163500D02*Y157500D01*
X275750Y160500D02*X279500D01*
X281300Y159750D02*Y158250D01*
Y159750D02*X282050Y160500D01*
X283550D01*
X284300Y159750D01*
Y158250D01*
X283550Y157500D02*X284300Y158250D01*
X282050Y157500D02*X283550D01*
X281300Y158250D02*X282050Y157500D01*
X286100Y163500D02*Y158250D01*
X286850Y157500D01*
X289100Y159750D02*Y157500D01*
Y159750D02*X289850Y160500D01*
X290600D01*
X291350Y159750D01*
Y157500D01*
Y159750D02*X292100Y160500D01*
X292850D01*
X293600Y159750D01*
Y157500D01*
X288350Y160500D02*X289100Y159750D01*
X296150Y157500D02*X298400D01*
X295400Y158250D02*X296150Y157500D01*
X295400Y159750D02*Y158250D01*
Y159750D02*X296150Y160500D01*
X297650D01*
X298400Y159750D01*
X295400Y159000D02*X298400D01*
Y159750D02*Y159000D01*
X300950Y157500D02*X303200D01*
X303950Y158250D01*
X303200Y159000D02*X303950Y158250D01*
X300950Y159000D02*X303200D01*
X300200Y159750D02*X300950Y159000D01*
X300200Y159750D02*X300950Y160500D01*
X303200D01*
X303950Y159750D01*
X300200Y158250D02*X300950Y157500D01*
X200000Y178500D02*X203000D01*
X201500D02*Y172500D01*
X204800Y177000D02*Y176250D01*
Y174750D02*Y172500D01*
X207050Y178500D02*Y173250D01*
X207800Y172500D01*
X206300Y176250D02*X207800D01*
X209300Y178500D02*Y173250D01*
X210050Y172500D01*
X212300D02*X214550D01*
X211550Y173250D02*X212300Y172500D01*
X211550Y174750D02*Y173250D01*
Y174750D02*X212300Y175500D01*
X213800D01*
X214550Y174750D01*
X211550Y174000D02*X214550D01*
Y174750D02*Y174000D01*
X216350Y176250D02*X217100D01*
X216350Y174750D02*X217100D01*
X221600Y173250D02*X222350Y172500D01*
X221600Y177750D02*X222350Y178500D01*
X221600Y177750D02*Y173250D01*
X224150Y175500D02*Y173250D01*
X224900Y172500D01*
X226400D01*
X227150Y173250D01*
Y175500D02*Y173250D01*
X229700Y174750D02*Y172500D01*
Y174750D02*X230450Y175500D01*
X231200D01*
X231950Y174750D01*
Y172500D01*
X228950Y175500D02*X229700Y174750D01*
X233750Y178500D02*Y172500D01*
Y174750D02*X236000Y172500D01*
X233750Y174750D02*X235250Y176250D01*
X238550Y174750D02*Y172500D01*
Y174750D02*X239300Y175500D01*
X240050D01*
X240800Y174750D01*
Y172500D01*
X237800Y175500D02*X238550Y174750D01*
X242600D02*Y173250D01*
Y174750D02*X243350Y175500D01*
X244850D01*
X245600Y174750D01*
Y173250D01*
X244850Y172500D02*X245600Y173250D01*
X243350Y172500D02*X244850D01*
X242600Y173250D02*X243350Y172500D01*
X247400Y175500D02*Y173250D01*
X248150Y172500D01*
X248900D01*
X249650Y173250D01*
Y175500D02*Y173250D01*
X250400Y172500D01*
X251150D01*
X251900Y173250D01*
Y175500D02*Y173250D01*
X254450Y174750D02*Y172500D01*
Y174750D02*X255200Y175500D01*
X255950D01*
X256700Y174750D01*
Y172500D01*
X253700Y175500D02*X254450Y174750D01*
X258500Y178500D02*X259250Y177750D01*
Y173250D01*
X258500Y172500D02*X259250Y173250D01*
X263750Y175500D02*X266750D01*
X271250Y178500D02*Y172500D01*
Y178500D02*X274250D01*
X271250Y175500D02*X273500D01*
X278300D02*X279050Y174750D01*
X276800Y175500D02*X278300D01*
X276050Y174750D02*X276800Y175500D01*
X276050Y174750D02*Y173250D01*
X276800Y172500D01*
X279050Y175500D02*Y173250D01*
X279800Y172500D01*
X276800D02*X278300D01*
X279050Y173250D01*
X281600Y178500D02*Y172500D01*
Y173250D02*X282350Y172500D01*
X283850D01*
X284600Y173250D01*
Y174750D02*Y173250D01*
X283850Y175500D02*X284600Y174750D01*
X282350Y175500D02*X283850D01*
X281600Y174750D02*X282350Y175500D01*
X287150Y174750D02*Y172500D01*
Y174750D02*X287900Y175500D01*
X289400D01*
X286400D02*X287150Y174750D01*
X291200Y177000D02*Y176250D01*
Y174750D02*Y172500D01*
X293450Y175500D02*X295700D01*
X292700Y174750D02*X293450Y175500D01*
X292700Y174750D02*Y173250D01*
X293450Y172500D01*
X295700D01*
X299750Y175500D02*X300500Y174750D01*
X298250Y175500D02*X299750D01*
X297500Y174750D02*X298250Y175500D01*
X297500Y174750D02*Y173250D01*
X298250Y172500D01*
X300500Y175500D02*Y173250D01*
X301250Y172500D01*
X298250D02*X299750D01*
X300500Y173250D01*
X303800Y178500D02*Y173250D01*
X304550Y172500D01*
X303050Y176250D02*X304550D01*
X306050Y177000D02*Y176250D01*
Y174750D02*Y172500D01*
X307550Y174750D02*Y173250D01*
Y174750D02*X308300Y175500D01*
X309800D01*
X310550Y174750D01*
Y173250D01*
X309800Y172500D02*X310550Y173250D01*
X308300Y172500D02*X309800D01*
X307550Y173250D02*X308300Y172500D01*
X313100Y174750D02*Y172500D01*
Y174750D02*X313850Y175500D01*
X314600D01*
X315350Y174750D01*
Y172500D01*
X312350Y175500D02*X313100Y174750D01*
X320600Y178500D02*Y172500D01*
X322850Y178500D02*X323600Y177750D01*
Y173250D01*
X322850Y172500D02*X323600Y173250D01*
X319850Y172500D02*X322850D01*
X319850Y178500D02*X322850D01*
X326150Y174750D02*Y172500D01*
Y174750D02*X326900Y175500D01*
X328400D01*
X325400D02*X326150Y174750D01*
X332450Y175500D02*X333200Y174750D01*
X330950Y175500D02*X332450D01*
X330200Y174750D02*X330950Y175500D01*
X330200Y174750D02*Y173250D01*
X330950Y172500D01*
X333200Y175500D02*Y173250D01*
X333950Y172500D01*
X330950D02*X332450D01*
X333200Y173250D01*
X335750Y175500D02*Y173250D01*
X336500Y172500D01*
X337250D01*
X338000Y173250D01*
Y175500D02*Y173250D01*
X338750Y172500D01*
X339500D01*
X340250Y173250D01*
Y175500D02*Y173250D01*
X342050Y177000D02*Y176250D01*
Y174750D02*Y172500D01*
X344300Y174750D02*Y172500D01*
Y174750D02*X345050Y175500D01*
X345800D01*
X346550Y174750D01*
Y172500D01*
X343550Y175500D02*X344300Y174750D01*
X350600Y175500D02*X351350Y174750D01*
X349100Y175500D02*X350600D01*
X348350Y174750D02*X349100Y175500D01*
X348350Y174750D02*Y173250D01*
X349100Y172500D01*
X350600D01*
X351350Y173250D01*
X348350Y171000D02*X349100Y170250D01*
X350600D01*
X351350Y171000D01*
Y175500D02*Y171000D01*
M02*
