G04 start of page 9 for group -4078 idx -4078 *
G04 Title: (unknown), bottomsilk *
G04 Creator: pcb 20140316 *
G04 CreationDate: Fri 17 Nov 2017 10:24:59 PM GMT UTC *
G04 For: ndholmes *
G04 Format: Gerber/RS-274X *
G04 PCB-Dimensions (mil): 1700.00 1200.00 *
G04 PCB-Coordinate-Origin: lower left *
%MOIN*%
%FSLAX25Y25*%
%LNBOTTOMSILK*%
%ADD75C,0.0080*%
G54D75*X36000Y98000D02*Y99000D01*
Y98000D02*X35000Y97000D01*
X34000Y98000D01*
Y99000D01*
X32800Y100500D02*X32300Y101000D01*
X30800D02*X32300D01*
X30800D02*X30300Y100500D01*
Y99500D02*Y100500D01*
X32800Y97000D02*X30300Y99500D01*
Y97000D02*X32800D01*
X28600D02*X29100D01*
X27400Y99000D02*X25400Y101000D01*
X24900Y99000D02*X27400D01*
X25400Y97000D02*Y101000D01*
X3500Y115000D02*X6500D01*
X7500Y114000D01*
X6500Y113000D01*
X3500D02*X6500D01*
X3500Y111300D02*X7500D01*
X3500Y109800D02*X4000Y109300D01*
X7000D01*
X7500Y109800D02*X7000Y109300D01*
X7500Y109800D02*Y111800D01*
X3500Y109800D02*Y111800D01*
Y107600D02*X7500D01*
X3500Y106100D02*X4000Y105600D01*
X7000D01*
X7500Y106100D02*X7000Y105600D01*
X7500Y106100D02*Y108100D01*
X3500Y106100D02*Y108100D01*
Y99500D02*X4000Y99000D01*
X3500Y99500D02*Y101000D01*
X4000Y101500D02*X3500Y101000D01*
X4000Y101500D02*X7000D01*
X7500Y101000D01*
Y99500D02*Y101000D01*
Y99500D02*X7000Y99000D01*
X6000D02*X7000D01*
X5500Y99500D02*X6000Y99000D01*
X5500Y99500D02*Y100500D01*
X3500Y97800D02*X7500D01*
X3500D02*X4000D01*
X6500Y95300D01*
X3500D02*X7500D01*
X3500Y93600D02*X7500D01*
X3500Y92100D02*X4000Y91600D01*
X7000D01*
X7500Y92100D02*X7000Y91600D01*
X7500Y92100D02*Y94100D01*
X3500Y92100D02*Y94100D01*
X7500Y86000D02*Y87500D01*
X7000Y88000D02*X7500Y87500D01*
X4000Y88000D02*X7000D01*
X4000D02*X3500Y87500D01*
Y86000D02*Y87500D01*
Y84800D02*X7500D01*
X3500D02*X4000D01*
X6500Y82300D01*
X3500D02*X7500D01*
X3500Y79100D02*Y81100D01*
Y80100D02*X7500D01*
X3500Y77900D02*X7500D01*
Y75900D02*Y77900D01*
X10000Y22500D02*Y25500D01*
Y22500D02*X10500Y22000D01*
X11500D01*
X12000Y22500D01*
Y25500D01*
X11500Y26000D02*X12000Y25500D01*
X10500Y26000D02*X11500D01*
X10000Y25500D02*X10500Y26000D01*
X13200Y22000D02*Y25500D01*
X13700Y26000D01*
X14700D01*
X15200Y25500D01*
Y22000D02*Y25500D01*
X16400Y22000D02*X18400D01*
X17400D02*Y26000D01*
X20100Y22000D02*Y26000D01*
X19600Y22000D02*X21600D01*
X22100Y22500D01*
Y23500D01*
X21600Y24000D02*X22100Y23500D01*
X20100Y24000D02*X21600D01*
X23300Y22000D02*Y25500D01*
X23800Y26000D01*
X24800D01*
X25300Y25500D01*
Y22000D02*Y25500D01*
X26500Y22000D02*X28500D01*
X27500D02*Y26000D01*
X31500Y24500D02*X33500D01*
X31500Y23500D02*X33500D01*
X33000Y23000D02*Y25000D01*
X32000Y23000D02*Y25000D01*
X34700Y22500D02*X35200Y22000D01*
X36700D01*
X37200Y22500D01*
Y23500D01*
X34700Y26000D02*X37200Y23500D01*
X34700Y26000D02*X37200D01*
X100000Y109500D02*X101000D01*
X100500Y105500D02*Y109500D01*
X100000Y105500D02*X101000D01*
X98800Y106000D02*Y107000D01*
X98300Y107500D01*
X97300D02*X98300D01*
X97300D02*X96800Y107000D01*
Y106000D02*Y107000D01*
X97300Y105500D02*X96800Y106000D01*
X97300Y105500D02*X98300D01*
X98800Y106000D02*X98300Y105500D01*
X95600Y106000D02*Y107500D01*
Y106000D02*X95100Y105500D01*
X94600D02*X95100D01*
X94600D02*X94100Y106000D01*
Y107500D01*
Y106000D02*X93600Y105500D01*
X93100D02*X93600D01*
X93100D02*X92600Y106000D01*
Y107500D01*
X89900D02*X89400Y107000D01*
X89900Y107500D02*X90900D01*
X91400Y107000D02*X90900Y107500D01*
X91400Y106000D02*Y107000D01*
Y106000D02*X90900Y105500D01*
X89400Y106000D02*Y107500D01*
Y106000D02*X88900Y105500D01*
X89900D02*X90900D01*
X89900D02*X89400Y106000D01*
X83900Y109500D02*X83400Y109000D01*
X83900Y109500D02*X85400D01*
X85900Y109000D02*X85400Y109500D01*
X85900Y108000D02*Y109000D01*
Y108000D02*X85400Y107500D01*
X83900D02*X85400D01*
X83900D02*X83400Y107000D01*
Y106000D02*Y107000D01*
X83900Y105500D02*X83400Y106000D01*
X83900Y105500D02*X85400D01*
X85900Y106000D02*X85400Y105500D01*
X80200Y107500D02*X81700D01*
X82200Y107000D02*X81700Y107500D01*
X82200Y106000D02*Y107000D01*
Y106000D02*X81700Y105500D01*
X80200D02*X81700D01*
X77500Y107500D02*X77000Y107000D01*
X77500Y107500D02*X78500D01*
X79000Y107000D02*X78500Y107500D01*
X79000Y106000D02*Y107000D01*
Y106000D02*X78500Y105500D01*
X77000Y106000D02*Y107500D01*
Y106000D02*X76500Y105500D01*
X77500D02*X78500D01*
X77500D02*X77000Y106000D01*
X75300D02*Y109500D01*
Y106000D02*X74800Y105500D01*
X71800D02*X73300D01*
X73800Y106000D02*X73300Y105500D01*
X73800Y106000D02*Y107000D01*
X73300Y107500D01*
X72300D02*X73300D01*
X72300D02*X71800Y107000D01*
Y106500D02*X73800D01*
X71800D02*Y107000D01*
X68600Y105500D02*Y109500D01*
X69100Y105500D02*X68600Y106000D01*
X69100Y105500D02*X70100D01*
X70600Y106000D02*X70100Y105500D01*
X70600Y106000D02*Y107000D01*
X70100Y107500D01*
X69100D02*X70100D01*
X69100D02*X68600Y107000D01*
X64100Y107500D02*X65600D01*
X63600Y105500D02*X65600D01*
Y109500D01*
X63600D02*X65600D01*
X61900Y105500D02*Y107000D01*
X61400Y107500D01*
X60900D02*X61400D01*
X60900D02*X60400Y107000D01*
Y105500D02*Y107000D01*
X62400Y107500D02*X61900Y107000D01*
X57700Y107500D02*X57200Y107000D01*
X57700Y107500D02*X58700D01*
X59200Y107000D02*X58700Y107500D01*
X59200Y106000D02*Y107000D01*
Y106000D02*X58700Y105500D01*
X57700D02*X58700D01*
X57700D02*X57200Y106000D01*
X59200Y104500D02*X58700Y104000D01*
X57700D02*X58700D01*
X57700D02*X57200Y104500D01*
Y107500D01*
X56000Y108000D02*Y108500D01*
Y105500D02*Y107000D01*
X54500Y105500D02*Y107000D01*
X54000Y107500D01*
X53500D02*X54000D01*
X53500D02*X53000Y107000D01*
Y105500D02*Y107000D01*
X55000Y107500D02*X54500Y107000D01*
X49800Y105500D02*X51300D01*
X51800Y106000D02*X51300Y105500D01*
X51800Y106000D02*Y107000D01*
X51300Y107500D01*
X50300D02*X51300D01*
X50300D02*X49800Y107000D01*
Y106500D02*X51800D01*
X49800D02*Y107000D01*
X46600Y105500D02*X48100D01*
X48600Y106000D02*X48100Y105500D01*
X48600Y106000D02*Y107000D01*
X48100Y107500D01*
X47100D02*X48100D01*
X47100D02*X46600Y107000D01*
Y106500D02*X48600D01*
X46600D02*Y107000D01*
X44900Y105500D02*Y107000D01*
X44400Y107500D01*
X43400D02*X44400D01*
X45400D02*X44900Y107000D01*
X42200Y108000D02*Y108500D01*
Y105500D02*Y107000D01*
X40700Y105500D02*Y107000D01*
X40200Y107500D01*
X39700D02*X40200D01*
X39700D02*X39200Y107000D01*
Y105500D02*Y107000D01*
X41200Y107500D02*X40700Y107000D01*
X36500Y107500D02*X36000Y107000D01*
X36500Y107500D02*X37500D01*
X38000Y107000D02*X37500Y107500D01*
X38000Y106000D02*Y107000D01*
Y106000D02*X37500Y105500D01*
X36500D02*X37500D01*
X36500D02*X36000Y106000D01*
X38000Y104500D02*X37500Y104000D01*
X36500D02*X37500D01*
X36500D02*X36000Y104500D01*
Y107500D01*
X167000Y112000D02*Y116000D01*
Y113500D02*X166500Y114000D01*
X165500D02*X166500D01*
X165500D02*X165000Y113500D01*
Y112000D02*Y113500D01*
X163300Y112500D02*Y116000D01*
Y112500D02*X162800Y112000D01*
Y114500D02*X163800D01*
X161300Y112500D02*Y116000D01*
Y112500D02*X160800Y112000D01*
Y114500D02*X161800D01*
X159300Y110500D02*Y113500D01*
X159800Y114000D02*X159300Y113500D01*
X158800Y114000D01*
X157800D02*X158800D01*
X157800D02*X157300Y113500D01*
Y112500D02*Y113500D01*
X157800Y112000D02*X157300Y112500D01*
X157800Y112000D02*X158800D01*
X159300Y112500D02*X158800Y112000D01*
X155600Y114500D02*X156100D01*
X155600Y113500D02*X156100D01*
X154400Y112500D02*X151400Y115500D01*
X150200Y112500D02*X147200Y115500D01*
X146000Y114500D02*Y115000D01*
Y112000D02*Y113500D01*
X143500Y114000D02*X143000Y113500D01*
X143500Y114000D02*X144500D01*
X145000Y113500D02*X144500Y114000D01*
X145000Y112500D02*Y113500D01*
Y112500D02*X144500Y112000D01*
X143000Y112500D02*Y114000D01*
Y112500D02*X142500Y112000D01*
X143500D02*X144500D01*
X143500D02*X143000Y112500D01*
X139300Y112000D02*X140800D01*
X139300D02*X138800Y112500D01*
X139300Y113000D02*X138800Y112500D01*
X139300Y113000D02*X140800D01*
X141300Y113500D02*X140800Y113000D01*
X141300Y113500D02*X140800Y114000D01*
X139300D02*X140800D01*
X139300D02*X138800Y113500D01*
X141300Y112500D02*X140800Y112000D01*
X135600Y114000D02*X137100D01*
X137600Y113500D02*X137100Y114000D01*
X137600Y112500D02*Y113500D01*
Y112500D02*X137100Y112000D01*
X135600D02*X137100D01*
X132900Y114000D02*X132400Y113500D01*
X132900Y114000D02*X133900D01*
X134400Y113500D02*X133900Y114000D01*
X134400Y112500D02*Y113500D01*
Y112500D02*X133900Y112000D01*
X132400Y112500D02*Y114000D01*
Y112500D02*X131900Y112000D01*
X132900D02*X133900D01*
X132900D02*X132400Y112500D01*
X130700D02*Y116000D01*
Y112500D02*X130200Y112000D01*
X127200D02*X128700D01*
X129200Y112500D02*X128700Y112000D01*
X129200Y112500D02*Y113500D01*
X128700Y114000D01*
X127700D02*X128700D01*
X127700D02*X127200Y113500D01*
Y113000D02*X129200D01*
X127200D02*Y113500D01*
X124000Y112000D02*Y116000D01*
X124500Y112000D02*X124000Y112500D01*
X124500Y112000D02*X125500D01*
X126000Y112500D02*X125500Y112000D01*
X126000Y112500D02*Y113500D01*
X125500Y114000D01*
X124500D02*X125500D01*
X124500D02*X124000Y113500D01*
X122300Y112000D02*X122800D01*
X119100Y114000D02*X120600D01*
X121100Y113500D02*X120600Y114000D01*
X121100Y112500D02*Y113500D01*
Y112500D02*X120600Y112000D01*
X119100D02*X120600D01*
X117900Y112500D02*Y113500D01*
X117400Y114000D01*
X116400D02*X117400D01*
X116400D02*X115900Y113500D01*
Y112500D02*Y113500D01*
X116400Y112000D02*X115900Y112500D01*
X116400Y112000D02*X117400D01*
X117900Y112500D02*X117400Y112000D01*
X114200D02*Y113500D01*
X113700Y114000D01*
X113200D02*X113700D01*
X113200D02*X112700Y113500D01*
Y112000D02*Y113500D01*
X112200Y114000D01*
X111700D02*X112200D01*
X111700D02*X111200Y113500D01*
Y112000D02*Y113500D01*
X114700Y114000D02*X114200Y113500D01*
X133586Y102500D02*X133086Y102000D01*
X133586Y105500D02*X133086Y106000D01*
X133586Y102500D02*Y105500D01*
X129886Y102000D02*X131386D01*
X131886Y102500D02*X131386Y102000D01*
X131886Y102500D02*Y105500D01*
X131386Y106000D01*
X129886D02*X131386D01*
X128686D02*X128186Y105500D01*
Y102500D02*Y105500D01*
X128686Y102000D02*X128186Y102500D01*
X125186Y105500D02*X124686Y106000D01*
X123186D02*X124686D01*
X123186D02*X122686Y105500D01*
Y104500D02*Y105500D01*
X125186Y102000D02*X122686Y104500D01*
Y102000D02*X125186D01*
X121486Y102500D02*X120986Y102000D01*
X121486Y102500D02*Y105500D01*
X120986Y106000D01*
X119986D02*X120986D01*
X119986D02*X119486Y105500D01*
Y102500D02*Y105500D01*
X119986Y102000D02*X119486Y102500D01*
X119986Y102000D02*X120986D01*
X121486Y103000D02*X119486Y105000D01*
X116786Y102000D02*X117786D01*
X117286D02*Y106000D01*
X118286Y105000D02*X117286Y106000D01*
X113586D02*X115586D01*
Y104000D02*Y106000D01*
Y104000D02*X115086Y104500D01*
X114086D02*X115086D01*
X114086D02*X113586Y104000D01*
Y102500D02*Y104000D01*
X114086Y102000D02*X113586Y102500D01*
X114086Y102000D02*X115086D01*
X115586Y102500D02*X115086Y102000D01*
X48000Y112000D02*Y116000D01*
X46500Y114500D01*
X45000Y116000D01*
Y112000D02*Y116000D01*
X41800D02*X43800D01*
X41800D02*X41300Y115500D01*
Y114500D02*Y115500D01*
X41800Y114000D02*X41300Y114500D01*
X41800Y114000D02*X43300D01*
Y112000D02*Y116000D01*
Y114000D02*X41300Y112000D01*
X38100Y116000D02*X37600Y115500D01*
X38100Y116000D02*X39600D01*
X40100Y115500D02*X39600Y116000D01*
X40100Y114500D02*Y115500D01*
Y114500D02*X39600Y114000D01*
X38100D02*X39600D01*
X38100D02*X37600Y113500D01*
Y112500D02*Y113500D01*
X38100Y112000D02*X37600Y112500D01*
X38100Y112000D02*X39600D01*
X40100Y112500D02*X39600Y112000D01*
X34900Y114000D02*X36400D01*
X34400Y112000D02*X36400D01*
Y116000D01*
X34400D02*X36400D01*
X31200D02*X33200D01*
X31200D02*X30700Y115500D01*
Y114500D02*Y115500D01*
X31200Y114000D02*X30700Y114500D01*
X31200Y114000D02*X32700D01*
Y112000D02*Y116000D01*
Y114000D02*X30700Y112000D01*
X29500Y113000D02*Y116000D01*
Y113000D02*X28500Y112000D01*
X27500Y113000D01*
Y116000D01*
X26300Y112500D02*Y115500D01*
X25800Y116000D01*
X24800D02*X25800D01*
X24800D02*X24300Y115500D01*
Y112500D02*Y115500D01*
X24800Y112000D02*X24300Y112500D01*
X24800Y112000D02*X25800D01*
X26300Y112500D02*X25800Y112000D01*
X59500Y22500D02*Y25500D01*
Y22500D02*X60000Y22000D01*
X61000D01*
X61500Y22500D01*
Y25500D01*
X61000Y26000D02*X61500Y25500D01*
X60000Y26000D02*X61000D01*
X59500Y25500D02*X60000Y26000D01*
X62700Y22000D02*Y25500D01*
X63200Y26000D01*
X64200D01*
X64700Y25500D01*
Y22000D02*Y25500D01*
X65900Y22000D02*X67900D01*
X66900D02*Y26000D01*
X69600Y22000D02*Y26000D01*
X69100Y22000D02*X71100D01*
X71600Y22500D01*
Y23500D01*
X71100Y24000D02*X71600Y23500D01*
X69600Y24000D02*X71100D01*
X72800Y22000D02*Y25500D01*
X73300Y26000D01*
X74300D01*
X74800Y25500D01*
Y22000D02*Y25500D01*
X76000Y22000D02*X78000D01*
X77000D02*Y26000D01*
X81000Y24500D02*X83000D01*
X81000Y23500D02*X83000D01*
X82500Y23000D02*Y25000D01*
X81500Y23000D02*Y25000D01*
X84700Y26000D02*X85700D01*
X85200Y22000D02*Y26000D01*
X84200Y23000D02*X85200Y22000D01*
X5000Y4000D02*Y8000D01*
Y4000D02*Y4500D01*
X7500Y7000D01*
Y4000D02*Y8000D01*
X8700Y4500D02*Y7500D01*
Y4500D02*X9200Y4000D01*
X10200D01*
X10700Y4500D01*
Y7500D01*
X10200Y8000D02*X10700Y7500D01*
X9200Y8000D02*X10200D01*
X8700Y7500D02*X9200Y8000D01*
X11900Y4000D02*X13900D01*
X14400Y4500D01*
Y5500D01*
X13900Y6000D02*X14400Y5500D01*
X12400Y6000D02*X13900D01*
X12400Y4000D02*Y8000D01*
Y6000D02*X14400Y8000D01*
X19500D02*X21000D01*
X19000Y7500D02*X19500Y8000D01*
X19000Y4500D02*Y7500D01*
Y4500D02*X19500Y4000D01*
X21000D01*
X22200Y4500D02*Y7500D01*
Y4500D02*X22700Y4000D01*
X23700D01*
X24200Y4500D01*
Y7500D01*
X23700Y8000D02*X24200Y7500D01*
X22700Y8000D02*X23700D01*
X22200Y7500D02*X22700Y8000D01*
X25400Y4000D02*Y8000D01*
Y4000D02*X26900Y5500D01*
X28400Y4000D01*
Y8000D01*
X32500Y4000D02*X34500D01*
X35000Y4500D01*
Y5500D01*
X34500Y6000D02*X35000Y5500D01*
X33000Y6000D02*X34500D01*
X33000Y4000D02*Y8000D01*
Y6000D02*X35000Y8000D01*
X36200Y6000D02*X37700D01*
X36200Y8000D02*X38200D01*
X36200Y4000D02*Y8000D01*
Y4000D02*X38200D01*
X39400D02*Y7000D01*
X40400Y8000D01*
X41400Y7000D01*
Y4000D02*Y7000D01*
X54500Y4000D02*Y8000D01*
Y4000D02*Y4500D01*
X57000Y7000D01*
Y4000D02*Y8000D01*
X58200Y4500D02*Y7500D01*
Y4500D02*X58700Y4000D01*
X59700D01*
X60200Y4500D01*
Y7500D01*
X59700Y8000D02*X60200Y7500D01*
X58700Y8000D02*X59700D01*
X58200Y7500D02*X58700Y8000D01*
X61400Y4000D02*X63400D01*
X63900Y4500D01*
Y5500D01*
X63400Y6000D02*X63900Y5500D01*
X61900Y6000D02*X63400D01*
X61900Y4000D02*Y8000D01*
Y6000D02*X63900Y8000D01*
X69000D02*X70500D01*
X68500Y7500D02*X69000Y8000D01*
X68500Y4500D02*Y7500D01*
Y4500D02*X69000Y4000D01*
X70500D01*
X71700Y4500D02*Y7500D01*
Y4500D02*X72200Y4000D01*
X73200D01*
X73700Y4500D01*
Y7500D01*
X73200Y8000D02*X73700Y7500D01*
X72200Y8000D02*X73200D01*
X71700Y7500D02*X72200Y8000D01*
X74900Y4000D02*Y8000D01*
Y4000D02*X76400Y5500D01*
X77900Y4000D01*
Y8000D01*
X82000Y4000D02*X84000D01*
X84500Y4500D01*
Y5500D01*
X84000Y6000D02*X84500Y5500D01*
X82500Y6000D02*X84000D01*
X82500Y4000D02*Y8000D01*
Y6000D02*X84500Y8000D01*
X85700Y6000D02*X87200D01*
X85700Y8000D02*X87700D01*
X85700Y4000D02*Y8000D01*
Y4000D02*X87700D01*
X88900D02*Y7000D01*
X89900Y8000D01*
X90900Y7000D01*
Y4000D02*Y7000D01*
X97700Y21000D02*X99200D01*
Y24500D01*
X98700Y25000D02*X99200Y24500D01*
X98200Y25000D02*X98700D01*
X97700Y24500D02*X98200Y25000D01*
X100900Y21000D02*Y25000D01*
X100400Y21000D02*X102400D01*
X102900Y21500D01*
Y22500D01*
X102400Y23000D02*X102900Y22500D01*
X100900Y23000D02*X102400D01*
X104600Y25000D02*X105600D01*
X105100Y21000D02*Y25000D01*
X104100Y22000D02*X105100Y21000D01*
M02*
