G04 start of page 2 for group 0 idx 0 *
G04 Title: (unknown), component *
G04 Creator: pcb 20110918 *
G04 CreationDate: Sun 03 Feb 2013 01:35:00 AM GMT UTC *
G04 For: petersen *
G04 Format: Gerber/RS-274X *
G04 PCB-Dimensions: 170000 48000 *
G04 PCB-Coordinate-Origin: lower left *
%MOIN*%
%FSLAX25Y25*%
%LNTOP*%
%ADD28C,0.1285*%
%ADD27C,0.0472*%
%ADD26C,0.0450*%
%ADD25C,0.0380*%
%ADD24R,0.0240X0.0240*%
%ADD23R,0.0360X0.0360*%
%ADD22R,0.0512X0.0512*%
%ADD21R,0.0340X0.0340*%
%ADD20C,0.2937*%
%ADD19C,0.0800*%
%ADD18C,0.0787*%
%ADD17C,0.0600*%
%ADD16C,0.0150*%
%ADD15C,0.0250*%
%ADD14C,0.0200*%
%ADD13C,0.0400*%
%ADD12C,0.0100*%
%ADD11C,0.0001*%
G54D11*G36*
X7000Y45500D02*X37000D01*
Y37500D01*
X7000D01*
Y45500D01*
G37*
G36*
X21500D01*
Y32000D01*
X7000D01*
Y45500D01*
G37*
G36*
X39500D02*X51000D01*
Y25000D01*
X39500D01*
Y45500D01*
G37*
G36*
X48000Y5000D02*X43000D01*
Y6063D01*
X44937D01*
X45094Y6072D01*
X45247Y6109D01*
X45392Y6169D01*
X45527Y6251D01*
X45646Y6354D01*
X45749Y6473D01*
X45831Y6608D01*
X45891Y6753D01*
X45928Y6906D01*
X45940Y7063D01*
X45928Y7220D01*
X45891Y7373D01*
X45831Y7518D01*
X45749Y7653D01*
X45646Y7772D01*
X45527Y7875D01*
X45392Y7957D01*
X45247Y8017D01*
X45094Y8054D01*
X44937Y8063D01*
X43000D01*
Y15937D01*
X44937D01*
X45094Y15946D01*
X45247Y15983D01*
X45392Y16043D01*
X45527Y16125D01*
X45646Y16228D01*
X45749Y16347D01*
X45831Y16482D01*
X45891Y16627D01*
X45928Y16780D01*
X45940Y16937D01*
X45928Y17094D01*
X45891Y17247D01*
X45831Y17392D01*
X45749Y17527D01*
X45646Y17646D01*
X45527Y17749D01*
X45392Y17831D01*
X45247Y17891D01*
X45094Y17928D01*
X44937Y17937D01*
X43000D01*
Y26500D01*
X48000D01*
Y15203D01*
X47834Y14932D01*
X47780Y14928D01*
X47627Y14891D01*
X47482Y14831D01*
X47347Y14749D01*
X47228Y14646D01*
X47125Y14527D01*
X47043Y14392D01*
X46983Y14247D01*
X46946Y14094D01*
X46937Y13937D01*
Y10063D01*
X46946Y9906D01*
X46983Y9753D01*
X47043Y9608D01*
X47125Y9473D01*
X47228Y9354D01*
X47347Y9251D01*
X47482Y9169D01*
X47627Y9109D01*
X47780Y9072D01*
X47834Y9068D01*
X48000Y8797D01*
Y5000D01*
G37*
G36*
X43000D02*X38063D01*
Y9060D01*
X38220Y9072D01*
X38373Y9109D01*
X38518Y9169D01*
X38653Y9251D01*
X38772Y9354D01*
X38875Y9473D01*
X38957Y9608D01*
X39017Y9753D01*
X39054Y9906D01*
X39063Y10063D01*
Y13937D01*
X39054Y14094D01*
X39017Y14247D01*
X38957Y14392D01*
X38875Y14527D01*
X38772Y14646D01*
X38653Y14749D01*
X38518Y14831D01*
X38373Y14891D01*
X38220Y14928D01*
X38063Y14940D01*
Y26500D01*
X43000D01*
Y17937D01*
X41063D01*
X40906Y17928D01*
X40753Y17891D01*
X40608Y17831D01*
X40473Y17749D01*
X40354Y17646D01*
X40251Y17527D01*
X40169Y17392D01*
X40109Y17247D01*
X40072Y17094D01*
X40060Y16937D01*
X40072Y16780D01*
X40109Y16627D01*
X40169Y16482D01*
X40251Y16347D01*
X40354Y16228D01*
X40473Y16125D01*
X40608Y16043D01*
X40753Y15983D01*
X40906Y15946D01*
X41063Y15937D01*
X43000D01*
Y8063D01*
X41063D01*
X40906Y8054D01*
X40753Y8017D01*
X40608Y7957D01*
X40473Y7875D01*
X40354Y7772D01*
X40251Y7653D01*
X40169Y7518D01*
X40109Y7373D01*
X40072Y7220D01*
X40060Y7063D01*
X40072Y6906D01*
X40109Y6753D01*
X40169Y6608D01*
X40251Y6473D01*
X40354Y6354D01*
X40473Y6251D01*
X40608Y6169D01*
X40753Y6109D01*
X40906Y6072D01*
X41063Y6063D01*
X43000D01*
Y5000D01*
G37*
G36*
X38063D02*X33500D01*
Y26500D01*
X38063D01*
Y14940D01*
X37906Y14928D01*
X37753Y14891D01*
X37608Y14831D01*
X37473Y14749D01*
X37354Y14646D01*
X37251Y14527D01*
X37169Y14392D01*
X37109Y14247D01*
X37072Y14094D01*
X37063Y13937D01*
Y10063D01*
X37072Y9906D01*
X37109Y9753D01*
X37169Y9608D01*
X37251Y9473D01*
X37354Y9354D01*
X37473Y9251D01*
X37608Y9169D01*
X37753Y9109D01*
X37906Y9072D01*
X38063Y9060D01*
Y5000D01*
G37*
G36*
X51000Y25000D02*X47000Y21000D01*
Y26000D01*
X51000D01*
Y25000D01*
G37*
G54D12*X90500Y15000D02*X91500Y14000D01*
G54D13*X113000Y7500D02*X103500Y17000D01*
G54D12*X99000Y22500D02*Y12000D01*
X98000Y11000D01*
Y4500D01*
X96500Y3000D01*
X107500D02*X103000Y7500D01*
X85800Y14700D02*X93000Y7500D01*
X109000Y19500D02*X118000Y10500D01*
Y4500D01*
X116500Y3000D01*
X107500D01*
G54D13*X55914Y31000D02*Y24414D01*
X53000Y21500D01*
Y12000D01*
X66000Y20000D02*X53500D01*
X63000Y31000D02*Y25000D01*
X34957Y31000D02*X30500D01*
X24000Y24500D01*
X14838D01*
X14673Y24665D01*
G54D12*X96500Y3000D02*X22559D01*
X14673Y10886D01*
G54D14*X81900Y17100D02*X82000Y17000D01*
G54D12*X90500Y23500D02*Y15000D01*
G54D14*X81900Y25600D02*Y17100D01*
Y8600D02*X83000Y7500D01*
G54D13*X78500D02*X66000Y20000D01*
G54D14*X139500Y34500D02*X142000D01*
X149000Y41500D01*
X139862Y42000D02*X138500D01*
X160810D02*Y34190D01*
X135500Y42000D02*X139862D01*
X160810Y34190D02*X161000Y34000D01*
G54D15*X81900Y30700D02*Y35900D01*
G54D14*X81000Y26500D02*X69500D01*
G54D12*X73500Y30500D02*X77800D01*
X78000Y30700D01*
G54D14*X81900Y25600D02*X81000Y26500D01*
G54D13*X83000Y7500D02*X78500D01*
G54D12*X73500Y22500D02*X78000D01*
G54D14*X69500Y26500D02*X68000Y28000D01*
Y35500D01*
X61000Y42500D01*
G54D13*X71000D02*X77500Y36000D01*
G54D14*X121500Y21000D02*X125500D01*
X119000Y26000D02*Y23500D01*
X121500Y21000D01*
X133000Y30500D02*X132500Y31000D01*
X125414D02*Y33914D01*
X127500Y36000D01*
X132500Y31000D02*Y21086D01*
X132586Y21000D01*
Y16914D02*X134500Y15000D01*
G54D12*X130000Y14500D02*X133000Y11500D01*
Y7500D01*
G54D14*X132586Y21000D02*Y16914D01*
X117500Y42000D02*X128052D01*
X127500Y36000D02*X131500D01*
X134000Y38500D01*
Y40500D01*
X135500Y42000D01*
G54D12*X119000Y14500D02*X130000D01*
G54D13*X103500Y33500D02*Y17000D01*
G54D12*X105043Y42500D02*Y38957D01*
G54D16*X96457Y42500D02*Y42543D01*
G54D12*X105043Y38957D02*X106500Y37500D01*
X81000Y42500D02*X97957D01*
G54D14*X115000Y39500D02*X117500Y42000D01*
G54D12*X106500Y37500D02*X110500D01*
G54D13*X101000Y36000D02*X103500Y33500D01*
X77500Y36000D02*X101000D01*
G54D15*X81900Y35900D02*X82000Y36000D01*
G54D14*X102900Y30700D02*X110700D01*
X115000Y35000D01*
Y39500D01*
G54D12*X95100Y30700D02*Y28100D01*
X90500Y23500D01*
X85800Y30700D02*X90300D01*
X90500Y30500D01*
X94900D02*X95100Y30700D01*
X85800Y22500D02*Y14700D01*
X114000Y26000D02*Y19500D01*
X119000Y14500D01*
G54D11*G36*
X58000Y45500D02*Y39500D01*
X64000D01*
Y45500D01*
X58000D01*
G37*
G54D17*X71000Y42500D03*
X81000D03*
X103000Y7500D03*
X93000D03*
X83000D03*
G54D18*X63000Y12000D03*
X53000D03*
G54D11*G36*
X39063Y15937D02*Y8063D01*
X46937D01*
Y15937D01*
X39063D01*
G37*
G36*
X10673Y42445D02*Y34445D01*
X18673D01*
Y42445D01*
X10673D01*
G37*
G54D19*X14673Y24665D03*
Y10886D03*
G54D20*X153000Y17000D03*
G54D11*G36*
X130000Y10500D02*Y4500D01*
X136000D01*
Y10500D01*
X130000D01*
G37*
G54D17*X123000Y7500D03*
X113000D03*
G54D21*X102900Y31000D02*Y30400D01*
X95100Y31000D02*Y30400D01*
X99000Y22800D02*Y22200D01*
G54D22*X149000Y43181D02*Y40819D01*
X160810Y43181D02*Y40819D01*
X132500Y31393D02*Y30607D01*
X125414Y31393D02*Y30607D01*
X139862Y43181D02*Y40819D01*
X128052Y43181D02*Y40819D01*
X132586Y21393D02*Y20607D01*
X125500Y21393D02*Y20607D01*
X105043Y42893D02*Y42107D01*
X97957Y42893D02*Y42107D01*
X63000Y31393D02*Y30607D01*
X55914Y31393D02*Y30607D01*
G54D23*X47400Y42100D02*Y40900D01*
X34500Y42100D02*Y40900D01*
G54D22*X42043Y31393D02*Y30607D01*
G54D24*X78000Y23300D02*Y21700D01*
X81900Y23300D02*Y21700D01*
X85800Y23300D02*Y21700D01*
Y31500D02*Y29900D01*
X81900Y31500D02*Y29900D01*
X78000Y31500D02*Y29900D01*
G54D22*X34957Y31393D02*Y30607D01*
G54D13*X73500Y22500D03*
Y30500D03*
X90500Y23500D03*
Y30500D03*
X63000Y25000D03*
X109000Y19500D03*
X139500Y34500D03*
X110500Y37500D03*
X119000Y26000D03*
X114000D03*
X161000Y34000D03*
X82000Y17000D03*
X134500Y15000D03*
X91500Y14000D03*
G54D14*G54D25*G54D26*G54D27*G54D28*G54D25*M02*
