G04 start of page 9 for group -4015 idx -4015 *
G04 Title: (unknown), toppaste *
G04 Creator: pcb 20110918 *
G04 CreationDate: Sun 03 Feb 2013 01:35:00 AM GMT UTC *
G04 For: petersen *
G04 Format: Gerber/RS-274X *
G04 PCB-Dimensions: 170000 48000 *
G04 PCB-Coordinate-Origin: lower left *
%MOIN*%
%FSLAX25Y25*%
%LNTOPPASTE*%
%ADD67R,0.0240X0.0240*%
%ADD66R,0.0360X0.0360*%
%ADD65R,0.0340X0.0340*%
%ADD64R,0.0512X0.0512*%
G54D64*X63000Y31393D02*Y30607D01*
X55914Y31393D02*Y30607D01*
G54D65*X102900Y31000D02*Y30400D01*
X95100Y31000D02*Y30400D01*
X99000Y22800D02*Y22200D01*
G54D66*X47400Y42100D02*Y40900D01*
X34500Y42100D02*Y40900D01*
G54D67*X78000Y23300D02*Y21700D01*
X81900Y23300D02*Y21700D01*
X85800Y23300D02*Y21700D01*
Y31500D02*Y29900D01*
X81900Y31500D02*Y29900D01*
X78000Y31500D02*Y29900D01*
G54D64*X149000Y43181D02*Y40819D01*
X160810Y43181D02*Y40819D01*
X132500Y31393D02*Y30607D01*
X125414Y31393D02*Y30607D01*
X132586Y21393D02*Y20607D01*
X125500Y21393D02*Y20607D01*
X42043Y31393D02*Y30607D01*
X34957Y31393D02*Y30607D01*
X105043Y42893D02*Y42107D01*
X97957Y42893D02*Y42107D01*
X139862Y43181D02*Y40819D01*
X128052Y43181D02*Y40819D01*
M02*
