G04 start of page 10 for group -3984 idx -3984 *
G04 Title: (unknown), fab *
G04 Creator: pcb 20110918 *
G04 CreationDate: Sun 03 Feb 2013 01:35:00 AM GMT UTC *
G04 For: petersen *
G04 Format: Gerber/RS-274X *
G04 PCB-Dimensions: 170000 48000 *
G04 PCB-Coordinate-Origin: lower left *
%MOIN*%
%FSLAX25Y25*%
%LNFAB*%
%ADD70C,0.0100*%
%ADD69C,0.0060*%
%ADD68R,0.0080X0.0080*%
G54D68*X151400Y18600D02*X154600D01*
X151400D02*Y15400D01*
X154600D01*
Y18600D02*Y15400D01*
X13400Y60850D02*X16600D01*
X13400D02*Y57650D01*
X16600D01*
Y60850D02*Y57650D01*
G54D69*X135000Y61500D02*Y60750D01*
X136500Y59250D01*
X138000Y60750D01*
Y61500D02*Y60750D01*
X136500Y59250D02*Y55500D01*
X139800Y58500D02*X142050D01*
X139800Y55500D02*X142800D01*
X139800Y61500D02*Y55500D01*
Y61500D02*X142800D01*
X147600D02*X148350Y60750D01*
X145350Y61500D02*X147600D01*
X144600Y60750D02*X145350Y61500D01*
X144600Y60750D02*Y59250D01*
X145350Y58500D01*
X147600D01*
X148350Y57750D01*
Y56250D01*
X147600Y55500D02*X148350Y56250D01*
X145350Y55500D02*X147600D01*
X144600Y56250D02*X145350Y55500D01*
X98750D02*X100250D01*
X99500Y61500D02*Y55500D01*
X98000Y60000D02*X99500Y61500D01*
X45000Y56250D02*X45750Y55500D01*
X45000Y60750D02*Y56250D01*
Y60750D02*X45750Y61500D01*
X47250D01*
X48000Y60750D01*
Y56250D01*
X47250Y55500D02*X48000Y56250D01*
X45750Y55500D02*X47250D01*
X45000Y57000D02*X48000Y60000D01*
X49800Y55500D02*X50550D01*
X53100D02*X54600D01*
X53850Y61500D02*Y55500D01*
X52350Y60000D02*X53850Y61500D01*
X56400Y60750D02*X57150Y61500D01*
X59400D01*
X60150Y60750D01*
Y59250D01*
X56400Y55500D02*X60150Y59250D01*
X56400Y55500D02*X60150D01*
X61950D02*X64950Y58500D01*
Y60750D02*Y58500D01*
X64200Y61500D02*X64950Y60750D01*
X62700Y61500D02*X64200D01*
X61950Y60750D02*X62700Y61500D01*
X61950Y60750D02*Y59250D01*
X62700Y58500D01*
X64950D01*
X13873Y38445D02*G75*G03X15473Y38445I800J0D01*G01*
G75*G03X13873Y38445I-800J0D01*G01*
Y24665D02*G75*G03X15473Y24665I800J0D01*G01*
G75*G03X13873Y24665I-800J0D01*G01*
Y10886D02*G75*G03X15473Y10886I800J0D01*G01*
G75*G03X13873Y10886I-800J0D01*G01*
X14200Y74250D02*G75*G03X15800Y74250I800J0D01*G01*
G75*G03X14200Y74250I-800J0D01*G01*
X135000Y76500D02*Y75750D01*
X136500Y74250D01*
X138000Y75750D01*
Y76500D02*Y75750D01*
X136500Y74250D02*Y70500D01*
X139800Y73500D02*X142050D01*
X139800Y70500D02*X142800D01*
X139800Y76500D02*Y70500D01*
Y76500D02*X142800D01*
X147600D02*X148350Y75750D01*
X145350Y76500D02*X147600D01*
X144600Y75750D02*X145350Y76500D01*
X144600Y75750D02*Y74250D01*
X145350Y73500D01*
X147600D01*
X148350Y72750D01*
Y71250D01*
X147600Y70500D02*X148350Y71250D01*
X145350Y70500D02*X147600D01*
X144600Y71250D02*X145350Y70500D01*
X98000Y75750D02*X98750Y76500D01*
X100250D01*
X101000Y75750D01*
Y71250D01*
X100250Y70500D02*X101000Y71250D01*
X98750Y70500D02*X100250D01*
X98000Y71250D02*X98750Y70500D01*
Y73500D02*X101000D01*
X45000Y71250D02*X45750Y70500D01*
X45000Y75750D02*Y71250D01*
Y75750D02*X45750Y76500D01*
X47250D01*
X48000Y75750D01*
Y71250D01*
X47250Y70500D02*X48000Y71250D01*
X45750Y70500D02*X47250D01*
X45000Y72000D02*X48000Y75000D01*
X49800Y70500D02*X50550D01*
X52350Y71250D02*X53100Y70500D01*
X52350Y75750D02*Y71250D01*
Y75750D02*X53100Y76500D01*
X54600D01*
X55350Y75750D01*
Y71250D01*
X54600Y70500D02*X55350Y71250D01*
X53100Y70500D02*X54600D01*
X52350Y72000D02*X55350Y75000D01*
X57150Y73500D02*X60150Y76500D01*
X57150Y73500D02*X60900D01*
X60150Y76500D02*Y70500D01*
X62700D02*X66450Y74250D01*
Y76500D02*Y74250D01*
X62700Y76500D02*X66450D01*
X61800Y13200D02*X64200Y10800D01*
X61800D02*X64200Y13200D01*
X51800D02*X54200Y10800D01*
X51800D02*X54200Y13200D01*
X41800D02*X44200Y10800D01*
X41800D02*X44200Y13200D01*
X13800Y90450D02*X16200Y88050D01*
X13800D02*X16200Y90450D01*
X135000Y91500D02*Y90750D01*
X136500Y89250D01*
X138000Y90750D01*
Y91500D02*Y90750D01*
X136500Y89250D02*Y85500D01*
X139800Y88500D02*X142050D01*
X139800Y85500D02*X142800D01*
X139800Y91500D02*Y85500D01*
Y91500D02*X142800D01*
X147600D02*X148350Y90750D01*
X145350Y91500D02*X147600D01*
X144600Y90750D02*X145350Y91500D01*
X144600Y90750D02*Y89250D01*
X145350Y88500D01*
X147600D01*
X148350Y87750D01*
Y86250D01*
X147600Y85500D02*X148350Y86250D01*
X145350Y85500D02*X147600D01*
X144600Y86250D02*X145350Y85500D01*
X98000Y90750D02*X98750Y91500D01*
X100250D01*
X101000Y90750D01*
Y86250D01*
X100250Y85500D02*X101000Y86250D01*
X98750Y85500D02*X100250D01*
X98000Y86250D02*X98750Y85500D01*
Y88500D02*X101000D01*
X45000Y86250D02*X45750Y85500D01*
X45000Y90750D02*Y86250D01*
Y90750D02*X45750Y91500D01*
X47250D01*
X48000Y90750D01*
Y86250D01*
X47250Y85500D02*X48000Y86250D01*
X45750Y85500D02*X47250D01*
X45000Y87000D02*X48000Y90000D01*
X49800Y85500D02*X50550D01*
X52350Y86250D02*X53100Y85500D01*
X52350Y90750D02*Y86250D01*
Y90750D02*X53100Y91500D01*
X54600D01*
X55350Y90750D01*
Y86250D01*
X54600Y85500D02*X55350Y86250D01*
X53100Y85500D02*X54600D01*
X52350Y87000D02*X55350Y90000D01*
X57150Y88500D02*X60150Y91500D01*
X57150Y88500D02*X60900D01*
X60150Y91500D02*Y85500D01*
X62700Y91500D02*X65700D01*
X62700D02*Y88500D01*
X63450Y89250D01*
X64950D01*
X65700Y88500D01*
Y86250D01*
X64950Y85500D02*X65700Y86250D01*
X63450Y85500D02*X64950D01*
X62700Y86250D02*X63450Y85500D01*
X61000Y44100D02*Y40900D01*
X59400Y42500D02*X62600D01*
X71000Y44100D02*Y40900D01*
X69400Y42500D02*X72600D01*
X81000Y44100D02*Y40900D01*
X79400Y42500D02*X82600D01*
X133000Y9100D02*Y5900D01*
X131400Y7500D02*X134600D01*
X123000Y9100D02*Y5900D01*
X121400Y7500D02*X124600D01*
X113000Y9100D02*Y5900D01*
X111400Y7500D02*X114600D01*
X103000Y9100D02*Y5900D01*
X101400Y7500D02*X104600D01*
X93000Y9100D02*Y5900D01*
X91400Y7500D02*X94600D01*
X83000Y9100D02*Y5900D01*
X81400Y7500D02*X84600D01*
X15000Y105850D02*Y102650D01*
X13400Y104250D02*X16600D01*
X135000Y106500D02*Y105750D01*
X136500Y104250D01*
X138000Y105750D01*
Y106500D02*Y105750D01*
X136500Y104250D02*Y100500D01*
X139800Y103500D02*X142050D01*
X139800Y100500D02*X142800D01*
X139800Y106500D02*Y100500D01*
Y106500D02*X142800D01*
X147600D02*X148350Y105750D01*
X145350Y106500D02*X147600D01*
X144600Y105750D02*X145350Y106500D01*
X144600Y105750D02*Y104250D01*
X145350Y103500D01*
X147600D01*
X148350Y102750D01*
Y101250D01*
X147600Y100500D02*X148350Y101250D01*
X145350Y100500D02*X147600D01*
X144600Y101250D02*X145350Y100500D01*
X98000D02*X101000Y103500D01*
Y105750D02*Y103500D01*
X100250Y106500D02*X101000Y105750D01*
X98750Y106500D02*X100250D01*
X98000Y105750D02*X98750Y106500D01*
X98000Y105750D02*Y104250D01*
X98750Y103500D01*
X101000D01*
X45000Y101250D02*X45750Y100500D01*
X45000Y105750D02*Y101250D01*
Y105750D02*X45750Y106500D01*
X47250D01*
X48000Y105750D01*
Y101250D01*
X47250Y100500D02*X48000Y101250D01*
X45750Y100500D02*X47250D01*
X45000Y102000D02*X48000Y105000D01*
X49800Y100500D02*X50550D01*
X52350Y101250D02*X53100Y100500D01*
X52350Y105750D02*Y101250D01*
Y105750D02*X53100Y106500D01*
X54600D01*
X55350Y105750D01*
Y101250D01*
X54600Y100500D02*X55350Y101250D01*
X53100Y100500D02*X54600D01*
X52350Y102000D02*X55350Y105000D01*
X57150Y105750D02*X57900Y106500D01*
X59400D01*
X60150Y105750D01*
Y101250D01*
X59400Y100500D02*X60150Y101250D01*
X57900Y100500D02*X59400D01*
X57150Y101250D02*X57900Y100500D01*
Y103500D02*X60150D01*
X61950Y101250D02*X62700Y100500D01*
X61950Y102750D02*Y101250D01*
Y102750D02*X62700Y103500D01*
X64200D01*
X64950Y102750D01*
Y101250D01*
X64200Y100500D02*X64950Y101250D01*
X62700Y100500D02*X64200D01*
X61950Y104250D02*X62700Y103500D01*
X61950Y105750D02*Y104250D01*
Y105750D02*X62700Y106500D01*
X64200D01*
X64950Y105750D01*
Y104250D01*
X64200Y103500D02*X64950Y104250D01*
X109000Y19500D02*Y17900D01*
Y19500D02*X110387Y20300D01*
X109000Y19500D02*X107613Y20300D01*
X73500Y22500D02*Y20900D01*
Y22500D02*X74887Y23300D01*
X73500Y22500D02*X72113Y23300D01*
X73500Y30500D02*Y28900D01*
Y30500D02*X74887Y31300D01*
X73500Y30500D02*X72113Y31300D01*
X90500Y23500D02*Y21900D01*
Y23500D02*X91887Y24300D01*
X90500Y23500D02*X89113Y24300D01*
X139500Y34500D02*Y32900D01*
Y34500D02*X140887Y35300D01*
X139500Y34500D02*X138113Y35300D01*
X110500Y37500D02*Y35900D01*
Y37500D02*X111887Y38300D01*
X110500Y37500D02*X109113Y38300D01*
X90500Y30500D02*Y28900D01*
Y30500D02*X91887Y31300D01*
X90500Y30500D02*X89113Y31300D01*
X119000Y26000D02*Y24400D01*
Y26000D02*X120387Y26800D01*
X119000Y26000D02*X117613Y26800D01*
X161000Y34000D02*Y32400D01*
Y34000D02*X162387Y34800D01*
X161000Y34000D02*X159613Y34800D01*
X114000Y26000D02*Y24400D01*
Y26000D02*X115387Y26800D01*
X114000Y26000D02*X112613Y26800D01*
X82000Y17000D02*Y15400D01*
Y17000D02*X83387Y17800D01*
X82000Y17000D02*X80613Y17800D01*
X134500Y15000D02*Y13400D01*
Y15000D02*X135887Y15800D01*
X134500Y15000D02*X133113Y15800D01*
X91500Y14000D02*Y12400D01*
Y14000D02*X92887Y14800D01*
X91500Y14000D02*X90113Y14800D01*
X63000Y25000D02*Y23400D01*
Y25000D02*X64387Y25800D01*
X63000Y25000D02*X61613Y25800D01*
X15000Y119250D02*Y117650D01*
Y119250D02*X16387Y120050D01*
X15000Y119250D02*X13613Y120050D01*
X135000Y121500D02*Y120750D01*
X136500Y119250D01*
X138000Y120750D01*
Y121500D02*Y120750D01*
X136500Y119250D02*Y115500D01*
X139800Y118500D02*X142050D01*
X139800Y115500D02*X142800D01*
X139800Y121500D02*Y115500D01*
Y121500D02*X142800D01*
X147600D02*X148350Y120750D01*
X145350Y121500D02*X147600D01*
X144600Y120750D02*X145350Y121500D01*
X144600Y120750D02*Y119250D01*
X145350Y118500D01*
X147600D01*
X148350Y117750D01*
Y116250D01*
X147600Y115500D02*X148350Y116250D01*
X145350Y115500D02*X147600D01*
X144600Y116250D02*X145350Y115500D01*
X98750D02*X100250D01*
X99500Y121500D02*Y115500D01*
X98000Y120000D02*X99500Y121500D01*
X102050Y118500D02*X105050Y121500D01*
X102050Y118500D02*X105800D01*
X105050Y121500D02*Y115500D01*
X45000Y116250D02*X45750Y115500D01*
X45000Y120750D02*Y116250D01*
Y120750D02*X45750Y121500D01*
X47250D01*
X48000Y120750D01*
Y116250D01*
X47250Y115500D02*X48000Y116250D01*
X45750Y115500D02*X47250D01*
X45000Y117000D02*X48000Y120000D01*
X49800Y115500D02*X50550D01*
X52350Y116250D02*X53100Y115500D01*
X52350Y120750D02*Y116250D01*
Y120750D02*X53100Y121500D01*
X54600D01*
X55350Y120750D01*
Y116250D01*
X54600Y115500D02*X55350Y116250D01*
X53100Y115500D02*X54600D01*
X52350Y117000D02*X55350Y120000D01*
X57150Y120750D02*X57900Y121500D01*
X60150D01*
X60900Y120750D01*
Y119250D01*
X57150Y115500D02*X60900Y119250D01*
X57150Y115500D02*X60900D01*
X62700Y116250D02*X63450Y115500D01*
X62700Y120750D02*Y116250D01*
Y120750D02*X63450Y121500D01*
X64950D01*
X65700Y120750D01*
Y116250D01*
X64950Y115500D02*X65700Y116250D01*
X63450Y115500D02*X64950D01*
X62700Y117000D02*X65700Y120000D01*
X3000Y136500D02*X3750Y135750D01*
X750Y136500D02*X3000D01*
X0Y135750D02*X750Y136500D01*
X0Y135750D02*Y134250D01*
X750Y133500D01*
X3000D01*
X3750Y132750D01*
Y131250D01*
X3000Y130500D02*X3750Y131250D01*
X750Y130500D02*X3000D01*
X0Y131250D02*X750Y130500D01*
X5550Y133500D02*Y131250D01*
X6300Y130500D01*
X8550Y133500D02*Y129000D01*
X7800Y128250D02*X8550Y129000D01*
X6300Y128250D02*X7800D01*
X5550Y129000D02*X6300Y128250D01*
Y130500D02*X7800D01*
X8550Y131250D01*
X11100Y132750D02*Y130500D01*
Y132750D02*X11850Y133500D01*
X12600D01*
X13350Y132750D01*
Y130500D01*
Y132750D02*X14100Y133500D01*
X14850D01*
X15600Y132750D01*
Y130500D01*
X10350Y133500D02*X11100Y132750D01*
X17400Y136500D02*Y130500D01*
Y131250D02*X18150Y130500D01*
X19650D01*
X20400Y131250D01*
Y132750D02*Y131250D01*
X19650Y133500D02*X20400Y132750D01*
X18150Y133500D02*X19650D01*
X17400Y132750D02*X18150Y133500D01*
X22200Y132750D02*Y131250D01*
Y132750D02*X22950Y133500D01*
X24450D01*
X25200Y132750D01*
Y131250D01*
X24450Y130500D02*X25200Y131250D01*
X22950Y130500D02*X24450D01*
X22200Y131250D02*X22950Y130500D01*
X27000Y136500D02*Y131250D01*
X27750Y130500D01*
X0Y127250D02*X29250D01*
X41750Y136500D02*Y130500D01*
X44000Y136500D02*X44750Y135750D01*
Y131250D01*
X44000Y130500D02*X44750Y131250D01*
X41000Y130500D02*X44000D01*
X41000Y136500D02*X44000D01*
X46550Y135000D02*Y134250D01*
Y132750D02*Y130500D01*
X50300Y133500D02*X51050Y132750D01*
X48800Y133500D02*X50300D01*
X48050Y132750D02*X48800Y133500D01*
X48050Y132750D02*Y131250D01*
X48800Y130500D01*
X51050Y133500D02*Y131250D01*
X51800Y130500D01*
X48800D02*X50300D01*
X51050Y131250D01*
X54350Y132750D02*Y130500D01*
Y132750D02*X55100Y133500D01*
X55850D01*
X56600Y132750D01*
Y130500D01*
Y132750D02*X57350Y133500D01*
X58100D01*
X58850Y132750D01*
Y130500D01*
X53600Y133500D02*X54350Y132750D01*
X60650Y130500D02*X61400D01*
X65900Y131250D02*X66650Y130500D01*
X65900Y135750D02*X66650Y136500D01*
X65900Y135750D02*Y131250D01*
X68450Y136500D02*X69950D01*
X69200D02*Y130500D01*
X68450D02*X69950D01*
X72500Y132750D02*Y130500D01*
Y132750D02*X73250Y133500D01*
X74000D01*
X74750Y132750D01*
Y130500D01*
X71750Y133500D02*X72500Y132750D01*
X77300Y133500D02*X79550D01*
X76550Y132750D02*X77300Y133500D01*
X76550Y132750D02*Y131250D01*
X77300Y130500D01*
X79550D01*
X81350Y136500D02*Y130500D01*
Y132750D02*X82100Y133500D01*
X83600D01*
X84350Y132750D01*
Y130500D01*
X86150Y136500D02*X86900Y135750D01*
Y131250D01*
X86150Y130500D02*X86900Y131250D01*
X41000Y127250D02*X88700D01*
X95750Y130500D02*X98000D01*
X95000Y131250D02*X95750Y130500D01*
X95000Y135750D02*Y131250D01*
Y135750D02*X95750Y136500D01*
X98000D01*
X99800Y132750D02*Y131250D01*
Y132750D02*X100550Y133500D01*
X102050D01*
X102800Y132750D01*
Y131250D01*
X102050Y130500D02*X102800Y131250D01*
X100550Y130500D02*X102050D01*
X99800Y131250D02*X100550Y130500D01*
X104600Y133500D02*Y131250D01*
X105350Y130500D01*
X106850D01*
X107600Y131250D01*
Y133500D02*Y131250D01*
X110150Y132750D02*Y130500D01*
Y132750D02*X110900Y133500D01*
X111650D01*
X112400Y132750D01*
Y130500D01*
X109400Y133500D02*X110150Y132750D01*
X114950Y136500D02*Y131250D01*
X115700Y130500D01*
X114200Y134250D02*X115700D01*
X95000Y127250D02*X117200D01*
X130750Y136500D02*Y130500D01*
X130000Y136500D02*X133000D01*
X133750Y135750D01*
Y134250D01*
X133000Y133500D02*X133750Y134250D01*
X130750Y133500D02*X133000D01*
X135550Y136500D02*Y131250D01*
X136300Y130500D01*
X140050Y133500D02*X140800Y132750D01*
X138550Y133500D02*X140050D01*
X137800Y132750D02*X138550Y133500D01*
X137800Y132750D02*Y131250D01*
X138550Y130500D01*
X140800Y133500D02*Y131250D01*
X141550Y130500D01*
X138550D02*X140050D01*
X140800Y131250D01*
X144100Y136500D02*Y131250D01*
X144850Y130500D01*
X143350Y134250D02*X144850D01*
X147100Y130500D02*X149350D01*
X146350Y131250D02*X147100Y130500D01*
X146350Y132750D02*Y131250D01*
Y132750D02*X147100Y133500D01*
X148600D01*
X149350Y132750D01*
X146350Y132000D02*X149350D01*
Y132750D02*Y132000D01*
X154150Y136500D02*Y130500D01*
X153400D02*X154150Y131250D01*
X151900Y130500D02*X153400D01*
X151150Y131250D02*X151900Y130500D01*
X151150Y132750D02*Y131250D01*
Y132750D02*X151900Y133500D01*
X153400D01*
X154150Y132750D01*
X157450Y133500D02*Y132750D01*
Y131250D02*Y130500D01*
X155950Y135750D02*Y135000D01*
Y135750D02*X156700Y136500D01*
X158200D01*
X158950Y135750D01*
Y135000D01*
X157450Y133500D02*X158950Y135000D01*
X130000Y127250D02*X160750D01*
X0Y151500D02*X3000D01*
X1500D02*Y145500D01*
X4800Y151500D02*Y145500D01*
Y147750D02*X5550Y148500D01*
X7050D01*
X7800Y147750D01*
Y145500D01*
X10350D02*X12600D01*
X9600Y146250D02*X10350Y145500D01*
X9600Y147750D02*Y146250D01*
Y147750D02*X10350Y148500D01*
X11850D01*
X12600Y147750D01*
X9600Y147000D02*X12600D01*
Y147750D02*Y147000D01*
X15150Y147750D02*Y145500D01*
Y147750D02*X15900Y148500D01*
X17400D01*
X14400D02*X15150Y147750D01*
X19950Y145500D02*X22200D01*
X19200Y146250D02*X19950Y145500D01*
X19200Y147750D02*Y146250D01*
Y147750D02*X19950Y148500D01*
X21450D01*
X22200Y147750D01*
X19200Y147000D02*X22200D01*
Y147750D02*Y147000D01*
X28950Y148500D02*X29700Y147750D01*
X27450Y148500D02*X28950D01*
X26700Y147750D02*X27450Y148500D01*
X26700Y147750D02*Y146250D01*
X27450Y145500D01*
X29700Y148500D02*Y146250D01*
X30450Y145500D01*
X27450D02*X28950D01*
X29700Y146250D01*
X33000Y147750D02*Y145500D01*
Y147750D02*X33750Y148500D01*
X35250D01*
X32250D02*X33000Y147750D01*
X37800Y145500D02*X40050D01*
X37050Y146250D02*X37800Y145500D01*
X37050Y147750D02*Y146250D01*
Y147750D02*X37800Y148500D01*
X39300D01*
X40050Y147750D01*
X37050Y147000D02*X40050D01*
Y147750D02*Y147000D01*
X44550Y151500D02*X47550D01*
X44550D02*Y148500D01*
X45300Y149250D01*
X46800D01*
X47550Y148500D01*
Y146250D01*
X46800Y145500D02*X47550Y146250D01*
X45300Y145500D02*X46800D01*
X44550Y146250D02*X45300Y145500D01*
X55050Y151500D02*Y145500D01*
X54300D02*X55050Y146250D01*
X52800Y145500D02*X54300D01*
X52050Y146250D02*X52800Y145500D01*
X52050Y147750D02*Y146250D01*
Y147750D02*X52800Y148500D01*
X54300D01*
X55050Y147750D01*
X56850Y150000D02*Y149250D01*
Y147750D02*Y145500D01*
X59100Y150750D02*Y145500D01*
Y150750D02*X59850Y151500D01*
X60600D01*
X58350Y148500D02*X59850D01*
X62850Y150750D02*Y145500D01*
Y150750D02*X63600Y151500D01*
X64350D01*
X62100Y148500D02*X63600D01*
X66600Y145500D02*X68850D01*
X65850Y146250D02*X66600Y145500D01*
X65850Y147750D02*Y146250D01*
Y147750D02*X66600Y148500D01*
X68100D01*
X68850Y147750D01*
X65850Y147000D02*X68850D01*
Y147750D02*Y147000D01*
X71400Y147750D02*Y145500D01*
Y147750D02*X72150Y148500D01*
X73650D01*
X70650D02*X71400Y147750D01*
X76200Y145500D02*X78450D01*
X75450Y146250D02*X76200Y145500D01*
X75450Y147750D02*Y146250D01*
Y147750D02*X76200Y148500D01*
X77700D01*
X78450Y147750D01*
X75450Y147000D02*X78450D01*
Y147750D02*Y147000D01*
X81000Y147750D02*Y145500D01*
Y147750D02*X81750Y148500D01*
X82500D01*
X83250Y147750D01*
Y145500D01*
X80250Y148500D02*X81000Y147750D01*
X85800Y151500D02*Y146250D01*
X86550Y145500D01*
X85050Y149250D02*X86550D01*
X93750Y151500D02*Y145500D01*
X93000D02*X93750Y146250D01*
X91500Y145500D02*X93000D01*
X90750Y146250D02*X91500Y145500D01*
X90750Y147750D02*Y146250D01*
Y147750D02*X91500Y148500D01*
X93000D01*
X93750Y147750D01*
X96300D02*Y145500D01*
Y147750D02*X97050Y148500D01*
X98550D01*
X95550D02*X96300Y147750D01*
X100350Y150000D02*Y149250D01*
Y147750D02*Y145500D01*
X101850Y151500D02*Y146250D01*
X102600Y145500D01*
X104100Y151500D02*Y146250D01*
X104850Y145500D01*
X109800D02*X112050D01*
X112800Y146250D01*
X112050Y147000D02*X112800Y146250D01*
X109800Y147000D02*X112050D01*
X109050Y147750D02*X109800Y147000D01*
X109050Y147750D02*X109800Y148500D01*
X112050D01*
X112800Y147750D01*
X109050Y146250D02*X109800Y145500D01*
X114600Y150000D02*Y149250D01*
Y147750D02*Y145500D01*
X116100Y148500D02*X119100D01*
X116100Y145500D02*X119100Y148500D01*
X116100Y145500D02*X119100D01*
X121650D02*X123900D01*
X120900Y146250D02*X121650Y145500D01*
X120900Y147750D02*Y146250D01*
Y147750D02*X121650Y148500D01*
X123150D01*
X123900Y147750D01*
X120900Y147000D02*X123900D01*
Y147750D02*Y147000D01*
X126450Y145500D02*X128700D01*
X129450Y146250D01*
X128700Y147000D02*X129450Y146250D01*
X126450Y147000D02*X128700D01*
X125700Y147750D02*X126450Y147000D01*
X125700Y147750D02*X126450Y148500D01*
X128700D01*
X129450Y147750D01*
X125700Y146250D02*X126450Y145500D01*
X133950Y148500D02*Y146250D01*
X134700Y145500D01*
X136200D01*
X136950Y146250D01*
Y148500D02*Y146250D01*
X139500Y145500D02*X141750D01*
X142500Y146250D01*
X141750Y147000D02*X142500Y146250D01*
X139500Y147000D02*X141750D01*
X138750Y147750D02*X139500Y147000D01*
X138750Y147750D02*X139500Y148500D01*
X141750D01*
X142500Y147750D01*
X138750Y146250D02*X139500Y145500D01*
X145050D02*X147300D01*
X144300Y146250D02*X145050Y145500D01*
X144300Y147750D02*Y146250D01*
Y147750D02*X145050Y148500D01*
X146550D01*
X147300Y147750D01*
X144300Y147000D02*X147300D01*
Y147750D02*Y147000D01*
X152100Y151500D02*Y145500D01*
X151350D02*X152100Y146250D01*
X149850Y145500D02*X151350D01*
X149100Y146250D02*X149850Y145500D01*
X149100Y147750D02*Y146250D01*
Y147750D02*X149850Y148500D01*
X151350D01*
X152100Y147750D01*
X156600Y150000D02*Y149250D01*
Y147750D02*Y145500D01*
X158850Y147750D02*Y145500D01*
Y147750D02*X159600Y148500D01*
X160350D01*
X161100Y147750D01*
Y145500D01*
X158100Y148500D02*X158850Y147750D01*
X166350Y151500D02*Y146250D01*
X167100Y145500D01*
X165600Y149250D02*X167100D01*
X168600Y151500D02*Y145500D01*
Y147750D02*X169350Y148500D01*
X170850D01*
X171600Y147750D01*
Y145500D01*
X173400Y150000D02*Y149250D01*
Y147750D02*Y145500D01*
X175650D02*X177900D01*
X178650Y146250D01*
X177900Y147000D02*X178650Y146250D01*
X175650Y147000D02*X177900D01*
X174900Y147750D02*X175650Y147000D01*
X174900Y147750D02*X175650Y148500D01*
X177900D01*
X178650Y147750D01*
X174900Y146250D02*X175650Y145500D01*
X183150Y151500D02*Y146250D01*
X183900Y145500D01*
X187650Y148500D02*X188400Y147750D01*
X186150Y148500D02*X187650D01*
X185400Y147750D02*X186150Y148500D01*
X185400Y147750D02*Y146250D01*
X186150Y145500D01*
X188400Y148500D02*Y146250D01*
X189150Y145500D01*
X186150D02*X187650D01*
X188400Y146250D01*
X190950Y148500D02*Y146250D01*
X191700Y145500D01*
X193950Y148500D02*Y144000D01*
X193200Y143250D02*X193950Y144000D01*
X191700Y143250D02*X193200D01*
X190950Y144000D02*X191700Y143250D01*
Y145500D02*X193200D01*
X193950Y146250D01*
X195750Y147750D02*Y146250D01*
Y147750D02*X196500Y148500D01*
X198000D01*
X198750Y147750D01*
Y146250D01*
X198000Y145500D02*X198750Y146250D01*
X196500Y145500D02*X198000D01*
X195750Y146250D02*X196500Y145500D01*
X200550Y148500D02*Y146250D01*
X201300Y145500D01*
X202800D01*
X203550Y146250D01*
Y148500D02*Y146250D01*
X206100Y151500D02*Y146250D01*
X206850Y145500D01*
X205350Y149250D02*X206850D01*
X208350Y144000D02*X209850Y145500D01*
X214350Y150750D02*X215100Y151500D01*
X216600D01*
X217350Y150750D01*
Y146250D01*
X216600Y145500D02*X217350Y146250D01*
X215100Y145500D02*X216600D01*
X214350Y146250D02*X215100Y145500D01*
Y148500D02*X217350D01*
X219150Y146250D02*X219900Y145500D01*
X219150Y150750D02*Y146250D01*
Y150750D02*X219900Y151500D01*
X221400D01*
X222150Y150750D01*
Y146250D01*
X221400Y145500D02*X222150Y146250D01*
X219900Y145500D02*X221400D01*
X219150Y147000D02*X222150Y150000D01*
X226650Y151500D02*Y145500D01*
Y147750D02*X227400Y148500D01*
X228900D01*
X229650Y147750D01*
Y145500D01*
X231450Y147750D02*Y146250D01*
Y147750D02*X232200Y148500D01*
X233700D01*
X234450Y147750D01*
Y146250D01*
X233700Y145500D02*X234450Y146250D01*
X232200Y145500D02*X233700D01*
X231450Y146250D02*X232200Y145500D01*
X236250Y151500D02*Y146250D01*
X237000Y145500D01*
X239250D02*X241500D01*
X238500Y146250D02*X239250Y145500D01*
X238500Y147750D02*Y146250D01*
Y147750D02*X239250Y148500D01*
X240750D01*
X241500Y147750D01*
X238500Y147000D02*X241500D01*
Y147750D02*Y147000D01*
X244050Y145500D02*X246300D01*
X247050Y146250D01*
X246300Y147000D02*X247050Y146250D01*
X244050Y147000D02*X246300D01*
X243300Y147750D02*X244050Y147000D01*
X243300Y147750D02*X244050Y148500D01*
X246300D01*
X247050Y147750D01*
X243300Y146250D02*X244050Y145500D01*
X252300Y151500D02*Y146250D01*
X253050Y145500D01*
X251550Y149250D02*X253050D01*
X254550Y147750D02*Y146250D01*
Y147750D02*X255300Y148500D01*
X256800D01*
X257550Y147750D01*
Y146250D01*
X256800Y145500D02*X257550Y146250D01*
X255300Y145500D02*X256800D01*
X254550Y146250D02*X255300Y145500D01*
X260100Y151500D02*Y146250D01*
X260850Y145500D01*
X259350Y149250D02*X260850D01*
X264600Y148500D02*X265350Y147750D01*
X263100Y148500D02*X264600D01*
X262350Y147750D02*X263100Y148500D01*
X262350Y147750D02*Y146250D01*
X263100Y145500D01*
X265350Y148500D02*Y146250D01*
X266100Y145500D01*
X263100D02*X264600D01*
X265350Y146250D01*
X267900Y151500D02*Y146250D01*
X268650Y145500D01*
G54D70*X0Y48000D02*X170000D01*
X0D02*Y0D01*
X170000Y48000D02*Y0D01*
X0D02*X170000D01*
G54D69*X200000Y61500D02*Y55500D01*
Y61500D02*X202250Y59250D01*
X204500Y61500D01*
Y55500D01*
X208550Y58500D02*X209300Y57750D01*
X207050Y58500D02*X208550D01*
X206300Y57750D02*X207050Y58500D01*
X206300Y57750D02*Y56250D01*
X207050Y55500D01*
X209300Y58500D02*Y56250D01*
X210050Y55500D01*
X207050D02*X208550D01*
X209300Y56250D01*
X211850Y58500D02*X214850Y55500D01*
X211850D02*X214850Y58500D01*
X216650Y60000D02*Y59250D01*
Y57750D02*Y55500D01*
X218900Y57750D02*Y55500D01*
Y57750D02*X219650Y58500D01*
X220400D01*
X221150Y57750D01*
Y55500D01*
Y57750D02*X221900Y58500D01*
X222650D01*
X223400Y57750D01*
Y55500D01*
X218150Y58500D02*X218900Y57750D01*
X225200Y58500D02*Y56250D01*
X225950Y55500D01*
X227450D01*
X228200Y56250D01*
Y58500D02*Y56250D01*
X230750Y57750D02*Y55500D01*
Y57750D02*X231500Y58500D01*
X232250D01*
X233000Y57750D01*
Y55500D01*
Y57750D02*X233750Y58500D01*
X234500D01*
X235250Y57750D01*
Y55500D01*
X230000Y58500D02*X230750Y57750D01*
X240500Y61500D02*Y55500D01*
X242750Y61500D02*X243500Y60750D01*
Y56250D01*
X242750Y55500D02*X243500Y56250D01*
X239750Y55500D02*X242750D01*
X239750Y61500D02*X242750D01*
X245300Y60000D02*Y59250D01*
Y57750D02*Y55500D01*
X247550Y57750D02*Y55500D01*
Y57750D02*X248300Y58500D01*
X249050D01*
X249800Y57750D01*
Y55500D01*
Y57750D02*X250550Y58500D01*
X251300D01*
X252050Y57750D01*
Y55500D01*
X246800Y58500D02*X247550Y57750D01*
X254600Y55500D02*X256850D01*
X253850Y56250D02*X254600Y55500D01*
X253850Y57750D02*Y56250D01*
Y57750D02*X254600Y58500D01*
X256100D01*
X256850Y57750D01*
X253850Y57000D02*X256850D01*
Y57750D02*Y57000D01*
X259400Y57750D02*Y55500D01*
Y57750D02*X260150Y58500D01*
X260900D01*
X261650Y57750D01*
Y55500D01*
X258650Y58500D02*X259400Y57750D01*
X264200Y55500D02*X266450D01*
X267200Y56250D01*
X266450Y57000D02*X267200Y56250D01*
X264200Y57000D02*X266450D01*
X263450Y57750D02*X264200Y57000D01*
X263450Y57750D02*X264200Y58500D01*
X266450D01*
X267200Y57750D01*
X263450Y56250D02*X264200Y55500D01*
X269000Y60000D02*Y59250D01*
Y57750D02*Y55500D01*
X270500Y57750D02*Y56250D01*
Y57750D02*X271250Y58500D01*
X272750D01*
X273500Y57750D01*
Y56250D01*
X272750Y55500D02*X273500Y56250D01*
X271250Y55500D02*X272750D01*
X270500Y56250D02*X271250Y55500D01*
X276050Y57750D02*Y55500D01*
Y57750D02*X276800Y58500D01*
X277550D01*
X278300Y57750D01*
Y55500D01*
X275300Y58500D02*X276050Y57750D01*
X280850Y55500D02*X283100D01*
X283850Y56250D01*
X283100Y57000D02*X283850Y56250D01*
X280850Y57000D02*X283100D01*
X280100Y57750D02*X280850Y57000D01*
X280100Y57750D02*X280850Y58500D01*
X283100D01*
X283850Y57750D01*
X280100Y56250D02*X280850Y55500D01*
X285650Y59250D02*X286400D01*
X285650Y57750D02*X286400D01*
X291650Y55500D02*X293150D01*
X292400Y61500D02*Y55500D01*
X290900Y60000D02*X292400Y61500D01*
X294950Y55500D02*X298700Y59250D01*
Y61500D02*Y59250D01*
X294950Y61500D02*X298700D01*
X300500Y56250D02*X301250Y55500D01*
X300500Y60750D02*Y56250D01*
Y60750D02*X301250Y61500D01*
X302750D01*
X303500Y60750D01*
Y56250D01*
X302750Y55500D02*X303500Y56250D01*
X301250Y55500D02*X302750D01*
X300500Y57000D02*X303500Y60000D01*
X305300Y56250D02*X306050Y55500D01*
X305300Y60750D02*Y56250D01*
Y60750D02*X306050Y61500D01*
X307550D01*
X308300Y60750D01*
Y56250D01*
X307550Y55500D02*X308300Y56250D01*
X306050Y55500D02*X307550D01*
X305300Y57000D02*X308300Y60000D01*
X310100Y55500D02*X310850D01*
X312650Y56250D02*X313400Y55500D01*
X312650Y60750D02*Y56250D01*
Y60750D02*X313400Y61500D01*
X314900D01*
X315650Y60750D01*
Y56250D01*
X314900Y55500D02*X315650Y56250D01*
X313400Y55500D02*X314900D01*
X312650Y57000D02*X315650Y60000D01*
X317450Y56250D02*X318200Y55500D01*
X317450Y60750D02*Y56250D01*
Y60750D02*X318200Y61500D01*
X319700D01*
X320450Y60750D01*
Y56250D01*
X319700Y55500D02*X320450Y56250D01*
X318200Y55500D02*X319700D01*
X317450Y57000D02*X320450Y60000D01*
X322250Y56250D02*X323000Y55500D01*
X322250Y60750D02*Y56250D01*
Y60750D02*X323000Y61500D01*
X324500D01*
X325250Y60750D01*
Y56250D01*
X324500Y55500D02*X325250Y56250D01*
X323000Y55500D02*X324500D01*
X322250Y57000D02*X325250Y60000D01*
X327050Y56250D02*X327800Y55500D01*
X327050Y60750D02*Y56250D01*
Y60750D02*X327800Y61500D01*
X329300D01*
X330050Y60750D01*
Y56250D01*
X329300Y55500D02*X330050Y56250D01*
X327800Y55500D02*X329300D01*
X327050Y57000D02*X330050Y60000D01*
X331850Y56250D02*X332600Y55500D01*
X331850Y60750D02*Y56250D01*
Y60750D02*X332600Y61500D01*
X334100D01*
X334850Y60750D01*
Y56250D01*
X334100Y55500D02*X334850Y56250D01*
X332600Y55500D02*X334100D01*
X331850Y57000D02*X334850Y60000D01*
X336650Y56250D02*X337400Y55500D01*
X336650Y60750D02*Y56250D01*
Y60750D02*X337400Y61500D01*
X338900D01*
X339650Y60750D01*
Y56250D01*
X338900Y55500D02*X339650Y56250D01*
X337400Y55500D02*X338900D01*
X336650Y57000D02*X339650Y60000D01*
X344900Y57750D02*Y55500D01*
Y57750D02*X345650Y58500D01*
X346400D01*
X347150Y57750D01*
Y55500D01*
Y57750D02*X347900Y58500D01*
X348650D01*
X349400Y57750D01*
Y55500D01*
X344150Y58500D02*X344900Y57750D01*
X351200Y60000D02*Y59250D01*
Y57750D02*Y55500D01*
X352700Y61500D02*Y56250D01*
X353450Y55500D01*
X355700D02*X357950D01*
X358700Y56250D01*
X357950Y57000D02*X358700Y56250D01*
X355700Y57000D02*X357950D01*
X354950Y57750D02*X355700Y57000D01*
X354950Y57750D02*X355700Y58500D01*
X357950D01*
X358700Y57750D01*
X354950Y56250D02*X355700Y55500D01*
X363200Y58500D02*Y56250D01*
X363950Y55500D01*
X364700D01*
X365450Y56250D01*
Y58500D02*Y56250D01*
X366200Y55500D01*
X366950D01*
X367700Y56250D01*
Y58500D02*Y56250D01*
X369500Y60000D02*Y59250D01*
Y57750D02*Y55500D01*
X374000Y61500D02*Y55500D01*
X373250D02*X374000Y56250D01*
X371750Y55500D02*X373250D01*
X371000Y56250D02*X371750Y55500D01*
X371000Y57750D02*Y56250D01*
Y57750D02*X371750Y58500D01*
X373250D01*
X374000Y57750D01*
X376550Y55500D02*X378800D01*
X375800Y56250D02*X376550Y55500D01*
X375800Y57750D02*Y56250D01*
Y57750D02*X376550Y58500D01*
X378050D01*
X378800Y57750D01*
X375800Y57000D02*X378800D01*
Y57750D02*Y57000D01*
X380600Y54000D02*X382100Y55500D01*
X386600Y58500D02*X389600Y61500D01*
X386600Y58500D02*X390350D01*
X389600Y61500D02*Y55500D01*
X392150Y56250D02*X392900Y55500D01*
X392150Y57750D02*Y56250D01*
Y57750D02*X392900Y58500D01*
X394400D01*
X395150Y57750D01*
Y56250D01*
X394400Y55500D02*X395150Y56250D01*
X392900Y55500D02*X394400D01*
X392150Y59250D02*X392900Y58500D01*
X392150Y60750D02*Y59250D01*
Y60750D02*X392900Y61500D01*
X394400D01*
X395150Y60750D01*
Y59250D01*
X394400Y58500D02*X395150Y59250D01*
X396950Y56250D02*X397700Y55500D01*
X396950Y60750D02*Y56250D01*
Y60750D02*X397700Y61500D01*
X399200D01*
X399950Y60750D01*
Y56250D01*
X399200Y55500D02*X399950Y56250D01*
X397700Y55500D02*X399200D01*
X396950Y57000D02*X399950Y60000D01*
X401750Y55500D02*X402500D01*
X404300Y56250D02*X405050Y55500D01*
X404300Y60750D02*Y56250D01*
Y60750D02*X405050Y61500D01*
X406550D01*
X407300Y60750D01*
Y56250D01*
X406550Y55500D02*X407300Y56250D01*
X405050Y55500D02*X406550D01*
X404300Y57000D02*X407300Y60000D01*
X409100Y56250D02*X409850Y55500D01*
X409100Y60750D02*Y56250D01*
Y60750D02*X409850Y61500D01*
X411350D01*
X412100Y60750D01*
Y56250D01*
X411350Y55500D02*X412100Y56250D01*
X409850Y55500D02*X411350D01*
X409100Y57000D02*X412100Y60000D01*
X413900Y56250D02*X414650Y55500D01*
X413900Y60750D02*Y56250D01*
Y60750D02*X414650Y61500D01*
X416150D01*
X416900Y60750D01*
Y56250D01*
X416150Y55500D02*X416900Y56250D01*
X414650Y55500D02*X416150D01*
X413900Y57000D02*X416900Y60000D01*
X418700Y56250D02*X419450Y55500D01*
X418700Y60750D02*Y56250D01*
Y60750D02*X419450Y61500D01*
X420950D01*
X421700Y60750D01*
Y56250D01*
X420950Y55500D02*X421700Y56250D01*
X419450Y55500D02*X420950D01*
X418700Y57000D02*X421700Y60000D01*
X423500Y56250D02*X424250Y55500D01*
X423500Y60750D02*Y56250D01*
Y60750D02*X424250Y61500D01*
X425750D01*
X426500Y60750D01*
Y56250D01*
X425750Y55500D02*X426500Y56250D01*
X424250Y55500D02*X425750D01*
X423500Y57000D02*X426500Y60000D01*
X428300Y56250D02*X429050Y55500D01*
X428300Y60750D02*Y56250D01*
Y60750D02*X429050Y61500D01*
X430550D01*
X431300Y60750D01*
Y56250D01*
X430550Y55500D02*X431300Y56250D01*
X429050Y55500D02*X430550D01*
X428300Y57000D02*X431300Y60000D01*
X436550Y57750D02*Y55500D01*
Y57750D02*X437300Y58500D01*
X438050D01*
X438800Y57750D01*
Y55500D01*
Y57750D02*X439550Y58500D01*
X440300D01*
X441050Y57750D01*
Y55500D01*
X435800Y58500D02*X436550Y57750D01*
X442850Y60000D02*Y59250D01*
Y57750D02*Y55500D01*
X444350Y61500D02*Y56250D01*
X445100Y55500D01*
X447350D02*X449600D01*
X450350Y56250D01*
X449600Y57000D02*X450350Y56250D01*
X447350Y57000D02*X449600D01*
X446600Y57750D02*X447350Y57000D01*
X446600Y57750D02*X447350Y58500D01*
X449600D01*
X450350Y57750D01*
X446600Y56250D02*X447350Y55500D01*
X454850Y61500D02*Y55500D01*
Y57750D02*X455600Y58500D01*
X457100D01*
X457850Y57750D01*
Y55500D01*
X459650Y60000D02*Y59250D01*
Y57750D02*Y55500D01*
X463400Y58500D02*X464150Y57750D01*
X461900Y58500D02*X463400D01*
X461150Y57750D02*X461900Y58500D01*
X461150Y57750D02*Y56250D01*
X461900Y55500D01*
X463400D01*
X464150Y56250D01*
X461150Y54000D02*X461900Y53250D01*
X463400D01*
X464150Y54000D01*
Y58500D02*Y54000D01*
X465950Y61500D02*Y55500D01*
Y57750D02*X466700Y58500D01*
X468200D01*
X468950Y57750D01*
Y55500D01*
X0Y-9500D02*X3000D01*
X3750Y-8750D01*
Y-7250D02*Y-8750D01*
X3000Y-6500D02*X3750Y-7250D01*
X750Y-6500D02*X3000D01*
X750Y-3500D02*Y-9500D01*
X0Y-3500D02*X3000D01*
X3750Y-4250D01*
Y-5750D01*
X3000Y-6500D02*X3750Y-5750D01*
X5550Y-7250D02*Y-8750D01*
Y-7250D02*X6300Y-6500D01*
X7800D01*
X8550Y-7250D01*
Y-8750D01*
X7800Y-9500D02*X8550Y-8750D01*
X6300Y-9500D02*X7800D01*
X5550Y-8750D02*X6300Y-9500D01*
X12600Y-6500D02*X13350Y-7250D01*
X11100Y-6500D02*X12600D01*
X10350Y-7250D02*X11100Y-6500D01*
X10350Y-7250D02*Y-8750D01*
X11100Y-9500D01*
X13350Y-6500D02*Y-8750D01*
X14100Y-9500D01*
X11100D02*X12600D01*
X13350Y-8750D01*
X16650Y-7250D02*Y-9500D01*
Y-7250D02*X17400Y-6500D01*
X18900D01*
X15900D02*X16650Y-7250D01*
X23700Y-3500D02*Y-9500D01*
X22950D02*X23700Y-8750D01*
X21450Y-9500D02*X22950D01*
X20700Y-8750D02*X21450Y-9500D01*
X20700Y-7250D02*Y-8750D01*
Y-7250D02*X21450Y-6500D01*
X22950D01*
X23700Y-7250D01*
X28200D02*Y-8750D01*
Y-7250D02*X28950Y-6500D01*
X30450D01*
X31200Y-7250D01*
Y-8750D01*
X30450Y-9500D02*X31200Y-8750D01*
X28950Y-9500D02*X30450D01*
X28200Y-8750D02*X28950Y-9500D01*
X33000Y-6500D02*Y-8750D01*
X33750Y-9500D01*
X35250D01*
X36000Y-8750D01*
Y-6500D02*Y-8750D01*
X38550Y-3500D02*Y-8750D01*
X39300Y-9500D01*
X37800Y-5750D02*X39300D01*
X40800Y-3500D02*Y-8750D01*
X41550Y-9500D01*
X43050Y-5000D02*Y-5750D01*
Y-7250D02*Y-9500D01*
X45300Y-7250D02*Y-9500D01*
Y-7250D02*X46050Y-6500D01*
X46800D01*
X47550Y-7250D01*
Y-9500D01*
X44550Y-6500D02*X45300Y-7250D01*
X50100Y-9500D02*X52350D01*
X49350Y-8750D02*X50100Y-9500D01*
X49350Y-7250D02*Y-8750D01*
Y-7250D02*X50100Y-6500D01*
X51600D01*
X52350Y-7250D01*
X49350Y-8000D02*X52350D01*
Y-7250D02*Y-8000D01*
X56850Y-5000D02*Y-5750D01*
Y-7250D02*Y-9500D01*
X59100D02*X61350D01*
X62100Y-8750D01*
X61350Y-8000D02*X62100Y-8750D01*
X59100Y-8000D02*X61350D01*
X58350Y-7250D02*X59100Y-8000D01*
X58350Y-7250D02*X59100Y-6500D01*
X61350D01*
X62100Y-7250D01*
X58350Y-8750D02*X59100Y-9500D01*
X67350Y-3500D02*Y-8750D01*
X68100Y-9500D01*
X66600Y-5750D02*X68100D01*
X69600Y-3500D02*Y-9500D01*
Y-7250D02*X70350Y-6500D01*
X71850D01*
X72600Y-7250D01*
Y-9500D01*
X75150D02*X77400D01*
X74400Y-8750D02*X75150Y-9500D01*
X74400Y-7250D02*Y-8750D01*
Y-7250D02*X75150Y-6500D01*
X76650D01*
X77400Y-7250D01*
X74400Y-8000D02*X77400D01*
Y-7250D02*Y-8000D01*
X82650Y-6500D02*X84900D01*
X81900Y-7250D02*X82650Y-6500D01*
X81900Y-7250D02*Y-8750D01*
X82650Y-9500D01*
X84900D01*
X87450D02*X89700D01*
X86700Y-8750D02*X87450Y-9500D01*
X86700Y-7250D02*Y-8750D01*
Y-7250D02*X87450Y-6500D01*
X88950D01*
X89700Y-7250D01*
X86700Y-8000D02*X89700D01*
Y-7250D02*Y-8000D01*
X92250Y-7250D02*Y-9500D01*
Y-7250D02*X93000Y-6500D01*
X93750D01*
X94500Y-7250D01*
Y-9500D01*
X91500Y-6500D02*X92250Y-7250D01*
X97050Y-3500D02*Y-8750D01*
X97800Y-9500D01*
X96300Y-5750D02*X97800D01*
X100050Y-9500D02*X102300D01*
X99300Y-8750D02*X100050Y-9500D01*
X99300Y-7250D02*Y-8750D01*
Y-7250D02*X100050Y-6500D01*
X101550D01*
X102300Y-7250D01*
X99300Y-8000D02*X102300D01*
Y-7250D02*Y-8000D01*
X104850Y-7250D02*Y-9500D01*
Y-7250D02*X105600Y-6500D01*
X107100D01*
X104100D02*X104850Y-7250D01*
X108900Y-3500D02*Y-8750D01*
X109650Y-9500D01*
X111150Y-5000D02*Y-5750D01*
Y-7250D02*Y-9500D01*
X113400Y-7250D02*Y-9500D01*
Y-7250D02*X114150Y-6500D01*
X114900D01*
X115650Y-7250D01*
Y-9500D01*
X112650Y-6500D02*X113400Y-7250D01*
X118200Y-9500D02*X120450D01*
X117450Y-8750D02*X118200Y-9500D01*
X117450Y-7250D02*Y-8750D01*
Y-7250D02*X118200Y-6500D01*
X119700D01*
X120450Y-7250D01*
X117450Y-8000D02*X120450D01*
Y-7250D02*Y-8000D01*
X124950Y-7250D02*Y-8750D01*
Y-7250D02*X125700Y-6500D01*
X127200D01*
X127950Y-7250D01*
Y-8750D01*
X127200Y-9500D02*X127950Y-8750D01*
X125700Y-9500D02*X127200D01*
X124950Y-8750D02*X125700Y-9500D01*
X130500Y-4250D02*Y-9500D01*
Y-4250D02*X131250Y-3500D01*
X132000D01*
X129750Y-6500D02*X131250D01*
X136950Y-3500D02*Y-8750D01*
X137700Y-9500D01*
X136200Y-5750D02*X137700D01*
X139200Y-3500D02*Y-9500D01*
Y-7250D02*X139950Y-6500D01*
X141450D01*
X142200Y-7250D01*
Y-9500D01*
X144000Y-5000D02*Y-5750D01*
Y-7250D02*Y-9500D01*
X146250D02*X148500D01*
X149250Y-8750D01*
X148500Y-8000D02*X149250Y-8750D01*
X146250Y-8000D02*X148500D01*
X145500Y-7250D02*X146250Y-8000D01*
X145500Y-7250D02*X146250Y-6500D01*
X148500D01*
X149250Y-7250D01*
X145500Y-8750D02*X146250Y-9500D01*
X153750Y-8750D02*X154500Y-9500D01*
X153750Y-7250D02*Y-8750D01*
Y-7250D02*X154500Y-6500D01*
X156000D01*
X156750Y-7250D01*
Y-8750D01*
X156000Y-9500D02*X156750Y-8750D01*
X154500Y-9500D02*X156000D01*
X153750Y-5750D02*X154500Y-6500D01*
X153750Y-4250D02*Y-5750D01*
Y-4250D02*X154500Y-3500D01*
X156000D01*
X156750Y-4250D01*
Y-5750D01*
X156000Y-6500D02*X156750Y-5750D01*
X158550Y-9500D02*X159300D01*
X161100Y-8750D02*X161850Y-9500D01*
X161100Y-4250D02*Y-8750D01*
Y-4250D02*X161850Y-3500D01*
X163350D01*
X164100Y-4250D01*
Y-8750D01*
X163350Y-9500D02*X164100Y-8750D01*
X161850Y-9500D02*X163350D01*
X161100Y-8000D02*X164100Y-5000D01*
X165900Y-8750D02*X166650Y-9500D01*
X165900Y-4250D02*Y-8750D01*
Y-4250D02*X166650Y-3500D01*
X168150D01*
X168900Y-4250D01*
Y-8750D01*
X168150Y-9500D02*X168900Y-8750D01*
X166650Y-9500D02*X168150D01*
X165900Y-8000D02*X168900Y-5000D01*
X170700Y-8750D02*X171450Y-9500D01*
X170700Y-4250D02*Y-8750D01*
Y-4250D02*X171450Y-3500D01*
X172950D01*
X173700Y-4250D01*
Y-8750D01*
X172950Y-9500D02*X173700Y-8750D01*
X171450Y-9500D02*X172950D01*
X170700Y-8000D02*X173700Y-5000D01*
X175500Y-8750D02*X176250Y-9500D01*
X175500Y-4250D02*Y-8750D01*
Y-4250D02*X176250Y-3500D01*
X177750D01*
X178500Y-4250D01*
Y-8750D01*
X177750Y-9500D02*X178500Y-8750D01*
X176250Y-9500D02*X177750D01*
X175500Y-8000D02*X178500Y-5000D01*
X180300Y-8750D02*X181050Y-9500D01*
X180300Y-4250D02*Y-8750D01*
Y-4250D02*X181050Y-3500D01*
X182550D01*
X183300Y-4250D01*
Y-8750D01*
X182550Y-9500D02*X183300Y-8750D01*
X181050Y-9500D02*X182550D01*
X180300Y-8000D02*X183300Y-5000D01*
X185100Y-8750D02*X185850Y-9500D01*
X185100Y-4250D02*Y-8750D01*
Y-4250D02*X185850Y-3500D01*
X187350D01*
X188100Y-4250D01*
Y-8750D01*
X187350Y-9500D02*X188100Y-8750D01*
X185850Y-9500D02*X187350D01*
X185100Y-8000D02*X188100Y-5000D01*
X193350Y-7250D02*Y-9500D01*
Y-7250D02*X194100Y-6500D01*
X194850D01*
X195600Y-7250D01*
Y-9500D01*
Y-7250D02*X196350Y-6500D01*
X197100D01*
X197850Y-7250D01*
Y-9500D01*
X192600Y-6500D02*X193350Y-7250D01*
X199650Y-5000D02*Y-5750D01*
Y-7250D02*Y-9500D01*
X201150Y-3500D02*Y-8750D01*
X201900Y-9500D01*
X206850Y-7250D02*Y-9500D01*
Y-7250D02*X207600Y-6500D01*
X209100D01*
X206100D02*X206850Y-7250D01*
X211650Y-9500D02*X213900D01*
X210900Y-8750D02*X211650Y-9500D01*
X210900Y-7250D02*Y-8750D01*
Y-7250D02*X211650Y-6500D01*
X213150D01*
X213900Y-7250D01*
X210900Y-8000D02*X213900D01*
Y-7250D02*Y-8000D01*
X216450Y-6500D02*X218700D01*
X215700Y-7250D02*X216450Y-6500D01*
X215700Y-7250D02*Y-8750D01*
X216450Y-9500D01*
X218700D01*
X221250Y-3500D02*Y-8750D01*
X222000Y-9500D01*
X220500Y-5750D02*X222000D01*
X225750Y-6500D02*X226500Y-7250D01*
X224250Y-6500D02*X225750D01*
X223500Y-7250D02*X224250Y-6500D01*
X223500Y-7250D02*Y-8750D01*
X224250Y-9500D01*
X226500Y-6500D02*Y-8750D01*
X227250Y-9500D01*
X224250D02*X225750D01*
X226500Y-8750D01*
X229800Y-7250D02*Y-9500D01*
Y-7250D02*X230550Y-6500D01*
X231300D01*
X232050Y-7250D01*
Y-9500D01*
X229050Y-6500D02*X229800Y-7250D01*
X236100Y-6500D02*X236850Y-7250D01*
X234600Y-6500D02*X236100D01*
X233850Y-7250D02*X234600Y-6500D01*
X233850Y-7250D02*Y-8750D01*
X234600Y-9500D01*
X236100D01*
X236850Y-8750D01*
X233850Y-11000D02*X234600Y-11750D01*
X236100D01*
X236850Y-11000D01*
Y-6500D02*Y-11000D01*
X238650Y-3500D02*Y-8750D01*
X239400Y-9500D01*
X241650D02*X243900D01*
X240900Y-8750D02*X241650Y-9500D01*
X240900Y-7250D02*Y-8750D01*
Y-7250D02*X241650Y-6500D01*
X243150D01*
X243900Y-7250D01*
X240900Y-8000D02*X243900D01*
Y-7250D02*Y-8000D01*
X248400Y-6500D02*X251400D01*
X255900Y-8750D02*X256650Y-9500D01*
X255900Y-4250D02*Y-8750D01*
Y-4250D02*X256650Y-3500D01*
X258150D01*
X258900Y-4250D01*
Y-8750D01*
X258150Y-9500D02*X258900Y-8750D01*
X256650Y-9500D02*X258150D01*
X255900Y-8000D02*X258900Y-5000D01*
X260700Y-11000D02*X262200Y-9500D01*
X264000Y-8750D02*X264750Y-9500D01*
X264000Y-4250D02*Y-8750D01*
Y-4250D02*X264750Y-3500D01*
X266250D01*
X267000Y-4250D01*
Y-8750D01*
X266250Y-9500D02*X267000Y-8750D01*
X264750Y-9500D02*X266250D01*
X264000Y-8000D02*X267000Y-5000D01*
X272250Y-3500D02*Y-8750D01*
X273000Y-9500D01*
X271500Y-5750D02*X273000D01*
X274500Y-7250D02*Y-8750D01*
Y-7250D02*X275250Y-6500D01*
X276750D01*
X277500Y-7250D01*
Y-8750D01*
X276750Y-9500D02*X277500Y-8750D01*
X275250Y-9500D02*X276750D01*
X274500Y-8750D02*X275250Y-9500D01*
X282750D02*X284250D01*
X283500Y-3500D02*Y-9500D01*
X282000Y-5000D02*X283500Y-3500D01*
X286050Y-9500D02*X289800Y-5750D01*
Y-3500D02*Y-5750D01*
X286050Y-3500D02*X289800D01*
X291600Y-8750D02*X292350Y-9500D01*
X291600Y-4250D02*Y-8750D01*
Y-4250D02*X292350Y-3500D01*
X293850D01*
X294600Y-4250D01*
Y-8750D01*
X293850Y-9500D02*X294600Y-8750D01*
X292350Y-9500D02*X293850D01*
X291600Y-8000D02*X294600Y-5000D01*
X296400Y-8750D02*X297150Y-9500D01*
X296400Y-4250D02*Y-8750D01*
Y-4250D02*X297150Y-3500D01*
X298650D01*
X299400Y-4250D01*
Y-8750D01*
X298650Y-9500D02*X299400Y-8750D01*
X297150Y-9500D02*X298650D01*
X296400Y-8000D02*X299400Y-5000D01*
X301200Y-9500D02*X301950D01*
X303750Y-8750D02*X304500Y-9500D01*
X303750Y-4250D02*Y-8750D01*
Y-4250D02*X304500Y-3500D01*
X306000D01*
X306750Y-4250D01*
Y-8750D01*
X306000Y-9500D02*X306750Y-8750D01*
X304500Y-9500D02*X306000D01*
X303750Y-8000D02*X306750Y-5000D01*
X308550Y-8750D02*X309300Y-9500D01*
X308550Y-4250D02*Y-8750D01*
Y-4250D02*X309300Y-3500D01*
X310800D01*
X311550Y-4250D01*
Y-8750D01*
X310800Y-9500D02*X311550Y-8750D01*
X309300Y-9500D02*X310800D01*
X308550Y-8000D02*X311550Y-5000D01*
X313350Y-8750D02*X314100Y-9500D01*
X313350Y-4250D02*Y-8750D01*
Y-4250D02*X314100Y-3500D01*
X315600D01*
X316350Y-4250D01*
Y-8750D01*
X315600Y-9500D02*X316350Y-8750D01*
X314100Y-9500D02*X315600D01*
X313350Y-8000D02*X316350Y-5000D01*
X318150Y-8750D02*X318900Y-9500D01*
X318150Y-4250D02*Y-8750D01*
Y-4250D02*X318900Y-3500D01*
X320400D01*
X321150Y-4250D01*
Y-8750D01*
X320400Y-9500D02*X321150Y-8750D01*
X318900Y-9500D02*X320400D01*
X318150Y-8000D02*X321150Y-5000D01*
X322950Y-8750D02*X323700Y-9500D01*
X322950Y-4250D02*Y-8750D01*
Y-4250D02*X323700Y-3500D01*
X325200D01*
X325950Y-4250D01*
Y-8750D01*
X325200Y-9500D02*X325950Y-8750D01*
X323700Y-9500D02*X325200D01*
X322950Y-8000D02*X325950Y-5000D01*
X327750Y-8750D02*X328500Y-9500D01*
X327750Y-4250D02*Y-8750D01*
Y-4250D02*X328500Y-3500D01*
X330000D01*
X330750Y-4250D01*
Y-8750D01*
X330000Y-9500D02*X330750Y-8750D01*
X328500Y-9500D02*X330000D01*
X327750Y-8000D02*X330750Y-5000D01*
X332550Y-11000D02*X334050Y-9500D01*
X335850Y-6500D02*X338850Y-3500D01*
X335850Y-6500D02*X339600D01*
X338850Y-3500D02*Y-9500D01*
X341400Y-8750D02*X342150Y-9500D01*
X341400Y-7250D02*Y-8750D01*
Y-7250D02*X342150Y-6500D01*
X343650D01*
X344400Y-7250D01*
Y-8750D01*
X343650Y-9500D02*X344400Y-8750D01*
X342150Y-9500D02*X343650D01*
X341400Y-5750D02*X342150Y-6500D01*
X341400Y-4250D02*Y-5750D01*
Y-4250D02*X342150Y-3500D01*
X343650D01*
X344400Y-4250D01*
Y-5750D01*
X343650Y-6500D02*X344400Y-5750D01*
X346200Y-8750D02*X346950Y-9500D01*
X346200Y-4250D02*Y-8750D01*
Y-4250D02*X346950Y-3500D01*
X348450D01*
X349200Y-4250D01*
Y-8750D01*
X348450Y-9500D02*X349200Y-8750D01*
X346950Y-9500D02*X348450D01*
X346200Y-8000D02*X349200Y-5000D01*
X351000Y-9500D02*X351750D01*
X353550Y-8750D02*X354300Y-9500D01*
X353550Y-4250D02*Y-8750D01*
Y-4250D02*X354300Y-3500D01*
X355800D01*
X356550Y-4250D01*
Y-8750D01*
X355800Y-9500D02*X356550Y-8750D01*
X354300Y-9500D02*X355800D01*
X353550Y-8000D02*X356550Y-5000D01*
X358350Y-8750D02*X359100Y-9500D01*
X358350Y-4250D02*Y-8750D01*
Y-4250D02*X359100Y-3500D01*
X360600D01*
X361350Y-4250D01*
Y-8750D01*
X360600Y-9500D02*X361350Y-8750D01*
X359100Y-9500D02*X360600D01*
X358350Y-8000D02*X361350Y-5000D01*
X363150Y-8750D02*X363900Y-9500D01*
X363150Y-4250D02*Y-8750D01*
Y-4250D02*X363900Y-3500D01*
X365400D01*
X366150Y-4250D01*
Y-8750D01*
X365400Y-9500D02*X366150Y-8750D01*
X363900Y-9500D02*X365400D01*
X363150Y-8000D02*X366150Y-5000D01*
X367950Y-8750D02*X368700Y-9500D01*
X367950Y-4250D02*Y-8750D01*
Y-4250D02*X368700Y-3500D01*
X370200D01*
X370950Y-4250D01*
Y-8750D01*
X370200Y-9500D02*X370950Y-8750D01*
X368700Y-9500D02*X370200D01*
X367950Y-8000D02*X370950Y-5000D01*
X372750Y-8750D02*X373500Y-9500D01*
X372750Y-4250D02*Y-8750D01*
Y-4250D02*X373500Y-3500D01*
X375000D01*
X375750Y-4250D01*
Y-8750D01*
X375000Y-9500D02*X375750Y-8750D01*
X373500Y-9500D02*X375000D01*
X372750Y-8000D02*X375750Y-5000D01*
X377550Y-8750D02*X378300Y-9500D01*
X377550Y-4250D02*Y-8750D01*
Y-4250D02*X378300Y-3500D01*
X379800D01*
X380550Y-4250D01*
Y-8750D01*
X379800Y-9500D02*X380550Y-8750D01*
X378300Y-9500D02*X379800D01*
X377550Y-8000D02*X380550Y-5000D01*
X385800Y-7250D02*Y-9500D01*
Y-7250D02*X386550Y-6500D01*
X387300D01*
X388050Y-7250D01*
Y-9500D01*
Y-7250D02*X388800Y-6500D01*
X389550D01*
X390300Y-7250D01*
Y-9500D01*
X385050Y-6500D02*X385800Y-7250D01*
X392100Y-5000D02*Y-5750D01*
Y-7250D02*Y-9500D01*
X393600Y-3500D02*Y-8750D01*
X394350Y-9500D01*
X396600D02*X398850D01*
X399600Y-8750D01*
X398850Y-8000D02*X399600Y-8750D01*
X396600Y-8000D02*X398850D01*
X395850Y-7250D02*X396600Y-8000D01*
X395850Y-7250D02*X396600Y-6500D01*
X398850D01*
X399600Y-7250D01*
X395850Y-8750D02*X396600Y-9500D01*
X200750Y76500D02*Y70500D01*
X203000Y76500D02*X203750Y75750D01*
Y71250D01*
X203000Y70500D02*X203750Y71250D01*
X200000Y70500D02*X203000D01*
X200000Y76500D02*X203000D01*
X207800Y73500D02*X208550Y72750D01*
X206300Y73500D02*X207800D01*
X205550Y72750D02*X206300Y73500D01*
X205550Y72750D02*Y71250D01*
X206300Y70500D01*
X208550Y73500D02*Y71250D01*
X209300Y70500D01*
X206300D02*X207800D01*
X208550Y71250D01*
X211850Y76500D02*Y71250D01*
X212600Y70500D01*
X211100Y74250D02*X212600D01*
X214850Y70500D02*X217100D01*
X214100Y71250D02*X214850Y70500D01*
X214100Y72750D02*Y71250D01*
Y72750D02*X214850Y73500D01*
X216350D01*
X217100Y72750D01*
X214100Y72000D02*X217100D01*
Y72750D02*Y72000D01*
X218900Y74250D02*X219650D01*
X218900Y72750D02*X219650D01*
X227150Y76500D02*X227900Y75750D01*
X224900Y76500D02*X227150D01*
X224150Y75750D02*X224900Y76500D01*
X224150Y75750D02*Y74250D01*
X224900Y73500D01*
X227150D01*
X227900Y72750D01*
Y71250D01*
X227150Y70500D02*X227900Y71250D01*
X224900Y70500D02*X227150D01*
X224150Y71250D02*X224900Y70500D01*
X229700Y73500D02*Y71250D01*
X230450Y70500D01*
X231950D01*
X232700Y71250D01*
Y73500D02*Y71250D01*
X235250Y72750D02*Y70500D01*
Y72750D02*X236000Y73500D01*
X236750D01*
X237500Y72750D01*
Y70500D01*
X234500Y73500D02*X235250Y72750D01*
X242000Y71250D02*X242750Y70500D01*
X242000Y75750D02*Y71250D01*
Y75750D02*X242750Y76500D01*
X244250D01*
X245000Y75750D01*
Y71250D01*
X244250Y70500D02*X245000Y71250D01*
X242750Y70500D02*X244250D01*
X242000Y72000D02*X245000Y75000D01*
X246800Y75750D02*X247550Y76500D01*
X249050D01*
X249800Y75750D01*
Y71250D01*
X249050Y70500D02*X249800Y71250D01*
X247550Y70500D02*X249050D01*
X246800Y71250D02*X247550Y70500D01*
Y73500D02*X249800D01*
X254300Y76500D02*Y70500D01*
Y76500D02*X257300D01*
X254300Y73500D02*X256550D01*
X259850Y70500D02*X262100D01*
X259100Y71250D02*X259850Y70500D01*
X259100Y72750D02*Y71250D01*
Y72750D02*X259850Y73500D01*
X261350D01*
X262100Y72750D01*
X259100Y72000D02*X262100D01*
Y72750D02*Y72000D01*
X263900Y76500D02*Y70500D01*
Y71250D02*X264650Y70500D01*
X266150D01*
X266900Y71250D01*
Y72750D02*Y71250D01*
X266150Y73500D02*X266900Y72750D01*
X264650Y73500D02*X266150D01*
X263900Y72750D02*X264650Y73500D01*
X271400Y75750D02*X272150Y76500D01*
X274400D01*
X275150Y75750D01*
Y74250D01*
X271400Y70500D02*X275150Y74250D01*
X271400Y70500D02*X275150D01*
X276950Y71250D02*X277700Y70500D01*
X276950Y75750D02*Y71250D01*
Y75750D02*X277700Y76500D01*
X279200D01*
X279950Y75750D01*
Y71250D01*
X279200Y70500D02*X279950Y71250D01*
X277700Y70500D02*X279200D01*
X276950Y72000D02*X279950Y75000D01*
X282500Y70500D02*X284000D01*
X283250Y76500D02*Y70500D01*
X281750Y75000D02*X283250Y76500D01*
X285800Y75750D02*X286550Y76500D01*
X288050D01*
X288800Y75750D01*
Y71250D01*
X288050Y70500D02*X288800Y71250D01*
X286550Y70500D02*X288050D01*
X285800Y71250D02*X286550Y70500D01*
Y73500D02*X288800D01*
X293300Y71250D02*X294050Y70500D01*
X293300Y75750D02*Y71250D01*
Y75750D02*X294050Y76500D01*
X295550D01*
X296300Y75750D01*
Y71250D01*
X295550Y70500D02*X296300Y71250D01*
X294050Y70500D02*X295550D01*
X293300Y72000D02*X296300Y75000D01*
X298850Y70500D02*X300350D01*
X299600Y76500D02*Y70500D01*
X298100Y75000D02*X299600Y76500D01*
X302150Y74250D02*X302900D01*
X302150Y72750D02*X302900D01*
X304700Y75750D02*X305450Y76500D01*
X306950D01*
X307700Y75750D01*
Y71250D01*
X306950Y70500D02*X307700Y71250D01*
X305450Y70500D02*X306950D01*
X304700Y71250D02*X305450Y70500D01*
Y73500D02*X307700D01*
X309500Y76500D02*X312500D01*
X309500D02*Y73500D01*
X310250Y74250D01*
X311750D01*
X312500Y73500D01*
Y71250D01*
X311750Y70500D02*X312500Y71250D01*
X310250Y70500D02*X311750D01*
X309500Y71250D02*X310250Y70500D01*
X314300Y74250D02*X315050D01*
X314300Y72750D02*X315050D01*
X316850Y71250D02*X317600Y70500D01*
X316850Y75750D02*Y71250D01*
Y75750D02*X317600Y76500D01*
X319100D01*
X319850Y75750D01*
Y71250D01*
X319100Y70500D02*X319850Y71250D01*
X317600Y70500D02*X319100D01*
X316850Y72000D02*X319850Y75000D01*
X321650Y71250D02*X322400Y70500D01*
X321650Y75750D02*Y71250D01*
Y75750D02*X322400Y76500D01*
X323900D01*
X324650Y75750D01*
Y71250D01*
X323900Y70500D02*X324650Y71250D01*
X322400Y70500D02*X323900D01*
X321650Y72000D02*X324650Y75000D01*
X329150Y75750D02*Y70500D01*
Y75750D02*X329900Y76500D01*
X332150D01*
X332900Y75750D01*
Y70500D01*
X329150Y73500D02*X332900D01*
X334700Y76500D02*Y70500D01*
Y76500D02*X336950Y74250D01*
X339200Y76500D01*
Y70500D01*
X346700Y76500D02*X347450Y75750D01*
X344450Y76500D02*X346700D01*
X343700Y75750D02*X344450Y76500D01*
X343700Y75750D02*Y71250D01*
X344450Y70500D01*
X346700D01*
X347450Y71250D01*
Y72750D02*Y71250D01*
X346700Y73500D02*X347450Y72750D01*
X345200Y73500D02*X346700D01*
X349250Y76500D02*Y70500D01*
Y76500D02*X351500Y74250D01*
X353750Y76500D01*
Y70500D01*
X355550Y76500D02*X358550D01*
X357050D02*Y70500D01*
X363050Y76500D02*Y71250D01*
X363800Y70500D01*
X365300D01*
X366050Y71250D01*
Y76500D02*Y71250D01*
X367850Y76500D02*X370850D01*
X369350D02*Y70500D01*
X373400D02*X375650D01*
X372650Y71250D02*X373400Y70500D01*
X372650Y75750D02*Y71250D01*
Y75750D02*X373400Y76500D01*
X375650D01*
X200000Y90750D02*Y85500D01*
Y90750D02*X200750Y91500D01*
X203000D01*
X203750Y90750D01*
Y85500D01*
X200000Y88500D02*X203750D01*
X205550D02*Y86250D01*
X206300Y85500D01*
X207800D01*
X208550Y86250D01*
Y88500D02*Y86250D01*
X211100Y91500D02*Y86250D01*
X211850Y85500D01*
X210350Y89250D02*X211850D01*
X213350Y91500D02*Y85500D01*
Y87750D02*X214100Y88500D01*
X215600D01*
X216350Y87750D01*
Y85500D01*
X218150Y87750D02*Y86250D01*
Y87750D02*X218900Y88500D01*
X220400D01*
X221150Y87750D01*
Y86250D01*
X220400Y85500D02*X221150Y86250D01*
X218900Y85500D02*X220400D01*
X218150Y86250D02*X218900Y85500D01*
X223700Y87750D02*Y85500D01*
Y87750D02*X224450Y88500D01*
X225950D01*
X222950D02*X223700Y87750D01*
X227750Y89250D02*X228500D01*
X227750Y87750D02*X228500D01*
X233000Y91500D02*Y85500D01*
Y91500D02*X235250Y89250D01*
X237500Y91500D01*
Y85500D01*
X239300Y90000D02*Y89250D01*
Y87750D02*Y85500D01*
X241550Y88500D02*X243800D01*
X240800Y87750D02*X241550Y88500D01*
X240800Y87750D02*Y86250D01*
X241550Y85500D01*
X243800D01*
X245600Y91500D02*Y85500D01*
Y87750D02*X246350Y88500D01*
X247850D01*
X248600Y87750D01*
Y85500D01*
X252650Y88500D02*X253400Y87750D01*
X251150Y88500D02*X252650D01*
X250400Y87750D02*X251150Y88500D01*
X250400Y87750D02*Y86250D01*
X251150Y85500D01*
X253400Y88500D02*Y86250D01*
X254150Y85500D01*
X251150D02*X252650D01*
X253400Y86250D01*
X256700Y85500D02*X258950D01*
X255950Y86250D02*X256700Y85500D01*
X255950Y87750D02*Y86250D01*
Y87750D02*X256700Y88500D01*
X258200D01*
X258950Y87750D01*
X255950Y87000D02*X258950D01*
Y87750D02*Y87000D01*
X260750Y91500D02*Y86250D01*
X261500Y85500D01*
X266450Y91500D02*Y85500D01*
X265700Y91500D02*X268700D01*
X269450Y90750D01*
Y89250D01*
X268700Y88500D02*X269450Y89250D01*
X266450Y88500D02*X268700D01*
X272000Y85500D02*X274250D01*
X271250Y86250D02*X272000Y85500D01*
X271250Y87750D02*Y86250D01*
Y87750D02*X272000Y88500D01*
X273500D01*
X274250Y87750D01*
X271250Y87000D02*X274250D01*
Y87750D02*Y87000D01*
X276800Y91500D02*Y86250D01*
X277550Y85500D01*
X276050Y89250D02*X277550D01*
X279800Y85500D02*X282050D01*
X279050Y86250D02*X279800Y85500D01*
X279050Y87750D02*Y86250D01*
Y87750D02*X279800Y88500D01*
X281300D01*
X282050Y87750D01*
X279050Y87000D02*X282050D01*
Y87750D02*Y87000D01*
X284600Y87750D02*Y85500D01*
Y87750D02*X285350Y88500D01*
X286850D01*
X283850D02*X284600Y87750D01*
X289400Y85500D02*X291650D01*
X292400Y86250D01*
X291650Y87000D02*X292400Y86250D01*
X289400Y87000D02*X291650D01*
X288650Y87750D02*X289400Y87000D01*
X288650Y87750D02*X289400Y88500D01*
X291650D01*
X292400Y87750D01*
X288650Y86250D02*X289400Y85500D01*
X294950D02*X297200D01*
X294200Y86250D02*X294950Y85500D01*
X294200Y87750D02*Y86250D01*
Y87750D02*X294950Y88500D01*
X296450D01*
X297200Y87750D01*
X294200Y87000D02*X297200D01*
Y87750D02*Y87000D01*
X299750Y87750D02*Y85500D01*
Y87750D02*X300500Y88500D01*
X301250D01*
X302000Y87750D01*
Y85500D01*
X299000Y88500D02*X299750Y87750D01*
X200000Y106500D02*X203000D01*
X201500D02*Y100500D01*
X204800Y105000D02*Y104250D01*
Y102750D02*Y100500D01*
X207050Y106500D02*Y101250D01*
X207800Y100500D01*
X206300Y104250D02*X207800D01*
X209300Y106500D02*Y101250D01*
X210050Y100500D01*
X212300D02*X214550D01*
X211550Y101250D02*X212300Y100500D01*
X211550Y102750D02*Y101250D01*
Y102750D02*X212300Y103500D01*
X213800D01*
X214550Y102750D01*
X211550Y102000D02*X214550D01*
Y102750D02*Y102000D01*
X216350Y104250D02*X217100D01*
X216350Y102750D02*X217100D01*
X221600Y101250D02*X222350Y100500D01*
X221600Y105750D02*X222350Y106500D01*
X221600Y105750D02*Y101250D01*
X224150Y103500D02*Y101250D01*
X224900Y100500D01*
X226400D01*
X227150Y101250D01*
Y103500D02*Y101250D01*
X229700Y102750D02*Y100500D01*
Y102750D02*X230450Y103500D01*
X231200D01*
X231950Y102750D01*
Y100500D01*
X228950Y103500D02*X229700Y102750D01*
X233750Y106500D02*Y100500D01*
Y102750D02*X236000Y100500D01*
X233750Y102750D02*X235250Y104250D01*
X238550Y102750D02*Y100500D01*
Y102750D02*X239300Y103500D01*
X240050D01*
X240800Y102750D01*
Y100500D01*
X237800Y103500D02*X238550Y102750D01*
X242600D02*Y101250D01*
Y102750D02*X243350Y103500D01*
X244850D01*
X245600Y102750D01*
Y101250D01*
X244850Y100500D02*X245600Y101250D01*
X243350Y100500D02*X244850D01*
X242600Y101250D02*X243350Y100500D01*
X247400Y103500D02*Y101250D01*
X248150Y100500D01*
X248900D01*
X249650Y101250D01*
Y103500D02*Y101250D01*
X250400Y100500D01*
X251150D01*
X251900Y101250D01*
Y103500D02*Y101250D01*
X254450Y102750D02*Y100500D01*
Y102750D02*X255200Y103500D01*
X255950D01*
X256700Y102750D01*
Y100500D01*
X253700Y103500D02*X254450Y102750D01*
X258500Y106500D02*X259250Y105750D01*
Y101250D01*
X258500Y100500D02*X259250Y101250D01*
X263750Y103500D02*X266750D01*
X271250Y106500D02*Y100500D01*
Y106500D02*X274250D01*
X271250Y103500D02*X273500D01*
X278300D02*X279050Y102750D01*
X276800Y103500D02*X278300D01*
X276050Y102750D02*X276800Y103500D01*
X276050Y102750D02*Y101250D01*
X276800Y100500D01*
X279050Y103500D02*Y101250D01*
X279800Y100500D01*
X276800D02*X278300D01*
X279050Y101250D01*
X281600Y106500D02*Y100500D01*
Y101250D02*X282350Y100500D01*
X283850D01*
X284600Y101250D01*
Y102750D02*Y101250D01*
X283850Y103500D02*X284600Y102750D01*
X282350Y103500D02*X283850D01*
X281600Y102750D02*X282350Y103500D01*
X287150Y102750D02*Y100500D01*
Y102750D02*X287900Y103500D01*
X289400D01*
X286400D02*X287150Y102750D01*
X291200Y105000D02*Y104250D01*
Y102750D02*Y100500D01*
X293450Y103500D02*X295700D01*
X292700Y102750D02*X293450Y103500D01*
X292700Y102750D02*Y101250D01*
X293450Y100500D01*
X295700D01*
X299750Y103500D02*X300500Y102750D01*
X298250Y103500D02*X299750D01*
X297500Y102750D02*X298250Y103500D01*
X297500Y102750D02*Y101250D01*
X298250Y100500D01*
X300500Y103500D02*Y101250D01*
X301250Y100500D01*
X298250D02*X299750D01*
X300500Y101250D01*
X303800Y106500D02*Y101250D01*
X304550Y100500D01*
X303050Y104250D02*X304550D01*
X306050Y105000D02*Y104250D01*
Y102750D02*Y100500D01*
X307550Y102750D02*Y101250D01*
Y102750D02*X308300Y103500D01*
X309800D01*
X310550Y102750D01*
Y101250D01*
X309800Y100500D02*X310550Y101250D01*
X308300Y100500D02*X309800D01*
X307550Y101250D02*X308300Y100500D01*
X313100Y102750D02*Y100500D01*
Y102750D02*X313850Y103500D01*
X314600D01*
X315350Y102750D01*
Y100500D01*
X312350Y103500D02*X313100Y102750D01*
X320600Y106500D02*Y100500D01*
X322850Y106500D02*X323600Y105750D01*
Y101250D01*
X322850Y100500D02*X323600Y101250D01*
X319850Y100500D02*X322850D01*
X319850Y106500D02*X322850D01*
X326150Y102750D02*Y100500D01*
Y102750D02*X326900Y103500D01*
X328400D01*
X325400D02*X326150Y102750D01*
X332450Y103500D02*X333200Y102750D01*
X330950Y103500D02*X332450D01*
X330200Y102750D02*X330950Y103500D01*
X330200Y102750D02*Y101250D01*
X330950Y100500D01*
X333200Y103500D02*Y101250D01*
X333950Y100500D01*
X330950D02*X332450D01*
X333200Y101250D01*
X335750Y103500D02*Y101250D01*
X336500Y100500D01*
X337250D01*
X338000Y101250D01*
Y103500D02*Y101250D01*
X338750Y100500D01*
X339500D01*
X340250Y101250D01*
Y103500D02*Y101250D01*
X342050Y105000D02*Y104250D01*
Y102750D02*Y100500D01*
X344300Y102750D02*Y100500D01*
Y102750D02*X345050Y103500D01*
X345800D01*
X346550Y102750D01*
Y100500D01*
X343550Y103500D02*X344300Y102750D01*
X350600Y103500D02*X351350Y102750D01*
X349100Y103500D02*X350600D01*
X348350Y102750D02*X349100Y103500D01*
X348350Y102750D02*Y101250D01*
X349100Y100500D01*
X350600D01*
X351350Y101250D01*
X348350Y99000D02*X349100Y98250D01*
X350600D01*
X351350Y99000D01*
Y103500D02*Y99000D01*
M02*
